<svg id="Lag_1" data-name="Lag 1" xmlns="http://www.w3.org/2000/svg" viewBox="0 0 91 34"><defs><style>.cls-1{fill:#43567e;}.cls-2,.cls-4{fill:#fff;}.cls-2,.cls-3{stroke:#fff;stroke-miterlimit:10;}.cls-3{fill:none;}.cls-4{font-size:18.55px;font-family:Futura-CondensedExtraBold, Futura;font-weight:800;}</style></defs><title>delete</title><rect class="cls-1" x="1" width="89" height="33.64" rx="9.07"/><rect class="cls-2" x="13.78" y="5.72" width="21.02" height="2.26" rx="1.13"/><polygon class="cls-2" points="33.34 10.9 15.19 10.9 14.95 8.7 33.63 8.7 33.34 10.9"/><rect class="cls-2" x="22.83" y="18.79" width="18.15" height="1.07" rx="0.53" transform="translate(54.51 -10.35) rotate(96.09)"/><rect class="cls-2" x="18.44" y="18.43" width="17.6" height="1.49" rx="0.74" transform="translate(47.91 -6.94) rotate(93.24)"/><rect class="cls-2" x="7.57" y="18.76" width="18.15" height="1.13" rx="0.56" transform="translate(-0.8 37.92) rotate(-96.09)"/><rect class="cls-2" x="12.99" y="18.34" width="17.66" height="1.49" rx="0.74" transform="translate(39.73 -3.71) rotate(86.97)"/><rect class="cls-2" x="16.97" y="26.79" width="14.58" height="2.26" rx="1.13"/><rect class="cls-3" x="19.65" y="4.15" width="9.22" height="1.9" rx="0.95"/><text class="cls-4" transform="translate(45.25 24.63)">SLET</text></svg>
