<svg id="Levelcomplete" xmlns="http://www.w3.org/2000/svg" width="210" height="80" viewBox="0 0 210 80"><defs><style>.cls-1{fill:#152230;}.cls-2{fill:#fff;}</style></defs><title>delknap</title><rect class="cls-1" x="2.0077" y="1.0703" width="205.9845" height="77.8593" rx="9.0692"/><circle class="cls-2" cx="21.5655" cy="40.7228" r="8.5095"/><rect class="cls-2" x="23.0615" y="27.1515" width="24.9779" height="4.4636" transform="translate(-10.5335 27.5168) rotate(-37.2552)"/><circle class="cls-2" cx="48.3775" cy="19.4893" r="8.5095"/><rect class="cls-2" x="25.0665" y="49.178" width="24.9779" height="4.4636" transform="translate(28.476 -11.6056) rotate(27.9497)"/><circle class="cls-2" cx="52.0255" cy="59.0951" r="8.5095"/><path class="cls-2" d="M93.8446,55.3415V23.3239h7.4659q6.4072,0,9.9736,3.4424,4.686,4.5,4.6865,12.5869,0,7.9629-3.96,12.2969-3.3808,3.6913-10.0782,3.6914Zm8.6475-7.7344q4.6451-.2285,4.6455-8.0049a12.9737,12.9737,0,0,0-1.1826-6.0547,3.566,3.566,0,0,0-3.1934-2.24h-.27Z"/><path class="cls-2" d="M119.662,55.3415V23.3239h16.0713v7.5273H128.31v4.6661h6.6562v7.2373H128.31v4.8935h7.4238v7.6934Z"/><path class="cls-2" d="M154.5614,55.3415H139.4237V23.3239h8.6475V47.6481h6.49Z"/></svg>
