<svg xmlns="http://www.w3.org/2000/svg" width="260" height="290" viewBox="0 0 260 290"><defs><style>.cls-1{fill:#e9eced;stroke:#152230;stroke-miterlimit:10;stroke-width:3px;}.cls-2{fill:#f76363;}.cls-3{fill:#43567e;}.cls-4{fill:#8b3d92;}.cls-5{fill:#ea46f7;}</style></defs><title>dickpic</title><g id="Levelcompletetekst"><path class="cls-1" d="M231.79,18H21.21c-4,0-7.21,5.07-7.21,11.33V237.76c0,6.26,3.23,11.33,7.21,11.33H56v34.66l39.45-34.66H231.79c4,0,7.21-5.07,7.21-11.33V29.33C239,23.07,235.77,18,231.79,18Z"/><rect class="cls-2" x="23.5" y="40.5" width="206" height="145" rx="10.5"/><path class="cls-3" d="M219,42a9,9,0,0,1,9,9V175a9,9,0,0,1-9,9H34a9,9,0,0,1-9-9V51a9,9,0,0,1,9-9H219m0-3H34A12,12,0,0,0,22,51V175a12,12,0,0,0,12,12H219a12,12,0,0,0,12-12V51a12,12,0,0,0-12-12Z"/><path class="cls-4" d="M109.56,106.13s-12,6.13-10.9-31.82,3.2-2.41,3.2-2.41-.93-39.48,3.21-.5c0,0-1.49-35.22,4.16-.4,0,0-3.06-33.73,5.49-.53,0,0,3-32.78,6.84-.47S125.36,103.46,109.56,106.13Z"/><path class="cls-4" d="M163.45,100.72s13,3.72,4.62-33.32-3.61-1.75-3.61-1.75-6.62-38.93-3.24.12c0,0-5.27-34.85-4.16.4,0,0-3.44-33.69-5.49.53,0,0-9.17-31.61-6.8.84S147.43,101.12,163.45,100.72Z"/><ellipse class="cls-5" cx="122.85" cy="159.73" rx="4.74" ry="7.57" transform="translate(-14.76 12.53) rotate(-5.51)"/><ellipse class="cls-5" cx="133.28" cy="158.68" rx="4.74" ry="7.57" transform="translate(-14.61 13.52) rotate(-5.51)"/><path class="cls-4" d="M55.76,73.71S125,96.08,121,101.82s-46.1,5.8-48,1.78S55.76,73.71,55.76,73.71Z"/><rect class="cls-4" x="122.01" y="135.55" width="10.52" height="30.85" rx="5.26" transform="translate(-13.9 12.91) rotate(-5.51)"/><path class="cls-5" d="M124.32,122.29s4.75-.56,6.57,7.67,2.24,7.85-5.06,8h0c-7.2,1.23-6.72,1.52-6.5-6.91s5-8.78,5-8.78"/><path class="cls-5" d="M167.08,163.79c-.16,0-.33-.08-.49,0-18.86,7.53-22.44,14-34.18,15.12-12.74,1.23-36.28-8.39-36.35-8.36a1.61,1.61,0,1,1-1.44-2.89,97.63,97.63,0,0,1,20.95-6.76,125.14,125.14,0,0,1,51.68-.28,1.62,1.62,0,0,1-.17,3.19Z"/><path class="cls-5" d="M150.71,171.68s21.23-94.78,23.84-96.4,19-32.36,29.59.15-11,91.61-11,91.61Z"/><path class="cls-4" d="M174.66,75.38S144.44,93,149.49,97.87s18,6.68,19.13,2.37S174.66,75.38,174.66,75.38Z"/><path class="cls-5" d="M104.21,169.35s-38.95-89-41.82-90.07-24.82-28.13-29,5.8,28.28,87.83,28.28,87.83Z"/><rect class="cls-5" x="62" y="166" width="131" height="17"/></g></svg>
