<svg id="Levelcomplete" xmlns="http://www.w3.org/2000/svg" xmlns:xlink="http://www.w3.org/1999/xlink" width="130" height="80" viewBox="0 0 130 80"><defs><style>.cls-1{fill:#f9f7f8;}.cls-2{clip-path:url(#clip-path);}.cls-3{opacity:0.17;}</style><clipPath id="clip-path"><rect class="cls-1" x="13.2681" y="10.5" width="103.4638" height="59" rx="10"/></clipPath></defs><title>fuckinur</title><rect x="4.5" y="5.5" width="121" height="69" rx="10"/><rect class="cls-1" x="13.2681" y="10.5" width="103.4638" height="59" rx="10"/><g class="cls-2"><rect class="cls-3" x="65.5" y="2.5" width="64" height="80"/></g><rect x="61.5" y="28.9615" width="7" height="7"/><rect x="61.5" y="44.0385" width="7" height="7"/><rect x="28.5" y="3.5" width="17" height="5" rx="2.5"/><rect x="86.5" y="3.5" width="17" height="5" rx="2.5"/><path d="M22.3779,48.0874c-2.52-2.8794-3.0595-6.6592-3.0595-9.7905,0-3.0957.54-6.9473,3.06-9.8272a6.9965,6.9965,0,0,1,10.8711,0c2.52,2.88,3.06,6.7315,3.06,9.8272,0,3.1313-.54,6.9111-3.06,9.7905a6.9956,6.9956,0,0,1-10.8711,0Zm2.1963-16.99c-1.332,1.9794-1.6562,5.0752-1.6562,7.163,0,2.1236.3242,5.1831,1.6562,7.1993a3.64,3.64,0,0,0,6.4785,0c1.3321-2.0162,1.6563-5.0757,1.6563-7.1993,0-2.0878-.3242-5.1836-1.6563-7.163a3.64,3.64,0,0,0-6.4785,0Z"/><path d="M42.8262,48.0874c-2.52-2.8794-3.06-6.6592-3.06-9.7905,0-3.0957.54-6.9473,3.06-9.8272a6.9965,6.9965,0,0,1,10.8711,0c2.52,2.88,3.06,6.7315,3.06,9.8272,0,3.1313-.54,6.9111-3.0595,9.7905a6.9956,6.9956,0,0,1-10.8711,0Zm2.1963-16.99c-1.3321,1.9794-1.6563,5.0752-1.6563,7.163,0,2.1236.3242,5.1831,1.6563,7.1993a3.64,3.64,0,0,0,6.4785,0c1.332-2.0162,1.6562-5.0757,1.6562-7.1993,0-2.0878-.3242-5.1836-1.6562-7.163a3.64,3.64,0,0,0-6.4785,0Z"/></svg>
