<svg xmlns="http://www.w3.org/2000/svg" width="1920" height="1080" viewBox="0 0 1920 1080"><defs><style>.cls-1{fill:#989da0;}.cls-2{fill:#8d9091;}.cls-3{fill:#1c252e;}.cls-4{fill:#596063;}.cls-5{fill:#d6dee5;}.cls-6{fill:red;}</style></defs><title>Gameoverbaggrund</title><g id="Baggrund"><rect class="cls-1" width="1920" height="1080"/></g><g id="skygge"><rect class="cls-2" x="108.09" y="471.53" width="2203.83" height="1029.61" transform="translate(-326.8 712.13) rotate(-29.07)"/></g><g id="Træmmer"><rect class="cls-3" x="104" y="2" width="41" height="1080"/><rect class="cls-3" x="246" y="1" width="41" height="1080"/><rect class="cls-3" x="387" y="1" width="41" height="1080"/><rect class="cls-3" x="527" y="1" width="41" height="1080"/><rect class="cls-3" x="666" y="1" width="41" height="1080"/><rect class="cls-3" x="808" width="41" height="1080"/><rect class="cls-3" x="949" width="41" height="1080"/><rect class="cls-3" x="1089" width="41" height="1080"/><rect class="cls-3" x="1225" y="1" width="41" height="1080"/><rect class="cls-3" x="1367" width="41" height="1080"/><rect class="cls-3" x="1508" width="41" height="1080"/><rect class="cls-3" x="1648" width="41" height="1080"/><rect class="cls-3" x="1784" y="1" width="41" height="1080"/><rect class="cls-3" x="1900" y="2" width="20" height="1080"/><rect class="cls-3" x="-1" width="1921" height="18"/><rect class="cls-3" x="-1" y="1063" width="1921" height="17"/><rect class="cls-3" y="2" width="20" height="1080"/></g><g id="Lås"><rect class="cls-3" x="47.84" y="664" width="279.55" height="120"/><path class="cls-4" d="M198.86,710.39a15.54,15.54,0,0,0-31.06,0,15,15,0,0,0,6.47,12.27,3,3,0,0,0,0,.43v23a3.74,3.74,0,0,0,3.85,3.63h10.5a3.74,3.74,0,0,0,3.85-3.63v-23a3,3,0,0,0,0-.43A15,15,0,0,0,198.86,710.39Z"/></g><g id="vindue"><rect class="cls-5" x="585.89" y="171" width="1006.11" height="732" rx="22.34"/><path class="cls-6" d="M699.9,137.94l50.68,5.6-.62,5.59q-4.29,39-17.77,54.8-14.69,17.31-39.42,14.57-24.3-2.67-36.12-22.55-11.71-20-8.14-52.37,3.62-32.75,19.54-50.1T708,78.8q31.88,3.51,42.55,38.47l-36.61,9q-.08-6.46-2.5-10.49a8.67,8.67,0,0,0-6.68-4.5q-15-1.65-19.54,39.67-1.93,17.56.49,25.87t9.66,9.12a10.09,10.09,0,0,0,5.38-.82,12.09,12.09,0,0,0,4.4-3.5,21.47,21.47,0,0,0,3.2-5.88,33.2,33.2,0,0,0,1.81-8l-13.41-1.48Z"/><path class="cls-6" d="M838.68,257.68l-35.51-12.86,3.31-17.12-23.15-8.38-8.66,15.18-35.51-12.85,76.76-116.53,42,15.21Zm-26.33-58.79,3.16-15.68a13.86,13.86,0,0,1,.48-2.35q.5-1.89,3.47-15c.23-1,.56-2.31,1-4s.95-3.82,1.57-6.4l3.3-12.45q-.79,1.68-1.86,3.72t-2.32,4.49q-2.43,4.91-3.4,6.8c-.64,1.27-1,2-1.19,2.28l-8,14.59-10.7,18.75Z"/><path class="cls-6" d="M1013.72,276.73l-38.18-1-1.08-61.92L974,189.08q-.79,7.09-1.76,13.54T970,215.09l-13.07,60.14-29.78-.79-8.2-60.79q-.74-5.29-1.89-18.16c-.08-1.3-.28-3.94-.58-7.93l-1.54,25L910,274l-38.89-1L890.5,137.72,936,138.93l6.41,45.88q.81,5.66,1.38,12.26t1,14.36a218.37,218.37,0,0,1,3.77-23l10.58-48.87,45.1,1.19Z"/><path class="cls-6" d="M1054.62,264.48l-38-130.27,65.18-19,8.93,30.62-30.1,8.79,5.54,19,27-7.88,8.6,29.44-27,7.88,5.81,19.91,30.11-8.79,9.14,31.31Z"/><path class="cls-6" d="M1236.2,167.26q5.55,30.53-4.85,52.16T1198.87,245q-19.65,3.59-36.36-8.48-21-15.28-27.77-52.29-6.46-35.46,8.57-57.58,11.18-16.41,30-19.83,23-4.2,40.06,12.18T1236.2,167.26Zm-37.28,7.05q-6.59-36.23-19.35-33.91-6.37,1.17-8.44,11.36-2.1,9.5,1,26.62,3.08,16.86,8.26,25.52t11.38,7.53q6.39-1.16,8.16-11Q1201.89,190.66,1198.92,174.31Z"/><path class="cls-6" d="M1310.19,244.81l-36.81-5.61-10.22-138.83,37.94,5.79.74,39.32q.38,22.54-1.52,50.08,2.79-11.92,5.78-22.23t6.42-20l15.34-43.1,39.23,6Z"/><path class="cls-6" d="M1349.33,253.82,1396,126.38l63.77,23.35-11,30-29.46-10.79-6.79,18.57,26.4,9.67L1428.39,226,1402,216.28l-7.13,19.48,29.45,10.78-11.21,30.62Z"/><path class="cls-6" d="M1540.42,302.89l-39.17-5.22-11.49-50.31c-.07-.83-.23-2-.48-3.34s-.58-3.06-1-5l-.93,8.92L1481.11,295l-36-4.81,18-134.51,37.08,5q24.5,3.27,35.36,14.56,13.8,14.43,10.76,37.26Q1543,236.82,1521,243.37Zm-49.5-80.11,2.43.32a13.32,13.32,0,0,0,11.06-3.4,18,18,0,0,0,5.8-11.64q2-15.06-13.71-17.17l-1.3-.17Z"/><path d="M656,363.14V321.67h9.64q8.26,0,12.87,4.46,6,5.82,6,16.3,0,10.32-5.11,15.93-4.36,4.77-13,4.78Zm11.16-10q6-.3,6-10.37a16.82,16.82,0,0,0-1.53-7.84q-1.53-2.9-4.12-2.9h-.35Z"/><path d="M688.9,334.11h10.73v16.35a9.44,9.44,0,0,0,.45,3.41,1.9,1.9,0,0,0,1.83.89,1.79,1.79,0,0,0,1.76-.89,8.1,8.1,0,0,0,.48-3.41V334.11h10.74v17.8a16.61,16.61,0,0,1-.28,3.21,9.56,9.56,0,0,1-.89,2.61,8.6,8.6,0,0,1-1.55,2.13,11.74,11.74,0,0,1-2.26,1.77,15.36,15.36,0,0,1-8,2.1,15.2,15.2,0,0,1-8-2.1,11.64,11.64,0,0,1-2.29-1.76,8.31,8.31,0,0,1-1.55-2.13,9.74,9.74,0,0,1-.88-2.62,16.61,16.61,0,0,1-.28-3.21Z"/><path d="M761.82,363.14H751.08V347.77a6.8,6.8,0,0,0-.39-2.76,1.38,1.38,0,0,0-1.35-.78q-2.25,0-2.25,4.27v14.64H736.36V317.78h10.73V334c0,.88,0,1.61,0,2.2s0,1,0,1.34,0,.63-.08,1-.07.72-.11,1.13q2.6-6.15,7.6-6.15a6.35,6.35,0,0,1,5.41,2.6,11.9,11.9,0,0,1,2,7.25Z"/><path d="M792.6,363.14H781.84c.09-1,.16-1.89.21-2.77s.11-1.58.17-2.12q-2.79,5.47-7.47,5.48-4.08,0-6.46-4.08t-2.35-11.23q0-6.93,2.44-10.9a7.43,7.43,0,0,1,6.63-4q4.32,0,7,5.21c0-.36-.06-.67-.08-.94s0-.49,0-.67l-.11-1.7-.08-1.28h11Zm-10.87-14.88a26.38,26.38,0,0,0-.12-2.74,7.52,7.52,0,0,0-.39-1.84,2.11,2.11,0,0,0-.69-1,1.72,1.72,0,0,0-1-.31q-2.73,0-2.73,7.28c0,3.47.82,5.21,2.44,5.21S781.73,352.65,781.73,348.26Z"/><path d="M808.29,363.14H797.55v-29h10.74l-.56,5.66q2.43-6.36,8-6.36v12.08a6.54,6.54,0,0,0-3-1,3.9,3.9,0,0,0-3.34,1.57,7.64,7.64,0,0,0-1.16,4.58Z"/><path d="M850.24,363.14c0-.31,0-.66,0-1.05s0-.85.08-1.37c0-.32.06-.82.08-1.48a11.26,11.26,0,0,1-3,3.52,6.31,6.31,0,0,1-3.56,1,7.75,7.75,0,0,1-6.86-3.92q-2.46-3.93-2.46-10.91,0-7.32,2.41-11.36a7.53,7.53,0,0,1,6.8-4.05,6.48,6.48,0,0,1,3.88,1.07,10.7,10.7,0,0,1,3,3.73c-.06-.93-.08-1.49-.08-1.69l-.11-2.92v-15.9h10.76v45.36Zm-4.58-14.64q0,6,2.65,6,2.49,0,2.49-6.15,0-5.88-2.41-5.88Q845.66,342.43,845.66,348.5Z"/><path d="M881,353.31l10.49.21a12.88,12.88,0,0,1-4.37,7.64,13.35,13.35,0,0,1-8.5,2.57q-6.21,0-9.75-3.87t-3.51-10.72q0-6.9,3.78-11.25a12.27,12.27,0,0,1,9.74-4.38,11.74,11.74,0,0,1,9.48,4.22q3.54,4.25,3.53,11.25l-.05,1.91H876.07q.18,4.46,2.52,4.46A2.37,2.37,0,0,0,881,353.31Zm.24-8.22a5.31,5.31,0,0,0-.19-1.48,3.8,3.8,0,0,0-.52-1.15,2.75,2.75,0,0,0-.79-.77,1.81,1.81,0,0,0-1-.28,2.1,2.1,0,0,0-1.82,1,4.7,4.7,0,0,0-.7,2.65Z"/><path d="M906.75,363.14H896V317.78h10.74Z"/><path d="M923.93,363.14H913.17V342.78h-3v-8.67h3v-8.54h10.76v8.54h3.56v8.67h-3.56Z"/><path d="M957.85,363.14h-11V317.78h10.73v15.9c0,1.34-.05,2.88-.16,4.61a11.7,11.7,0,0,1,3-3.73,6.77,6.77,0,0,1,3.91-1.07,7.53,7.53,0,0,1,6.8,4.05q2.42,4,2.41,11.36,0,7-2.49,10.91a7.68,7.68,0,0,1-6.83,3.92,6.4,6.4,0,0,1-3.58-1,8.76,8.76,0,0,1-1.49-1.37,14.47,14.47,0,0,1-1.54-2.15c0,.34,0,.63,0,.87s0,.45.06.61Zm4.58-14.48q0-6.23-2.73-6.23-2.41,0-2.41,5.88,0,6.15,2.49,6.15C961.54,354.46,962.43,352.53,962.43,348.66Z"/><path d="M989.31,325.11a6,6,0,0,1-1.85,4.4,6.18,6.18,0,0,1-4.42,1.83,6.06,6.06,0,0,1-4.44-1.85,6.23,6.23,0,0,1-1.82-4.46,6,6,0,0,1,1.82-4.43,6.18,6.18,0,0,1,4.42-1.83,6.06,6.06,0,0,1,4.47,1.85A6.14,6.14,0,0,1,989.31,325.11Zm-.91,38H977.63v-29H988.4Z"/><path d="M1004.11,363.14H993.38V317.78h10.73Z"/><path d="M1019.82,363.14h-10.73V317.78h10.73Z"/><path d="M1039.61,353.31l10.49.21a12.84,12.84,0,0,1-4.38,7.64,13.31,13.31,0,0,1-8.5,2.57q-6.21,0-9.74-3.87T1024,349.14q0-6.9,3.78-11.25a12.25,12.25,0,0,1,9.74-4.38,11.75,11.75,0,0,1,9.48,4.22q3.52,4.25,3.53,11.25l0,1.91h-15.74q.18,4.46,2.51,4.46A2.37,2.37,0,0,0,1039.61,353.31Zm.24-8.22a5.31,5.31,0,0,0-.19-1.48,3.8,3.8,0,0,0-.52-1.15,2.75,2.75,0,0,0-.79-.77,1.86,1.86,0,0,0-1-.28,2.1,2.1,0,0,0-1.82,1,4.62,4.62,0,0,0-.7,2.65Z"/><path d="M1069.51,363.14c0-.31,0-.66,0-1.05s0-.85.08-1.37a14.72,14.72,0,0,0,.08-1.48,11.26,11.26,0,0,1-3,3.52,6.31,6.31,0,0,1-3.56,1,7.75,7.75,0,0,1-6.86-3.92q-2.46-3.93-2.46-10.91,0-7.32,2.41-11.36a7.53,7.53,0,0,1,6.8-4.05,6.46,6.46,0,0,1,3.88,1.07,10.59,10.59,0,0,1,3,3.73c-.05-.93-.08-1.49-.08-1.69l-.11-2.92v-15.9h10.76v45.36Zm-4.58-14.64q0,6,2.65,6,2.49,0,2.49-6.15,0-5.88-2.41-5.88Q1064.93,342.43,1064.93,348.5Z"/><path d="M1100.24,353.31l10.49.21a12.83,12.83,0,0,1-4.37,7.64,13.33,13.33,0,0,1-8.5,2.57q-6.21,0-9.75-3.87t-3.5-10.72q0-6.9,3.77-11.25a12.29,12.29,0,0,1,9.75-4.38,11.72,11.72,0,0,1,9.47,4.22q3.54,4.25,3.54,11.25l-.06,1.91h-15.74q.2,4.46,2.52,4.46A2.36,2.36,0,0,0,1100.24,353.31Zm.24-8.22a5.31,5.31,0,0,0-.19-1.48,3.57,3.57,0,0,0-.52-1.15,2.63,2.63,0,0,0-.79-.77,1.81,1.81,0,0,0-1-.28,2.11,2.11,0,0,0-1.82,1,4.7,4.7,0,0,0-.69,2.65Z"/><path d="M1126,363.14h-10.73v-29H1126l-.56,5.66q2.43-6.36,8.06-6.36v12.08a6.6,6.6,0,0,0-3-1,3.9,3.9,0,0,0-3.34,1.57,7.64,7.64,0,0,0-1.16,4.58Z"/><path d="M1178.94,363.14h-10.76c.09-1,.16-1.89.22-2.77s.1-1.58.16-2.12q-2.79,5.47-7.47,5.48-4.06,0-6.45-4.08t-2.36-11.23q0-6.93,2.44-10.9a7.43,7.43,0,0,1,6.64-4q4.31,0,7,5.21c0-.36-.07-.67-.08-.94s0-.49-.06-.67l-.1-1.7-.08-1.28h10.94Zm-10.86-14.88a26.38,26.38,0,0,0-.12-2.74,7.52,7.52,0,0,0-.39-1.84,2.12,2.12,0,0,0-.7-1,1.69,1.69,0,0,0-1-.31q-2.73,0-2.73,7.28,0,5.21,2.43,5.21T1168.08,348.26Z"/><path d="M1195.86,363.14h-10.73V342.78H1182v-8.67h3.11v-5.35q0-5.61,2.42-8.51c1.62-1.94,4-2.9,7.11-2.9a19.21,19.21,0,0,1,5.06.75v10a4.39,4.39,0,0,0-2.2-1c-1.1,0-1.66,1-1.66,3v4.06h3.86v8.67h-3.86Z"/><path d="M1219,334.11h10.74v16.35a9.18,9.18,0,0,0,.46,3.41,1.88,1.88,0,0,0,1.82.89,1.79,1.79,0,0,0,1.76-.89,8.1,8.1,0,0,0,.48-3.41V334.11H1245v17.8a16.61,16.61,0,0,1-.28,3.21,9.56,9.56,0,0,1-.89,2.61,8.6,8.6,0,0,1-1.55,2.13,11.74,11.74,0,0,1-2.26,1.77,15.36,15.36,0,0,1-8,2.1,15.2,15.2,0,0,1-8-2.1,11.64,11.64,0,0,1-2.29-1.76,8.31,8.31,0,0,1-1.55-2.13,9.74,9.74,0,0,1-.88-2.62,16.57,16.57,0,0,1-.29-3.21Z"/><path d="M1275.48,363.14h-10.74V347.77a6.8,6.8,0,0,0-.39-2.76,1.38,1.38,0,0,0-1.35-.78q-2.25,0-2.25,4.27v14.64H1250v-29h10.73c0,.71,0,1.37,0,2s0,1.18-.08,1.69l-.11,1.86q2.6-6.15,7.6-6.15a6.35,6.35,0,0,1,5.41,2.6,11.9,11.9,0,0,1,2,7.25Z"/><path d="M1306,334.11V364a16.73,16.73,0,0,1-.94,5.91,9.36,9.36,0,0,1-3,3.94,14.27,14.27,0,0,1-9,2.77c-3.94,0-7-.85-9.07-2.55s-3.41-4.35-3.91-8h11c.07,1.58.82,2.36,2.24,2.36a2,2,0,0,0,1.93-.95,6.51,6.51,0,0,0,.56-3.16v-4.59q-2.87,3.76-6.74,3.76-4.2,0-6.8-4.11t-2.57-10.79a20.85,20.85,0,0,1,2.57-10.91q2.6-4.21,6.72-4.21a5.81,5.81,0,0,1,3.32,1,13.44,13.44,0,0,1,3.18,3.47l-.21-3.81Zm-10.41,14.42q0-6.28-2.31-6.29-2.6,0-2.59,6.13c0,4.2.84,6.31,2.51,6.31S1295.61,352.63,1295.61,348.53Z"/><path d="M1326.2,353.31l10.5.21a12.84,12.84,0,0,1-4.38,7.64,13.33,13.33,0,0,1-8.5,2.57q-6.21,0-9.74-3.87t-3.51-10.72q0-6.9,3.78-11.25a12.25,12.25,0,0,1,9.74-4.38,11.75,11.75,0,0,1,9.48,4.22q3.53,4.25,3.53,11.25l0,1.91h-15.74q.18,4.46,2.51,4.46A2.36,2.36,0,0,0,1326.2,353.31Zm.25-8.22a5.7,5.7,0,0,0-.19-1.48,4.06,4.06,0,0,0-.52-1.15,2.88,2.88,0,0,0-.79-.77,1.86,1.86,0,0,0-1-.28,2.1,2.1,0,0,0-1.82,1,4.62,4.62,0,0,0-.7,2.65Z"/><path d="M1357.74,334.11h10.73v16.35a9.39,9.39,0,0,0,.46,3.41,1.89,1.89,0,0,0,1.82.89,1.82,1.82,0,0,0,1.77-.89,8.1,8.1,0,0,0,.48-3.41V334.11h10.73v17.8a16.61,16.61,0,0,1-.28,3.21,9.9,9.9,0,0,1-.88,2.61,8.86,8.86,0,0,1-1.55,2.13,11.82,11.82,0,0,1-2.27,1.77,15.34,15.34,0,0,1-8,2.1,15.16,15.16,0,0,1-8-2.1,11.08,11.08,0,0,1-2.29-1.76,8.35,8.35,0,0,1-1.56-2.13,10.1,10.1,0,0,1-.88-2.62,16.61,16.61,0,0,1-.28-3.21Z"/><path d="M1414.17,363.14h-10.73V347.77a6.8,6.8,0,0,0-.39-2.76,1.38,1.38,0,0,0-1.35-.78q-2.25,0-2.25,4.27v14.64h-10.74v-29h10.74q0,1.06-.06,2c0,.61,0,1.18-.08,1.69l-.1,1.86q2.6-6.15,7.6-6.15a6.36,6.36,0,0,1,5.41,2.6,11.9,11.9,0,0,1,2,7.25Z"/><path d="M1434,363.14c0-.31,0-.66,0-1.05s0-.85.08-1.37a14.72,14.72,0,0,0,.08-1.48,11.26,11.26,0,0,1-3,3.52,6.29,6.29,0,0,1-3.56,1,7.76,7.76,0,0,1-6.86-3.92q-2.46-3.93-2.46-10.91,0-7.32,2.41-11.36a7.53,7.53,0,0,1,6.8-4.05,6.46,6.46,0,0,1,3.88,1.07,10.59,10.59,0,0,1,3,3.73c-.05-.93-.08-1.49-.08-1.69l-.11-2.92v-15.9H1445v45.36Zm-4.58-14.64c0,4,.89,6,2.65,6s2.49-2,2.49-6.15q0-5.88-2.41-5.88Q1429.4,342.43,1429.4,348.5Z"/><path d="M1464.71,353.31l10.5.21a12.84,12.84,0,0,1-4.38,7.64,13.33,13.33,0,0,1-8.5,2.57q-6.21,0-9.75-3.87t-3.5-10.72q0-6.9,3.77-11.25a12.29,12.29,0,0,1,9.75-4.38,11.72,11.72,0,0,1,9.47,4.22q3.54,4.25,3.54,11.25l-.06,1.91h-15.74q.2,4.46,2.52,4.46A2.36,2.36,0,0,0,1464.71,353.31Zm.24-8.22a5.31,5.31,0,0,0-.19-1.48,3.57,3.57,0,0,0-.52-1.15,2.63,2.63,0,0,0-.79-.77,1.81,1.81,0,0,0-1-.28,2.11,2.11,0,0,0-1.82,1,4.7,4.7,0,0,0-.69,2.65Z"/><path d="M1490.49,363.14h-10.73v-29h10.73l-.56,5.66q2.43-6.36,8.06-6.36v12.08a6.6,6.6,0,0,0-3-1,3.87,3.87,0,0,0-3.33,1.57,7.57,7.57,0,0,0-1.17,4.58Z"/><path d="M677,429.14H665.82V397.42h-4.47v-9.75H677Z"/><path d="M685.6,426.64l1.31-9.83c3.31,1.92,6.26,2.87,8.86,2.87a6.34,6.34,0,0,0,4.13-1.29,4.08,4.08,0,0,0,1.6-3.35,4,4,0,0,0-1.74-3.43,8.47,8.47,0,0,0-4.9-1.22,20.25,20.25,0,0,0-7.25,1.45l3.21-24.17h20.56v9.75H699.6l-.88,4.65c.77-.06,1.39-.08,1.87-.08a11.39,11.39,0,0,1,8.6,3.7,12.73,12.73,0,0,1,3.48,9.13,14.22,14.22,0,0,1-4.5,10.74,15.46,15.46,0,0,1-11.22,4.3A22.4,22.4,0,0,1,685.6,426.64Z"/><path d="M760.45,429.14H749.69c.09-1,.16-1.89.21-2.77s.11-1.58.16-2.12q-2.77,5.47-7.46,5.48-4.08,0-6.46-4.08t-2.35-11.23q0-6.93,2.43-10.9a7.46,7.46,0,0,1,6.64-4q4.32,0,7,5.21c0-.36-.06-.67-.08-.94s0-.49,0-.67l-.11-1.7-.08-1.28h11Zm-5.65-38.43a5.62,5.62,0,0,1-1.76,4.16,5.72,5.72,0,0,1-4.18,1.72,5.89,5.89,0,0,1-4.23-1.75,6,6,0,0,1,0-8.43,5.61,5.61,0,0,1,4.2-1.77,5.71,5.71,0,0,1,4.23,1.77A6,6,0,0,1,754.8,390.71Zm-5.22,23.55a26.38,26.38,0,0,0-.12-2.74,7.52,7.52,0,0,0-.39-1.84,2.11,2.11,0,0,0-.69-1,1.74,1.74,0,0,0-1-.31q-2.73,0-2.73,7.28c0,3.47.82,5.21,2.44,5.21S749.58,418.65,749.58,414.26Zm1.74-23.61a2.51,2.51,0,0,0-.72-1.85,2.44,2.44,0,0,0-1.79-.73,2.31,2.31,0,0,0-1,.21,2.21,2.21,0,0,0-.79.55,2.44,2.44,0,0,0-.54.82,2.53,2.53,0,0,0,0,2,2.57,2.57,0,0,0,.54.8,2.36,2.36,0,0,0,.79.56,2.48,2.48,0,0,0,2.77-.56,2.72,2.72,0,0,0,.53-.8A2.31,2.31,0,0,0,751.32,390.65Z"/><path d="M776.14,429.14H765.4v-29h10.74l-.56,5.66q2.43-6.36,8-6.36v12.08a6.54,6.54,0,0,0-3-1,3.9,3.9,0,0,0-3.34,1.57,7.64,7.64,0,0,0-1.16,4.58Z"/><path d="M797.66,419.23l-7.23,19.92h-8.8l5.06-19.92Z"/><path d="M843.49,415.06q0,6.72-3.69,10.69a12.9,12.9,0,0,1-9.91,4,12.35,12.35,0,0,1-9.72-4.06q-3.58-4.08-3.58-11t3.66-11a12.16,12.16,0,0,1,9.67-4.19q6.35,0,10,4.16T843.49,415.06Zm-10.41-.35a17.23,17.23,0,0,0-.22-2.91,9.31,9.31,0,0,0-.61-2.23,4,4,0,0,0-1-1.43,1.82,1.82,0,0,0-1.25-.52c-.91,0-1.65.65-2.2,1.94a12,12,0,0,0-.83,5.07,12.27,12.27,0,0,0,.83,5.08c.55,1.29,1.29,1.93,2.22,1.93s1.6-.63,2.17-1.9A13.44,13.44,0,0,0,833.08,414.71Z"/><path d="M873.23,400.11V430a16.73,16.73,0,0,1-.94,5.91,9.36,9.36,0,0,1-3,3.94,14.27,14.27,0,0,1-9,2.77q-5.91,0-9.07-2.55t-3.91-8h11c.07,1.58.82,2.36,2.25,2.36a2,2,0,0,0,1.92-.95,6.49,6.49,0,0,0,.57-3.16v-4.59q-2.86,3.76-6.75,3.76-4.2,0-6.8-4.11t-2.57-10.79a20.85,20.85,0,0,1,2.57-10.91q2.6-4.21,6.72-4.21a5.79,5.79,0,0,1,3.32,1,13.44,13.44,0,0,1,3.18,3.47l-.21-3.81Zm-10.41,14.42q0-6.28-2.3-6.29-2.6,0-2.6,6.13c0,4.2.84,6.31,2.52,6.31S862.82,418.63,862.82,414.53Z"/><path d="M909.53,429.14q0-.47.06-1.05c0-.39,0-.85.08-1.37,0-.32.06-.82.08-1.48a11.4,11.4,0,0,1-3,3.52,6.29,6.29,0,0,1-3.56,1,7.73,7.73,0,0,1-6.85-3.92q-2.46-3.93-2.47-10.91,0-7.32,2.41-11.36a7.54,7.54,0,0,1,6.8-4.05,6.51,6.51,0,0,1,3.89,1.07,10.69,10.69,0,0,1,3,3.73c0-.93-.08-1.49-.08-1.69l-.1-2.92v-15.9h10.76v45.36ZM905,414.5c0,4,.89,6,2.65,6s2.49-2,2.49-6.15q0-5.88-2.41-5.88Q905,408.43,905,414.5Z"/><path d="M940.26,419.31l10.5.21a12.84,12.84,0,0,1-4.38,7.64,13.33,13.33,0,0,1-8.5,2.57q-6.21,0-9.74-3.87t-3.51-10.72q0-6.9,3.77-11.25a12.29,12.29,0,0,1,9.75-4.38,11.75,11.75,0,0,1,9.48,4.22q3.52,4.25,3.53,11.25l0,1.91H935.36q.2,4.46,2.52,4.46A2.36,2.36,0,0,0,940.26,419.31Zm.24-8.22a5.72,5.72,0,0,0-.18-1.48,3.81,3.81,0,0,0-.53-1.15,2.72,2.72,0,0,0-.78-.77,1.87,1.87,0,0,0-1-.28,2.12,2.12,0,0,0-1.82,1,4.7,4.7,0,0,0-.69,2.65Z"/><path d="M967.62,429.14H956.86V408.78h-3.05v-8.67h3.05v-8.54h10.76v8.54h3.56v8.67h-3.56Z"/><path d="M1005.37,419.31l10.49.21a12.84,12.84,0,0,1-4.38,7.64,13.3,13.3,0,0,1-8.49,2.57c-4.15,0-7.39-1.29-9.75-3.87s-3.51-6.19-3.51-10.72,1.26-8.35,3.78-11.25a12.25,12.25,0,0,1,9.74-4.38,11.75,11.75,0,0,1,9.48,4.22q3.53,4.25,3.53,11.25l0,1.91h-15.74q.18,4.46,2.52,4.46A2.37,2.37,0,0,0,1005.37,419.31Zm.24-8.22a5.31,5.31,0,0,0-.19-1.48,3.8,3.8,0,0,0-.52-1.15,2.75,2.75,0,0,0-.79-.77,1.81,1.81,0,0,0-1-.28,2.1,2.1,0,0,0-1.82,1,4.62,4.62,0,0,0-.7,2.65Z"/><path d="M1031.15,429.14h-10.74v-29h10.74l-.57,5.66q2.45-6.36,8.06-6.36v12.08a6.6,6.6,0,0,0-3-1,3.9,3.9,0,0,0-3.33,1.57,7.64,7.64,0,0,0-1.16,4.58Z"/><path d="M1058.24,400.11H1069v16.35a9.18,9.18,0,0,0,.46,3.41,1.89,1.89,0,0,0,1.82.89,1.82,1.82,0,0,0,1.77-.89,8.1,8.1,0,0,0,.48-3.41V400.11h10.73v17.8a16.61,16.61,0,0,1-.28,3.21,9.9,9.9,0,0,1-.88,2.61,8.64,8.64,0,0,1-1.56,2.13,11.44,11.44,0,0,1-2.26,1.77,16.31,16.31,0,0,1-16,0,11.28,11.28,0,0,1-2.28-1.76,8.12,8.12,0,0,1-1.56-2.13,10.1,10.1,0,0,1-.88-2.62,16.61,16.61,0,0,1-.28-3.21Z"/><path d="M1100,429.14h-10.74V383.78H1100Z"/><path d="M1131,415.06q0,6.72-3.7,10.69a12.86,12.86,0,0,1-9.9,4,12.35,12.35,0,0,1-9.72-4.06q-3.59-4.08-3.58-11t3.66-11a12.16,12.16,0,0,1,9.67-4.19q6.35,0,10,4.16T1131,415.06Zm-10.41-.35a18.34,18.34,0,0,0-.22-2.91,9.79,9.79,0,0,0-.61-2.23,4,4,0,0,0-1-1.43,1.82,1.82,0,0,0-1.26-.52c-.91,0-1.64.65-2.19,1.94a12,12,0,0,0-.83,5.07,12.27,12.27,0,0,0,.83,5.08c.55,1.29,1.29,1.93,2.22,1.93s1.6-.63,2.17-1.9A13.44,13.44,0,0,0,1120.59,414.71Z"/><path d="M1151.42,429.14h-11.21l-8-29h10.87l1.66,8.48c.23,1.09.45,2.45.64,4.07s.39,3.56.59,5.81q.38-3.08.72-5.37c.23-1.52.47-2.83.7-3.92l1.85-9.07h10.6Z"/><path d="M1173.51,429.14h-10.73V383.78h10.73Z"/><path d="M1190.13,391.11a6,6,0,0,1-1.84,4.4,6.18,6.18,0,0,1-4.42,1.83,6.06,6.06,0,0,1-4.44-1.85,6.23,6.23,0,0,1-1.82-4.46,6,6,0,0,1,1.82-4.43,6.16,6.16,0,0,1,4.41-1.83,6,6,0,0,1,4.47,1.85A6.1,6.1,0,0,1,1190.13,391.11Zm-.91,38h-10.76v-29h10.76Z"/><path d="M1219.8,400.11V430a17,17,0,0,1-.94,5.91,9.44,9.44,0,0,1-3,3.94,14.29,14.29,0,0,1-9,2.77c-4,0-7-.85-9.08-2.55s-3.41-4.35-3.9-8h11c.07,1.58.82,2.36,2.25,2.36a2.05,2.05,0,0,0,1.93-.95,6.64,6.64,0,0,0,.56-3.16v-4.59q-2.87,3.76-6.75,3.76-4.2,0-6.8-4.11t-2.57-10.79a20.85,20.85,0,0,1,2.57-10.91q2.6-4.21,6.72-4.21a5.76,5.76,0,0,1,3.32,1,13.45,13.45,0,0,1,3.19,3.47l-.22-3.81Zm-10.42,14.42q0-6.28-2.3-6.29-2.6,0-2.6,6.13c0,4.2.84,6.31,2.52,6.31S1209.38,418.63,1209.38,414.53Z"/><path d="M1237,429.14h-10.76V408.78h-3v-8.67h3v-8.54H1237v8.54h3.56v8.67H1237Z"/><path d="M1257.17,423.52a5.85,5.85,0,0,1-1.88,4.38,6.24,6.24,0,0,1-10.65-4.46,6.26,6.26,0,0,1,10.7-4.43A6.12,6.12,0,0,1,1257.17,423.52Zm-.67-9.23h-10.9v-29h10.9Z"/><path d="M1280.27,429.14V387.67h9.64q8.27,0,12.87,4.46,6,5.82,6,16.3,0,10.32-5.11,15.93-4.37,4.77-13,4.78Zm11.16-10q6-.3,6-10.37a16.82,16.82,0,0,0-1.53-7.84q-1.53-2.9-4.12-2.9h-.35Z"/><path d="M1328,419.31l10.49.21a12.88,12.88,0,0,1-4.37,7.64,13.35,13.35,0,0,1-8.5,2.57q-6.21,0-9.75-3.87t-3.5-10.72q0-6.9,3.77-11.25a12.27,12.27,0,0,1,9.74-4.38,11.74,11.74,0,0,1,9.48,4.22q3.54,4.25,3.53,11.25l-.05,1.91H1323.1q.18,4.46,2.52,4.46A2.37,2.37,0,0,0,1328,419.31Zm.24-8.22a5.31,5.31,0,0,0-.19-1.48,3.8,3.8,0,0,0-.52-1.15,2.75,2.75,0,0,0-.79-.77,1.81,1.81,0,0,0-1-.28,2.1,2.1,0,0,0-1.82,1,4.62,4.62,0,0,0-.7,2.65Z"/><path d="M1368.5,429.14h-10.73V413.77a6.8,6.8,0,0,0-.39-2.76,1.38,1.38,0,0,0-1.35-.78q-2.25,0-2.25,4.27v14.64H1343v-29h10.74q0,1.06-.06,2c0,.61,0,1.18-.08,1.69l-.1,1.86q2.6-6.15,7.6-6.15a6.36,6.36,0,0,1,5.41,2.6,11.9,11.9,0,0,1,2,7.25Z"/><path d="M1398.91,429.14h-10.73V413.77a6.8,6.8,0,0,0-.39-2.76,1.38,1.38,0,0,0-1.35-.78q-2.25,0-2.25,4.27v14.64h-10.74v-29h10.74q0,1.06-.06,2c0,.61,0,1.18-.08,1.69l-.1,1.86q2.6-6.15,7.6-6.15a6.36,6.36,0,0,1,5.41,2.6,11.9,11.9,0,0,1,2,7.25Z"/><path d="M1418.67,419.31l10.49.21a12.84,12.84,0,0,1-4.38,7.64,13.3,13.3,0,0,1-8.49,2.57c-4.15,0-7.39-1.29-9.75-3.87s-3.51-6.19-3.51-10.72,1.26-8.35,3.78-11.25a12.25,12.25,0,0,1,9.74-4.38,11.75,11.75,0,0,1,9.48,4.22q3.53,4.25,3.53,11.25l0,1.91h-15.74q.18,4.46,2.52,4.46A2.37,2.37,0,0,0,1418.67,419.31Zm.24-8.22a5.31,5.31,0,0,0-.19-1.48,3.8,3.8,0,0,0-.52-1.15,2.75,2.75,0,0,0-.79-.77,1.81,1.81,0,0,0-1-.28,2.1,2.1,0,0,0-1.82,1,4.62,4.62,0,0,0-.7,2.65Z"/><path d="M654.52,492.75l3.91-8.06q2.9,3,5.38,3c1.39,0,2.09-.5,2.09-1.5s-.94-1.63-2.81-2.31q-7.58-2.69-7.58-8.51a8.86,8.86,0,0,1,3.38-7.09,12.82,12.82,0,0,1,8.48-2.82,18.35,18.35,0,0,1,8.62,2.36l-3.67,7.87q-2.7-2.55-4.41-2.55c-1.13,0-1.69.45-1.69,1.37s1.07,1.9,3.21,2.76q4,1.59,5.46,3.36a7.23,7.23,0,0,1,1.53,4.89,9.31,9.31,0,0,1-3.24,7.33,12.13,12.13,0,0,1-8.32,2.85,19.55,19.55,0,0,1-4.85-.62,16.34,16.34,0,0,1-2.46-.9C656.66,493.81,655.65,493.32,654.52,492.75Z"/><path d="M690.77,495.14H680V449.78h10.74Z"/><path d="M721.58,495.14H710.82c.09-1,.16-1.89.21-2.77s.11-1.58.16-2.12q-2.78,5.47-7.46,5.48-4.08,0-6.46-4.08t-2.35-11.23q0-6.93,2.43-10.9a7.46,7.46,0,0,1,6.64-4q4.32,0,7,5.21c0-.36-.06-.67-.08-.94s0-.49,0-.67l-.11-1.7-.08-1.28h11Zm-10.87-14.88a26.38,26.38,0,0,0-.12-2.74,7.52,7.52,0,0,0-.39-1.84,2.11,2.11,0,0,0-.69-1,1.74,1.74,0,0,0-1-.31q-2.73,0-2.73,7.28c0,3.47.82,5.21,2.44,5.21S710.71,484.65,710.71,480.26Z"/><path d="M752.13,466.11V496a17,17,0,0,1-.94,5.91,9.44,9.44,0,0,1-3.05,3.94,14.29,14.29,0,0,1-9,2.77c-4,0-7-.85-9.08-2.55s-3.41-4.35-3.91-8h11c.07,1.58.82,2.36,2.25,2.36a2.05,2.05,0,0,0,1.93-.95,6.64,6.64,0,0,0,.56-3.16v-4.59q-2.87,3.76-6.75,3.76-4.2,0-6.8-4.11t-2.57-10.79a20.85,20.85,0,0,1,2.57-10.91q2.6-4.21,6.72-4.21a5.76,5.76,0,0,1,3.32,1,13.45,13.45,0,0,1,3.19,3.47l-.22-3.81Zm-10.42,14.42q0-6.28-2.3-6.29-2.6,0-2.6,6.13c0,4.2.84,6.31,2.52,6.31S741.71,484.63,741.71,480.53Z"/><path d="M756,492.75l3.91-8.06q2.89,3,5.38,3c1.4,0,2.09-.5,2.09-1.5s-.94-1.63-2.81-2.31Q757,481.23,757,475.4a8.86,8.86,0,0,1,3.38-7.09,12.82,12.82,0,0,1,8.48-2.82,18.35,18.35,0,0,1,8.62,2.36l-3.66,7.87q-2.72-2.55-4.42-2.55c-1.13,0-1.69.45-1.69,1.37s1.07,1.9,3.21,2.76q4,1.59,5.47,3.36a7.28,7.28,0,0,1,1.52,4.89,9.31,9.31,0,0,1-3.24,7.33,12.13,12.13,0,0,1-8.32,2.85,19.55,19.55,0,0,1-4.85-.62,16.34,16.34,0,0,1-2.46-.9C758.17,493.81,757.16,493.32,756,492.75Z"/><path d="M809,495.14H798V449.78h10.73v15.9c0,1.34,0,2.88-.16,4.61a11.7,11.7,0,0,1,3-3.73,6.77,6.77,0,0,1,3.91-1.07,7.53,7.53,0,0,1,6.8,4.05q2.41,4,2.41,11.36,0,7-2.49,10.91a7.68,7.68,0,0,1-6.83,3.92,6.4,6.4,0,0,1-3.58-1,8.76,8.76,0,0,1-1.49-1.37,14.47,14.47,0,0,1-1.54-2.15c0,.34,0,.63.05.87s0,.45.06.61Zm4.58-14.48q0-6.23-2.73-6.23-2.42,0-2.41,5.88,0,6.15,2.49,6.15Q813.6,486.46,813.59,480.66Z"/><path d="M840.47,457.11a6,6,0,0,1-1.85,4.4,6.18,6.18,0,0,1-4.42,1.83,6.06,6.06,0,0,1-4.44-1.85,6.23,6.23,0,0,1-1.82-4.46,6,6,0,0,1,1.82-4.43,6.16,6.16,0,0,1,4.42-1.83,6.06,6.06,0,0,1,4.47,1.85A6.14,6.14,0,0,1,840.47,457.11Zm-.91,38H828.79v-29h10.77Z"/><path d="M855.27,495.14H844.54V449.78h10.73Z"/><path d="M871,495.14H860.25V449.78H871Z"/><path d="M890.77,485.31l10.49.21a12.84,12.84,0,0,1-4.38,7.64,13.33,13.33,0,0,1-8.5,2.57q-6.21,0-9.74-3.87t-3.51-10.72q0-6.9,3.78-11.25a12.25,12.25,0,0,1,9.74-4.38,11.75,11.75,0,0,1,9.48,4.22q3.52,4.25,3.53,11.25l0,1.91H885.87q.18,4.46,2.51,4.46A2.37,2.37,0,0,0,890.77,485.31Zm.24-8.22a5.7,5.7,0,0,0-.19-1.48,4.06,4.06,0,0,0-.52-1.15,2.88,2.88,0,0,0-.79-.77,1.86,1.86,0,0,0-1-.28,2.1,2.1,0,0,0-1.82,1,4.62,4.62,0,0,0-.7,2.65Z"/><path d="M920.67,495.14c0-.31,0-.66.05-1.05s0-.85.08-1.37c0-.32.06-.82.08-1.48a11.26,11.26,0,0,1-3,3.52,6.31,6.31,0,0,1-3.56,1,7.75,7.75,0,0,1-6.86-3.92Q905,487.88,905,480.9q0-7.32,2.41-11.36a7.53,7.53,0,0,1,6.8-4.05,6.46,6.46,0,0,1,3.88,1.07,10.59,10.59,0,0,1,3,3.73c-.05-.93-.08-1.49-.08-1.69l-.11-2.92v-15.9h10.76v45.36Zm-4.58-14.64q0,6,2.65,6,2.49,0,2.49-6.15,0-5.88-2.41-5.88Q916.09,474.43,916.09,480.5Z"/><path d="M951.4,485.31l10.49.21a12.83,12.83,0,0,1-4.37,7.64,13.33,13.33,0,0,1-8.5,2.57q-6.21,0-9.75-3.87t-3.5-10.72q0-6.9,3.77-11.25a12.29,12.29,0,0,1,9.75-4.38,11.72,11.72,0,0,1,9.47,4.22Q962.3,474,962.29,481l0,1.91H946.5c.13,3,1,4.46,2.52,4.46A2.37,2.37,0,0,0,951.4,485.31Zm.24-8.22a5.31,5.31,0,0,0-.19-1.48,3.8,3.8,0,0,0-.52-1.15,2.75,2.75,0,0,0-.79-.77,1.81,1.81,0,0,0-1-.28,2.1,2.1,0,0,0-1.82,1,4.7,4.7,0,0,0-.7,2.65Z"/><path d="M977.18,495.14H966.44v-29h10.74l-.56,5.66q2.43-6.36,8-6.36v12.08a6.54,6.54,0,0,0-3-1,3.9,3.9,0,0,0-3.34,1.57,7.64,7.64,0,0,0-1.16,4.58Z"/><path d="M1020.12,495.14,1016,483.86c-.2-.5-.52-1.61-1-3.31v14.59h-10.74V449.78H1015v29.4c.23-.75.48-1.5.76-2.24s.56-1.5.87-2.27l3.48-8.56h11.62l-7.12,13.32,7.84,15.71Z"/><path d="M1060.51,495.14h-10.76c.09-1,.16-1.89.22-2.77s.1-1.58.16-2.12q-2.79,5.47-7.47,5.48-4.07,0-6.45-4.08t-2.36-11.23q0-6.93,2.44-10.9a7.43,7.43,0,0,1,6.64-4q4.3,0,7,5.21c0-.36-.07-.67-.08-.94s0-.49-.06-.67l-.1-1.7-.08-1.28h10.94Zm-10.86-14.88a26.38,26.38,0,0,0-.12-2.74,7.52,7.52,0,0,0-.39-1.84,2.12,2.12,0,0,0-.7-1,1.69,1.69,0,0,0-1-.31q-2.73,0-2.73,7.28,0,5.21,2.43,5.21T1049.65,480.26Z"/><path d="M1076.2,495.14h-10.73V449.78h10.73Z"/><path d="M1096,495.14c0-.31,0-.66,0-1.05s.05-.85.08-1.37c0-.32.06-.82.08-1.48a11.26,11.26,0,0,1-3,3.52,6.31,6.31,0,0,1-3.56,1,7.75,7.75,0,0,1-6.86-3.92q-2.46-3.93-2.46-10.91,0-7.32,2.41-11.36a7.53,7.53,0,0,1,6.8-4.05,6.46,6.46,0,0,1,3.88,1.07,10.59,10.59,0,0,1,3,3.73c0-.93-.08-1.49-.08-1.69l-.11-2.92v-15.9H1107v45.36Zm-4.58-14.64q0,6,2.65,6,2.49,0,2.49-6.15,0-5.88-2.41-5.88Q1091.46,474.43,1091.46,480.5Z"/><path d="M1126.77,485.31l10.49.21a12.88,12.88,0,0,1-4.37,7.64,13.35,13.35,0,0,1-8.5,2.57q-6.21,0-9.75-3.87t-3.5-10.72q0-6.9,3.77-11.25a12.27,12.27,0,0,1,9.75-4.38,11.72,11.72,0,0,1,9.47,4.22q3.54,4.25,3.54,11.25l-.06,1.91h-15.74c.13,3,1,4.46,2.52,4.46A2.36,2.36,0,0,0,1126.77,485.31Zm.24-8.22a5.31,5.31,0,0,0-.19-1.48,3.8,3.8,0,0,0-.52-1.15,2.63,2.63,0,0,0-.79-.77,1.81,1.81,0,0,0-1-.28,2.11,2.11,0,0,0-1.82,1,4.7,4.7,0,0,0-.7,2.65Z"/><path d="M1140.77,492.75l3.91-8.06q2.89,3,5.38,3c1.39,0,2.09-.5,2.09-1.5s-.94-1.63-2.81-2.31q-7.58-2.69-7.58-8.51a8.88,8.88,0,0,1,3.37-7.09,12.86,12.86,0,0,1,8.49-2.82,18.38,18.38,0,0,1,8.62,2.36l-3.67,7.87q-2.7-2.55-4.41-2.55c-1.13,0-1.69.45-1.69,1.37s1.07,1.9,3.21,2.76q4,1.59,5.46,3.36a7.23,7.23,0,0,1,1.53,4.89,9.31,9.31,0,0,1-3.24,7.33,12.15,12.15,0,0,1-8.33,2.85,19.53,19.53,0,0,1-4.84-.62,16.34,16.34,0,0,1-2.46-.9C1142.9,493.81,1141.9,493.32,1140.77,492.75Z"/><path d="M1194.74,495.14H1184V474.78h-3.1v-8.67h3.1v-5.35q0-5.61,2.43-8.51c1.61-1.94,4-2.9,7.1-2.9a19.15,19.15,0,0,1,5.06.75v10a4.33,4.33,0,0,0-2.19-1c-1.11,0-1.66,1-1.66,3v4.06h3.85v8.67h-3.85Z"/><path d="M1227.88,481.06q0,6.72-3.69,10.69a12.9,12.9,0,0,1-9.91,4,12.35,12.35,0,0,1-9.72-4.06q-3.58-4.08-3.58-11t3.66-11a12.16,12.16,0,0,1,9.67-4.19q6.35,0,10,4.16T1227.88,481.06Zm-10.41-.35a18.34,18.34,0,0,0-.22-2.91,9.79,9.79,0,0,0-.61-2.23,4,4,0,0,0-1-1.43,1.82,1.82,0,0,0-1.25-.52c-.92,0-1.65.65-2.2,1.94a12,12,0,0,0-.83,5.07,12.27,12.27,0,0,0,.83,5.08c.55,1.29,1.29,1.93,2.22,1.93s1.6-.63,2.17-1.9A13.44,13.44,0,0,0,1217.47,480.71Z"/><path d="M1242.76,495.14H1232v-29h10.73l-.56,5.66q2.44-6.36,8.06-6.36v12.08a6.6,6.6,0,0,0-3-1,3.89,3.89,0,0,0-3.33,1.57,7.57,7.57,0,0,0-1.17,4.58Z"/><path d="M1280.83,495.14h-11V449.78h10.74v15.9c0,1.34,0,2.88-.16,4.61a11.7,11.7,0,0,1,3-3.73,6.77,6.77,0,0,1,3.91-1.07,7.53,7.53,0,0,1,6.8,4.05q2.4,4,2.41,11.36,0,7-2.49,10.91a7.68,7.68,0,0,1-6.83,3.92,6.46,6.46,0,0,1-3.59-1,9.12,9.12,0,0,1-1.48-1.37,14.47,14.47,0,0,1-1.54-2.15c0,.34,0,.63.05.87s0,.45.06.61Zm4.58-14.48q0-6.23-2.73-6.23-2.42,0-2.41,5.88,0,6.15,2.49,6.15C1284.52,486.46,1285.41,484.53,1285.41,480.66Z"/><path d="M1306.9,494.44l-2.89,4.13-4.17-3,3.08-4.51a17.24,17.24,0,0,1-3.11-10.37q0-6.87,3.67-11a12.14,12.14,0,0,1,9.66-4.19,15,15,0,0,1,6.53,1.45l2.84-4.08,4.2,2.9-3.1,4.48a17.57,17.57,0,0,1,3.1,10.66q0,6.86-3.66,10.85t-9.94,4A15.22,15.22,0,0,1,1306.9,494.44Zm9.4-13.73a18.41,18.41,0,0,0-.21-2.91,9.77,9.77,0,0,0-.62-2.23,4.16,4.16,0,0,0-1-1.43,1.86,1.86,0,0,0-1.26-.52c-.91,0-1.64.65-2.2,1.94a12,12,0,0,0-.83,5.07,12.27,12.27,0,0,0,.83,5.08c.56,1.29,1.3,1.93,2.23,1.93s1.59-.63,2.16-1.9A13.44,13.44,0,0,0,1316.3,480.71Z"/><path d="M1341.6,495.14h-10.74v-29h10.74l-.56,5.66q2.43-6.36,8-6.36v12.08a6.53,6.53,0,0,0-3-1,3.9,3.9,0,0,0-3.33,1.57,7.64,7.64,0,0,0-1.16,4.58Z"/><path d="M1378.19,495.14h-10.73V479.77a6.8,6.8,0,0,0-.39-2.76,1.38,1.38,0,0,0-1.35-.78q-2.25,0-2.25,4.27v14.64h-10.74v-29h10.74c0,.71,0,1.37,0,2s-.05,1.18-.09,1.69l-.1,1.86q2.6-6.15,7.6-6.15a6.36,6.36,0,0,1,5.41,2.6,11.9,11.9,0,0,1,2,7.25Z"/><path d="M1398,485.31l10.49.21a12.84,12.84,0,0,1-4.38,7.64,13.3,13.3,0,0,1-8.49,2.57c-4.15,0-7.39-1.29-9.75-3.87s-3.51-6.19-3.51-10.72,1.26-8.35,3.78-11.25a12.25,12.25,0,0,1,9.74-4.38,11.75,11.75,0,0,1,9.48,4.22q3.54,4.25,3.53,11.25l0,1.91h-15.74q.18,4.46,2.52,4.46A2.37,2.37,0,0,0,1398,485.31Zm.24-8.22a5.31,5.31,0,0,0-.19-1.48,3.8,3.8,0,0,0-.52-1.15,2.75,2.75,0,0,0-.79-.77,1.81,1.81,0,0,0-1-.28,2.1,2.1,0,0,0-1.82,1,4.62,4.62,0,0,0-.7,2.65Z"/><path d="M1423.73,508.08H1413v-42h10.74l-.24,4.1a14.21,14.21,0,0,1,1.36-2.18,7.41,7.41,0,0,1,1.5-1.47,5.72,5.72,0,0,1,1.73-.82,7.65,7.65,0,0,1,2-.25c2.79,0,5.06,1.39,6.8,4.19s2.6,6.42,2.6,11-.83,8.31-2.49,11a7.49,7.49,0,0,1-6.72,4.06c-2.6,0-4.88-1.52-6.82-4.54.09.91.14,1.7.16,2.36s.08,1.5.08,2.45Zm4.68-27.74a12,12,0,0,0-.65-4.42c-.44-1.05-1.06-1.57-1.86-1.57q-2.49,0-2.49,6.1t2.41,6.23c.8,0,1.43-.56,1.9-1.67A12.6,12.6,0,0,0,1428.41,480.34Z"/><path d="M1469.75,481.06q0,6.72-3.7,10.69a12.86,12.86,0,0,1-9.9,4,12.35,12.35,0,0,1-9.72-4.06q-3.59-4.08-3.59-11t3.67-11a12.15,12.15,0,0,1,9.66-4.19q6.35,0,10,4.16T1469.75,481.06Zm-10.42-.35a18.41,18.41,0,0,0-.21-2.91,9.77,9.77,0,0,0-.62-2.23,4.16,4.16,0,0,0-1-1.43,1.86,1.86,0,0,0-1.26-.52c-.91,0-1.64.65-2.2,1.94a12,12,0,0,0-.83,5.07,12.27,12.27,0,0,0,.83,5.08c.56,1.29,1.3,1.93,2.23,1.93s1.59-.63,2.16-1.9A13.24,13.24,0,0,0,1459.33,480.71Z"/><path d="M1484.63,495.14h-10.74v-29h10.74l-.56,5.66q2.43-6.36,8-6.36v12.08a6.54,6.54,0,0,0-3-1,3.9,3.9,0,0,0-3.34,1.57,7.64,7.64,0,0,0-1.16,4.58Z"/><path d="M1506.18,484.37h-13.44v-8.3h13.44Z"/><path d="M681,561.14H670.29V545.78a6.82,6.82,0,0,0-.39-2.77,1.38,1.38,0,0,0-1.35-.78q-2.25,0-2.25,4.27v14.64H655.57v-29H666.3c0,.71,0,1.37,0,2s0,1.18-.08,1.7l-.11,1.85q2.6-6.15,7.6-6.15a6.35,6.35,0,0,1,5.41,2.6,11.9,11.9,0,0,1,1.95,7.25Z"/><path d="M712.05,547.06q0,6.72-3.69,10.69a12.9,12.9,0,0,1-9.91,4,12.35,12.35,0,0,1-9.72-4.06q-3.59-4.08-3.58-11t3.66-11a12.16,12.16,0,0,1,9.67-4.19q6.35,0,10,4.16T712.05,547.06Zm-10.41-.35a17.23,17.23,0,0,0-.22-2.91,9.31,9.31,0,0,0-.61-2.23,4.13,4.13,0,0,0-1-1.43,1.81,1.81,0,0,0-1.25-.51c-.91,0-1.65.64-2.2,1.93a12,12,0,0,0-.83,5.07,12.27,12.27,0,0,0,.83,5.08c.55,1.29,1.29,1.93,2.22,1.93s1.6-.63,2.17-1.9A13.44,13.44,0,0,0,701.64,546.71Z"/><path d="M758.76,547.06q0,6.72-3.69,10.69a12.86,12.86,0,0,1-9.9,4,12.35,12.35,0,0,1-9.72-4.06q-3.59-4.08-3.59-11t3.67-11a12.15,12.15,0,0,1,9.66-4.19q6.34,0,10,4.16T758.76,547.06Zm-10.41-.35a18.41,18.41,0,0,0-.21-2.91,9.77,9.77,0,0,0-.62-2.23,4.26,4.26,0,0,0-1-1.43,1.85,1.85,0,0,0-1.26-.51c-.91,0-1.64.64-2.2,1.93a12,12,0,0,0-.83,5.07,12.27,12.27,0,0,0,.83,5.08c.56,1.29,1.3,1.93,2.23,1.93s1.59-.63,2.16-1.9A13.24,13.24,0,0,0,748.35,546.71Z"/><path d="M788.51,532.11V562a17,17,0,0,1-.94,5.91,9.53,9.53,0,0,1-3.05,4,14.35,14.35,0,0,1-9,2.76c-4,0-7-.85-9.08-2.55s-3.41-4.35-3.9-7.95h11c.07,1.58.82,2.36,2.25,2.36a2.05,2.05,0,0,0,1.93-1,6.59,6.59,0,0,0,.56-3.15v-4.6q-2.87,3.76-6.75,3.76-4.2,0-6.8-4.11t-2.57-10.79a20.85,20.85,0,0,1,2.57-10.91q2.6-4.22,6.72-4.21a5.7,5.7,0,0,1,3.32,1,13.21,13.21,0,0,1,3.19,3.46l-.22-3.81Zm-10.42,14.42q0-6.28-2.3-6.29-2.6,0-2.6,6.13c0,4.2.84,6.31,2.52,6.31S778.09,550.63,778.09,546.53Z"/><path d="M824.81,561.14c0-.31,0-.66.05-1s0-.85.08-1.37c0-.32.06-.81.08-1.48a11.39,11.39,0,0,1-3,3.52,6.27,6.27,0,0,1-3.57,1,7.74,7.74,0,0,1-6.85-3.92q-2.46-3.93-2.46-10.91,0-7.32,2.41-11.36a7.52,7.52,0,0,1,6.8-4,6.48,6.48,0,0,1,3.88,1.07,10.76,10.76,0,0,1,3,3.74c-.06-.94-.08-1.5-.08-1.7l-.11-2.92v-15.9h10.76v45.36Zm-4.58-14.64q0,6,2.65,6,2.49,0,2.49-6.15c0-3.92-.81-5.88-2.41-5.88Q820.23,540.43,820.23,546.5Z"/><path d="M855.54,551.31l10.49.21a12.84,12.84,0,0,1-4.38,7.64,13.31,13.31,0,0,1-8.5,2.57q-6.21,0-9.74-3.87t-3.51-10.72q0-6.9,3.78-11.25a12.24,12.24,0,0,1,9.74-4.37,11.74,11.74,0,0,1,9.48,4.21q3.52,4.24,3.53,11.25l0,1.91H850.64q.18,4.46,2.51,4.46A2.37,2.37,0,0,0,855.54,551.31Zm.24-8.22a5.31,5.31,0,0,0-.19-1.48,3.8,3.8,0,0,0-.52-1.15,2.75,2.75,0,0,0-.79-.77,1.81,1.81,0,0,0-1-.28,2.12,2.12,0,0,0-1.82,1,4.62,4.62,0,0,0-.7,2.65Z"/><path d="M881.32,561.14H870.58V515.78h10.74Z"/><path d="M897.94,523.11a6,6,0,0,1-1.85,4.4,6.16,6.16,0,0,1-4.41,1.83,6.08,6.08,0,0,1-4.45-1.85,6.27,6.27,0,0,1-1.82-4.46,6.05,6.05,0,0,1,1.82-4.43,6.18,6.18,0,0,1,4.42-1.83,6,6,0,0,1,4.47,1.85A6.14,6.14,0,0,1,897.94,523.11Zm-.91,38H886.27v-29H897Z"/><path d="M927.47,561.14H916.73V545.78a6.82,6.82,0,0,0-.39-2.77,1.37,1.37,0,0,0-1.35-.78q-2.25,0-2.25,4.27v14.64H902v-29h10.73c0,.71,0,1.37,0,2s0,1.18-.08,1.7l-.11,1.85q2.6-6.15,7.61-6.15a6.33,6.33,0,0,1,5.4,2.6,11.83,11.83,0,0,1,2,7.25Z"/><path d="M958,532.11V562a17,17,0,0,1-.93,5.91,9.55,9.55,0,0,1-3.06,4,14.32,14.32,0,0,1-9,2.76c-4,0-7-.85-9.08-2.55s-3.41-4.35-3.91-7.95h11c.07,1.58.82,2.36,2.25,2.36a2,2,0,0,0,1.92-1,6.45,6.45,0,0,0,.57-3.15v-4.6q-2.87,3.76-6.75,3.76-4.2,0-6.8-4.11t-2.57-10.79a20.85,20.85,0,0,1,2.57-10.91q2.6-4.22,6.72-4.21a5.72,5.72,0,0,1,3.32,1,13.2,13.2,0,0,1,3.18,3.46l-.21-3.81ZM947.6,546.53q0-6.28-2.3-6.29-2.59,0-2.6,6.13c0,4.2.84,6.31,2.52,6.31S947.6,550.63,947.6,546.53Z"/><path d="M1005.29,561.14H994.53c.09-1,.16-1.89.21-2.77s.11-1.58.16-2.12q-2.79,5.47-7.47,5.48-4.06,0-6.45-4.08t-2.36-11.23q0-6.93,2.44-10.9a7.44,7.44,0,0,1,6.64-4q4.31,0,7,5.21c0-.36-.06-.67-.08-.94s0-.49-.05-.67l-.11-1.69-.08-1.29h10.95Zm-10.87-14.88a26.38,26.38,0,0,0-.12-2.74,7.52,7.52,0,0,0-.39-1.84,2.17,2.17,0,0,0-.7-1,1.69,1.69,0,0,0-1-.31q-2.73,0-2.73,7.28,0,5.21,2.44,5.21T994.42,546.26Z"/><path d="M1022.21,561.14h-10.74V540.78h-3.1v-8.67h3.1v-5.35q0-5.61,2.42-8.51c1.62-1.94,4-2.9,7.11-2.9a19.21,19.21,0,0,1,5.06.75v10a4.4,4.4,0,0,0-2.19-1c-1.11,0-1.66,1-1.66,3v4.06h3.85v8.67h-3.85Z"/><path d="M1060.25,561.14c0-.31,0-.66,0-1s0-.85.08-1.37c0-.32.06-.81.08-1.48a11.27,11.27,0,0,1-3,3.52,6.21,6.21,0,0,1-3.56,1,7.73,7.73,0,0,1-6.85-3.92q-2.46-3.93-2.46-10.91,0-7.32,2.41-11.36a7.52,7.52,0,0,1,6.8-4,6.48,6.48,0,0,1,3.88,1.07,10.76,10.76,0,0,1,3,3.74c-.06-.94-.08-1.5-.08-1.7l-.11-2.92v-15.9h10.76v45.36Zm-4.58-14.64q0,6,2.65,6,2.49,0,2.49-6.15c0-3.92-.81-5.88-2.41-5.88Q1055.67,540.43,1055.67,546.5Z"/><path d="M1091,551.31l10.49.21a12.84,12.84,0,0,1-4.38,7.64,13.31,13.31,0,0,1-8.5,2.57q-6.21,0-9.74-3.87t-3.51-10.72q0-6.9,3.78-11.25a12.24,12.24,0,0,1,9.74-4.37,11.74,11.74,0,0,1,9.48,4.21q3.53,4.24,3.53,11.25l0,1.91h-15.74q.18,4.46,2.51,4.46A2.37,2.37,0,0,0,1091,551.31Zm.24-8.22a5.31,5.31,0,0,0-.19-1.48,3.8,3.8,0,0,0-.52-1.15,2.75,2.75,0,0,0-.79-.77,1.83,1.83,0,0,0-1-.28,2.12,2.12,0,0,0-1.82,1,4.62,4.62,0,0,0-.7,2.65Z"/><path d="M1118.34,561.14h-10.76V540.78h-3.06v-8.67h3.06v-8.54h10.76v8.54h3.56v8.67h-3.56Z"/><path d="M1140.23,558.75l3.91-8.06q2.89,3,5.38,3c1.4,0,2.09-.5,2.09-1.5s-.94-1.63-2.81-2.31q-7.58-2.68-7.58-8.51a8.86,8.86,0,0,1,3.38-7.09,12.82,12.82,0,0,1,8.48-2.82,18.35,18.35,0,0,1,8.62,2.36l-3.66,7.87q-2.71-2.55-4.42-2.55c-1.13,0-1.69.46-1.69,1.37s1.07,1.91,3.21,2.76q4,1.59,5.47,3.36a7.28,7.28,0,0,1,1.52,4.89,9.31,9.31,0,0,1-3.24,7.33,12.13,12.13,0,0,1-8.32,2.85,19.55,19.55,0,0,1-4.85-.62,16.34,16.34,0,0,1-2.46-.9C1142.37,559.81,1141.36,559.32,1140.23,558.75Z"/><path d="M1178.38,561.14h-10.76V540.78h-3v-8.67h3v-8.54h10.76v8.54h3.56v8.67h-3.56Z"/><path d="M1195.57,561.14h-10.74v-29h10.74l-.57,5.66q2.45-6.36,8.06-6.36v12.08a6.6,6.6,0,0,0-3-1,3.9,3.9,0,0,0-3.33,1.57,7.57,7.57,0,0,0-1.16,4.58Z"/><path d="M1232.48,561.14h-10.76c.09-1,.16-1.89.22-2.77s.1-1.58.16-2.12q-2.79,5.47-7.47,5.48-4.08,0-6.45-4.08t-2.36-11.23q0-6.93,2.44-10.9a7.43,7.43,0,0,1,6.63-4q4.32,0,7,5.21c0-.36-.07-.67-.09-.94s0-.49,0-.67l-.11-1.69-.08-1.29h11Zm-10.87-14.88a26.38,26.38,0,0,0-.12-2.74,8.07,8.07,0,0,0-.38-1.84,2.25,2.25,0,0,0-.7-1,1.71,1.71,0,0,0-1-.31q-2.74,0-2.74,7.28c0,3.47.82,5.21,2.44,5.21S1221.61,550.65,1221.61,546.26Z"/><path d="M1249.4,561.14h-10.73V540.78h-3.11v-8.67h3.11v-5.35c0-3.74.8-6.58,2.42-8.51s4-2.9,7.11-2.9a19.21,19.21,0,0,1,5.06.75v10a4.39,4.39,0,0,0-2.2-1c-1.11,0-1.66,1-1.66,3v4.06h3.86v8.67h-3.86Z"/><path d="M1269.32,561.14h-10.74V540.78h-3.1v-8.67h3.1v-5.35q0-5.61,2.42-8.51c1.62-1.94,4-2.9,7.11-2.9a19.15,19.15,0,0,1,5.06.75v10a4.37,4.37,0,0,0-2.19-1c-1.11,0-1.66,1-1.66,3v4.06h3.85v8.67h-3.85Z"/><path d="M1291.13,551.31l10.5.21a12.84,12.84,0,0,1-4.38,7.64,13.33,13.33,0,0,1-8.5,2.57q-6.21,0-9.74-3.87t-3.51-10.72q0-6.9,3.78-11.25a12.24,12.24,0,0,1,9.74-4.37,11.74,11.74,0,0,1,9.48,4.21Q1302,540,1302,547l0,1.91h-15.74q.18,4.46,2.51,4.46A2.36,2.36,0,0,0,1291.13,551.31Zm.25-8.22a5.7,5.7,0,0,0-.19-1.48,4.06,4.06,0,0,0-.52-1.15,2.88,2.88,0,0,0-.79-.77,1.86,1.86,0,0,0-1-.28,2.12,2.12,0,0,0-1.82,1,4.62,4.62,0,0,0-.7,2.65Z"/><path d="M1305.13,558.75l3.91-8.06q2.89,3,5.38,3c1.4,0,2.09-.5,2.09-1.5s-.93-1.63-2.81-2.31q-7.58-2.68-7.57-8.51a8.85,8.85,0,0,1,3.37-7.09,12.82,12.82,0,0,1,8.48-2.82,18.35,18.35,0,0,1,8.62,2.36l-3.66,7.87q-2.71-2.55-4.42-2.55c-1.12,0-1.69.46-1.69,1.37s1.07,1.91,3.22,2.76q4,1.59,5.46,3.36a7.28,7.28,0,0,1,1.52,4.89,9.31,9.31,0,0,1-3.24,7.33,12.13,12.13,0,0,1-8.32,2.85,19.55,19.55,0,0,1-4.85-.62,16.34,16.34,0,0,1-2.46-.9C1307.27,559.81,1306.26,559.32,1305.13,558.75Z"/><path d="M1387.64,561.14h-10.73V544.7c0-1.84-.55-2.76-1.64-2.76q-2.43,0-2.43,4.51v14.69H1362.1v-16c0-2-.61-3-1.82-3a2,2,0,0,0-1.86,1,8,8,0,0,0-.55,3.53v14.45h-10.73v-29h10.73v1.5a31.77,31.77,0,0,1-.16,3.33q2.86-5.45,7.47-5.45,5.16,0,7.66,6,2.16-6,7.17-6a7,7,0,0,1,5.89,2.76q1.74,2.31,1.74,7Z"/><path d="M1407.42,551.31l10.5.21a12.84,12.84,0,0,1-4.38,7.64,13.33,13.33,0,0,1-8.5,2.57q-6.21,0-9.74-3.87t-3.51-10.72q0-6.9,3.77-11.25a12.28,12.28,0,0,1,9.75-4.37,11.74,11.74,0,0,1,9.48,4.21q3.53,4.24,3.53,11.25l-.06,1.91h-15.74q.2,4.46,2.52,4.46A2.36,2.36,0,0,0,1407.42,551.31Zm.24-8.22a5.72,5.72,0,0,0-.18-1.48,4.06,4.06,0,0,0-.52-1.15,2.88,2.88,0,0,0-.79-.77,1.87,1.87,0,0,0-1-.28,2.13,2.13,0,0,0-1.82,1,4.7,4.7,0,0,0-.69,2.65Z"/><path d="M1437.33,561.14c0-.31,0-.66.05-1s0-.85.08-1.37c0-.32.06-.81.08-1.48a11.27,11.27,0,0,1-3,3.52,6.21,6.21,0,0,1-3.56,1,7.73,7.73,0,0,1-6.85-3.92q-2.46-3.93-2.46-10.91,0-7.32,2.41-11.36a7.52,7.52,0,0,1,6.8-4,6.48,6.48,0,0,1,3.88,1.07,10.76,10.76,0,0,1,3,3.74c-.06-.94-.08-1.5-.08-1.7l-.11-2.92v-15.9h10.76v45.36Zm-4.58-14.64q0,6,2.65,6,2.49,0,2.49-6.15c0-3.92-.81-5.88-2.41-5.88Q1432.75,540.43,1432.75,546.5Z"/><path d="M667.53,627.14H656.8V606.78h-3.11v-8.67h3.11v-5.35q0-5.61,2.42-8.51c1.62-1.94,4-2.9,7.11-2.9a19.21,19.21,0,0,1,5.06.75v10a4.39,4.39,0,0,0-2.2-1c-1.1,0-1.66,1-1.66,3v4.06h3.86v8.67h-3.86Z"/><path d="M705,617.6l10.17.22q-1.3,5.13-4.44,7.54t-8.49,2.37a13.45,13.45,0,0,1-8.56-3,16.44,16.44,0,0,1-9.32,3,11.4,11.4,0,0,1-7.92-2.82,9.42,9.42,0,0,1-3.11-7.2,8.59,8.59,0,0,1,2.84-6.79,11.1,11.1,0,0,1,7.68-2.53,34.73,34.73,0,0,1,5.46.62q-.52-3.53-5.7-3.52a16.63,16.63,0,0,0-7.09,1.67v-8.41a33,33,0,0,1,8.62-1.32,13.58,13.58,0,0,1,8.91,2.88,14.23,14.23,0,0,1,8.3-2.88,12,12,0,0,1,9.61,4.22q3.64,4.22,3.64,11.17l-.05,2H699.68q.27,5,2.84,5C703.68,619.8,704.51,619.07,705,617.6Zm-15.58.24c0-1.71-.95-2.57-2.84-2.57a2.81,2.81,0,0,0-2,.72,2.49,2.49,0,0,0-.75,1.88c0,1.67.94,2.5,2.81,2.5S689.43,619.53,689.43,617.84ZM705.12,609q-.54-4-2.81-4t-2.57,4Z"/><path d="M745.19,627.14H734.46V611.78a6.82,6.82,0,0,0-.39-2.77,1.38,1.38,0,0,0-1.35-.78q-2.25,0-2.25,4.27v14.64H719.73v-29h10.74c0,.71,0,1.37-.05,2s0,1.18-.09,1.7l-.1,1.85q2.6-6.15,7.6-6.15a6.36,6.36,0,0,1,5.41,2.6,11.9,11.9,0,0,1,2,7.25Z"/><path d="M775.74,598.11V628a17,17,0,0,1-.94,5.91,9.53,9.53,0,0,1-3,4,14.35,14.35,0,0,1-9,2.76q-5.91,0-9.08-2.55t-3.9-7.95h11c.07,1.58.82,2.36,2.25,2.36a2.05,2.05,0,0,0,1.93-1,6.59,6.59,0,0,0,.56-3.15v-4.6q-2.86,3.76-6.75,3.76c-2.8,0-5.06-1.37-6.8-4.11s-2.57-6.33-2.57-10.79a20.79,20.79,0,0,1,2.57-10.9c1.74-2.82,4-4.22,6.72-4.22a5.7,5.7,0,0,1,3.32,1,13.21,13.21,0,0,1,3.19,3.46l-.21-3.81Zm-10.42,14.42c0-4.19-.76-6.29-2.3-6.29q-2.6,0-2.6,6.13c0,4.2.84,6.31,2.52,6.31S765.32,616.63,765.32,612.53Z"/><path d="M779.65,624.75l3.9-8.06q2.9,3,5.38,3c1.4,0,2.09-.5,2.09-1.5s-.93-1.63-2.81-2.31q-7.58-2.68-7.57-8.51a8.85,8.85,0,0,1,3.37-7.09,12.82,12.82,0,0,1,8.48-2.82,18.35,18.35,0,0,1,8.62,2.36l-3.66,7.87q-2.72-2.55-4.42-2.55c-1.12,0-1.69.45-1.69,1.37s1.07,1.91,3.22,2.76q4,1.59,5.46,3.36a7.28,7.28,0,0,1,1.52,4.89,9.31,9.31,0,0,1-3.24,7.33,12.13,12.13,0,0,1-8.32,2.85,19.55,19.55,0,0,1-4.85-.62,16.34,16.34,0,0,1-2.46-.9C781.78,625.81,780.77,625.32,779.65,624.75Z"/><path d="M820,617.31l10.49.21a12.78,12.78,0,0,1-4.37,7.64,13.33,13.33,0,0,1-8.5,2.57q-6.21,0-9.75-3.87t-3.5-10.72q0-6.9,3.77-11.25a12.28,12.28,0,0,1,9.75-4.37,11.71,11.71,0,0,1,9.47,4.21q3.54,4.24,3.54,11.25l-.06,1.91H815.06q.2,4.46,2.52,4.46A2.36,2.36,0,0,0,820,617.31Zm.24-8.22a5.31,5.31,0,0,0-.19-1.48,3.57,3.57,0,0,0-.52-1.15,2.63,2.63,0,0,0-.79-.77,1.81,1.81,0,0,0-1-.28,2.13,2.13,0,0,0-1.82,1,4.7,4.7,0,0,0-.69,2.65Z"/><path d="M845.74,627.14H835V581.78h10.73Z"/><path d="M864.48,621.52a5.85,5.85,0,0,1-1.88,4.38,6.24,6.24,0,0,1-8.83,0,6.27,6.27,0,0,1-1.82-4.46A6.26,6.26,0,0,1,862.66,617,6.15,6.15,0,0,1,864.48,621.52Zm-.67-9.23h-10.9v-29h10.9Z"/><path d="M915.23,627.14H904.07V610.46h-5.33v16.68H887.58V585.67h11.16v14.66h5.33V585.67h11.16Z"/><path d="M937.32,627.14H926.1l-8-29H929l1.66,8.48c.24,1.09.45,2.45.65,4.07s.39,3.56.59,5.81c.24-2.05.49-3.84.72-5.37s.46-2.82.69-3.92l1.85-9.07h10.6Z"/><path d="M973.78,613.06q0,6.72-3.69,10.69a12.9,12.9,0,0,1-9.91,4,12.35,12.35,0,0,1-9.72-4.06q-3.59-4.08-3.58-11t3.66-11a12.16,12.16,0,0,1,9.67-4.19q6.35,0,10,4.16T973.78,613.06Zm-10.41-.35a18.34,18.34,0,0,0-.22-2.91,9.79,9.79,0,0,0-.61-2.23,4.13,4.13,0,0,0-1-1.43,1.82,1.82,0,0,0-1.26-.52c-.91,0-1.64.65-2.19,1.94a12,12,0,0,0-.83,5.07,12.27,12.27,0,0,0,.83,5.08c.55,1.29,1.29,1.93,2.22,1.93s1.6-.63,2.17-1.9A13.44,13.44,0,0,0,963.37,612.71Z"/><path d="M988.67,627.14H977.93v-29h10.74l-.57,5.66q2.45-6.36,8.06-6.36v12.08a6.6,6.6,0,0,0-3-1,3.9,3.9,0,0,0-3.33,1.57,7.57,7.57,0,0,0-1.16,4.58Z"/><path d="M1014.6,627.14q0-.46.06-1c0-.39,0-.85.08-1.37,0-.32.06-.81.08-1.48a11.27,11.27,0,0,1-3,3.52,6.21,6.21,0,0,1-3.56,1,7.73,7.73,0,0,1-6.85-3.92q-2.46-3.93-2.46-10.91,0-7.32,2.41-11.36a7.52,7.52,0,0,1,6.8-4,6.48,6.48,0,0,1,3.88,1.07,10.81,10.81,0,0,1,3,3.73c-.06-.93-.08-1.49-.08-1.69l-.11-2.92v-15.9h10.76v45.36ZM1010,612.5q0,6,2.65,6,2.49,0,2.49-6.15c0-3.92-.81-5.88-2.41-5.88Q1010,606.43,1010,612.5Z"/><path d="M1056.37,627.14H1045.6c.09-1,.16-1.89.22-2.77s.1-1.58.16-2.12q-2.79,5.47-7.47,5.48-4.07,0-6.45-4.08t-2.36-11.23q0-6.93,2.44-10.9a7.44,7.44,0,0,1,6.64-4q4.31,0,7,5.21c0-.36-.07-.67-.08-.94s0-.49-.06-.67l-.1-1.7-.08-1.28h10.95Zm-10.87-14.88a26.38,26.38,0,0,0-.12-2.74,7.52,7.52,0,0,0-.39-1.84,2.17,2.17,0,0,0-.7-1,1.69,1.69,0,0,0-1-.31q-2.73,0-2.73,7.28,0,5.21,2.43,5.21T1045.5,612.26Z"/><path d="M1086.78,627.14H1076V611.78a6.82,6.82,0,0,0-.39-2.77,1.38,1.38,0,0,0-1.35-.78q-2.25,0-2.25,4.27v14.64h-10.73v-29h10.73c0,.71,0,1.37,0,2s0,1.18-.08,1.7l-.11,1.85q2.6-6.15,7.6-6.15a6.35,6.35,0,0,1,5.41,2.6,11.9,11.9,0,0,1,2,7.25Z"/><path d="M1124.92,627.14h-11.21l-8-29h10.87l1.66,8.48c.23,1.09.44,2.45.64,4.07s.39,3.56.59,5.81q.38-3.08.72-5.37c.23-1.52.46-2.82.7-3.92l1.84-9.07h10.61Z"/><path d="M1147.49,589.11a6,6,0,0,1-1.85,4.4,6.16,6.16,0,0,1-4.41,1.83,6.06,6.06,0,0,1-4.45-1.85A6.27,6.27,0,0,1,1135,589a6.05,6.05,0,0,1,1.82-4.43,6.18,6.18,0,0,1,4.42-1.83,6,6,0,0,1,4.47,1.85A6.14,6.14,0,0,1,1147.49,589.11Zm-.91,38h-10.76v-29h10.76Z"/><path d="M1162.29,627.14h-10.73V581.78h10.73Z"/><path d="M1178,627.14h-10.74V581.78H1178Z"/><path d="M1197.79,617.31l10.49.21a12.83,12.83,0,0,1-4.37,7.64,13.33,13.33,0,0,1-8.5,2.57q-6.21,0-9.75-3.87t-3.5-10.72q0-6.9,3.77-11.25a12.28,12.28,0,0,1,9.75-4.37,11.71,11.71,0,0,1,9.47,4.21q3.54,4.24,3.54,11.25l-.06,1.91h-15.74q.19,4.46,2.52,4.46A2.36,2.36,0,0,0,1197.79,617.31Zm.24-8.22a5.31,5.31,0,0,0-.19-1.48,3.8,3.8,0,0,0-.52-1.15,2.63,2.63,0,0,0-.79-.77,1.81,1.81,0,0,0-1-.28,2.13,2.13,0,0,0-1.82,1,4.7,4.7,0,0,0-.69,2.65Z"/><path d="M1244.18,627.14q0-.46.06-1c0-.39,0-.85.08-1.37,0-.32.06-.81.08-1.48a11.4,11.4,0,0,1-3,3.52,6.21,6.21,0,0,1-3.56,1,7.73,7.73,0,0,1-6.85-3.92q-2.46-3.93-2.46-10.91,0-7.32,2.41-11.36a7.51,7.51,0,0,1,6.79-4,6.51,6.51,0,0,1,3.89,1.07,10.69,10.69,0,0,1,3,3.73c0-.93-.08-1.49-.08-1.69l-.1-2.92v-15.9h10.76v45.36Zm-4.57-14.64q0,6,2.64,6t2.5-6.15c0-3.92-.81-5.88-2.41-5.88Q1239.61,606.43,1239.61,612.5Z"/><path d="M1260.11,598.11h10.74v16.35a9.44,9.44,0,0,0,.45,3.41,1.89,1.89,0,0,0,1.82.89,1.81,1.81,0,0,0,1.77-.89,8.1,8.1,0,0,0,.48-3.41V598.11h10.73v17.8a16.61,16.61,0,0,1-.28,3.21,9.55,9.55,0,0,1-.88,2.61,8.86,8.86,0,0,1-1.55,2.13,11.82,11.82,0,0,1-2.27,1.77,15.34,15.34,0,0,1-8,2.1,15.16,15.16,0,0,1-8-2.1,11.08,11.08,0,0,1-2.29-1.76,8.08,8.08,0,0,1-1.55-2.13,9.75,9.75,0,0,1-.89-2.62,16.61,16.61,0,0,1-.28-3.21Z"/><path d="M1306.53,624.75l3.91-8.06q2.89,3,5.38,3c1.39,0,2.09-.5,2.09-1.5s-.94-1.63-2.81-2.31q-7.59-2.68-7.58-8.51a8.85,8.85,0,0,1,3.37-7.09,12.86,12.86,0,0,1,8.49-2.82,18.38,18.38,0,0,1,8.62,2.36l-3.67,7.87q-2.7-2.55-4.42-2.55c-1.12,0-1.68.45-1.68,1.37s1.07,1.91,3.21,2.76q4,1.59,5.46,3.36a7.23,7.23,0,0,1,1.53,4.89,9.31,9.31,0,0,1-3.24,7.33,12.15,12.15,0,0,1-8.33,2.85,19.47,19.47,0,0,1-4.84-.62,16.83,16.83,0,0,1-2.47-.9C1308.66,625.81,1307.65,625.32,1306.53,624.75Z"/><path d="M1346.84,617.31l10.5.21a12.84,12.84,0,0,1-4.38,7.64,13.33,13.33,0,0,1-8.5,2.57q-6.21,0-9.74-3.87t-3.51-10.72q0-6.9,3.78-11.25a12.24,12.24,0,0,1,9.74-4.37,11.74,11.74,0,0,1,9.48,4.21q3.52,4.24,3.53,11.25l0,1.91H1342q.18,4.46,2.51,4.46A2.36,2.36,0,0,0,1346.84,617.31Zm.25-8.22a5.7,5.7,0,0,0-.19-1.48,4.06,4.06,0,0,0-.52-1.15,2.88,2.88,0,0,0-.79-.77,1.86,1.86,0,0,0-1-.28,2.12,2.12,0,0,0-1.82,1,4.62,4.62,0,0,0-.7,2.65Z"/><path d="M1372.62,627.14h-10.73V581.78h10.73Z"/><path d="M1394.74,627.14h-11.22l-8-29h10.87l1.66,8.48c.23,1.09.45,2.45.64,4.07s.4,3.56.59,5.81q.38-3.08.73-5.37c.23-1.52.46-2.82.69-3.92l1.85-9.07h10.6Z"/><path d="M681,693.14H670.29V677.78a6.82,6.82,0,0,0-.39-2.77,1.38,1.38,0,0,0-1.35-.78q-2.25,0-2.25,4.27v14.64H655.57V647.78H666.3V664c0,.88,0,1.61,0,2.2s0,1,0,1.34,0,.63-.08,1-.07.72-.11,1.13q2.6-6.15,7.6-6.15a6.35,6.35,0,0,1,5.41,2.6,11.9,11.9,0,0,1,1.95,7.25Z"/><path d="M711.81,693.14H701.05c.09-1,.16-1.89.21-2.77s.11-1.58.16-2.12q-2.77,5.47-7.47,5.48-4.07,0-6.45-4.08t-2.35-11.23q0-6.93,2.43-10.9a7.46,7.46,0,0,1,6.64-4q4.32,0,7,5.21c0-.36-.06-.67-.08-.94s0-.49-.05-.67l-.11-1.7-.08-1.28h10.95Zm-10.87-14.88a26.38,26.38,0,0,0-.12-2.74,7.52,7.52,0,0,0-.39-1.84,2.23,2.23,0,0,0-.69-1,1.74,1.74,0,0,0-1-.31q-2.73,0-2.73,7.28,0,5.21,2.44,5.21T700.94,678.26Z"/><path d="M733.9,693.14H722.68l-8-29h10.87l1.66,8.48c.23,1.09.45,2.45.64,4.07s.39,3.56.59,5.81q.38-3.08.72-5.37c.24-1.52.47-2.82.7-3.92l1.85-9.07h10.6Z"/><path d="M759.09,683.31l10.49.21a12.84,12.84,0,0,1-4.38,7.64,13.33,13.33,0,0,1-8.5,2.57q-6.21,0-9.74-3.87t-3.51-10.72q0-6.9,3.78-11.25a12.24,12.24,0,0,1,9.74-4.37,11.74,11.74,0,0,1,9.48,4.21Q770,672,770,679l-.05,1.91H754.19q.18,4.46,2.51,4.46A2.37,2.37,0,0,0,759.09,683.31Zm.24-8.22a5.7,5.7,0,0,0-.19-1.48,4.06,4.06,0,0,0-.52-1.15,2.88,2.88,0,0,0-.79-.77,1.86,1.86,0,0,0-1-.28,2.12,2.12,0,0,0-1.82,1,4.62,4.62,0,0,0-.7,2.65Z"/><path d="M805.48,693.14c0-.31,0-.66,0-1s.05-.85.08-1.37c0-.32.06-.81.08-1.48a11.26,11.26,0,0,1-3,3.52,6.23,6.23,0,0,1-3.56,1,7.75,7.75,0,0,1-6.86-3.92q-2.46-3.93-2.46-10.91,0-7.32,2.41-11.36a7.53,7.53,0,0,1,6.8-4,6.46,6.46,0,0,1,3.88,1.07,10.59,10.59,0,0,1,3,3.73c0-.93-.08-1.49-.08-1.69l-.11-2.92v-15.9h10.76v45.36ZM800.9,678.5q0,6,2.65,6,2.49,0,2.49-6.15,0-5.88-2.41-5.88Q800.9,672.43,800.9,678.5Z"/><path d="M836.21,683.31l10.49.21a12.88,12.88,0,0,1-4.37,7.64,13.35,13.35,0,0,1-8.5,2.57q-6.21,0-9.75-3.87t-3.5-10.72q0-6.9,3.77-11.25a12.26,12.26,0,0,1,9.74-4.37,11.72,11.72,0,0,1,9.48,4.21Q847.11,672,847.1,679l-.05,1.91H831.31c.13,3,1,4.46,2.52,4.46A2.37,2.37,0,0,0,836.21,683.31Zm.24-8.22a5.31,5.31,0,0,0-.19-1.48,3.8,3.8,0,0,0-.52-1.15,2.75,2.75,0,0,0-.79-.77,1.81,1.81,0,0,0-1-.28,2.12,2.12,0,0,0-1.82,1,4.7,4.7,0,0,0-.7,2.65Z"/><path d="M863.57,693.14H852.81V672.78h-3.06v-8.67h3.06v-8.54h10.76v8.54h3.56v8.67h-3.56Z"/><path d="M927,693.14H916.28V676.7c0-1.84-.55-2.76-1.64-2.76q-2.43,0-2.43,4.51v14.69H901.47v-16c0-2-.6-3-1.82-3a2,2,0,0,0-1.86,1,8.1,8.1,0,0,0-.55,3.53v14.45H886.51v-29h10.73v1.5a31.77,31.77,0,0,1-.16,3.33q2.86-5.45,7.47-5.45,5.18,0,7.66,6c1.44-4,3.84-6,7.17-6a7,7,0,0,1,5.89,2.76q1.74,2.31,1.74,7Z"/><path d="M946.8,683.31l10.49.21a12.84,12.84,0,0,1-4.38,7.64,13.33,13.33,0,0,1-8.5,2.57q-6.21,0-9.74-3.87t-3.51-10.72q0-6.9,3.78-11.25a12.24,12.24,0,0,1,9.74-4.37,11.74,11.74,0,0,1,9.48,4.21q3.52,4.24,3.53,11.25l-.05,1.91H941.9q.18,4.46,2.51,4.46A2.37,2.37,0,0,0,946.8,683.31Zm.24-8.22a5.7,5.7,0,0,0-.19-1.48,4.06,4.06,0,0,0-.52-1.15,2.88,2.88,0,0,0-.79-.77,1.86,1.86,0,0,0-1-.28,2.12,2.12,0,0,0-1.82,1,4.62,4.62,0,0,0-.7,2.65Z"/><path d="M976.7,693.14c0-.31,0-.66,0-1s0-.85.08-1.37c0-.32.06-.81.08-1.48a11.26,11.26,0,0,1-3,3.52,6.26,6.26,0,0,1-3.56,1,7.75,7.75,0,0,1-6.86-3.92Q961,685.88,961,678.9q0-7.32,2.41-11.36a7.53,7.53,0,0,1,6.8-4,6.48,6.48,0,0,1,3.88,1.07,10.81,10.81,0,0,1,3,3.73c-.06-.93-.08-1.49-.08-1.69l-.11-2.92v-15.9h10.76v45.36Zm-4.58-14.64q0,6,2.65,6,2.49,0,2.49-6.15,0-5.88-2.41-5.88Q972.12,672.43,972.12,678.5Z"/><path d="M1024,693.14q0-.46.06-1c0-.39,0-.85.08-1.37,0-.32.06-.81.08-1.48a11.4,11.4,0,0,1-3,3.52,6.21,6.21,0,0,1-3.56,1,7.73,7.73,0,0,1-6.85-3.92q-2.46-3.93-2.46-10.91,0-7.32,2.41-11.36a7.51,7.51,0,0,1,6.79-4,6.51,6.51,0,0,1,3.89,1.07,10.69,10.69,0,0,1,3,3.73c0-.93-.08-1.49-.08-1.69l-.1-2.92v-15.9H1035v45.36Zm-4.57-14.64q0,6,2.64,6t2.5-6.15c0-3.92-.81-5.88-2.41-5.88Q1019.4,672.43,1019.4,678.5Z"/><path d="M1054.7,683.31l10.5.21a12.84,12.84,0,0,1-4.38,7.64,13.33,13.33,0,0,1-8.5,2.57q-6.21,0-9.74-3.87t-3.51-10.72q0-6.9,3.78-11.25a12.24,12.24,0,0,1,9.74-4.37,11.74,11.74,0,0,1,9.48,4.21q3.53,4.24,3.53,11.25l0,1.91h-15.74q.18,4.46,2.51,4.46A2.36,2.36,0,0,0,1054.7,683.31Zm.25-8.22a5.7,5.7,0,0,0-.19-1.48,4.06,4.06,0,0,0-.52-1.15,2.88,2.88,0,0,0-.79-.77,1.86,1.86,0,0,0-1-.28,2.12,2.12,0,0,0-1.82,1,4.62,4.62,0,0,0-.7,2.65Z"/><path d="M1082.06,693.14H1071.3V672.78h-3v-8.67h3v-8.54h10.76v8.54h3.56v8.67h-3.56Z"/><path d="M1107.15,678.12h-10.63V668c.75.06,1.3.08,1.66.08a6.35,6.35,0,0,0,4.44-1.3,5.44,5.44,0,0,0,1.39-4.15q0-4.59-2.4-4.59c-1.56,0-2.33,1.57-2.33,4.73h-10.77c0-3.89.82-6.91,2.44-9.08a11.1,11.1,0,0,1,4.55-3.57,13.8,13.8,0,0,1,6.13-1.32,13,13,0,0,1,9.67,3.84,13.42,13.42,0,0,1,3.77,9.8,13,13,0,0,1-2,7.48,9.92,9.92,0,0,1-5.93,4Zm1,9.4a5.88,5.88,0,0,1-1.84,4.38,6.22,6.22,0,0,1-8.81,0,6.4,6.4,0,0,1,0-8.94,6.16,6.16,0,0,1,8.83,0A6.31,6.31,0,0,1,1108.16,687.52Z"/></g></svg>
