<svg id="Levelcomplete" xmlns="http://www.w3.org/2000/svg" xmlns:xlink="http://www.w3.org/1999/xlink" width="1920" height="1080" viewBox="0 0 1920 1080"><defs><style>.cls-1{fill:#89cce5;}.cls-2{fill:#989da0;}.cls-3{clip-path:url(#clip-path);}.cls-4{fill:#82c4d8;}.cls-5{clip-path:url(#clip-path-2);}.cls-6{fill:#8d9091;}.cls-7{fill:#152230;}.cls-8{fill:#1c252e;}.cls-9{fill:#596063;}.cls-10{fill:#d6dee5;}.cls-11{fill:#c90d28;}.cls-12{fill:#963496;}.cls-13{fill:#f94eb8;}.cls-14{fill:#1e252d;}</style><clipPath id="clip-path"><rect class="cls-1" x="-2272.5" width="1920" height="1078"/></clipPath><clipPath id="clip-path-2"><rect class="cls-2" y="-2" width="1920" height="1080"/></clipPath></defs><title>Gameoverny</title><rect class="cls-1" x="-2272.5" width="1920" height="1078"/><g class="cls-3"><rect class="cls-4" x="-2390.72" y="497.73" width="2408.61" height="1044.68" transform="translate(-604.77 -432.45) rotate(-27.49)"/></g><rect class="cls-2" y="-2" width="1920" height="1080"/><g class="cls-5"><rect class="cls-6" x="93.09" y="469.53" width="2203.83" height="1029.61" transform="translate(-327.72 704.59) rotate(-29.07)"/></g><rect class="cls-7" x="104" width="41" height="1080"/><rect class="cls-7" x="246" y="-1" width="41" height="1080"/><rect class="cls-7" x="387" y="-1" width="41" height="1080"/><rect class="cls-7" x="527" y="-1" width="41" height="1080"/><rect class="cls-7" x="666" y="-1" width="41" height="1080"/><rect class="cls-7" x="808" y="-2" width="41" height="1080"/><rect class="cls-7" x="949" y="-2" width="41" height="1080"/><rect class="cls-7" x="1089" y="-2" width="41" height="1080"/><rect class="cls-7" x="1225" y="-1" width="41" height="1080"/><rect class="cls-7" x="1367" y="-2" width="41" height="1080"/><rect class="cls-7" x="1508" y="-2" width="41" height="1080"/><rect class="cls-7" x="1648" y="-2" width="41" height="1080"/><rect class="cls-7" x="1784" y="-1" width="41" height="1080"/><rect class="cls-7" x="1900" width="20" height="1080"/><rect class="cls-7" x="-1" y="-2" width="1921" height="18"/><rect class="cls-7" x="-1" y="1063" width="1921" height="17"/><rect class="cls-7" width="20" height="1080"/><rect class="cls-8" x="47.84" y="662" width="279.55" height="120"/><path class="cls-9" d="M198.86,708.39a15.54,15.54,0,0,0-31.06,0,15,15,0,0,0,6.47,12.27,3,3,0,0,0,0,.43v23a3.74,3.74,0,0,0,3.85,3.63h10.5a3.74,3.74,0,0,0,3.85-3.63v-23a3,3,0,0,0,0-.43A15,15,0,0,0,198.86,708.39Z"/><rect class="cls-10" x="585.89" y="169" width="1006.11" height="732" rx="22.34"/><path class="cls-11" d="M699.9,135.94l50.68,5.6-.62,5.59q-4.29,39-17.77,54.8-14.69,17.31-39.42,14.57-24.3-2.67-36.12-22.55-11.71-20-8.14-52.37,3.62-32.75,19.54-50.1T708,76.8q31.88,3.51,42.55,38.47l-36.61,9q-.08-6.46-2.5-10.49a8.67,8.67,0,0,0-6.68-4.5q-15-1.65-19.54,39.67-1.93,17.56.49,25.87t9.66,9.12a10.09,10.09,0,0,0,5.38-.82,12.09,12.09,0,0,0,4.4-3.5,21.47,21.47,0,0,0,3.2-5.88,33.2,33.2,0,0,0,1.81-8l-13.41-1.48Z"/><path class="cls-11" d="M838.68,255.68l-35.51-12.86,3.31-17.12-23.15-8.38-8.66,15.18-35.51-12.85,76.76-116.53,42,15.21Zm-26.33-58.79,3.16-15.68a13.86,13.86,0,0,1,.48-2.35q.5-1.89,3.47-15c.23-1,.56-2.31,1-4s.95-3.82,1.57-6.4l3.3-12.45q-.79,1.68-1.86,3.72t-2.32,4.49q-2.43,4.91-3.4,6.8c-.64,1.27-1,2-1.19,2.28l-8,14.59-10.7,18.75Z"/><path class="cls-11" d="M1013.72,274.73l-38.18-1-1.08-61.92L974,187.08q-.79,7.09-1.76,13.54T970,213.09l-13.07,60.14-29.78-.79-8.2-60.79q-.74-5.29-1.89-18.16c-.08-1.3-.28-3.94-.58-7.93l-1.54,25L910,272l-38.89-1L890.5,135.72,936,136.93l6.41,45.88q.81,5.66,1.38,12.26t1,14.36a218.37,218.37,0,0,1,3.77-23l10.58-48.87,45.1,1.19Z"/><path class="cls-11" d="M1054.62,262.48l-38-130.27,65.18-19,8.93,30.62-30.1,8.79,5.54,19,27-7.88,8.6,29.44-27,7.88,5.81,19.91,30.11-8.79,9.14,31.31Z"/><path class="cls-11" d="M1236.2,165.26q5.55,30.53-4.85,52.16T1198.87,243q-19.65,3.59-36.36-8.48-21-15.28-27.77-52.29-6.46-35.46,8.57-57.58,11.18-16.41,30-19.83,23-4.2,40.06,12.18T1236.2,165.26Zm-37.28,7.05q-6.59-36.23-19.35-33.91-6.37,1.17-8.44,11.36-2.1,9.5,1,26.62,3.08,16.86,8.26,25.52t11.38,7.53q6.39-1.16,8.16-11Q1201.89,188.66,1198.92,172.31Z"/><path class="cls-11" d="M1310.19,242.81l-36.81-5.61L1263.16,98.37l37.94,5.79.74,39.32q.38,22.54-1.52,50.08,2.79-11.92,5.78-22.23t6.42-20l15.34-43.1,39.23,6Z"/><path class="cls-11" d="M1349.33,251.82,1396,124.38l63.77,23.35-11,30-29.46-10.79-6.79,18.57,26.4,9.67L1428.39,224,1402,214.28l-7.13,19.48,29.45,10.78-11.21,30.62Z"/><path class="cls-11" d="M1540.42,300.89l-39.17-5.22-11.49-50.31c-.07-.83-.23-2-.48-3.34s-.58-3.06-1-5l-.93,8.92L1481.11,293l-36-4.81,18-134.51,37.08,5q24.5,3.27,35.36,14.56,13.8,14.43,10.76,37.26Q1543,234.82,1521,241.37Zm-49.5-80.11,2.43.32a13.32,13.32,0,0,0,11.06-3.4,18,18,0,0,0,5.8-11.64q2-15.06-13.71-17.17l-1.3-.17Z"/><circle class="cls-12" cx="1343.79" cy="833.87" r="84.92"/><path class="cls-13" d="M1540.57,655.29c-27.1-36-53.39-61-80.38-76.38-29.28-16.71-58.79-21.76-87.69-15-30,7-57.1,26.52-80.52,58-15.89,21.35-30.42,48.7-43.21,81.3a649.88,649.88,0,0,0-24.69,78.19,84.38,84.38,0,0,0-6,26.82v0a45.08,45.08,0,0,0,2.17,24.5,84.92,84.92,0,1,0,120.93-95.39q-3.6-1.82-7.27-3.25c22.11-55.49,45.07-78.81,59.24-82.1,2.22-.52,9-2.08,22.26,5.5,10.9,6.22,28.92,20.33,52.91,52.2a45.25,45.25,0,0,0,72.3-54.43Z"/><path class="cls-12" d="M1432,690.45s7.38-59.64,85.73-62.49,53.34,159.85,20.49,146.94S1492.93,806.14,1432,690.45Z"/><path class="cls-14" d="M1476.25,678.64s11.88-20.92,32.18-6.3"/><path class="cls-14" d="M1516.08,670.22s18.65-15.2,32.28,5.77"/><circle class="cls-14" cx="1496.12" cy="688.21" r="4.92"/><circle class="cls-14" cx="1532.18" cy="688.98" r="4.92"/><path class="cls-14" d="M1525.57,725.57a133.06,133.06,0,0,1-15,1.63h-.11l-.09-.06a1,1,0,0,1-.4-1c.46-2,7-3.81,19.46-5.5-5.1-2.67-8.19-9.17-9.88-14.23a61.71,61.71,0,0,1-2.53-10.77l.65-.08c0,.2,2.56,20.1,12.51,24.72,1.72.79,2.47,1.57,2.32,2.39C1532.25,723.92,1529.27,724.88,1525.57,725.57Z"/><polygon class="cls-14" points="1536.24 745.55 1523.58 737.4 1520.12 741.14 1516.19 738.1 1505.19 745.02 1503.69 742.18 1516.3 734.25 1519.76 736.93 1523.07 733.35 1537.67 742.75 1536.24 745.55"/><path d="M664.11,378.28V348.12h6.33a23,23,0,0,1,7.19.9,13.48,13.48,0,0,1,5.14,3,15.61,15.61,0,0,1-.2,22.44,14.22,14.22,0,0,1-5.12,3,23.26,23.26,0,0,1-7.09.84Zm4.55-4.28h2.05a17.09,17.09,0,0,0,5.1-.64,10.36,10.36,0,0,0,7-10.16,10.46,10.46,0,0,0-3.32-8.05q-3-2.75-8.81-2.75h-2.05Z"/><path d="M696.71,359.25v10.92q0,4.72,3.73,4.73t3.73-4.73V359.25h4.4v11a12.14,12.14,0,0,1-.57,3.94,6.63,6.63,0,0,1-1.89,2.68,9.25,9.25,0,0,1-11.31,0,6.77,6.77,0,0,1-1.94-2.68,11,11,0,0,1-.54-3.94v-11Z"/><path d="M726.46,345.29h4.39v15.55a7.55,7.55,0,0,1,5.18-2.11,6.65,6.65,0,0,1,5.15,2.09c1.1,1.21,1.64,3.14,1.64,5.8v11.66h-4.39V367a5.34,5.34,0,0,0-.81-3.31,3.11,3.11,0,0,0-2.61-1,3.59,3.59,0,0,0-3.24,1.43c-.61,1-.92,2.61-.92,5v9.2h-4.39Z"/><path d="M762.41,359.25h4.42v19h-4.42v-2a8.45,8.45,0,0,1-12.36-.32,10.58,10.58,0,0,1-2.56-7.26,10.26,10.26,0,0,1,2.56-7.13,8.26,8.26,0,0,1,6.41-2.85,8.07,8.07,0,0,1,5.95,2.73ZM752,368.71a6.62,6.62,0,0,0,1.47,4.45,4.78,4.78,0,0,0,3.79,1.74,5,5,0,0,0,3.94-1.68,7.21,7.21,0,0,0,0-8.83,5,5,0,0,0-3.9-1.7,4.84,4.84,0,0,0-3.79,1.72A6.36,6.36,0,0,0,752,368.71Z"/><path d="M772.38,359.25h4.39V361a8.68,8.68,0,0,1,2.15-1.74,5,5,0,0,1,2.26-.48,7.09,7.09,0,0,1,3.64,1.13l-2,4a4.17,4.17,0,0,0-2.44-.9q-3.58,0-3.59,5.43v9.87h-4.39Z"/><path d="M813.7,345.29h4.42v33H813.7v-2a8.2,8.2,0,0,1-5.88,2.53,8.37,8.37,0,0,1-6.48-2.85,10.58,10.58,0,0,1-2.56-7.26,10.23,10.23,0,0,1,2.56-7.11,8.22,8.22,0,0,1,12.36-.14Zm-10.43,23.42a6.62,6.62,0,0,0,1.47,4.45,4.78,4.78,0,0,0,3.79,1.74,5,5,0,0,0,3.94-1.68,7.21,7.21,0,0,0,0-8.83,5,5,0,0,0-3.9-1.7,4.84,4.84,0,0,0-3.79,1.72A6.31,6.31,0,0,0,803.27,368.71Z"/><path d="M841,369.8H827.36a5.72,5.72,0,0,0,1.52,3.73,4.66,4.66,0,0,0,3.46,1.37,4.5,4.5,0,0,0,2.71-.78,11.3,11.3,0,0,0,2.4-2.89l3.71,2.07a14.88,14.88,0,0,1-1.81,2.51,9.92,9.92,0,0,1-2.05,1.72,8.53,8.53,0,0,1-2.37,1,11.35,11.35,0,0,1-2.75.31,9,9,0,0,1-6.84-2.73,10.25,10.25,0,0,1-2.57-7.3,10.53,10.53,0,0,1,2.5-7.31,9.54,9.54,0,0,1,13.32-.08,10.56,10.56,0,0,1,2.42,7.37Zm-4.51-3.59a4.22,4.22,0,0,0-4.44-3.52,4.37,4.37,0,0,0-1.5.25,4.09,4.09,0,0,0-1.28.7,4.56,4.56,0,0,0-1,1.1,5.13,5.13,0,0,0-.62,1.47Z"/><path d="M850.19,345.29v33h-4.4v-33Z"/><path d="M860.29,363.36v14.92h-4.4V363.36H854v-4.11h1.87v-7h4.4v7h3.41v4.11Z"/><path d="M883.43,345.29v16.17a8.24,8.24,0,0,1,12.38.14,10.23,10.23,0,0,1,2.56,7.11,10.44,10.44,0,0,1-2.58,7.26,8.45,8.45,0,0,1-12.36.32v2H879v-33Zm10.45,23.61a6.58,6.58,0,0,0-1.49-4.45,4.75,4.75,0,0,0-3.77-1.76,5.07,5.07,0,0,0-3.94,1.7,6.33,6.33,0,0,0-1.5,4.38,6.41,6.41,0,0,0,1.48,4.43,5,5,0,0,0,3.91,1.7,4.87,4.87,0,0,0,3.79-1.7A6.28,6.28,0,0,0,893.88,368.9Z"/><path d="M902.36,351.34a2.87,2.87,0,0,1,2.85-2.83,2.77,2.77,0,0,1,2,.84,2.71,2.71,0,0,1,.84,2,2.76,2.76,0,0,1-.84,2,2.71,2.71,0,0,1-2,.84,2.74,2.74,0,0,1-2-.84A2.78,2.78,0,0,1,902.36,351.34Zm5,7.91v19H903v-19Z"/><path d="M917.38,345.29v33H913v-33Z"/><path d="M927.34,345.29v33h-4.4v-33Z"/><path d="M950.23,369.8H936.59a5.78,5.78,0,0,0,1.53,3.73,4.65,4.65,0,0,0,3.45,1.37,4.51,4.51,0,0,0,2.72-.78,11.3,11.3,0,0,0,2.4-2.89l3.71,2.07a15.46,15.46,0,0,1-1.81,2.51,10.18,10.18,0,0,1-2.05,1.72,8.53,8.53,0,0,1-2.37,1,11.35,11.35,0,0,1-2.75.31,9,9,0,0,1-6.84-2.73,10.25,10.25,0,0,1-2.58-7.3,10.58,10.58,0,0,1,2.5-7.31,9.54,9.54,0,0,1,13.32-.08,10.52,10.52,0,0,1,2.43,7.37Zm-4.52-3.59a4.21,4.21,0,0,0-4.43-3.52,4.37,4.37,0,0,0-1.5.25,4.09,4.09,0,0,0-1.28.7,4.36,4.36,0,0,0-1,1.1,5.13,5.13,0,0,0-.62,1.47Z"/><path d="M969.05,345.29h4.42v33h-4.42v-2a8.19,8.19,0,0,1-5.87,2.53,8.38,8.38,0,0,1-6.49-2.85,10.63,10.63,0,0,1-2.56-7.26,10.28,10.28,0,0,1,2.56-7.11,8.22,8.22,0,0,1,12.36-.14Zm-10.43,23.42a6.62,6.62,0,0,0,1.47,4.45,4.8,4.8,0,0,0,3.79,1.74,5,5,0,0,0,3.94-1.68,7.21,7.21,0,0,0,0-8.83,5,5,0,0,0-3.9-1.7,4.84,4.84,0,0,0-3.79,1.72A6.36,6.36,0,0,0,958.62,368.71Z"/><path d="M996.34,369.8H982.71a5.72,5.72,0,0,0,1.52,3.73,4.66,4.66,0,0,0,3.46,1.37,4.48,4.48,0,0,0,2.71-.78,10.91,10.91,0,0,0,2.4-2.89l3.72,2.07a15.48,15.48,0,0,1-1.82,2.51,9.92,9.92,0,0,1-2.05,1.72,8.6,8.6,0,0,1-2.36,1,11.49,11.49,0,0,1-2.76.31,8.93,8.93,0,0,1-6.83-2.73,10.25,10.25,0,0,1-2.58-7.3,10.53,10.53,0,0,1,2.5-7.31,9.54,9.54,0,0,1,13.32-.08,10.56,10.56,0,0,1,2.42,7.37Zm-4.51-3.59a4.21,4.21,0,0,0-4.44-3.52,4.37,4.37,0,0,0-1.5.25,4.21,4.21,0,0,0-1.28.7,4.56,4.56,0,0,0-1,1.1,5.13,5.13,0,0,0-.62,1.47Z"/><path d="M1001.14,359.25h4.4V361a8.68,8.68,0,0,1,2.15-1.74,5,5,0,0,1,2.26-.48,7.09,7.09,0,0,1,3.64,1.13l-2,4a4.17,4.17,0,0,0-2.44-.9q-3.58,0-3.59,5.43v9.87h-4.4Z"/><path d="M1042.47,359.25h4.42v19h-4.42v-2a8.45,8.45,0,0,1-12.36-.32,10.58,10.58,0,0,1-2.56-7.26,10.26,10.26,0,0,1,2.56-7.13,8.26,8.26,0,0,1,6.41-2.85,8.09,8.09,0,0,1,6,2.73ZM1032,368.71a6.62,6.62,0,0,0,1.47,4.45,4.78,4.78,0,0,0,3.79,1.74,5,5,0,0,0,3.94-1.68,7.21,7.21,0,0,0,0-8.83,5,5,0,0,0-3.9-1.7,4.84,4.84,0,0,0-3.79,1.72A6.31,6.31,0,0,0,1032,368.71Z"/><path d="M1057,363.36v14.92h-4.41V363.36H1051v-4.11h1.56v-7.34q0-3.6,1.25-5.08a6.13,6.13,0,0,1,5-2.07,8.56,8.56,0,0,1,3,.69v4.49l-.45-.24A5.53,5.53,0,0,0,1059,349a1.61,1.61,0,0,0-1.59.84A8.15,8.15,0,0,0,1057,353v6.27h4.79v4.11Z"/><path d="M1081.05,359.25v10.92q0,4.72,3.73,4.73c2.48,0,3.73-1.58,3.73-4.73V359.25h4.39v11a12.43,12.43,0,0,1-.56,3.94,6.66,6.66,0,0,1-1.9,2.68,9.25,9.25,0,0,1-11.31,0,6.74,6.74,0,0,1-1.93-2.68,10.72,10.72,0,0,1-.55-3.94v-11Z"/><path d="M1098.45,359.25h4.41V361a7.22,7.22,0,0,1,5.2-2.28,6.52,6.52,0,0,1,5.17,2.09c1.07,1.18,1.61,3.12,1.61,5.8v11.66h-4.42V367.65a7,7,0,0,0-.78-3.88,3.15,3.15,0,0,0-2.77-1.1,3.38,3.38,0,0,0-3.11,1.45q-.9,1.42-.9,5v9.18h-4.41Z"/><path d="M1138.78,377.83q0,1.35-.09,2.37a18.25,18.25,0,0,1-.24,1.81,8.05,8.05,0,0,1-1.84,3.69,8.9,8.9,0,0,1-7.09,3,9.5,9.5,0,0,1-6.27-2.05,8.41,8.41,0,0,1-2.93-5.84h4.42a5.08,5.08,0,0,0,.84,2.17,4.72,4.72,0,0,0,4,1.77q4.83,0,4.83-5.92v-2.65a8.23,8.23,0,0,1-6,2.67A8.1,8.1,0,0,1,1122,376a10.46,10.46,0,0,1-2.5-7.13,11,11,0,0,1,2.33-7.07,8.1,8.1,0,0,1,6.6-3.08,7.68,7.68,0,0,1,6,2.67v-2.15h4.39Zm-4.22-9a6.41,6.41,0,0,0-1.48-4.43,4.92,4.92,0,0,0-3.85-1.7,4.71,4.71,0,0,0-3.94,1.86,6.67,6.67,0,0,0-1.31,4.29,6.6,6.6,0,0,0,1.31,4.26,4.73,4.73,0,0,0,3.94,1.82,4.79,4.79,0,0,0,4-1.84A6.51,6.51,0,0,0,1134.56,368.8Z"/><path d="M1161.65,369.8H1148a5.78,5.78,0,0,0,1.52,3.73,4.66,4.66,0,0,0,3.46,1.37,4.48,4.48,0,0,0,2.71-.78,11.1,11.1,0,0,0,2.41-2.89l3.71,2.07a15.48,15.48,0,0,1-1.82,2.51,9.92,9.92,0,0,1-2,1.72,8.6,8.6,0,0,1-2.36,1,11.49,11.49,0,0,1-2.76.31,9,9,0,0,1-6.83-2.73,10.25,10.25,0,0,1-2.58-7.3,10.53,10.53,0,0,1,2.5-7.31,9.54,9.54,0,0,1,13.32-.08,10.56,10.56,0,0,1,2.42,7.37Zm-4.51-3.59a4.21,4.21,0,0,0-4.43-3.52,4.39,4.39,0,0,0-1.51.25,4.21,4.21,0,0,0-1.28.7,4.32,4.32,0,0,0-1,1.1,5.14,5.14,0,0,0-.63,1.47Z"/><path d="M1183.2,359.25v10.92q0,4.72,3.73,4.73c2.48,0,3.73-1.58,3.73-4.73V359.25h4.39v11a12.14,12.14,0,0,1-.57,3.94,6.54,6.54,0,0,1-1.89,2.68,9.25,9.25,0,0,1-11.31,0,6.74,6.74,0,0,1-1.93-2.68,10.72,10.72,0,0,1-.55-3.94v-11Z"/><path d="M1200.6,359.25H1205V361a7.22,7.22,0,0,1,5.2-2.28,6.52,6.52,0,0,1,5.17,2.09c1.07,1.18,1.6,3.12,1.6,5.8v11.66h-4.41V367.65a7,7,0,0,0-.78-3.88,3.15,3.15,0,0,0-2.77-1.1,3.38,3.38,0,0,0-3.11,1.45q-.9,1.42-.9,5v9.18h-4.41Z"/><path d="M1236.55,345.29H1241v33h-4.42v-2a8.19,8.19,0,0,1-5.87,2.53,8.38,8.38,0,0,1-6.49-2.85,10.63,10.63,0,0,1-2.56-7.26,10.28,10.28,0,0,1,2.56-7.11,8.22,8.22,0,0,1,12.36-.14Zm-10.43,23.42a6.62,6.62,0,0,0,1.47,4.45,4.8,4.8,0,0,0,3.79,1.74,5,5,0,0,0,3.94-1.68,7.21,7.21,0,0,0,0-8.83,5,5,0,0,0-3.9-1.7,4.84,4.84,0,0,0-3.79,1.72A6.36,6.36,0,0,0,1226.12,368.71Z"/><path d="M1263.84,369.8h-13.63a5.72,5.72,0,0,0,1.52,3.73,4.66,4.66,0,0,0,3.46,1.37,4.48,4.48,0,0,0,2.71-.78,10.91,10.91,0,0,0,2.4-2.89l3.72,2.07a15.48,15.48,0,0,1-1.82,2.51,9.92,9.92,0,0,1-2,1.72,8.6,8.6,0,0,1-2.36,1,11.49,11.49,0,0,1-2.76.31,8.93,8.93,0,0,1-6.83-2.73,10.25,10.25,0,0,1-2.58-7.3,10.53,10.53,0,0,1,2.5-7.31,9.54,9.54,0,0,1,13.32-.08,10.56,10.56,0,0,1,2.42,7.37Zm-4.51-3.59a4.21,4.21,0,0,0-4.44-3.52,4.37,4.37,0,0,0-1.5.25,4.21,4.21,0,0,0-1.28.7,4.56,4.56,0,0,0-1,1.1,5.13,5.13,0,0,0-.62,1.47Z"/><path d="M1268.64,359.25h4.4V361a8.68,8.68,0,0,1,2.15-1.74,5,5,0,0,1,2.26-.48,7.09,7.09,0,0,1,3.64,1.13l-2,4a4.17,4.17,0,0,0-2.44-.9q-3.59,0-3.59,5.43v9.87h-4.4Z"/><path d="M1304,352.38h-5.22l2.5-4.26h7.27v30.16H1304Z"/><path d="M1335.73,352.38h-9.29l-1.49,5,.64-.06.55,0a9.49,9.49,0,0,1,7.21,3,11.36,11.36,0,0,1-.37,15.41,11.15,11.15,0,0,1-8.07,3.09q-6,0-9.45-5.63l3.44-2.91a10.71,10.71,0,0,0,2.87,3.42,6.64,6.64,0,0,0,8.12-.94,6.71,6.71,0,0,0,1.86-4.78,6.37,6.37,0,0,0-1.84-4.73,6.13,6.13,0,0,0-4.59-1.9A6.72,6.72,0,0,0,1320,364h-1.5l4.74-15.86h12.46Z"/><path d="M677.3,407.25h4.41v19H677.3v-2a8.46,8.46,0,0,1-12.37-.32,10.62,10.62,0,0,1-2.55-7.26,10.3,10.3,0,0,1,2.55-7.13,8.26,8.26,0,0,1,6.41-2.85,8.11,8.11,0,0,1,6,2.73Zm-10.43,9.46a6.66,6.66,0,0,0,1.46,4.45,4.8,4.8,0,0,0,3.79,1.74,5.06,5.06,0,0,0,4-1.68,7.25,7.25,0,0,0,0-8.83,5,5,0,0,0-3.91-1.7,4.85,4.85,0,0,0-3.79,1.72A6.35,6.35,0,0,0,666.87,416.71Zm1.5-16.7a4,4,0,0,1,1.25-2.95,4.25,4.25,0,1,1,6,6,4,4,0,0,1-3,1.25,4.09,4.09,0,0,1-3-1.25A4.19,4.19,0,0,1,668.37,400Zm2.33,0a1.94,1.94,0,1,0,1.93-1.92,1.91,1.91,0,0,0-.76.16,1.89,1.89,0,0,0-.62.42,2,2,0,0,0-.41.61A1.86,1.86,0,0,0,670.7,400.05Z"/><path d="M687.26,407.25h4.39V409a8.86,8.86,0,0,1,2.15-1.74,5,5,0,0,1,2.27-.48,7,7,0,0,1,3.63,1.13l-2,4a4.21,4.21,0,0,0-2.44-.9q-3.6,0-3.6,5.43v9.87h-4.39Z"/><path d="M703.33,420.63l3.91,1.53-5.57,11.15-3-1.23Z"/><path d="M724.41,416.63a9.42,9.42,0,0,1,3-7,10.4,10.4,0,0,1,14.41,0,9.69,9.69,0,0,1,2.93,7.15,9.59,9.59,0,0,1-3,7.16,10.06,10.06,0,0,1-7.29,2.87,9.61,9.61,0,0,1-7.16-2.93A9.81,9.81,0,0,1,724.41,416.63Zm4.49.08a6.44,6.44,0,0,0,1.52,4.51,5.92,5.92,0,0,0,8.24,0,7.12,7.12,0,0,0,0-8.87,5.84,5.84,0,0,0-8.2,0A6.13,6.13,0,0,0,728.9,416.71Z"/><path d="M767.75,425.83q0,1.35-.09,2.37a15.53,15.53,0,0,1-.25,1.81,8,8,0,0,1-1.83,3.69,8.9,8.9,0,0,1-7.09,3,9.5,9.5,0,0,1-6.27-2.05,8.41,8.41,0,0,1-2.93-5.84h4.41a5.08,5.08,0,0,0,.84,2.17,4.73,4.73,0,0,0,4,1.77q4.82,0,4.82-5.92v-2.65a8.21,8.21,0,0,1-6,2.67A8.09,8.09,0,0,1,751,424a10.41,10.41,0,0,1-2.5-7.13,11,11,0,0,1,2.32-7.07,8.11,8.11,0,0,1,6.61-3.08,7.67,7.67,0,0,1,6,2.67v-2.15h4.4Zm-4.22-9a6.42,6.42,0,0,0-1.49-4.43,4.9,4.9,0,0,0-3.84-1.7,4.73,4.73,0,0,0-4,1.86,6.73,6.73,0,0,0-1.31,4.29,6.66,6.66,0,0,0,1.31,4.26,4.75,4.75,0,0,0,4,1.82,4.81,4.81,0,0,0,4-1.84A6.51,6.51,0,0,0,763.53,416.8Z"/><path d="M799.66,393.29h4.41v33h-4.41v-2a8.2,8.2,0,0,1-5.88,2.53A8.37,8.37,0,0,1,787.3,424a10.58,10.58,0,0,1-2.56-7.26,10.23,10.23,0,0,1,2.56-7.11,8.22,8.22,0,0,1,12.36-.14Zm-10.43,23.42a6.62,6.62,0,0,0,1.47,4.45,4.78,4.78,0,0,0,3.78,1.74,5,5,0,0,0,3.95-1.68,7.25,7.25,0,0,0,0-8.83,5,5,0,0,0-3.91-1.7,4.85,4.85,0,0,0-3.79,1.72A6.35,6.35,0,0,0,789.23,416.71Z"/><path d="M827,417.8H813.31a5.78,5.78,0,0,0,1.53,3.73,4.63,4.63,0,0,0,3.45,1.37,4.51,4.51,0,0,0,2.72-.78,11.3,11.3,0,0,0,2.4-2.89l3.71,2.07a14.9,14.9,0,0,1-1.82,2.51,9.66,9.66,0,0,1-2,1.72,8.47,8.47,0,0,1-2.36,1,11.41,11.41,0,0,1-2.75.31,9,9,0,0,1-6.84-2.73,10.25,10.25,0,0,1-2.58-7.3,10.58,10.58,0,0,1,2.5-7.31,9.54,9.54,0,0,1,13.32-.08c1.62,1.77,2.42,4.23,2.42,7.37Zm-4.52-3.59a4.21,4.21,0,0,0-4.43-3.52,4.33,4.33,0,0,0-1.5.25,4.09,4.09,0,0,0-1.28.7,4.18,4.18,0,0,0-1,1.1,5.13,5.13,0,0,0-.62,1.47Z"/><path d="M836.63,411.36v14.92h-4.39V411.36h-1.88v-4.11h1.88v-7h4.39v7h3.42v4.11Z"/><path d="M872.71,417.8H859.07a5.78,5.78,0,0,0,1.53,3.73,4.65,4.65,0,0,0,3.45,1.37,4.51,4.51,0,0,0,2.72-.78,11.3,11.3,0,0,0,2.4-2.89l3.71,2.07a15.46,15.46,0,0,1-1.81,2.51,9.92,9.92,0,0,1-2.05,1.72,8.53,8.53,0,0,1-2.37,1,11.35,11.35,0,0,1-2.75.31,9,9,0,0,1-6.84-2.73,10.25,10.25,0,0,1-2.58-7.3,10.58,10.58,0,0,1,2.5-7.31,9.54,9.54,0,0,1,13.32-.08,10.52,10.52,0,0,1,2.43,7.37Zm-4.51-3.59a4.22,4.22,0,0,0-4.44-3.52,4.37,4.37,0,0,0-1.5.25,4.09,4.09,0,0,0-1.28.7,4.36,4.36,0,0,0-1,1.1,5.13,5.13,0,0,0-.62,1.47Z"/><path d="M877.51,407.25h4.4V409a8.66,8.66,0,0,1,2.14-1.74,5,5,0,0,1,2.27-.48,7,7,0,0,1,3.63,1.13l-2,4a4.19,4.19,0,0,0-2.44-.9c-2.4,0-3.59,1.81-3.59,5.43v9.87h-4.4Z"/><path d="M909.21,407.25v10.92q0,4.72,3.73,4.73t3.73-4.73V407.25h4.4v11a12.14,12.14,0,0,1-.57,3.94,6.63,6.63,0,0,1-1.89,2.68,9.25,9.25,0,0,1-11.31,0,6.77,6.77,0,0,1-1.94-2.68,11,11,0,0,1-.54-3.94v-11Z"/><path d="M931,393.29v33h-4.4v-33Z"/><path d="M935.68,416.63a9.45,9.45,0,0,1,2.94-7,10.41,10.41,0,0,1,14.42,0,9.69,9.69,0,0,1,2.93,7.15,9.59,9.59,0,0,1-3,7.16,10.06,10.06,0,0,1-7.29,2.87,9.61,9.61,0,0,1-7.16-2.93A9.81,9.81,0,0,1,935.68,416.63Zm4.49.08a6.44,6.44,0,0,0,1.52,4.51,5.92,5.92,0,0,0,8.24,0,7.12,7.12,0,0,0,0-8.87,5.84,5.84,0,0,0-8.2,0A6.13,6.13,0,0,0,940.17,416.71Z"/><path d="M962.18,407.25l4.92,10.69,4.9-10.69h5l-9.89,20.34-9.8-20.34Z"/><path d="M984.66,393.29v33h-4.39v-33Z"/><path d="M989.56,399.34a2.87,2.87,0,0,1,2.85-2.83,2.78,2.78,0,0,1,2,.84,2.75,2.75,0,0,1,.84,2,2.79,2.79,0,0,1-.84,2,2.72,2.72,0,0,1-2,.84,2.87,2.87,0,0,1-2.87-2.89Zm5.06,7.91v19h-4.39v-19Z"/><path d="M1018.59,425.83q0,1.35-.09,2.37a15.53,15.53,0,0,1-.25,1.81,8,8,0,0,1-1.83,3.69,8.9,8.9,0,0,1-7.09,3,9.5,9.5,0,0,1-6.27-2.05,8.41,8.41,0,0,1-2.93-5.84h4.41a5.08,5.08,0,0,0,.84,2.17,4.73,4.73,0,0,0,4,1.77q4.82,0,4.82-5.92v-2.65a8.21,8.21,0,0,1-6,2.67,8.09,8.09,0,0,1-6.37-2.81,10.41,10.41,0,0,1-2.5-7.13,11,11,0,0,1,2.32-7.07,8.1,8.1,0,0,1,6.6-3.08,7.68,7.68,0,0,1,6,2.67v-2.15h4.4Zm-4.22-9a6.42,6.42,0,0,0-1.49-4.43,4.9,4.9,0,0,0-3.84-1.7,4.73,4.73,0,0,0-3.95,1.86,6.73,6.73,0,0,0-1.31,4.29,6.66,6.66,0,0,0,1.31,4.26,4.75,4.75,0,0,0,3.95,1.82,4.82,4.82,0,0,0,4-1.84A6.51,6.51,0,0,0,1014.37,416.8Z"/><path d="M1028.66,411.36v14.92h-4.39V411.36h-1.88v-4.11h1.88v-7h4.39v7h3.42v4.11Z"/><path d="M1036.22,424.09a2.59,2.59,0,0,1,.8-1.89,2.62,2.62,0,0,1,1.92-.81,2.72,2.72,0,1,1,0,5.43,2.67,2.67,0,0,1-2.72-2.73Zm.51-4.53V396.12h4.41v23.44Z"/><path d="M1061.52,426.28V396.12h6.32a23,23,0,0,1,7.19.9,13.48,13.48,0,0,1,5.14,3,15.58,15.58,0,0,1-.2,22.44,14.27,14.27,0,0,1-5.11,3,23.3,23.3,0,0,1-7.09.84Zm4.55-4.28h2a17.06,17.06,0,0,0,5.09-.64,10.45,10.45,0,0,0,3.68-2.17,10.32,10.32,0,0,0,3.36-8,10.5,10.5,0,0,0-3.32-8.05c-2-1.83-4.93-2.75-8.81-2.75h-2Z"/><path d="M1107,417.8h-13.63a5.83,5.83,0,0,0,1.52,3.73,4.66,4.66,0,0,0,3.46,1.37,4.53,4.53,0,0,0,2.72-.78,11.3,11.3,0,0,0,2.4-2.89l3.71,2.07a14.9,14.9,0,0,1-1.82,2.51,9.92,9.92,0,0,1-2.05,1.72,8.6,8.6,0,0,1-2.36,1,11.49,11.49,0,0,1-2.76.31,9,9,0,0,1-6.83-2.73,10.25,10.25,0,0,1-2.58-7.3,10.53,10.53,0,0,1,2.5-7.31,9.54,9.54,0,0,1,13.32-.08,10.56,10.56,0,0,1,2.42,7.37Zm-4.51-3.59a4.21,4.21,0,0,0-4.43-3.52,4.39,4.39,0,0,0-1.51.25,4.21,4.21,0,0,0-1.28.7,4.32,4.32,0,0,0-1,1.1,5.14,5.14,0,0,0-.63,1.47Z"/><path d="M1111.85,407.25h4.41V409a7.22,7.22,0,0,1,5.2-2.28,6.52,6.52,0,0,1,5.17,2.09c1.07,1.18,1.6,3.12,1.6,5.8v11.66h-4.41V415.65a7,7,0,0,0-.78-3.88,3.15,3.15,0,0,0-2.77-1.1,3.38,3.38,0,0,0-3.11,1.45q-.9,1.42-.9,5v9.18h-4.41Z"/><path d="M1133.78,407.25h4.42V409a7.18,7.18,0,0,1,5.19-2.28,6.56,6.56,0,0,1,5.18,2.09c1.06,1.18,1.6,3.12,1.6,5.8v11.66h-4.42V415.65a7,7,0,0,0-.78-3.88,3.15,3.15,0,0,0-2.77-1.1,3.4,3.4,0,0,0-3.11,1.45c-.59.95-.89,2.61-.89,5v9.18h-4.42Z"/><path d="M1173,417.8h-13.63a5.72,5.72,0,0,0,1.52,3.73,4.66,4.66,0,0,0,3.46,1.37,4.48,4.48,0,0,0,2.71-.78,11.1,11.1,0,0,0,2.4-2.89l3.71,2.07a14.88,14.88,0,0,1-1.81,2.51,9.92,9.92,0,0,1-2.05,1.72,8.53,8.53,0,0,1-2.37,1,11.35,11.35,0,0,1-2.75.31,9,9,0,0,1-6.84-2.73,10.29,10.29,0,0,1-2.57-7.3,10.53,10.53,0,0,1,2.5-7.31,9.54,9.54,0,0,1,13.32-.08,10.56,10.56,0,0,1,2.42,7.37Zm-4.51-3.59a4.21,4.21,0,0,0-4.44-3.52,4.37,4.37,0,0,0-1.5.25,4.09,4.09,0,0,0-1.28.7,4.56,4.56,0,0,0-1,1.1,5.13,5.13,0,0,0-.62,1.47Z"/><path d="M1201.24,410.5l-3.63,1.93c-.57-1.17-1.28-1.76-2.13-1.76a1.48,1.48,0,0,0-1,.4,1.34,1.34,0,0,0-.43,1c0,.73.84,1.45,2.53,2.17a15,15,0,0,1,4.71,2.77,4.73,4.73,0,0,1,1.21,3.42,6,6,0,0,1-2,4.61,6.9,6.9,0,0,1-4.76,1.75q-4.79,0-6.78-4.66l3.75-1.74a8.42,8.42,0,0,0,1.19,1.74,2.72,2.72,0,0,0,1.91.74c1.49,0,2.23-.68,2.23-2,0-.78-.57-1.51-1.72-2.19-.44-.22-.88-.44-1.33-.64l-1.34-.65a8.22,8.22,0,0,1-2.7-1.87,4.66,4.66,0,0,1-1-3.07,5.44,5.44,0,0,1,1.7-4.1,6,6,0,0,1,4.22-1.62C1198.25,406.73,1200.06,408,1201.24,410.5Z"/><path d="M1220.44,407.25h4.42v19h-4.42v-2a8.45,8.45,0,0,1-12.36-.32,10.58,10.58,0,0,1-2.56-7.26,10.26,10.26,0,0,1,2.56-7.13,8.24,8.24,0,0,1,6.4-2.85,8.09,8.09,0,0,1,6,2.73ZM1210,416.71a6.62,6.62,0,0,0,1.47,4.45,4.78,4.78,0,0,0,3.79,1.74,5,5,0,0,0,3.94-1.68,7.25,7.25,0,0,0,0-8.83,5,5,0,0,0-3.91-1.7,4.82,4.82,0,0,0-3.78,1.72A6.31,6.31,0,0,0,1210,416.71Z"/><path d="M1234.8,393.29v33h-4.4v-33Z"/><path d="M1258.76,425.83q0,1.35-.09,2.37a15.69,15.69,0,0,1-.24,1.81,8.05,8.05,0,0,1-1.84,3.69,8.88,8.88,0,0,1-7.09,3,9.52,9.52,0,0,1-6.27-2.05,8.45,8.45,0,0,1-2.93-5.84h4.42a5.08,5.08,0,0,0,.84,2.17,4.72,4.72,0,0,0,4,1.77q4.83,0,4.83-5.92v-2.65a8.23,8.23,0,0,1-6,2.67A8.1,8.1,0,0,1,1242,424a10.46,10.46,0,0,1-2.5-7.13,11,11,0,0,1,2.33-7.07,8.1,8.1,0,0,1,6.6-3.08,7.68,7.68,0,0,1,6,2.67v-2.15h4.39Zm-4.22-9a6.41,6.41,0,0,0-1.48-4.43,4.92,4.92,0,0,0-3.85-1.7,4.71,4.71,0,0,0-3.94,1.86,6.67,6.67,0,0,0-1.31,4.29,6.6,6.6,0,0,0,1.31,4.26,4.73,4.73,0,0,0,3.94,1.82,4.83,4.83,0,0,0,4-1.84A6.56,6.56,0,0,0,1254.54,416.8Z"/><path d="M1275.36,410.5l-3.63,1.93c-.57-1.17-1.28-1.76-2.13-1.76a1.48,1.48,0,0,0-1,.4,1.34,1.34,0,0,0-.43,1c0,.73.84,1.45,2.54,2.17a14.89,14.89,0,0,1,4.7,2.77,4.73,4.73,0,0,1,1.21,3.42,6,6,0,0,1-2,4.61,6.9,6.9,0,0,1-4.76,1.75q-4.79,0-6.78-4.66l3.75-1.74a8.42,8.42,0,0,0,1.19,1.74,2.75,2.75,0,0,0,1.92.74c1.48,0,2.22-.68,2.22-2,0-.78-.57-1.51-1.72-2.19-.44-.22-.88-.44-1.33-.64l-1.34-.65a8.22,8.22,0,0,1-2.7-1.87,4.66,4.66,0,0,1-1-3.07,5.43,5.43,0,0,1,1.69-4.1,6,6,0,0,1,4.22-1.62C1272.37,406.73,1274.18,408,1275.36,410.5Z"/><path d="M667.67,441.29v16.17a8.12,8.12,0,0,1,6-2.73,8.21,8.21,0,0,1,6.41,2.87,10.23,10.23,0,0,1,2.56,7.11A10.44,10.44,0,0,1,680,472a8.45,8.45,0,0,1-12.36.32v2h-4.4v-33Zm10.45,23.61a6.58,6.58,0,0,0-1.49-4.45,4.76,4.76,0,0,0-3.77-1.76,5.05,5.05,0,0,0-3.94,1.7,6.33,6.33,0,0,0-1.51,4.38,6.42,6.42,0,0,0,1.49,4.43,4.94,4.94,0,0,0,3.9,1.7,4.84,4.84,0,0,0,3.79-1.7A6.24,6.24,0,0,0,678.12,464.9Z"/><path d="M686.59,447.34a2.87,2.87,0,0,1,2.86-2.83,2.77,2.77,0,0,1,2,.84,2.71,2.71,0,0,1,.84,2,2.76,2.76,0,0,1-.84,2,2.72,2.72,0,0,1-2,.84,2.87,2.87,0,0,1-2.87-2.89Zm5.06,7.91v19h-4.39v-19Z"/><path d="M701.61,441.29v33h-4.39v-33Z"/><path d="M711.57,441.29v33h-4.39v-33Z"/><path d="M734.46,465.8H720.83a5.78,5.78,0,0,0,1.53,3.73,4.63,4.63,0,0,0,3.45,1.37,4.51,4.51,0,0,0,2.72-.78,11.3,11.3,0,0,0,2.4-2.89l3.71,2.07a14.9,14.9,0,0,1-1.82,2.51,9.66,9.66,0,0,1-2.05,1.72,8.47,8.47,0,0,1-2.36,1,11.41,11.41,0,0,1-2.75.31,9,9,0,0,1-6.84-2.73,10.25,10.25,0,0,1-2.58-7.3,10.58,10.58,0,0,1,2.5-7.31,9.54,9.54,0,0,1,13.32-.08c1.62,1.77,2.42,4.23,2.42,7.37ZM730,462.21a4.21,4.21,0,0,0-4.43-3.52,4.33,4.33,0,0,0-1.5.25,4.09,4.09,0,0,0-1.28.7,4.18,4.18,0,0,0-1,1.1,5.44,5.44,0,0,0-.63,1.47Z"/><path d="M753.29,441.29h4.42v33h-4.42v-2a8.2,8.2,0,0,1-5.88,2.53,8.37,8.37,0,0,1-6.48-2.85,10.58,10.58,0,0,1-2.56-7.26,10.23,10.23,0,0,1,2.56-7.11,8.22,8.22,0,0,1,12.36-.14Zm-10.43,23.42a6.62,6.62,0,0,0,1.47,4.45,4.78,4.78,0,0,0,3.79,1.74,5,5,0,0,0,3.94-1.68,7.21,7.21,0,0,0,0-8.83,5,5,0,0,0-3.9-1.7,4.84,4.84,0,0,0-3.79,1.72A6.31,6.31,0,0,0,742.86,464.71Z"/><path d="M780.58,465.8H767a5.72,5.72,0,0,0,1.52,3.73,4.66,4.66,0,0,0,3.46,1.37,4.5,4.5,0,0,0,2.71-.78,11.3,11.3,0,0,0,2.4-2.89l3.71,2.07a14.88,14.88,0,0,1-1.81,2.51,9.92,9.92,0,0,1-2.05,1.72,8.53,8.53,0,0,1-2.37,1,11.35,11.35,0,0,1-2.75.31,9,9,0,0,1-6.84-2.73,10.25,10.25,0,0,1-2.57-7.3,10.53,10.53,0,0,1,2.5-7.31,9.54,9.54,0,0,1,13.32-.08,10.56,10.56,0,0,1,2.42,7.37Zm-4.51-3.59a4.22,4.22,0,0,0-4.44-3.52,4.37,4.37,0,0,0-1.5.25,4.09,4.09,0,0,0-1.28.7,4.56,4.56,0,0,0-1,1.1,5.13,5.13,0,0,0-.62,1.47Z"/><path d="M785.38,455.25h4.4V457a8.5,8.5,0,0,1,2.15-1.74,5,5,0,0,1,2.26-.48,7,7,0,0,1,3.63,1.13l-2,4a4.17,4.17,0,0,0-2.44-.9q-3.58,0-3.59,5.43v9.87h-4.4Z"/><path d="M817.08,441.29v20.12l6.19-6.16h5.9l-8.26,8,8.87,11h-5.71l-6.28-8-.71.7v7.33h-4.39v-33Z"/><path d="M846,455.25h4.41v19H846v-2a8.45,8.45,0,0,1-12.36-.32,10.58,10.58,0,0,1-2.56-7.26,10.26,10.26,0,0,1,2.56-7.13,8.24,8.24,0,0,1,6.4-2.85,8.09,8.09,0,0,1,6,2.73Zm-10.43,9.46a6.66,6.66,0,0,0,1.46,4.45,4.81,4.81,0,0,0,3.79,1.74,5,5,0,0,0,4-1.68,7.25,7.25,0,0,0,0-8.83,5,5,0,0,0-3.91-1.7,4.85,4.85,0,0,0-3.79,1.72A6.35,6.35,0,0,0,835.52,464.71Z"/><path d="M860.3,441.29v33h-4.39v-33Z"/><path d="M879.89,441.29h4.42v33h-4.42v-2a8.19,8.19,0,0,1-5.87,2.53,8.38,8.38,0,0,1-6.49-2.85,10.63,10.63,0,0,1-2.56-7.26,10.28,10.28,0,0,1,2.56-7.11,8.22,8.22,0,0,1,12.36-.14Zm-10.43,23.42a6.62,6.62,0,0,0,1.47,4.45,4.8,4.8,0,0,0,3.79,1.74,5,5,0,0,0,3.94-1.68,7.21,7.21,0,0,0,0-8.83,5,5,0,0,0-3.9-1.7,4.84,4.84,0,0,0-3.79,1.72A6.36,6.36,0,0,0,869.46,464.71Z"/><path d="M907.18,465.8H893.55a5.72,5.72,0,0,0,1.52,3.73,4.66,4.66,0,0,0,3.46,1.37,4.48,4.48,0,0,0,2.71-.78,10.91,10.91,0,0,0,2.4-2.89l3.72,2.07a15.48,15.48,0,0,1-1.82,2.51,9.92,9.92,0,0,1-2,1.72,8.53,8.53,0,0,1-2.37,1,11.35,11.35,0,0,1-2.75.31,8.93,8.93,0,0,1-6.83-2.73,10.25,10.25,0,0,1-2.58-7.3,10.53,10.53,0,0,1,2.5-7.31,9.54,9.54,0,0,1,13.32-.08,10.56,10.56,0,0,1,2.42,7.37Zm-4.51-3.59a4.21,4.21,0,0,0-4.44-3.52,4.37,4.37,0,0,0-1.5.25,4.09,4.09,0,0,0-1.28.7,4.56,4.56,0,0,0-1,1.1,5.13,5.13,0,0,0-.62,1.47Z"/><path d="M923,458.5l-3.63,1.93c-.58-1.17-1.29-1.76-2.13-1.76a1.5,1.5,0,0,0-1,.4,1.37,1.37,0,0,0-.43,1c0,.73.85,1.45,2.54,2.17a15.09,15.09,0,0,1,4.71,2.77,4.73,4.73,0,0,1,1.21,3.42,6,6,0,0,1-2,4.61,7.29,7.29,0,0,1-11.54-2.91l3.75-1.74a8,8,0,0,0,1.19,1.74,2.72,2.72,0,0,0,1.91.74c1.49,0,2.23-.68,2.23-2,0-.78-.58-1.51-1.72-2.19-.44-.22-.89-.44-1.33-.64l-1.35-.65a8.27,8.27,0,0,1-2.69-1.87,4.61,4.61,0,0,1-1-3.07,5.44,5.44,0,0,1,1.7-4.1,6,6,0,0,1,4.22-1.62C920,454.73,921.85,456,923,458.5Z"/><path d="M945.11,459.36v14.92H940.7V459.36h-1.57v-4.11h1.57v-7.34c0-2.4.41-4.09,1.25-5.08a6.12,6.12,0,0,1,5-2.07,8.47,8.47,0,0,1,2.94.69v4.49l-.44-.24a5.56,5.56,0,0,0-2.35-.72,1.58,1.58,0,0,0-1.58.84,8.15,8.15,0,0,0-.41,3.16v6.27h4.78v4.11Z"/><path d="M952,464.63a9.46,9.46,0,0,1,3-7,10.41,10.41,0,0,1,14.42,0,10.18,10.18,0,0,1,0,14.31,10.06,10.06,0,0,1-7.29,2.87,9.65,9.65,0,0,1-7.17-2.93A9.85,9.85,0,0,1,952,464.63Zm4.5.08a6.4,6.4,0,0,0,1.52,4.51,5.92,5.92,0,0,0,8.24,0,7.16,7.16,0,0,0,0-8.87,5.84,5.84,0,0,0-8.2,0A6.13,6.13,0,0,0,956.52,464.71Z"/><path d="M977,455.25h4.4V457a8.68,8.68,0,0,1,2.15-1.74,5,5,0,0,1,2.26-.48,7.09,7.09,0,0,1,3.64,1.13l-2,4A4.17,4.17,0,0,0,985,459q-3.59,0-3.59,5.43v9.87H977Z"/><path d="M1008.66,441.29v16.17a8.12,8.12,0,0,1,6-2.73,8.21,8.21,0,0,1,6.41,2.87,10.28,10.28,0,0,1,2.56,7.11A10.44,10.44,0,0,1,1021,472a8.46,8.46,0,0,1-12.37.32v2h-4.39v-33Zm10.45,23.61a6.57,6.57,0,0,0-1.48-4.45,4.76,4.76,0,0,0-3.77-1.76,5.09,5.09,0,0,0-4,1.7,6.33,6.33,0,0,0-1.5,4.38,6.46,6.46,0,0,0,1.48,4.43,5,5,0,0,0,3.91,1.7,4.86,4.86,0,0,0,3.79-1.7A6.23,6.23,0,0,0,1019.11,464.9Z"/><path d="M1043.47,456.58l3-3,2,2.11-2.93,2.87a10.15,10.15,0,0,1,2.13,6.23,9.57,9.57,0,0,1-3,7.11,9.7,9.7,0,0,1-7.15,2.89,10.28,10.28,0,0,1-6.29-2l-2.89,2.79-2-2,2.87-2.85a10.46,10.46,0,0,1-1.89-6,9.55,9.55,0,0,1,2.94-7.09,9.93,9.93,0,0,1,7.21-2.91A10.63,10.63,0,0,1,1043.47,456.58Zm-3.18,3a6.09,6.09,0,0,0-2.76-.61,5.48,5.48,0,0,0-4.14,1.61,5.84,5.84,0,0,0-1.54,4.25,6.57,6.57,0,0,0,.6,2.84Zm2.1,2-8,8.26a6.32,6.32,0,0,0,3.08.78,5.48,5.48,0,0,0,4.1-1.58,5.81,5.81,0,0,0,1.55-4.22A7.15,7.15,0,0,0,1042.39,461.58Z"/><path d="M1052.3,455.25h4.39V457a8.68,8.68,0,0,1,2.15-1.74,5,5,0,0,1,2.27-.48,7.05,7.05,0,0,1,3.63,1.13l-2,4a4.21,4.21,0,0,0-2.44-.9q-3.6,0-3.6,5.43v9.87h-4.39Z"/><path d="M1067.86,455.25h4.42V457a7.2,7.2,0,0,1,5.19-2.28,6.54,6.54,0,0,1,5.18,2.09c1.07,1.18,1.6,3.12,1.6,5.8v11.66h-4.41V463.65a6.85,6.85,0,0,0-.79-3.88,3.14,3.14,0,0,0-2.77-1.1,3.37,3.37,0,0,0-3.1,1.45q-.9,1.42-.9,5v9.18h-4.42Z"/><path d="M1107.12,465.8h-13.63a5.78,5.78,0,0,0,1.52,3.73,4.66,4.66,0,0,0,3.46,1.37,4.48,4.48,0,0,0,2.71-.78,11.1,11.1,0,0,0,2.41-2.89l3.71,2.07a15.48,15.48,0,0,1-1.82,2.51,9.92,9.92,0,0,1-2,1.72,8.6,8.6,0,0,1-2.36,1,11.49,11.49,0,0,1-2.76.31,9,9,0,0,1-6.83-2.73,10.25,10.25,0,0,1-2.58-7.3,10.53,10.53,0,0,1,2.5-7.31,9.54,9.54,0,0,1,13.32-.08,10.56,10.56,0,0,1,2.42,7.37Zm-4.51-3.59a4.21,4.21,0,0,0-4.43-3.52,4.39,4.39,0,0,0-1.51.25,4.21,4.21,0,0,0-1.28.7,4.32,4.32,0,0,0-1,1.1,4.88,4.88,0,0,0-.63,1.47Z"/><path d="M1116.32,484.63h-4.39V455.25h4.39v2.07a8.34,8.34,0,0,1,12.36.3,10.42,10.42,0,0,1,2.58,7.24,10.26,10.26,0,0,1-2.56,7.13,8.34,8.34,0,0,1-12.38.16Zm10.45-19.75a6.62,6.62,0,0,0-1.48-4.45,4.81,4.81,0,0,0-3.79-1.74,5,5,0,0,0-3.93,1.68,6.38,6.38,0,0,0-1.5,4.42,6.51,6.51,0,0,0,1.5,4.41,5,5,0,0,0,3.91,1.7,4.76,4.76,0,0,0,3.77-1.72A6.28,6.28,0,0,0,1126.77,464.88Z"/><path d="M1135,464.63a9.46,9.46,0,0,1,3-7,10.41,10.41,0,0,1,14.42,0,10.2,10.2,0,0,1,0,14.31,10.06,10.06,0,0,1-7.29,2.87,9.65,9.65,0,0,1-7.17-2.93A9.85,9.85,0,0,1,1135,464.63Zm4.49.08a6.4,6.4,0,0,0,1.53,4.51,5.92,5.92,0,0,0,8.24,0,7.16,7.16,0,0,0,0-8.87,5.37,5.37,0,0,0-4.12-1.68,5.31,5.31,0,0,0-4.08,1.68A6.09,6.09,0,0,0,1139.5,464.71Z"/><path d="M1160,455.25h4.4V457a8.68,8.68,0,0,1,2.15-1.74,5,5,0,0,1,2.26-.48,7,7,0,0,1,3.63,1.13l-2,4a4.17,4.17,0,0,0-2.44-.9q-3.59,0-3.59,5.43v9.87H1160Z"/><path d="M1175.52,455.25h4.41V457a7.22,7.22,0,0,1,5.2-2.28,6.52,6.52,0,0,1,5.17,2.09c1.07,1.18,1.61,3.12,1.61,5.8v11.66h-4.42V463.65a7,7,0,0,0-.78-3.88,3.15,3.15,0,0,0-2.77-1.1,3.38,3.38,0,0,0-3.11,1.45q-.9,1.42-.9,5v9.18h-4.41Z"/><path d="M1196.55,464.63a9.46,9.46,0,0,1,3-7,10.41,10.41,0,0,1,14.42,0,10.18,10.18,0,0,1,0,14.31,10.06,10.06,0,0,1-7.29,2.87,9.61,9.61,0,0,1-7.16-2.93A9.82,9.82,0,0,1,1196.55,464.63Zm4.5.08a6.4,6.4,0,0,0,1.52,4.51,5.92,5.92,0,0,0,8.24,0,7.12,7.12,0,0,0,0-8.87,5.84,5.84,0,0,0-8.2,0A6.13,6.13,0,0,0,1201.05,464.71Z"/><path d="M1232.94,464.63a9.42,9.42,0,0,1,3-7,10.4,10.4,0,0,1,14.41,0,10.19,10.19,0,0,1,0,14.31,10.06,10.06,0,0,1-7.29,2.87,9.65,9.65,0,0,1-7.17-2.93A9.85,9.85,0,0,1,1232.94,464.63Zm4.49.08a6.4,6.4,0,0,0,1.53,4.51,5.92,5.92,0,0,0,8.24,0,7.16,7.16,0,0,0,0-8.87,5.37,5.37,0,0,0-4.12-1.68,5.31,5.31,0,0,0-4.08,1.68A6.09,6.09,0,0,0,1237.43,464.71Z"/><path d="M1276.28,473.83q0,1.35-.09,2.37A18.25,18.25,0,0,1,1276,478a8.05,8.05,0,0,1-1.84,3.69,8.9,8.9,0,0,1-7.09,3,9.5,9.5,0,0,1-6.27-2.05,8.41,8.41,0,0,1-2.93-5.84h4.42a5.08,5.08,0,0,0,.84,2.17,4.72,4.72,0,0,0,4,1.77q4.83,0,4.83-5.92v-2.65a8.23,8.23,0,0,1-6,2.67,8.1,8.1,0,0,1-6.37-2.81,10.46,10.46,0,0,1-2.5-7.13,11,11,0,0,1,2.33-7.07,8.1,8.1,0,0,1,6.6-3.08,7.68,7.68,0,0,1,6,2.67v-2.15h4.39Zm-4.22-9a6.41,6.41,0,0,0-1.48-4.43,4.92,4.92,0,0,0-3.85-1.7,4.71,4.71,0,0,0-3.94,1.86,6.67,6.67,0,0,0-1.31,4.29,6.6,6.6,0,0,0,1.31,4.26,4.73,4.73,0,0,0,3.94,1.82,4.79,4.79,0,0,0,4-1.84A6.51,6.51,0,0,0,1272.06,464.8Z"/><path d="M677.3,489.29h4.41v33H677.3v-2a8.2,8.2,0,0,1-5.88,2.53,8.38,8.38,0,0,1-6.49-2.85,10.62,10.62,0,0,1-2.55-7.26,10.27,10.27,0,0,1,2.55-7.11,8.23,8.23,0,0,1,12.37-.14Zm-10.43,23.42a6.66,6.66,0,0,0,1.46,4.45,4.8,4.8,0,0,0,3.79,1.74,5.06,5.06,0,0,0,4-1.68,7.25,7.25,0,0,0,0-8.83,5,5,0,0,0-3.91-1.7,4.85,4.85,0,0,0-3.79,1.72A6.35,6.35,0,0,0,666.87,512.71Z"/><path d="M704.58,513.8H691a5.78,5.78,0,0,0,1.52,3.73,4.66,4.66,0,0,0,3.46,1.37,4.48,4.48,0,0,0,2.71-.78,11.1,11.1,0,0,0,2.41-2.89l3.71,2.07a15.48,15.48,0,0,1-1.82,2.51,9.92,9.92,0,0,1-2.05,1.72,8.6,8.6,0,0,1-2.36,1,11.49,11.49,0,0,1-2.76.31,9,9,0,0,1-6.83-2.73,10.25,10.25,0,0,1-2.58-7.3,10.53,10.53,0,0,1,2.5-7.31,9.54,9.54,0,0,1,13.32-.08,10.56,10.56,0,0,1,2.42,7.37Zm-4.51-3.59a4.21,4.21,0,0,0-4.43-3.52,4.39,4.39,0,0,0-1.51.25,4.21,4.21,0,0,0-1.28.7,4.32,4.32,0,0,0-1,1.1,5.14,5.14,0,0,0-.63,1.47Z"/><path d="M713.78,489.29v33h-4.39v-33Z"/><path d="M718.68,495.34a2.87,2.87,0,0,1,2.86-2.83,2.77,2.77,0,0,1,2,.84,2.71,2.71,0,0,1,.84,2,2.76,2.76,0,0,1-.84,2,2.72,2.72,0,0,1-2,.84,2.87,2.87,0,0,1-2.87-2.89Zm5.06,7.91v19h-4.39v-19Z"/><path d="M729.31,503.25h4.41V505a7.22,7.22,0,0,1,5.2-2.28,6.52,6.52,0,0,1,5.17,2.09c1.07,1.18,1.61,3.12,1.61,5.8v11.66h-4.42V511.65a7,7,0,0,0-.78-3.88,3.15,3.15,0,0,0-2.77-1.1,3.38,3.38,0,0,0-3.11,1.45q-.9,1.42-.9,5v9.18h-4.41Z"/><path d="M769.64,521.83q0,1.35-.09,2.37a18.25,18.25,0,0,1-.24,1.81,8.05,8.05,0,0,1-1.84,3.69,8.9,8.9,0,0,1-7.09,3,9.5,9.5,0,0,1-6.27-2,8.41,8.41,0,0,1-2.93-5.84h4.42a5.08,5.08,0,0,0,.84,2.17,4.72,4.72,0,0,0,4,1.77q4.83,0,4.83-5.92v-2.65a8.23,8.23,0,0,1-6,2.67,8.1,8.1,0,0,1-6.37-2.81,10.46,10.46,0,0,1-2.5-7.13,11,11,0,0,1,2.33-7.07,8.09,8.09,0,0,1,6.6-3.08,7.68,7.68,0,0,1,6,2.67v-2.15h4.39Zm-4.22-9a6.41,6.41,0,0,0-1.48-4.43,4.94,4.94,0,0,0-3.85-1.7,4.74,4.74,0,0,0-4,1.86,6.73,6.73,0,0,0-1.3,4.29,6.66,6.66,0,0,0,1.3,4.26,5.21,5.21,0,0,0,7.93,0A6.51,6.51,0,0,0,765.42,512.8Z"/><path d="M801.55,503.25H806v19h-4.42v-2a8.45,8.45,0,0,1-12.36-.32,10.63,10.63,0,0,1-2.56-7.26,10.31,10.31,0,0,1,2.56-7.13,8.26,8.26,0,0,1,6.41-2.85,8.07,8.07,0,0,1,5.95,2.73Zm-10.43,9.46a6.62,6.62,0,0,0,1.47,4.45,4.8,4.8,0,0,0,3.79,1.74,5,5,0,0,0,3.94-1.68,7.21,7.21,0,0,0,0-8.83,5,5,0,0,0-3.9-1.7,4.84,4.84,0,0,0-3.79,1.72A6.36,6.36,0,0,0,791.12,512.71Z"/><path d="M816.07,507.36v14.92h-4.42V507.36h-1.56v-4.11h1.56v-7.34q0-3.6,1.25-5.08a6.13,6.13,0,0,1,5-2.07,8.52,8.52,0,0,1,3,.69v4.49l-.45-.24a5.53,5.53,0,0,0-2.34-.72,1.58,1.58,0,0,0-1.58.84,8,8,0,0,0-.41,3.16v6.27h4.78v4.11Z"/><path d="M849.76,489.29h4.41v33h-4.41v-2a8.2,8.2,0,0,1-5.88,2.53,8.38,8.38,0,0,1-6.49-2.85,10.62,10.62,0,0,1-2.55-7.26,10.27,10.27,0,0,1,2.55-7.11,8.23,8.23,0,0,1,12.37-.14Zm-10.43,23.42a6.66,6.66,0,0,0,1.46,4.45,4.81,4.81,0,0,0,3.79,1.74,5.06,5.06,0,0,0,3.95-1.68,7.25,7.25,0,0,0,0-8.83,5,5,0,0,0-3.91-1.7,4.85,4.85,0,0,0-3.79,1.72A6.35,6.35,0,0,0,839.33,512.71Z"/><path d="M877,513.8H863.41a5.83,5.83,0,0,0,1.52,3.73,4.66,4.66,0,0,0,3.46,1.37,4.53,4.53,0,0,0,2.72-.78,11.3,11.3,0,0,0,2.4-2.89l3.71,2.07a14.9,14.9,0,0,1-1.82,2.51,9.92,9.92,0,0,1-2,1.72,8.6,8.6,0,0,1-2.36,1,11.49,11.49,0,0,1-2.76.31,9,9,0,0,1-6.83-2.73,10.25,10.25,0,0,1-2.58-7.3,10.53,10.53,0,0,1,2.5-7.31,9.54,9.54,0,0,1,13.32-.08,10.56,10.56,0,0,1,2.42,7.37Zm-4.51-3.59a4.21,4.21,0,0,0-4.43-3.52,4.39,4.39,0,0,0-1.51.25,4.21,4.21,0,0,0-1.28.7,4.32,4.32,0,0,0-1,1.1,5.14,5.14,0,0,0-.63,1.47Z"/><path d="M886.73,507.36v14.92h-4.39V507.36h-1.88v-4.11h1.88v-7h4.39v7h3.42v4.11Z"/><path d="M916.54,506.5l-3.64,1.93c-.57-1.17-1.28-1.76-2.13-1.76a1.48,1.48,0,0,0-1,.4,1.34,1.34,0,0,0-.43,1c0,.73.85,1.45,2.54,2.17a14.89,14.89,0,0,1,4.7,2.77,4.74,4.74,0,0,1,1.22,3.42,6,6,0,0,1-2,4.61,6.9,6.9,0,0,1-4.76,1.75q-4.79,0-6.78-4.66l3.75-1.74a8.42,8.42,0,0,0,1.19,1.74,2.75,2.75,0,0,0,1.92.74c1.48,0,2.22-.68,2.22-2,0-.78-.57-1.51-1.72-2.19-.44-.22-.88-.44-1.32-.64l-1.35-.65a8.22,8.22,0,0,1-2.7-1.87,4.66,4.66,0,0,1-1-3.07,5.4,5.4,0,0,1,1.7-4.1,6,6,0,0,1,4.22-1.62C913.54,502.73,915.35,504,916.54,506.5Z"/><path d="M926.24,507.36v14.92h-4.39V507.36H920v-4.11h1.88v-7h4.39v7h3.42v4.11Z"/><path d="M932.65,503.25H937V505a8.86,8.86,0,0,1,2.15-1.74,5,5,0,0,1,2.27-.48,7,7,0,0,1,3.63,1.13l-2,4a4.19,4.19,0,0,0-2.44-.9q-3.6,0-3.6,5.43v9.87h-4.39Z"/><path d="M961.36,503.25h4.41v19h-4.41v-2A8.45,8.45,0,0,1,949,520a10.58,10.58,0,0,1-2.56-7.26,10.26,10.26,0,0,1,2.56-7.13,8.24,8.24,0,0,1,6.4-2.85,8.09,8.09,0,0,1,6,2.73Zm-10.43,9.46a6.66,6.66,0,0,0,1.46,4.45,4.81,4.81,0,0,0,3.79,1.74,5,5,0,0,0,4-1.68,7.25,7.25,0,0,0,0-8.83,5,5,0,0,0-3.91-1.7,4.85,4.85,0,0,0-3.79,1.72A6.35,6.35,0,0,0,950.93,512.71Z"/><path d="M975.87,507.36v14.92h-4.41V507.36h-1.57v-4.11h1.57v-7.34c0-2.4.41-4.09,1.25-5.08a6.12,6.12,0,0,1,5-2.07,8.56,8.56,0,0,1,2.95.69v4.49l-.45-.24a5.52,5.52,0,0,0-2.35-.72,1.58,1.58,0,0,0-1.58.84,8.15,8.15,0,0,0-.41,3.16v6.27h4.79v4.11Z"/><path d="M989.07,507.36v14.92h-4.41V507.36H983.1v-4.11h1.56v-7.34q0-3.6,1.25-5.08a6.13,6.13,0,0,1,5-2.07,8.56,8.56,0,0,1,3,.69v4.49l-.45-.24a5.53,5.53,0,0,0-2.34-.72,1.61,1.61,0,0,0-1.59.84,8.15,8.15,0,0,0-.41,3.16v6.27h4.79v4.11Z"/><path d="M1014.33,513.8H1000.7a5.72,5.72,0,0,0,1.52,3.73,4.66,4.66,0,0,0,3.46,1.37,4.5,4.5,0,0,0,2.71-.78,11.3,11.3,0,0,0,2.4-2.89l3.71,2.07a14.88,14.88,0,0,1-1.81,2.51,9.92,9.92,0,0,1-2.05,1.72,8.53,8.53,0,0,1-2.37,1,11.35,11.35,0,0,1-2.75.31,9,9,0,0,1-6.84-2.73,10.25,10.25,0,0,1-2.57-7.3,10.53,10.53,0,0,1,2.5-7.31,9.54,9.54,0,0,1,13.32-.08,10.56,10.56,0,0,1,2.42,7.37Zm-4.51-3.59a4.22,4.22,0,0,0-4.44-3.52,4.37,4.37,0,0,0-1.5.25,4.09,4.09,0,0,0-1.28.7,4.56,4.56,0,0,0-1,1.1,5.13,5.13,0,0,0-.62,1.47Z"/><path d="M1030.19,506.5l-3.64,1.93c-.57-1.17-1.28-1.76-2.12-1.76a1.5,1.5,0,0,0-1,.4,1.34,1.34,0,0,0-.43,1c0,.73.85,1.45,2.54,2.17a15.09,15.09,0,0,1,4.71,2.77,4.78,4.78,0,0,1,1.21,3.42,6,6,0,0,1-2,4.61,6.94,6.94,0,0,1-4.77,1.75q-4.78,0-6.78-4.66l3.75-1.74a8,8,0,0,0,1.2,1.74,2.72,2.72,0,0,0,1.91.74c1.48,0,2.23-.68,2.23-2,0-.78-.58-1.51-1.72-2.19-.45-.22-.89-.44-1.33-.64l-1.35-.65a8.16,8.16,0,0,1-2.69-1.87,4.61,4.61,0,0,1-1-3.07,5.44,5.44,0,0,1,1.7-4.1,6,6,0,0,1,4.22-1.62C1027.19,502.73,1029,504,1030.19,506.5Z"/><path d="M1047.71,503.25h4.39V505a9.61,9.61,0,0,1,2.17-1.8,5.34,5.34,0,0,1,2.4-.48,5.82,5.82,0,0,1,5.1,2.81,6.59,6.59,0,0,1,5.61-2.81q6.42,0,6.42,7.79v11.76h-4.41V511.71a8.08,8.08,0,0,0-.67-3.87,2.41,2.41,0,0,0-2.24-1.15,2.87,2.87,0,0,0-2.65,1.37,8.84,8.84,0,0,0-.83,4.39v9.83h-4.41V511.77q0-5.08-2.93-5.08a2.94,2.94,0,0,0-2.71,1.39,8.58,8.58,0,0,0-.85,4.37v9.83h-4.39Z"/><path d="M1096.67,513.8H1083a5.78,5.78,0,0,0,1.52,3.73,4.66,4.66,0,0,0,3.46,1.37,4.48,4.48,0,0,0,2.71-.78,11.1,11.1,0,0,0,2.41-2.89l3.71,2.07a15.48,15.48,0,0,1-1.82,2.51,9.92,9.92,0,0,1-2,1.72,8.6,8.6,0,0,1-2.36,1,11.49,11.49,0,0,1-2.76.31,9,9,0,0,1-6.83-2.73,10.25,10.25,0,0,1-2.58-7.3,10.53,10.53,0,0,1,2.5-7.31,9.54,9.54,0,0,1,13.32-.08,10.56,10.56,0,0,1,2.42,7.37Zm-4.51-3.59a4.21,4.21,0,0,0-4.43-3.52,4.39,4.39,0,0,0-1.51.25,4.21,4.21,0,0,0-1.28.7,4.32,4.32,0,0,0-1,1.1,5.14,5.14,0,0,0-.63,1.47Z"/><path d="M1115.5,489.29h4.41v33h-4.41v-2a8.2,8.2,0,0,1-5.88,2.53,8.37,8.37,0,0,1-6.48-2.85,10.58,10.58,0,0,1-2.56-7.26,10.23,10.23,0,0,1,2.56-7.11,8.22,8.22,0,0,1,12.36-.14Zm-10.43,23.42a6.62,6.62,0,0,0,1.47,4.45,4.78,4.78,0,0,0,3.78,1.74,5,5,0,0,0,4-1.68,7.25,7.25,0,0,0,0-8.83,5,5,0,0,0-3.91-1.7,4.85,4.85,0,0,0-3.79,1.72A6.35,6.35,0,0,0,1105.07,512.71Z"/><path d="M1142.36,507.36v14.92h-4.42V507.36h-1.56v-4.11h1.56v-7.34q0-3.6,1.25-5.08a6.13,6.13,0,0,1,5-2.07,8.52,8.52,0,0,1,3,.69v4.49l-.45-.24a5.53,5.53,0,0,0-2.34-.72,1.58,1.58,0,0,0-1.58.84,8,8,0,0,0-.41,3.16v6.27h4.78v4.11Z"/><path d="M1179.15,513.74h-13.71a6,6,0,0,0,1.6,3.75,4.59,4.59,0,0,0,3.44,1.41q3,0,5-3.81l3.79,2.11a13.45,13.45,0,0,1-1.35,2.09,7.85,7.85,0,0,1-1.56,1.5,10,10,0,0,1-6.07,2.05,9.56,9.56,0,0,1-6.9-3c-1.59,2-3.92,3-7,3a8.71,8.71,0,0,1-5.65-1.75,5.66,5.66,0,0,1-2.16-4.59,5.87,5.87,0,0,1,2.07-4.69,8.05,8.05,0,0,1,5.45-1.8,11,11,0,0,1,5,1.29c0-1.72-.36-2.92-1.08-3.59a5.26,5.26,0,0,0-3.67-1,19,19,0,0,0-5.08.72v-4.08a33.91,33.91,0,0,1,5.51-.58q4.65,0,6.68,2.67a8.79,8.79,0,0,1,6.64-2.67,8.7,8.7,0,0,1,6.66,2.67,10,10,0,0,1,2.5,7.09Zm-26.35,2.68a2.18,2.18,0,0,0,1.1,1.85,5,5,0,0,0,2.77.75,5.21,5.21,0,0,0,2.91-.77,2.27,2.27,0,0,0,1.17-1.93,2.1,2.1,0,0,0-1.21-1.76,5.47,5.47,0,0,0-2.91-.74,4.67,4.67,0,0,0-2.71.76A2.22,2.22,0,0,0,1152.8,516.42Zm21.74-6.23a4,4,0,0,0-4.27-3.5,4.35,4.35,0,0,0-4.54,3.5Z"/><path d="M1183.88,503.25h4.41V505a7.22,7.22,0,0,1,5.2-2.28,6.52,6.52,0,0,1,5.17,2.09c1.07,1.18,1.61,3.12,1.61,5.8v11.66h-4.42V511.65a7,7,0,0,0-.78-3.88,3.15,3.15,0,0,0-2.77-1.1,3.38,3.38,0,0,0-3.11,1.45q-.9,1.42-.9,5v9.18h-4.41Z"/><path d="M1224.21,521.83q0,1.35-.09,2.37a18.25,18.25,0,0,1-.24,1.81,8.05,8.05,0,0,1-1.84,3.69,8.9,8.9,0,0,1-7.09,3,9.5,9.5,0,0,1-6.27-2,8.41,8.41,0,0,1-2.93-5.84h4.42A5.08,5.08,0,0,0,1211,527a4.72,4.72,0,0,0,4,1.77q4.83,0,4.83-5.92v-2.65a8.23,8.23,0,0,1-6,2.67,8.1,8.1,0,0,1-6.37-2.81,10.46,10.46,0,0,1-2.5-7.13,11,11,0,0,1,2.33-7.07,8.1,8.1,0,0,1,6.6-3.08,7.68,7.68,0,0,1,6,2.67v-2.15h4.39Zm-4.22-9a6.41,6.41,0,0,0-1.48-4.43,4.94,4.94,0,0,0-3.85-1.7,4.74,4.74,0,0,0-4,1.86,6.73,6.73,0,0,0-1.3,4.29,6.66,6.66,0,0,0,1.3,4.26,5.21,5.21,0,0,0,7.93,0A6.51,6.51,0,0,0,1220,512.8Z"/><path d="M1240.81,506.5l-3.63,1.93c-.57-1.17-1.28-1.76-2.13-1.76a1.48,1.48,0,0,0-1,.4,1.34,1.34,0,0,0-.43,1c0,.73.84,1.45,2.53,2.17a15,15,0,0,1,4.71,2.77,4.73,4.73,0,0,1,1.21,3.42,6,6,0,0,1-2,4.61,6.9,6.9,0,0,1-4.76,1.75q-4.79,0-6.78-4.66l3.75-1.74a8.42,8.42,0,0,0,1.19,1.74,2.72,2.72,0,0,0,1.91.74c1.49,0,2.23-.68,2.23-2,0-.78-.57-1.51-1.72-2.19-.44-.22-.88-.44-1.33-.64l-1.34-.65a8.22,8.22,0,0,1-2.7-1.87,4.66,4.66,0,0,1-1-3.07,5.44,5.44,0,0,1,1.7-4.1,6,6,0,0,1,4.22-1.62C1237.82,502.73,1239.63,504,1240.81,506.5Z"/><path d="M1263.31,513.8h-13.63a5.78,5.78,0,0,0,1.52,3.73,4.66,4.66,0,0,0,3.46,1.37,4.53,4.53,0,0,0,2.72-.78,11.3,11.3,0,0,0,2.4-2.89l3.71,2.07a14.9,14.9,0,0,1-1.82,2.51,9.92,9.92,0,0,1-2.05,1.72,8.6,8.6,0,0,1-2.36,1,11.49,11.49,0,0,1-2.76.31,9,9,0,0,1-6.83-2.73,10.25,10.25,0,0,1-2.58-7.3,10.53,10.53,0,0,1,2.5-7.31,9.54,9.54,0,0,1,13.32-.08,10.56,10.56,0,0,1,2.42,7.37Zm-4.51-3.59a4.21,4.21,0,0,0-4.43-3.52,4.39,4.39,0,0,0-1.51.25,4.21,4.21,0,0,0-1.28.7,4.32,4.32,0,0,0-1,1.1,5.14,5.14,0,0,0-.63,1.47Z"/><path d="M1272.51,489.29v33h-4.39v-33Z"/><path d="M1279.23,520.09a2.7,2.7,0,0,1,4.63-1.89,2.61,2.61,0,0,1,.8,1.91,2.64,2.64,0,0,1-.8,1.93,2.6,2.6,0,0,1-1.91.78,2.67,2.67,0,0,1-2.72-2.73Zm.51-4.53V492.12h4.41v23.44Z"/><path d="M668.66,599.92h13v-11.8h4.55v30.16h-4.55V604.2h-13v14.08h-4.55V588.12h4.55Z"/><path d="M695,599.25l4.92,10.69,4.91-10.69h4.94l-9.88,20.34-9.81-20.34Z"/><path d="M711.05,608.63a9.42,9.42,0,0,1,3-7,10.4,10.4,0,0,1,14.41,0,9.69,9.69,0,0,1,2.93,7.15,9.59,9.59,0,0,1-3,7.16,10.06,10.06,0,0,1-7.28,2.87,9.62,9.62,0,0,1-7.17-2.93A9.81,9.81,0,0,1,711.05,608.63Zm4.49.08a6.44,6.44,0,0,0,1.52,4.51,5.92,5.92,0,0,0,8.24,0,7.12,7.12,0,0,0,0-8.87,5.84,5.84,0,0,0-8.2,0A6.13,6.13,0,0,0,715.54,608.71Z"/><path d="M736,599.25h4.39V601a8.86,8.86,0,0,1,2.15-1.74,5,5,0,0,1,2.27-.48,7,7,0,0,1,3.63,1.13l-2,4A4.21,4.21,0,0,0,744,603q-3.6,0-3.6,5.43v9.87H736Z"/><path d="M764.7,585.29h4.41v33H764.7v-2a8.2,8.2,0,0,1-5.88,2.53,8.36,8.36,0,0,1-6.48-2.85,10.58,10.58,0,0,1-2.56-7.26,10.23,10.23,0,0,1,2.56-7.11,8.22,8.22,0,0,1,12.36-.14Zm-10.43,23.42a6.66,6.66,0,0,0,1.46,4.45,4.81,4.81,0,0,0,3.79,1.74,5,5,0,0,0,4-1.68,7.25,7.25,0,0,0,0-8.83,5,5,0,0,0-3.91-1.7,4.85,4.85,0,0,0-3.79,1.72A6.35,6.35,0,0,0,754.27,608.71Z"/><path d="M788.68,599.25h4.42v19h-4.42v-2a8.45,8.45,0,0,1-12.36-.32,10.58,10.58,0,0,1-2.56-7.26,10.26,10.26,0,0,1,2.56-7.13,8.26,8.26,0,0,1,6.41-2.85,8.07,8.07,0,0,1,5.95,2.73Zm-10.43,9.46a6.62,6.62,0,0,0,1.47,4.45,4.78,4.78,0,0,0,3.79,1.74,5,5,0,0,0,3.94-1.68,7.21,7.21,0,0,0,0-8.83,5,5,0,0,0-3.9-1.7,4.84,4.84,0,0,0-3.79,1.72A6.31,6.31,0,0,0,778.25,608.71Z"/><path d="M798.64,599.25h4.42V601a7.2,7.2,0,0,1,5.19-2.28,6.54,6.54,0,0,1,5.18,2.09q1.61,1.77,1.6,5.8v11.66h-4.41V607.65a7,7,0,0,0-.78-3.88,3.17,3.17,0,0,0-2.78-1.1,3.37,3.37,0,0,0-3.1,1.45q-.9,1.43-.9,5v9.18h-4.42Z"/><path d="M835.29,599.25l4.92,10.69,4.9-10.69h4.94l-9.88,20.34-9.81-20.34Z"/><path d="M852.36,591.34a2.87,2.87,0,0,1,2.85-2.83,2.77,2.77,0,0,1,2,.84,2.71,2.71,0,0,1,.84,2,2.76,2.76,0,0,1-.84,2,2.67,2.67,0,0,1-2,.84,2.7,2.7,0,0,1-2-.84A2.78,2.78,0,0,1,852.36,591.34Zm5,7.91v19H853v-19Z"/><path d="M867.38,585.29v33H863v-33Z"/><path d="M877.34,585.29v33h-4.4v-33Z"/><path d="M900.23,609.8H886.59a5.78,5.78,0,0,0,1.53,3.73,4.65,4.65,0,0,0,3.45,1.37,4.51,4.51,0,0,0,2.72-.78,11.3,11.3,0,0,0,2.4-2.89l3.71,2.07a15.46,15.46,0,0,1-1.81,2.51,10.18,10.18,0,0,1-2.05,1.72,8.53,8.53,0,0,1-2.37,1,11.35,11.35,0,0,1-2.75.31,9,9,0,0,1-6.84-2.73,10.25,10.25,0,0,1-2.58-7.3,10.58,10.58,0,0,1,2.5-7.31,9.54,9.54,0,0,1,13.32-.08,10.52,10.52,0,0,1,2.43,7.37Zm-4.52-3.59a4.21,4.21,0,0,0-4.43-3.52,4.37,4.37,0,0,0-1.5.25,4.09,4.09,0,0,0-1.28.7,4.36,4.36,0,0,0-1,1.1,5.13,5.13,0,0,0-.62,1.47Z"/><path d="M931.4,585.29h4.41v33H931.4v-2a8.2,8.2,0,0,1-5.88,2.53A8.36,8.36,0,0,1,919,616a10.58,10.58,0,0,1-2.56-7.26A10.23,10.23,0,0,1,919,601.6a8.22,8.22,0,0,1,12.36-.14ZM921,608.71a6.66,6.66,0,0,0,1.46,4.45,4.81,4.81,0,0,0,3.79,1.74,5,5,0,0,0,3.95-1.68,7.25,7.25,0,0,0,0-8.83,5,5,0,0,0-3.91-1.7,4.85,4.85,0,0,0-3.79,1.72A6.35,6.35,0,0,0,921,608.71Z"/><path d="M945.75,599.25v10.92c0,3.15,1.25,4.73,3.73,4.73s3.73-1.58,3.73-4.73V599.25h4.4v11a12.14,12.14,0,0,1-.57,3.94,6.54,6.54,0,0,1-1.89,2.68,9.25,9.25,0,0,1-11.31,0,6.65,6.65,0,0,1-1.93-2.68,10.72,10.72,0,0,1-.55-3.94v-11Z"/><path d="M986.55,602.5l-3.63,1.93c-.57-1.17-1.28-1.76-2.13-1.76a1.48,1.48,0,0,0-1,.4,1.34,1.34,0,0,0-.43,1c0,.73.84,1.45,2.54,2.17a14.89,14.89,0,0,1,4.7,2.77,4.74,4.74,0,0,1,1.22,3.42,6,6,0,0,1-2,4.61,6.9,6.9,0,0,1-4.76,1.75q-4.79,0-6.78-4.66l3.75-1.74a8.42,8.42,0,0,0,1.19,1.74,2.75,2.75,0,0,0,1.92.74c1.48,0,2.22-.68,2.22-2,0-.78-.57-1.51-1.72-2.19-.44-.22-.88-.44-1.32-.64l-1.35-.65a8.22,8.22,0,0,1-2.7-1.87,4.66,4.66,0,0,1-1-3.07,5.4,5.4,0,0,1,1.7-4.1,6,6,0,0,1,4.21-1.62C983.56,598.73,985.37,600,986.55,602.5Z"/><path d="M1009.05,609.8H995.42a5.78,5.78,0,0,0,1.53,3.73,4.63,4.63,0,0,0,3.45,1.37,4.51,4.51,0,0,0,2.72-.78,11.3,11.3,0,0,0,2.4-2.89l3.71,2.07a14.9,14.9,0,0,1-1.82,2.51,9.66,9.66,0,0,1-2,1.72,8.47,8.47,0,0,1-2.36,1,11.41,11.41,0,0,1-2.75.31,9,9,0,0,1-6.84-2.73,10.25,10.25,0,0,1-2.58-7.3,10.58,10.58,0,0,1,2.5-7.31,9.54,9.54,0,0,1,13.32-.08c1.62,1.77,2.42,4.23,2.42,7.37Zm-4.51-3.59a4.21,4.21,0,0,0-4.43-3.52,4.33,4.33,0,0,0-1.5.25,4.09,4.09,0,0,0-1.28.7,4.18,4.18,0,0,0-1,1.1,5.44,5.44,0,0,0-.63,1.47Z"/><path d="M1018.25,585.29v33h-4.39v-33Z"/><path d="M1026.54,599.25l4.92,10.69,4.9-10.69h4.94l-9.88,20.34-9.81-20.34Z"/><path d="M1056.61,585.29h4.4v15.55a7.55,7.55,0,0,1,5.17-2.11,6.67,6.67,0,0,1,5.16,2.09q1.64,1.81,1.64,5.8v11.66h-4.39V607a5.34,5.34,0,0,0-.81-3.31,3.11,3.11,0,0,0-2.61-1,3.58,3.58,0,0,0-3.24,1.43c-.62,1-.92,2.61-.92,5v9.2h-4.4Z"/><path d="M1092.57,599.25H1097v19h-4.41v-2a8.45,8.45,0,0,1-12.36-.32,10.58,10.58,0,0,1-2.56-7.26,10.26,10.26,0,0,1,2.56-7.13,8.24,8.24,0,0,1,6.4-2.85,8.09,8.09,0,0,1,6,2.73Zm-10.43,9.46a6.62,6.62,0,0,0,1.47,4.45,4.78,4.78,0,0,0,3.78,1.74,5,5,0,0,0,3.95-1.68,7.25,7.25,0,0,0,0-8.83,5,5,0,0,0-3.91-1.7,4.85,4.85,0,0,0-3.79,1.72A6.35,6.35,0,0,0,1082.14,608.71Z"/><path d="M1105.25,599.25l4.92,10.69,4.9-10.69H1120l-9.88,20.34-9.81-20.34Z"/><path d="M1139.62,609.8H1126a5.78,5.78,0,0,0,1.52,3.73,4.66,4.66,0,0,0,3.46,1.37,4.48,4.48,0,0,0,2.71-.78,11.1,11.1,0,0,0,2.41-2.89l3.71,2.07a15.48,15.48,0,0,1-1.82,2.51,9.92,9.92,0,0,1-2,1.72,8.6,8.6,0,0,1-2.36,1,11.49,11.49,0,0,1-2.76.31,9,9,0,0,1-6.83-2.73,10.25,10.25,0,0,1-2.58-7.3,10.53,10.53,0,0,1,2.5-7.31,9.54,9.54,0,0,1,13.32-.08,10.56,10.56,0,0,1,2.42,7.37Zm-4.51-3.59a4.21,4.21,0,0,0-4.43-3.52,4.39,4.39,0,0,0-1.51.25,4.21,4.21,0,0,0-1.28.7,4.32,4.32,0,0,0-1,1.1,4.88,4.88,0,0,0-.63,1.47Z"/><path d="M677.3,633.29h4.41v33H677.3v-2a8.2,8.2,0,0,1-5.88,2.53,8.38,8.38,0,0,1-6.49-2.85,10.62,10.62,0,0,1-2.55-7.26,10.27,10.27,0,0,1,2.55-7.11,8.23,8.23,0,0,1,12.37-.14Zm-10.43,23.42a6.66,6.66,0,0,0,1.46,4.45,4.8,4.8,0,0,0,3.79,1.74,5.06,5.06,0,0,0,4-1.68,7.25,7.25,0,0,0,0-8.83,5,5,0,0,0-3.91-1.7,4.85,4.85,0,0,0-3.79,1.72A6.35,6.35,0,0,0,666.87,656.71Z"/><path d="M704.58,657.8H691a5.78,5.78,0,0,0,1.52,3.73,4.66,4.66,0,0,0,3.46,1.37,4.48,4.48,0,0,0,2.71-.78,11.1,11.1,0,0,0,2.41-2.89l3.71,2.07a15.48,15.48,0,0,1-1.82,2.51,9.92,9.92,0,0,1-2.05,1.72,8.6,8.6,0,0,1-2.36,1,11.49,11.49,0,0,1-2.76.31,9,9,0,0,1-6.83-2.73,10.25,10.25,0,0,1-2.58-7.3,10.53,10.53,0,0,1,2.5-7.31,9.54,9.54,0,0,1,13.32-.08,10.56,10.56,0,0,1,2.42,7.37Zm-4.51-3.59a4.21,4.21,0,0,0-4.43-3.52,4.39,4.39,0,0,0-1.51.25,4.21,4.21,0,0,0-1.28.7,4.32,4.32,0,0,0-1,1.1,5.14,5.14,0,0,0-.63,1.47Z"/><path d="M714.27,651.36v14.92h-4.39V651.36H708v-4.11h1.88v-7h4.39v7h3.42v4.11Z"/><path d="M733,647.25h4.39V649a9.61,9.61,0,0,1,2.17-1.8,5.34,5.34,0,0,1,2.4-.48,5.82,5.82,0,0,1,5.1,2.81,6.59,6.59,0,0,1,5.61-2.81q6.42,0,6.42,7.79v11.76H754.7V655.71a8.23,8.23,0,0,0-.66-3.87,2.43,2.43,0,0,0-2.25-1.15,2.88,2.88,0,0,0-2.65,1.37,8.81,8.81,0,0,0-.83,4.39v9.83H743.9V655.77q0-5.09-2.93-5.08a2.94,2.94,0,0,0-2.71,1.39,8.69,8.69,0,0,0-.85,4.37v9.83H733Z"/><path d="M782,657.8H768.35a5.78,5.78,0,0,0,1.53,3.73,4.63,4.63,0,0,0,3.45,1.37,4.51,4.51,0,0,0,2.72-.78,11.3,11.3,0,0,0,2.4-2.89l3.71,2.07a14.9,14.9,0,0,1-1.82,2.51,9.66,9.66,0,0,1-2.05,1.72,8.47,8.47,0,0,1-2.36,1,11.41,11.41,0,0,1-2.75.31,9,9,0,0,1-6.84-2.73,10.25,10.25,0,0,1-2.58-7.3,10.53,10.53,0,0,1,2.5-7.31,9.54,9.54,0,0,1,13.32-.08c1.62,1.77,2.42,4.23,2.42,7.37Zm-4.51-3.59a4.21,4.21,0,0,0-4.43-3.52,4.29,4.29,0,0,0-1.5.25,4.09,4.09,0,0,0-1.28.7,4.18,4.18,0,0,0-1,1.1,5.44,5.44,0,0,0-.63,1.47Z"/><path d="M800.81,633.29h4.42v33h-4.42v-2a8.2,8.2,0,0,1-5.88,2.53,8.37,8.37,0,0,1-6.48-2.85,10.58,10.58,0,0,1-2.56-7.26,10.23,10.23,0,0,1,2.56-7.11,8.22,8.22,0,0,1,12.36-.14Zm-10.43,23.42a6.62,6.62,0,0,0,1.47,4.45,4.78,4.78,0,0,0,3.79,1.74,5,5,0,0,0,3.94-1.68,7.21,7.21,0,0,0,0-8.83,5,5,0,0,0-3.9-1.7,4.84,4.84,0,0,0-3.79,1.72A6.31,6.31,0,0,0,790.38,656.71Z"/><path d="M837.14,633.29h4.41v33h-4.41v-2a8.2,8.2,0,0,1-5.88,2.53,8.37,8.37,0,0,1-6.48-2.85,10.58,10.58,0,0,1-2.56-7.26,10.23,10.23,0,0,1,2.56-7.11,8.22,8.22,0,0,1,12.36-.14Zm-10.43,23.42a6.62,6.62,0,0,0,1.47,4.45A4.78,4.78,0,0,0,832,662.9a5,5,0,0,0,3.95-1.68,7.25,7.25,0,0,0,0-8.83,5,5,0,0,0-3.91-1.7,4.85,4.85,0,0,0-3.79,1.72A6.35,6.35,0,0,0,826.71,656.71Z"/><path d="M864.43,657.8H850.79a5.78,5.78,0,0,0,1.53,3.73,4.63,4.63,0,0,0,3.45,1.37,4.51,4.51,0,0,0,2.72-.78,11.3,11.3,0,0,0,2.4-2.89l3.71,2.07a15.46,15.46,0,0,1-1.81,2.51,10,10,0,0,1-2.06,1.72,8.47,8.47,0,0,1-2.36,1,11.41,11.41,0,0,1-2.75.31,9,9,0,0,1-6.84-2.73,10.25,10.25,0,0,1-2.58-7.3,10.58,10.58,0,0,1,2.5-7.31A9.54,9.54,0,0,1,862,649.4a10.52,10.52,0,0,1,2.43,7.37Zm-4.52-3.59a4.21,4.21,0,0,0-4.43-3.52,4.37,4.37,0,0,0-1.5.25,4.09,4.09,0,0,0-1.28.7,4.18,4.18,0,0,0-1,1.1,5.13,5.13,0,0,0-.62,1.47Z"/><path d="M874.11,651.36v14.92h-4.39V651.36h-1.88v-4.11h1.88v-7h4.39v7h3.42v4.11Z"/><path d="M889.84,652.2h4.41a7,7,0,0,1-1.58,4.78,6.64,6.64,0,0,1-5.26,2.36,6.29,6.29,0,0,1-4.7-2,6.64,6.64,0,0,1-1.92-4.82,5.37,5.37,0,0,1,1.19-3.64,9.87,9.87,0,0,1,4.11-2.42,14.38,14.38,0,0,0,3.63-1.7,2.43,2.43,0,0,0,.78-2,2.86,2.86,0,0,0-.81-2.14,3.35,3.35,0,0,0-4.31,0,2.85,2.85,0,0,0-.8,2.13,8.32,8.32,0,0,0,.24,1.68h-4.55c0-.34,0-.64-.07-.9s0-.49,0-.7a6.88,6.88,0,0,1,2.09-5.14,7.11,7.11,0,0,1,5.23-2,7.3,7.3,0,0,1,5.31,2.07,6.93,6.93,0,0,1,2.13,5.18,6.63,6.63,0,0,1-2.13,5.13,14.11,14.11,0,0,1-5.07,2.39c-1.7.52-2.54,1.34-2.54,2.46a2.25,2.25,0,0,0,.18.89,2.49,2.49,0,0,0,.5.73,2.29,2.29,0,0,0,.73.49,2.43,2.43,0,0,0,.89.17C888.92,655.2,889.71,654.2,889.84,652.2Zm-5,11.89a2.55,2.55,0,0,1,.8-1.89,2.72,2.72,0,0,1,4.63,1.91,2.61,2.61,0,0,1-.81,1.93,2.57,2.57,0,0,1-1.89.78,2.7,2.7,0,0,1-2.73-2.73Z"/></svg>
