<svg id="Levelcomplete" xmlns="http://www.w3.org/2000/svg" width="240" height="300" viewBox="0 0 240 300"><defs><style>.cls-1{fill:#f4912d;}.cls-2{fill:#e9eced;}.cls-3{fill:#f94eb8;}.cls-4{fill:#963496;}.cls-5{fill:#525454;}</style></defs><title>godtbillede1</title><path class="cls-1" d="M225.7894,13H15.2106C11.2283,13,8,18.072,8,24.3285v208.43c0,6.2566,3.2283,11.3286,7.2106,11.3286H49.98V278.75l39.4549-34.663H225.7894c3.9823,0,7.2106-5.072,7.2106-11.3286V24.3285C233,18.072,229.7717,13,225.7894,13Z"/><rect class="cls-2" x="16" y="34" width="209" height="148" rx="12"/><polygon class="cls-3" points="195.349 162 46.013 162 46.013 86.329 195.349 85.998 195.349 162"/><path class="cls-4" d="M198.6833,84.3019c2.023,1.1146.5863,3.027-2.283,3.0389l-76.1074.56-76.1064.3153c-2.8693.0119-4.3218-1.8885-2.3081-3.02l36.3945-20.447L117.8094,42.537a5.259,5.259,0,0,1,4.591-.019L162.12,64.4019Z"/><rect class="cls-5" x="61.5687" y="108.6655" width="4.4445" height="53.3345" rx="2.2223"/><rect class="cls-5" x="92.236" y="108.6655" width="4.4445" height="53.3345" rx="2.2223"/><rect class="cls-5" x="62.0132" y="108.6655" width="34.6674" height="4.889" rx="2.4445"/><circle class="cls-5" cx="87.5693" cy="135.9994" r="2"/><rect class="cls-5" x="114.0143" y="124.2214" width="34.6674" height="3.5556" rx="1.7778" transform="translate(257.3472 -5.3488) rotate(90)"/><rect class="cls-5" x="146.4594" y="110.8878" width="1.3334" height="31.5562" rx="0.6667"/><rect class="cls-5" x="146.4594" y="110.4433" width="1.3334" height="31.5562" rx="0.6667" transform="translate(273.3476 -20.9047) rotate(90)"/><rect class="cls-5" x="145.1261" y="124.2214" width="34.6674" height="3.5556" rx="1.7778" transform="translate(288.459 -36.4606) rotate(90)"/><rect class="cls-5" x="129.5702" y="108.6655" width="34.6674" height="3.5556" rx="1.7778" transform="translate(293.8078 220.8866) rotate(180)"/><rect class="cls-5" x="129.5702" y="139.7773" width="34.6674" height="3.5556" rx="1.7778" transform="translate(293.8078 283.1102) rotate(180)"/></svg>
