<svg xmlns="http://www.w3.org/2000/svg" width="100" height="83" viewBox="0 0 100 83"><defs><style>.cls-1{fill:#e9e9e9;}</style></defs><title>hjerte</title><g id="Levelcompletetekst"><path class="cls-1" d="M41.49,76.49c0,.1.19.2.27.05l-.17-.31Z"/><path class="cls-1" d="M42.69,76c0-.25-.06-.61-.38-.71.12.35,0,.3.14.71a.21.21,0,0,1-.35,0c0,.1-.22.15-.13.35a.53.53,0,0,0,.56-.55C42.62,75.89,42.65,76,42.69,76Z"/><path class="cls-1" d="M53.52,63.82l-.1.06A.21.21,0,0,0,53.52,63.82Z"/><path class="cls-1" d="M59.75,55.82c0,.07,0,.11,0,.13S59.78,55.82,59.75,55.82Z"/><path class="cls-1" d="M61,54.61l-.08.07S61.05,54.64,61,54.61Z"/><path class="cls-1" d="M53.52,63.82l.25-.15C53.69,63.59,53.62,63.73,53.52,63.82Z"/><path class="cls-1" d="M43.55,73.82a.3.3,0,0,0,0,.16l.06-.12Z"/><path class="cls-1" d="M50.94,67.47l-.06.07a.83.83,0,0,0,.07.13Z"/><path class="cls-1" d="M48.8,70.15c.05-.05-.14-.25-.22-.35a.27.27,0,0,1,0,.25A.5.5,0,0,0,48.8,70.15Z"/><path class="cls-1" d="M44.91,74l0,.1Z"/><path class="cls-1" d="M52.53,65.6l.09,0A.25.25,0,0,0,52.53,65.6Z"/><path class="cls-1" d="M52,28.48h0S52,28.51,52,28.48Z"/><path class="cls-1" d="M50.72,32.38l0-.06h-.16Z"/><path class="cls-1" d="M63.13,52.18h0C63.1,52.28,63.12,52.24,63.13,52.18Z"/><path class="cls-1" d="M74.93,25.37c-.3.29-.23-.59-.59-.14C74.46,25.2,74.7,25.75,74.93,25.37Z"/><path class="cls-1" d="M43.63,73.77l.09-.1Z"/><path class="cls-1" d="M74.34,25.23h0l0,0Z"/><path class="cls-1" d="M66.9,45.87a.38.38,0,0,0-.15,0A.27.27,0,0,0,66.9,45.87Z"/><path class="cls-1" d="M63.68,50.31l.1-.09A.3.3,0,0,0,63.68,50.31Z"/><path class="cls-1" d="M68,43.21c.05-.06.1-.06.12-.17h0C68.05,43.1,68,43.15,68,43.21Z"/><path class="cls-1" d="M69.34,40.59l-.07,0,0,.09Z"/><path class="cls-1" d="M53.86,20.31a.89.89,0,0,1-.28,0C53.78,20.36,53.68,20.77,53.86,20.31Z"/><path class="cls-1" d="M43.67,73.92a.18.18,0,0,1,0-.15l-.05.09S43.64,73.92,43.67,73.92Z"/><path class="cls-1" d="M66.07,42l.26-.38A1.68,1.68,0,0,0,66.07,42Z"/><path class="cls-1" d="M68.35,9l-.09,0A.07.07,0,0,0,68.35,9Z"/><path class="cls-1" d="M66.92,40.43a.56.56,0,0,0,.3-.14l0-.08Z"/><path class="cls-1" d="M53.57,20.32h0Z"/><path class="cls-1" d="M53.18,23.27c.13-.39-.29-.29-.46-.44.06-.51.33-.13.57-.24,0-.32-.24-.66-.15-.88.07,0,.1,0,.16,0-.16-.41.36-.91.17-1.42h.1a1.23,1.23,0,0,1-.48-.15c.07-.18-.07-.43.18-.39-.06.1,0,.15.07.23v-.23c.39,0,0,.3.22.41.06-.4,0-.94.24-1.17.33.1-.21.69.24.46l-.33.36c.64-.09-.16.23.51.19.35-.49.14-.68.5-1.17-.1-.2-.27-.09-.37-.3.15-.92,1.08-.15,1-.93-.11-.26-.43-.54,0-.79l.23.34c.36-.46-.27-.59.29-1,.06.18-.15.46-.07.41.47-.15,0-.36.16-.61l.31.15a19,19,0,0,1,1-1.78c0,.09.05.25.23.2a5,5,0,0,1,2-1.72l0-.43c.06,0,.2,0,.17.11.32-.12-.11-.15-.06-.34s.3,0,.26.11a2.83,2.83,0,0,1,1.66-1.52l0,.14c.45-.15.12-.8.64-.79l-.05.09c.93-.41,1.87-1.11,2.73-.91,0-.46,1-.06.9-.64.6.2.47.31,1.21.45.19,0,.28-.38.54-.43V9l.35-.3c0,.12.09.25.13.38l.22,0a.23.23,0,0,1-.13-.25c.39-.09.78.4.73.55a4.51,4.51,0,0,1,.81.07c-.07.1-.21.08-.33.1.51-.09-.08.32.38.24,0-.09.11-.14.15-.19.07.26.41.49.7.67l-.19.11a7.28,7.28,0,0,1,1.21,1.46c0-.26.32-.4.45-.22l-.24.23c.24,0,0-.26.35-.12.09.28-.25.33-.41.24l.24.25c-.08.06-.16,0-.28,0,.25,0-.09.63.3.69l-.08.05c.23.68.42,1,.57,1.58.28-.05.26.2.52.35a11.13,11.13,0,0,0-.09,1.58c.17.39.25.09.43.26-.26.05-.19.62-.4.34a14.82,14.82,0,0,0,.35,1.74c.1-.1.15-.21.24-.15s-.11.36-.23.34l0,0c.42,1-.79,2.24-.3,3l0,0c.08.27.13.55.2.83-.09.37-.17-.24-.36,0,.33.91-.2,1.36,0,2.11-.42.22-.49.7-.53,1.22a2.43,2.43,0,0,1-.42,1.38H72c.13.23-.15.2-.22.33.14,0,.2-.16.27,0a15.71,15.71,0,0,1-1.88,4.76c-.25.57.75.65.08,1.24L70,33.53c-.08,1.32-1,2.38-1.17,3.64,0-.1-.13-.14-.08-.25-.33.14-.4.87-.23,1-.11.17-.18,0-.32,0s0,.73-.29.75c0,0,0-.1,0-.15,0,.2-.38.7-.06.67-.32.37-.28.86-.6,1.11.16.36-.5.64-.15.92-.38-.24-.7.55-.66.91-.08-.16-.25.15-.36,0-.16.3-.24.61,0,.67-.77.28-.24,1.31-1,1.26a18.51,18.51,0,0,1-1,2.7c-.37-.26.48-.88.06-1.09-.29.83-.21,1.46-.77,2.12-.17.15-.1-.21-.12-.31-.31.82-.92,1.38-1.14,2.15,0,0,0-.12,0-.2-.07.13-.25.25-.07.35l0-.15c.38,0,.19.84.31,1-.35-.54-.54.55-.94-.2a.28.28,0,0,0,.12.32c-.12.1-.21.1-.26-.12-.2.52.09.48-.19.88-.08-.06-.06-.16-.13-.27a1,1,0,0,1-.26.93c0-.06-.12-.06,0-.16-.38.6-.26,1.3-.86,1.83-.22-.44-.27.14-.6,0l-.15.4.25,0c-.22.3-.18.72-.46.91l0-.31-.34.6.34-.24c-.06.42.41.24,0,.58,0-.1-.22.3-.51.33h0a.7.7,0,0,1-.25.61c-.14,0-.31-.29-.4-.3.15.33-.43.75-.3,1.13a.36.36,0,0,0-.22-.23l.12.27c-.17.09-.22.08-.33,0-.34.39.48.15,0,.52,0,0,0-.06,0-.16-.45.43-.57,1-1,1.42-.4-.09.22-.44-.15-.48a13,13,0,0,1-1.19,2.18l.12-.09c.35.41-.57.3-.61.77,0-.1-.15-.28-.12-.23A6,6,0,0,0,53,63L53,62.85c-.29.17-.57.61-.83.84,0,.17-.09.31.14.34-1.27.34-.94,1.83-2,2.15.07-.09.08-.28,0-.21l-.41.69c.22.1.18,0,.42,0a.67.67,0,0,1-.14.56c.11-.38-.29-.24-.49-.2.07,0,.1.12.16.15-.58.07.32.35-.25.62l-.08-.1c-.08.2-.09.46-.26.61-.27-.1.05-.25-.11-.41-.2.26,0,.82-.41.87,0-.15.16-.3.19-.46a.73.73,0,0,0-.6.28l0,0-.46.33.16,0c.28.76-.43.72-.43,1.42,0-.68-.13-.22-.34-.45-.15,0-.36.16-.39,0,0,.36-.42.21-.38.72-.09,0-.19.2-.34,0-.15.3.18,0,.26.15-.08.61-1.09.66-1.22,1.52-.27.61-.1.91-.36,1.47-.25,0-.16-.36-.16-.36a1.06,1.06,0,0,0-.57.66c0-.1-.12-.1-.27-.1-.14.2.17.35-.15.51a1.4,1.4,0,0,1-.14-.45c-.12.28-.17.62-.29.9-.18,0-.08-.31-.1-.46-.16.31-.45.76-.31,1l.21-.1c-.07.1-.22-.1-.19-.2,0-.35.34-.25.42-.2l-.09.2c.58.21.49-.71.79-1l.2.41,0-.56c.15,0,.37.1.28.31.35-.1.06-.31.4-.36,0,0,.06,0,0,.06l.1-.31c0,.1.26.15.09.25.54-.25.33-.86.7-.81v0c.38-.66-.19-.25-.1-.91l.82.2-.18-.25c.06,0,.17-.15.25,0,0-.36-.14-.05-.18-.31.45-.1.56-.86,1-.61-.09-.25-.36.15-.23-.25.47.25.23-.41.63-.52.14.26-.18.41.22.31-.21-.45.51-.44.62-.72-.27-.24.28-.58.49-1,.08.1.74-.57,1.12-.83l0,0c-.23-.3.11-.61.26-.92a.39.39,0,0,1,.16.45l.19-.24A.53.53,0,0,1,51,67.1l.16.24c.26-.34.29-.86.77-1.17-.18-.18-.83-.11-.6-.66.12.07.31.2.27.35,0,0,0-.2.12-.24l0,.32c.24-.13-.07-.22.07-.36.15.12.2,0,.31.09s-.18.09-.16.19a.9.9,0,0,1,.6-.26.23.23,0,0,1-.13-.31c.25-.33.27,0,.51-.09,0-.16.23-.28,0-.47.08-.1.2,0,.3,0,0-.25.59-.82.2-.82l0,0v0h0c.21-.74,1-1.05,1.37-1.69l.08.06c.17-.4.52-.78.54-1.15.07-.1.32-.13.38,0,.13-.3.07-.4.48-.67-.06.36.19,0-.1.34.32-.29.5-.27.56-.79.11.28.44-.06.5-.26l-.32.12a2.07,2.07,0,0,1,.38-.49l.2.29c.84-.45.36-1.66,1.3-1.78-.06-.32-.41.28-.51-.05.27-.29.9-.34,1-.44.47-.34-.1-.7.33-1.08-.14,0-.43-.14-.28-.55s.69-.11.62.15c0,.08-.1.1-.13.07,0,.13-.1.3.1.25l-.07-.11c.22-.09.52-.55.6-.33.08-.31-.08-.22-.26-.07.43-.32.46-.65.85-1-.1,0-.26,0-.21,0,.56-.55,0-.41.26-.86.32-.14.3.33.47-.19.28-.19.3.13.3.29.08-.53.63-.66.82-.86l-.07.26a1.1,1.1,0,0,1,.18-.36h-.27c.11-.1.18-.21.26-.15,0-.21-.39-.12-.4-.49.21-.09.23-.57.53-.45-.43.46.3.12.05.58a.69.69,0,0,1,.21-.3s0,0,0,.09c.56-.34-.15-.42.19-.93a.24.24,0,0,0,.39,0c-.14.21-.32-.06-.31-.33.34-.25.15-.41.28-.57l-.18.16c-.11-.16,0-.31.12-.57.13.05-.06.26.05.21-.1-.42.64-.41.69-.88.21-.1.29.17.45.06.06-.52.49-.3.59-.83-.28,0-.24,0-.25-.37l-.3.78v-.63c-.13.21-.15.52-.27.63,0-.32,0-.26-.22-.27.48-.1.18-.68.59-.88l.5.32c.53-.37.29-1,.81-1.63l-.21.16c-.15-.21.22-.42.26-.69.16.12.3,0,.45,0-.13-.07.3-.48,0-.74l.4-.17c.41-.48-.13-.89.21-1.37.1.26.36.09.3.52.09-.18.21-.32.09-.39.17,0,0-.61.29-.68,0-.11-.2-.24-.08-.42a.11.11,0,0,1,.08,0c-.08,0,.06-.36-.23-.3.83-.24.75-1.53,1.47-1.76a12.71,12.71,0,0,1,.46-1.28c0,.05.09.05,0,.11.41-.41-.36-.55.09-1,.42-.16,0,.37.21.24.63.2.23-.72.74-.94v.11c.33-.21.1-.81.34-1.27a.19.19,0,0,0,.09,0A3.21,3.21,0,0,1,71.32,35c.17.24,0,.26.31.27.05-.22-.41-.1-.31-.54.19-.08.41-.34.69-.28l-.14.4c.42-.07.18-.52.32-.7l.13.08c.18-.63-.19-.77.08-1.42l-.14,0c-.24-.48.31-.23.16-.68h.41a6.92,6.92,0,0,1,0-1.4A4,4,0,0,1,73.05,32c.08-.24.23-.82.08-1,0,.11.06.26,0,.33A1.69,1.69,0,0,1,73,30.05c.71.29.53-1.19,1.19-1.4-.09-.94.54-1.69.65-2.73-.65.25,0-.31-.58-.35,0-.24,0-.33.07-.34l.48-.66c.21-.15.1.24.24.24.13-.52.29-.18.49-.51-.22,0-.29-.23-.17-.52l-.33.39c-.24-.78.59-.58.35-1.36l.16.25c0-.39.13-1.43-.35-1.83.08-.07.25-.15.28,0,.15-.92-.48-2.05-.18-2.77l.15.07c0-.17-.28-.29-.14-.51.07,0,.16.06.16,0s-.29-.44-.22-.67l.18.18c.12-.92-.49-1.34-.69-2.08.44,0,.47-.79.47-1.17h.06A6.61,6.61,0,0,0,74,11.66a2.27,2.27,0,0,0-.38-1.46c-.3-.55-.72-1.08-1-1.59.06.18-.27.22-.44.12-.12-.26-.72-.23-.44-.52l.07.06c.1-.43-.42-.69-.8-.91l-.32.43A2,2,0,0,0,69,6.9c-.66-.06-1.22,0-1.5-.35-.26.14-.58.12-.82.28V6.55a4.77,4.77,0,0,0-1.9.28l.13-.24c-.49.11-.37.94-.76,1.09l-.26-.36c-.76.27-1.68.29-2.2,1a.21.21,0,0,1,.05-.26c-.35.16-1.43.51-1,.93-.22-.32-.69.44-.93.81l-.11-.26c-.08.5,0,.57-.36.95-.11.05-.22-.11-.06-.15-.39.13-.06.4-.52.58l0-.25c-.32.24-.23.3-.26.59s-.61.45-.83.31a.46.46,0,0,1-.16.56.17.17,0,0,1-.06-.2c-.63.33-.48.92-1,1.07a.24.24,0,0,0-.18,0,4.19,4.19,0,0,1,.66-.65c-.18-.18-.53.1-.53-.39-.12.38-.19,1.12-.57,1.35l-.1,0V13.2a.33.33,0,0,0-.15.22,1.11,1.11,0,0,0-.29.22c-.19-.09-.39.32-.54.49.23.16,0,.35.37.29,0,0,0-.05.08-.17a.47.47,0,0,0,0-.09v0l.32-.43c0,.23,0,.44-.28.53.07.2.15.4.18.51-.49,0-1,.31-1.25.24-.24.64-.8,1.34-.54,2,0,.19-.24.1-.34.12s.08-.22,0-.31c-.07.39-.51,1-.23,1.23-.35.33-.18-.4-.42.2l-.06-.13c-1.11.89,0,2.22-1.22,3.23.07-.07.11-.11.17-.11-.88,1.4-.66,3.18-1.44,4.62-.17.43.06.51.2.8l-.31.06.29.5c.18.66-.82,1.09-.39,2l.21-.1c0,.3.13.94-.1.89,0,0,.21.1.1.22H50c.1.24.17.48.29.72-.07.57-.64-.05-.59.79.09.32.54.84.63.71s.07-.33.23-.35l.1.26c.47,0,1,.13,1.23-.54l-.33-.43.21-.16,0,.38c.2-.24,0-.35-.15-.5a.38.38,0,0,0,.24-.2,4.69,4.69,0,0,1-.47-.42c.18-.06.36.19.46-.11-.21-.2-.4.21-.54-.13.2-.22.38-.16.19-.41a.19.19,0,0,1,.25.11c-.14-.22-.07-.59-.32-.71.27-.22,0-.77.42-.72a1.09,1.09,0,0,1-.33-.63c.48.42.09-.77.66-.61-.43-.32-.11-1-.26-1.54,0,0,.1.1.07.14.09-.27.25-.32.37-.48-.38-.11-.38-.55-.57-.84.45-.25.4.31.78.28-.32-.05-.16-.64-.45-.6.3-.19.17-.19.52-.23-.46-.17,0-.26-.25-.55.33-.3.46,0,.44-.4C53.13,22.88,53.17,23.27,53.18,23.27Zm4-8.94h0l-.13.16Zm.56-.63a2.12,2.12,0,0,0-.26.26c-.09,0-.14-.13-.08-.19S57.63,13.73,57.78,13.7Zm-2.69.11c.06-.14.13-.14.19-.12l-.13.22,0,0A.34.34,0,0,1,55.09,13.81Z"/><path class="cls-1" d="M55.22,14.25l0,.05.1,0,0-.1Z"/><path class="cls-1" d="M53.41,63.89h0Z"/><polygon class="cls-1" points="67.56 9.09 67.56 9.02 67.49 9.07 67.56 9.09"/><path class="cls-1" d="M49.65,67a.1.1,0,0,0-.09,0Z"/><path class="cls-1" d="M48.29,68.58l-.26.16A2.11,2.11,0,0,0,48.29,68.58Z"/><path class="cls-1" d="M47.17,69.71a.29.29,0,0,0,.07.1h0Z"/><path class="cls-1" d="M62,49.38a.14.14,0,0,0,0-.06C62.1,49.17,62.06,49.26,62,49.38Z"/><path class="cls-1" d="M58.35,55.94a1.27,1.27,0,0,1,0-.28C58.29,55.76,58.22,55.84,58.35,55.94Z"/><polygon class="cls-1" points="66.04 42.08 66.05 42.08 66.07 42.04 66.04 42.08"/><path class="cls-1" d="M58.59,55.38a.43.43,0,0,0-.21.28A.65.65,0,0,0,58.59,55.38Z"/><path class="cls-1" d="M42.6,74.87l-.05,0,0,0Z"/><path class="cls-1" d="M42.57,75l0,.09S42.59,75,42.57,75Z"/><path class="cls-1" d="M42.48,75.23l.06-.18A.17.17,0,0,0,42.48,75.23Z"/><path class="cls-1" d="M44.08,73.36,44,73.28A.23.23,0,0,0,44.08,73.36Z"/><path class="cls-1" d="M44.47,72.86c-.12.1-.41.15-.5.35l0,.07C44,73.1,44.51,73.08,44.47,72.86Z"/><path class="cls-1" d="M47.16,71.64l-.41.35c.15,0,.34,0,.2.21C47.63,71.89,46.67,72.15,47.16,71.64Z"/><path class="cls-1" d="M48.35,70.46c-.14.25.13.1.16.15C48.56,70.41,48.56,70.36,48.35,70.46Z"/><path class="cls-1" d="M55.89,61.05l.19.18C56.18,61,56,61.17,55.89,61.05Z"/><polygon class="cls-1" points="56.22 58.42 55.96 58.5 56.09 58.72 56.22 58.42"/><polygon class="cls-1" points="58.49 58.41 58.46 58.51 58.61 58.15 58.49 58.41"/><path class="cls-1" d="M69.32,41.17,69,41.09C69,41.25,69.29,41.44,69.32,41.17Z"/><path class="cls-1" d="M72.54,32.93c.18,0,.36-.24.26-.43C72.72,32.68,72.53,32.83,72.54,32.93Z"/><path class="cls-1" d="M70.37,7.19h.24a2,2,0,0,0-.41-.09Z"/><path class="cls-1" d="M44.62,74c.11,0,.26-.12.14-.24l-.34.08Z"/><path class="cls-1" d="M44.6,72.74a.69.69,0,0,0-.79.14c.37,0,.28.1.71.08a.2.2,0,0,1-.07.33c.1,0,.07.25.29.22a.49.49,0,0,0-.34-.67C44.44,72.75,44.54,72.76,44.6,72.74Z"/><path class="cls-1" d="M37.29,59v.11A.14.14,0,0,0,37.29,59Z"/><path class="cls-1" d="M33.2,50.24c0,.06.08.08.11.07S33.22,50.21,33.2,50.24Z"/><path class="cls-1" d="M32.88,48.59l0,.1S32.91,48.6,32.88,48.59Z"/><path class="cls-1" d="M37.29,59l0-.27C37.16,58.71,37.25,58.83,37.29,59Z"/><path class="cls-1" d="M42.81,71.3a.39.39,0,0,0,.14.08l-.09-.1Z"/><path class="cls-1" d="M39.57,62.56l0,.06a.38.38,0,0,0,.15,0Z"/><path class="cls-1" d="M41.22,65.37c0-.07-.28,0-.4.08a.28.28,0,0,1,.24,0A.51.51,0,0,0,41.22,65.37Z"/><path class="cls-1" d="M43.41,70.09l.08.06Z"/><path class="cls-1" d="M38.48,60.49a.59.59,0,0,0,.08-.08Z"/><path class="cls-1" d="M50.39,27.4h0S50.38,27.43,50.39,27.4Z"/><path class="cls-1" d="M48.47,31V31l-.15,0Z"/><path class="cls-1" d="M32.08,45.69v0C32.14,45.77,32.12,45.73,32.08,45.69Z"/><path class="cls-1" d="M27,19.21c-.27.29-.29-.52-.6-.08C26.55,19.09,26.85,19.58,27,19.21Z"/><path class="cls-1" d="M42.8,71.21l-.08-.12A.31.31,0,0,0,42.8,71.21Z"/><path class="cls-1" d="M26.44,19.13h0l0,0Z"/><path class="cls-1" d="M29.67,39.28c-.05,0-.07.06-.1.1S29.63,39.34,29.67,39.28Z"/><path class="cls-1" d="M30.91,44.26v-.13A.27.27,0,0,0,30.91,44.26Z"/><path class="cls-1" d="M28.56,36.83c0-.07,0-.11,0-.19l0,0S28.59,36.74,28.56,36.83Z"/><path class="cls-1" d="M27.9,34.14a.21.21,0,0,0,0,.06l0,.08Z"/><path class="cls-1" d="M49.5,18.57a.93.93,0,0,1-.21.19C49.47,18.67,49.65,19.07,49.5,18.57Z"/><path class="cls-1" d="M42.94,71.22c-.07,0-.11,0-.14,0l.06.07A.1.1,0,0,0,42.94,71.22Z"/><path class="cls-1" d="M26.39,37.28l-.07-.46A2.06,2.06,0,0,0,26.39,37.28Z"/><path class="cls-1" d="M35.78,3.9l.11,0A.13.13,0,0,0,35.78,3.9Z"/><path class="cls-1" d="M26,35.52a.74.74,0,0,0,.13-.29.24.24,0,0,0-.09,0Z"/><path class="cls-1" d="M49.28,18.76h0Z"/><path class="cls-1" d="M50.5,21.66c-.06-.45-.39-.16-.61-.23-.19-.5.23-.28.38-.48-.15-.32-.52-.51-.54-.75.05,0,.06-.08.15,0-.36-.29-.22-1-.67-1.32a.29.29,0,0,1,.07-.08,1.16,1.16,0,0,1-.47.18c-.06-.18-.32-.29-.11-.42,0,.12.12.1.21.14l-.15-.17c.29-.26.19.24.43.18-.21-.37-.6-.74-.58-1.06.31-.15.29.67.48.19v.49c.43-.49,0,.29.51-.18-.07-.64-.34-.64-.44-1.27-.22-.08-.26.13-.48.05-.58-.74.6-.94-.06-1.42-.27-.08-.69,0-.64-.5h.41c-.19-.59-.64-.12-.65-.8.18,0,.31.39.31.28.12-.5-.31-.18-.44-.47l.29-.2c-.32-.57-.84-1.11-1.24-1.71.1,0,.26.05.27-.15a9.54,9.54,0,0,1-1.26-2.56l-.44-.11c0-.07,0-.2.12-.16-.11-.35-.16.09-.35,0s0-.3.12-.26a4.33,4.33,0,0,1-1.72-1.7l.15,0c-.28-.45-.83,0-1-.49l.1,0c-.75-.86-1.91-1.31-2.53-2.06-.31.31-1-.62-1.28-.06-.55-.45-.34-.52-1.28-.87-.26,0-.42.33-.72.37V3.8l-.43.32-.24-.37-.29.1c.12,0,.26.12.25.21A1.27,1.27,0,0,1,35,3.83a8.34,8.34,0,0,0-1,.5c0-.13.15-.22.27-.33-.48.46-.2-.29-.63.14.09.05,0,.19,0,.25a1.73,1.73,0,0,0-1.23.38l0-.23A10.06,10.06,0,0,0,30.26,6a.25.25,0,0,1,.29.41l-.28-.19c0,.26.28-.07.18.33-.27.17-.4-.15-.32-.35l-.24.34c-.08-.06,0-.16-.1-.27,0,.25-.74.23-.68.65L29,6.82A10,10,0,0,0,27.8,8.44c.22.18,0,.37.07.66a5,5,0,0,0-1.09,1.32c-.07.45.15.22.22.47-.25-.09-.48.48-.52.11a5.8,5.8,0,0,0-.43,1.82c.13-.06.21-.15.27-.06s-.22.32-.33.26v0c.05,1-1.33,2.11-.94,3L25,16c.05.29.09.58.15.87-.09.37-.16-.26-.35,0,.3.95-.23,1.41,0,2.17-.81.53,0,2-.5,2.75l.18,0c.17.2-.11.24-.15.38.14,0,.16-.21.26-.09a43.35,43.35,0,0,1-.22,5.18c0,.64.95.27.62,1.09l-.36-.19c.57,1.2.26,2.58.84,3.73-.08-.06-.18,0-.2-.16-.19.29.16,1,.36.91,0,.2-.17.08-.25.21-.09.29.43.59.22.77,0,0-.09-.05-.12-.1.15.15.12.79.36.57-.05.49.3.84.23,1.23.35.16,0,.8.48.77-.44.08-.16.88.12,1.11-.16-.06-.08.28-.29.21.09.33.24.6.45.48-.37.74.76,1.06.19,1.59.53.87.91,1.7,1.31,2.5-.45.12-.35-.91-.79-.73.42.75,1,1.07,1.14,1.89,0,.23-.23,0-.33-.09.46.73.49,1.55,1,2.16,0,0-.11,0-.17-.1.07.13.06.34.25.25l-.1-.11c.19-.33.79.32,1,.28-.64,0,.13.74-.71.64a.29.29,0,0,0,.33.08c0,.15,0,.22-.25.14.3.45.44.2.61.64-.1,0-.17,0-.29,0a1,1,0,0,1,.6.71c-.06,0-.12.07-.16,0,.27.63.92.89,1.05,1.65-.49,0,0,.29-.36.47l.27.33.1-.22c.14.33.51.51.52.84l-.24-.18.33.58,0-.4c.31.25.41-.23.5.24-.07-.07.14.33,0,.59h0c.18.11.37.22.4.49-.08.11-.4.13-.45.2.35,0,.43.72.82.77a.37.37,0,0,0-.3.09l.29,0c0,.18,0,.22-.18.27.17.46.36-.35.43.27,0,0-.07,0-.14-.07.16.58.62,1,.76,1.5-.27.31-.3-.38-.5-.08a12.75,12.75,0,0,1,1.39,2l0-.15c.52-.15,0,.62.41.85-.08-.07-.32,0-.25,0a5,5,0,0,0,1.12,1.49l-.17,0a7.3,7.3,0,0,0,.42,1.06c.16,0,.23.2.35,0-.2,1.27,1.29,1.5,1.16,2.6,0-.1-.23-.17-.18-.09l.48.6c.17-.16.07-.15.15-.38a.65.65,0,0,1,.46.32c-.3-.23-.32.18-.36.38,0-.06.14,0,.19-.1-.16.55.44-.17.47.44l-.12,0c.15.15.38.23.46.44-.19.21-.22-.13-.41,0,.16.26.74.28.65.65-.13-.08-.23-.24-.36-.32a.69.69,0,0,0,0,.64v0l.14.53v-.16c.8,0,.51.62,1.16.84-.63-.22-.26.06-.54.17,0,.16,0,.38-.09.38.34.09,0,.45.52.57-.07.07.13.24-.11.31.23.24.11-.15.23-.19.54.26.24,1.21,1,1.59.48.43.82.36,1.25.76,0,.25-.39.05-.39.05a1,1,0,0,0,.42.72c-.1,0-.13.08-.18.21.14.19.39,0,.42.29a1.17,1.17,0,0,1-.46,0c.22.19.52.33.74.53-.11.15-.31,0-.46,0,.23.24.56.63.85.58l0-.22c.07.09-.17.17-.25.12-.32-.13-.13-.39,0-.45l.16.14c.38-.47-.5-.66-.68-1l.44-.07-.51-.18c.05-.14.22-.31.37-.16,0-.36-.26-.15-.19-.49,0,0,0,0,.07,0l-.25-.19c.1,0,.23-.19.26,0-.05-.56-.68-.55-.51-.88l0,0c-.48-.55-.3.09-.88-.19l.47-.69-.3.1c0-.07-.08-.21,0-.25-.32-.13-.09.11-.34.07.06-.44-.61-.77-.23-1.09-.27,0,0,.39-.31.14.39-.36-.3-.33-.25-.73.28-.05.31.28.35-.12-.49.06-.22-.59-.44-.79-.32.17-.42-.43-.76-.77.12,0-.26-.84-.34-1.28l.06,0c-.36.11-.52-.31-.74-.55a.4.4,0,0,1,.47,0l-.15-.26a.45.45,0,0,1-.36-.2l.27-.07c-.21-.34-.67-.54-.76-1.08-.24.1-.43.7-.84.31.11-.09.31-.22.43-.12,0,0-.19-.09-.18-.2l.31.07c0-.25-.23,0-.3-.18.17-.09,0-.19.2-.24s0,.18.11.2a.83.83,0,0,1,0-.62c-.09.07-.23.12-.32,0-.21-.34.14-.23.12-.49-.17,0-.16-.31-.42-.17-.06-.11,0-.19.1-.27-.21-.12-.49-.83-.65-.48v.06l0,0h0c-.58-.46-.53-1.31-.94-1.85l.09,0c-.28-.3-.46-.76-.78-.92-.06-.11,0-.33.16-.34-.21-.24-.32-.22-.37-.69.29.2.08-.16.25.22-.1-.39,0-.54-.44-.8.3,0,.15-.41,0-.54l0,.32a1.71,1.71,0,0,1-.25-.53l.35,0c0-.91-1.25-1-.9-1.88-.31-.09,0,.47-.29.41-.12-.35.14-.91.1-1,0-.54-.66-.23-.76-.77a.35.35,0,0,1-.6,0c-.11-.36.27-.63.45-.45s0,.13,0,.15.2.21.26,0h-.13c0-.22-.18-.68,0-.65-.21-.22-.22,0-.2.18,0-.51-.29-.69-.38-1.18,0,.09-.13.22-.16.14-.15-.72-.33-.2-.58-.63.06-.33.44-.08.1-.47,0-.32.27-.18.41-.11-.39-.32-.18-.83-.23-1.08l.17.18a1.12,1.12,0,0,1-.19-.33l-.17.22c0-.15,0-.26,0-.29-.19-.08-.32.25-.63.06.05-.21-.32-.47-.05-.65.11.58.27-.17.49.26a.55.55,0,0,1-.12-.32s.07,0,.1,0c.06-.62-.42-.11-.63-.65.19,0,.27-.24.2-.31.08.21-.24.21-.44.06,0-.4-.25-.34-.3-.53l0,.23c-.2,0-.24-.19-.38-.41.12-.07.17.18.19.08-.38-.17.09-.73-.23-1,0-.22.3-.13.33-.31-.37-.34.07-.53-.27-.91-.18.2-.11.21-.44,0l.41.67-.49-.35c.07.22.3.41.31.56-.26-.16-.2-.16-.35,0,.24-.42-.4-.53-.3-1l.57-.17c.06-.61-.62-.84-.67-1.58l0,.26c-.25,0-.15-.42-.31-.61.19,0,.22-.2.31-.33-.14,0-.14-.51-.53-.46l.15-.38c-.06-.59-.74-.48-.82-1,.25.11.32-.17.57.14-.06-.17-.05-.35-.19-.31.1-.14-.38-.44-.24-.65-.1-.06-.31,0-.34-.24a.12.12,0,0,1,.09,0c-.09,0-.2-.29-.37-.06.46-.7-.43-1.56,0-2.16A8.83,8.83,0,0,1,27.48,33c.06,0,.1,0,.09,0,.09-.53-.62-.2-.52-.81.26-.35.22.27.31.07.62-.2-.22-.68.08-1.12l.06.08c.16-.32-.38-.67-.38-1.16a.16.16,0,0,0,.09,0,3,3,0,0,1-.71-1.36c.28.12.17.2.41.08-.06-.2-.4.11-.53-.3.12-.15.21-.47.47-.54l.07.39c.33-.24-.08-.5,0-.71H27c-.14-.59-.51-.57-.52-1.22l-.12.07c-.41-.32.2-.31-.11-.65l.39-.13a6.9,6.9,0,0,1-.53-1.22,4.21,4.21,0,0,1,.68,1c0-.23-.08-.78-.28-.89,0,.09.14.2.09.3a1.48,1.48,0,0,1-.53-1.11c.76.06.2-1.22.8-1.55-.27-.82.1-1.62.11-2.55-.61.3,0-.28-.62-.26,0-.22,0-.3,0-.32l.41-.64c.19-.14.12.22.26.21.09-.47.27-.18.46-.47-.22,0-.29-.19-.18-.45l-.32.34c-.25-.69.57-.5.34-1.2l.16.23c-.08-.35.2-1.21-.22-1.64.08,0,.26-.08.28.07.22-.76-.08-1.88.42-2.37l.12.1c0-.15-.18-.34,0-.46.05,0,.12.11.15.05s-.11-.47,0-.61l.09.22c.48-.62.11-1.25.36-1.88.37.22.81-.21,1-.4l.05,0c.51-.64.59-1.36,1.09-2,.68,0,1.46-.91,2.3-1-.14,0-.14-.31,0-.42s.36-.49.49-.11l-.07,0c.28.3.58.09.86,0l-.11-.52a1.74,1.74,0,0,0,1.38,0c.44-.14.87-.22,1.06.13.18-.11.4-.1.6-.2l0,.28a12.45,12.45,0,0,0,1.27.38l-.19.15c.29.12.71-.6,1-.46l-.1.42c.57.29.86.94,1.59,1-.05,0-.14.12-.23.07.23.19.66,1,1,.5-.26.27.44.5.81.68l-.25.14c.47,0,.55,0,.9.23,0,.1-.11.21-.14.05.09.36.37.06.51.48l-.24,0c.19.3.25.22.54.27a.58.58,0,0,1,.14.78.4.4,0,0,1,.48.24c-.06.08-.15,0-.2,0,.15.61.76.6.71,1.1a.27.27,0,0,0-.11.15,8,8,0,0,1-.37-.74c-.22.13-.06.48-.53.4.33.15.94.42,1,.8a.24.24,0,0,1-.06.09l0,0a.3.3,0,0,0,.15.18.94.94,0,0,0,.07.31c-.17.14.09.44.16.62.25-.14.32.11.42-.2,0,0,0,0-.11-.13s0-.05-.06-.06h0l-.23-.42c.19.07.37.16.32.42a4.55,4.55,0,0,1,.53,0c-.23.41-.23,1-.42,1.12.38.47.6,1.22,1.23,1.4.12.13-.08.23-.14.31s-.11-.18-.2-.2c.25.26.35.92.74.88,0,.46-.4-.12-.17.41l-.13,0c-.25,1.23,1.4,1.58.9,3,0-.09.05-.14.1-.17-.07,1.47.72,2.95.21,4.41-.1.4.14.44.32.7l-.3.08.33.43c.24.63-.78,1-.37,1.79l.21-.08c0,.27,0,.88-.2.81,0,0,.19.11.07.21l-.15,0,.17.71c-.2.5-.6-.18-.77.55,0,.28.3.88.42.8s.15-.27.31-.25l0,.28c.45.14.87.46,1.32-.14l-.19-.52.25-.11-.06.4c.25-.19.09-.36,0-.54a.43.43,0,0,0,.29-.15l-.38-.53c.19,0,.33.26.47,0-.17-.25-.43.14-.52-.23.24-.19.41-.11.26-.39a.19.19,0,0,1,.23.15c-.1-.25,0-.62-.22-.77.28-.21,0-.79.44-.73a1.34,1.34,0,0,1-.33-.65c.51.42.06-.81.62-.69-.45-.3-.21-1.06-.48-1.58,0,0,.12.09.1.13A1.68,1.68,0,0,1,50.5,24c-.4,0-.51-.47-.77-.69.35-.38.47.18.83,0-.32,0-.36-.6-.62-.46.21-.29.09-.24.4-.41-.49,0-.11-.25-.43-.44.19-.42.44-.16.24-.57C50.27,21.29,50.5,21.66,50.5,21.66Zm-3.94-9.54h0l.11.18Zm-.41-.74a3.53,3.53,0,0,0,.17.33c-.07.07-.18.09-.21,0S46.14,11.53,46.15,11.38Zm-.9,2.46c-.09-.1-.06-.16,0-.2a1.29,1.29,0,0,0,.13.18h0Z"/><path class="cls-1" d="M45.68,13.88s0,0,0,0a.44.44,0,0,0,0-.1h-.09Z"/><path class="cls-1" d="M37.31,59.08v0a.07.07,0,0,1,0,0Z"/><polygon class="cls-1" points="36.85 3.72 36.85 3.79 36.94 3.73 36.85 3.72"/><path class="cls-1" d="M38.67,63.57a.11.11,0,0,0,0,.09A.19.19,0,0,0,38.67,63.57Z"/><path class="cls-1" d="M39.59,65.33l0,.29A1.41,1.41,0,0,0,39.59,65.33Z"/><path class="cls-1" d="M40.23,66.72a.34.34,0,0,0,.12,0h0Z"/><path class="cls-1" d="M29.18,45l0-.05C29.05,44.85,29.1,44.94,29.18,45Z"/><path class="cls-1" d="M32.58,51.47a1.25,1.25,0,0,1-.22-.16C32.39,51.44,32.43,51.53,32.58,51.47Z"/><polygon class="cls-1" points="26.39 37.33 26.4 37.32 26.39 37.27 26.39 37.33"/><path class="cls-1" d="M32.23,51a.41.41,0,0,0,.13.31A.71.71,0,0,0,32.23,51Z"/><path class="cls-1" d="M43.48,72.48l0,.07,0,0Z"/><path class="cls-1" d="M43.55,72.53l.07.06A.07.07,0,0,0,43.55,72.53Z"/><path class="cls-1" d="M43.77,72.7l-.15-.11S43.68,72.7,43.77,72.7Z"/><path class="cls-1" d="M42.56,70.68l-.1,0Z"/><path class="cls-1" d="M42.22,70.17c.06.13,0,.42.16.57l.08,0C42.28,70.71,42.44,70.2,42.22,70.17Z"/><path class="cls-1" d="M42,67.32l.19.49c0-.14.11-.31.25-.12C42.4,67,42.31,67.92,42,67.32Z"/><path class="cls-1" d="M41.35,65.87c.18.21.13-.08.19-.1C41.37,65.67,41.33,65.64,41.35,65.87Z"/><path class="cls-1" d="M35.86,55.8l.24-.09C36,55.54,36,55.75,35.86,55.8Z"/><polygon class="cls-1" points="33.69 54.42 33.63 54.68 33.89 54.66 33.69 54.42"/><polygon class="cls-1" points="34.78 52.46 34.85 52.52 34.61 52.25 34.78 52.46"/><path class="cls-1" d="M28.26,34.56l-.29.13C28.06,34.82,28.41,34.77,28.26,34.56Z"/><path class="cls-1" d="M26.7,26.5c.15-.11.24-.34.07-.47C26.76,26.21,26.65,26.41,26.7,26.5Z"/><polygon class="cls-1" points="34.92 6.46 34.81 6.6 35.05 6.45 34.92 6.46"/></g></svg>
