<svg xmlns="http://www.w3.org/2000/svg" width="260" height="290" viewBox="0 0 260 290"><defs><style>.cls-1{fill:#e9eced;stroke:#152230;stroke-width:3px;}.cls-1,.cls-3,.cls-4{stroke-miterlimit:10;}.cls-2{fill:#43567e;}.cls-3,.cls-5{fill:#fff;}.cls-3,.cls-4{stroke:#fff;}.cls-4{fill:none;}.cls-6{fill:#f76363;}.cls-7{fill:#ea46f7;}.cls-8{fill:#8b3d92;}.cls-9{fill:#525454;}</style></defs><title>husplay</title><g id="Levelcompletetekst"><path class="cls-1" d="M235.79,16H25.21c-4,0-7.21,5.07-7.21,11.33V235.76c0,6.26,3.23,11.33,7.21,11.33H60v34.66l39.45-34.66H235.79c4,0,7.21-5.07,7.21-11.33V27.33C243,21.07,239.77,16,235.79,16Z"/><rect class="cls-2" x="83" y="193" width="91" height="34" rx="9.07"/><rect class="cls-3" x="96.78" y="198.72" width="21.02" height="2.26" rx="1.13"/><polygon class="cls-3" points="116.34 203.9 98.19 203.9 97.95 201.7 116.64 201.7 116.34 203.9"/><rect class="cls-3" x="105.83" y="211.79" width="18.15" height="1.07" rx="0.53" transform="translate(338.22 120.57) rotate(96.09)"/><rect class="cls-3" x="101.44" y="211.43" width="17.6" height="1.49" rx="0.74" transform="translate(328.3 114.1) rotate(93.24)"/><rect class="cls-3" x="90.57" y="211.76" width="18.15" height="1.13" rx="0.56" transform="translate(-100.92 333.91) rotate(-96.09)"/><rect class="cls-3" x="95.99" y="211.34" width="17.66" height="1.49" rx="0.74" transform="translate(311.07 96.2) rotate(86.97)"/><rect class="cls-3" x="99.97" y="219.79" width="14.58" height="2.26" rx="1.13"/><rect class="cls-4" x="102.65" y="197.15" width="9.22" height="1.9" rx="0.95"/><path class="cls-5" d="M128.93,217.29V212.9a3.1,3.1,0,0,0,2.41,1.52,1.22,1.22,0,0,0,.8-.26.83.83,0,0,0,.31-.65,1.47,1.47,0,0,0-.67-1.09l-.62-.48a9.07,9.07,0,0,1-1-.92,4.94,4.94,0,0,1-.71-.94,4,4,0,0,1-.39-1,4.34,4.34,0,0,1-.13-1.09,5.32,5.32,0,0,1,.45-2.05,5.42,5.42,0,0,1,.53-.91,4.71,4.71,0,0,1,.68-.73,3.91,3.91,0,0,1,2.59-.9,5.86,5.86,0,0,1,2.71.71v4.28a4.1,4.1,0,0,0-1.05-1.13,2,2,0,0,0-1.16-.41,1,1,0,0,0-.71.25.72.72,0,0,0-.29.59,1.45,1.45,0,0,0,.77,1.11l.6.45a6,6,0,0,1,1.71,1.76,4.16,4.16,0,0,1,.52,2.12,4.79,4.79,0,0,1-1.26,3.41,4.19,4.19,0,0,1-3.18,1.34A8,8,0,0,1,128.93,217.29Z"/><path class="cls-5" d="M144.32,217.63h-6.61v-14h3.77v10.62h2.84Z"/><path class="cls-5" d="M145.44,217.63v-14h7v3.29h-3.24v2h2.9v3.16h-2.9v2.13h3.24v3.36Z"/><path class="cls-5" d="M159,217.63h-3.77V207h-2.09v-3.35h8V207H159Z"/><rect class="cls-6" x="27.5" y="38.5" width="206" height="145" rx="10.5"/><path class="cls-2" d="M223,40a9,9,0,0,1,9,9V173a9,9,0,0,1-9,9H38a9,9,0,0,1-9-9V49a9,9,0,0,1,9-9H223m0-3H38A12,12,0,0,0,26,49V173a12,12,0,0,0,12,12H223a12,12,0,0,0,12-12V49a12,12,0,0,0-12-12Z"/><polygon class="cls-7" points="205.35 165 56.01 165 56.01 89.33 205.35 89 205.35 165"/><path class="cls-8" d="M208.68,87.3c2,1.12.59,3-2.28,3l-76.11.56-76.1.32c-2.87,0-4.33-1.89-2.31-3L88.27,67.75l39.54-22.21a5.25,5.25,0,0,1,4.59,0L172.12,67.4Z"/><rect class="cls-9" x="71.57" y="111.67" width="4.44" height="53.33" rx="2.22"/><rect class="cls-9" x="102.24" y="111.67" width="4.44" height="53.33" rx="2.22"/><rect class="cls-9" x="72.01" y="111.67" width="34.67" height="4.89" rx="2.44"/><circle class="cls-9" cx="97.57" cy="139" r="2"/><rect class="cls-9" x="124.01" y="127.22" width="34.67" height="3.56" rx="1.78" transform="translate(270.35 -12.35) rotate(90)"/><rect class="cls-9" x="156.46" y="113.89" width="1.33" height="31.56" rx="0.67"/><rect class="cls-9" x="156.46" y="113.44" width="1.33" height="31.56" rx="0.67" transform="translate(286.35 -27.9) rotate(90)"/><rect class="cls-9" x="155.13" y="127.22" width="34.67" height="3.56" rx="1.78" transform="translate(301.46 -43.46) rotate(90)"/><rect class="cls-9" x="139.57" y="111.67" width="34.67" height="3.56" rx="1.78" transform="translate(313.81 226.89) rotate(-180)"/><rect class="cls-9" x="139.57" y="142.78" width="34.67" height="3.56" rx="1.78" transform="translate(313.81 289.11) rotate(-180)"/></g></svg>
