<svg id="Levelcomplete" xmlns="http://www.w3.org/2000/svg" xmlns:xlink="http://www.w3.org/1999/xlink" width="480" height="420" viewBox="0 0 480 420"><defs><style>.cls-1{fill:#e9eced;}.cls-2{clip-path:url(#clip-path);}.cls-3{fill:#e5e5e5;}.cls-4{fill:#f4912d;}.cls-5{fill:#152230;}.cls-6{fill:#fff;}.cls-7{fill:#fcfcfc;}</style><clipPath id="clip-path"><rect class="cls-1" x="-652.9366" y="-1297.4221" width="1920" height="1080"/></clipPath></defs><title>introscreenpopup2</title><rect class="cls-1" x="-652.9366" y="-1297.4221" width="1920" height="1080"/><g class="cls-2"><rect class="cls-3" x="-629.9944" y="-629.5845" width="2099.9481" height="727.832" transform="translate(111.4628 123.921) rotate(-19.3078)"/></g><path class="cls-4" d="M449.5305,106.8087,76.9462,103.36A12.7585,12.7585,0,0,0,64.07,116L61.8976,350.7264a12.7584,12.7584,0,0,0,12.64,12.8759l61.518.5694-.3613,39.0363,70.17-38.39,241.2574,2.2331a12.7585,12.7585,0,0,0,12.876-12.64L462.17,119.6845A12.7585,12.7585,0,0,0,449.5305,106.8087Z"/><rect class="cls-5" x="11.1728" y="18.7492" width="424.846" height="90.0336" rx="9.0692" transform="matrix(1, 0.0093, -0.0093, 1, 0.5998, -2.0667)"/><polyline class="cls-5" points="16.795 138.449 16.795 106.093 63.219 106.093"/><path class="cls-6" d="M68.2217,48.084l-.169,18.2324a14.1914,14.1914,0,0,1-1.1152,6.4043,7.0261,7.0261,0,0,1-6.6631,3.9912A8.9192,8.9192,0,0,1,55.3076,75.23L57.4512,71.62a4.31,4.31,0,0,0,2.9443,1.04,2.8054,2.8054,0,0,0,2.8457-1.8731c.2588-.63.48-1.6416.5059-4.5107l.1689-18.2325Z"/><path class="cls-6" d="M78.2529,58.56l-.0937,10.1718a5.1135,5.1135,0,0,0,.73,3.2139,3.5913,3.5913,0,0,0,5.4013.05,5.1129,5.1129,0,0,0,.79-3.2l.0937-10.1719,4.1358.0381L89.2148,68.959c-.0214,2.2793-.2919,4.1767-1.9541,5.8066a8.1007,8.1007,0,0,1-5.8017,2.1426,7.81,7.81,0,0,1-5.5928-2.248c-1.63-1.66-1.8652-3.5625-1.8437-5.8418l.0947-10.2979Z"/><path class="cls-6" d="M102.2656,63.4668a2.9781,2.9781,0,0,0-2.5185-1.543,1.7459,1.7459,0,0,0-1.27.4532,1.34,1.34,0,0,0-.3887.9248,1.14,1.14,0,0,0,.581,1.0185c.253.1709.5049.2568,1.3868.73l2.1,1.0752a8.5371,8.5371,0,0,1,2.4747,1.668,4.3954,4.3954,0,0,1,1.2773,3.3056,5.9008,5.9008,0,0,1-1.5986,4.0371,6.3471,6.3471,0,0,1-4.9981,1.9375,6.1222,6.1222,0,0,1-3.831-1.1757,6.9322,6.9322,0,0,1-2.2491-3.27l3.3916-1.5723a4.7012,4.7012,0,0,0,.9551,1.6973,2.5365,2.5365,0,0,0,1.8086.6914,2.4885,2.4885,0,0,0,1.6944-.5752,2.0971,2.0971,0,0,0,.6035-1.3868,1.9128,1.9128,0,0,0-.5362-1.3554,5.4426,5.4426,0,0,0-1.7627-1.1143l-1.5127-.7324a8.7183,8.7183,0,0,1-2.4335-1.542A3.8727,3.8727,0,0,1,94.2012,63.73a5.5461,5.5461,0,0,1,1.5127-3.7852,5.7307,5.7307,0,0,1,4.3623-1.6474,5.56,5.56,0,0,1,3.2832.959,6.0972,6.0972,0,0,1,2.0058,2.2138Z"/><path class="cls-6" d="M113.9619,62.6885l-.1289,13.97-4.1367-.0381.1289-13.97-1.73-.0156.0352-3.7989,1.73.0157.0605-6.4991,4.1367.0381-.06,6.499,3.165.03-.0351,3.7989Z"/><path class="cls-6" d="M122.1074,48.9629a2.6588,2.6588,0,1,1-2.6836,2.6338A2.5968,2.5968,0,0,1,122.1074,48.9629Zm1.9756,10.0205-.1641,17.7686-4.1357-.0381.1641-17.7686Z"/><path class="cls-6" d="M129.2725,59.0312l4.1357.0391-.0146,1.6455a6.1192,6.1192,0,0,1,4.831-2.0654,5.94,5.94,0,0,1,5.2109,2.4541c.6661.9766,1.0772,2.2041,1.0518,4.9482l-.1006,10.8887-4.1367-.0381.0908-9.876c.042-4.5166-1.6455-4.6582-3.207-4.6728-1.8565-.0166-3.7578.2187-3.8106,5.959l-.0791,8.5254L129.1084,76.8Z"/><path class="cls-6" d="M164.7334,48.9775c3.6289.0332,5.9033.5186,7.7451,2.2657a7.2254,7.2254,0,0,1,2.1846,5.5918,6.1373,6.1373,0,0,1-.874,3.3271A4.6762,4.6762,0,0,1,171.66,62.084a7.72,7.72,0,0,1,3.6113,2.0586,7.33,7.33,0,0,1,1.8086,5.2939,6.8693,6.8693,0,0,1-1.9043,5.0469c-2.26,2.3428-5.7656,2.69-7.918,2.67l-7.0488-.0654.2607-28.15Zm-.1816,24.0987,2.6162.0244a7.4228,7.4228,0,0,0,4.2734-1.0586,4.0328,4.0328,0,0,0,1.4219-3.1094,4.2194,4.2194,0,0,0-1.1123-2.9648c-1.1709-1.15-2.9-1.294-4.42-1.3076l-2.7012-.0254Zm.1113-11.9864,1.3086.0118a4.9507,4.9507,0,0,0,3.5127-1.0645,4.27,4.27,0,0,0,1.1269-3.1973,3.4775,3.4775,0,0,0-.9883-2.7109,4.6206,4.6206,0,0,0-3.4091-1.0859l-1.4766-.0137Z"/><path class="cls-6" d="M183.9717,49.5352a2.6588,2.6588,0,1,1-2.6836,2.6347A2.5972,2.5972,0,0,1,183.9717,49.5352Zm1.9756,10.0214-.1641,17.7686-4.1357-.0381.164-17.7685Z"/><path class="cls-6" d="M206.9639,73.4688a9.3194,9.3194,0,0,1-3.0274,3.2226,9.7662,9.7662,0,0,1-5.2441,1.3018,7.8793,7.8793,0,0,1-5.9727-2.335A9.5346,9.5346,0,0,1,190.167,68.84a10.4219,10.4219,0,0,1,2.8945-7.2763,8.0943,8.0943,0,0,1,5.9737-2.35,7.6494,7.6494,0,0,1,5.6757,2.374c2.2569,2.3838,2.4375,5.6777,2.42,7.5342l-.0039.5068-12.7452-.1172a5.8723,5.8723,0,0,0,1.4854,3.6016,4.2294,4.2294,0,0,0,3.1553,1.1689,4.3562,4.3562,0,0,0,2.8359-.86,6.4356,6.4356,0,0,0,1.6631-1.9268Zm-4.0254-7.2549a4.2967,4.2967,0,0,0-1.2451-2.418,4.3137,4.3137,0,0,0-5.6983.0742,4.6575,4.6575,0,0,0-1.2871,2.2676Z"/><path class="cls-6" d="M215.6387,61.8994a6.4767,6.4767,0,0,1,5.2988-2.4824c4.6855.043,8.6182,3.625,8.5645,9.4072-.045,4.8955-3.209,9.4248-8.6954,9.374a6.8238,6.8238,0,0,1-5.2968-2.456L215.4932,77.6l-4.1358-.0381.2852-30.7666,4.1357.0381Zm-.3174,6.919c-.0342,3.7148,2.3535,5.6367,4.9707,5.6611,2.9961.0273,4.9609-2.5293,4.9892-5.61.0293-3.165-1.8886-5.7158-4.8847-5.7431C217.7793,63.1016,215.3574,64.9355,215.3213,68.8184Z"/><path class="cls-6" d="M249.6719,73.8643a9.3194,9.3194,0,0,1-3.0274,3.2226,9.7711,9.7711,0,0,1-5.2451,1.3018,7.8789,7.8789,0,0,1-5.9726-2.335,9.5342,9.5342,0,0,1-2.5528-6.8183,10.4216,10.4216,0,0,1,2.8946-7.2764,8.0942,8.0942,0,0,1,5.9736-2.35,7.652,7.652,0,0,1,5.6767,2.374c2.2569,2.3838,2.4375,5.6777,2.42,7.5342l-.0039.5068-12.7461-.1172a5.8716,5.8716,0,0,0,1.4853,3.6016,4.2294,4.2294,0,0,0,3.1553,1.1689,4.3562,4.3562,0,0,0,2.8359-.86,6.44,6.44,0,0,0,1.6641-1.9268Zm-4.0264-7.2549a4.2961,4.2961,0,0,0-1.2451-2.418,4.3137,4.3137,0,0,0-5.6983.0742,4.6575,4.6575,0,0,0-1.2871,2.2676Z"/><path class="cls-6" d="M254.2285,60.1885l4.1358.0381L258.35,61.83a7.1273,7.1273,0,0,1,1.7442-1.46,4.7657,4.7657,0,0,1,2.538-.5674,6.1259,6.1259,0,0,1,3.2422.8741l-1.7236,3.74a3.7435,3.7435,0,0,0-2.1045-.6524,3.2227,3.2227,0,0,0-2.583.9463,5.72,5.72,0,0,0-1.1777,4.083l-.085,9.2012-4.1357-.0381Z"/><path class="cls-6" d="M270.5645,73.5938a2.5323,2.5323,0,1,1-2.5557,2.5087A2.54,2.54,0,0,1,270.5645,73.5938Zm.1269-13.7168a2.5323,2.5323,0,1,1-2.5557,2.5087A2.54,2.54,0,0,1,270.6914,59.877Z"/><path class="cls-7" d="M111.44,132.1572h-8.5118v5.4073h8.2559v3.0722h-8.2559v6.7188H111.44v3.0722H99.6641V129.085H111.44Z"/><path class="cls-7" d="M118.2246,127.1016v23.3261h-3.1367V127.1016Z"/><path class="cls-7" d="M134.2549,147.3555a7.0658,7.0658,0,0,1-2.2715,2.4638,7.4111,7.4111,0,0,1-3.9678,1.0245,5.9761,5.9761,0,0,1-4.5439-1.7276,7.23,7.23,0,0,1-1.9834-5.1523,7.8944,7.8944,0,0,1,2.1435-5.5352,6.137,6.137,0,0,1,4.5118-1.8242,5.7986,5.7986,0,0,1,4.3193,1.76,8.0872,8.0872,0,0,1,1.8877,5.6962v.3838h-9.6631a4.4564,4.4564,0,0,0,1.1523,2.72,3.2015,3.2015,0,0,0,2.3995.8642,3.2978,3.2978,0,0,0,2.1435-.6728,4.848,4.848,0,0,0,1.2481-1.4717Zm-3.1035-5.4707a3.2618,3.2618,0,0,0-.96-1.8243,3.271,3.271,0,0,0-4.3193.0957,3.5248,3.5248,0,0,0-.96,1.7286Z"/><path class="cls-7" d="M138.9922,136.957l3.4551,7.6787,3.456-7.6787h3.52l-6.9756,14.4307-6.9746-14.4307Z"/><path class="cls-7" d="M163.2793,147.3555a7.0658,7.0658,0,0,1-2.2715,2.4638,7.4111,7.4111,0,0,1-3.9678,1.0245,5.9761,5.9761,0,0,1-4.5439-1.7276,7.23,7.23,0,0,1-1.9834-5.1523,7.8944,7.8944,0,0,1,2.1435-5.5352,6.137,6.137,0,0,1,4.5118-1.8242,5.7986,5.7986,0,0,1,4.3193,1.76,8.0872,8.0872,0,0,1,1.8877,5.6962v.3838h-9.6631a4.4559,4.4559,0,0,0,1.1524,2.72,3.2011,3.2011,0,0,0,2.3994.8642,3.2978,3.2978,0,0,0,2.1435-.6728,4.848,4.848,0,0,0,1.2481-1.4717Zm-3.1035-5.4707a3.2612,3.2612,0,0,0-.96-1.8243,3.271,3.271,0,0,0-4.3193.0957,3.5248,3.5248,0,0,0-.96,1.7286Z"/><path class="cls-7" d="M166.64,136.957h3.1358v1.2159a5.4262,5.4262,0,0,1,1.3125-1.12,3.6249,3.6249,0,0,1,1.92-.4482,4.6479,4.6479,0,0,1,2.4639.6406l-1.28,2.8477a2.8365,2.8365,0,0,0-1.6-.4805,2.4461,2.4461,0,0,0-1.9522.7363,4.339,4.339,0,0,0-.8642,3.1035v6.9756H166.64Z"/><path class="cls-7" d="M177.2324,136.957h3.1358v1.2481a4.6408,4.6408,0,0,1,3.6474-1.6006,4.503,4.503,0,0,1,3.9678,1.8242c.5117.7354.832,1.6641.832,3.7432v8.2558H185.68V142.94c0-3.4238-1.28-3.52-2.4639-3.52-1.4082,0-2.8476.1914-2.8476,4.543v6.4638h-3.1358Z"/><path class="cls-7" d="M204.8467,147.3555a7.0658,7.0658,0,0,1-2.2715,2.4638,7.4111,7.4111,0,0,1-3.9678,1.0245,5.9761,5.9761,0,0,1-4.5439-1.7276,7.23,7.23,0,0,1-1.9834-5.1523,7.8944,7.8944,0,0,1,2.1435-5.5352,6.137,6.137,0,0,1,4.5118-1.8242,5.7986,5.7986,0,0,1,4.3193,1.76,8.0872,8.0872,0,0,1,1.8877,5.6962v.3838h-9.6631a4.4564,4.4564,0,0,0,1.1523,2.72,3.2015,3.2015,0,0,0,2.3995.8642,3.2978,3.2978,0,0,0,2.1435-.6728,4.848,4.848,0,0,0,1.2481-1.4717Zm-3.1035-5.4707a3.2618,3.2618,0,0,0-.96-1.8243,3.271,3.271,0,0,0-4.3193.0957,3.5248,3.5248,0,0,0-.96,1.7286Z"/><path class="cls-7" d="M217.2305,129.373a2.0162,2.0162,0,1,1-2.0157,2.0157A1.9682,1.9682,0,0,1,217.2305,129.373Zm1.5683,7.584v13.4707h-3.1367V136.957Z"/><path class="cls-7" d="M240.46,132.0928H229.9648V129.085h15.8711l-13.4384,22.0791-2.5606-1.6006Z"/><path class="cls-7" d="M246.19,146.9717a1.92,1.92,0,1,1-1.92,1.92A1.9259,1.9259,0,0,1,246.19,146.9717Z"/><path class="cls-7" d="M265.1318,145.2764h-9.1191l-2.3359,5.1513h-3.52L260.78,127.8369l10.1113,22.5908h-3.5195Zm-1.3115-3.0723-3.168-7.2314-3.2959,7.2314Z"/><path class="cls-7" d="M286.3477,140.5088a2.254,2.254,0,0,0-1.92-1.1524,1.33,1.33,0,0,0-.96.3526,1.014,1.014,0,0,0-.2871.7031.8616.8616,0,0,0,.4472.7686c.1924.1279.3838.1914,1.0567.5439l1.6.8a6.4509,6.4509,0,0,1,1.8877,1.2481,3.3215,3.3215,0,0,1,.9922,2.4951A4.4713,4.4713,0,0,1,287.98,149.34a4.8075,4.8075,0,0,1-3.7754,1.504,4.6358,4.6358,0,0,1-2.9121-.8643,5.25,5.25,0,0,1-1.7275-2.4639l2.56-1.2158a3.5465,3.5465,0,0,0,.7364,1.28,1.9213,1.9213,0,0,0,1.3759.5117,1.8851,1.8851,0,0,0,1.2793-.4482,1.5843,1.5843,0,0,0,.4483-1.0557,1.4507,1.4507,0,0,0-.416-1.0234,4.1138,4.1138,0,0,0-1.3438-.8321l-1.1523-.5439a6.6545,6.6545,0,0,1-1.8555-1.1524,2.9367,2.9367,0,0,1-.96-2.2715,4.2053,4.2053,0,0,1,1.12-2.88,4.3415,4.3415,0,0,1,3.2959-1.28,4.2147,4.2147,0,0,1,2.4952.7041,4.6191,4.6191,0,0,1,1.5361,1.6641Z"/><path class="cls-7" d="M295.627,148.3154l-5.7588-11.3584h3.7754l3.84,7.8711,3.9033-7.8711h3.5195l-10.7187,20.7979H290.668Z"/><path class="cls-7" d="M307.0518,136.957h3.1357v1.2481a4.641,4.641,0,0,1,3.6475-1.6006,4.5027,4.5027,0,0,1,3.9677,1.8242c.5118.7354.8321,1.6641.8321,3.7432v8.2558H315.499V142.94c0-3.4238-1.28-3.52-2.4638-3.52-1.4082,0-2.8477.1914-2.8477,4.543v6.4638h-3.1357Z"/><path class="cls-7" d="M325.835,139.8369v10.5908h-3.1358V139.8369h-1.3125v-2.88h1.3125v-4.9277h3.1358v4.9277h2.3994v2.88Z"/><path class="cls-7" d="M342.41,147.3555a7.0658,7.0658,0,0,1-2.2715,2.4638,7.4111,7.4111,0,0,1-3.9678,1.0245,5.976,5.976,0,0,1-4.5439-1.7276,7.23,7.23,0,0,1-1.9834-5.1523,7.8944,7.8944,0,0,1,2.1435-5.5352,6.1367,6.1367,0,0,1,4.5117-1.8242,5.7987,5.7987,0,0,1,4.3194,1.76,8.0872,8.0872,0,0,1,1.8877,5.6962v.3838h-9.6631a4.4552,4.4552,0,0,0,1.1523,2.72,3.2014,3.2014,0,0,0,2.3994.8642,3.298,3.298,0,0,0,2.1436-.6728,4.849,4.849,0,0,0,1.248-1.4717Zm-3.1036-5.4707a3.2611,3.2611,0,0,0-.96-1.8243,3.2712,3.2712,0,0,0-4.3194.0957,3.5254,3.5254,0,0,0-.96,1.7286Z"/><path class="cls-7" d="M351.6582,140.5088a2.2537,2.2537,0,0,0-1.92-1.1524,1.33,1.33,0,0,0-.96.3526,1.014,1.014,0,0,0-.2871.7031.8617.8617,0,0,0,.4473.7686c.1924.1279.3838.1914,1.0566.5439l1.6.8a6.4509,6.4509,0,0,1,1.8877,1.2481,3.3211,3.3211,0,0,1,.9922,2.4951A4.4708,4.4708,0,0,1,353.29,149.34a4.8073,4.8073,0,0,1-3.7754,1.504,4.636,4.636,0,0,1-2.9121-.8643,5.25,5.25,0,0,1-1.7275-2.4639l2.56-1.2158a3.5449,3.5449,0,0,0,.7363,1.28,1.9214,1.9214,0,0,0,1.376.5117,1.8851,1.8851,0,0,0,1.2793-.4482,1.5847,1.5847,0,0,0,.4482-1.0557,1.45,1.45,0,0,0-.416-1.0234,4.1127,4.1127,0,0,0-1.3438-.8321l-1.1523-.5439a6.6573,6.6573,0,0,1-1.8555-1.1524,2.9366,2.9366,0,0,1-.96-2.2715,4.2053,4.2053,0,0,1,1.12-2.88,4.3412,4.3412,0,0,1,3.2959-1.28,4.2144,4.2144,0,0,1,2.4951.7041,4.6191,4.6191,0,0,1,1.5361,1.6641Z"/><path class="cls-7" d="M374.6006,127.1016h3.1357v23.3261h-3.1357V149.02a5.1708,5.1708,0,0,1-4.0313,1.8243c-4.16,0-6.5273-3.4561-6.5273-7.168,0-4.3828,3.0078-7.0713,6.56-7.0713a4.91,4.91,0,0,1,3.999,1.92ZM367.2412,143.74c0,2.336,1.4717,4.2881,3.7442,4.2881,1.9834,0,3.8076-1.44,3.8076-4.2558,0-2.9444-1.8242-4.3516-3.8076-4.3516C368.7129,139.4209,367.2412,141.3408,367.2412,143.74Z"/><path class="cls-7" d="M393.7686,147.3555a7.0658,7.0658,0,0,1-2.2715,2.4638,7.4111,7.4111,0,0,1-3.9678,1.0245,5.976,5.976,0,0,1-4.5439-1.7276,7.23,7.23,0,0,1-1.9834-5.1523,7.8944,7.8944,0,0,1,2.1435-5.5352,6.1367,6.1367,0,0,1,4.5117-1.8242,5.7987,5.7987,0,0,1,4.3194,1.76,8.0872,8.0872,0,0,1,1.8877,5.6962v.3838h-9.6631a4.4552,4.4552,0,0,0,1.1523,2.72,3.2014,3.2014,0,0,0,2.3994.8642,3.298,3.298,0,0,0,2.1436-.6728,4.849,4.849,0,0,0,1.248-1.4717Zm-3.1036-5.4707a3.2611,3.2611,0,0,0-.96-1.8243,3.2712,3.2712,0,0,0-4.3194.0957,3.5254,3.5254,0,0,0-.96,1.7286Z"/><path class="cls-7" d="M400.3613,139.8369v10.5908h-3.1357V139.8369h-1.3125v-2.88h1.3125v-4.9277h3.1357v4.9277h2.3994v2.88Z"/><path class="cls-7" d="M424.3906,147.3555a7.0649,7.0649,0,0,1-2.2715,2.4638,7.411,7.411,0,0,1-3.9677,1.0245,5.9764,5.9764,0,0,1-4.544-1.7276,7.23,7.23,0,0,1-1.9834-5.1523,7.8945,7.8945,0,0,1,2.1436-5.5352,6.1367,6.1367,0,0,1,4.5117-1.8242,5.7984,5.7984,0,0,1,4.3193,1.76,8.0872,8.0872,0,0,1,1.8877,5.6962v.3838h-9.6631a4.4559,4.4559,0,0,0,1.1524,2.72,3.2011,3.2011,0,0,0,2.3994.8642,3.298,3.298,0,0,0,2.1436-.6728,4.849,4.849,0,0,0,1.248-1.4717Zm-3.1035-5.4707a3.2612,3.2612,0,0,0-.96-1.8243,3.271,3.271,0,0,0-4.3193.0957,3.5246,3.5246,0,0,0-.96,1.7286Z"/><path class="cls-7" d="M427.751,136.957h3.1357v1.2159a5.43,5.43,0,0,1,1.3125-1.12,3.6249,3.6249,0,0,1,1.92-.4482,4.6477,4.6477,0,0,1,2.4639.6406l-1.28,2.8477a2.8365,2.8365,0,0,0-1.6-.4805,2.4459,2.4459,0,0,0-1.9521.7363,4.3386,4.3386,0,0,0-.8643,3.1035v6.9756H427.751Z"/><path class="cls-7" d="M104.9756,178.9092a2.2538,2.2538,0,0,0-1.92-1.1524,1.33,1.33,0,0,0-.96.3526,1.014,1.014,0,0,0-.2871.7031.8617.8617,0,0,0,.4473.7686c.1923.1279.3837.1914,1.0566.5439l1.6.8a6.4509,6.4509,0,0,1,1.8877,1.2481,3.3215,3.3215,0,0,1,.9922,2.4951,4.4708,4.4708,0,0,1-1.1846,3.0722,4.8073,4.8073,0,0,1-3.7754,1.5039A4.6359,4.6359,0,0,1,99.92,188.38a5.25,5.25,0,0,1-1.7275-2.4639l2.56-1.2158a3.5449,3.5449,0,0,0,.7363,1.28,1.9214,1.9214,0,0,0,1.376.5117,1.8848,1.8848,0,0,0,1.2793-.4483,1.5842,1.5842,0,0,0,.4482-1.0556,1.4506,1.4506,0,0,0-.416-1.0235,4.1125,4.1125,0,0,0-1.3438-.832l-1.1523-.5439a6.6582,6.6582,0,0,1-1.8555-1.1524,2.9367,2.9367,0,0,1-.96-2.2715,4.2051,4.2051,0,0,1,1.12-2.88,4.3412,4.3412,0,0,1,3.2959-1.28,4.2146,4.2146,0,0,1,2.4951.7041,4.62,4.62,0,0,1,1.5361,1.664Z"/><path class="cls-7" d="M112.1758,167.7734a2.0162,2.0162,0,1,1-2.0156,2.0157A1.9682,1.9682,0,0,1,112.1758,167.7734Zm1.5683,7.584v20.7979h-3.1367V175.3574Z"/><path class="cls-7" d="M131.4062,182.1084a7.2,7.2,0,1,1-7.1992-7.1035A6.9988,6.9988,0,0,1,131.4062,182.1084Zm-3.1992.0322c0-3.0722-2.0166-4.3193-4-4.3193s-4,1.2471-4,4.3193c0,2.5918,1.5362,4.2881,4,4.2881S128.207,184.7324,128.207,182.1406Z"/><path class="cls-7" d="M136.3994,175.3574l3.4561,7.6787,3.455-7.6787h3.52l-6.9746,14.4307L132.88,175.3574Z"/><path class="cls-7" d="M152.2393,178.2373v10.5908h-3.1358V178.2373H147.791v-2.88h1.3125V170.43h3.1358v4.9277h2.3994v2.88Z"/><path class="cls-7" d="M174.0615,175.3574h3.1358v13.4707h-3.1358V187.42a5.1706,5.1706,0,0,1-4.0312,1.8242c-4.16,0-6.5274-3.456-6.5274-7.1679,0-4.3828,3.0078-7.0713,6.56-7.0713a4.91,4.91,0,0,1,3.999,1.92Zm-7.3594,6.7832c0,2.336,1.4717,4.2881,3.7442,4.2881,1.9834,0,3.8076-1.44,3.8076-4.2558,0-2.9444-1.8242-4.3516-3.8076-4.3516C168.1738,177.8213,166.7021,179.7412,166.7021,182.1406Z"/><path class="cls-7" d="M184.3984,178.2373v10.5908h-3.1357V178.2373H179.95v-2.88h1.3125V170.43h3.1357v4.9277h2.3995v2.88Z"/><path class="cls-7" d="M202.252,178.9092a2.254,2.254,0,0,0-1.92-1.1524,1.33,1.33,0,0,0-.96.3526,1.014,1.014,0,0,0-.2871.7031.8616.8616,0,0,0,.4472.7686c.1924.1279.3838.1914,1.0567.5439l1.6.8a6.4509,6.4509,0,0,1,1.8877,1.2481,3.3215,3.3215,0,0,1,.9922,2.4951,4.4713,4.4713,0,0,1-1.1846,3.0722,4.8075,4.8075,0,0,1-3.7754,1.5039,4.6355,4.6355,0,0,1-2.9121-.8642,5.25,5.25,0,0,1-1.7275-2.4639l2.56-1.2158a3.5478,3.5478,0,0,0,.7363,1.28,1.9218,1.9218,0,0,0,1.376.5117,1.8846,1.8846,0,0,0,1.2793-.4483,1.5838,1.5838,0,0,0,.4483-1.0556,1.4508,1.4508,0,0,0-.4161-1.0235,4.112,4.112,0,0,0-1.3437-.832l-1.1523-.5439a6.6568,6.6568,0,0,1-1.8555-1.1524,2.9368,2.9368,0,0,1-.96-2.2715,4.2051,4.2051,0,0,1,1.12-2.88,4.3415,4.3415,0,0,1,3.2959-1.28,4.2147,4.2147,0,0,1,2.4952.7041,4.62,4.62,0,0,1,1.5361,1.664Z"/><path class="cls-7" d="M219.9473,185.7559a7.0658,7.0658,0,0,1-2.2715,2.4638,7.411,7.411,0,0,1-3.9678,1.0244,5.9759,5.9759,0,0,1-4.5439-1.7275,7.23,7.23,0,0,1-1.9834-5.1523,7.8944,7.8944,0,0,1,2.1435-5.5352,6.1367,6.1367,0,0,1,4.5117-1.8242,5.799,5.799,0,0,1,4.3194,1.76,8.0876,8.0876,0,0,1,1.8877,5.6963v.3838H210.38a4.4558,4.4558,0,0,0,1.1523,2.72,3.2014,3.2014,0,0,0,2.3994.8642,3.298,3.298,0,0,0,2.1436-.6728,4.8476,4.8476,0,0,0,1.248-1.4717Zm-3.1035-5.4707a3.2618,3.2618,0,0,0-.96-1.8243,3.271,3.271,0,0,0-4.3193.0957,3.5248,3.5248,0,0,0-.96,1.7286Z"/><path class="cls-7" d="M223.2764,175.3574h3.1357v1.2481a4.6411,4.6411,0,0,1,3.6475-1.6006,4.5027,4.5027,0,0,1,3.9677,1.8242c.5118.7354.8321,1.6641.8321,3.7432v8.2558h-3.1358v-7.4873c0-3.4238-1.28-3.5195-2.4638-3.5195-1.4082,0-2.8477.1914-2.8477,4.543v6.4638h-3.1357Z"/><path class="cls-7" d="M248.6826,165.502h3.1358v23.3261h-3.1358V187.42a5.1706,5.1706,0,0,1-4.0312,1.8242c-4.16,0-6.5274-3.456-6.5274-7.1679,0-4.3828,3.0078-7.0713,6.56-7.0713a4.91,4.91,0,0,1,3.999,1.92Zm-7.3594,16.6386c0,2.336,1.4717,4.2881,3.7442,4.2881,1.9834,0,3.8076-1.44,3.8076-4.2558,0-2.9444-1.8242-4.3516-3.8076-4.3516C242.7949,177.8213,241.3232,179.7412,241.3232,182.1406Z"/><path class="cls-7" d="M267.8506,185.7559a7.0658,7.0658,0,0,1-2.2715,2.4638,7.411,7.411,0,0,1-3.9678,1.0244,5.9761,5.9761,0,0,1-4.5439-1.7275,7.23,7.23,0,0,1-1.9834-5.1523,7.8944,7.8944,0,0,1,2.1435-5.5352,6.137,6.137,0,0,1,4.5118-1.8242,5.799,5.799,0,0,1,4.3193,1.76,8.0876,8.0876,0,0,1,1.8877,5.6963v.3838h-9.6631a4.4564,4.4564,0,0,0,1.1523,2.72,3.2015,3.2015,0,0,0,2.3995.8642,3.2978,3.2978,0,0,0,2.1435-.6728,4.848,4.848,0,0,0,1.2481-1.4717Zm-3.1035-5.4707a3.2618,3.2618,0,0,0-.96-1.8243,3.271,3.271,0,0,0-4.3193.0957,3.5248,3.5248,0,0,0-.96,1.7286Z"/><path class="cls-7" d="M281.8027,196.1553H278.667V175.3574h3.1357v1.4717a5.0688,5.0688,0,0,1,4-1.8242c3.5518,0,6.56,2.72,6.56,7.0078,0,4.5439-3.3271,7.2314-6.5273,7.2314a5.3484,5.3484,0,0,1-4.0323-1.9843Zm-.1914-13.9824c0,2.8154,1.8242,4.2558,3.8076,4.2558,2.2715,0,3.7442-1.9521,3.7442-4.2881,0-2.3994-1.4727-4.3193-3.7442-4.3193C283.4355,177.8213,281.6113,179.2285,281.6113,182.1729Z"/><path class="cls-7" d="M295.627,175.3574h3.1367v1.2158a5.4067,5.4067,0,0,1,1.3115-1.12,3.6249,3.6249,0,0,1,1.92-.4482,4.6479,4.6479,0,0,1,2.4639.6406l-1.28,2.8477a2.8365,2.8365,0,0,0-1.6-.4805,2.4459,2.4459,0,0,0-1.9521.7363,4.3423,4.3423,0,0,0-.8633,3.1035v6.9756H295.627Z"/><path class="cls-7" d="M307.8193,167.7734a2.0162,2.0162,0,1,1-2.0156,2.0157A1.9682,1.9682,0,0,1,307.8193,167.7734Zm1.5674,7.584v13.4707H306.251V175.3574Z"/><path class="cls-7" d="M315.083,175.3574l3.4561,7.6787,3.455-7.6787h3.52l-6.9746,14.4307-6.9756-14.4307Z"/><path class="cls-7" d="M337.2256,175.3574h3.1357v13.4707h-3.1357V187.42a5.1707,5.1707,0,0,1-4.0313,1.8242c-4.16,0-6.5273-3.456-6.5273-7.1679,0-4.3828,3.0078-7.0713,6.56-7.0713a4.91,4.91,0,0,1,3.999,1.92Zm-7.3594,6.7832c0,2.336,1.4717,4.2881,3.7442,4.2881,1.9834,0,3.8076-1.44,3.8076-4.2558,0-2.9444-1.8242-4.3516-3.8076-4.3516C331.3379,177.8213,329.8662,179.7412,329.8662,182.1406Z"/><path class="cls-7" d="M347.5635,178.2373v10.5908h-3.1358V178.2373h-1.3125v-2.88h1.3125V170.43h3.1358v4.9277h2.3994v2.88Z"/><path class="cls-7" d="M364.1367,185.7559a7.0658,7.0658,0,0,1-2.2715,2.4638,7.4109,7.4109,0,0,1-3.9677,1.0244,5.9763,5.9763,0,0,1-4.544-1.7275,7.23,7.23,0,0,1-1.9834-5.1523,7.8945,7.8945,0,0,1,2.1436-5.5352,6.1367,6.1367,0,0,1,4.5117-1.8242,5.799,5.799,0,0,1,4.3193,1.76,8.0876,8.0876,0,0,1,1.8877,5.6963v.3838h-9.6631a4.4559,4.4559,0,0,0,1.1524,2.72,3.2011,3.2011,0,0,0,2.3994.8642,3.2976,3.2976,0,0,0,2.1435-.6728,4.848,4.848,0,0,0,1.2481-1.4717Zm-3.1035-5.4707a3.2612,3.2612,0,0,0-.96-1.8243,3.271,3.271,0,0,0-4.3193.0957,3.5256,3.5256,0,0,0-.96,1.7286Z"/><path class="cls-7" d="M102.2246,215.3252a4.9084,4.9084,0,0,1,3.999-1.92c3.5518,0,6.56,2.6885,6.56,7.0713,0,3.7119-2.3672,7.1679-6.5273,7.1679a5.1694,5.1694,0,0,1-4.0313-1.8242v1.4082H99.0879V203.9023h3.1367Zm-.1924,5.248c0,2.8155,1.8242,4.2559,3.8076,4.2559,2.2715,0,3.7442-1.9521,3.7442-4.2881,0-2.3994-1.4727-4.3193-3.7442-4.3193C103.8564,216.2217,102.0322,217.6289,102.0322,220.5732Z"/><path class="cls-7" d="M117.6162,206.1738a2.0162,2.0162,0,1,1-2.0156,2.0157A1.9681,1.9681,0,0,1,117.6162,206.1738Zm1.5674,7.584v13.4707h-3.1357V213.7578Z"/><path class="cls-7" d="M126.2871,203.9023v23.3262h-3.1357V203.9023Z"/><path class="cls-7" d="M133.3906,203.9023v23.3262h-3.1357V203.9023Z"/><path class="cls-7" d="M149.4219,224.1562A7.0653,7.0653,0,0,1,147.15,226.62a7.411,7.411,0,0,1-3.9678,1.0244,5.9759,5.9759,0,0,1-4.5439-1.7275,7.23,7.23,0,0,1-1.9834-5.1524,7.894,7.894,0,0,1,2.1435-5.5351,6.1367,6.1367,0,0,1,4.5117-1.8242,5.799,5.799,0,0,1,4.3194,1.76,8.0876,8.0876,0,0,1,1.8877,5.6963v.3838h-9.6631a4.4553,4.4553,0,0,0,1.1523,2.72,3.2011,3.2011,0,0,0,2.3994.8643,3.2974,3.2974,0,0,0,2.1436-.6729,4.8465,4.8465,0,0,0,1.2481-1.4716Zm-3.1035-5.4707a3.2619,3.2619,0,0,0-.96-1.8242,3.271,3.271,0,0,0-4.3193.0957,3.5245,3.5245,0,0,0-.96,1.7285Z"/><path class="cls-7" d="M162.6377,203.9023h3.1357v23.3262h-3.1357V225.82a5.1707,5.1707,0,0,1-4.0313,1.8242c-4.16,0-6.5273-3.456-6.5273-7.1679,0-4.3828,3.0078-7.0713,6.56-7.0713a4.91,4.91,0,0,1,3.999,1.92Zm-7.3594,16.6387c0,2.336,1.4717,4.2881,3.7442,4.2881,1.9834,0,3.8076-1.44,3.8076-4.2559,0-2.9443-1.8242-4.3515-3.8076-4.3515C156.75,216.2217,155.2783,218.1416,155.2783,220.541Z"/><path class="cls-7" d="M181.8057,224.1562a7.0653,7.0653,0,0,1-2.2715,2.4639,7.411,7.411,0,0,1-3.9678,1.0244,5.9759,5.9759,0,0,1-4.5439-1.7275,7.23,7.23,0,0,1-1.9834-5.1524,7.894,7.894,0,0,1,2.1435-5.5351,6.1367,6.1367,0,0,1,4.5117-1.8242,5.799,5.799,0,0,1,4.3194,1.76,8.0876,8.0876,0,0,1,1.8877,5.6963v.3838h-9.6631a4.4553,4.4553,0,0,0,1.1523,2.72,3.2011,3.2011,0,0,0,2.3994.8643,3.2975,3.2975,0,0,0,2.1436-.6729,4.8461,4.8461,0,0,0,1.248-1.4716Zm-3.1036-5.4707a3.2611,3.2611,0,0,0-.96-1.8242,3.271,3.271,0,0,0-4.3193.0957,3.5245,3.5245,0,0,0-.96,1.7285Z"/><path class="cls-7" d="M185.166,213.7578h3.1367v1.2158a5.4071,5.4071,0,0,1,1.3116-1.12,3.6249,3.6249,0,0,1,1.92-.4482,4.6473,4.6473,0,0,1,2.4638.6406l-1.28,2.8477a2.8365,2.8365,0,0,0-1.6-.4805,2.4461,2.4461,0,0,0-1.9522.7363,4.3422,4.3422,0,0,0-.8633,3.1035v6.9756H185.166Z"/><path class="cls-7" d="M213.1006,213.7578h3.1357v13.4707h-3.1357V225.82a5.1707,5.1707,0,0,1-4.0313,1.8242c-4.16,0-6.5273-3.456-6.5273-7.1679,0-4.3828,3.0078-7.0713,6.56-7.0713a4.91,4.91,0,0,1,3.999,1.92Zm-7.3594,6.7832c0,2.336,1.4717,4.2881,3.7442,4.2881,1.9834,0,3.8076-1.44,3.8076-4.2559,0-2.9443-1.8242-4.3515-3.8076-4.3515C207.2129,216.2217,205.7412,218.1416,205.7412,220.541Z"/><path class="cls-7" d="M223.6611,216.6377v10.5908h-3.1357V216.6377h-1.3438v-2.88h1.3438v-4.6719a5.9648,5.9648,0,0,1,1.3125-4.2236,4.2167,4.2167,0,0,1,3.1992-1.3125,5.0107,5.0107,0,0,1,2.0156.3848v3.1035a2.7085,2.7085,0,0,0-1.5039-.48,1.82,1.82,0,0,0-1.3759.5127,2.2252,2.2252,0,0,0-.5118,1.6v5.0879h3.3916v2.88Z"/><path class="cls-7" d="M236.3,203.9023h3.1357v11.0069a4.8445,4.8445,0,0,1,3.6163-1.5039A4.5813,4.5813,0,0,1,247.02,215.23a6.6289,6.6289,0,0,1,.8643,3.7432v8.2558H244.748v-7.9678a3.2449,3.2449,0,0,0-.6084-2.3359,2.3631,2.3631,0,0,0-1.76-.7031,2.783,2.783,0,0,0-2.3037,1.1191,6.0334,6.0334,0,0,0-.6407,3.3926v6.4951H236.3Z"/><path class="cls-7" d="M253.42,206.1738a2.0162,2.0162,0,1,1-2.0156,2.0157A1.9681,1.9681,0,0,1,253.42,206.1738Zm1.5684,7.584v13.4707h-3.1367V213.7578Z"/><path class="cls-7" d="M258.9238,213.7578H262.06v1.2481a4.6409,4.6409,0,0,1,3.6474-1.6006,4.503,4.503,0,0,1,3.9678,1.8242c.5117.7353.832,1.6641.832,3.7432v8.2558h-3.1357v-7.4873c0-3.4238-1.28-3.5195-2.4639-3.5195-1.4082,0-2.8476.1914-2.8476,4.5429v6.4639h-3.1358Z"/><path class="cls-7" d="M284.33,213.7578h3.1357v13.4707H284.33V225.82a5.1707,5.1707,0,0,1-4.0313,1.8242c-4.16,0-6.5273-3.456-6.5273-7.1679,0-4.3828,3.0078-7.0713,6.56-7.0713a4.91,4.91,0,0,1,3.999,1.92Zm-7.3594,6.7832c0,2.336,1.4717,4.2881,3.7441,4.2881,1.9834,0,3.8077-1.44,3.8077-4.2559,0-2.9443-1.8243-4.3515-3.8077-4.3515C278.4424,216.2217,276.9707,218.1416,276.9707,220.541Z"/><path class="cls-7" d="M291.4033,213.7578h3.1358v1.2481a4.6408,4.6408,0,0,1,3.6474-1.6006,4.503,4.503,0,0,1,3.9678,1.8242c.5117.7353.832,1.6641.832,3.7432v8.2558h-3.1357v-7.4873c0-3.4238-1.28-3.5195-2.4639-3.5195-1.4082,0-2.8476.1914-2.8476,4.5429v6.4639h-3.1358Z"/><path class="cls-7" d="M316.81,203.9023h3.1357v23.3262H316.81V225.82a5.1707,5.1707,0,0,1-4.0313,1.8242c-4.16,0-6.5273-3.456-6.5273-7.1679,0-4.3828,3.0078-7.0713,6.56-7.0713a4.91,4.91,0,0,1,3.9991,1.92ZM309.45,220.541c0,2.336,1.4717,4.2881,3.7441,4.2881,1.9834,0,3.8077-1.44,3.8077-4.2559,0-2.9443-1.8243-4.3515-3.8077-4.3515C310.9219,216.2217,309.45,218.1416,309.45,220.541Z"/><path class="cls-7" d="M335.9775,224.1562a7.065,7.065,0,0,1-2.2714,2.4639,7.4113,7.4113,0,0,1-3.9678,1.0244,5.9763,5.9763,0,0,1-4.544-1.7275,7.23,7.23,0,0,1-1.9834-5.1524,7.8941,7.8941,0,0,1,2.1436-5.5351,6.1367,6.1367,0,0,1,4.5117-1.8242,5.7988,5.7988,0,0,1,4.3193,1.76,8.0871,8.0871,0,0,1,1.8877,5.6963v.3838H326.41a4.4547,4.4547,0,0,0,1.1523,2.72,3.201,3.201,0,0,0,2.3994.8643,3.2975,3.2975,0,0,0,2.1436-.6729,4.8475,4.8475,0,0,0,1.248-1.4716Zm-3.1035-5.4707a3.2611,3.2611,0,0,0-.96-1.8242,3.2712,3.2712,0,0,0-4.3194.0957,3.5243,3.5243,0,0,0-.96,1.7285Z"/><path class="cls-7" d="M339.3066,213.7578h3.1358v1.2481a4.6409,4.6409,0,0,1,3.6474-1.6006,4.503,4.503,0,0,1,3.9678,1.8242c.5117.7353.832,1.6641.832,3.7432v8.2558h-3.1357v-7.4873c0-3.4238-1.28-3.5195-2.4639-3.5195-1.4082,0-2.8476.1914-2.8476,4.5429v6.4639h-3.1358Z"/><path class="cls-7" d="M362.3135,213.7578h3.1357v1.2158a5.4318,5.4318,0,0,1,1.3125-1.12,3.6249,3.6249,0,0,1,1.92-.4482,4.6479,4.6479,0,0,1,2.4639.6406l-1.28,2.8477a2.8365,2.8365,0,0,0-1.6-.4805,2.446,2.446,0,0,0-1.9521.7363,4.3385,4.3385,0,0,0-.8643,3.1035v6.9756h-3.1357Z"/><path class="cls-7" d="M375.752,213.7578v7.711a3.8771,3.8771,0,0,0,.5761,2.4316,2.7222,2.7222,0,0,0,4.0957,0A3.8765,3.8765,0,0,0,381,221.4688v-7.711h3.1357v7.8067c0,1.7285-.1923,3.1679-1.4394,4.416a6.1442,6.1442,0,0,1-4.3838,1.664,5.9181,5.9181,0,0,1-4.2559-1.664c-1.248-1.2481-1.44-2.6875-1.44-4.416v-7.8067Z"/><path class="cls-7" d="M388.0732,213.7578h3.1358v1.2481a4.6409,4.6409,0,0,1,3.6474-1.6006,4.503,4.503,0,0,1,3.9678,1.8242c.5117.7353.832,1.6641.832,3.7432v8.2558h-3.1357v-7.4873c0-3.4238-1.28-3.5195-2.4639-3.5195-1.4082,0-2.8476.1914-2.8476,4.5429v6.4639h-3.1358Z"/><path class="cls-7" d="M413.48,203.9023h3.1357v23.3262H413.48V225.82a5.1707,5.1707,0,0,1-4.0313,1.8242c-4.16,0-6.5273-3.456-6.5273-7.1679,0-4.3828,3.0078-7.0713,6.56-7.0713a4.91,4.91,0,0,1,3.999,1.92ZM406.12,220.541c0,2.336,1.4717,4.2881,3.7442,4.2881,1.9834,0,3.8076-1.44,3.8076-4.2559,0-2.9443-1.8242-4.3515-3.8076-4.3515C407.5918,216.2217,406.12,218.1416,406.12,220.541Z"/><path class="cls-7" d="M423.8174,216.6377v10.5908h-3.1358V216.6377h-1.3125v-2.88h1.3125V208.83h3.1358v4.9277h2.3994v2.88Z"/><path class="cls-7" d="M100.6562,244.5732a2.0162,2.0162,0,1,1-2.0156,2.0157A1.9682,1.9682,0,0,1,100.6562,244.5732Zm1.5684,7.584v13.4707H99.0879V252.1572Z"/><path class="cls-7" d="M116.7832,242.3018v14.3671l4.3838-4.5117h4.16l-5.7919,5.6,6.208,7.8711h-3.9678l-4.416-5.76-.5762.5761v5.1836h-3.1357V242.3018Z"/><path class="cls-7" d="M130.9277,242.3018v23.3261H127.791V242.3018Z"/><path class="cls-7" d="M144.75,252.1572h3.1357v13.4707H144.75V264.22a5.1706,5.1706,0,0,1-4.0312,1.8242c-4.16,0-6.5274-3.456-6.5274-7.1679,0-4.3828,3.0078-7.0713,6.56-7.0713a4.91,4.91,0,0,1,3.999,1.92Zm-7.3594,6.7832c0,2.336,1.4717,4.2881,3.7442,4.2881,1.9834,0,3.8076-1.44,3.8076-4.2558,0-2.9444-1.8242-4.3516-3.8076-4.3516C138.8623,254.6211,137.3906,256.541,137.3906,258.94Z"/><path class="cls-7" d="M157.7422,255.709a2.2537,2.2537,0,0,0-1.92-1.1524,1.33,1.33,0,0,0-.96.3526,1.014,1.014,0,0,0-.2871.7031.8617.8617,0,0,0,.4473.7686c.1923.1279.3837.1914,1.0566.5439l1.6.8a6.4509,6.4509,0,0,1,1.8877,1.2481,3.3215,3.3215,0,0,1,.9922,2.4951,4.4708,4.4708,0,0,1-1.1846,3.0722,4.8073,4.8073,0,0,1-3.7754,1.5039,4.6359,4.6359,0,0,1-2.9121-.8642,5.2546,5.2546,0,0,1-1.7275-2.4639l2.56-1.2158a3.5449,3.5449,0,0,0,.7363,1.28,1.9214,1.9214,0,0,0,1.376.5117,1.8853,1.8853,0,0,0,1.2793-.4482,1.5847,1.5847,0,0,0,.4482-1.0557,1.4506,1.4506,0,0,0-.416-1.0235,4.1125,4.1125,0,0,0-1.3438-.832l-1.1523-.5439a6.6582,6.6582,0,0,1-1.8555-1.1524,2.9366,2.9366,0,0,1-.96-2.2715,4.2053,4.2053,0,0,1,1.12-2.88,4.3412,4.3412,0,0,1,3.2959-1.28,4.2146,4.2146,0,0,1,2.4951.7041,4.6191,4.6191,0,0,1,1.5361,1.6641Z"/><path class="cls-7" d="M169.2617,255.709a2.2537,2.2537,0,0,0-1.92-1.1524,1.33,1.33,0,0,0-.96.3526,1.0144,1.0144,0,0,0-.2871.7031.8617.8617,0,0,0,.4473.7686c.1924.1279.3838.1914,1.0566.5439l1.6.8a6.4509,6.4509,0,0,1,1.8877,1.2481,3.3211,3.3211,0,0,1,.9922,2.4951,4.4712,4.4712,0,0,1-1.1845,3.0722,4.8075,4.8075,0,0,1-3.7754,1.5039,4.6355,4.6355,0,0,1-2.9121-.8642,5.2548,5.2548,0,0,1-1.7276-2.4639l2.56-1.2158a3.5449,3.5449,0,0,0,.7363,1.28,1.9216,1.9216,0,0,0,1.376.5117,1.8851,1.8851,0,0,0,1.2793-.4482,1.5847,1.5847,0,0,0,.4482-1.0557,1.4506,1.4506,0,0,0-.416-1.0235,4.1131,4.1131,0,0,0-1.3437-.832l-1.1524-.5439a6.6577,6.6577,0,0,1-1.8554-1.1524,2.9363,2.9363,0,0,1-.96-2.2715,4.2053,4.2053,0,0,1,1.12-2.88,4.3412,4.3412,0,0,1,3.2959-1.28,4.2144,4.2144,0,0,1,2.4951.7041,4.6183,4.6183,0,0,1,1.5362,1.6641Z"/><path class="cls-7" d="M186.957,262.5566a7.07,7.07,0,0,1-2.2715,2.4629,7.4107,7.4107,0,0,1-3.9677,1.0244,5.9763,5.9763,0,0,1-4.544-1.7275,7.23,7.23,0,0,1-1.9834-5.1523,7.8945,7.8945,0,0,1,2.1436-5.5352,6.1367,6.1367,0,0,1,4.5117-1.8242,5.7984,5.7984,0,0,1,4.3193,1.76,8.0867,8.0867,0,0,1,1.8877,5.6962v.3838H177.39a4.4559,4.4559,0,0,0,1.1524,2.72,3.2011,3.2011,0,0,0,2.3994.8642,3.3025,3.3025,0,0,0,2.1436-.6719,4.8626,4.8626,0,0,0,1.248-1.4726Zm-3.1035-5.4716a3.2617,3.2617,0,0,0-.96-1.8243,3.2712,3.2712,0,0,0-4.3194.0957,3.52,3.52,0,0,0-.96,1.7286Z"/><path class="cls-7" d="M190.2861,252.1572h3.1358v1.2481a4.6409,4.6409,0,0,1,3.6474-1.6006,4.503,4.503,0,0,1,3.9678,1.8242c.5117.7363.832,1.6641.832,3.7432v8.2558h-3.1357v-7.4873c0-3.4238-1.28-3.5195-2.4639-3.5195-1.4082,0-2.8476.1914-2.8476,4.543v6.4638h-3.1358Z"/><path class="cls-7" d="M207.6934,262.1719a1.92,1.92,0,1,1-1.92,1.92A1.9259,1.9259,0,0,1,207.6934,262.1719Z"/></svg>
