<svg id="Levelcomplete" xmlns="http://www.w3.org/2000/svg" xmlns:xlink="http://www.w3.org/1999/xlink" width="490" height="420" viewBox="0 0 490 420"><defs><style>.cls-1{fill:#e9eced;}.cls-2{clip-path:url(#clip-path);}.cls-3{fill:#e5e5e5;}.cls-4{fill:#f4912d;}.cls-5{fill:#152230;}.cls-6{fill:#fff;}</style><clipPath id="clip-path"><rect class="cls-1" x="-61.9366" y="-1297.4221" width="1920" height="1080"/></clipPath></defs><title>introscreenpopup1</title><rect class="cls-1" x="-61.9366" y="-1297.4221" width="1920" height="1080"/><g class="cls-2"><rect class="cls-3" x="-38.9944" y="-629.5845" width="2099.9481" height="727.832" transform="translate(144.703 319.331) rotate(-19.3078)"/></g><path class="cls-4" d="M32.0613,101.487l359.2273,1.9548a12.2444,12.2444,0,0,1,12.2343,12.2539l-1.22,224.2227a12.2444,12.2444,0,0,1-12.3669,12.12l-59.3127-.3227L330.42,389.005,263.317,351.3493,30.7086,350.0835A12.2443,12.2443,0,0,1,18.4743,337.83l1.22-224.2227A12.2445,12.2445,0,0,1,32.0613,101.487Z"/><rect class="cls-5" x="47.1034" y="19.2535" width="409.604" height="86.0022" rx="9.0692" transform="translate(503.4683 125.8791) rotate(-179.6882)"/><polyline class="cls-5" points="436.06 134.478 436.228 103.572 391.471 103.328"/><path class="cls-6" d="M84.9805,49.0918l3.457.0186-.07,12.913.1191.001c.7217-1.0293,1.4414-1.9785,2.1221-2.85L98.8467,49.167l4.291.0234L93.3809,60.501l10.3662,15.4726-4.0918-.0224L90.9062,62.752l-2.5595,2.9267L88.292,75.89l-3.457-.0185Z"/><path class="cls-6" d="M106.9941,56.76l4.15,11.3867c.4306,1.2734.8994,2.7861,1.21,3.94h.08c.3643-1.15.77-2.6181,1.2539-4.0058l3.876-11.2637,3.6953.02-5.32,13.6787c-2.5381,6.583-4.2656,9.95-6.6612,12.0039a9.4743,9.4743,0,0,1-4.3027,2.2412l-.8584-2.9453a9.2394,9.2394,0,0,0,3.0693-1.6924,10.6038,10.6038,0,0,0,2.961-3.8769,2.5252,2.5252,0,0,0,.2822-.833,3.0233,3.0233,0,0,0-.2334-.9151l-7.0156-17.76Z"/><path class="cls-6" d="M124.4893,47.876l3.497.0185-.1533,28.21-3.4971-.0186Z"/><path class="cls-6" d="M137.7432,51.5244a2.1657,2.1657,0,0,1-4.3311-.0244,2.1291,2.1291,0,0,1,2.1963-2.1729A2.0758,2.0758,0,0,1,137.7432,51.5244Zm-4.0284,24.6123.1045-19.2305,3.4971.0186-.1045,19.2305Z"/><path class="cls-6" d="M145.01,67.2188c.0527,4.7275,3.0615,6.6914,6.5586,6.71a12.6368,12.6368,0,0,0,5.33-.9639l.5821,2.5059a15.5671,15.5671,0,0,1-6.4034,1.1582c-5.9209-.0322-9.4355-3.9463-9.4042-9.7471s3.4736-10.3506,9.0761-10.32c6.2783.0342,7.917,5.5655,7.8985,9.1016a13.3466,13.3466,0,0,1-.128,1.6289Zm10.2646-2.4473c.0518-2.2246-.8838-5.6865-4.8174-5.708-3.5361-.02-5.1035,3.23-5.3935,5.6523Z"/><path class="cls-6" d="M177.0957,49.5928l3.457.0185-.0976,17.919c-.0391,7.1123-3.5479,9.2793-8.1563,9.2539a11.1916,11.1916,0,0,1-3.6914-.6563l.5313-2.8183a8.2374,8.2374,0,0,0,2.8984.5322c3.0986.0176,4.9336-1.3633,4.9619-6.6084Z"/><path class="cls-6" d="M188.0479,67.4521c.0527,4.7286,3.0615,6.6924,6.5576,6.711a12.6525,12.6525,0,0,0,5.33-.9639l.5821,2.5059a15.57,15.57,0,0,1-6.4033,1.1572c-5.92-.0322-9.4346-3.9453-9.4034-9.7461s3.4737-10.3506,9.0752-10.32c6.2784.0342,7.917,5.5654,7.8985,9.1016a13.3262,13.3262,0,0,1-.128,1.6289Zm10.2636-2.4472c.0518-2.2237-.8838-5.6865-4.8174-5.708-3.5361-.0186-5.1025,3.23-5.3925,5.6533Z"/><path class="cls-6" d="M206.0361,62.5039c.0108-1.9863-.02-3.6152-.1308-5.206l3.1.0175.1816,3.18h.0791a7.0724,7.0724,0,0,1,6.377-3.58c2.6621.0147,6.7851,1.626,6.75,8.2217L222.33,76.6191l-3.4961-.02.06-11.085c.0175-3.0986-1.1211-5.6875-4.419-5.706a4.9666,4.9666,0,0,0-4.708,3.5508,5.026,5.026,0,0,0-.2471,1.6279l-.0625,11.5615-3.497-.0195Z"/><path class="cls-6" d="M228.0918,62.624c.0107-1.9863-.0195-3.6152-.1309-5.206l3.1.0175.1807,3.18h.08a7.07,7.07,0,0,1,6.3769-3.58c2.6622.0136,6.7852,1.625,6.75,8.2207l-.0625,11.4824L240.89,76.72l.06-11.0849c.0176-3.0987-1.1211-5.6875-4.4189-5.7061a4.9667,4.9667,0,0,0-4.708,3.5508,5.0206,5.0206,0,0,0-.2471,1.6279l-.0625,11.5615-3.4971-.0195Z"/><path class="cls-6" d="M252.0674,67.8008c.0527,4.7275,3.0615,6.6914,6.5586,6.7109a12.6356,12.6356,0,0,0,5.33-.9648l.582,2.5068a15.57,15.57,0,0,1-6.4033,1.1572c-5.9209-.0322-9.4356-3.9463-9.4043-9.747s3.4736-10.3506,9.0761-10.3194c6.2784.0342,7.917,5.5655,7.8985,9.1016a13.306,13.306,0,0,1-.128,1.6279Zm10.2646-2.4473c.0518-2.2246-.8838-5.6865-4.8174-5.708-3.5361-.02-5.1035,3.23-5.3935,5.6524Z"/><path class="cls-6" d="M270.0527,63.6475c.0127-2.2647-.0166-4.212-.1259-6.001l3.06.0166.0987,3.7764.1591.0009a5.77,5.77,0,0,1,5.3467-4.1836,3.7856,3.7856,0,0,1,.9932.125l-.0176,3.2979a5.2384,5.2384,0,0,0-1.1914-.126c-2.4639-.0127-4.2227,1.8447-4.7129,4.4639a9.7286,9.7286,0,0,0-.168,1.6289l-.0556,10.25-3.4571-.0186Z"/><path class="cls-6" d="M282.51,74.92a2.3677,2.3677,0,1,1,4.7275.0254A2.3658,2.3658,0,1,1,282.51,74.92Zm.0761-14.0254a2.3677,2.3677,0,1,1,4.7276.0254,2.3659,2.3659,0,1,1-4.7276-.0254Z"/><path class="cls-6" d="M44.2773,135.1143l9.1514.05.0459-8.4473,3.2637.0186-.1153,21.3427-3.2636-.0185.0527-9.8233-9.1514-.05L44.208,148.01l-3.2637-.0176.1153-21.3428,3.2636.0176Z"/><path class="cls-6" d="M71.0967,134.6855l3.1357.0166-.0732,13.4708-3.1358-.0167.0069-1.4082a5.1686,5.1686,0,0,1-4.041,1.8018c-4.16-.0225-6.5088-3.4912-6.4883-7.2031.0244-4.3828,3.0469-7.0547,6.5986-7.0352a4.9081,4.9081,0,0,1,3.9883,1.9414ZM63.7,141.4287c-.0127,2.3359,1.4482,4.2959,3.7207,4.3086,1.9834.0107,3.8154-1.42,3.8311-4.2353.0156-2.9444-1.8008-4.3614-3.7842-4.3721C65.1953,137.1172,63.7129,139.0293,63.7,141.4287Z"/><path class="cls-6" d="M78.2012,134.7236l3.1367.0176-.0068,1.2158a5.4206,5.4206,0,0,1,1.3173-1.1132,3.631,3.631,0,0,1,1.9229-.4376,4.6438,4.6438,0,0,1,2.46.6543l-1.2958,2.8409a2.8285,2.8285,0,0,0-1.5967-.4893,2.4429,2.4429,0,0,0-1.9561.7256,4.3383,4.3383,0,0,0-.8808,3.0986l-.0372,6.9756-3.1367-.0176Z"/><path class="cls-6" d="M106.1875,125.0205l3.1357.0176-.1259,23.3262-3.1358-.0176.0069-1.4082a5.1739,5.1739,0,0,1-4.0411,1.8027c-4.16-.0234-6.5087-3.4922-6.4882-7.2041.0244-4.3828,3.0468-7.0547,6.5986-7.0351a4.9078,4.9078,0,0,1,3.9883,1.9414Zm-7.4492,16.5986c-.0127,2.336,1.4482,4.2959,3.7207,4.3086,1.9834.0108,3.8154-1.42,3.831-4.2353.0157-2.9444-1.8007-4.3613-3.7841-4.3721C100.2334,137.3076,98.751,139.22,98.7383,141.6191Z"/><path class="cls-6" d="M116.376,134.9316l-.042,7.711a3.8723,3.8723,0,0,0,.5615,2.4345,2.7212,2.7212,0,0,0,4.0957.0225,3.8808,3.8808,0,0,0,.59-2.4287l.0419-7.7109,3.1358.0175-.043,7.8067c-.01,1.7285-.209,3.167-1.4638,4.4082a6.14,6.14,0,0,1-4.3926,1.64,5.92,5.92,0,0,1-4.2471-1.6865c-1.2412-1.2549-1.4258-2.6953-1.416-4.4238l.043-7.8067Z"/><path class="cls-6" d="M136.15,135.0391l3.1357.0175-.0068,1.2481a4.6406,4.6406,0,0,1,3.6562-1.5811,4.5012,4.5012,0,0,1,3.9571,1.8457c.5078.7383.8232,1.669.8115,3.7481l-.0439,8.2558-3.1358-.0175.04-7.4873c.0185-3.4239-1.2608-3.5264-2.4444-3.5323-1.4082-.0078-2.8486.1758-2.8721,4.5274l-.0351,6.4638-3.1358-.0175Z"/><path class="cls-6" d="M165.3594,141.9492a7.2,7.2,0,1,1-7.16-7.1426A6.9991,6.9991,0,0,1,165.3594,141.9492Zm-3.1992.0147c.0166-3.0723-1.9932-4.33-3.9766-4.3409s-4.0068,1.2256-4.0234,4.2979c-.0147,2.5918,1.5127,4.2959,3.9765,4.31S162.1455,144.5557,162.16,141.9639Z"/><path class="cls-6" d="M178.5166,135.27l3.1357.0176L181.585,147.67c-.0176,3.168-.3819,5.4375-2.2461,6.9951a6.8366,6.8366,0,0,1-4.4873,1.4151,5.9472,5.9472,0,0,1-4.4063-1.6875,7.5762,7.5762,0,0,1-1.9619-4.2022l3.04.0166a4.4608,4.4608,0,0,0,.98,2.1172,3.21,3.21,0,0,0,2.4268.9414,3.3712,3.3712,0,0,0,2.4687-.8828,4.4355,4.4355,0,0,0,1.042-3.3867l.01-1.76a4.877,4.877,0,0,1-4.1065,1.8975,5.7123,5.7123,0,0,1-4.4375-1.8477,7.6173,7.6173,0,0,1-1.9863-5.3554,7.1566,7.1566,0,0,1,2.0117-5.2041,6.1317,6.1317,0,0,1,4.5869-1.8311,5.0631,5.0631,0,0,1,3.9883,1.8457Zm-6.002,3.3272a4.6843,4.6843,0,0,0-1.3945,3.416,4.6218,4.6218,0,0,0,1.3252,3.3994,3.671,3.671,0,0,0,2.3955.9092,3.4159,3.4159,0,0,0,2.63-1.0733,4.9818,4.9818,0,0,0-.0615-6.56,3.3259,3.3259,0,0,0-2.5215-.9736A3.2456,3.2456,0,0,0,172.5146,138.5967Z"/><path class="cls-6" d="M197.627,145.7725a7.0661,7.0661,0,0,1-2.2852,2.4511,7.4116,7.4116,0,0,1-3.9736,1.003,5.9726,5.9726,0,0,1-4.5332-1.752,7.2254,7.2254,0,0,1-1.9551-5.1631,7.89,7.89,0,0,1,2.1728-5.5234,6.1338,6.1338,0,0,1,4.5215-1.8,5.8011,5.8011,0,0,1,4.31,1.7832,8.0882,8.0882,0,0,1,1.8564,5.707l-.0019.3838-9.6631-.0527a4.4482,4.4482,0,0,0,1.1377,2.7256,3.2049,3.2049,0,0,0,2.3945.8779,3.3012,3.3012,0,0,0,2.1475-.6621,4.8344,4.8344,0,0,0,1.2558-1.4649Zm-3.0743-5.4873a3.26,3.26,0,0,0-.95-1.83,3.2725,3.2725,0,0,0-4.3193.0722,3.5258,3.5258,0,0,0-.97,1.7237Z"/><path class="cls-6" d="M201.0127,135.3926l3.1357.0166-.0068,1.248a4.644,4.644,0,0,1,3.6563-1.581,4.5009,4.5009,0,0,1,3.957,1.8457c.5078.7383.8232,1.6689.8115,3.748l-.0439,8.2559-3.1358-.0166.04-7.4873c.0185-3.4239-1.2608-3.5264-2.4444-3.5332-1.4082-.0078-2.8486.1758-2.872,4.5273l-.0352,6.4639-3.1357-.0166Z"/><path class="cls-6" d="M222.4316,139.0605a2.2548,2.2548,0,0,0-1.914-1.163,1.331,1.331,0,0,0-.9619.3476,1.0143,1.0143,0,0,0-.2911.7012.8631.8631,0,0,0,.4434.7715c.1914.1289.3828.1933,1.0537.55l1.5957.8086a6.4471,6.4471,0,0,1,1.8809,1.2578,3.3263,3.3263,0,0,1,.9785,2.501,4.473,4.473,0,0,1-1.2012,3.0654,4.81,4.81,0,0,1-3.7842,1.4834,4.6386,4.6386,0,0,1-2.9072-.88A5.2423,5.2423,0,0,1,215.61,146.03l2.5654-1.2022a3.5664,3.5664,0,0,0,.73,1.2852,1.9239,1.9239,0,0,0,1.374.5185,1.8792,1.8792,0,0,0,1.2812-.4414,1.5827,1.5827,0,0,0,.4541-1.0527,1.45,1.45,0,0,0-.41-1.0254,4.102,4.102,0,0,0-1.34-.84l-1.1494-.55a6.6732,6.6732,0,0,1-1.8486-1.1631,2.937,2.937,0,0,1-.9482-2.2764,4.2057,4.2057,0,0,1,1.1357-2.874,4.3436,4.3436,0,0,1,3.3037-1.2617,4.2135,4.2135,0,0,1,2.4912.7168,4.6227,4.6227,0,0,1,1.5264,1.6728Z"/><path class="cls-6" d="M229.6924,127.9639a2.0161,2.0161,0,1,1-2.0264,2.0049A1.9688,1.9688,0,0,1,229.6924,127.9639Zm1.5264,7.5927-.0733,13.4707L228.01,149.01l.0732-13.4707Z"/><path class="cls-6" d="M235.1553,135.5781l3.1357.0166-.0068,1.2481a4.6387,4.6387,0,0,1,3.6562-1.58,4.4965,4.4965,0,0,1,3.9571,1.8457c.5078.7383.8232,1.668.8115,3.7471l-.044,8.2558-3.1357-.0166.04-7.4873c.0186-3.4238-1.2607-3.5263-2.4443-3.5332-1.4082-.0078-2.8486.1758-2.8721,4.5274l-.0351,6.4638-3.1358-.0166Z"/><path class="cls-6" d="M260.6143,125.86l3.1357.0175-.126,23.3262-3.1357-.0176.0068-1.4082a5.17,5.17,0,0,1-4.041,1.8028c-4.16-.0225-6.5088-3.4922-6.4883-7.2041.0244-4.3829,3.0469-7.0547,6.5987-7.0352a4.9109,4.9109,0,0,1,3.9882,1.9414ZM253.165,142.459c-.0127,2.3359,1.4483,4.2969,3.7207,4.3086,1.9834.0107,3.8155-1.42,3.8311-4.2354.0156-2.9443-1.8008-4.3613-3.7842-4.372C254.66,138.1484,253.1777,140.06,253.165,142.459Z"/><path class="cls-6" d="M279.6729,146.2188a7.0661,7.0661,0,0,1-2.2852,2.4511,7.4116,7.4116,0,0,1-3.9736,1.003,5.9762,5.9762,0,0,1-4.5342-1.752,7.2254,7.2254,0,0,1-1.9551-5.1631,7.89,7.89,0,0,1,2.1729-5.5234,6.1374,6.1374,0,0,1,4.5224-1.8,5.8011,5.8011,0,0,1,4.31,1.7832,8.0882,8.0882,0,0,1,1.8564,5.707l-.0019.3838-9.6631-.0527a4.4477,4.4477,0,0,0,1.1377,2.7255,3.2046,3.2046,0,0,0,2.3945.878,3.3056,3.3056,0,0,0,2.1475-.6612,4.8491,4.8491,0,0,0,1.2558-1.4658Zm-3.0743-5.4874a3.26,3.26,0,0,0-.95-1.83,3.2722,3.2722,0,0,0-4.3193.0722,3.5258,3.5258,0,0,0-.97,1.7237Z"/><path class="cls-6" d="M293.9844,138.7783l-.0567,10.5908-3.1357-.0175.0576-10.5909-1.3437-.0068.0156-2.88,1.3437.0069.0254-4.6719a5.9621,5.9621,0,0,1,1.335-4.2168,4.2182,4.2182,0,0,1,3.206-1.2949,5.0272,5.0272,0,0,1,2.0137.3955l-.0166,3.1035a2.7157,2.7157,0,0,0-1.501-.4883,1.8229,1.8229,0,0,0-1.3789.5049,2.228,2.228,0,0,0-.5205,1.5976l-.0273,5.0879,3.3916.0176-.0156,2.88Z"/><path class="cls-6" d="M309.04,135.98l3.1358.0176-.0733,13.4707-3.1357-.0176.0068-1.4082a5.17,5.17,0,0,1-4.041,1.8027c-4.16-.0224-6.5088-3.4912-6.4883-7.2031.0245-4.3828,3.0469-7.0557,6.5987-7.0361a4.9106,4.9106,0,0,1,3.9882,1.9414Zm-7.3964,6.7432c-.0127,2.3359,1.4482,4.2968,3.7207,4.3085,1.9834.0108,3.8154-1.42,3.831-4.2353.0156-2.9443-1.8008-4.3613-3.7842-4.3721C303.1387,138.4121,301.6562,140.3232,301.6436,142.7227Zm3.6-14.8272a3.0078,3.0078,0,1,1-3.0235,2.9912A3.0472,3.0472,0,0,1,305.2432,127.8955Zm-.0235,4.3838a1.376,1.376,0,1,0-1.3681-1.3838A1.3663,1.3663,0,0,0,305.22,132.2793Z"/><path class="cls-6" d="M328.1514,146.4824a7.0664,7.0664,0,0,1-2.2852,2.4512,7.4125,7.4125,0,0,1-3.9736,1.0029,5.9757,5.9757,0,0,1-4.5342-1.7519,7.2258,7.2258,0,0,1-1.9551-5.1631,7.8914,7.8914,0,0,1,2.1729-5.5235,6.1381,6.1381,0,0,1,4.5224-1.8,5.8019,5.8019,0,0,1,4.31,1.7832,8.0876,8.0876,0,0,1,1.8564,5.7071l-.0019.3838L318.6,143.52a4.4462,4.4462,0,0,0,1.1377,2.7256,3.2044,3.2044,0,0,0,2.3945.8779,3.305,3.305,0,0,0,2.1475-.6611,4.86,4.86,0,0,0,1.2559-1.4648Zm-3.0743-5.4873a3.2551,3.2551,0,0,0-.95-1.8291,3.2709,3.2709,0,0,0-4.3194.0713,3.5255,3.5255,0,0,0-.97,1.7236Z"/><path class="cls-6" d="M334.7852,139l-.0577,10.5908-3.1357-.0176.0566-10.5908-1.3125-.0068.0166-2.88,1.3125.0068.0264-4.9277,3.1357.0176-.0263,4.9277,2.3994.0127-.0166,2.88Z"/><path class="cls-6" d="M50.1416,163.1162l3.1357.0166L53.15,186.458l-3.1358-.0166.0069-1.4082a5.1723,5.1723,0,0,1-4.041,1.8027c-4.16-.0234-6.5078-3.4921-6.4883-7.2041.0244-4.3828,3.0469-7.0547,6.5986-7.0351a4.9081,4.9081,0,0,1,3.9883,1.9414Zm-7.45,16.5977c-.0127,2.3359,1.4482,4.2959,3.7207,4.3086,1.9834.0107,3.8154-1.42,3.8311-4.2354.0156-2.9443-1.8008-4.3613-3.7842-4.3721C44.1865,175.4023,42.7041,177.3145,42.6914,179.7139Z"/><path class="cls-6" d="M69.1992,183.4746a7.0706,7.0706,0,0,1-2.2851,2.45,7.4126,7.4126,0,0,1-3.9737,1.0029,5.9759,5.9759,0,0,1-4.5342-1.7519,7.2257,7.2257,0,0,1-1.955-5.1631,7.89,7.89,0,0,1,2.1728-5.5234,6.1378,6.1378,0,0,1,4.5225-1.8,5.7976,5.7976,0,0,1,4.31,1.7832,8.0846,8.0846,0,0,1,1.8564,5.706l-.002.3838-9.663-.0527a4.4592,4.4592,0,0,0,1.1377,2.7265,3.2,3.2,0,0,0,2.3945.877,3.299,3.299,0,0,0,2.1474-.66,4.8614,4.8614,0,0,0,1.2559-1.4658Zm-3.0742-5.4892a3.2617,3.2617,0,0,0-.95-1.8292,3.27,3.27,0,0,0-4.3193.0723,3.5216,3.5216,0,0,0-.97,1.7236Z"/><path class="cls-6" d="M75.8057,163.2559l-.127,23.3252-3.1357-.0166.1269-23.3262Z"/><path class="cls-6" d="M82.9365,176.0293,82.8789,186.62l-3.1357-.0166.0576-10.5908-1.3125-.0078.0156-2.88,1.3125.0078.0264-4.9277,3.1357.0166-.0264,4.9277,2.4.0127-.0157,2.88Z"/><path class="cls-6" d="M106.9248,183.68a7.07,7.07,0,0,1-2.2852,2.45,7.412,7.412,0,0,1-3.9736,1.0029,5.9763,5.9763,0,0,1-4.5342-1.7519,7.2253,7.2253,0,0,1-1.955-5.1631,7.8909,7.8909,0,0,1,2.1728-5.5235,6.1384,6.1384,0,0,1,4.5225-1.8,5.8014,5.8014,0,0,1,4.31,1.7832,8.0859,8.0859,0,0,1,1.8565,5.7061l-.002.3838-9.6631-.0518a4.46,4.46,0,0,0,1.1377,2.7256,3.2,3.2,0,0,0,2.3946.877,3.3,3.3,0,0,0,2.1474-.66,4.8614,4.8614,0,0,0,1.2559-1.4658Zm-3.0742-5.4883a3.2613,3.2613,0,0,0-.95-1.83,3.2723,3.2723,0,0,0-4.3193.0723,3.5294,3.5294,0,0,0-.97,1.7236Z"/><path class="cls-6" d="M113.5586,176.1963l-.0576,10.5908-3.1358-.0176.0577-10.5908-1.3125-.0068.0156-2.88,1.3125.0068.0263-4.9277,3.1358.0176-.0264,4.9277,2.3994.0127-.0156,2.88Z"/><path class="cls-6" d="M128.668,174.9658a4.913,4.913,0,0,1,4.0107-1.8984c3.5518.02,6.5449,2.7246,6.52,7.1074-.0195,3.7119-2.4072,7.1543-6.5664,7.1318a5.1735,5.1735,0,0,1-4.0224-1.8457l-.0069,1.4082-3.1357-.0175.1269-23.3252,3.1358.0175Zm-.22,5.2471c-.0156,2.8154,1.8008,4.2656,3.7842,4.2764,2.2715.0127,3.7549-1.9317,3.7676-4.2676.0127-2.3994-1.4492-4.3272-3.7207-4.34C130.2959,175.8711,128.4639,177.2686,128.4482,180.2129Z"/><path class="cls-6" d="M144.11,165.8984a2.0162,2.0162,0,1,1-2.0264,2.0039A1.9681,1.9681,0,0,1,144.11,165.8984Zm1.5273,7.5918-.0732,13.4707-3.1368-.0166.0733-13.4707Z"/><path class="cls-6" d="M152.7949,163.6748,152.668,187l-3.1368-.0176.127-23.3252Z"/><path class="cls-6" d="M159.8984,163.7129l-.1269,23.3252-3.1367-.0166.1269-23.3252Z"/><path class="cls-6" d="M175.8184,184.0547a7.0718,7.0718,0,0,1-2.2852,2.45,7.4125,7.4125,0,0,1-3.9736,1.0029,5.9761,5.9761,0,0,1-4.5342-1.7519,7.2258,7.2258,0,0,1-1.9551-5.1631,7.891,7.891,0,0,1,2.1729-5.5235,6.1381,6.1381,0,0,1,4.5224-1.8,5.7978,5.7978,0,0,1,4.31,1.7832,8.0844,8.0844,0,0,1,1.8564,5.7061l-.0019.3838-9.6631-.0528a4.46,4.46,0,0,0,1.1377,2.7266,3.2,3.2,0,0,0,2.3945.877,3.3,3.3,0,0,0,2.1475-.66,4.873,4.873,0,0,0,1.2558-1.4658Zm-3.0743-5.4893a3.2611,3.2611,0,0,0-.95-1.8291,3.2693,3.2693,0,0,0-4.3193.0723,3.5215,3.5215,0,0,0-.97,1.7236Z"/><path class="cls-6" d="M189.1436,163.8721l3.1357.0175-.127,23.3252-3.1357-.0175.0068-1.4082a5.1661,5.1661,0,0,1-4.04,1.8027c-4.16-.0225-6.5078-3.4912-6.4883-7.2031.0244-4.3828,3.0469-7.0557,6.5987-7.0362a4.9084,4.9084,0,0,1,3.9873,1.9414ZM181.6943,180.47c-.0127,2.336,1.4483,4.2969,3.7207,4.3086,1.9834.0108,3.8145-1.42,3.83-4.2353.0156-2.9444-1.8-4.3614-3.7832-4.3721C183.19,176.1592,181.707,178.07,181.6943,180.47Z"/><path class="cls-6" d="M208.2012,184.2305a7.0718,7.0718,0,0,1-2.2852,2.45,7.4125,7.4125,0,0,1-3.9736,1.0029,5.9758,5.9758,0,0,1-4.5342-1.752,7.2256,7.2256,0,0,1-1.9551-5.163,7.8914,7.8914,0,0,1,2.1729-5.5235,6.1381,6.1381,0,0,1,4.5224-1.8,5.8015,5.8015,0,0,1,4.31,1.7832,8.088,8.088,0,0,1,1.8565,5.707l-.002.3838-9.6631-.0527a4.46,4.46,0,0,0,1.1377,2.7256,3.2051,3.2051,0,0,0,2.3945.8779,3.3111,3.3111,0,0,0,2.1475-.66,4.8661,4.8661,0,0,0,1.2559-1.4668Zm-3.0742-5.4883a3.2619,3.2619,0,0,0-.95-1.83,3.2725,3.2725,0,0,0-4.3194.0723,3.5206,3.5206,0,0,0-.97,1.7236Z"/><path class="cls-6" d="M228.9824,164.0889l3.1358.0175-.127,23.3252-3.1357-.0175.0068-1.4082a5.1692,5.1692,0,0,1-4.041,1.8027c-4.16-.0225-6.5078-3.4922-6.4883-7.2041.0244-4.3828,3.0469-7.0547,6.5986-7.0352a4.911,4.911,0,0,1,3.9883,1.9414Zm-7.45,16.5976c-.0127,2.336,1.4483,4.2959,3.7207,4.3086,1.9834.0108,3.8155-1.42,3.8311-4.2353.0156-2.9444-1.8008-4.3614-3.7842-4.3721C223.0273,176.375,221.5449,178.2871,221.5322,180.6865Z"/><path class="cls-6" d="M239.17,173.999l-.042,7.711a3.8761,3.8761,0,0,0,.5616,2.4355,2.7221,2.7221,0,0,0,4.0957.0215,3.8785,3.8785,0,0,0,.59-2.4277l.042-7.711,3.1357.0166-.0429,7.8067c-.0088,1.7285-.208,3.167-1.4629,4.4082a6.1494,6.1494,0,0,1-4.3936,1.6406,5.9169,5.9169,0,0,1-4.2461-1.6875c-1.2412-1.2549-1.4258-2.6953-1.417-4.4238l.043-7.8067Z"/><path class="cls-6" d="M260.585,166.5312a2.0162,2.0162,0,1,1-2.0264,2.0049A1.97,1.97,0,0,1,260.585,166.5312Zm1.5263,7.5928-.0732,13.4707-3.1358-.0166.0733-13.4707Z"/><path class="cls-6" d="M269.2686,164.3086l-.0782,14.3662,4.4082-4.4883,4.16.0225-5.8233,5.5683,6.1661,7.9053-3.9678-.0224-4.3848-5.7832-.58.5732-.0273,5.1836-3.1357-.0176.1269-23.3252Z"/><path class="cls-6" d="M283.4131,164.3848l-.0781,14.3662,4.4062-4.4873,4.16.0224-5.8233,5.5684,6.166,7.9043-3.9677-.0215-4.3838-5.7832-.5791.5723-.0274,5.1836-3.1367-.0166.127-23.3252Z"/><path class="cls-6" d="M306.0205,184.7627a7.0706,7.0706,0,0,1-2.2851,2.45,7.4126,7.4126,0,0,1-3.9737,1.0029,5.9759,5.9759,0,0,1-4.5342-1.7519,7.2253,7.2253,0,0,1-1.955-5.1631,7.8909,7.8909,0,0,1,2.1728-5.5235,6.1385,6.1385,0,0,1,4.5225-1.8,5.8018,5.8018,0,0,1,4.31,1.7832,8.0882,8.0882,0,0,1,1.8565,5.7071l-.002.3838-9.663-.0528a4.4594,4.4594,0,0,0,1.1376,2.7256,3.2048,3.2048,0,0,0,2.3946.8779,3.3053,3.3053,0,0,0,2.1474-.6611,4.8614,4.8614,0,0,0,1.2559-1.4658Zm-3.0742-5.4883a3.2613,3.2613,0,0,0-.95-1.83,3.2723,3.2723,0,0,0-4.3193.0723,3.5294,3.5294,0,0,0-.97,1.7236Z"/><path class="cls-6" d="M40.0771,201.4619l3.1368.0176-.0606,11.0068a4.8391,4.8391,0,0,1,3.624-1.4843,4.5806,4.5806,0,0,1,3.9581,1.8457,6.632,6.632,0,0,1,.8437,3.748l-.0449,8.2559-3.1358-.0176.043-7.9678a3.2423,3.2423,0,0,0-.5957-2.3389,2.362,2.362,0,0,0-1.7559-.7128,2.7805,2.7805,0,0,0-2.3095,1.1064,6.0294,6.0294,0,0,0-.6582,3.39l-.0352,6.4952-3.1367-.0176Z"/><path class="cls-6" d="M65.4307,211.4561l3.1357.0166-.0732,13.4707-3.1358-.0166.0078-1.4082a5.17,5.17,0,0,1-4.042,1.8017c-4.16-.0224-6.5078-3.4912-6.4882-7.2031.0244-4.3828,3.0468-7.0547,6.5986-7.0361a4.9121,4.9121,0,0,1,3.9883,1.9423Zm-7.3965,6.7431c-.0127,2.336,1.4482,4.2959,3.7207,4.3076,1.9834.0118,3.8154-1.4189,3.831-4.2343.0157-2.9444-1.8007-4.3614-3.7841-4.3731C59.5293,213.8877,58.0469,215.8,58.0342,218.1992Z"/><path class="cls-6" d="M74.2637,211.5039l3.4131,7.6973,3.498-7.66,3.5195.0195L77.64,225.9531l-6.8955-14.4687Z"/><path class="cls-6" d="M96.46,201.7686l3.1357.0175-.1269,23.3262-3.1358-.0176.0078-1.4082a5.1721,5.1721,0,0,1-4.042,1.8028c-4.1592-.0225-6.5068-3.4922-6.4873-7.2041.0244-4.3829,3.0469-7.0547,6.5977-7.0352a4.9081,4.9081,0,0,1,3.9883,1.9414Zm-7.4493,16.5986c-.0127,2.3359,1.4473,4.2959,3.72,4.3086,1.9834.0107,3.8154-1.42,3.831-4.2354.0156-2.9443-1.8008-4.3613-3.7842-4.372C90.5049,214.0557,89.0234,215.9678,89.0107,218.3672Z"/><path class="cls-6" d="M115.5166,222.1279a7.069,7.069,0,0,1-2.2852,2.45,7.4114,7.4114,0,0,1-3.9736,1.003,5.9763,5.9763,0,0,1-4.5342-1.752,7.2253,7.2253,0,0,1-1.955-5.1631,7.8914,7.8914,0,0,1,2.1738-5.5234,6.1336,6.1336,0,0,1,4.5215-1.8,5.7992,5.7992,0,0,1,4.31,1.7832,8.0856,8.0856,0,0,1,1.8565,5.706l-.002.3838-9.6631-.0517a4.46,4.46,0,0,0,1.1377,2.7255,3.2,3.2,0,0,0,2.3946.877,3.299,3.299,0,0,0,2.1474-.66,4.86,4.86,0,0,0,1.2559-1.4658Zm-3.0742-5.4883a3.2607,3.2607,0,0,0-.95-1.83,3.2722,3.2722,0,0,0-4.3193.0722,3.5293,3.5293,0,0,0-.97,1.7237Z"/><path class="cls-6" d="M129.5781,201.9492l-.1269,23.3262-3.1358-.0176.127-23.3262Z"/><path class="cls-6" d="M137.3975,223.2061l-5.6963-11.39,3.7754.0205,3.7968,7.8916,3.9463-7.85,3.52.02-10.8321,20.7393-3.5195-.0195Z"/><path class="cls-6" d="M154.4648,215.4922a2.2549,2.2549,0,0,0-1.914-1.1631,1.331,1.331,0,0,0-.9619.3477,1.018,1.018,0,0,0-.291.7011.8646.8646,0,0,0,.4433.7715c.1914.1289.3828.1934,1.0537.5488l1.5957.8086a6.4537,6.4537,0,0,1,1.8809,1.2588,3.3207,3.3207,0,0,1,.9785,2.5,4.4755,4.4755,0,0,1-1.2012,3.0664,4.81,4.81,0,0,1-3.7842,1.4834,4.638,4.638,0,0,1-2.9072-.88,5.2587,5.2587,0,0,1-1.7138-2.4736L150.21,221.26a3.5238,3.5238,0,0,0,.73,1.2841,1.9186,1.9186,0,0,0,1.373.52,1.8833,1.8833,0,0,0,1.2813-.4414,1.58,1.58,0,0,0,.4541-1.0528,1.4541,1.4541,0,0,0-.41-1.0263,4.1171,4.1171,0,0,0-1.34-.8389l-1.1495-.5508a6.6441,6.6441,0,0,1-1.8486-1.1621,2.9364,2.9364,0,0,1-.9473-2.2764,4.202,4.202,0,0,1,1.1358-2.874,4.34,4.34,0,0,1,3.3027-1.2627,4.2207,4.2207,0,0,1,2.4912.7178,4.6231,4.6231,0,0,1,1.5264,1.6729Z"/><path class="cls-6" d="M163.333,214.8682l-.0576,10.5908-3.1358-.0166.0577-10.5908-1.3125-.0078.0156-2.88,1.3125.0078.0264-4.9278,3.1357.0166-.0264,4.9278,2.3994.0127-.0156,2.88Z"/><path class="cls-6" d="M178.5322,214.9512l-.0576,10.5908-3.1357-.0176.0576-10.5908-1.3125-.0068.0156-2.88,1.3125.0068.0264-4.9277,3.1357.0176-.0263,4.9277,2.3994.0127-.0157,2.88Z"/><path class="cls-6" d="M184.6689,204.5205a2.0161,2.0161,0,1,1-2.0263,2.0039A1.9682,1.9682,0,0,1,184.6689,204.5205Zm1.5274,7.5918-.0733,13.4707-3.1367-.0166.0733-13.4707Z"/><path class="cls-6" d="M193.3525,202.2959l-.1269,23.3262-3.1367-.0176.1269-23.3262Z"/><path class="cls-6" d="M210.5889,215.7969a2.2542,2.2542,0,0,0-1.9141-1.1621,1.3266,1.3266,0,0,0-.9619.3466,1.0208,1.0208,0,0,0-.291.7022.8621.8621,0,0,0,.4433.77c.1914.1289.3828.1934,1.0537.55l1.5957.8086a6.4518,6.4518,0,0,1,1.8809,1.2588,3.3205,3.3205,0,0,1,.9785,2.5,4.4715,4.4715,0,0,1-1.2011,3.0654,4.8062,4.8062,0,0,1-3.7842,1.4834,4.6263,4.6263,0,0,1-2.9073-.88,5.2558,5.2558,0,0,1-1.7138-2.4726l2.5664-1.2022a3.5341,3.5341,0,0,0,.73,1.2842,1.9186,1.9186,0,0,0,1.373.5195,1.8872,1.8872,0,0,0,1.2813-.4414,1.5832,1.5832,0,0,0,.4541-1.0537,1.4516,1.4516,0,0,0-.41-1.0254,4.121,4.121,0,0,0-1.34-.84l-1.1494-.55a6.6454,6.6454,0,0,1-1.8487-1.1621,2.938,2.938,0,0,1-.9472-2.2774,4.1986,4.1986,0,0,1,1.1357-2.873,4.34,4.34,0,0,1,3.3027-1.2627,4.2129,4.2129,0,0,1,2.4912.7178,4.6181,4.6181,0,0,1,1.5264,1.6718Z"/><path class="cls-6" d="M219.4307,202.4375l-.0782,14.3672,4.4073-4.4873,4.16.0224-5.8222,5.5684,6.165,7.9043-3.9678-.0215-4.3847-5.7842-.5782.5733-.0283,5.1836-3.1367-.0166.1269-23.3262Z"/><path class="cls-6" d="M233.168,212.3682l-.042,7.7109a3.8728,3.8728,0,0,0,.5625,2.4346,2.7213,2.7213,0,0,0,4.0957.0224,3.8814,3.8814,0,0,0,.59-2.4287l.042-7.7109,3.1358.0176-.043,7.8066c-.0088,1.7285-.209,3.167-1.4629,4.4082a6.1446,6.1446,0,0,1-4.3936,1.64,5.9164,5.9164,0,0,1-4.2461-1.6866c-1.2412-1.2549-1.4257-2.6953-1.4169-4.4238l.0429-7.8066Z"/><path class="cls-6" d="M248.71,202.5967l-.127,23.3262-3.1367-.0167.1269-23.3261Z"/><path class="cls-6" d="M255.8135,202.6357l-.127,23.3262-3.1367-.0176.127-23.3261Z"/><path class="cls-6" d="M271.7334,222.9775a7.0813,7.0813,0,0,1-2.2852,2.4512,7.42,7.42,0,0,1-3.9736,1.002,5.9763,5.9763,0,0,1-4.5342-1.752,7.2253,7.2253,0,0,1-1.955-5.1631,7.8914,7.8914,0,0,1,2.1738-5.5234,6.1336,6.1336,0,0,1,4.5215-1.8,5.7992,5.7992,0,0,1,4.31,1.7832,8.0878,8.0878,0,0,1,1.8565,5.707l-.002.3838-9.6631-.0527a4.4579,4.4579,0,0,0,1.1377,2.7256,3.2052,3.2052,0,0,0,2.3946.8779,3.31,3.31,0,0,0,2.1474-.66,4.8722,4.8722,0,0,0,1.2559-1.4658Zm-3.0742-5.4882a3.2552,3.2552,0,0,0-.95-1.8291,3.2711,3.2711,0,0,0-4.3194.0712,3.53,3.53,0,0,0-.97,1.7237Z"/><path class="cls-6" d="M292.5137,202.835l3.1357.0175-.1269,23.3262-3.1358-.0176.0078-1.4082a5.1721,5.1721,0,0,1-4.042,1.8028c-4.1591-.0225-6.5068-3.4912-6.4873-7.2032.0244-4.3828,3.0469-7.0556,6.5977-7.0361a4.9111,4.9111,0,0,1,3.9883,1.9414Zm-7.4492,16.5986c-.0127,2.3359,1.4472,4.2969,3.72,4.3086,1.9834.0107,3.8154-1.42,3.831-4.2354.0157-2.9443-1.8007-4.3613-3.7841-4.372C286.5586,215.123,285.0771,217.0342,285.0645,219.4336Z"/><path class="cls-6" d="M311.5713,223.1943a7.07,7.07,0,0,1-2.2852,2.45,7.4114,7.4114,0,0,1-3.9736,1.003,5.9763,5.9763,0,0,1-4.5342-1.752,7.2258,7.2258,0,0,1-1.9551-5.1631,7.8919,7.8919,0,0,1,2.1739-5.5234,6.1335,6.1335,0,0,1,4.5215-1.8,5.7992,5.7992,0,0,1,4.31,1.7832,8.0878,8.0878,0,0,1,1.8565,5.707l-.002.3838-9.6631-.0527a4.46,4.46,0,0,0,1.1377,2.7256,3.2052,3.2052,0,0,0,2.3946.8779,3.3105,3.3105,0,0,0,2.1474-.66,4.8635,4.8635,0,0,0,1.2559-1.4668Zm-3.0742-5.4882a3.2616,3.2616,0,0,0-.95-1.83,3.2726,3.2726,0,0,0-4.3194.0722,3.5291,3.5291,0,0,0-.97,1.7237Z"/><path class="cls-6" d="M318.1777,202.9746l-.1269,23.3262-3.1358-.0166.127-23.3262Z"/><path class="cls-6" d="M334.0986,223.3174a7.0794,7.0794,0,0,1-2.2851,2.45,7.4126,7.4126,0,0,1-3.9737,1.0029,5.976,5.976,0,0,1-4.5341-1.7519,7.23,7.23,0,0,1-1.9551-5.1641,7.8931,7.8931,0,0,1,2.1738-5.5234,6.1375,6.1375,0,0,1,4.5215-1.7989,5.7928,5.7928,0,0,1,4.31,1.7832,8.0849,8.0849,0,0,1,1.8564,5.7061l-.0019.3838-9.6631-.0528a4.4593,4.4593,0,0,0,1.1377,2.7266,3.2,3.2,0,0,0,2.3945.877,3.3055,3.3055,0,0,0,2.1475-.66,4.873,4.873,0,0,0,1.2558-1.4658Zm-3.0742-5.4893a3.2611,3.2611,0,0,0-.95-1.8291,3.2693,3.2693,0,0,0-4.3193.0723,3.52,3.52,0,0,0-.97,1.7236Z"/><path class="cls-6" d="M343.3838,216.52a2.2553,2.2553,0,0,0-1.9141-1.1631,1.3318,1.3318,0,0,0-.9619.3477,1.0187,1.0187,0,0,0-.291.7012.8647.8647,0,0,0,.4434.7715c.1914.1289.3828.1933,1.0537.55l1.5957.8086a6.4479,6.4479,0,0,1,1.8808,1.2578,3.3221,3.3221,0,0,1,.9785,2.5009,4.4737,4.4737,0,0,1-1.2011,3.0655,4.81,4.81,0,0,1-3.7842,1.4834,4.6383,4.6383,0,0,1-2.9072-.88,5.2537,5.2537,0,0,1-1.7139-2.4736l2.5664-1.2012a3.5425,3.5425,0,0,0,.73,1.2842,1.92,1.92,0,0,0,1.373.5185,1.8779,1.8779,0,0,0,1.2813-.4414,1.5789,1.5789,0,0,0,.4541-1.0527,1.45,1.45,0,0,0-.41-1.0254,4.1212,4.1212,0,0,0-1.34-.84l-1.1494-.55a6.67,6.67,0,0,1-1.8486-1.163,2.9361,2.9361,0,0,1-.9473-2.2764,4.201,4.201,0,0,1,1.1357-2.874,4.34,4.34,0,0,1,3.3028-1.2618,4.2069,4.2069,0,0,1,2.4912.7178,4.6108,4.6108,0,0,1,1.5263,1.6719Z"/><path class="cls-6" d="M348.8545,210.9492c-.0606-.7363-.0586-.9922-.0586-1.0879a5.0852,5.0852,0,0,1,1.4609-3.7685,5.2324,5.2324,0,0,1,3.751-1.3233,5.4,5.4,0,0,1,3.8643,1.43,4.7492,4.7492,0,0,1,1.3564,3.5908,4.5523,4.5523,0,0,1-1.9092,3.9258,10.8453,10.8453,0,0,1-2.2461,1.1074l-.9619.3789a3.745,3.745,0,0,0-1.2832.6973,1.6757,1.6757,0,0,0-.4873,1.1485,1.6319,1.6319,0,0,0,.5371,1.2509,1.4146,1.4146,0,0,0,.959.3252,1.542,1.542,0,0,0,1.2178-.4736,2.4952,2.4952,0,0,0,.5215-1.6924l3.1357.0166a5.3675,5.3675,0,0,1-1.4277,3.7041,4.8783,4.8783,0,0,1-3.4961,1.3252,4.81,4.81,0,0,1-3.3516-1.33,4.6469,4.6469,0,0,1-1.2929-3.3994,3.9581,3.9581,0,0,1,1.038-2.7461,7.5179,7.5179,0,0,1,2.793-1.6172,7.5265,7.5265,0,0,0,2.3418-1.1074,2.0053,2.0053,0,0,0,.7119-1.5957,2.0418,2.0418,0,0,0-.5351-1.5068,2.16,2.16,0,0,0-1.4688-.5518,2.0531,2.0531,0,0,0-1.4756.5684,2.4618,2.4618,0,0,0-.5527,1.6924,5.5957,5.5957,0,0,0,.1221,1.0576Zm5.1182,12.1231a1.92,1.92,0,1,1-1.9307,1.91A1.9259,1.9259,0,0,1,353.9727,223.0723Z"/></svg>
