<svg id="Levelcomplete" xmlns="http://www.w3.org/2000/svg" width="480" height="430" viewBox="0 0 480 430"><defs><style>.cls-1{fill:#f4912d;}.cls-2{fill:#152230;}.cls-3{fill:#fff;}.cls-4{fill:#fcfcfc;}</style></defs><title>introscreenpopup4</title><path class="cls-1" d="M445.36,111.2508,72.7753,107.8023a12.7584,12.7584,0,0,0-12.8761,12.64L57.7266,355.1686a12.7586,12.7586,0,0,0,12.64,12.8759l61.518.5694-.3613,39.0363,70.17-38.39,241.2574,2.233a12.7584,12.7584,0,0,0,12.8761-12.64l2.1725-234.7266A12.7584,12.7584,0,0,0,445.36,111.2508Z"/><rect class="cls-2" x="7.0018" y="23.1914" width="424.846" height="90.0336" rx="9.0692" transform="translate(0.6407 -2.0279) rotate(0.5303)"/><polyline class="cls-2" points="12.624 142.891 12.624 110.535 59.048 110.535"/><path class="cls-3" d="M64.0508,52.5254l-.169,18.2324a14.1954,14.1954,0,0,1-1.1142,6.4053,7.028,7.028,0,0,1-6.6641,3.9912,8.9192,8.9192,0,0,1-4.9668-1.4824L53.28,76.0625a4.3147,4.3147,0,0,0,2.9453,1.04,2.8052,2.8052,0,0,0,2.8457-1.873c.2588-.63.4785-1.6416.5049-4.5107l.1689-18.2325Z"/><path class="cls-3" d="M74.082,63.001l-.0947,10.1719a5.1172,5.1172,0,0,0,.73,3.2148,3.5924,3.5924,0,0,0,5.4023.05,5.1121,5.1121,0,0,0,.7891-3.2l.0947-10.1719,4.1357.0381-.0957,10.2979c-.02,2.2793-.291,4.1767-1.9531,5.8066A8.0977,8.0977,0,0,1,77.2881,81.35a7.8052,7.8052,0,0,1-5.5928-2.2471c-1.63-1.66-1.8652-3.5625-1.8447-5.8418l.0957-10.2978Z"/><path class="cls-3" d="M98.0938,67.9092a2.978,2.978,0,0,0-2.5176-1.544,1.7589,1.7589,0,0,0-1.2715.4532,1.3375,1.3375,0,0,0-.3877.9257,1.1334,1.1334,0,0,0,.581,1.0176c.252.1719.5049.2578,1.3858.73l2.1006,1.0752a8.541,8.541,0,0,1,2.4756,1.668,4.3916,4.3916,0,0,1,1.2773,3.3056,5.901,5.901,0,0,1-1.5986,4.0371A6.3491,6.3491,0,0,1,95.14,81.5156,6.119,6.119,0,0,1,91.31,80.34a6.9159,6.9159,0,0,1-2.2481-3.27l3.3906-1.5722a4.6738,4.6738,0,0,0,.9551,1.6972,2.5356,2.5356,0,0,0,1.8086.6914,2.488,2.488,0,0,0,1.6934-.5752,2.0919,2.0919,0,0,0,.6035-1.3867,1.9171,1.9171,0,0,0-.5361-1.3564,5.4415,5.4415,0,0,0-1.7618-1.1133l-1.5136-.7324a8.7353,8.7353,0,0,1-2.4326-1.542,3.8709,3.8709,0,0,1-1.2393-3.0078,5.5507,5.5507,0,0,1,1.5127-3.7852,5.7277,5.7277,0,0,1,4.3623-1.6474,5.5582,5.5582,0,0,1,3.2832.9589,6.1,6.1,0,0,1,2.0068,2.2139Z"/><path class="cls-3" d="M109.792,67.1309l-.13,13.97-4.1367-.0381.13-13.97-1.73-.0157.0352-3.7988,1.73.0156.0606-6.499,4.1367.0381-.0606,6.499,3.1651.0293L112.957,67.16Z"/><path class="cls-3" d="M117.9365,53.4043a2.6593,2.6593,0,1,1-2.6836,2.6348A2.5981,2.5981,0,0,1,117.9365,53.4043Zm1.9756,10.0215-.165,17.7685-4.1358-.0381.1651-17.7685Z"/><path class="cls-3" d="M125.1016,63.4736l4.1367.0381-.0156,1.6455a6.1174,6.1174,0,0,1,4.831-2.0644,5.9342,5.9342,0,0,1,5.21,2.4541c.666.9765,1.0781,2.2041,1.0527,4.9482l-.1016,10.8887-4.1357-.0381.0918-9.876c.042-4.5166-1.6455-4.6582-3.207-4.6728-1.8565-.0176-3.7578.2177-3.8116,5.958l-.0791,8.5254-4.1367-.0381Z"/><path class="cls-3" d="M160.5625,53.42c3.6279.0332,5.9033.5186,7.7451,2.2656a7.2256,7.2256,0,0,1,2.1846,5.5918,6.1442,6.1442,0,0,1-.875,3.3262,4.6741,4.6741,0,0,1-2.1279,1.9219,7.732,7.732,0,0,1,3.61,2.06,7.323,7.323,0,0,1,1.8086,5.2929,6.8676,6.8676,0,0,1-1.9043,5.0479c-2.2588,2.3428-5.7656,2.6894-7.918,2.67l-7.0478-.0654.2607-28.15Zm-.1807,24.0987,2.6153.0244a7.4177,7.4177,0,0,0,4.2724-1.0586,4.0324,4.0324,0,0,0,1.4229-3.11A4.2152,4.2152,0,0,0,167.58,70.41c-1.1709-1.1514-2.9-1.294-4.42-1.3077l-2.7-.0254Zm.11-11.9864,1.3086.0117a4.9514,4.9514,0,0,0,3.5127-1.0644,4.2677,4.2677,0,0,0,1.126-3.1963,3.4765,3.4765,0,0,0-.9874-2.7109,4.6163,4.6163,0,0,0-3.4082-1.0869l-1.4765-.0137Z"/><path class="cls-3" d="M179.8018,53.9775a2.6593,2.6593,0,1,1-2.6836,2.6348A2.5967,2.5967,0,0,1,179.8018,53.9775Zm1.9755,10.0215-.165,17.7686-4.1357-.0391.165-17.7685Z"/><path class="cls-3" d="M202.7939,77.9111a9.3177,9.3177,0,0,1-3.0273,3.2227,9.7769,9.7769,0,0,1-5.2461,1.3017,7.8766,7.8766,0,0,1-5.9717-2.3349,9.5413,9.5413,0,0,1-2.5527-6.8194,10.4186,10.4186,0,0,1,2.8935-7.2753,8.0951,8.0951,0,0,1,5.9737-2.35A7.6468,7.6468,0,0,1,200.54,66.03c2.2579,2.3838,2.4385,5.6777,2.4209,7.5342l-.0048.5068L190.21,73.9531a5.88,5.88,0,0,0,1.4853,3.6026,4.2311,4.2311,0,0,0,3.1553,1.1689,4.359,4.359,0,0,0,2.8369-.86,6.4229,6.4229,0,0,0,1.6631-1.9268Zm-4.0273-7.2549a4.3017,4.3017,0,0,0-1.2441-2.4179,4.3137,4.3137,0,0,0-5.6983.0742,4.6663,4.6663,0,0,0-1.2881,2.2676Z"/><path class="cls-3" d="M211.4668,66.3418a6.4782,6.4782,0,0,1,5.2988-2.4834c4.6856.0439,8.62,3.625,8.5664,9.4072-.0459,4.8955-3.2109,9.4258-8.6972,9.375a6.8222,6.8222,0,0,1-5.2959-2.456l-.0176,1.8574-4.1348-.0381.2852-30.7666,4.1347.0381Zm-.3154,6.9189c-.0352,3.7149,2.3515,5.6368,4.9687,5.6612,2.9961.0273,4.9619-2.53,4.99-5.6114.0292-3.165-1.8887-5.7148-4.8848-5.7421C213.6084,67.5439,211.1865,69.3779,211.1514,73.2607Z"/><path class="cls-3" d="M245.501,78.3066a9.3277,9.3277,0,0,1-3.0274,3.2227,9.7774,9.7774,0,0,1-5.2461,1.3018,7.8763,7.8763,0,0,1-5.9707-2.335,9.5419,9.5419,0,0,1-2.5537-6.8193,10.4192,10.4192,0,0,1,2.8946-7.2754,8.0935,8.0935,0,0,1,5.9726-2.35,7.6469,7.6469,0,0,1,5.6768,2.374c2.2578,2.3838,2.4384,5.6777,2.4209,7.5342l-.0049.5068-12.7451-.1182a5.88,5.88,0,0,0,1.4853,3.6026,4.2286,4.2286,0,0,0,3.1543,1.1689,4.3588,4.3588,0,0,0,2.8369-.86,6.4335,6.4335,0,0,0,1.6631-1.9268Zm-4.0274-7.2548a4.3011,4.3011,0,0,0-1.2441-2.418,4.3124,4.3124,0,0,0-5.6973.0742,4.6667,4.6667,0,0,0-1.2881,2.2676Z"/><path class="cls-3" d="M250.0586,64.6309l4.1357.038-.0146,1.6036a7.1084,7.1084,0,0,1,1.7441-1.46,4.7607,4.7607,0,0,1,2.5371-.5674,6.1211,6.1211,0,0,1,3.2412.874l-1.7216,3.74a3.7447,3.7447,0,0,0-2.1045-.6524,3.2243,3.2243,0,0,0-2.584.9463,5.7247,5.7247,0,0,0-1.1768,4.083l-.0859,9.2012-4.1357-.0381Z"/><path class="cls-3" d="M266.3926,78.0361a2.5324,2.5324,0,1,1-2.5557,2.5088A2.5393,2.5393,0,0,1,266.3926,78.0361Zm.1269-13.7168a2.5324,2.5324,0,1,1-2.5556,2.5088A2.5393,2.5393,0,0,1,266.52,64.3193Z"/><path class="cls-4" d="M104.709,138.2646a3.3032,3.3032,0,0,0-3.2637-2.1123c-1.9844,0-3.0078,1.1836-3.0078,2.56,0,.6406.2236,1.76,2.3037,2.5918l2.1436.8643c3.9355,1.6,5.0234,3.84,5.0234,6.2715a6.5772,6.5772,0,0,1-6.8789,6.8476,6.2436,6.2436,0,0,1-5.0234-2.1435,6.909,6.909,0,0,1-1.792-4.16l3.2314-.7041a4.6085,4.6085,0,0,0,.8955,2.72,3.3667,3.3667,0,0,0,2.7842,1.28,3.4288,3.4288,0,0,0,3.5195-3.584c0-2.1758-1.664-3.0713-3.0713-3.6474l-2.0478-.8643c-1.76-.7354-4.3516-2.208-4.3516-5.4072,0-2.88,2.2393-5.6319,6.2393-5.6319A6.29,6.29,0,0,1,105.7,134.585a7.2586,7.2586,0,0,1,1.6328,2.1435Z"/><path class="cls-4" d="M112.0371,152.3115a6.5543,6.5543,0,0,1-1.3115-4.16,6.9356,6.9356,0,0,1,7.1992-7.1035,6.3413,6.3413,0,0,1,4.2236,1.3125l2.2715-2.24,1.4082,1.4717-2.1758,2.1123a7.2153,7.2153,0,0,1-5.7275,11.583,6.533,6.533,0,0,1-4.416-1.4717l-2.1436,2.3037-1.6-1.4716Zm7.9356-7.9677a4.39,4.39,0,0,0-2.0479-.48c-1.9844,0-4,1.247-4,4.3193a5.7057,5.7057,0,0,0,.3838,2.0478Zm-4.3516,7.4873a4.4594,4.4594,0,0,0,2.3037.6406c1.9834,0,4-1.2168,4-4.2881a4.8383,4.8383,0,0,0-.5127-2.3037Z"/><path class="cls-4" d="M128.3887,141.4h3.1367v1.2158a5.4086,5.4086,0,0,1,1.3115-1.12,3.624,3.624,0,0,1,1.92-.4482,4.6479,4.6479,0,0,1,2.4639.6406l-1.28,2.8476a2.837,2.837,0,0,0-1.6-.48,2.4455,2.4455,0,0,0-1.9521.7363,4.3422,4.3422,0,0,0-.8633,3.1035v6.9756h-3.1367Z"/><path class="cls-4" d="M147.876,141.4h3.1357v12.3828c0,3.168-.3515,5.44-2.208,7.0078a6.8453,6.8453,0,0,1-4.48,1.44,5.949,5.949,0,0,1-4.415-1.6641,7.5763,7.5763,0,0,1-1.9844-4.1914h3.04a4.4612,4.4612,0,0,0,.9922,2.1123,3.2093,3.2093,0,0,0,2.4317.9277,3.3673,3.3673,0,0,0,2.4638-.8964,4.437,4.437,0,0,0,1.0235-3.3916v-1.76a4.877,4.877,0,0,1-4.0957,1.92,5.7136,5.7136,0,0,1-4.4473-1.8242,7.6138,7.6138,0,0,1-2.0156-5.3438,7.1539,7.1539,0,0,1,1.9834-5.2148,6.1279,6.1279,0,0,1,4.5762-1.8564,5.0656,5.0656,0,0,1,3.999,1.8242Zm-5.9834,3.3594a4.6858,4.6858,0,0,0-1.376,3.4238,4.6221,4.6221,0,0,0,1.3438,3.3916,3.6719,3.6719,0,0,0,2.4.8965,3.4163,3.4163,0,0,0,2.6241-1.0879,4.9831,4.9831,0,0,0-.0967-6.56,3.3276,3.3276,0,0,0-2.5274-.96A3.2452,3.2452,0,0,0,141.8926,144.76Z"/><path class="cls-4" d="M165.8926,144.28v10.5908h-3.1358V144.28h-1.3437V141.4h1.3437v-4.6719a5.9651,5.9651,0,0,1,1.3125-4.2236,4.2168,4.2168,0,0,1,3.1993-1.3125,5.0129,5.0129,0,0,1,2.0156.3847v3.1036A2.709,2.709,0,0,0,167.78,134.2a1.82,1.82,0,0,0-1.376.5127,2.2251,2.2251,0,0,0-.5117,1.6V141.4h3.3916v2.88Z"/><path class="cls-4" d="M184.7725,148.1514a7.2,7.2,0,1,1-7.1993-7.1035A6.9989,6.9989,0,0,1,184.7725,148.1514Zm-3.1993.0322c0-3.0723-2.0166-4.3193-4-4.3193s-4,1.247-4,4.3193c0,2.5918,1.5362,4.2881,4,4.2881S181.5732,150.7754,181.5732,148.1836Z"/><path class="cls-4" d="M188.0361,141.4h3.1358v1.2158a5.428,5.428,0,0,1,1.3125-1.12,3.624,3.624,0,0,1,1.92-.4482,4.6479,4.6479,0,0,1,2.4639.6406l-1.28,2.8476a2.837,2.837,0,0,0-1.6-.48,2.4457,2.4457,0,0,0-1.9522.7363,4.3389,4.3389,0,0,0-.8642,3.1035v6.9756h-3.1358Z"/><path class="cls-4" d="M215.97,131.5449h3.1358v23.3262H215.97v-1.4082a5.1705,5.1705,0,0,1-4.0312,1.8242c-4.16,0-6.5274-3.456-6.5274-7.168,0-4.3828,3.0078-7.0712,6.56-7.0712a4.91,4.91,0,0,1,3.999,1.92ZM208.61,148.1836c0,2.3359,1.4716,4.2881,3.7441,4.2881,1.9834,0,3.8076-1.44,3.8076-4.2559,0-2.9443-1.8242-4.3515-3.8076-4.3515C210.082,143.8643,208.61,145.7842,208.61,148.1836Z"/><path class="cls-4" d="M235.1387,151.7988a7.0662,7.0662,0,0,1-2.2715,2.4639,7.411,7.411,0,0,1-3.9678,1.0244,5.9759,5.9759,0,0,1-4.5439-1.7275,7.23,7.23,0,0,1-1.9834-5.1524,7.894,7.894,0,0,1,2.1435-5.5351,6.1367,6.1367,0,0,1,4.5117-1.8242,5.799,5.799,0,0,1,4.3194,1.76,8.0876,8.0876,0,0,1,1.8877,5.6963v.3838h-9.6631a4.4555,4.4555,0,0,0,1.1523,2.72,3.2011,3.2011,0,0,0,2.3994.8643,3.2974,3.2974,0,0,0,2.1436-.6729,4.8464,4.8464,0,0,0,1.248-1.4717Zm-3.1035-5.4707a3.2615,3.2615,0,0,0-.96-1.8242,3.2707,3.2707,0,0,0-4.3193.0957,3.524,3.524,0,0,0-.96,1.7285Z"/><path class="cls-4" d="M249.41,144.28v10.5908h-3.1358V144.28h-1.3437V141.4h1.3437v-4.6719a5.9651,5.9651,0,0,1,1.3125-4.2236,4.2167,4.2167,0,0,1,3.1992-1.3125,5.013,5.013,0,0,1,2.0157.3847v3.1036a2.709,2.709,0,0,0-1.5039-.4805,1.82,1.82,0,0,0-1.376.5127,2.2251,2.2251,0,0,0-.5117,1.6V141.4h3.3916v2.88Z"/><path class="cls-4" d="M268.29,148.1514a7.2,7.2,0,1,1-7.1992-7.1035A6.9988,6.9988,0,0,1,268.29,148.1514Zm-3.1992.0322c0-3.0723-2.0166-4.3193-4-4.3193s-4,1.247-4,4.3193c0,2.5918,1.5362,4.2881,4,4.2881S265.0908,150.7754,265.0908,148.1836Z"/><path class="cls-4" d="M271.5537,141.4H274.69v1.2158a5.428,5.428,0,0,1,1.3125-1.12,3.624,3.624,0,0,1,1.92-.4482,4.6473,4.6473,0,0,1,2.4638.6406l-1.28,2.8476a2.837,2.837,0,0,0-1.6-.48,2.4457,2.4457,0,0,0-1.9522.7363,4.3389,4.3389,0,0,0-.8642,3.1035v6.9756h-3.1358Z"/><path class="cls-4" d="M285.3125,131.5449v14.3672l4.3838-4.5117h4.16l-5.7919,5.6,6.208,7.8711h-3.9678l-4.416-5.76-.5762.5762v5.1836h-3.1357V131.5449Z"/><path class="cls-4" d="M308.0332,151.7988a7.0662,7.0662,0,0,1-2.2715,2.4639,7.411,7.411,0,0,1-3.9678,1.0244A5.9762,5.9762,0,0,1,297.25,153.56a7.23,7.23,0,0,1-1.9834-5.1524,7.8941,7.8941,0,0,1,2.1436-5.5351,6.1367,6.1367,0,0,1,4.5117-1.8242,5.799,5.799,0,0,1,4.3193,1.76,8.0876,8.0876,0,0,1,1.8877,5.6963v.3838h-9.6631a4.4557,4.4557,0,0,0,1.1524,2.72,3.2008,3.2008,0,0,0,2.3994.8643,3.2973,3.2973,0,0,0,2.1435-.6729,4.8468,4.8468,0,0,0,1.2481-1.4717Zm-3.1035-5.4707a3.2609,3.2609,0,0,0-.96-1.8242,3.2707,3.2707,0,0,0-4.3193.0957,3.524,3.524,0,0,0-.96,1.7285Z"/><path class="cls-4" d="M311.3936,141.4h3.1357v1.2158a5.43,5.43,0,0,1,1.3125-1.12,3.624,3.624,0,0,1,1.92-.4482,4.6479,4.6479,0,0,1,2.4639.6406l-1.28,2.8476a2.837,2.837,0,0,0-1.6-.48,2.4455,2.4455,0,0,0-1.9521.7363,4.3385,4.3385,0,0,0-.8643,3.1035v6.9756h-3.1357Z"/><path class="cls-4" d="M325.89,144.28v10.5908h-3.1357V144.28h-1.3125V141.4h1.3125v-4.9277H325.89V141.4h2.4v2.88Z"/><path class="cls-4" d="M342.4648,151.7988a7.0659,7.0659,0,0,1-2.2714,2.4639,7.4113,7.4113,0,0,1-3.9678,1.0244,5.9763,5.9763,0,0,1-4.544-1.7275,7.23,7.23,0,0,1-1.9834-5.1524,7.8941,7.8941,0,0,1,2.1436-5.5351,6.1367,6.1367,0,0,1,4.5117-1.8242,5.7992,5.7992,0,0,1,4.3194,1.76,8.0874,8.0874,0,0,1,1.8876,5.6963v.3838h-9.663a4.455,4.455,0,0,0,1.1523,2.72,3.201,3.201,0,0,0,2.3994.8643,3.2975,3.2975,0,0,0,2.1436-.6729,4.8478,4.8478,0,0,0,1.248-1.4717Zm-3.1035-5.4707a3.2608,3.2608,0,0,0-.96-1.8242,3.2709,3.2709,0,0,0-4.3194.0957,3.5239,3.5239,0,0,0-.96,1.7285Z"/><path class="cls-4" d="M98.0527,181.3672a4.9112,4.9112,0,0,1,4-1.92c3.5518,0,6.56,2.6884,6.56,7.0713,0,3.7119-2.3682,7.1679-6.5273,7.1679a5.1724,5.1724,0,0,1-4.0323-1.8242v1.4082H94.917V169.9443h3.1357Zm-.1914,5.248c0,2.8155,1.8242,4.2559,3.8076,4.2559,2.2715,0,3.7442-1.9522,3.7442-4.2881,0-2.3994-1.4727-4.3193-3.7442-4.3193C99.6855,182.2637,97.8613,183.6709,97.8613,186.6152Z"/><path class="cls-4" d="M113.4453,172.2158a2.0161,2.0161,0,1,1-2.0156,2.0156A1.9681,1.9681,0,0,1,113.4453,172.2158Zm1.5684,7.584v13.4707H111.877V179.8Z"/><path class="cls-4" d="M122.1172,169.9443v23.3262h-3.1367V169.9443Z"/><path class="cls-4" d="M129.2207,169.9443v23.3262H126.084V169.9443Z"/><path class="cls-4" d="M145.251,190.1992a7.0706,7.0706,0,0,1-2.2715,2.4629,7.411,7.411,0,0,1-3.9678,1.0244,5.9759,5.9759,0,0,1-4.5439-1.7275,7.23,7.23,0,0,1-1.9834-5.1524,7.894,7.894,0,0,1,2.1435-5.5351,6.1367,6.1367,0,0,1,4.5117-1.8242,5.799,5.799,0,0,1,4.3194,1.76,8.0876,8.0876,0,0,1,1.8877,5.6963v.3838h-9.6631a4.4553,4.4553,0,0,0,1.1523,2.72,3.2012,3.2012,0,0,0,2.3995.8643,3.3022,3.3022,0,0,0,2.1435-.6719,4.8616,4.8616,0,0,0,1.2481-1.4726Zm-3.1035-5.4717a3.2619,3.2619,0,0,0-.96-1.8242,3.2707,3.2707,0,0,0-4.3193.0957,3.52,3.52,0,0,0-.96,1.7285Z"/><path class="cls-4" d="M158.4668,169.9443h3.1357v23.3262h-3.1357v-1.4082a5.1707,5.1707,0,0,1-4.0313,1.8242c-4.16,0-6.5273-3.456-6.5273-7.1679,0-4.3829,3.0078-7.0713,6.56-7.0713a4.91,4.91,0,0,1,3.999,1.92Zm-7.3594,16.6387c0,2.3359,1.4717,4.2881,3.7442,4.2881,1.9834,0,3.8076-1.44,3.8076-4.2559,0-2.9443-1.8242-4.3515-3.8076-4.3515C152.5791,182.2637,151.1074,184.1836,151.1074,186.583Z"/><path class="cls-4" d="M177.6348,190.1992a7.0706,7.0706,0,0,1-2.2715,2.4629,7.411,7.411,0,0,1-3.9678,1.0244,5.9759,5.9759,0,0,1-4.5439-1.7275,7.23,7.23,0,0,1-1.9834-5.1524,7.894,7.894,0,0,1,2.1435-5.5351,6.1367,6.1367,0,0,1,4.5117-1.8242,5.799,5.799,0,0,1,4.3194,1.76,8.0876,8.0876,0,0,1,1.8877,5.6963v.3838h-9.6631a4.4553,4.4553,0,0,0,1.1523,2.72,3.2011,3.2011,0,0,0,2.3994.8643,3.3025,3.3025,0,0,0,2.1436-.6719,4.8612,4.8612,0,0,0,1.248-1.4726Zm-3.1036-5.4717a3.2611,3.2611,0,0,0-.96-1.8242,3.2707,3.2707,0,0,0-4.3193.0957,3.52,3.52,0,0,0-.96,1.7285Z"/><path class="cls-4" d="M180.9951,179.8h3.1358v1.2158a5.428,5.428,0,0,1,1.3125-1.12,3.624,3.624,0,0,1,1.92-.4482,4.6473,4.6473,0,0,1,2.4638.6406l-1.28,2.8476a2.837,2.837,0,0,0-1.6-.48,2.4461,2.4461,0,0,0-1.9522.7363,4.3389,4.3389,0,0,0-.8642,3.1035v6.9756h-3.1358Z"/><path class="cls-4" d="M202.209,181.3672a4.9112,4.9112,0,0,1,4-1.92c3.5517,0,6.56,2.6884,6.56,7.0713,0,3.7119-2.3682,7.1679-6.5274,7.1679a5.1723,5.1723,0,0,1-4.0322-1.8242v1.4082h-3.1358V169.9443h3.1358Zm-.1914,5.248c0,2.8155,1.8242,4.2559,3.8076,4.2559,2.2715,0,3.7441-1.9522,3.7441-4.2881,0-2.3994-1.4726-4.3193-3.7441-4.3193C203.8418,182.2637,202.0176,183.6709,202.0176,186.6152Z"/><path class="cls-4" d="M219.17,169.9443v23.3262h-3.1367V169.9443Z"/><path class="cls-4" d="M224.7051,172.2158a2.0161,2.0161,0,1,1-2.0156,2.0156A1.9682,1.9682,0,0,1,224.7051,172.2158Zm1.5683,7.584v13.4707h-3.1367V179.8Z"/><path class="cls-4" d="M231.9688,179.8l3.455,7.6787L238.88,179.8h3.52l-6.9756,14.4307L228.4492,179.8Z"/><path class="cls-4" d="M256.2559,190.1992a7.0706,7.0706,0,0,1-2.2715,2.4629,7.411,7.411,0,0,1-3.9678,1.0244,5.9759,5.9759,0,0,1-4.5439-1.7275,7.23,7.23,0,0,1-1.9834-5.1524,7.894,7.894,0,0,1,2.1435-5.5351,6.1367,6.1367,0,0,1,4.5117-1.8242,5.799,5.799,0,0,1,4.3194,1.76,8.0876,8.0876,0,0,1,1.8877,5.6963v.3838h-9.6631a4.4547,4.4547,0,0,0,1.1523,2.72,3.2011,3.2011,0,0,0,2.3994.8643,3.3025,3.3025,0,0,0,2.1436-.6719,4.8612,4.8612,0,0,0,1.248-1.4726Zm-3.1036-5.4717a3.2611,3.2611,0,0,0-.96-1.8242,3.2709,3.2709,0,0,0-4.3194.0957,3.5207,3.5207,0,0,0-.96,1.7285Z"/><path class="cls-4" d="M259.6162,179.8h3.1358v1.2158a5.428,5.428,0,0,1,1.3125-1.12,3.624,3.624,0,0,1,1.92-.4482,4.6473,4.6473,0,0,1,2.4638.6406l-1.28,2.8476a2.837,2.837,0,0,0-1.6-.48,2.4461,2.4461,0,0,0-1.9522.7363,4.3389,4.3389,0,0,0-.8642,3.1035v6.9756h-3.1358Z"/><path class="cls-4" d="M283.583,183.3516a2.2537,2.2537,0,0,0-1.92-1.1524,1.33,1.33,0,0,0-.96.3526,1.0138,1.0138,0,0,0-.2871.7031.8614.8614,0,0,0,.4473.7685c.1924.128.3838.1914,1.0566.544l1.6.8a6.4526,6.4526,0,0,1,1.8877,1.248,3.3215,3.3215,0,0,1,.9922,2.4952,4.471,4.471,0,0,1-1.1846,3.0722,4.8071,4.8071,0,0,1-3.7753,1.5039,4.636,4.636,0,0,1-2.9122-.8642,5.2553,5.2553,0,0,1-1.7275-2.4639l2.56-1.2158a3.5449,3.5449,0,0,0,.7363,1.28,1.9216,1.9216,0,0,0,1.376.5117,1.8846,1.8846,0,0,0,1.2793-.4483,1.5842,1.5842,0,0,0,.4482-1.0556,1.4506,1.4506,0,0,0-.416-1.0235,4.1131,4.1131,0,0,0-1.3437-.832l-1.1524-.544a6.657,6.657,0,0,1-1.8555-1.1523,2.9367,2.9367,0,0,1-.96-2.2715,4.2056,4.2056,0,0,1,1.12-2.88,4.3415,4.3415,0,0,1,3.2959-1.28,4.2137,4.2137,0,0,1,2.4951.7041,4.6177,4.6177,0,0,1,1.5361,1.664Z"/><path class="cls-4" d="M292.3516,169.9443v23.3262h-3.1368V169.9443Z"/><path class="cls-4" d="M308.3818,190.1992a7.07,7.07,0,0,1-2.2714,2.4629,7.4113,7.4113,0,0,1-3.9678,1.0244,5.9763,5.9763,0,0,1-4.544-1.7275,7.23,7.23,0,0,1-1.9834-5.1524,7.8941,7.8941,0,0,1,2.1436-5.5351,6.1367,6.1367,0,0,1,4.5117-1.8242,5.7988,5.7988,0,0,1,4.3193,1.76,8.0871,8.0871,0,0,1,1.8877,5.6963v.3838h-9.663a4.4547,4.4547,0,0,0,1.1523,2.72,3.2008,3.2008,0,0,0,2.3994.8643,3.3025,3.3025,0,0,0,2.1436-.6719,4.8626,4.8626,0,0,0,1.248-1.4726Zm-3.1035-5.4717a3.2611,3.2611,0,0,0-.96-1.8242,3.2709,3.2709,0,0,0-4.3194.0957,3.52,3.52,0,0,0-.96,1.7285Z"/><path class="cls-4" d="M314.9746,182.68v10.5908h-3.1357V182.68h-1.3125V179.8h1.3125v-4.9277h3.1357V179.8h2.3994v2.88Z"/><path class="cls-4" d="M323.3584,182.68v10.5908h-3.1357V182.68H318.91V179.8h1.3125v-4.9277h3.1357V179.8h2.3994v2.88Z"/><path class="cls-4" d="M339.9336,190.1992a7.0706,7.0706,0,0,1-2.2715,2.4629,7.411,7.411,0,0,1-3.9678,1.0244,5.9761,5.9761,0,0,1-4.5439-1.7275,7.23,7.23,0,0,1-1.9834-5.1524,7.894,7.894,0,0,1,2.1435-5.5351,6.137,6.137,0,0,1,4.5118-1.8242,5.799,5.799,0,0,1,4.3193,1.76,8.0876,8.0876,0,0,1,1.8877,5.6963v.3838h-9.6631a4.4554,4.4554,0,0,0,1.1524,2.72,3.2008,3.2008,0,0,0,2.3994.8643,3.3022,3.3022,0,0,0,2.1435-.6719,4.8616,4.8616,0,0,0,1.2481-1.4726Zm-3.1035-5.4717a3.2619,3.2619,0,0,0-.96-1.8242,3.2707,3.2707,0,0,0-4.3193.0957,3.52,3.52,0,0,0-.96,1.7285Z"/><path class="cls-4" d="M346.5264,182.68v10.5908h-3.1358V182.68h-1.3125V179.8h1.3125v-4.9277h3.1358V179.8h2.3994v2.88Z"/><path class="cls-4" d="M360.0615,172.2158a2.0161,2.0161,0,1,1-2.0156,2.0156A1.9681,1.9681,0,0,1,360.0615,172.2158Zm1.5674,7.584v13.4707h-3.1357V179.8Z"/><path class="cls-4" d="M365.5654,179.8h3.1358v1.2481a4.6406,4.6406,0,0,1,3.6474-1.6006,4.503,4.503,0,0,1,3.9678,1.8242c.5117.7363.832,1.664.832,3.7431v8.2559h-3.1357v-7.4873c0-3.4238-1.28-3.5195-2.4639-3.5195-1.4082,0-2.8476.1914-2.8476,4.5429v6.4639h-3.1358Z"/><path class="cls-4" d="M390.9717,169.9443h3.1357v23.3262h-3.1357v-1.4082a5.1707,5.1707,0,0,1-4.0313,1.8242c-4.16,0-6.5273-3.456-6.5273-7.1679,0-4.3829,3.0078-7.0713,6.56-7.0713a4.91,4.91,0,0,1,3.999,1.92Zm-7.3594,16.6387c0,2.3359,1.4717,4.2881,3.7441,4.2881,1.9834,0,3.8077-1.44,3.8077-4.2559,0-2.9443-1.8243-4.3515-3.8077-4.3515C385.084,182.2637,383.6123,184.1836,383.6123,186.583Z"/><path class="cls-4" d="M410.14,190.1992a7.07,7.07,0,0,1-2.2714,2.4629,7.4113,7.4113,0,0,1-3.9678,1.0244,5.9763,5.9763,0,0,1-4.544-1.7275,7.23,7.23,0,0,1-1.9834-5.1524,7.8941,7.8941,0,0,1,2.1436-5.5351,6.1367,6.1367,0,0,1,4.5117-1.8242,5.799,5.799,0,0,1,4.3194,1.76,8.0876,8.0876,0,0,1,1.8877,5.6963v.3838h-9.6631a4.4547,4.4547,0,0,0,1.1523,2.72,3.201,3.201,0,0,0,2.3994.8643,3.3025,3.3025,0,0,0,2.1436-.6719,4.8626,4.8626,0,0,0,1.248-1.4726Zm-3.1035-5.4717a3.2611,3.2611,0,0,0-.96-1.8242,3.2709,3.2709,0,0,0-4.3194.0957,3.5207,3.5207,0,0,0-.96,1.7285Z"/><path class="cls-4" d="M413.4688,179.8h3.1357v1.2481a4.6406,4.6406,0,0,1,3.6475-1.6006,4.5029,4.5029,0,0,1,3.9677,1.8242c.5117.7363.8321,1.664.8321,3.7431v8.2559H421.916v-7.4873c0-3.4238-1.28-3.5195-2.4639-3.5195-1.4082,0-2.8476.1914-2.8476,4.5429v6.4639h-3.1357Z"/><path class="cls-4" d="M104.7725,208.3447h3.1357v23.3262h-3.1357v-1.4082a5.1707,5.1707,0,0,1-4.0313,1.8242c-4.16,0-6.5273-3.456-6.5273-7.168,0-4.3828,3.0078-7.0712,6.56-7.0712a4.91,4.91,0,0,1,3.9991,1.92Zm-7.3594,16.6387c0,2.3359,1.4717,4.2881,3.7441,4.2881,1.9834,0,3.8076-1.44,3.8076-4.2559,0-2.9443-1.8242-4.3515-3.8076-4.3515C98.8848,220.6641,97.4131,222.584,97.4131,224.9834Z"/><path class="cls-4" d="M123.94,228.6a7.0705,7.0705,0,0,1-2.2715,2.4629,7.4107,7.4107,0,0,1-3.9677,1.0244,5.9763,5.9763,0,0,1-4.544-1.7275,7.23,7.23,0,0,1-1.9834-5.1524,7.8941,7.8941,0,0,1,2.1436-5.5351,6.1367,6.1367,0,0,1,4.5117-1.8242,5.7988,5.7988,0,0,1,4.3193,1.76,8.0871,8.0871,0,0,1,1.8877,5.6963v.3838H114.373a4.4554,4.4554,0,0,0,1.1524,2.72,3.2008,3.2008,0,0,0,2.3994.8643,3.3025,3.3025,0,0,0,2.1436-.6719,4.8638,4.8638,0,0,0,1.248-1.4726Zm-3.1035-5.4717a3.2617,3.2617,0,0,0-.96-1.8242,3.2709,3.2709,0,0,0-4.3194.0957,3.52,3.52,0,0,0-.96,1.7285Z"/><path class="cls-4" d="M137.8926,219.7676a4.9112,4.9112,0,0,1,4-1.92c3.5517,0,6.56,2.6884,6.56,7.0712,0,3.712-2.3681,7.168-6.5273,7.168a5.1723,5.1723,0,0,1-4.0322-1.8242v1.4082h-3.1358V208.3447h3.1358Zm-.1914,5.248c0,2.8155,1.8242,4.2559,3.8076,4.2559,2.2715,0,3.7441-1.9522,3.7441-4.2881,0-2.3994-1.4726-4.3193-3.7441-4.3193C139.5254,220.6641,137.7012,222.0713,137.7012,225.0156Z"/><path class="cls-4" d="M154.8535,208.3447v23.3262h-3.1367V208.3447Z"/><path class="cls-4" d="M160.3887,210.6162a2.0161,2.0161,0,1,1-2.0157,2.0156A1.9682,1.9682,0,0,1,160.3887,210.6162Zm1.5683,7.584v13.4707H158.82V218.2Z"/><path class="cls-4" d="M167.6523,218.2l3.4551,7.6787,3.4561-7.6787h3.5195l-6.9756,14.4307L164.1328,218.2Z"/><path class="cls-4" d="M191.94,228.6a7.0724,7.0724,0,0,1-2.2715,2.4629,7.4113,7.4113,0,0,1-3.9678,1.0244,5.9763,5.9763,0,0,1-4.544-1.7275,7.23,7.23,0,0,1-1.9833-5.1524,7.894,7.894,0,0,1,2.1435-5.5351,6.1367,6.1367,0,0,1,4.5117-1.8242,5.799,5.799,0,0,1,4.3194,1.76,8.0876,8.0876,0,0,1,1.8877,5.6963v.3838h-9.6631a4.4547,4.4547,0,0,0,1.1523,2.72,3.201,3.201,0,0,0,2.3994.8643,3.3025,3.3025,0,0,0,2.1436-.6719,4.8638,4.8638,0,0,0,1.248-1.4726Zm-3.1036-5.4717a3.2611,3.2611,0,0,0-.96-1.8242,3.2709,3.2709,0,0,0-4.3194.0957,3.5207,3.5207,0,0,0-.96,1.7285Z"/><path class="cls-4" d="M195.3,218.2h3.1357v1.2158a5.4318,5.4318,0,0,1,1.3125-1.12,3.6245,3.6245,0,0,1,1.92-.4482,4.6476,4.6476,0,0,1,2.4638.6406l-1.28,2.8476a2.837,2.837,0,0,0-1.6-.48,2.4457,2.4457,0,0,0-1.9522.7363,4.3385,4.3385,0,0,0-.8643,3.1035v6.9756H195.3Z"/><path class="cls-4" d="M219.2666,221.752a2.2537,2.2537,0,0,0-1.92-1.1524,1.33,1.33,0,0,0-.96.3525,1.0143,1.0143,0,0,0-.2871.7032.8616.8616,0,0,0,.4473.7685c.1924.128.3838.1914,1.0566.544l1.6.8a6.4506,6.4506,0,0,1,1.8877,1.248,3.3218,3.3218,0,0,1,.9922,2.4951,4.4711,4.4711,0,0,1-1.1846,3.0723,4.8073,4.8073,0,0,1-3.7754,1.5039,4.6359,4.6359,0,0,1-2.9121-.8642,5.2553,5.2553,0,0,1-1.7275-2.4639l2.56-1.2158a3.5436,3.5436,0,0,0,.7363,1.28,1.9213,1.9213,0,0,0,1.376.5118,1.8846,1.8846,0,0,0,1.2793-.4483,1.5844,1.5844,0,0,0,.4482-1.0556,1.4506,1.4506,0,0,0-.416-1.0235,4.1125,4.1125,0,0,0-1.3438-.832l-1.1523-.544a6.657,6.657,0,0,1-1.8555-1.1523,2.9367,2.9367,0,0,1-.96-2.2715,4.2056,4.2056,0,0,1,1.12-2.88,4.3415,4.3415,0,0,1,3.2959-1.28,4.2139,4.2139,0,0,1,2.4951.7041,4.6186,4.6186,0,0,1,1.5361,1.664Z"/><path class="cls-4" d="M236.9619,228.6a7.0715,7.0715,0,0,1-2.2715,2.4629,7.4109,7.4109,0,0,1-3.9677,1.0244,5.9763,5.9763,0,0,1-4.544-1.7275,7.23,7.23,0,0,1-1.9834-5.1524,7.8941,7.8941,0,0,1,2.1436-5.5351,6.1367,6.1367,0,0,1,4.5117-1.8242,5.799,5.799,0,0,1,4.3193,1.76,8.0876,8.0876,0,0,1,1.8877,5.6963v.3838h-9.6631a4.4554,4.4554,0,0,0,1.1524,2.72,3.2008,3.2008,0,0,0,2.3994.8643A3.3022,3.3022,0,0,0,233.09,228.6a4.8627,4.8627,0,0,0,1.2481-1.4726Zm-3.1035-5.4717a3.2613,3.2613,0,0,0-.96-1.8242,3.2707,3.2707,0,0,0-4.3193.0957,3.5208,3.5208,0,0,0-.96,1.7285Z"/><path class="cls-4" d="M240.291,218.2h3.1358v1.248a4.6406,4.6406,0,0,1,3.6474-1.6005,4.503,4.503,0,0,1,3.9678,1.8242c.5117.7363.832,1.664.832,3.7431v8.2559h-3.1357v-7.4873c0-3.4238-1.28-3.52-2.4639-3.52-1.4082,0-2.8476.1914-2.8476,4.5429v6.4639H240.291Z"/><path class="cls-4" d="M265.6973,208.3447h3.1357v23.3262h-3.1357v-1.4082a5.1707,5.1707,0,0,1-4.0313,1.8242c-4.16,0-6.5273-3.456-6.5273-7.168,0-4.3828,3.0078-7.0712,6.5595-7.0712a4.91,4.91,0,0,1,3.9991,1.92Zm-7.3594,16.6387c0,2.3359,1.4717,4.2881,3.7441,4.2881,1.9834,0,3.8076-1.44,3.8076-4.2559,0-2.9443-1.8242-4.3515-3.8076-4.3515C259.81,220.6641,258.3379,222.584,258.3379,224.9834Z"/><path class="cls-4" d="M276.0342,221.08v10.5908h-3.1358V221.08h-1.3125V218.2h1.3125v-4.9277h3.1358V218.2h2.3994v2.88Z"/><path class="cls-4" d="M288,218.2h3.1367v1.2158a5.4086,5.4086,0,0,1,1.3115-1.12,3.6245,3.6245,0,0,1,1.92-.4482,4.6476,4.6476,0,0,1,2.4638.6406l-1.28,2.8476a2.8371,2.8371,0,0,0-1.6-.48,2.4456,2.4456,0,0,0-1.9521.7363,4.3422,4.3422,0,0,0-.8633,3.1035v6.9756H288Z"/><path class="cls-4" d="M301.44,218.2v7.7109a3.8775,3.8775,0,0,0,.5761,2.4317,2.7222,2.7222,0,0,0,4.0957,0,3.877,3.877,0,0,0,.5762-2.4317V218.2h3.1357v7.8066c0,1.7286-.1923,3.168-1.4394,4.4161A6.1442,6.1442,0,0,1,304,232.0869a5.9181,5.9181,0,0,1-4.2559-1.664c-1.248-1.2481-1.44-2.6875-1.44-4.4161V218.2Z"/><path class="cls-4" d="M313.7607,218.2h3.1358v1.248a4.6407,4.6407,0,0,1,3.6474-1.6005,4.503,4.503,0,0,1,3.9678,1.8242c.5117.7363.8321,1.664.8321,3.7431v8.2559H322.208v-7.4873c0-3.4238-1.28-3.52-2.4639-3.52-1.4082,0-2.8476.1914-2.8476,4.5429v6.4639h-3.1358Z"/><path class="cls-4" d="M339.167,208.3447h3.1357v23.3262H339.167v-1.4082a5.1707,5.1707,0,0,1-4.0313,1.8242c-4.16,0-6.5273-3.456-6.5273-7.168,0-4.3828,3.0078-7.0712,6.56-7.0712a4.91,4.91,0,0,1,3.999,1.92Zm-7.3594,16.6387c0,2.3359,1.4717,4.2881,3.7442,4.2881,1.9834,0,3.8076-1.44,3.8076-4.2559,0-2.9443-1.8242-4.3515-3.8076-4.3515C333.2793,220.6641,331.8076,222.584,331.8076,224.9834Z"/><path class="cls-4" d="M349.5029,221.08v10.5908h-3.1357V221.08h-1.3125V218.2h1.3125v-4.9277h3.1357V218.2h2.3994v2.88Z"/><path class="cls-4" d="M355.1348,227.6709l2.8164,1.0879-3.9678,7.9033-2.1123-.8633Z"/><path class="cls-4" d="M382.6846,224.9512a7.2,7.2,0,1,1-7.1992-7.1035A6.9989,6.9989,0,0,1,382.6846,224.9512Zm-3.1992.0322c0-3.0723-2.0166-4.3193-4-4.3193s-4,1.247-4,4.3193c0,2.5918,1.5361,4.2881,4,4.2881S379.4854,227.5752,379.4854,224.9834Z"/><path class="cls-4" d="M395.8037,218.2H398.94V230.583c0,3.168-.3516,5.44-2.2081,7.0078a6.8447,6.8447,0,0,1-4.4794,1.44,5.9492,5.9492,0,0,1-4.4151-1.6641,7.5763,7.5763,0,0,1-1.9844-4.1914h3.04a4.4593,4.4593,0,0,0,.9922,2.1123,3.209,3.209,0,0,0,2.4316.9277,3.3678,3.3678,0,0,0,2.4639-.8964,4.4373,4.4373,0,0,0,1.0234-3.3916v-1.76a4.8769,4.8769,0,0,1-4.0957,1.92,5.7137,5.7137,0,0,1-4.4473-1.8242,7.6138,7.6138,0,0,1-2.0156-5.3438,7.1527,7.1527,0,0,1,1.9834-5.2148,6.1282,6.1282,0,0,1,4.5762-1.8564,5.0656,5.0656,0,0,1,3.999,1.8242ZM389.82,221.56a4.6858,4.6858,0,0,0-1.376,3.4238,4.6225,4.6225,0,0,0,1.3438,3.3916,3.6722,3.6722,0,0,0,2.4.8965,3.4163,3.4163,0,0,0,2.624-1.0879,4.9831,4.9831,0,0,0-.0967-6.56,3.3274,3.3274,0,0,0-2.5273-.96A3.2453,3.2453,0,0,0,389.82,221.56Z"/><path class="cls-4" d="M104.7725,246.7441h3.1357V270.07h-3.1357v-1.4082a5.1707,5.1707,0,0,1-4.0313,1.8242c-4.16,0-6.5273-3.456-6.5273-7.1679,0-4.3829,3.0078-7.0713,6.56-7.0713a4.91,4.91,0,0,1,3.9991,1.92Zm-7.3594,16.6387c0,2.336,1.4717,4.2881,3.7441,4.2881,1.9834,0,3.8076-1.44,3.8076-4.2559,0-2.9443-1.8242-4.3515-3.8076-4.3515C98.8848,259.0635,97.4131,260.9834,97.4131,263.3828Z"/><path class="cls-4" d="M123.94,266.998a7.0643,7.0643,0,0,1-2.2715,2.4639,7.4107,7.4107,0,0,1-3.9677,1.0244,5.9763,5.9763,0,0,1-4.544-1.7275,7.23,7.23,0,0,1-1.9834-5.1524,7.8941,7.8941,0,0,1,2.1436-5.5351,6.1367,6.1367,0,0,1,4.5117-1.8242,5.7988,5.7988,0,0,1,4.3193,1.76,8.0871,8.0871,0,0,1,1.8877,5.6963v.3838H114.373a4.4554,4.4554,0,0,0,1.1524,2.72,3.2008,3.2008,0,0,0,2.3994.8643,3.2975,3.2975,0,0,0,2.1436-.6729,4.8475,4.8475,0,0,0,1.248-1.4716Zm-3.1035-5.4707a3.2617,3.2617,0,0,0-.96-1.8242,3.2709,3.2709,0,0,0-4.3194.0957,3.5243,3.5243,0,0,0-.96,1.7285Z"/><path class="cls-4" d="M134.7568,256.6h3.1358v1.2158a5.428,5.428,0,0,1,1.3125-1.12,3.6249,3.6249,0,0,1,1.92-.4482,4.6479,4.6479,0,0,1,2.4639.6406l-1.28,2.8477a2.8365,2.8365,0,0,0-1.6-.4805,2.4461,2.4461,0,0,0-1.9522.7363,4.3389,4.3389,0,0,0-.8642,3.1035V270.07h-3.1358Z"/><path class="cls-4" d="M156.4512,266.998a7.0653,7.0653,0,0,1-2.2715,2.4639,7.411,7.411,0,0,1-3.9678,1.0244,5.9759,5.9759,0,0,1-4.5439-1.7275,7.23,7.23,0,0,1-1.9834-5.1524,7.894,7.894,0,0,1,2.1435-5.5351,6.1367,6.1367,0,0,1,4.5117-1.8242,5.799,5.799,0,0,1,4.3194,1.76,8.0876,8.0876,0,0,1,1.8877,5.6963v.3838h-9.6631a4.4553,4.4553,0,0,0,1.1523,2.72,3.2011,3.2011,0,0,0,2.3994.8643,3.2974,3.2974,0,0,0,2.1436-.6729,4.8461,4.8461,0,0,0,1.248-1.4716Zm-3.1035-5.4707a3.2619,3.2619,0,0,0-.96-1.8242,3.2707,3.2707,0,0,0-4.3193.0957,3.5245,3.5245,0,0,0-.96,1.7285Z"/><path class="cls-4" d="M163.0439,259.4795V270.07h-3.1357V259.4795h-1.3125V256.6h1.3125v-4.9277h3.1357V256.6h2.3995v2.88Z"/><path class="cls-4" d="M171.4287,259.4795V270.07H168.293V259.4795h-1.3125V256.6h1.3125v-4.9277h3.1357V256.6h2.3994v2.88Z"/><path class="cls-4" d="M188.0039,266.998a7.0653,7.0653,0,0,1-2.2715,2.4639,7.411,7.411,0,0,1-3.9678,1.0244,5.9762,5.9762,0,0,1-4.5439-1.7275,7.23,7.23,0,0,1-1.9834-5.1524,7.8941,7.8941,0,0,1,2.1436-5.5351,6.1367,6.1367,0,0,1,4.5117-1.8242,5.799,5.799,0,0,1,4.3193,1.76,8.0876,8.0876,0,0,1,1.8877,5.6963v.3838h-9.6631a4.4554,4.4554,0,0,0,1.1524,2.72,3.2008,3.2008,0,0,0,2.3994.8643,3.2973,3.2973,0,0,0,2.1435-.6729,4.8465,4.8465,0,0,0,1.2481-1.4716ZM184.9,261.5273a3.2613,3.2613,0,0,0-.96-1.8242,3.2707,3.2707,0,0,0-4.3193.0957,3.5252,3.5252,0,0,0-.96,1.7285Z"/><path class="cls-4" d="M201.9551,258.167a4.9112,4.9112,0,0,1,4-1.92c3.5517,0,6.56,2.6884,6.56,7.0713,0,3.7119-2.3681,7.1679-6.5273,7.1679a5.1723,5.1723,0,0,1-4.0322-1.8242V270.07h-3.1358V246.7441h3.1358Zm-.1914,5.248c0,2.8155,1.8242,4.2559,3.8076,4.2559,2.2715,0,3.7441-1.9521,3.7441-4.2881,0-2.3994-1.4726-4.3193-3.7441-4.3193C203.5879,259.0635,201.7637,260.4707,201.7637,263.415Z"/><path class="cls-4" d="M218.9141,246.7441V270.07h-3.1358V246.7441Z"/><path class="cls-4" d="M224.45,249.0156a2.0162,2.0162,0,1,1-2.0156,2.0156A1.9682,1.9682,0,0,1,224.45,249.0156Zm1.5674,7.584V270.07h-3.1358V256.6Z"/><path class="cls-4" d="M231.7139,256.6l3.456,7.6787L238.625,256.6h3.5195L235.17,271.03,228.1943,256.6Z"/><path class="cls-4" d="M256.002,266.998a7.0653,7.0653,0,0,1-2.2715,2.4639,7.4113,7.4113,0,0,1-3.9678,1.0244,5.9759,5.9759,0,0,1-4.5439-1.7275,7.23,7.23,0,0,1-1.9834-5.1524,7.894,7.894,0,0,1,2.1435-5.5351,6.1367,6.1367,0,0,1,4.5117-1.8242,5.799,5.799,0,0,1,4.3194,1.76,8.0876,8.0876,0,0,1,1.8877,5.6963v.3838h-9.6631a4.4547,4.4547,0,0,0,1.1523,2.72,3.2011,3.2011,0,0,0,2.3994.8643,3.2975,3.2975,0,0,0,2.1436-.6729,4.8475,4.8475,0,0,0,1.248-1.4716Zm-3.1036-5.4707a3.2611,3.2611,0,0,0-.96-1.8242,3.2709,3.2709,0,0,0-4.3194.0957,3.5251,3.5251,0,0,0-.96,1.7285Z"/><path class="cls-4" d="M259.3623,256.6h3.1357v1.2158a5.4318,5.4318,0,0,1,1.3125-1.12,3.6255,3.6255,0,0,1,1.92-.4482,4.6476,4.6476,0,0,1,2.4638.6406l-1.28,2.8477a2.8365,2.8365,0,0,0-1.6-.4805,2.4461,2.4461,0,0,0-1.9522.7363,4.3385,4.3385,0,0,0-.8643,3.1035V270.07h-3.1357Z"/><path class="cls-4" d="M287.2959,246.7441h3.1357V270.07h-3.1357v-1.4082a5.1707,5.1707,0,0,1-4.0313,1.8242c-4.16,0-6.5273-3.456-6.5273-7.1679,0-4.3829,3.0078-7.0713,6.56-7.0713a4.91,4.91,0,0,1,3.999,1.92Zm-7.3594,16.6387c0,2.336,1.4717,4.2881,3.7442,4.2881,1.9834,0,3.8076-1.44,3.8076-4.2559,0-2.9443-1.8242-4.3515-3.8076-4.3515C281.4082,259.0635,279.9365,260.9834,279.9365,263.3828Z"/><path class="cls-4" d="M306.4648,266.998a7.065,7.065,0,0,1-2.2714,2.4639,7.4113,7.4113,0,0,1-3.9678,1.0244,5.9763,5.9763,0,0,1-4.544-1.7275,7.23,7.23,0,0,1-1.9834-5.1524,7.8941,7.8941,0,0,1,2.1436-5.5351,6.1367,6.1367,0,0,1,4.5117-1.8242,5.7992,5.7992,0,0,1,4.3194,1.76,8.0874,8.0874,0,0,1,1.8876,5.6963v.3838h-9.663a4.4547,4.4547,0,0,0,1.1523,2.72,3.201,3.201,0,0,0,2.3994.8643,3.2975,3.2975,0,0,0,2.1436-.6729,4.8475,4.8475,0,0,0,1.248-1.4716Zm-3.1035-5.4707a3.2611,3.2611,0,0,0-.96-1.8242,3.2709,3.2709,0,0,0-4.3194.0957,3.5243,3.5243,0,0,0-.96,1.7285Z"/><path class="cls-4" d="M312.9609,246.7441V270.07h-3.1357V246.7441Z"/><path class="cls-4" d="M320.1611,259.4795V270.07h-3.1357V259.4795h-1.3125V256.6h1.3125v-4.9277h3.1357V256.6h2.3994v2.88Z"/><path class="cls-4" d="M333.8545,256.6l3.456,7.6787,3.4551-7.6787h3.52L337.3105,271.03,330.335,256.6Z"/><path class="cls-4" d="M358.1426,266.998a7.0653,7.0653,0,0,1-2.2715,2.4639,7.411,7.411,0,0,1-3.9678,1.0244,5.9759,5.9759,0,0,1-4.5439-1.7275,7.23,7.23,0,0,1-1.9834-5.1524,7.894,7.894,0,0,1,2.1435-5.5351,6.1367,6.1367,0,0,1,4.5117-1.8242,5.799,5.799,0,0,1,4.3194,1.76,8.0876,8.0876,0,0,1,1.8877,5.6963v.3838h-9.6631a4.4553,4.4553,0,0,0,1.1523,2.72,3.2012,3.2012,0,0,0,2.3995.8643,3.2973,3.2973,0,0,0,2.1435-.6729,4.8465,4.8465,0,0,0,1.2481-1.4716Zm-3.1035-5.4707a3.2619,3.2619,0,0,0-.96-1.8242,3.2707,3.2707,0,0,0-4.3193.0957,3.5245,3.5245,0,0,0-.96,1.7285Z"/><path class="cls-4" d="M371.3584,246.7441h3.1357V270.07h-3.1357v-1.4082a5.1707,5.1707,0,0,1-4.0313,1.8242c-4.16,0-6.5273-3.456-6.5273-7.1679,0-4.3829,3.0078-7.0713,6.56-7.0713a4.91,4.91,0,0,1,3.999,1.92Zm-7.3594,16.6387c0,2.336,1.4717,4.2881,3.7442,4.2881,1.9834,0,3.8076-1.44,3.8076-4.2559,0-2.9443-1.8242-4.3515-3.8076-4.3515C365.4707,259.0635,363.999,260.9834,363.999,263.3828Z"/><path class="cls-4" d="M395.7744,256.6H398.91V270.07h-3.1358v-1.4082a5.1706,5.1706,0,0,1-4.0312,1.8242c-4.16,0-6.5274-3.456-6.5274-7.1679,0-4.3829,3.0078-7.0713,6.56-7.0713a4.91,4.91,0,0,1,3.999,1.92Zm-7.3594,6.7832c0,2.336,1.4717,4.2881,3.7442,4.2881,1.9834,0,3.8076-1.44,3.8076-4.2559,0-2.9443-1.8242-4.3515-3.8076-4.3515C389.8867,259.0635,388.415,260.9834,388.415,263.3828Z"/><path class="cls-4" d="M406.11,259.4795V270.07h-3.1358V259.4795h-1.3125V256.6h1.3125v-4.9277H406.11V256.6H408.51v2.88Z"/><path class="cls-4" d="M98.1494,297.88v10.5908H95.0137V297.88H93.7012V295h1.3125v-4.9277h3.1357V295h2.3994v2.88Z"/><path class="cls-4" d="M102.6611,295h3.1358v1.2158a5.428,5.428,0,0,1,1.3125-1.12,3.624,3.624,0,0,1,1.92-.4482,4.6479,4.6479,0,0,1,2.4639.6406l-1.28,2.8476a2.837,2.837,0,0,0-1.6-.48,2.4461,2.4461,0,0,0-1.9522.7363,4.3389,4.3389,0,0,0-.8642,3.1035v6.9756h-3.1358Z"/><path class="cls-4" d="M118.2441,306.3584,112.4854,295h3.7753l3.84,7.8711L124.0039,295h3.5195l-10.7187,20.7979h-3.5195Z"/><path class="cls-4" d="M132.8359,285.1445v14.3672L137.22,295h4.16l-5.792,5.6,6.208,7.8711h-3.9678l-4.416-5.76-.5762.5762v5.1836H129.7V285.1445Z"/><path class="cls-4" d="M146.9785,285.1445v14.3672L151.3623,295h4.16l-5.792,5.6,6.208,7.8711h-3.9678l-4.416-5.76-.5762.5762v5.1836h-3.1357V285.1445Z"/><path class="cls-4" d="M169.6992,305.3984a7.0653,7.0653,0,0,1-2.2715,2.4639,7.4109,7.4109,0,0,1-3.9677,1.0244,5.9763,5.9763,0,0,1-4.544-1.7275,7.23,7.23,0,0,1-1.9834-5.1524,7.8941,7.8941,0,0,1,2.1436-5.5351,6.1367,6.1367,0,0,1,4.5117-1.8242,5.799,5.799,0,0,1,4.3193,1.76,8.0876,8.0876,0,0,1,1.8877,5.6963v.3838h-9.6631a4.4554,4.4554,0,0,0,1.1524,2.72,3.2008,3.2008,0,0,0,2.3994.8643,3.2971,3.2971,0,0,0,2.1435-.6729,4.8465,4.8465,0,0,0,1.2481-1.4716Zm-3.1035-5.4707a3.2613,3.2613,0,0,0-.96-1.8242,3.2707,3.2707,0,0,0-4.3193.0957,3.5252,3.5252,0,0,0-.96,1.7285Z"/><path class="cls-4" d="M183.65,315.7979h-3.1358V295H183.65v1.4717a5.0686,5.0686,0,0,1,4-1.8242c3.5517,0,6.56,2.72,6.56,7.0078,0,4.5439-3.3272,7.2314-6.5274,7.2314a5.3482,5.3482,0,0,1-4.0322-1.9844Zm-.1914-13.9825c0,2.8155,1.8242,4.2559,3.8076,4.2559,2.2715,0,3.7441-1.9522,3.7441-4.2881,0-2.3994-1.4726-4.3193-3.7441-4.3193C185.2832,297.4639,183.459,298.8711,183.459,301.8154Z"/><path class="cls-4" d="M207.3291,295h3.1357v13.4707h-3.1357v-1.4082a5.1706,5.1706,0,0,1-4.0312,1.8242c-4.16,0-6.5274-3.456-6.5274-7.1679,0-4.3829,3.0078-7.0713,6.56-7.0713a4.91,4.91,0,0,1,3.999,1.92Zm-7.3594,6.7832c0,2.3359,1.4717,4.2881,3.7442,4.2881,1.9834,0,3.8076-1.44,3.8076-4.2559,0-2.9443-1.8242-4.3515-3.8076-4.3515C201.4414,297.4639,199.97,299.3838,199.97,301.7832Zm3.52-14.8467a3.0078,3.0078,0,1,1-3.0079,3.0078A3.0462,3.0462,0,0,1,203.4893,286.9365Zm0,4.3838a1.376,1.376,0,1,0-1.376-1.376A1.3657,1.3657,0,0,0,203.4893,291.32Z"/><path class="cls-4" d="M231.7451,285.1445h3.1358v23.3262h-3.1358v-1.4082a5.1706,5.1706,0,0,1-4.0312,1.8242c-4.16,0-6.5274-3.456-6.5274-7.1679,0-4.3829,3.0078-7.0713,6.56-7.0713a4.91,4.91,0,0,1,3.999,1.92Zm-7.3594,16.6387c0,2.3359,1.4717,4.2881,3.7442,4.2881,1.9834,0,3.8076-1.44,3.8076-4.2559,0-2.9443-1.8242-4.3515-3.8076-4.3515C225.8574,297.4639,224.3857,299.3838,224.3857,301.7832Z"/><path class="cls-4" d="M250.9121,305.3984a7.0653,7.0653,0,0,1-2.2715,2.4639,7.4109,7.4109,0,0,1-3.9677,1.0244,5.9763,5.9763,0,0,1-4.544-1.7275,7.23,7.23,0,0,1-1.9834-5.1524,7.8941,7.8941,0,0,1,2.1436-5.5351,6.1367,6.1367,0,0,1,4.5117-1.8242,5.799,5.799,0,0,1,4.3193,1.76,8.0876,8.0876,0,0,1,1.8877,5.6963v.3838h-9.6631a4.4554,4.4554,0,0,0,1.1524,2.72,3.2008,3.2008,0,0,0,2.3994.8643,3.2973,3.2973,0,0,0,2.1435-.6729,4.8465,4.8465,0,0,0,1.2481-1.4716Zm-3.1035-5.4707a3.2613,3.2613,0,0,0-.96-1.8242,3.2707,3.2707,0,0,0-4.3193.0957,3.5252,3.5252,0,0,0-.96,1.7285Z"/><path class="cls-4" d="M254.2725,295h3.1357v1.248a4.1532,4.1532,0,0,1,3.3281-1.6005,3.9566,3.9566,0,0,1,3.4883,1.9843,4.7683,4.7683,0,0,1,3.999-1.9843,4.3141,4.3141,0,0,1,3.84,2.1123,6.6333,6.6333,0,0,1,.7041,3.3916v8.3193h-3.1358v-7.4238a6.2469,6.2469,0,0,0-.288-2.3994,1.7756,1.7756,0,0,0-1.792-1.1836,2.3176,2.3176,0,0,0-1.8555.9912,5.4682,5.4682,0,0,0-.6084,3.0722v6.9434h-3.1358v-7.4238a6.2469,6.2469,0,0,0-.288-2.3994,1.7746,1.7746,0,0,0-1.792-1.1836,2.3176,2.3176,0,0,0-1.8555.9912,5.469,5.469,0,0,0-.6084,3.0722v6.9434h-3.1357Z"/><path class="cls-4" d="M278.7852,305.0146a1.92,1.92,0,1,1-1.919,1.92A1.9254,1.9254,0,0,1,278.7852,305.0146Zm-1.5674-1.8232V287.1279h3.1357v16.0635Z"/></svg>
