<svg id="Levelcomplete" xmlns="http://www.w3.org/2000/svg" width="490" height="390" viewBox="0 0 490 390"><defs><style>.cls-1{fill:#f4912d;}.cls-2{fill:#152230;}.cls-3{fill:#fff;}</style></defs><title>introscreenpopup3</title><path class="cls-1" d="M38.6139,98.0838l359.2273,1.9548a12.2443,12.2443,0,0,1,12.2342,12.2538l-1.22,224.2228a12.2443,12.2443,0,0,1-12.3669,12.12l-59.3126-.3228-.203,37.29L269.87,347.9461,37.2611,346.68a12.2444,12.2444,0,0,1-12.2343-12.2538l1.22-224.2227A12.2444,12.2444,0,0,1,38.6139,98.0838Z"/><rect class="cls-2" x="53.6559" y="15.8503" width="409.604" height="86.0022" rx="9.0692" transform="translate(516.5917 119.1083) rotate(-179.6882)"/><polyline class="cls-2" points="442.613 131.075 442.781 100.169 398.023 99.925"/><path class="cls-3" d="M91.5332,45.69l3.457.0185-.07,12.9131.1192.001c.7207-1.0293,1.4414-1.9785,2.122-2.8487L105.4,45.7646l4.291.0235-9.7559,11.31,10.3663,15.4737-4.0928-.0215L97.459,59.35,94.9,62.2764l-.0557,10.2119-3.457-.0186Z"/><path class="cls-3" d="M113.5479,53.3584l4.15,11.3867c.4307,1.2744.8985,2.7861,1.21,3.94l.08.001c.3633-1.15.7685-2.6181,1.2529-4.0058l3.876-11.2647,3.6953.02-5.3193,13.68c-2.5391,6.583-4.2666,9.9512-6.6612,12.0039a9.4847,9.4847,0,0,1-4.3037,2.2422L110.67,78.416a9.2407,9.2407,0,0,0,3.0694-1.6924,10.6105,10.6105,0,0,0,2.9619-3.8779,2.5135,2.5135,0,0,0,.2812-.832,3.0278,3.0278,0,0,0-.2334-.916l-7.0156-17.76Z"/><path class="cls-3" d="M131.043,44.4736l3.4961.02-.1534,28.2109-3.4961-.0195Z"/><path class="cls-3" d="M144.2959,48.1221a2.1657,2.1657,0,0,1-4.3311-.0235,2.13,2.13,0,0,1,2.1963-2.1738A2.0757,2.0757,0,0,1,144.2959,48.1221Zm-4.0283,24.6133.1045-19.2315,3.497.02-.1045,19.2315Z"/><path class="cls-3" d="M151.5625,63.8174c.0537,4.7275,3.0635,6.6914,6.56,6.7109a12.63,12.63,0,0,0,5.3291-.9648l.582,2.5068a15.5648,15.5648,0,0,1-6.4023,1.1572c-5.9209-.0322-9.4366-3.9463-9.4043-9.747s3.4726-10.3516,9.0752-10.32c6.2783.0341,7.9179,5.5654,7.8984,9.1015a13.3508,13.3508,0,0,1-.1279,1.6289Zm10.2646-2.4483c.0518-2.2246-.8837-5.6865-4.8173-5.708-3.5362-.02-5.1036,3.23-5.3936,5.6524Z"/><path class="cls-3" d="M183.6484,46.19l3.4571.0186-.0977,17.92c-.0381,7.1123-3.5478,9.2793-8.1562,9.2539a11.19,11.19,0,0,1-3.6914-.6553l.5322-2.8183a8.2476,8.2476,0,0,0,2.8974.5322c3.1.0166,4.9346-1.3643,4.9629-6.6094Z"/><path class="cls-3" d="M194.6006,64.0518c.0537,4.7275,3.0625,6.6914,6.56,6.71a12.6326,12.6326,0,0,0,5.3291-.9638l.582,2.5058a15.5447,15.5447,0,0,1-6.4024,1.1582c-5.9209-.0322-9.4365-3.9463-9.4043-9.7471s3.4727-10.3515,9.0752-10.3212c6.2784.0341,7.918,5.5664,7.8985,9.1025a13.3508,13.3508,0,0,1-.1279,1.6289Zm10.2646-2.4483c.0518-2.2246-.8838-5.6865-4.8173-5.708-3.5362-.02-5.1036,3.23-5.3936,5.6524Z"/><path class="cls-3" d="M212.59,59.1025c.0108-1.9863-.0195-3.6152-.1308-5.206l3.1.0166.1807,3.18.08.001a7.0709,7.0709,0,0,1,6.377-3.5811c2.6621.0146,6.7861,1.626,6.75,8.2217l-.0625,11.4834-3.4961-.0186.0605-11.0859c.0166-3.0987-1.122-5.6885-4.42-5.7061a4.9668,4.9668,0,0,0-4.708,3.5508,5.0453,5.0453,0,0,0-.2471,1.627l-.0625,11.5625-3.497-.0186Z"/><path class="cls-3" d="M234.6445,59.2227c.0108-1.9864-.02-3.6163-.1308-5.2061l3.1.0166.1816,3.18.0791.001a7.0709,7.0709,0,0,1,6.377-3.5811c2.6621.0147,6.7861,1.626,6.75,8.2217l-.0625,11.4834-3.4961-.02.0605-11.086c.0166-3.0986-1.122-5.6875-4.42-5.7051a4.9671,4.9671,0,0,0-4.708,3.55,5.0561,5.0561,0,0,0-.2471,1.628l-.0625,11.5625-3.497-.0186Z"/><path class="cls-3" d="M258.62,64.3994c.0537,4.7285,3.0635,6.6924,6.56,6.711a12.65,12.65,0,0,0,5.3291-.9639l.582,2.5058a15.5493,15.5493,0,0,1-6.4023,1.1573c-5.9209-.0323-9.4365-3.9453-9.4043-9.7461s3.4726-10.3516,9.0752-10.3213c6.2783.0342,7.9179,5.5654,7.8984,9.1016a13.369,13.369,0,0,1-.1279,1.63Zm10.2647-2.4482c.0517-2.2237-.8838-5.6866-4.8174-5.708-3.5362-.0186-5.1035,3.23-5.3936,5.6533Z"/><path class="cls-3" d="M276.6064,60.2451c.0118-2.2646-.0166-4.2119-.1269-6l3.06.0166.0986,3.7754.1592.001a5.769,5.769,0,0,1,5.3467-4.1826,3.779,3.779,0,0,1,.9931.124l-.0185,3.2978a5.1782,5.1782,0,0,0-1.19-.125c-2.4638-.0136-4.2216,1.8438-4.7129,4.4639a9.7086,9.7086,0,0,0-.1679,1.6289l-.0557,10.251-3.457-.0195Z"/><path class="cls-3" d="M289.0625,71.5186a2.3682,2.3682,0,1,1,4.7285.0263,2.3663,2.3663,0,1,1-4.7285-.0263Zm.0762-14.0264a2.3682,2.3682,0,1,1,4.7285.0264,2.3663,2.3663,0,1,1-4.7285-.0264Z"/><path class="cls-3" d="M52.0928,123.2725c2.9765.0156,5.5664.3505,7.9238,2.123a10.5645,10.5645,0,0,1,4.0488,8.63,10.1768,10.1768,0,0,1-4.334,8.584c-2.5058,1.7461-4.8427,2.0215-7.8183,2.0049l-4.416-.0235.1162-21.3428Zm-1.3155,18.2636,1.4082.0078a9.2442,9.2442,0,0,0,5.6719-1.4726,7.5234,7.5234,0,0,0,2.9444-6.0635,7.6029,7.6029,0,0,0-2.8467-6.1592,9.554,9.554,0,0,0-5.6865-1.5029l-1.4082-.0078Z"/><path class="cls-3" d="M79.6084,141.6934a7.0721,7.0721,0,0,1-2.2852,2.4511,7.4114,7.4114,0,0,1-3.9736,1.003,5.9735,5.9735,0,0,1-4.5342-1.753,7.23,7.23,0,0,1-1.955-5.1631,7.8931,7.8931,0,0,1,2.1738-5.5234,6.1368,6.1368,0,0,1,4.5215-1.7988,5.7921,5.7921,0,0,1,4.31,1.7832,8.0844,8.0844,0,0,1,1.8565,5.706l-.002.3838-9.6631-.0527a4.4607,4.4607,0,0,0,1.1377,2.7266,3.2,3.2,0,0,0,2.3946.8769,3.3,3.3,0,0,0,2.1474-.6611,4.8573,4.8573,0,0,0,1.2559-1.4649Zm-3.0742-5.4883a3.2664,3.2664,0,0,0-.9492-1.8291,3.2709,3.2709,0,0,0-4.32.0722,3.5254,3.5254,0,0,0-.97,1.7237Z"/><path class="cls-3" d="M93.6973,134.251,93.64,144.8418l-3.1357-.0176.0576-10.5908-1.3125-.0068.0156-2.88,1.3125.0068.0264-4.9277,3.1358.0176-.0264,4.9277,2.3994.0127-.0156,2.88Z"/><path class="cls-3" d="M99.4082,131.4658a15.7943,15.7943,0,0,1,3.8106-.3955A7.7652,7.7652,0,0,1,106,131.501a4.4226,4.4226,0,0,1,2.0078,1.5146,4.6255,4.6255,0,0,1,1.8633-1.3652,6.4336,6.4336,0,0,1,2.7871-.5293,6.0249,6.0249,0,0,1,4.5977,1.7851,8.1363,8.1363,0,0,1,1.8564,5.7071l-.0019.3838-9.6631-.0528a4.448,4.448,0,0,0,1.1377,2.7256,3.2,3.2,0,0,0,2.3945.877,3.2944,3.2944,0,0,0,2.1475-.6612,4.8459,4.8459,0,0,0,1.2558-1.4648l2.6162,1.4863a7.0652,7.0652,0,0,1-2.2851,2.4512,7.7014,7.7014,0,0,1-4.0381,1.0029,6.4857,6.4857,0,0,1-2.8115-.5918,4.8092,4.8092,0,0,1-1.9112-1.61,6.455,6.455,0,0,1-2.1855,1.6523,8.1108,8.1108,0,0,1-2.8506.4971,5.4861,5.4861,0,0,1-4.12-1.4619,4.1442,4.1442,0,0,1-1.3262-3.08,4.2635,4.2635,0,0,1,1.2959-3.1289,5.9987,5.9987,0,0,1,4.1035-1.417,6.966,6.966,0,0,1,3.4512.9141,3.1863,3.1863,0,0,0-.8828-2.4366,4.2008,4.2008,0,0,0-2.7471-.8144,11.0442,11.0442,0,0,0-3.2988.4941Zm1.62,8.1045a1.5523,1.5523,0,0,0-.55,1.1807,1.7047,1.7047,0,0,0,.6328,1.251,3.22,3.22,0,0,0,2.1075.62,3.6681,3.6681,0,0,0,2.0195-.502,1.6438,1.6438,0,0,0,.8711-1.4023,1.6149,1.6149,0,0,0-.9834-1.3809,3.7972,3.7972,0,0,0-1.8867-.4267A3.2618,3.2618,0,0,0,101.0283,139.57Zm14.8965-3.15a3.2663,3.2663,0,0,0-.9492-1.83,3.275,3.275,0,0,0-4.3213.0723,3.7624,3.7624,0,0,0-.97,1.7236Z"/><path class="cls-3" d="M122.3848,131.5273l3.1357.0166-.0068,1.2481a4.64,4.64,0,0,1,3.6562-1.5811,4.5028,4.5028,0,0,1,3.9571,1.8457c.5078.7383.8222,1.669.8115,3.7481l-.0449,8.2558-3.1348-.0166.04-7.4873c.02-3.4238-1.2607-3.5273-2.4443-3.5332-1.4082-.0078-2.8486.1758-2.8721,4.5274l-.0351,6.4638-3.1358-.0166Z"/><path class="cls-3" d="M141.124,121.7734l-.0781,14.3672,4.4082-4.4883,4.16.0225-5.8223,5.5684,6.165,7.9052-3.9677-.0224-4.3848-5.7832-.5791.5732-.0283,5.1836-3.1358-.0176.127-23.3261Z"/><path class="cls-3" d="M163.7334,142.15a7.0756,7.0756,0,0,1-2.2852,2.4521,7.42,7.42,0,0,1-3.9736,1.002,5.976,5.976,0,0,1-4.5342-1.752,7.2293,7.2293,0,0,1-1.955-5.163,7.8918,7.8918,0,0,1,2.1738-5.5235,6.1344,6.1344,0,0,1,4.5215-1.8,5.8,5.8,0,0,1,4.3095,1.7832,8.088,8.088,0,0,1,1.8565,5.707l-.002.3838-9.6631-.0527a4.4577,4.4577,0,0,0,1.1377,2.7256,3.2052,3.2052,0,0,0,2.3946.8779,3.3058,3.3058,0,0,0,2.1474-.6611,4.8573,4.8573,0,0,0,1.2559-1.4649Zm-3.0742-5.4873a3.26,3.26,0,0,0-.9492-1.8291,3.2722,3.2722,0,0,0-4.32.0713,3.5336,3.5336,0,0,0-.97,1.7236Z"/><path class="cls-3" d="M167.15,131.7705l3.1367.0166-.0068,1.2158a5.3953,5.3953,0,0,1,1.3174-1.1123,3.6227,3.6227,0,0,1,1.9228-.4385,4.6526,4.6526,0,0,1,2.46.6543l-1.2959,2.8409a2.8368,2.8368,0,0,0-1.5967-.4893,2.4464,2.4464,0,0,0-1.9561.7256,4.342,4.342,0,0,0-.88,3.0986l-.0381,6.9756-3.1368-.0166Z"/><path class="cls-3" d="M186.8389,124.293a2.0161,2.0161,0,1,1-2.0264,2.0049A1.97,1.97,0,0,1,186.8389,124.293Zm1.5263,7.5927-.0732,13.4707-3.1358-.0166.0733-13.4707Z"/><path class="cls-3" d="M195.5225,122.0693l-.0782,14.3672,4.4082-4.4883,4.16.0225-5.8223,5.5684,6.1651,7.9052-3.9678-.0224-4.3848-5.7832-.5791.5732-.0283,5.1836-3.1357-.0176.1269-23.3261Z"/><path class="cls-3" d="M209.667,122.1455l-.0781,14.3672,4.4072-4.4873,4.16.0225-5.8222,5.5683,6.165,7.9043-3.9678-.0215-4.3847-5.7832-.5781.5723-.0284,5.1836-3.1367-.0166.127-23.3262Z"/><path class="cls-3" d="M232.2744,142.5234a7.0652,7.0652,0,0,1-2.2851,2.4512,7.4052,7.4052,0,0,1-3.9727,1.0029,5.9759,5.9759,0,0,1-4.5342-1.7519,7.23,7.23,0,0,1-1.9551-5.1631,7.8919,7.8919,0,0,1,2.1739-5.5234,6.1335,6.1335,0,0,1,4.5215-1.8,5.7967,5.7967,0,0,1,4.3085,1.7832,8.0878,8.0878,0,0,1,1.8565,5.707l-.002.3838-9.6621-.0528a4.46,4.46,0,0,0,1.1377,2.7256,3.2,3.2,0,0,0,2.3946.877,3.2948,3.2948,0,0,0,2.1474-.6611,4.8439,4.8439,0,0,0,1.2549-1.4649ZM229.2,137.0361a3.259,3.259,0,0,0-.9482-1.83,3.2737,3.2737,0,0,0-4.32.0722,3.5336,3.5336,0,0,0-.97,1.7237Z"/><path class="cls-3" d="M246.1689,152.999l-3.1357-.0176.1133-20.7978,3.1357.0176-.0078,1.4717a5.0682,5.0682,0,0,1,4.01-1.8028c3.5517.0195,6.5449,2.7559,6.5215,7.044-.0254,4.5439-3.3672,7.2129-6.5674,7.1953a5.3478,5.3478,0,0,1-4.0215-2.0059Zm-.1152-13.9834c-.0156,2.8155,1.8008,4.2656,3.7842,4.2764,2.2715.0127,3.7549-1.9316,3.7676-4.2676.0127-2.3994-1.4493-4.3271-3.7207-4.34C247.9014,134.6738,246.0693,136.0713,246.0537,139.0156Z"/><path class="cls-3" d="M269.9619,132.33l3.1358.0166-.0733,13.4707-3.1357-.0166.0078-1.4082a5.17,5.17,0,0,1-4.042,1.8017c-4.16-.0224-6.5078-3.4912-6.4883-7.2031.0244-4.3828,3.0469-7.0547,6.5986-7.0361a4.9092,4.9092,0,0,1,3.9883,1.9424Zm-7.3965,6.7431c-.0127,2.336,1.4483,4.2959,3.7207,4.3077,1.9834.0117,3.8155-1.419,3.8311-4.2344.0156-2.9444-1.8008-4.3613-3.7842-4.3731C264.0605,134.7617,262.5781,136.6738,262.5654,139.0732Zm3.6006-14.8281a3.0078,3.0078,0,1,1-3.0244,2.9912A3.0462,3.0462,0,0,1,266.166,124.2451Zm-.0244,4.3838a1.376,1.376,0,1,0-1.3682-1.3828A1.3651,1.3651,0,0,0,266.1416,128.6289Z"/><path class="cls-3" d="M46.8389,159.6611l3.1357.0166-.0605,11.0069a4.85,4.85,0,0,1,3.625-1.4844,4.5832,4.5832,0,0,1,3.958,1.8457,6.633,6.633,0,0,1,.8437,3.748l-.0449,8.2559-3.1357-.0166.0429-7.9678a3.2409,3.2409,0,0,0-.5957-2.34,2.3651,2.3651,0,0,0-1.7558-.7129,2.7838,2.7838,0,0,0-2.31,1.1074,6.0306,6.0306,0,0,0-.6592,3.3887l-.0351,6.4951-3.1358-.0166Z"/><path class="cls-3" d="M64.0654,169.61l3.4131,7.6972,3.4981-7.66,3.5195.0195L67.4424,184.06l-6.8965-14.4688Z"/><path class="cls-3" d="M90.0117,176.5029a7.2,7.2,0,1,1-7.16-7.1435A6.9973,6.9973,0,0,1,90.0117,176.5029Zm-3.1992.0147c.0166-3.0723-1.9932-4.33-3.9766-4.3418s-4.0068,1.2256-4.0234,4.2978c-.0137,2.5918,1.5127,4.2969,3.9766,4.31S86.7988,179.1094,86.8125,176.5176Z"/><path class="cls-3" d="M93.3125,169.77l3.1357.0166-.0068,1.2159A5.4165,5.4165,0,0,1,97.76,169.89a3.6226,3.6226,0,0,1,1.9228-.4384,4.6425,4.6425,0,0,1,2.46.6543l-1.2959,2.8408a2.8368,2.8368,0,0,0-1.5967-.4893,2.4441,2.4441,0,0,0-1.9561.7256,4.3389,4.3389,0,0,0-.8808,3.0986l-.0381,6.9756-3.1357-.0166Z"/><path class="cls-3" d="M112.8535,160.02l3.1358.0176-.127,23.3262-3.1357-.0176.0078-1.4082a5.17,5.17,0,0,1-4.041,1.8027c-4.16-.0224-6.5088-3.4922-6.4893-7.2041.0244-4.3828,3.0469-7.0547,6.5986-7.0351a4.9108,4.9108,0,0,1,3.9883,1.9414Zm-7.45,16.5987c-.0127,2.3359,1.4483,4.2959,3.7207,4.3086,1.9834.0107,3.8155-1.42,3.8311-4.2354.0156-2.9443-1.8008-4.3613-3.7842-4.3721C106.8984,172.3066,105.416,174.2188,105.4033,176.6182Z"/><path class="cls-3" d="M129.76,169.9678l3.1347.0166-.0732,13.4707-3.1348-.0166.0078-1.4082a5.1685,5.1685,0,0,1-4.041,1.8017c-4.16-.0224-6.5088-3.4912-6.4892-7.2031.0244-4.3828,3.0468-7.0547,6.5986-7.0361a4.9123,4.9123,0,0,1,3.9883,1.9424Zm-7.3965,6.7431c-.0127,2.336,1.4482,4.2959,3.7207,4.3086,1.9834.0108,3.8154-1.42,3.831-4.2353.0157-2.9444-1.8007-4.3613-3.7841-4.3721C123.8584,172.3994,122.376,174.3115,122.3633,176.7109Z"/><path class="cls-3" d="M136.832,170.0059l3.1358.0175-.0069,1.2481a4.6407,4.6407,0,0,1,3.6563-1.5811,4.5048,4.5048,0,0,1,3.958,1.8457c.5078.7393.8223,1.669.8115,3.7481l-.0449,8.2558-3.1357-.0175.041-7.4873c.0185-3.4239-1.2617-3.5264-2.4453-3.5323-1.4082-.0078-2.8487.1758-2.8721,4.5274l-.0352,6.4638-3.1357-.0175Z"/><path class="cls-3" d="M169.7471,160.3291l3.1357.0176-.1269,23.3262-3.1358-.0176.0078-1.4082a5.17,5.17,0,0,1-4.041,1.8027c-4.16-.0225-6.5088-3.4922-6.4892-7.2041.0244-4.3828,3.0468-7.0547,6.5986-7.0352a4.9083,4.9083,0,0,1,3.9883,1.9415Zm-7.45,16.5986c-.0127,2.336,1.4482,4.2959,3.7207,4.3086,1.9834.0108,3.8154-1.42,3.831-4.2353.0157-2.9444-1.8007-4.3614-3.7841-4.3721C163.792,172.6162,162.31,174.5283,162.2969,176.9277Z"/><path class="cls-3" d="M188.8047,180.6885a7.0708,7.0708,0,0,1-2.2852,2.45,7.409,7.409,0,0,1-3.9726,1.0029,5.9782,5.9782,0,0,1-4.5352-1.752,7.23,7.23,0,0,1-1.9551-5.163,7.8923,7.8923,0,0,1,2.1739-5.5235,6.1342,6.1342,0,0,1,4.5215-1.8,5.8,5.8,0,0,1,4.3095,1.7832,8.0882,8.0882,0,0,1,1.8565,5.7071l-.002.3837-9.6631-.0527a4.46,4.46,0,0,0,1.1377,2.7256,3.2,3.2,0,0,0,2.3946.8769,3.2991,3.2991,0,0,0,2.1474-.66,4.8614,4.8614,0,0,0,1.2559-1.4658ZM185.7305,175.2a3.26,3.26,0,0,0-.9493-1.83,3.2737,3.2737,0,0,0-4.32.0723,3.5283,3.5283,0,0,0-.97,1.7236Z"/><path class="cls-3" d="M195.4385,173.2051l-.0576,10.5908-3.1358-.0176.0576-10.5908-1.3125-.0068.0157-2.88,1.3125.0068.0263-4.9277,3.1358.0176-.0264,4.9277,2.3994.0127-.0156,2.88Z"/><path class="cls-3" d="M210.4434,191.2051l-3.1368-.0176L207.42,170.39l3.1367.0176-.0078,1.4717a5.065,5.065,0,0,1,4.0088-1.8027c3.5518.0195,6.5449,2.7558,6.5215,7.0439-.0244,4.544-3.3662,7.2129-6.5664,7.1953a5.3432,5.3432,0,0,1-4.02-2.0058Zm-.1163-13.9834c-.0156,2.8154,1.8008,4.2656,3.7842,4.2763,2.2715.0127,3.7549-1.9316,3.7676-4.2675.0127-2.3994-1.4492-4.3272-3.7207-4.34C212.1748,172.88,210.3428,174.2773,210.3271,177.2217Z"/><path class="cls-3" d="M234.2344,170.5361l3.1357.0166-.0732,13.4707-3.1358-.0166.0078-1.4082a5.1687,5.1687,0,0,1-4.041,1.8018c-4.1591-.0225-6.5078-3.4912-6.4883-7.2031.0245-4.3828,3.0469-7.0547,6.5977-7.0362a4.9126,4.9126,0,0,1,3.9883,1.9424Zm-7.3955,6.7432c-.0127,2.3359,1.4482,4.2959,3.72,4.3086,1.9834.0107,3.8154-1.42,3.831-4.2354.0157-2.9443-1.8007-4.3613-3.7841-4.372C228.334,172.9678,226.8516,174.88,226.8389,177.2793Zm3.6-14.8281a3.0078,3.0078,0,1,1-3.0235,2.9922A3.0463,3.0463,0,0,1,230.4385,162.4512Zm-.0244,4.3838a1.376,1.376,0,1,0-1.3682-1.3829A1.3653,1.3653,0,0,0,230.4141,166.835Z"/><path class="cls-3" d="M243.0674,170.584l3.4131,7.6972,3.498-7.66,3.5195.0195-7.0537,14.3926-6.8964-14.4687Z"/><path class="cls-3" d="M257.2842,163.0771a2.0162,2.0162,0,1,1-2.0264,2.0049A1.9683,1.9683,0,0,1,257.2842,163.0771Zm1.5273,7.5928-.0732,13.4707-3.1367-.0176.0732-13.4707Z"/><path class="cls-3" d="M262.7783,170.6914l3.1367.0166-.0068,1.2158a5.3971,5.3971,0,0,1,1.3174-1.1123,3.6229,3.6229,0,0,1,1.9228-.4385,4.6524,4.6524,0,0,1,2.46.6543l-1.2959,2.8409a2.8368,2.8368,0,0,0-1.5967-.4893,2.4439,2.4439,0,0,0-1.956.7256,4.3421,4.3421,0,0,0-.88,3.0986l-.0381,6.9756-3.1367-.0166Z"/><path class="cls-3" d="M276.5918,160.91l-.0781,14.3671,4.4072-4.4873,4.16.0225-5.8223,5.5684,6.165,7.9043-3.9677-.0215-4.3848-5.7832-.5781.5722-.0284,5.1836-3.1367-.0166.127-23.3261Z"/><path class="cls-3" d="M299.2,181.2891a7.0708,7.0708,0,0,1-2.2852,2.45,7.409,7.409,0,0,1-3.9726,1.0029,5.9782,5.9782,0,0,1-4.5352-1.752,7.23,7.23,0,0,1-1.9551-5.1631,7.8921,7.8921,0,0,1,2.1739-5.5234,6.1344,6.1344,0,0,1,4.5215-1.8,5.8,5.8,0,0,1,4.31,1.7832,8.088,8.088,0,0,1,1.8565,5.707l-.002.3838-9.6631-.0527a4.46,4.46,0,0,0,1.1377,2.7256,3.2,3.2,0,0,0,2.3946.8769,3.3,3.3,0,0,0,2.1474-.66,4.8614,4.8614,0,0,0,1.2559-1.4658Zm-3.0742-5.4883a3.2608,3.2608,0,0,0-.9492-1.83,3.2738,3.2738,0,0,0-4.32.0723,3.5283,3.5283,0,0,0-.97,1.7236Z"/><path class="cls-3" d="M302.6172,170.9082l3.1357.0166-.0068,1.2158a5.4428,5.4428,0,0,1,1.3184-1.1133,3.6313,3.6313,0,0,1,1.9228-.4375,4.6443,4.6443,0,0,1,2.46.6543l-1.2959,2.8409a2.8368,2.8368,0,0,0-1.5967-.4893,2.4441,2.4441,0,0,0-1.9561.7256,4.3388,4.3388,0,0,0-.8808,3.0986l-.0381,6.9756-3.1358-.0166Z"/><path class="cls-3" d="M330.6045,161.2041l3.1357.0176-.1269,23.3262-3.1358-.0176.0079-1.4082a5.17,5.17,0,0,1-4.04,1.8027c-4.16-.0225-6.5088-3.4922-6.4892-7.2041.0244-4.3828,3.0468-7.0547,6.5976-7.0352a4.9112,4.9112,0,0,1,3.9883,1.9415Zm-7.4492,16.5986c-.0127,2.336,1.4482,4.2969,3.72,4.3086,1.9834.0108,3.8154-1.42,3.8311-4.2353.0156-2.9444-1.8008-4.3614-3.7842-4.3721C324.65,173.4922,323.168,175.4033,323.1553,177.8027Z"/><path class="cls-3" d="M349.6621,181.5635a7.0706,7.0706,0,0,1-2.2851,2.45,7.4091,7.4091,0,0,1-3.9727,1.0029,5.9782,5.9782,0,0,1-4.5352-1.752,7.2293,7.2293,0,0,1-1.955-5.163,7.8918,7.8918,0,0,1,2.1738-5.5235,6.1346,6.1346,0,0,1,4.5215-1.8,5.8,5.8,0,0,1,4.31,1.7832,8.0882,8.0882,0,0,1,1.8565,5.7071l-.002.3837L340.11,178.6a4.4594,4.4594,0,0,0,1.1376,2.7256,3.2052,3.2052,0,0,0,2.3946.8779,3.31,3.31,0,0,0,2.1474-.66,4.8646,4.8646,0,0,0,1.2559-1.4668Zm-3.0742-5.4883a3.2608,3.2608,0,0,0-.9492-1.83,3.2737,3.2737,0,0,0-4.32.0723,3.5285,3.5285,0,0,0-.97,1.7236Z"/><path class="cls-3" d="M353.0791,171.1826l3.1357.0166-.0068,1.2481a4.1524,4.1524,0,0,1,3.3369-1.5821,3.9579,3.9579,0,0,1,3.4776,2.003,4.7658,4.7658,0,0,1,4.01-1.962,4.3134,4.3134,0,0,1,3.8282,2.1329,6.63,6.63,0,0,1,.6855,3.3955l-.0449,8.3193-3.1358-.0176.04-7.4238a6.242,6.242,0,0,0-.2744-2.4,1.7772,1.7772,0,0,0-1.7862-1.1933,2.3156,2.3156,0,0,0-1.86.98,5.46,5.46,0,0,0-.625,3.0694l-.0381,6.9433-3.1358-.0166.04-7.4238a6.2532,6.2532,0,0,0-.2744-2.4014,1.7761,1.7761,0,0,0-1.7862-1.1933,2.3167,2.3167,0,0,0-1.86.9814,5.4573,5.4573,0,0,0-.625,3.0684l-.0381,6.9433-3.1357-.0166Z"/><path class="cls-3" d="M49.5986,228.7305l-3.1357-.0166.1133-20.7969,3.1357.0166-.0078,1.4717a5.0685,5.0685,0,0,1,4.01-1.8028c3.5517.02,6.5449,2.7549,6.5215,7.043-.0245,4.544-3.3663,7.2129-6.5665,7.1953a5.3461,5.3461,0,0,1-4.0214-2.0058Zm-.1152-13.9834c-.0156,2.8154,1.8008,4.2656,3.7842,4.2763,2.2715.0127,3.7549-1.9316,3.7676-4.2675.0136-2.3995-1.4493-4.3272-3.7207-4.34C51.3311,210.4053,49.499,211.8027,49.4834,214.7471Z"/><path class="cls-3" d="M73.3916,208.0625l3.1357.0166-.0732,13.47-3.1357-.0166.0078-1.4082a5.1689,5.1689,0,0,1-4.041,1.8018c-4.16-.0225-6.5088-3.4912-6.4883-7.2031.0234-4.3829,3.0459-7.0538,6.5976-7.0342a4.9069,4.9069,0,0,1,3.9883,1.9414Zm-7.3965,6.7422c-.0127,2.3359,1.4483,4.2959,3.7207,4.3086,1.9834.0107,3.8154-1.42,3.8311-4.2354.0156-2.9443-1.8008-4.3613-3.7842-4.372C67.49,210.4932,66.0088,212.4053,65.9951,214.8047Zm3.6006-14.8262a3.0078,3.0078,0,1,1-3.0244,2.9912A3.0454,3.0454,0,0,1,69.5957,199.9785Zm-.0244,4.3838a1.376,1.376,0,1,0-1.3682-1.3838A1.3666,1.3666,0,0,0,69.5713,204.3623Z"/><path class="cls-3" d="M91.0781,209.7266a4.9116,4.9116,0,0,1,4.0108-1.8985c3.5517.02,6.5449,2.7227,6.5215,7.1055-.0206,3.7119-2.4073,7.1553-6.5665,7.1328a5.1731,5.1731,0,0,1-4.0224-1.8457l-.0078,1.4082-3.1358-.0176.127-23.3252,3.1357.0176Zm-.22,5.2451c-.0156,2.8154,1.8008,4.2666,3.7842,4.2773,2.2715.0117,3.7549-1.9316,3.7676-4.2676.0136-2.3994-1.4493-4.3281-3.7207-4.34C92.7061,210.6309,90.874,212.0273,90.8584,214.9717Z"/><path class="cls-3" d="M106.5205,200.6582a2.0161,2.0161,0,1,1-2.0264,2.0049A1.9687,1.9687,0,0,1,106.5205,200.6582Zm1.5274,7.5928-.0733,13.47-3.1367-.0166.0732-13.47Z"/><path class="cls-3" d="M115.2051,198.4346l-.127,23.3252-3.1367-.0176.127-23.3252Z"/><path class="cls-3" d="M122.3086,198.4727l-.127,23.3252-3.1367-.0167.127-23.3251Z"/><path class="cls-3" d="M138.2275,218.8135a7.0728,7.0728,0,0,1-2.2851,2.4511,7.4082,7.4082,0,0,1-3.9727,1.003,5.9782,5.9782,0,0,1-4.5342-1.753,7.2293,7.2293,0,0,1-1.955-5.163,7.892,7.892,0,0,1,2.1738-5.5225,6.137,6.137,0,0,1,4.52-1.8,5.8,5.8,0,0,1,4.31,1.7832,8.0849,8.0849,0,0,1,1.8564,5.7061l-.0019.3837-9.6621-.0527a4.4617,4.4617,0,0,0,1.1377,2.7266,3.1976,3.1976,0,0,0,2.3935.8769,3.3049,3.3049,0,0,0,2.1475-.66,4.8721,4.8721,0,0,0,1.2558-1.4659Zm-3.0732-5.4883a3.2607,3.2607,0,0,0-.95-1.8291,3.2693,3.2693,0,0,0-4.3193.0723,3.5116,3.5116,0,0,0-.9688,1.7226Z"/><path class="cls-3" d="M151.5537,198.6318l3.1358.0176-.127,23.3252-3.1357-.0176.0078-1.4082a5.174,5.174,0,0,1-4.041,1.8028c-4.16-.0235-6.5088-3.4922-6.4883-7.2041.0234-4.3829,3.0459-7.0537,6.5976-7.0342a4.9069,4.9069,0,0,1,3.9883,1.9414Zm-7.45,16.5977c-.0127,2.3359,1.4483,4.2959,3.7207,4.3086,1.9834.0107,3.8154-1.42,3.8311-4.2354.0156-2.9443-1.8008-4.3613-3.7842-4.372C145.5986,210.918,144.1172,212.83,144.1035,215.23Z"/><path class="cls-3" d="M170.6113,218.99a7.07,7.07,0,0,1-2.2851,2.45,7.4082,7.4082,0,0,1-3.9727,1.003,5.9782,5.9782,0,0,1-4.5351-1.752,7.2292,7.2292,0,0,1-1.9551-5.1631,7.8916,7.8916,0,0,1,2.1738-5.5224,6.1338,6.1338,0,0,1,4.5215-1.8,5.7959,5.7959,0,0,1,4.31,1.7832,8.0811,8.0811,0,0,1,1.8564,5.705l-.0019.3838-9.6631-.0517a4.4592,4.4592,0,0,0,1.1377,2.7256,3.2,3.2,0,0,0,2.3945.8769,3.3,3.3,0,0,0,2.1475-.66,4.8613,4.8613,0,0,0,1.2558-1.4659Zm-3.0732-5.4882a3.2662,3.2662,0,0,0-.95-1.83,3.2708,3.2708,0,0,0-4.32.0722,3.52,3.52,0,0,0-.9688,1.7237Z"/><path class="cls-3" d="M174.0283,208.61l3.1358.0166-.0069,1.2158a5.4614,5.4614,0,0,1,1.3184-1.1133,3.6306,3.6306,0,0,1,1.9228-.4375,4.6423,4.6423,0,0,1,2.46.6543l-1.2949,2.84a2.8336,2.8336,0,0,0-1.5977-.4892,2.4435,2.4435,0,0,0-1.956.7256,4.3384,4.3384,0,0,0-.8809,3.0986l-.0381,6.9756-3.1357-.0166Z"/><path class="cls-3" d="M184.62,208.668l3.1358.0166-.0069,1.248a4.64,4.64,0,0,1,3.6563-1.581,4.5043,4.5043,0,0,1,3.958,1.8457c.5078.7392.8232,1.6679.8115,3.747L196.13,222.2l-3.1358-.0166.0411-7.4873c.0185-3.4238-1.2618-3.5274-2.4454-3.5332-1.4082-.0078-2.8486.1758-2.872,4.5273l-.0352,6.4639-3.1357-.0166Z"/><path class="cls-3" d="M212.1777,219.2158a7.074,7.074,0,0,1-2.2851,2.4512A7.4091,7.4091,0,0,1,205.92,222.67a5.9786,5.9786,0,0,1-4.5351-1.7529,7.2292,7.2292,0,0,1-1.9551-5.1631,7.892,7.892,0,0,1,2.1738-5.5225,6.1384,6.1384,0,0,1,4.5215-1.8,5.8,5.8,0,0,1,4.31,1.7832,8.0849,8.0849,0,0,1,1.8564,5.7061l-.0019.3838-9.6631-.0527a4.4565,4.4565,0,0,0,1.1377,2.7255,3.1967,3.1967,0,0,0,2.3945.878,3.3049,3.3049,0,0,0,2.1475-.66,4.873,4.873,0,0,0,1.2558-1.4658Zm-3.0732-5.4883a3.2607,3.2607,0,0,0-.95-1.8291,3.2707,3.2707,0,0,0-4.32.0723,3.5124,3.5124,0,0,0-.9688,1.7227Z"/><path class="cls-3" d="M217.5879,218.86a1.92,1.92,0,1,1-1.9287,1.91A1.9267,1.9267,0,0,1,217.5879,218.86Zm-1.5576-1.8311.0879-16.0625,3.1357.0166-.0879,16.0625Z"/><path class="cls-3" d="M234.95,209.5166l9.1514.05.0459-8.4473,3.2636.0176-.1162,21.3418-3.2637-.0176.0538-9.8232-9.1514-.05-.0537,9.8232-3.2637-.0175.1162-21.3418,3.2637.0175Z"/><path class="cls-3" d="M253.6416,209.043l3.4131,7.6963,3.498-7.6582,3.52.0185-7.0537,14.3916-6.8965-14.4678Z"/><path class="cls-3" d="M279.5879,215.9346a7.2,7.2,0,1,1-7.16-7.1416A6.9988,6.9988,0,0,1,279.5879,215.9346Zm-3.1992.0146c.0166-3.0722-1.9932-4.33-3.9766-4.3408s-4.0068,1.2246-4.0234,4.2969c-.0137,2.5918,1.5127,4.2968,3.9765,4.31S276.375,218.541,276.3887,215.9492Z"/><path class="cls-3" d="M282.8887,209.2021l3.1357.0167-.0068,1.2158a5.4321,5.4321,0,0,1,1.3183-1.1123,3.6317,3.6317,0,0,1,1.9229-.4385,4.6517,4.6517,0,0,1,2.46.6543l-1.295,2.84a2.8406,2.8406,0,0,0-1.5976-.4892,2.4471,2.4471,0,0,0-1.9561.7256,4.3383,4.3383,0,0,0-.8808,3.0986l-.0381,6.9756-3.1358-.0166Z"/><path class="cls-3" d="M302.43,199.4531l3.1357.0166-.1269,23.3252-3.1358-.0166.0078-1.4082a5.1718,5.1718,0,0,1-4.041,1.8018c-4.16-.0225-6.5088-3.4912-6.4883-7.2031.0235-4.3829,3.0459-7.0547,6.5977-7.0352a4.9084,4.9084,0,0,1,3.9883,1.9424Zm-7.45,16.5977c-.0127,2.3359,1.4482,4.2959,3.7207,4.3076,1.9834.0107,3.8154-1.4189,3.831-4.2344.0157-2.9443-1.8007-4.3623-3.7841-4.373C296.4746,211.7393,294.9932,213.6514,294.98,216.0508Z"/><path class="cls-3" d="M319.3359,209.4l3.1358.0166-.0733,13.47-3.1357-.0166.0078-1.4082a5.1734,5.1734,0,0,1-4.041,1.8027c-4.16-.0234-6.5088-3.4921-6.4883-7.2041.0234-4.3828,3.0459-7.0537,6.5977-7.0341a4.9065,4.9065,0,0,1,3.9882,1.9414Zm-7.3964,6.7422c-.0127,2.3359,1.4482,4.2959,3.7207,4.3086,1.9834.0107,3.8154-1.42,3.831-4.2354.0156-2.9443-1.8008-4.3613-3.7842-4.372C313.4346,211.8311,311.9531,213.7432,311.94,216.1426Z"/><path class="cls-3" d="M326.4082,209.4385l3.1357.0176-.0068,1.248a4.6407,4.6407,0,0,1,3.6563-1.5811,4.5046,4.5046,0,0,1,3.958,1.8458c.5078.7392.8232,1.6679.8115,3.747l-.0449,8.2559-3.1358-.0176.041-7.4873c.0186-3.4238-1.2617-3.5264-2.4453-3.5322-1.4082-.0078-2.8486.1758-2.872,4.5273l-.0352,6.4639-3.1357-.0176Z"/><path class="cls-3" d="M48.0957,246.3242l3.4141,7.6973,3.497-7.6592,3.52.0186-7.0528,14.3925-6.8974-14.4677Z"/><path class="cls-3" d="M62.3125,238.8174a2.0161,2.0161,0,1,1-2.0264,2.0049A1.9682,1.9682,0,0,1,62.3125,238.8174Zm1.5264,7.5928-.0733,13.4707-3.1357-.0176.0732-13.4707Z"/><path class="cls-3" d="M70.9961,236.5928l-.127,23.3261-3.1357-.0166.127-23.3261Z"/><path class="cls-3" d="M78.1,236.6318l-.1269,23.3262-3.1358-.0166.127-23.3262Z"/><path class="cls-3" d="M94.0205,256.9727a7.0771,7.0771,0,0,1-2.2851,2.4521,7.4072,7.4072,0,0,1-3.9727,1.0029,5.9789,5.9789,0,0,1-4.5352-1.7529,7.23,7.23,0,0,1-1.955-5.1631,7.8958,7.8958,0,0,1,2.1738-5.5234,6.1377,6.1377,0,0,1,4.5215-1.8,5.7992,5.7992,0,0,1,4.31,1.7832,8.0941,8.0941,0,0,1,1.8575,5.707l-.003.3838-9.663-.0527a4.4575,4.4575,0,0,0,1.1376,2.7256,3.1973,3.1973,0,0,0,2.3946.8779,3.3,3.3,0,0,0,2.1474-.6612,4.8582,4.8582,0,0,0,1.2559-1.4648Zm-3.0732-5.4873a3.2619,3.2619,0,0,0-.95-1.8292,3.271,3.271,0,0,0-4.32.0723,3.5169,3.5169,0,0,0-.9688,1.7227Z"/><path class="cls-3" d="M114.8018,236.8311l3.1357.0175-.127,23.3262-3.1357-.0176.0078-1.4082a5.17,5.17,0,0,1-4.041,1.8028c-4.16-.0225-6.5088-3.4913-6.4883-7.2032.0235-4.3828,3.0459-7.0556,6.5977-7.0361a4.91,4.91,0,0,1,3.9883,1.9414Zm-7.45,16.5986c-.0127,2.3359,1.4482,4.2969,3.7207,4.3086,1.9834.0107,3.8154-1.419,3.831-4.2344.0166-2.9443-1.8008-4.3623-3.7842-4.373C108.8467,249.1191,107.3652,251.03,107.3516,253.43Z"/><path class="cls-3" d="M124.9893,246.7432l-.042,7.7109a3.8735,3.8735,0,0,0,.5625,2.4346,2.7232,2.7232,0,0,0,4.0957.0224,3.8806,3.8806,0,0,0,.5888-2.4287l.042-7.7109,3.1348.0166-.042,7.8066c-.01,1.7285-.209,3.167-1.4639,4.4082a6.1431,6.1431,0,0,1-4.3916,1.6407,5.92,5.92,0,0,1-4.247-1.6875c-1.2412-1.2549-1.4258-2.6954-1.4161-4.4239l.042-7.8066Z"/><path class="cls-3" d="M144.8477,236.9951l3.1357.0166-.06,11.0069a4.8469,4.8469,0,0,1,3.6241-1.4844,4.5807,4.5807,0,0,1,3.958,1.8467,6.63,6.63,0,0,1,.8437,3.747l-.0449,8.2559-3.1358-.0166.043-7.9678a3.2376,3.2376,0,0,0-.5957-2.3389,2.36,2.36,0,0,0-1.7558-.7128,2.782,2.782,0,0,0-2.31,1.1064,6.0393,6.0393,0,0,0-.6592,3.3887l-.0352,6.4951-3.1357-.0166Z"/><path class="cls-3" d="M170.2012,246.9883l3.1357.0176-.0732,13.4707-3.1358-.0176.0078-1.4082a5.17,5.17,0,0,1-4.041,1.8027c-4.16-.0224-6.5088-3.4912-6.4883-7.2031.0235-4.3828,3.0459-7.0557,6.5977-7.0361a4.91,4.91,0,0,1,3.9883,1.9414Zm-7.3965,6.7431c-.0127,2.336,1.4482,4.2969,3.7207,4.3086,1.9834.0108,3.8154-1.42,3.831-4.2353.0166-2.9443-1.8007-4.3613-3.7841-4.3721C164.3,249.4209,162.8184,251.332,162.8047,253.7314Z"/><path class="cls-3" d="M179.0342,247.0371l3.414,7.6973,3.4971-7.66,3.5195.02-7.0527,14.3925-6.8975-14.4687Z"/><path class="cls-3" d="M203.2646,257.5674a7.0652,7.0652,0,0,1-2.2851,2.4512,7.4067,7.4067,0,0,1-3.9727,1.0029,5.9778,5.9778,0,0,1-4.5351-1.752,7.23,7.23,0,0,1-1.9551-5.1631,7.8958,7.8958,0,0,1,2.1738-5.5234,6.1346,6.1346,0,0,1,4.5215-1.8,5.7959,5.7959,0,0,1,4.31,1.7832,8.0925,8.0925,0,0,1,1.8574,5.7061l-.0029.3837-9.6631-.0517a4.46,4.46,0,0,0,1.1377,2.7256,3.2,3.2,0,0,0,2.3945.8769,3.2949,3.2949,0,0,0,2.1475-.6611,4.8459,4.8459,0,0,0,1.2558-1.4648Zm-3.0732-5.4873a3.2668,3.2668,0,0,0-.95-1.83,3.2707,3.2707,0,0,0-4.32.0723,3.5246,3.5246,0,0,0-.9688,1.7236Z"/><path class="cls-3" d="M224.0459,237.4258l3.1357.0176-.1269,23.3261-3.1358-.0175.0079-1.4082a5.1739,5.1739,0,0,1-4.0411,1.8027c-4.16-.0235-6.5087-3.4922-6.4882-7.2041.0234-4.3828,3.0459-7.0547,6.5976-7.0352a4.9069,4.9069,0,0,1,3.9883,1.9414Zm-7.45,16.5986c-.0127,2.336,1.4482,4.2959,3.7207,4.3086,1.9834.0108,3.8154-1.42,3.8311-4.2353.0166-2.9444-1.8008-4.3614-3.7842-4.3721C218.0908,249.7129,216.6094,251.625,216.5957,254.0244Z"/><path class="cls-3" d="M243.1025,257.7842a7.0652,7.0652,0,0,1-2.2851,2.4512,7.4067,7.4067,0,0,1-3.9727,1.0029,5.9778,5.9778,0,0,1-4.5351-1.752,7.23,7.23,0,0,1-1.9551-5.1631,7.8958,7.8958,0,0,1,2.1738-5.5234A6.1342,6.1342,0,0,1,237.05,247a5.7959,5.7959,0,0,1,4.31,1.7832,8.0912,8.0912,0,0,1,1.8574,5.7061l-.0029.3837-9.6631-.0517a4.46,4.46,0,0,0,1.1377,2.7256,3.2,3.2,0,0,0,2.3945.8769,3.2949,3.2949,0,0,0,2.1475-.6611,4.8459,4.8459,0,0,0,1.2558-1.4648Zm-3.0732-5.4873a3.2668,3.2668,0,0,0-.95-1.83,3.2707,3.2707,0,0,0-4.32.0723,3.5238,3.5238,0,0,0-.9688,1.7236Z"/><path class="cls-3" d="M249.7363,250.3018l-.0576,10.5908-3.1357-.0176.0576-10.5908-1.3125-.0069.0156-2.88,1.3125.0068.0274-4.9277,3.1357.0175-.0273,4.9278,2.3994.0127-.0157,2.88Z"/><path class="cls-3" d="M261.7715,237.6309l3.1367.0175-.06,11.0069a4.8359,4.8359,0,0,1,3.6231-1.4844,4.5832,4.5832,0,0,1,3.958,1.8457,6.6346,6.6346,0,0,1,.8437,3.748l-.0449,8.2559-3.1357-.0176.0429-7.9677a3.2376,3.2376,0,0,0-.5957-2.3389,2.3634,2.3634,0,0,0-1.7558-.7129,2.7849,2.7849,0,0,0-2.31,1.1064,6.0473,6.0473,0,0,0-.6582,3.39l-.0352,6.4951-3.1367-.0176Z"/><path class="cls-3" d="M278.998,247.58l3.4141,7.6982,3.4971-7.66,3.5195.0195L282.376,262.03l-6.8975-14.4688Z"/><path class="cls-3" d="M293.2148,240.0732a2.0162,2.0162,0,1,1-2.0263,2.0049A1.969,1.969,0,0,1,293.2148,240.0732Zm1.5264,7.5928-.0732,13.4707-3.1358-.0166.0733-13.4707Z"/><path class="cls-3" d="M304.5771,251.2715a2.2533,2.2533,0,0,0-1.913-1.1631,1.331,1.331,0,0,0-.962.3477,1.01,1.01,0,0,0-.291.7011.8629.8629,0,0,0,.4434.7715c.1914.1289.3818.1934,1.0537.55l1.5947.8086a6.4491,6.4491,0,0,1,1.8809,1.2578,3.3228,3.3228,0,0,1,.9785,2.501,4.4689,4.4689,0,0,1-1.2012,3.0654,4.8062,4.8062,0,0,1-3.7832,1.4834,4.6363,4.6363,0,0,1-2.9072-.88,5.2512,5.2512,0,0,1-1.7148-2.4736l2.5664-1.2012a3.5547,3.5547,0,0,0,.73,1.2842,1.921,1.921,0,0,0,1.373.5186,1.8823,1.8823,0,0,0,1.2822-.4414,1.583,1.583,0,0,0,.4532-1.0528,1.4463,1.4463,0,0,0-.41-1.0254,4.0992,4.0992,0,0,0-1.3389-.84l-1.1494-.55a6.6612,6.6612,0,0,1-1.85-1.1631,2.9364,2.9364,0,0,1-.9473-2.2764,4.2064,4.2064,0,0,1,1.1358-2.874,4.34,4.34,0,0,1,3.3027-1.2617,4.2065,4.2065,0,0,1,2.4912.7178,4.6028,4.6028,0,0,1,1.5274,1.6718Z"/><path class="cls-3" d="M327.5928,237.9893l3.1357.0166-.1269,23.3261-3.1358-.0166.0078-1.4082a5.1669,5.1669,0,0,1-4.04,1.8018c-4.16-.0225-6.5088-3.4912-6.4883-7.2031.0235-4.3829,3.0459-7.0547,6.5977-7.0352a4.9054,4.9054,0,0,1,3.9873,1.9414Zm-7.4492,16.5986c-.0127,2.3359,1.4482,4.2959,3.7207,4.3086,1.9834.0107,3.8144-1.42,3.83-4.2354.0166-2.9443-1.8-4.3613-3.7832-4.372C321.6387,250.2764,320.1572,252.1885,320.1436,254.5879Z"/><path class="cls-3" d="M346.65,258.3477a7.0731,7.0731,0,0,1-2.2852,2.4511,7.4058,7.4058,0,0,1-3.9726,1.003,5.9785,5.9785,0,0,1-4.5352-1.752,7.2317,7.2317,0,0,1-1.9551-5.1631,7.9,7.9,0,0,1,2.1739-5.5244,6.1367,6.1367,0,0,1,4.5215-1.7988,5.7959,5.7959,0,0,1,4.31,1.7832,8.09,8.09,0,0,1,1.8574,5.706l-.0029.3838-9.6631-.0527a4.4607,4.4607,0,0,0,1.1377,2.7266,3.2,3.2,0,0,0,2.3946.8769,3.3,3.3,0,0,0,2.1474-.6611,4.8573,4.8573,0,0,0,1.2559-1.4649Zm-3.0733-5.4883a3.2671,3.2671,0,0,0-.95-1.8291,3.2709,3.2709,0,0,0-4.32.0722,3.5155,3.5155,0,0,0-.9687,1.7237Z"/><path class="cls-3" d="M353.2842,250.8643l-.0576,10.5908-3.1358-.0166.0576-10.5908-1.3125-.0069.0157-2.88,1.3125.0069.0273-4.9278,3.1357.0166-.0273,4.9278,2.3994.0136-.0156,2.88Z"/><path class="cls-3" d="M47.8867,284.7246l3.4141,7.6973,3.4971-7.6592,3.52.0185-7.0528,14.3926-6.8974-14.4677Z"/><path class="cls-3" d="M70.0293,284.8457l3.1357.0166-.0732,13.4707-3.1357-.0166.0078-1.4082a5.1724,5.1724,0,0,1-4.041,1.8018c-4.16-.0225-6.5088-3.4912-6.4883-7.2032.0234-4.3828,3.0459-7.0556,6.5976-7.0361a4.9084,4.9084,0,0,1,3.9883,1.9424Zm-7.3965,6.7432c-.0127,2.3359,1.4483,4.2959,3.7207,4.3076,1.9834.0107,3.8164-1.419,3.8311-4.2344.0166-2.9443-1.8008-4.3623-3.7842-4.373C64.1279,287.2773,62.6465,289.19,62.6328,291.5889Z"/><path class="cls-3" d="M77.1348,284.8838l3.1357.0176-.0068,1.2158a5.4223,5.4223,0,0,1,1.3193-1.1133,3.619,3.619,0,0,1,1.9219-.4375,4.6458,4.6458,0,0,1,2.4609.6533L84.67,288.0605a2.8406,2.8406,0,0,0-1.5976-.4892,2.45,2.45,0,0,0-1.9561.7256,4.3419,4.3419,0,0,0-.8808,3.1l-.0381,6.9756-3.1358-.0176Z"/><path class="cls-3" d="M105.1221,275.1807l3.1357.0166-.1269,23.3261-3.1358-.0166.0078-1.4082a5.1687,5.1687,0,0,1-4.041,1.8018c-4.16-.0225-6.5088-3.4912-6.4883-7.2031.0235-4.3828,3.0459-7.0547,6.5977-7.0362a4.9115,4.9115,0,0,1,3.9883,1.9424Zm-7.45,16.5986c-.0127,2.3359,1.4482,4.2959,3.7207,4.3086,1.9834.0107,3.8164-1.42,3.831-4.2354.0166-2.9443-1.8007-4.3613-3.7841-4.372C99.167,287.4678,97.6855,289.38,97.6719,291.7793Z"/><path class="cls-3" d="M113.7832,277.499a2.0161,2.0161,0,1,1-2.0264,2.0049A1.9677,1.9677,0,0,1,113.7832,277.499Zm1.5264,7.5928-.0733,13.4707-3.1357-.0176.0732-13.4707Z"/><path class="cls-3" d="M129.1328,285.167l3.1348.0166L132.2,297.5664c-.0166,3.168-.3809,5.4375-2.2451,6.9961a6.8478,6.8478,0,0,1-4.4873,1.415,5.9481,5.9481,0,0,1-4.4063-1.6884,7.5755,7.5755,0,0,1-1.9609-4.2022l3.04.0166a4.4638,4.4638,0,0,0,.98,2.1182,3.21,3.21,0,0,0,2.4268.94,3.3637,3.3637,0,0,0,2.4687-.8828,4.44,4.44,0,0,0,1.042-3.3857l.01-1.76a4.8779,4.8779,0,0,1-4.1065,1.8974,5.7148,5.7148,0,0,1-4.4375-1.8486,7.61,7.61,0,0,1-1.9863-5.3545,7.1509,7.1509,0,0,1,2.0117-5.2041,6.1257,6.1257,0,0,1,4.5859-1.832,5.0663,5.0663,0,0,1,3.9893,1.8467Zm-6.0019,3.3262a4.6882,4.6882,0,0,0-1.3946,3.417,4.6258,4.6258,0,0,0,1.3252,3.3984,3.6792,3.6792,0,0,0,2.3955.91,3.4207,3.4207,0,0,0,2.6309-1.0743,4.9835,4.9835,0,0,0-.0615-6.56,3.3258,3.3258,0,0,0-2.5225-.9737A3.2443,3.2443,0,0,0,123.1309,288.4932Z"/><path class="cls-3" d="M136.0557,283.1562c-.0606-.7363-.06-.9921-.0586-1.0878A5.0775,5.0775,0,0,1,137.458,278.3a5.2231,5.2231,0,0,1,3.75-1.3232,5.4,5.4,0,0,1,3.8643,1.4287,4.7437,4.7437,0,0,1,1.3564,3.5918,4.5516,4.5516,0,0,1-1.9092,3.9258,10.7964,10.7964,0,0,1-2.2461,1.1074l-.9619.3789a3.7542,3.7542,0,0,0-1.2832.6972,1.6741,1.6741,0,0,0-.4863,1.1485,1.6288,1.6288,0,0,0,.5371,1.251,1.4127,1.4127,0,0,0,.958.3252,1.5446,1.5446,0,0,0,1.2188-.4737,2.495,2.495,0,0,0,.52-1.6924l3.1357.0166a5.3694,5.3694,0,0,1-1.4277,3.7041,4.8754,4.8754,0,0,1-3.4951,1.3252,4.8093,4.8093,0,0,1-3.3526-1.331,4.6509,4.6509,0,0,1-1.2929-3.3985,3.9651,3.9651,0,0,1,1.038-2.746,7.5266,7.5266,0,0,1,2.794-1.6172,7.5384,7.5384,0,0,0,2.3418-1.1075,2.0117,2.0117,0,0,0,.7119-1.5957,2.0473,2.0473,0,0,0-.5361-1.5068,2.1613,2.1613,0,0,0-1.4688-.5518,2.0507,2.0507,0,0,0-1.4746.5684,2.4623,2.4623,0,0,0-.5537,1.6924,5.5027,5.5027,0,0,0,.123,1.0566Zm5.1172,12.1231a1.92,1.92,0,1,1-1.93,1.9092A1.9275,1.9275,0,0,1,141.1729,295.2793Z"/></svg>
