<svg xmlns="http://www.w3.org/2000/svg" width="260" height="290" viewBox="0 0 260 290"><defs><style>.cls-1{fill:#e9eced;stroke:#152230;stroke-miterlimit:10;stroke-width:3px;}.cls-2{fill:#f76363;}.cls-3{fill:#43567e;}.cls-4{fill:#ea46f7;}.cls-5{fill:#8b3d92;}</style></defs><title>konenpick</title><g id="Levelcompletetekst"><path class="cls-1" d="M236.29,18H25.71c-4,0-7.21,5.07-7.21,11.33V237.76c0,6.26,3.23,11.33,7.21,11.33H60.48v34.66l39.45-34.66H236.29c4,0,7.21-5.07,7.21-11.33V29.33C243.5,23.07,240.27,18,236.29,18Z"/><rect class="cls-2" x="28" y="40.5" width="206" height="145" rx="10.5"/><path class="cls-3" d="M223.5,42a9,9,0,0,1,9,9V175a9,9,0,0,1-9,9H38.5a9,9,0,0,1-9-9V51a9,9,0,0,1,9-9h185m0-3H38.5a12,12,0,0,0-12,12V175a12,12,0,0,0,12,12h185a12,12,0,0,0,12-12V51a12,12,0,0,0-12-12Z"/><path class="cls-4" d="M179.4,72.31c-12.12-10.69-30.85,47.35-30.85,47.35-13.66-9.17-32.39.21-32.39.21S98.75,86.71,86.63,79.51c-11.77-7-29,17.74-56.41,50.37V162c1.06-.22,2.5.15,3.53-.67C84,121.4,78.26,106.78,78.26,106.78c3.52,12.88,12.12,40.58,12.12,40.58,9.69,29.46,42.3-1.52,42.3-1.52,1.77,12.87,25.56,15.49,25.56,15.49,23-2.18,21.32-45.33,20.81-53.29a6,6,0,0,1-.09-1.26s0,.45.09,1.26c2.45,15,53.45,46.52,53.45,46.52v-27S191.52,83,179.4,72.31Z"/><path class="cls-4" d="M177.58,108c-.06-.81-.09-1.26-.09-1.26A6,6,0,0,0,177.58,108Z"/><path class="cls-5" d="M132.11,124s-2,12,0,15S134.51,124.46,132.11,124Z"/><circle class="cls-5" cx="132" cy="142.67" r="0.76"/></g></svg>
