<svg id="Levelcomplete" xmlns="http://www.w3.org/2000/svg" width="340" height="110" viewBox="0 0 340 110"><defs><style>.cls-1{fill:#152230;}.cls-2{fill:#fff;}</style></defs><title>laesmere</title><rect class="cls-1" x="20" y="17" width="302" height="64" rx="9.0692"/><path class="cls-2" d="M59.2451,63.4561H46.77V37.0693h7.127V57.1162h5.3486Z"/><path class="cls-2" d="M83.752,63.4561h-10.15l-.4786-3.35h-4.58l-.5645,3.35H60.5957l6.1016-26.3868H83.752v6.2032H76.66l.5976,3.8457h5.9473V53.083H78.3008l.7012,4.0332h4.75Zm-14.32-8.836h2.9395l-.9238-6.8008q-.17-1.2142-.2217-2.0175t-.12-1.2471q-.0338-.4263-.1016-1.1279L70.85,44.8115q-.0864.8364-.1543,1.461t-.1367,1.0507q-.0673.41-.1191.795t-.1192.7431Z"/><path class="cls-2" d="M86.23,62.8066v-8.288q2.1034,2.871,4.5469,2.871a2.2649,2.2649,0,0,0,1.5039-.4873,1.5312,1.5312,0,0,0,.58-1.2216,2.7569,2.7569,0,0,0-1.2637-2.0684l-1.1621-.9062a15.6672,15.6672,0,0,1-1.9825-1.7344,8.9194,8.9194,0,0,1-1.3339-1.7774,7.5229,7.5229,0,0,1-.752-1.8886,8.5753,8.5753,0,0,1-.2383-2.0508,9.7461,9.7461,0,0,1,1.8457-5.5791,7.5156,7.5156,0,0,1,6.169-3.085A10.9949,10.9949,0,0,1,99.27,37.94v8.0664A7.5475,7.5475,0,0,0,97.2871,43.88,3.8122,3.8122,0,0,0,95.1,43.1025a1.9375,1.9375,0,0,0-1.3506.4786,1.406,1.406,0,0,0-.5469,1.11,2.7993,2.7993,0,0,0,1.4532,2.1025l1.1279.837a11.0167,11.0167,0,0,1,3.23,3.333,7.8212,7.8212,0,0,1,.9922,3.998,9.0154,9.0154,0,0,1-2.376,6.4258,7.8967,7.8967,0,0,1-6.0156,2.5293A14.9718,14.9718,0,0,1,86.23,62.8066Z"/><path class="cls-2" d="M140.4736,63.4561h-7.4511l-.53-12.0313-.2217-4.8027q-.12,1.3857-.2734,2.6406-.1552,1.2568-.377,2.4355l-2.2383,11.7579h-5.8105l-1.9141-11.7754q-.1713-1.0254-.4609-3.52-.0351-.3763-.1543-1.539l-.1709,4.8711-.6318,11.9629h-7.5879l3.0761-26.3868h8.8692l1.4863,8.8868q.189,1.0941.334,2.375.145,1.2831.2646,2.7861a42.2685,42.2685,0,0,1,.6153-4.4951l1.8115-9.5528h8.8008Z"/><path class="cls-2" d="M143.6348,63.4561V37.0693h13.2441v6.2032h-6.1172v3.8457h5.4854V53.083h-5.4854v4.0332h6.1172v6.34Z"/><path class="cls-2" d="M178.6865,63.4561h-7.708l-3.5195-9.3995q-.0528-.2387-.18-.6318c-.0859-.2627-.1914-.5752-.3164-.94l.0508,1.7431v9.2286h-7.0918V37.0693h7.2969q4.8192,0,7.2128,1.8965a8.3233,8.3233,0,0,1,3.0411,6.9043,6.6342,6.6342,0,0,1-4.084,6.6143Zm-11.6377-14.168h.4785a2.6082,2.6082,0,0,0,2.0508-.94,3.5045,3.5045,0,0,0,.82-2.3925q0-2.956-3.0937-2.9571h-.2559Z"/><path class="cls-2" d="M181.0449,63.4561V37.0693h13.2442v6.2032h-6.1172v3.8457h5.4853V53.083h-5.4853v4.0332h6.1172v6.34Z"/><path class="cls-2" d="M225.5127,63.4561h-7.127V52.8428h-3.4V63.4561h-7.127V37.0693h7.127V46.4h3.4V37.0693h7.127Z"/><path class="cls-2" d="M229.2031,63.4561V37.0693h13.2442v6.2032H236.33v3.8457h5.4853V53.083H236.33v4.0332h6.1172v6.34Z"/><path class="cls-2" d="M264.2549,63.4561h-7.708l-3.52-9.3995q-.0526-.2387-.18-.6318c-.086-.2627-.1915-.5752-.3165-.94l.0508,1.7431v9.2286H245.49V37.0693h7.2969q4.8193,0,7.2129,1.8965a8.3235,8.3235,0,0,1,3.041,6.9043,6.6341,6.6341,0,0,1-4.084,6.6143Zm-11.6377-14.168h.4785a2.6083,2.6083,0,0,0,2.0508-.94,3.5045,3.5045,0,0,0,.82-2.3925q0-2.956-3.0938-2.9571h-.2558Z"/><path class="cls-2" d="M274.03,59.9355a3.699,3.699,0,0,1-1.1787,2.751,3.8126,3.8126,0,0,1-2.8028,1.1455,3.9894,3.9894,0,0,1-2.8545-1.1621,3.8871,3.8871,0,0,1-1.1787-2.8545,3.9677,3.9677,0,0,1,3.9649-3.9648,3.8821,3.8821,0,0,1,2.8711,1.1973A3.93,3.93,0,0,1,274.03,59.9355Z"/><path class="cls-2" d="M284.5576,59.9355a3.6987,3.6987,0,0,1-1.1787,2.751,3.8124,3.8124,0,0,1-2.8027,1.1455,3.9892,3.9892,0,0,1-2.8545-1.1621,3.8867,3.8867,0,0,1-1.1787-2.8545,3.9677,3.9677,0,0,1,3.9648-3.9648,3.8819,3.8819,0,0,1,2.8711,1.1973A3.9291,3.9291,0,0,1,284.5576,59.9355Z"/><path class="cls-2" d="M295.085,59.9355a3.6988,3.6988,0,0,1-1.1788,2.751,3.8122,3.8122,0,0,1-2.8027,1.1455A3.9894,3.9894,0,0,1,288.249,62.67a3.8871,3.8871,0,0,1-1.1787-2.8545,3.9677,3.9677,0,0,1,3.9649-3.9648,3.8818,3.8818,0,0,1,2.871,1.1973A3.9292,3.9292,0,0,1,295.085,59.9355Z"/><polyline class="cls-1" points="46 104 46 81 79 81"/></svg>
