<svg id="Levelcomplete" xmlns="http://www.w3.org/2000/svg" xmlns:xlink="http://www.w3.org/1999/xlink" width="320" height="430" viewBox="0 0 320 430"><defs><style>.cls-1{fill:#e9eced;}.cls-2{clip-path:url(#clip-path);}.cls-3{fill:#e5e5e5;}.cls-4{fill:#e9e9e9;}</style><clipPath id="clip-path"><rect class="cls-1" x="-2014.4366" y="-1325.4221" width="1920" height="1080"/></clipPath></defs><title>liv</title><rect class="cls-1" x="-2014.4366" y="-1325.4221" width="1920" height="1080"/><g class="cls-2"><rect class="cls-3" x="-1991.4944" y="-657.5845" width="2099.9481" height="727.832" transform="translate(44.1445 -327.8242) rotate(-19.3078)"/></g><path class="cls-4" d="M114.3186,404.4868c-.1335.2844.1265.284.6436-.3723l.1383-.665Z"/><path class="cls-4" d="M118.46,400.6431c.5218-.8472,1.05-1.8877.4037-1.606-.3962.9429-.6506,1.0339-1.05,2.0733-.5182.6569-1.035,1.0324-1.0348.8461-.1294.2791-.9048.9334-1.0422,1.4092a10.7761,10.7761,0,0,0,2.5968-2.9136C118.5907,400.2668,118.46,400.55,118.46,400.6431Z"/><path class="cls-4" d="M171.0564,338.1975l-.3564.3892A4.5224,4.5224,0,0,0,171.0564,338.1975Z"/><path class="cls-4" d="M201.5664,297.8237c-.2184.3177-.2854.4676-.2722.5008C201.4851,298.0212,201.64,297.7708,201.5664,297.8237Z"/><path class="cls-4" d="M206.8239,290.9529c-.1131.1474-.2081.2715-.31.405A1.6533,1.6533,0,0,0,206.8239,290.9529Z"/><path class="cls-4" d="M171.0564,338.1975l.9183-.9975C171.9484,337.0591,171.483,337.6946,171.0564,338.1975Z"/><path class="cls-4" d="M125.2086,391.5994a5.5955,5.5955,0,0,0-.4118.6132c.1423-.184.28-.362.4223-.5456A.2565.2565,0,0,1,125.2086,391.5994Z"/><path class="cls-4" d="M157.3182,355.7756l-.26.3186a2.5329,2.5329,0,0,0-.1117.35Z"/><path class="cls-4" d="M146.473,369.0234c.2565-.29.1265-.5737.1269-.7666a2.1237,2.1237,0,0,1-.3909.7735C146.2461,369.0693,146.3275,369.071,146.473,369.0234Z"/><path class="cls-4" d="M128.5719,389.4319l-.2844.39C128.3616,389.7207,128.486,389.55,128.5719,389.4319Z"/><path class="cls-4" d="M165.0652,346.2793a.3168.3168,0,0,0,.1759-.0588C165.2137,346.1985,165.149,346.2253,165.0652,346.2793Z"/><path class="cls-4" d="M159.5629,162.2268c-.0192-.0146-.033.0037-.05-.0015C159.5355,162.3252,159.5537,162.3564,159.5629,162.2268Z"/><path class="cls-4" d="M158.8081,181.9634l-.0394-.272a.34.34,0,0,0-.1616-.04Z"/><path class="cls-4" d="M216.04,278.0793l-.043.0557C215.7953,278.5012,215.92,278.3008,216.04,278.0793Z"/><path class="cls-4" d="M275.0618,146.1636c-.5222,1.5874.1279-2.7005-.5606-.2949C274.6487,145.6567,274.5586,148.1682,275.0618,146.1636Z"/><path class="cls-4" d="M125.5254,391.2871c.15-.1758.302-.3545.4547-.5334C125.765,390.99,125.6254,391.1536,125.5254,391.2871Z"/><path class="cls-4" d="M274.5012,145.8687l-.0022,0-.0686.2483C274.46,146.0142,274.4763,145.9563,274.5012,145.8687Z"/><path class="cls-4" d="M235.326,247.1086a1.3647,1.3647,0,0,0-.2933.2593C235.0638,247.3718,235.1365,247.3169,235.326,247.1086Z"/><path class="cls-4" d="M220.6666,269.9905l.4-.5415C220.8992,269.6577,220.7732,269.8337,220.6666,269.9905Z"/><path class="cls-4" d="M241.9567,234.6414a5.1981,5.1981,0,0,0,.4981-.8553,1.1554,1.1554,0,0,0-.1034.1167A2.6086,2.6086,0,0,1,241.9567,234.6414Z"/><path class="cls-4" d="M248.8237,221.6558l-.1756.215c-.063.1312-.1365.2845-.2013.42Z"/><path class="cls-4" d="M169.8947,119.6313a2.5491,2.5491,0,0,1-.49.5152C169.6736,120.022,168.9139,122.0178,169.8947,119.6313Z"/><path class="cls-4" d="M125.3334,391.6965a.74.74,0,0,1,.192-.4094c-.1057.1311-.2072.2568-.3063.38C125.223,391.7263,125.2469,391.7593,125.3334,391.6965Z"/><path class="cls-4" d="M240.3,233.0547l1.16-2.0125C241.1213,231.5974,240.7008,232.3291,240.3,233.0547Z"/><path class="cls-4" d="M247.6434,60.7444l-.5139-.0523A2.0763,2.0763,0,0,0,247.6434,60.7444Z"/><path class="cls-4" d="M244.6263,224.9238a8.7324,8.7324,0,0,0,.776-1.0708,1.3992,1.3992,0,0,0,.06-.2722Z"/><path class="cls-4" d="M169.4,120.15c.0028-.0041.0045-.0034.0045-.0034S169.4032,120.1458,169.4,120.15Z"/><path class="cls-4" d="M164.6843,134.5886c.6818-2.081-.0208-1.0852-.08-1.592.7542-2.5171.6533-1.065,1.1227-1.8482.4378-1.5754.5269-2.8791.9379-4.0317.0866-.0652.1845-.2817.1654.0083.3262-1.731,1.9561-4.751,2.384-6.7688a.72.72,0,0,1,.186-.2063c-.2957.2266-.4874.1973-.5836.0806.369-.92.5029-1.7937.9057-2.0181a1.7773,1.7773,0,0,0-.2562.9187c.0938-.3372.2378-.6516.3545-.979.7268-.6907-.5262,1.3169-.2533,1.4407a47.2919,47.2919,0,0,1,2.34-5.449c.4466-.134-1.5165,3.29-.3231,1.5781l-1.1866,2.0838c1.3007-1.4041-.6825,1.2817.5851.0271,1.4948-2.7581,1.4041-3.2222,2.9115-5.9666.1912-.6992-.3632.0681-.1716-.6323,1.9662-4.0278,2.5122-2.5994,3.7766-5.6553a5.4679,5.4679,0,0,1,1.5784-3.1592l-.1269.87c1.739-2.4927.52-1.7479,2.5254-4.2417-.196.5573-1.2407,2.0537-.9446,1.6989,1.41-1.5317.6369-1.3376,1.5417-2.6465l.4771-.0581c.9765-1.2895,1.9657-2.674,2.9833-4.0971.5112-.7093,1.0191-1.437,1.5543-2.15q.8668-1.0181,1.7419-2.0454c-.0575.2148-.3886.7412.2511.1865.7247-.8679,1.4936-1.7495,2.2862-2.6316q.6-.6555,1.2074-1.3186l1.3169-1.2234c1.78-1.6023,3.5035-3.2344,5.21-4.5857l1.0854-1.2871c.3-.2458.6379-.3594.353-.0476,1.3751-1.002-.0531-.1982.5-.81.7307-.6362,1.0889-.6887.6748-.2285a49.3714,49.3714,0,0,1,9.2133-7.206l-.4526.4314a11.8951,11.8951,0,0,0,2.0487-1.6033,5.8771,5.8771,0,0,1,2.0522-1.3611l-.3525.2634c2.3208-1.3171,4.81-2.613,7.22-3.7073,1.21-.5332,2.4063-.9987,3.539-1.4064a30.0084,30.0084,0,0,1,3.2248-.8824,9.2311,9.2311,0,0,1,2.7964-.9416c1.23-.2534,2.3988-.5156,2.5092-.8433,3.0356-.1794,2.1941-.0657,6.3963-.18,1.1134.0334,1.6624-.42,3.0619-.4241l.02.31,1.9028-.18a7.7848,7.7848,0,0,1,.95.481l1.2854.1379c-.5038-.1035-1.0592-.32-.97-.3945a11.8384,11.8384,0,0,1,4.7593,1.4612l2.2582.7334a6.6745,6.6745,0,0,1,1.1076.4348l1.0879.4919a5.9294,5.9294,0,0,1-1.4685-.487c2.3847.8938.2621.4863,2.4358,1.3227-.2235-.2314.2343-.0651.3117-.0888.4279.4135,1.2247.9289,2.0491,1.5732.8019.6746,1.7417,1.3347,2.4452,2.0193l-.4144-.104a35.0491,35.0491,0,0,1,6.9169,9.0244c-.6033-1.3047-.127-1.2026.4775-.1743l-.0613.5647c.5347.5864-.4694-1.1514.4768.1321.6143,1.3911.0989,1.0786-.363.3471l.8826,1.6058c-.043.1367-.273-.23-.4329-.2784a6.0519,6.0519,0,0,1,.75,1.8413,8.4939,8.4939,0,0,0,.8721,2.0667l-.0572.13a66.7046,66.7046,0,0,1,2.5687,8.7978c.3.0037.4943,1.2866.8806,2.2258.3349,2.4288.528,5.136.7539,8.0835.29,2.0608.281.5838.5154,1.5027-.2439.1758-.0059,3.1216-.3006,1.6065.1575,1.7688.2581,2.8982.3692,4.1452.1606,1.2452.2209,2.6119.3339,4.8589.1009-.49.1421-1.041.2317-.7583.0484.8167-.0927,1.8613-.2168,1.7456l-.0283-.2151a38.0327,38.0327,0,0,1,.0857,4.0135c-.0251.695-.05,1.3986-.0759,2.1025-.0537.7026-.1511,1.4041-.2256,2.0972a42.7616,42.7616,0,0,0-.45,7.4306l-.0142-.227c.0572,1.3962-.08,2.78-.1225,4.1726-.2588,1.9018-.0625-1.1624-.3794.2317-.085,4.5141-.7905,7.0542-1.1939,10.7366a30.4989,30.4989,0,0,0-1.4216,6.4931,60.6392,60.6392,0,0,1-1.709,7.1914l.2217-.1777c-.0466,1.0156-.3608,1.1575-.56,1.8662.157-.0693.39-1.0215.35-.3926q-.1563.78-.3144,1.5647-.2018.7749-.405,1.5552-.4245,1.5561-.8543,3.13c-.6067,2.0877-1.1609,4.211-1.88,6.2923q-1.0946,3.1146-2.1911,6.2356c-.3738,1.0344-.7088,2.0791-1.1077,3.0991l-1.19,3.0483c-1.1333,2.9658.2455,2.012-1.5276,5.6321l.0813-1.1865c-1.9222,6.1382-4.855,12.19-7.1728,18.039a2.8706,2.8706,0,0,1,.2495-.9838,16.69,16.69,0,0,0-1.8548,4.5781c-.4478.8723-.2594.1294-.6129.63-.7092,1.1375-1.1834,3.1414-1.7077,3.6751-.0876.0915.0932-.3706.1829-.5982-.2744.8318-1.7919,3.6265-1.1806,3-1.1275,2.0759-1.8963,4.1035-2.9184,5.6975-.2922,1.2327-1.9976,3.5181-1.79,4.0681-.1611-.18-.7193.6954-1.3,1.7942a31.9649,31.9649,0,0,0-1.5021,3.1006c.122-.5032-.7526,1.0691-.6353.4656-.8185,1.4941-1.5,2.9021-1.1538,2.7551-1.9668,2.4959-2.7157,5.7217-4.2154,6.9009-1.1766,2.2446-2.2929,4.4175-3.4483,6.4949-1.1778,2.0659-2.3238,4.0759-3.4534,6.0569-.2986-.3765,2.5863-4.3272,2.08-4.4053-2.1017,3.78-3.0313,6.1406-5.4433,9.6955-.6472.9056.1723-.6374.3079-.9948-2.17,3.7422-4.4767,7.0573-6.406,10.3911a3.1635,3.1635,0,0,1,.3462-.75c-.4038.6421-1.0229,1.438-.804,1.4785l.3589-.6484c.9138-.8506-1.1318,2.8584-1.0754,3.0591.2153-1.4-2.2093,3.0981-1.7068.979-.2416.4382-.5039,1.0153-.3271.9953-.4393.5972-.635.75-.353.0354-1.3956,2.3328-.6853,1.647-2.0676,3.6839-.0776-.0628.1692-.4952.215-.7708a20.8333,20.8333,0,0,1-2.3162,3.9595c.0206-.1372-.1793.019.17-.4939-1.979,2.9729-2.9769,5.3418-5.3892,8.4409.3076-1.1941-.88,1.0122-1.305.969l-1.1148,1.7915.6324-.59c-1.0634,1.5088-1.77,3.0073-2.7858,4.2334l.6634-1.2114-1.9486,2.86,1.2575-1.509c-.9328,1.6294.5021.1106-1.0167,2.0478.26-.428-1.0815,1.4988-1.8218,2.1526l.003-.0056a14.8044,14.8044,0,0,1-1.7549,2.7041c-.3037.2182-.1682-.4739-.3672-.3325-.2658.92-2.4566,3.56-2.875,4.6679.1627-.3525.0165-.4841-.09-.4072l-.2442.759c-.5728.6409-.6788.7183-.7224.5142-1.5637,2.0439.8666-.3777-1.11,1.96a5.4428,5.4428,0,0,1,.2925-.56c-1.9091,2.4036-3.3736,4.8772-5.184,7.0437-.8016.4382,1.41-2.0208.5828-1.4509-2.4,3.2773-4.6928,7-7.1668,10.06l.4807-.5549c.0878.7544-1.9978,2.1594-3.0146,3.8862.2666-.4094.1571-.685.1237-.5449-1.7168,2.0769-3.2469,4.4492-5.6528,7.75l.2059-.4815c-1.0778,1.1719-2.6418,3.24-3.7514,4.5491-.2082.4841-.8326,1.2407-.3086.896-3.8977,3.6531-5.9721,8.14-9.4282,11.3806.3535-.4353.7528-1.1108.47-.7654l-2.4291,3.1746c.379-.0989.44-.3177,1.11-.8543a12.58,12.58,0,0,1-1.4712,2.1868c1.0181-1.4893-.2975-.2224-.888.2971.1372-.0559.0294.2.1267.1941-1.6383,1.3572.1385.5657-1.8784,2.5986l.0017-.1938a29.9827,29.9827,0,0,1-1.888,2.5913c-.5106.1973.6286-.9536.5055-1.15-1.019,1.2537-1.6441,2.7773-2.7828,3.7336.3805-.5756,1.01-1.3366,1.39-1.9121a13.0694,13.0694,0,0,0-2.1079,2.0984l.08-.0852-1.8549,2.0151.51-.4819c-.755,2.002-2.5247,3.2549-3.9316,5.6294,1.3717-2.3047.09-.4956-.0119-.8452-.5119.4785-1.2642,1.2273-1.1359.9421-.6405,1.1424-1.5294,1.5213-2.4243,3.1419-.127,0-.8929,1.0481-.8934.6679-1.0179,1.3309.3841-.1933.3872-.0068-1.3989,2.1953-4.2213,4.3706-6.2765,7.4932-1.9325,2.5573-2.0557,3.23-3.869,5.5884-.7718.6589.2649-.8538.2649-.8538a24.8514,24.8514,0,0,0-2.8434,3.302c.1365-.29-.1254-.0952-.5111.1858-.7773.9441-.2635.8518-1.4232,1.9814a5.5768,5.5768,0,0,1,.4989-1.1819c-.871,1.1517-1.66,2.35-2.5657,3.5391-.3865.189.3913-.8513.65-1.3227a27.2022,27.2022,0,0,0-2.858,3.9555l.7769-.75c-.39.47-.38.0866-.1226-.2862.7811-1.2238,1.428-1.5048,1.5546-1.5031l-.6479.8442c1.15-.4492,2.7129-3.2961,4.1325-4.8955l-.2654.9475,1.1678-1.8891c.3861-.2833.7705-.3746.1294.4675,1.1552-1.03.7722-1.1262,1.8048-1.9766.1217-.0869.0941-.0239.0189.0889l.8822-1.2173c-.1249.2795.3856.0017-.26.6611,1.9371-1.883,2.5757-3.5044,3.4741-4.0691l-.1261.188c2.31-2.9343.0013-.4729,1.5411-2.8374l1.7944-.9477.0049-.4771c.2578-.2864.7685-.8515.77-.6655.7685-1.2266-.26.1.1285-.6607,1.4137-1.2314,3.19-3.9934,3.8323-3.9982.25-.6585-1.2769,1.2417-.1279-.377.7635-.0952,1.4024-1.8086,2.6751-2.95-.1274.5713-1.2688,1.7078.0056.5652.3053-1.0767,2.2026-2.4561,3.0423-3.6157-.2363-.2842,1.8651-2.4881,3.301-4.41-.0076.19,3.043-3.3354,4.5441-4.9878l.0056.09c-.0109-.5674,1.4969-2.3049,2.4968-3.65.1287.19.0054.478-.492,1.2429l.9942-1.2207a7.4638,7.4638,0,0,1,1.0192-1.5991l-.0375.48c1.3173-1.63,2.4172-3.4725,4.2423-5.4644-.1047-.2786-1.8968,1.2244-.2464-1.1052.174.0044.4244.07.0018.688a6.9682,6.9682,0,0,1,.81-1.0984l-.5311,1.0339c.8481-.8933.25-.6226.8813-1.3743.1418.1387.5646-.4785.5986-.27a8.5749,8.5749,0,0,0-.7744.9583,14.987,14.987,0,0,1,2.043-2.063c-.1482.0051-.2077-.166.28-.8142,1.3-1.6431.6346-.4111,1.4792-1.3013.213-.479,1.1546-1.4385.9433-1.6511a1.9241,1.9241,0,0,1,.7679-.6209c.569-.9326,3.1058-4.0026,2.1027-3.2368l-.1883.2056.1-.1472-.0055.0068.0055-.0068c1.9739-2.9683,4.7-5.6963,6.7449-8.5747l.0748.0649c1.197-1.7358,2.81-3.75,3.56-5.0693.3836-.49,1.0314-1.0615.9662-.7764a23.08,23.08,0,0,1,2.4612-3.2978c-.8375,1.3957.458-.3536-.8985,1.4a21.8163,21.8163,0,0,0,2.877-3.8558c-.2586.7623,1.2035-1.0656,1.7421-1.9047l-1.0279,1.0612c.6416-.916,1.256-1.677,1.8611-2.4646l-.0519.6311c2.8661-3.2072,4.0254-6.6242,6.5049-8.8474.4837-1.0486-1.5116,1.7754-1.1306.8,1.2125-1.5515,2.7831-2.9475,3.1469-3.4463,1.7232-2.0845,1.0736-2.3291,2.8218-4.5483-.3068.2246-.7633.3169.3752-1.46,1.1843-1.5744,1.8181-1.6789,1.17-.6133-.2673.39-.4312.553-.4521.5135-.3363.5422-.782,1.25-.2221.6911l.0524-.2766c.677-.718,2.2267-2.9436,2.0161-2.3127.76-1.2867.2056-.6343-.4762.2346,1.5877-1.9739,2.265-3.2354,3.8491-5.303-.29.302-.6229.5347-.3862.1978,2.3052-3.0454.7769-1.5061,2.2139-3.6556.9851-1.1047.0638.6832,1.4016-1.5556.9927-1.2468.4489-.1011.1739.477a36.1564,36.1564,0,0,1,3.4063-4.6848l-.622,1.0886c.3724-.6511.7171-1.1569,1.0673-1.6728l-.597.4582c.4459-.5842.795-1.0983.8693-1.0317.2951-.7129-.6521.2585.0127-1.1018.6518-.74,1.5608-2.5378,2.001-2.6509-1.7883,2.5051.4613-.1013-.9514,2.0869a17.06,17.06,0,0,1,1.0352-1.5349c.09-.0727-.0028.1233-.0979.301,1.85-2.3068.4459-1.3291,2.1254-3.8757-.0643.4216.6695-.4065.9111-.8437-.6779,1.0263-.57.3291-.0653-.6883a21.355,21.355,0,0,0,1.6552-2.6811l-.6957.9419a12.0172,12.0172,0,0,1,1.3249-2.4026c.18-.0225-.5989,1.0867-.2812.7129.5773-1.4282,2.1111-2.7088,3.071-4.6009.625-.7617.332.0989.8608-.583,1.0726-2.122,1.5784-2.0354,2.75-4.2385-.586.4793-.6035.6155.1366-.9866l-2.0467,3.5425,1.111-2.4c-.6633,1.04-1.2668,2.2784-1.6968,2.8809.5047-1.16.4858-1.0191.0024-.6262,1.2016-1.2381,1.6257-2.929,2.8523-4.4624l.4707.3623c1.7534-2.3694,2.4577-4.6121,4.5686-7.7884l-.7257.993c.0654-.5567,1.203-2.0215,1.731-3.1436.112.2.5622-.43.9333-.8235-.1586-.0188,1.4168-2.4053,1.25-2.9026l1.0816-1.34c1.6512-2.6027,1.2738-3.3169,2.7584-5.873-.2437.8845.529-.2246-.2962,1.5859.48-.864.9412-1.6242.8294-1.7046.3873-.4455,1.092-2.5263,1.6955-3.2307a4.0369,4.0369,0,0,1,.56-1.5864c.0937-.0869.0836.05.0836.05-.0835-.05.7225-1.5818.0618-.8379,1.9815-2.39,3.8905-7.5535,5.5913-9.658.8962-1.9631,1.9627-4.3332,2.807-6.0983-.0015.1384.0859.0483-.0941.3723,1.3426-2.3513.2165-1.7354,1.7338-4.4129.9465-1.29-.5329,1.5511-.0151.7134.7918-.1013,1.4428-3.4184,2.6393-5.1465l-.17.4732c.84-1.3582,1.3695-3.6153,2.4314-5.9685,0,0,.0055.1389.0846.0525a66.8084,66.8084,0,0,1,2.373-7.2347c-.0553.8089-.3007,1.0945.1172.7532.3863-1.0447-.5082.148.2625-1.9346.4193-.6108,1.0881-2.07,1.4123-2.1753-.2356.6587-.4625,1.3208-.7319,1.9664.7541-.86.935-2.5513,1.3835-3.5628l.0974.1875c1.0564-3.0417.702-3.2165,1.9124-6.4512l-.2339.2964c.2866-1.8952.7278-1.4226,1.0379-3.3047l.5483-.4184c.29-1.2185.9665-4.2749,1.5749-6.4209-.1049,1.2888-.7585,3.8247-1.0869,5.4219a34.595,34.595,0,0,0,1.262-4.6819,8.8624,8.8624,0,0,1-.4219,1.5622,44.8037,44.8037,0,0,1,1.2752-5.8469c.6174.6274,1.88-6.133,2.9035-7.719.3352-2.1645.8326-4.2685,1.3789-6.4578.2742-1.0947.5535-2.2114.8418-3.363.2393-1.1619.448-2.3674.6519-3.6238-.8862,1.6746.23-1.4675-.4243-1.2629a9.2574,9.2574,0,0,1,.2993-1.7124l.9565-3.48c.3177-.8142-.0537,1.13.1,1.0429.4754-2.5542.43-1.0381.8091-2.7236-.2563.3213-.2092-.9392.04-2.4014l-.5135,2.0371c.083-3.6418.8614-3.0583.95-6.7321l.062,1.17c.0245-.47.0852-1.1355.1585-1.8989.0364-.3818.0752-.7878.115-1.2063.0137-.4206.0278-.8533.042-1.2859a23.4312,23.4312,0,0,0-.1492-4.3889c.0884-.3276.2791-.7583.2786.07.4524-4.4865-.3277-9.9907-.0293-13.4768l.1521.3362a12.2355,12.2355,0,0,1-.1734-2.501c.0657.0516.1734.3306.1541-.0568a21.1194,21.1194,0,0,1-.4158-3.3174l.2366.936a39.02,39.02,0,0,0-.54-5.4375c-.1315-.7856-.26-1.55-.3928-2.344-.1631-.7927-.3188-1.615-.4531-2.5229.4434-.0452.0928-3.4981-.179-5.2166l.0718.0481a42.8053,42.8053,0,0,0-1.7644-6.6787c-.3684-1.01-.7107-2.0115-1.1489-3.0149-.2068-.5041-.4165-1.0156-.6314-1.5388l-.7221-1.5862a25.4738,25.4738,0,0,0-2.721-6.1914,48.3707,48.3707,0,0,0-4.84-6.6338c.4678.5835-.3293.1448-.9841-.4094a9.3884,9.3884,0,0,0-1.4914-1.283c-.5064-.3586-.8589-.6438-.6633-.7458l.3121.26a5.3426,5.3426,0,0,0-1.5313-1.5528,27.7773,27.7773,0,0,0-2.4535-1.5566l-.5261.3211a18.973,18.973,0,0,0-7.6912-3.1858c-.7-.1365-1.3945-.2066-2.0482-.3106-.6553-.0967-1.275-.2063-1.8545-.2327a16.955,16.955,0,0,1-2.7593-.4228c-1.1483.168-2.5747.0933-3.6868.3726l.0405-.2879c-.7932.053-1.4872.0991-2.1431.1431-.6511.0769-1.2607.1758-1.8952.27a40.8409,40.8409,0,0,0-4.5025.9738l.7278-.3769a6.0079,6.0079,0,0,0-2.2756,1.0383,9.2051,9.2051,0,0,1-2.0839,1.1035l-.7078-.1985c-3.5882,1.2581-7.2871,2.5315-10.4082,4.6763.0249-.0828.0653-.2419.6045-.543-.812.3848-2.3287,1.2273-3.5726,1.9341-1.2088.7644-2.1157,1.43-1.6837,1.4995-.2848-.3484-3.2332,2.2015-4.7907,3.52l.0949-.4107a21.1364,21.1364,0,0,1-3.0379,2.9131c-.459.3354-.5207.1438.104-.2842-1.5478,1.1006-.97,1.1519-2.8261,2.5073l.544-.6855a8.421,8.421,0,0,0-2.0207,2.0522,23.3183,23.3183,0,0,1-1.797,1.5015,4.7113,4.7113,0,0,1-1.3828.92,6.0454,6.0454,0,0,1-1.5878,1.9289c-.1779.0393.082-.2934.2136-.46A29.3384,29.3384,0,0,0,191.4,84.6345a18.1442,18.1442,0,0,1-2.1321,2.335c-.0991-.0278-.2311.05-.3762.1692.8724-.9588,1.66-1.8245,2.2129-2.4322.592-.57.9423-.8894.878-.8151-.1816-.1819-1.7275,1.2475-.7777-.1622A57.1611,57.1611,0,0,1,187.1,88.9473a1.2652,1.2652,0,0,1-.2479.1425l.12-.1762a7.8053,7.8053,0,0,0-.8336.988,9.7177,9.7177,0,0,0-1.1536,1.2424,16.7351,16.7351,0,0,0-2.228,2.6424c.2743.1057-.6041,1.1545.3688.2883-.1182.1182.0951-.176.5139-.73.09-.1286.2009-.2768.2518-.3686l-.0246.0715,1.5859-2.0554a8.6912,8.6912,0,0,1-1.6687,2.3039c-.1888.5342-.4048,1.1114-.54,1.4251-1.187.8779-3.0691,2.9148-3.4338,3.1277-1.6434,2.7468-4.2175,6.2441-4.6836,8.3022a2.5015,2.5015,0,0,1-.8978,1.0694c.2186-.4783.54-1.0108.618-1.2945-.7993,1.6328-2.6678,4.6609-2.5611,5.2088-1.1718,1.9563.2724-1.3089-1.0773,1.5227l.0895-.4312a31.9562,31.9562,0,0,0-2.0153,3.7791,28.4237,28.4237,0,0,0-1.42,3.6479c-.4033,1.2378-.8176,2.489-1.34,3.8057-.5238,1.3166-1.18,2.6887-1.8739,4.2546a2.6121,2.6121,0,0,1,.3839-.718c-.7108,1.8113-1.3748,3.6753-2.016,5.5591a28.3076,28.3076,0,0,0-.8319,2.8738l-.7439,2.9067q-.376,1.4513-.7508,2.898c-.2314.968-.3937,1.9489-.6055,2.9138-.3936,1.936-.8677,3.8376-1.3255,5.7114a13.078,13.078,0,0,0-.1729,3.7686l-.36.4316.0564,2.3a43.1165,43.1165,0,0,1-.5621,4.4861,20.6787,20.6787,0,0,0-.32,5.1606,5.3807,5.3807,0,0,1,.2147-.5229c-.0549,1.4682.1781,4.6489-.0679,4.4069a1.9034,1.9034,0,0,1,.1212,1.0538l-.1573.0488c.1315,1.2.1645,2.4031.3766,3.5937.1339,2.7937-.6653-.4-.3325,3.6856.1961,1.5173.8424,4.2668.8962,3.6833-.0466-.611-.0409-1.5693.1123-1.632l.2045,1.3686c.4859.1961,1.051,1.1738,1.076-2.2048l-.4909-2.3054.158-.7693.1889,1.96a6.4905,6.4905,0,0,0-.3366-2.6,2.3252,2.3252,0,0,0,.161-.9925,20.9909,20.9909,0,0,1-.5509-2.2719c.1779-.2847.3761,1.0146.4541-.5288-.2222-1.07-.3929,1.0483-.5546-.7327.1947-1.1287.3721-.802.1717-2.115.1171-.186.1976.092.2581.6116a30.4564,30.4564,0,0,0-.3639-3.7014c.29-1.16.1484-3.9534.5732-3.816a19.25,19.25,0,0,1-.1844-3.155c.2069,1.0017.2721-.0027.3518-1.1843.1482-1.1763.35-2.5281.5951-2.2395a14.5029,14.5029,0,0,1,.13-3.4959c.0795-.7219.1627-1.4785.2438-2.2148.1079-.7322.2287-1.4417.2859-2.0857a1.9854,1.9854,0,0,1-.0395.6572,25.8631,25.8631,0,0,1,.8138-2.6938c-.3482-.2581.0047-2.4917.0074-3.7444.3849-.8245.4447-.531.4446-.0982.0279.44.0249,1.0267.2561.794-.3862.0049.4385-3.0613.0312-2.541.582-1.2556.4162-1.104.913-1.6958-.411-.357.2493-1.2407.2539-2.4107.7622-1.8266.5339-.37,1.0307-2.4726C165.1294,132.7227,164.6476,134.5784,164.6843,134.5886Zm24.0794-44.9062.0041.0036-.7.8006Zm2.8935-3.22c-.355.39-.7968.8748-1.2645,1.388-.173.0471-.1367-.1426.1591-.4634C190.441,87.6072,191.1658,86.886,191.6572,86.4626Zm-7.5339,5.667c.3987-.5734.5853-.7224.6886-.7607-.1956.2644-.4242.5735-.7245.98l-.0239.0862A.7156.7156,0,0,1,184.1233,92.13Z"/><path class="cls-4" d="M183.64,93.3447c-.0569.083-.0819.1338-.16.2381.1049-.0984.2041-.1919.3048-.2867l.0828-.2485Z"/><path class="cls-4" d="M170.6379,338.655l.0621-.0683a1.0117,1.0117,0,0,1-.1508.1267A.7777.7777,0,0,1,170.6379,338.655Z"/><polygon class="cls-4" points="242.995 60.325 242.992 60.253 242.624 60.288 242.995 60.325"/><path class="cls-4" d="M154.8638,356.76a.9765.9765,0,0,0-.2547.1985A1.2622,1.2622,0,0,0,154.8638,356.76Z"/><path class="cls-4" d="M148.231,364.72l-1.0121,1.0642C147.6674,365.3325,147.9829,364.9941,148.231,364.72Z"/><path class="cls-4" d="M143.03,370.7559a.3647.3647,0,0,0-.0078.1965l.0113-.0107Z"/><path class="cls-4" d="M218.788,269.4253l.1577-.2637C219.2952,268.53,219.0446,268.9507,218.788,269.4253Z"/><path class="cls-4" d="M198.0562,300.8821c.1917-.3548.3809-.7041.5986-1.0615C198.246,300.353,197.9375,300.7729,198.0562,300.8821Z"/><path class="cls-4" d="M240.1725,233.2751l.0021.0064.1253-.2268Z"/><path class="cls-4" d="M199.6805,298.4a10.749,10.749,0,0,0-1.0257,1.4207A16.6967,16.6967,0,0,0,199.6805,298.4Z"/><path class="cls-4" d="M120.5547,396.9658l-.26.2825c.0182.0076.0149.0344.0043.0642Z"/><path class="cls-4" d="M120.299,397.3125l-.2541.3437A1.3974,1.3974,0,0,0,120.299,397.3125Z"/><path class="cls-4" d="M119.5111,398.3806l.5338-.7244A3.0271,3.0271,0,0,0,119.5111,398.3806Z"/><path class="cls-4" d="M127.5308,389.0554l.0012-.1582A.1608.1608,0,0,0,127.5308,389.0554Z"/><path class="cls-4" d="M129.5952,386.6035c-.5127.5674-1.4142,1.3145-2.06,2.1655l-.0033.1282C127.7429,388.418,129.2556,387.2688,129.5952,386.6035Z"/><path class="cls-4" d="M139.2126,377.2166,137.42,379.22c.387-.2881.8986-.6643.1272.2837C139.9791,377.1235,136.9133,379.8831,139.2126,377.2166Z"/><path class="cls-4" d="M144.6931,370.938c-.89,1.1379.132.0884.13.186C145.3362,370.3594,145.46,370.1738,144.6931,370.938Z"/><path class="cls-4" d="M182.3389,323.9346l.1159.271C183.0964,323.2944,182.3824,324.137,182.3389,323.9346Z"/><polygon class="cls-4" points="188.203 313.947 187.434 314.723 187.313 315.275 188.203 313.947"/><polygon class="cls-4" points="193.702 309.555 193.443 309.969 194.471 308.418 193.702 309.555"/><path class="cls-4" d="M247.8391,224.0874l-.4358.1555C247.106,224.9368,247.3475,225.24,247.8391,224.0874Z"/><path class="cls-4" d="M264.9246,183.8311a5.4938,5.4938,0,0,0,.9006-2.2986C265.5193,182.4688,265.0593,183.3477,264.9246,183.8311Z"/><path class="cls-4" d="M254.7756,60.512l.8611.3266a10.9842,10.9842,0,0,0-1.6053-.6465C254.2792,60.3,254.5342,60.3909,254.7756,60.512Z"/><path class="cls-4" d="M130.2924,388.79c.2227.2037.3057-.0368-.1383-.7016l-.5757-.3159Z"/><path class="cls-4" d="M128.0516,383.8665c-.6209-.7229-1.4205-1.5071-1.368-.8289.7515.6343.7538.8955,1.594,1.56.4447.6657.6269,1.2507.4532,1.198.2183.1985.5767,1.102.9762,1.3637a9.8787,9.8787,0,0,0-1.8746-3.23C127.7429,383.6387,127.9645,383.84,128.0516,383.8665Z"/><path class="cls-4" d="M89.6371,315.8933l.2.4631A4.1561,4.1561,0,0,0,89.6371,315.8933Z"/><path class="cls-4" d="M68.4537,272.4424c.1571.333.25.46.2848.4646C68.58,272.6038,68.4467,272.3557,68.4537,272.4424Z"/><path class="cls-4" d="M65.4768,264.741l.17.456A1.5064,1.5064,0,0,0,65.4768,264.741Z"/><path class="cls-4" d="M89.6371,315.8933l-.5115-1.1912C88.988,314.6729,89.364,315.3252,89.6371,315.8933Z"/><path class="cls-4" d="M121.8359,375.0339a5.1509,5.1509,0,0,0,.435.5581c-.1243-.1848-.2444-.3637-.3686-.5483A.26.26,0,0,1,121.8359,375.0339Z"/><path class="cls-4" d="M100.1035,334.4673l.1933.3418a2.3325,2.3325,0,0,0,.2774.2185Z"/><path class="cls-4" d="M108.233,348.6653c-.1733-.3272-.4807-.2986-.6577-.36a1.9462,1.9462,0,0,1,.568.6043C108.1926,348.8877,108.2239,348.8137,108.233,348.6653Z"/><path class="cls-4" d="M120.9374,371.2983l.2682.3765C121.1357,371.5767,121.0186,371.4121,120.9374,371.2983Z"/><path class="cls-4" d="M94.4869,324.1934a.3029.3029,0,0,0,.0173-.179C94.4733,324.031,94.4718,324.0986,94.4869,324.1934Z"/><path class="cls-4" d="M151.5778,156.7192c-.0188-.0146-.0331.0032-.05-.0022C151.5476,156.8147,151.5649,156.8457,151.5778,156.7192Z"/><path class="cls-4" d="M147.5154,175.38l.0348-.2613a.3726.3726,0,0,0-.1432-.0891Z"/><path class="cls-4" d="M60.0513,250.6633l.019.0645C60.2421,251.0862,60.1565,250.8787,60.0513,250.6633Z"/><path class="cls-4" d="M35.3442,115.7844c-.3557,1.5449-.1506-2.5637-.5875-.2309C34.8812,115.3433,35.05,117.7185,35.3442,115.7844Z"/><path class="cls-4" d="M121.65,374.6509c-.1141-.1895-.23-.3819-.3464-.5747C121.4523,374.3433,121.5587,374.52,121.65,374.6509Z"/><path class="cls-4" d="M34.7567,115.5535l-.0022,0-.0427.2415C34.73,115.6946,34.7408,115.6384,34.7567,115.5535Z"/><path class="cls-4" d="M48.4585,217.9333a1.2447,1.2447,0,0,0-.0122.3738C48.47,218.2874,48.48,218.2007,48.4585,217.9333Z"/><path class="cls-4" d="M56.348,242.59l-.1824-.6159C56.2279,242.2222,56.29,242.4194,56.348,242.59Z"/><path class="cls-4" d="M44.4542,205.1016a4.7061,4.7061,0,0,0-.2147-.9178,1.07,1.07,0,0,0,.0032.1485A2.3676,2.3676,0,0,1,44.4542,205.1016Z"/><path class="cls-4" d="M41.1687,191.5017c-.006.0772.0016.1758.0021.2639l.1147.4287Z"/><path class="cls-4" d="M147.7842,114.0491a2.445,2.445,0,0,1-.081.6909C147.8423,114.4819,148.4355,116.4771,147.7842,114.0491Z"/><path class="cls-4" d="M121.9679,374.9468a.6876.6876,0,0,1-.3179-.2959c.0872.1355.1707.2656.2523.3928C121.9591,375.0574,121.9977,375.0447,121.9679,374.9468Z"/><path class="cls-4" d="M42.165,205.1077l-.5212-2.1758C41.7742,203.5439,41.9646,204.3345,42.165,205.1077Z"/><path class="cls-4" d="M84.1414,44.0544l.5216-.0835A2.1663,2.1663,0,0,0,84.1414,44.0544Z"/><path class="cls-4" d="M40.0472,196.4866a8.1515,8.1515,0,0,0-.0947-1.271,1.318,1.318,0,0,0-.1293-.2368Z"/><path class="cls-4" d="M147.7017,114.7454l.0015-.0054Z"/><path class="cls-4" d="M151.0439,129.1833c-.2707-2.13-.5-.9487-.7685-1.37-.5053-2.5059.083-1.207.1329-2.096-.3517-1.5651-.8681-2.7172-1.0553-3.89.0417-.0979.016-.3287.1465-.0769-.6422-1.5928-1.0215-4.9068-1.8226-6.7352a.6911.6911,0,0,1,.0248-.2692c-.1.3508-.2709.4409-.4174.4091-.2471-.9233-.6731-1.6577-.53-2.0644a2,2,0,0,0,.39.8389l-.354-.9434c.1087-.9585.4611,1.2937.71,1.2329-.6082-1.8679-1.444-3.998-1.7481-5.4656.2685-.4038,1,3.3579.7909,1.34l.46,2.28c.0705-1.8533.32,1.3764.463-.3475-.339-1.4956-.5973-2.3144-.8549-3.1306-.2838-.8091-.59-1.6089-.9965-3.0822-.3857-.6-.1987.2993-.5842-.2991-1.6006-4.0244-.2384-3.521-1.7512-6.3745a5.86,5.86,0,0,1-1.583-3.05l.6276.5842c-1.06-2.7693-1.1547-1.355-2.1141-4.3106.354.4468,1.0275,2.0911.8943,1.6612-.5073-1.9678-.7569-1.2234-1.36-2.6414l.1858-.4321c-.6061-1.4575-1.47-2.885-2.2585-4.3892-.8045-1.4975-1.6238-3.0312-2.522-4.5283.1819.1211.5643.5957.2621-.17-1.15-1.8825-2.21-3.9821-3.4353-5.9687-1.1834-2.0105-2.2826-4.0525-3.4242-5.8616-.3787-.3992-.7846-.7793-1.176-1.1667-.2167-.31-.3-.65-.0153-.3484-.8745-1.42-.2014.0386-.7577-.5445-.5664-.7541-.6117-1.1-.1749-.6767-.9739-1.104-2.3578-2.6729-3.7533-4.2551-1.4087-1.57-2.835-3.1426-3.8111-4.3558l.4906.3667c-1.6275-1.8-2.3355-1.5043-3.8028-3.2016l.3506.2507c-3.7742-3.6638-8.799-6.6421-12.2991-8.6711a12.7556,12.7556,0,0,1-2.7794-1.0081c-1.1724-.4538-2.3121-.8542-2.5672-.5915-1.4108-.5281-1.8975-.82-2.5686-1.0086-.3328-.1072-.7055-.2187-1.2574-.3647-.2772-.07-.5983-.1516-.98-.2486a8.6193,8.6193,0,0,0-1.3641-.2587c-1.1451-.1189-1.738.1916-3.1377.1787l-.0243-.3077-1.9155.3331-1.03-.3621c-.4425.0181-.8784.1218-1.3166.1789.5274-.0317,1.1236.0323,1.0481.1287a22.7773,22.7773,0,0,1-3.28.2383,7.06,7.06,0,0,1-1.8074.0085c-.7921.2068-1.5994.3416-2.3718.6079l-2.32.7581a6.17,6.17,0,0,1,1.4523-.6448c-2.4271,1.0027-.5665-.2385-2.7644.7613.3237-.04-.1062.2321-.137.309a20.8674,20.8674,0,0,0-2.5428.7383c-.99.4187-2.06.91-2.9586,1.3487l.2614-.3472a53.0973,53.0973,0,0,0-9.9079,6.147c1.2328-.78,1.1717-.2908.2538.4414l-.5658.0412c-.4655.64,1.03-.6819-.0277.5-1.1833.9175-1.0183.3533-.4114-.28l-1.3491,1.2483c-.1466-.0058.1533-.3171.1607-.4834-.4846.5862-2.5848,1.8865-3.1519,2.8765l-.144.0017c-.721.7131-1.3026,1.3706-1.8462,1.95A19.8182,19.8182,0,0,0,50.82,61.9868c-.8577,1.0825-1.6818,2.0684-2.6163,3.4324.2.2239-.6414,1.21-.9793,2.1553a48.1511,48.1511,0,0,0-4.2511,6.738c-.7877,1.8826-.0535.6377-.3125,1.5271-.3332.0037-1.4626,2.666-1.0276,1.2168-.69,1.5964-1.1328,2.6145-1.5276,3.7739-.2025.5769-.4146,1.1809-.6671,1.9-.2146.73-.4636,1.5762-.7729,2.628.2534-.4165.4693-.9058.4625-.6163-.2167.7618-.6877,1.6709-.761,1.5289l.0368-.2081c-1.1635,4.7513-3.6288,10.7906-3.7228,14.7618l.0088-.2205c-.12,1.3486-.2614,2.6914-.3327,4.04-.2906,1.8367-.0425-1.1318-.3825.2109-.1525,4.3765-.8547,6.8435-.826,10.4451a24.1474,24.1474,0,0,0-.6494,6.4058,56.8126,56.8126,0,0,1-.2811,7.153l.1831-.2143c.1536.968-.1383,1.1684-.1653,1.8818.1359-.1008.15-1.0486.2516-.4475.24,8.1831.0585,16.907.6747,25.301.2008,3.0706,1.0832,1.6463,1.0669,5.5364l-.45-1.0566c.5375,3.06.8575,6.21,1.3309,9.3256.2229,1.5594.4452,3.1148.6654,4.6558.2436,1.5371.57,3.0457.9026,4.5259a2.6773,2.6773,0,0,1-.3358-.92,15.0863,15.0863,0,0,0,.9922,4.6555c.1391.9344-.1367.2478-.1355.8394.0981,1.29.9363,3.1033.8334,3.8191-.0149.1213-.1481-.3386-.2129-.5657.28.7981.7459,3.83.8579,2.9878.3012,2.2627,1.0176,4.2312,1.2745,6.0325.5683,1.0825.7332,3.8281,1.2435,4.0923-.5061-.0462.6031,3.9582,1.18,5.2939-.2533-.4321.1763,1.2456-.1482.7476.4182,1.5879.8769,3.0227,1.0295,2.685.249,3.0681,2.0728,5.7251,1.8606,7.5564.7637,2.3169,1.5887,4.5174,2.3442,6.6736.7633,2.1538,1.47,4.26,2.24,6.3113-.2382-.0042-.6386-1.147-1.02-2.2505-.3612-1.11-.7122-2.1787-.91-2.0173,1.4072,3.9189,2.61,6.0417,3.8,9.988.2822,1.0312-.3784-.51-.5663-.8264,1.5309,3.8628,2.6481,7.5818,4.1608,10.96a2.94,2.94,0,0,1-.3958-.69c.2746.6748.5443,1.6043.7071,1.4548l-.3064-.6428c-.1372-1.1882,1.6164,2.4776,1.8094,2.5418-.991-.9424,1.1677,3.4553-.2272,1.8923.2077.4336.5135.9592.6017.8071.2174.6778.2239.9178-.18.3013,1.0366,2.3945.9087,1.4487,1.7885,3.64-.0955.029-.31-.3982-.51-.5813a19.2185,19.2185,0,0,1,1.9319,3.9565c-.1-.0886-.0856.1555-.3079-.3967,1.298,3.1733,2.7039,5.1987,4.0064,8.7263-.8312-.85.3706,1.2317.1062,1.563l.9,1.8135-.1569-.8167c.7,1.6262,1.5972,2.94,2.1017,4.38l-.6764-1.1387,1.416,3-.6355-1.772c.905,1.5564.3532-.3679,1.2173,1.8244-.2281-.4216.7128,1.6187.8953,2.5486l-.0035-.0051a13.588,13.588,0,0,1,1.4371,2.7327c.0347.3584-.49-.0747-.4689.1592.6471.6521,1.8252,3.7221,2.5868,4.572-.2243-.2971-.4094-.2312-.3953-.1053l.5348.5491c.2793.7742.2983.898.0986.8455,1.0292,2.2407.0876-.9087,1.1741,1.8139a4.992,4.992,0,0,1-.3473-.497c1.1886,2.6894,2.5934,5.0515,3.6889,7.52.0183.8794-1.1348-2.0708-1.0129-1.1145,1.8129,3.4494,3.9721,7.0295,5.6327,10.41l-.2838-.643c.7107.2229,1.0489,2.6142,2.1422,4.1946-.2479-.3968-.5409-.409-.4308-.324,1.0927,2.34,2.5512,4.62,4.523,7.9973l-.3464-.3645c.6007,1.4021,1.8055,3.5745,2.54,5.0439.3517.3643.7791,1.2007.6821.605,1.7132,4.8318,4.9851,8.2781,6.5954,12.5188-.2611-.4692-.7236-1.0625-.5174-.688l1.9744,3.28c.0533-.3767-.1241-.5054-.3615-1.2932a11.5548,11.5548,0,0,1,1.4449,2.0691c-.9778-1.4236-.3163.1946-.0638.9053,0-.1433.1936.04.2254-.05.6228,1.9428.57.0634,1.6672,2.5759l-.1764-.0662c.5571.8579,1.1514,1.6018,1.6711,2.573-.0054.5284-.6493-.8808-.8722-.8349.7774,1.3374,1.9551,2.3977,2.4182,3.7448-.391-.5327-.8615-1.352-1.2522-1.8852a11.9726,11.9726,0,0,0,1.1618,2.6l-.0492-.1,1.1783,2.3433-.2577-.6214c1.562,1.3345,2.0734,3.354,3.78,5.3782-1.6462-1.9741-.4266-.2368-.7859-.2527.2615.6179.6884,1.5405.47,1.334.83.9426.8671,1.8762,2.0492,3.2-.0462.1172.6555,1.1438.3044,1.0271.8781,1.3428-.0454-.4124.1286-.3577,1.5385,1.96,2.5914,5.21,4.7871,8.0393,1.7247,2.5386,2.2964,2.8577,3.8869,5.2181.3553.9045-.706-.4939-.706-.4939a22.2992,22.2992,0,0,0,2.1255,3.5871c-.2248-.21-.13.0881.0034.5259.6221.9912.7063.49,1.3743,1.8882a5.1871,5.1871,0,0,1-.9358-.8028c.7843,1.1382,1.639,2.2137,2.4466,3.3941.0484.4123-.6631-.6072-1.0166-.9822a23.96,23.96,0,0,0,2.7511,3.7756l-.4474-.9316c.3122.4946-.0434.3767-.3072.0317-.8861-1.072-.937-1.75-.8928-1.8674l.5749.8408c-.0447-1.19-2.1727-3.458-3.1938-5.2322l.7946.5193-1.3729-1.6252c-.1357-.4385-.0929-.82.4788.0161-.5762-1.3643-.7909-1.0405-1.2378-2.241-.04-.1379.009-.094.089.0083l-.8378-1.1694c.2185.197.131-.355.5285.4329-1.1059-2.3347-2.3848-3.4085-2.6076-4.4021l.1317.1718c-1.94-2.9987-.4415-.1394-2.1089-2.2646l-.2639-1.9356-.4408-.1479c-.1771-.323-.5263-.9626-.3529-.9082-.8744-1.0757.0039.2686-.5692-.3171-.6581-1.6687-2.59-4.1473-2.3658-4.74-.52-.4331.6969,1.5559-.3929.001.1809-.73-1.1761-1.8465-1.7817-3.367.4832.2942,1.13,1.6922.5244.17-.8849-.6157-1.4972-2.7756-2.2572-3.9128-.3465.126-1.6068-2.5-2.8506-4.4285.1793.0642-1.9758-3.8371-2.8977-5.7634l.084.0249c-.5221-.1787-1.5411-2.1287-2.3931-3.4861.2224-.0525.44.156.9508.863l-.74-1.31a6.842,6.842,0,0,1-1.0772-1.46l.4253.1958c-.9907-1.7395-2.2361-3.3706-3.3243-5.7132-.2946-.0036.3676,2.139-1.1012-.1648.0722-.1552.231-.3574.6258.24a6.4,6.4,0,0,1-.68-1.1142l.7308.8406c-.4782-1.0764-.4675-.4434-.9025-1.2752.1821-.0788-.2126-.6755-.01-.633a7.8279,7.8279,0,0,0,.5661,1.0327,12.9322,12.9322,0,0,1-1.063-2.5637c-.0546.135-.2332.1274-.6245-.5415-.9657-1.7544-.1175-.7166-.584-1.792-.3513-.3611-.8342-1.552-1.11-1.4412a1.7746,1.7746,0,0,1-.2454-.9136c-.6144-.8459-2.3265-4.2441-2.05-3.0678l.1059.2448-.0905-.1438.0039.0076-.0039-.0076c-1.8374-2.8711-3.1672-6.3086-4.8147-9.25l.09-.0408c-1.02-1.7375-2.1062-3.9517-2.9524-5.1333-.272-.53-.4816-1.3311-.26-1.158a20.8042,20.8042,0,0,1-1.7759-3.5073c.844,1.3064-.1015-.5454.82,1.3613a19.92,19.92,0,0,0-2.0746-4.1c.5531.5408-.3869-1.4858-.8755-2.3035l.4608,1.333c-.5141-.937-.8985-1.7883-1.29-2.6523l.5217.3157c-1.3975-3.8594-3.851-6.3274-4.5288-9.448-.6663-.8814.787,2.082.1334,1.3215-.7522-1.7248-1.1445-3.7021-1.3914-4.2356-.909-2.4138-1.4735-1.9663-2.4509-4.4822.0324.3633-.1234.792-1.0465-1.0029-.7273-1.7383-.4878-2.3157.0828-1.27.1928.4077.247.6221.2027.6211.2869.5373.6582,1.2446.4722.5117l-.2076-.1741c-.27-.9018-1.3353-3.259-.91-2.7829-.6821-1.2515-.4257-.4763-.053.51-.8287-2.2705-1.536-3.4414-2.3937-5.7747.0948.3889.1094.7786-.0437.4165-1.2932-3.4077-.8358-1.3862-1.852-3.6374-.3834-1.36.5951.2947-.5191-1.9317-.4771-1.4441.1635-.4155.49.1a30.7192,30.7192,0,0,1-1.9089-5.178l.536,1.0669c-.32-.6382-.5378-1.179-.76-1.7293l.0355.7188c-.2244-.6633-.4463-1.2124-.3495-1.2371-.4153-.61-.1589.659-.894-.5881-.2422-.9077-1.1869-2.5867-.9993-3.0066.9686,2.7712.1632-.4121,1.1354,1.8718a11.0419,11.0419,0,0,1-.6472-1.64c-.005-.1111.0962.0686.1814.24-.7422-2.72-.7932-1.0732-1.8285-3.7915.298.281.073-.75-.1323-1.1789.4162,1.0947-.0757.6291-.5882-.3269A20.3313,20.3313,0,0,0,56.348,242.59l.3355,1.0652a9.6726,9.6726,0,0,1-1.1015-2.3772c.0921-.1526.49,1.0781.39.6206-.7833-1.2517-.8041-3.18-1.6848-5.0019-.2034-.9175.2836-.1968.0825-.9939-.99-2.0423-.5825-2.3819-1.5226-4.563-.0078.7239.0858.8191-.6675-.688l1.4041,3.6382-1.1276-2.2571c.3765,1.1155.9245,2.3079,1.1361,2.9805-.5885-1.0572-.4841-.9644-.4864-.3665-.1854-1.64-1.22-2.9587-1.5879-4.8015l.578-.1343a23.8639,23.8639,0,0,0-1.3052-3.7668,38.4472,38.4472,0,0,1-1.4925-4.3655l.25,1.145c-.3689-.3948-.6992-2.1313-1.1406-3.2265.2214.0466.071-.6761.0392-1.1905-.1381.105-.7539-2.5471-1.2123-2.7563l-.1964-1.6316c-.6954-2.8489-1.48-3.06-2.1553-5.8015.4279.7641.2171-.5061.8725,1.2719-.2668-.9025-.4214-1.7365-.5641-1.7138-.0185-.5633-.9121-2.458-.948-3.3435a3.7035,3.7035,0,0,1-.6658-1.4644c.01-.1216.0955-.02.0955-.02-.0955.02-.5442-1.57-.5241-.6223-.1576-2.9492-1.9014-7.8886-1.9775-10.46-.4848-1.9963-1.03-4.4116-1.4173-6.2365.0817.1057.0977-.0132.1476.3364-.3122-2.5591-.912-1.4353-1.21-4.3618.0588-1.5318.4348,1.5014.3946.56.57-.5161-.6893-3.4656-.6514-5.471l.119.4632a12.8186,12.8186,0,0,0-.4956-2.6617,30.26,30.26,0,0,1-.654-3.3623s.0737.11.099,0a48.91,48.91,0,0,1-1.5017-7.0989c.3335.702.2521,1.0528.4589.5745-.1533-1.05-.3773.36-.6829-1.7388.0622-.7016.0146-2.2346.2663-2.4653l.2348,1.9827c.2417-1.0564-.2968-2.5662-.3513-3.6192l.17.1177c-.4036-3.0317-.7417-3.0439-.9856-6.3264l-.0912.3486c-.5287-1.7639.1-1.52-.3288-3.2881l.3513-.5676c-.2266-1.1726-.5931-4.1262-.78-6.251.35,1.1932.6037,3.6714.8582,5.1971a32.4688,32.4688,0,0,0-.4379-4.5884,8.03,8.03,0,0,1,.1437,1.5329,27.6368,27.6368,0,0,1-.7134-5.6611c.748.3948.1181-6.1152.688-7.8149a46.5113,46.5113,0,0,1,.0462-6.2571c.1117-2.1336.2279-4.3518.3538-6.7571-.6771,1.6751.0484-1.4053-.5677-1.145a8.37,8.37,0,0,1,.1215-1.6487c.19-1.1255.4029-2.2466.6282-3.3638.2474-.7861.0417,1.0735.1874.982.26-2.4373.3477-1.002.65-2.5992-.2539.3089-.2191-.8764.0157-2.2539l-.4943,1.9239c.0443-3.4441.82-2.8828.9629-6.335l.046,1.1057c.078-1.7768,1.0233-6.4179.892-8.2134.1345-.2917.3857-.6594.2663.1082.8944-4.1052,1.7179-9.26,3.1264-12.25l.0377.3508a7.4109,7.4109,0,0,1,.67-2.2541c.0393.0693.0248.3467.1651.0119a15.4287,15.4287,0,0,1,.9962-2.9626c-.0686.2922-.14.5828-.1907.8818.9052-1.8371,1.4149-3.3249,1.9833-4.7053.2748-.6943.5176-1.385.8119-2.0828.3116-.6884.6483-1.3986,1.051-2.1623.3458.2068,2.1606-2.4512,3.1317-3.7136l.0187.08a67.1053,67.1053,0,0,1,7.8092-9.6582c.5656-.3955,1.3331-.9119,2.1847-1.5481.4215-.3228.8715-.6672,1.3407-1.0266L62.552,54.83A36.5588,36.5588,0,0,1,65.77,52.7622,26.5616,26.5616,0,0,1,68.95,51.13c-.6257.2395-.0613-.3553.611-.76.9689-.3453,2.4824-1.429,2.4884-.9947l-.338.14A21.4158,21.4158,0,0,0,76.0359,48.21l.1045-.5783a33.664,33.664,0,0,0,3.5736-.6189c1.2767-.18,2.5763-.5652,3.8551-.6709a21.262,21.262,0,0,1,3.5366-.2944,7.2474,7.2474,0,0,1,2.49.2758c1.0278-.0188,2.31.0252,3.3355.0782l-.0964.27c.6946.1474,1.3022.2766,1.8765.3987a14.3,14.3,0,0,1,1.6641.4c.5533.1536,1.1267.3125,1.7732.4917.6363.2158,1.3446.4563,2.1768.7388l-.745-.05a8.3094,8.3094,0,0,0,2.2171.4485,4.9342,4.9342,0,0,1,2.12.5071l.3055.6323c3.1237,1.5991,5.82,3.9068,8.715,5.8333-.0834.011-.2411.0385-.6869-.312,1.3236.9968,4.5374,4.4812,4.5,3.67-.2258.2837,2.5359,2.6015,3.8817,3.9822l-.4048-.043a12.33,12.33,0,0,1,2.93,2.6709c.3083.4409.119.5036-.2711-.0947.9938,1.4882,1.0614.9414,2.2528,2.7609l-.6271-.5412a8.2034,8.2034,0,0,0,1.8144,2.0307,9.5606,9.5606,0,0,1,1.8381,3.3033,5.36,5.36,0,0,1,1.4752,1.84c-.0035.1752-.2619-.13-.3908-.2837,1.461,2.7151,2.7138,3.72,3.4674,5.7356-.0594.0837-.0331.2273.0272.3945-.5946-1.0686-1.0951-2.0547-1.4993-2.7163-.402-.6629-.6294-1.0471-.5721-.9739-.2195.1336.7782,1.8308-.3516.68a29.73,29.73,0,0,1,3.4714,5.1677,1.1093,1.1093,0,0,1,.0441.2647l-.1213-.1609a6.9508,6.9508,0,0,0,.6225,1.0456c.2571.5579.38.9326.64,1.4612a14.8039,14.8039,0,0,0,1.305,2.9727c.2181-.1944.741.9856.4229-.2007.05.15-.1119-.1531-.4088-.7376-.0722-.13-.1522-.2849-.21-.3652l.0515.05c-.287-.58-.6615-1.3362-1.0869-2.1953a7.73,7.73,0,0,1,1.2677,2.3657c.3838.3767.7955.7993,1.0121,1.0456.28,1.367,1.0712,3.8579.9945,4.2832.6418,1.3579,1.4176,2.9532,2.0422,4.46a20.805,20.805,0,0,0,1.8343,3.6665,2.2431,2.2431,0,0,1,.23,1.3025c-.221-.4467-.4163-1.0009-.58-1.2263.7787,1.5408,1.6243,4.8,2.1215,5.074.4871,2.1113-.6875-1.0579.2574,1.7556l-.2278-.35c.3214,1.4253.6167,2.711.9834,3.9195s.7781,2.3459,1.1918,3.5073c.4027,1.1636.7237,2.3706,1.0376,3.68a23.1332,23.1332,0,0,1,.6495,4.3623,2.4209,2.4209,0,0,1,.0075-.7778c.9942,7.303,2.37,15.0737,1.9555,22.3811a11.7964,11.7964,0,0,0,.35,3.5579c-.1013.1487-.1925.2971-.3023.4448l.2666,2.1672a21.2778,21.2778,0,0,1-.3758,4.2769,20.2284,20.2284,0,0,0-.4676,4.8743l.2462-.4788c-.0875.6919-.1305,1.7976-.2368,2.6921-.1188.8931-.2338,1.5816-.3338,1.4515a1.7158,1.7158,0,0,1-.0335,1.0061l-.1624.0207-.2043,3.4319c-.5734,2.5947-.53-.5059-1.2794,3.2808-.21,1.4169-.32,4.1093-.1156,3.603.1171-.5694.3764-1.4385.54-1.45l-.1684,1.3139c.41.33.68,1.4471,1.6175-1.7019l.15-2.2922.3606-.6809-.3479,1.8877a6.15,6.15,0,0,0,.3781-2.5242,2.1725,2.1725,0,0,0,.4195-.8987l-.13-2.2849c.2177-.2427.2188,1.0481.5258-.427-.06-1.0671-.5428.9365-.4379-.7986.3594-1.049.4871-.7141.4838-2.0029.1438-.1636.1822.1138.1645.6235.0007-.5747.1107-1.3208.1476-2.0058a5.9292,5.9292,0,0,0-.0521-1.6077c.36-1.1072.2686-3.8325.6983-3.6885-.04-.1826-.0722-.6882-.1106-1.279a17.6683,17.6683,0,0,1-.0818-1.79c.455,1.9353.1788-3.91.7249-3.3906a6.4836,6.4836,0,0,1-.1843-1.4412c-.0529-.5857-.0805-1.2593-.1018-1.9665-.0428-1.4146-.0611-2.9668-.2074-4.2151a1.8852,1.8852,0,0,1,.0973.6338c.0378-1.4124.1225-1.8262.1639-2.7373-.4023-.1634-.625-2.35-.9379-3.51.2719-1.7515.5227,1.0129.852.4473-.3094.1076-.4995-2.9781-.74-2.3665.0888-1.3342-.0111-1.1414.238-1.8508-.5129-.1807-.2176-1.2171-.6363-2.273.0253-1.9289.4138-.5478.0116-2.6167C150.6154,127.35,151.0668,129.1794,151.0439,129.1833ZM135.0647,82.072l.0049-.0027c.2129.3733.3943.6917.51.8948Zm-2.0237-3.6706c.2433.4487.5462,1.0073.8666,1.5984-.0138.176-.1776.0856-.3761-.2857C133.6984,79.8826,133.2715,78.9905,133.041,78.4014Zm2.4094,8.6894c-.321-.57-.3673-.7917-.3549-.8982l.53,1.0142.0647.0542A.6484.6484,0,0,1,135.45,87.0908Z"/><path class="cls-4" d="M136.296,87.988c.047.0823.0805.1245.1366.2342-.0392-.13-.0764-.2539-.114-.3794l-.1808-.17C136.1912,87.7788,136.2465,87.8889,136.296,87.988Z"/><path class="cls-4" d="M89.8727,316.4373l-.0354-.0809a.9291.9291,0,0,1,.0508.1819A.74.74,0,0,1,89.8727,316.4373Z"/><path class="cls-4" d="M88.9211,43.75l.0038.0712c.126-.018.2525-.05.3786-.0566C89.1764,43.7473,89.0486,43.7554,88.9211,43.75Z"/><path class="cls-4" d="M100.0751,337.022a.9.9,0,0,0,.0854.2978A1.1766,1.1766,0,0,0,100.0751,337.022Z"/><path class="cls-4" d="M104.918,345.6794l.61,1.2671C105.276,346.3914,105.08,345.9941,104.918,345.6794Z"/><path class="cls-4" d="M108.6041,352.3579a.3557.3557,0,0,0,.1793.0686l-.0061-.0139Z"/><path class="cls-4" d="M54.7706,243.739l-.1175-.271C54.3679,242.8362,54.54,243.2739,54.7706,243.739Z"/><path class="cls-4" d="M69.248,276.8352c-.2093-.3254-.4038-.6519-.5971-1.0034C68.892,276.4282,69.0927,276.8857,69.248,276.8352Z"/><path class="cls-4" d="M42.2219,205.3464l.0058.003-.0627-.2417Z"/><path class="cls-4" d="M67.9713,274.2966a9.8831,9.8831,0,0,0,.68,1.5352A15.3079,15.3079,0,0,0,67.9713,274.2966Z"/><path class="cls-4" d="M125.3005,380.8843l.1786.321c.0128-.0146.0369-.0039.0613.0142Z"/><path class="cls-4" d="M125.54,381.22l.2384.3327A1.2864,1.2864,0,0,0,125.54,381.22Z"/><path class="cls-4" d="M126.2815,382.252l-.5027-.7A2.7741,2.7741,0,0,0,126.2815,382.252Z"/><path class="cls-4" d="M120.2386,372.1494l-.1466-.0471A.156.156,0,0,0,120.2386,372.1494Z"/><path class="cls-4" d="M118.6482,369.5261a26.5014,26.5014,0,0,0,1.3256,2.5357l.1182.0405C119.7168,371.7668,119.1506,370.0361,118.6482,369.5261Z"/><path class="cls-4" d="M113.2313,357.8594l1.2313,2.2561c-.1339-.4422-.307-1.0252.3074-.031C113.4088,357.1287,114.899,360.7834,113.2313,357.8594Z"/><path class="cls-4" d="M109.3621,350.8945c.7368,1.168.1283-.093.218-.06C109.0549,350.1267,108.9269,349.9558,109.3621,350.8945Z"/><path class="cls-4" d="M81.78,300.3945l.29.0088C81.5627,299.4685,81.9771,300.439,81.78,300.3945Z"/><polygon class="cls-4" points="75.71 291.118 76.018 292.121 76.443 292.463 75.71 291.118"/><polygon class="cls-4" points="74.528 284.474 74.763 284.876 73.922 283.313 74.528 284.474"/><path class="cls-4" d="M41.9716,193.8721l-.2349.3818C41.9536,194.9409,42.3325,195.0085,41.9716,193.8721Z"/><path class="cls-4" d="M35.3165,152.8167a5.6991,5.6991,0,0,0-.08-2.347C35.2881,151.4041,35.2388,152.3445,35.3165,152.8167Z"/><polygon class="cls-4" points="78.221 47.485 77.461 47.799 78.922 47.315 78.221 47.485"/></svg>
