<svg xmlns="http://www.w3.org/2000/svg" xmlns:xlink="http://www.w3.org/1999/xlink" width="260" height="290" viewBox="0 0 260 290"><defs><style>.cls-1{fill:#ea46f7;}.cls-2{fill:#e9eced;stroke:#152230;stroke-width:3px;}.cls-2,.cls-5{stroke-miterlimit:10;}.cls-3{fill:#f76363;}.cls-4{fill:#43567e;}.cls-5,.cls-6{fill:#8b3d92;}.cls-5{stroke:#963496;stroke-width:10px;}.cls-7{fill:#963496;}.cls-8{fill:#fc1dfe;}.cls-9{clip-path:url(#clip-path);}.cls-10{fill:#bf1dcc;}.cls-11{fill:#525454;}.cls-12{fill:#1c2121;}</style><clipPath id="clip-path"><circle class="cls-1" cx="96.56" cy="100.98" r="37.53"/></clipPath></defs><title>misplay</title><g id="Levelcompletetekst"><path class="cls-2" d="M235.29,16H24.71c-4,0-7.21,5.07-7.21,11.33V235.76c0,6.26,3.23,11.33,7.21,11.33H59.48v34.66l39.45-34.66H235.29c4,0,7.21-5.07,7.21-11.33V27.33C242.5,21.07,239.27,16,235.29,16Z"/><rect class="cls-3" x="27" y="38.5" width="206" height="145" rx="10.5"/><path class="cls-4" d="M222.5,40a9,9,0,0,1,9,9V173a9,9,0,0,1-9,9H37.5a9,9,0,0,1-9-9V49a9,9,0,0,1,9-9h185m0-3H37.5a12,12,0,0,0-12,12V173a12,12,0,0,0,12,12h185a12,12,0,0,0,12-12V49a12,12,0,0,0-12-12Z"/><path class="cls-5" d="M190.39,125a1.37,1.37,0,1,1,0-2.74,18.39,18.39,0,0,0,18.37-18.37,1.37,1.37,0,0,1,2.74,0A21.13,21.13,0,0,1,190.39,125Z"/><rect class="cls-6" x="74.87" y="145.15" width="50.04" height="17.2" rx="6.8"/><circle class="cls-6" cx="136.25" cy="128.73" r="41.05"/><polyline class="cls-7" points="100.67 80.65 127.25 80.65 127.25 55"/><polyline class="cls-8" points="110.93 75.99 123.98 75.99 123.98 63.4"/><polyline class="cls-7" points="91.68 81.43 65.1 81.43 65.1 55.78"/><polyline class="cls-8" points="81.42 76.77 68.37 76.77 68.37 64.18"/><circle class="cls-1" cx="96.56" cy="100.98" r="37.53"/><g class="cls-9"><rect class="cls-1" x="110.55" y="49.14" width="43.25" height="111.95" rx="12"/></g><rect class="cls-10" x="90.35" y="82.53" width="12.7" height="24.5" rx="5.02"/><circle class="cls-10" cx="88.46" cy="107.34" r="8.23"/><circle class="cls-10" cx="105.2" cy="107.72" r="8.07"/><path class="cls-11" d="M87.87,116.87a9.27,9.27,0,0,1-9.26-9.26.54.54,0,0,1,.54-.53.54.54,0,0,1,.54.53,8.18,8.18,0,1,0,16.36,0,.54.54,0,0,1,1.08,0A9.27,9.27,0,0,1,87.87,116.87Z"/><path class="cls-11" d="M87.87,117.52a9.92,9.92,0,0,1-9.9-9.91,1.19,1.19,0,0,1,2.37,0,7.54,7.54,0,1,0,15.07,0,1.19,1.19,0,0,1,2.37,0A9.93,9.93,0,0,1,87.87,117.52Z"/><path class="cls-11" d="M105.42,116.87a9.27,9.27,0,0,1-9.26-9.26.54.54,0,0,1,1.08,0,8.18,8.18,0,1,0,16.36,0,.54.54,0,0,1,.54-.53.54.54,0,0,1,.54.53A9.27,9.27,0,0,1,105.42,116.87Z"/><path class="cls-11" d="M105.42,117.52a9.93,9.93,0,0,1-9.91-9.91,1.19,1.19,0,0,1,2.37,0,7.54,7.54,0,1,0,15.07,0,1.19,1.19,0,0,1,2.37,0A9.92,9.92,0,0,1,105.42,117.52Z"/><path class="cls-11" d="M102.3,102.88a5.6,5.6,0,0,1-11.2,0"/><circle class="cls-12" cx="78.75" cy="91.12" r="4.13"/><circle class="cls-12" cx="113.41" cy="91.12" r="4.13"/><rect class="cls-11" x="121.35" y="105.89" width="20.37" height="2.51" rx="0.99"/><path class="cls-11" d="M138.72,114.79,121.84,112a1.3,1.3,0,0,1-1.22-1.48h0a1.59,1.59,0,0,1,1.85-1l16.88,2.76a1.29,1.29,0,0,1,1.22,1.49h0A1.59,1.59,0,0,1,138.72,114.79Z"/><path class="cls-11" d="M140.29,102.84l-17,2a1.57,1.57,0,0,1-1.78-1.06h0a1.34,1.34,0,0,1,1.32-1.43l17.05-2a1.55,1.55,0,0,1,1.78,1h0A1.33,1.33,0,0,1,140.29,102.84Z"/><rect class="cls-11" x="51.89" y="106.84" width="20.37" height="2.51" rx="0.99" transform="translate(124.15 216.2) rotate(-180)"/><path class="cls-11" d="M54.88,115.74,71.77,113A1.31,1.31,0,0,0,73,111.49h0a1.59,1.59,0,0,0-1.85-1l-16.88,2.77c-.85.14-1.4.8-1.22,1.48h0A1.58,1.58,0,0,0,54.88,115.74Z"/><path class="cls-11" d="M53.32,103.8l17,2a1.54,1.54,0,0,0,1.78-1.06h0a1.32,1.32,0,0,0-1.31-1.42l-17-2A1.57,1.57,0,0,0,52,102.37h0A1.34,1.34,0,0,0,53.32,103.8Z"/><rect class="cls-1" x="80.34" y="152.58" width="50.04" height="17.2" rx="6.8"/><rect class="cls-1" x="142.89" y="152.97" width="50.04" height="17.2" rx="6.8"/><ellipse class="cls-1" cx="177.29" cy="138.31" rx="23.06" ry="21.7"/></g></svg>
