<svg id="Levelcomplete" xmlns="http://www.w3.org/2000/svg" width="250" height="290" viewBox="0 0 250 290"><defs><style>.cls-1{fill:#f4912d;}.cls-2{fill:#e9eced;}.cls-3{fill:#963496;}.cls-4{fill:#f94eb8;}</style></defs><title>nøgenbillede2</title><path class="cls-1" d="M226.7894,15H16.2106C12.2283,15,9,20.072,9,26.3285v208.43c0,6.2566,3.2283,11.3286,7.2106,11.3286H50.98V280.75l39.4549-34.663H226.7894c3.9823,0,7.2106-5.072,7.2106-11.3286V26.3285C234,20.072,230.7717,15,226.7894,15Z"/><rect class="cls-2" x="17" y="36" width="209" height="148" rx="12"/><path class="cls-3" d="M104.5609,103.1311S92.5372,109.26,93.657,71.3082s3.2078-2.4116,3.2078-2.4116-.9382-39.4731,3.201-.5c0,0-1.4835-35.2157,4.1661-.4016,0,0-3.06-33.7259,5.4917-.5294,0,0,2.9565-32.7768,6.8355-.4678S120.3583,100.4615,104.5609,103.1311Z"/><path class="cls-3" d="M158.4457,97.7194s12.9729,3.7187,4.6242-33.32-3.6094-1.7545-3.6094-1.7545-6.6193-38.9254-3.2375.121c0,0-5.2709-34.8506-4.1661.4016,0,0-3.4388-33.6893-5.4917.5294,0,0-9.1631-31.6085-6.799.8465S142.4292,98.1166,158.4457,97.7194Z"/><ellipse class="cls-4" cx="117.8515" cy="156.7264" rx="4.7402" ry="7.5744" transform="translate(-14.4947 12.0315) rotate(-5.5062)"/><ellipse class="cls-4" cx="128.2795" cy="155.6752" rx="4.7402" ry="7.5744" transform="translate(-14.3457 13.0272) rotate(-5.5062)"/><path class="cls-3" d="M50.7564,70.7051s69.243,22.3765,65.2093,28.117S69.87,104.6182,67.93,100.6,50.7564,70.7051,50.7564,70.7051Z"/><rect class="cls-3" x="117.0107" y="132.5547" width="10.5242" height="30.8467" rx="5.2621" transform="translate(-13.6349 12.4153) rotate(-5.5062)"/><path class="cls-4" d="M119.3159,119.2874s4.7518-.5589,6.5781,7.6707,2.2392,7.8535-5.0655,8.02l-.0055,0c-7.202,1.2323-6.7249,1.5225-6.5042-6.9044s4.9917-8.7859,4.9917-8.7859"/><path class="cls-4" d="M162.0772,160.7944c-.1586.0153-.3305-.0892-.4862-.0271-18.8595,7.53-22.4415,13.9913-34.1823,15.1231-12.7419,1.2283-36.2745-8.3942-36.3509-8.3564a1.6171,1.6171,0,0,1-1.4358-2.898,97.7515,97.7515,0,0,1,20.95-6.7587,125.1967,125.1967,0,0,1,51.68-.2758,1.6173,1.6173,0,0,1-.1747,3.1929Z"/><path class="cls-4" d="M145.7086,168.6771s21.2325-94.779,23.8426-96.4019,18.9863-32.3554,29.5907.155-10.9757,91.6049-10.9757,91.6049Z"/><path class="cls-3" d="M169.6555,72.38s-30.2189,17.63-25.163,22.4941,17.9884,6.6756,19.1254,2.3612S169.6555,72.38,169.6555,72.38Z"/><path class="cls-4" d="M99.2093,166.3524S60.263,77.3745,57.3909,76.28,32.5736,48.1473,28.3748,82.0847s28.272,87.8214,28.272,87.8214Z"/><rect class="cls-4" x="57" y="163" width="131" height="21"/></svg>
