<svg id="Levelcomplete" xmlns="http://www.w3.org/2000/svg" width="515" height="361" viewBox="0 0 515 361"><defs><style>.cls-1{fill:#f4912d;}.cls-2{fill:#152230;}.cls-3{fill:#fffefd;}</style></defs><title>privatsnaklogo</title><path class="cls-1" d="M457.37,159.94l-348.15-1c-6.58,0-11.92,2.78-11.93,6.26l-.35,116c0,3.48,5.32,6.32,11.9,6.34l57.48.17,8.13-.26,57.1.46,225.43.67c6.59,0,11.93-2.79,11.94-6.27l.35-116C469.28,162.8,464,160,457.37,159.94Z"/><rect class="cls-2" x="44.87" y="29.01" width="424.85" height="131.78" rx="9.07"/><polyline class="cls-2" points="80.3 190.45 80.3 158.09 126.72 158.09"/><polyline class="cls-1" points="165.29 319.45 165.29 287.09 211.72 287.09"/><path class="cls-3" d="M116.38,122.36H98.74V54.5h28.08q11.43,0,17.51,5.94t6.07,16.74q0,10.8-6.07,16.74t-17.51,5.94H116.38Zm0-36.72h5.85q9.72,0,9.72-8.46t-9.72-8.46h-5.85Z"/><path class="cls-3" d="M216.19,122.36h-22L177.4,96.26v26.1H159.76V54.5h27.45a26.94,26.94,0,0,1,9.9,1.67,18.61,18.61,0,0,1,11.12,11.2,23.21,23.21,0,0,1,1.39,8.1q0,7.74-3.73,12.56t-11,6.52ZM177.4,84.83h3.33q5.22,0,8-2.16a7.38,7.38,0,0,0,2.79-6.21,7.38,7.38,0,0,0-2.79-6.21q-2.79-2.16-8-2.16H177.4Z"/><path class="cls-3" d="M241.21,54.5v67.86H223.57V54.5Z"/><path class="cls-3" d="M267.49,54.5l16.38,41.31L300.34,54.5h19.17l-28.62,67.86h-14L248.32,54.5Z"/><path class="cls-3" d="M362.8,110.57H337.6l-4.05,11.79H314.74L340.57,54.5h19.26l25.83,67.86H366.85Zm-4.68-13.41L350.2,74.57l-7.92,22.59Z"/><path class="cls-3" d="M416.17,69.44v52.92H398.53V69.44H384V54.5h46.62V69.44Z"/><path class="cls-3" d="M190,204.87a21.76,21.76,0,0,0-5.76-3.46,15.31,15.31,0,0,0-5.58-1.13,9.05,9.05,0,0,0-5.58,1.62,5,5,0,0,0-2.16,4.23,4.21,4.21,0,0,0,1.08,3,9.45,9.45,0,0,0,2.84,2,24.27,24.27,0,0,0,4,1.48c1.47.42,2.92.87,4.36,1.35q8.64,2.88,12.65,7.7t4,12.55a24.44,24.44,0,0,1-1.75,9.45,19.74,19.74,0,0,1-5.13,7.25,23.67,23.67,0,0,1-8.28,4.68,34.52,34.52,0,0,1-11.12,1.66,40.88,40.88,0,0,1-23.85-7.65l7.56-14.22a30.67,30.67,0,0,0,7.83,5.22,18.82,18.82,0,0,0,7.65,1.71q4.32,0,6.44-2a6.13,6.13,0,0,0,1.57-7.15,5.75,5.75,0,0,0-1.8-2.07,14.38,14.38,0,0,0-3.28-1.76q-2-.81-4.91-1.8-3.42-1.08-6.7-2.38a21.11,21.11,0,0,1-5.85-3.47,16.08,16.08,0,0,1-4.14-5.44,19.28,19.28,0,0,1-1.58-8.33,24,24,0,0,1,1.67-9.13,20.3,20.3,0,0,1,4.68-7,20.87,20.87,0,0,1,7.38-4.55,27.87,27.87,0,0,1,9.76-1.62,42.76,42.76,0,0,1,10.53,1.4A46.43,46.43,0,0,1,197,191.1Z"/><path class="cls-3" d="M210.88,255.36V187.5h17.64L261.1,229V187.5h17.55v67.86H261.1l-32.58-41.49v41.49Z"/><path class="cls-3" d="M334.63,243.57h-25.2l-4.05,11.79H286.57L312.4,187.5h19.26l25.83,67.86H338.68ZM330,230.16,322,207.57l-7.92,22.59Z"/><path class="cls-3" d="M382.87,215.49l21.51-28h21.78l-26.91,32.13,29.43,35.73H405.82l-22.95-29.43v29.43H365.23V187.5h17.64Z"/></svg>
