<svg xmlns="http://www.w3.org/2000/svg" width="260" height="290" viewBox="0 0 260 290"><defs><style>.cls-1{fill:#e9eced;stroke:#152230;stroke-miterlimit:10;stroke-width:3px;}.cls-2{fill:#f76363;}.cls-3{fill:#43567e;}.cls-4{fill:#bab9b6;}.cls-5{fill:#525454;}.cls-6{fill:#8b3d92;}.cls-7{fill:#ea46f7;}.cls-8{fill:#963496;}.cls-9{fill:#bf1dcc;}</style></defs><title>roosterplay</title><g id="Levelcompletetekst"><path class="cls-1" d="M232.79,20H22.21c-4,0-7.21,5.07-7.21,11.33V239.76c0,6.26,3.23,11.33,7.21,11.33H57v34.66l39.45-34.66H232.79c4,0,7.21-5.07,7.21-11.33V31.33C240,25.07,236.77,20,232.79,20Z"/><rect class="cls-2" x="24.5" y="42.5" width="206" height="145" rx="10.5"/><path class="cls-3" d="M220,44a9,9,0,0,1,9,9V177a9,9,0,0,1-9,9H35a9,9,0,0,1-9-9V53a9,9,0,0,1,9-9H220m0-3H35A12,12,0,0,0,23,53V177a12,12,0,0,0,12,12H220a12,12,0,0,0,12-12V53a12,12,0,0,0-12-12Z"/><path class="cls-4" d="M157.29,69.56a1.39,1.39,0,0,1-.26-.28L126.36,84.85l5,40.2,32.16-3.85Z"/><rect class="cls-5" x="130.75" y="162.46" width="2.21" height="18.49" rx="0.85" transform="translate(-61 73.35) rotate(-25.46)"/><rect class="cls-5" x="116.12" y="162.73" width="2.21" height="18.49" rx="0.85" transform="translate(57.4 -27.37) rotate(17.57)"/><rect class="cls-6" x="131.27" y="114.71" width="32.65" height="12.87" rx="4.95" transform="translate(-18.6 27.12) rotate(-9.88)"/><path class="cls-6" d="M53,132.57a19.85,19.85,0,1,1,39.65,1.9"/><path class="cls-7" d="M63.26,140a14.08,14.08,0,0,1,27.6-5.59"/><path class="cls-6" d="M73.88,145.26a10.37,10.37,0,1,1,18.89-8.56"/><path class="cls-6" d="M164.14,121a38.37,38.37,0,0,1-75.86,11.53"/><path class="cls-7" d="M161,125.42a28.06,28.06,0,0,1-55.49,8.43"/><rect class="cls-5" x="131.85" y="179.02" width="12.14" height="2.48" rx="0.96"/><rect class="cls-5" x="110.88" y="179.02" width="12.14" height="2.48" rx="0.96"/><rect class="cls-5" x="112.49" y="173.73" width="4.75" height="2.48" rx="0.96" transform="translate(-54.43 51.89) rotate(-20.7)"/><rect class="cls-5" x="129.32" y="173.73" width="4.75" height="2.48" rx="0.96" transform="matrix(0.94, -0.35, 0.35, 0.94, -53.34, 57.84)"/><polygon class="cls-4" points="134.46 121.84 132.59 119.71 130.72 117.57 133.51 117.02 136.29 116.47 135.38 119.16 134.46 121.84"/><polygon class="cls-4" points="139.43 120.74 137.56 118.6 135.69 116.47 138.47 115.91 141.26 115.36 140.34 118.05 139.43 120.74"/><polygon class="cls-4" points="144.4 119.64 142.53 117.5 140.66 115.36 143.44 114.81 146.23 114.26 145.31 116.95 144.4 119.64"/><polygon class="cls-4" points="148.81 118.53 146.94 116.39 145.07 114.26 147.86 113.71 150.65 113.16 149.73 115.84 148.81 118.53"/><polygon class="cls-4" points="153.5 117.7 151.63 115.57 149.76 113.43 152.55 112.88 155.34 112.33 154.42 115.02 153.5 117.7"/><polygon class="cls-4" points="157.92 116.88 156.05 114.74 154.18 112.6 156.97 112.05 159.75 111.5 158.84 114.19 157.92 116.88"/><polyline class="cls-4" points="162.89 113.99 161.47 116.45 160.05 113.99 158.63 111.54 161.47 111.53"/><polygon class="cls-8" points="133.72 128.46 130.23 127.8 126.74 127.14 129.05 124.45 131.37 121.76 132.54 125.11 133.72 128.46"/><rect class="cls-9" x="157.79" y="82.7" width="4.97" height="17.39" rx="1.91" transform="translate(-16.72 39.31) rotate(-13.29)"/><path class="cls-9" d="M159.78,88.88c-3.25.43-6.27-2.16-6.74-5.79s1.77-6.91,5-7.34"/><polygon class="cls-5" points="159.21 85.23 158.85 82.46 158.49 79.69 161.07 80.76 163.65 81.83 161.43 83.53 159.21 85.23"/><rect class="cls-9" x="124.16" y="82.7" width="5.52" height="12.37" rx="2.12" transform="translate(-27.54 101.12) rotate(-39.54)"/><rect class="cls-9" x="126.51" y="74.86" width="5.52" height="16.78" rx="2.12" transform="translate(-23.42 101.34) rotate(-39.54)"/><rect class="cls-9" x="129.65" y="68.49" width="5.52" height="19.92" rx="2.12" transform="translate(-19.65 102.24) rotate(-39.54)"/><rect class="cls-9" x="132.75" y="61.99" width="5.52" height="23.21" rx="2.12" transform="translate(-15.85 103.1) rotate(-39.54)"/><rect class="cls-9" x="135.52" y="55.58" width="5.96" height="25.61" rx="2.29" transform="translate(-11.85 103.81) rotate(-39.54)"/><rect class="cls-9" x="139.84" y="50.48" width="5.6" height="27.77" rx="2.15" transform="translate(-8.34 105.53) rotate(-39.54)"/><rect class="cls-9" x="142.82" y="44.15" width="5.66" height="30.52" rx="2.18" transform="translate(-4.5 106.31) rotate(-39.54)"/><path class="cls-9" d="M155.28,67l-29.06,25.3,1.8,2.07a1.39,1.39,0,0,0,2,.13L156.8,71.21A1.6,1.6,0,0,0,157,69Z"/><path class="cls-6" d="M124.62,160.88a2,2,0,0,1,.73,3.43l-2.8,2.82-2.8,2.81a2,2,0,0,1-3.43-.7l-.75-3.55-.75-3.54a2.38,2.38,0,0,1,2.71-2.73l3.54.73Z"/><path class="cls-6" d="M131.6,158.81a2,2,0,0,1,2.48,2.47l-.8,3.89-.8,3.89a2,2,0,0,1-3.26,1.29l-2.57-2.56-2.57-2.55a2.39,2.39,0,0,1,.78-3.77l3.37-1.33Z"/></g></svg>
