<svg id="Lag_1" data-name="Lag 1" xmlns="http://www.w3.org/2000/svg" viewBox="0 0 187.3 189.57"><defs><style>.cls-1,.cls-3{fill:#e9eced;}.cls-1{stroke:#152230;}.cls-1,.cls-2,.cls-3{stroke-miterlimit:10;stroke-width:10px;}.cls-2{fill:#f4912d;}.cls-2,.cls-3{stroke:#f4912d;}</style></defs><title>settings_knap</title><circle class="cls-1" cx="94.27" cy="95" r="82.5"/><circle class="cls-2" cx="94.27" cy="95" r="47.01"/><rect class="cls-2" x="84" y="37" width="19.3" height="21.57" rx="3.15"/><rect class="cls-2" x="117" y="51.32" width="19.3" height="21.57" rx="3.15" transform="translate(81.01 -71.36) rotate(45)"/><rect class="cls-2" x="130.08" y="84.32" width="19.3" height="21.57" rx="3.15" transform="translate(44.62 234.83) rotate(-90)"/><rect class="cls-2" x="37.3" y="84.32" width="19.3" height="21.57" rx="3.15" transform="translate(-48.15 142.06) rotate(-90)"/><rect class="cls-2" x="51" y="117.32" width="19.3" height="21.57" rx="3.15" transform="translate(108.35 -5.36) rotate(45)"/><rect class="cls-2" x="84.62" y="131.02" width="19.3" height="21.57" rx="3.15"/><rect class="cls-2" x="52.25" y="50.7" width="19.3" height="21.57" rx="3.15" transform="translate(-25.35 61.78) rotate(-45)"/><rect class="cls-2" x="117.62" y="116.08" width="19.3" height="21.57" rx="3.15" transform="translate(-52.43 127.15) rotate(-45)"/><circle class="cls-3" cx="95.21" cy="93.44" r="23.04"/></svg>
