<svg id="Lag_1" data-name="Lag 1" xmlns="http://www.w3.org/2000/svg" viewBox="0 0 400 760"><defs><style>.cls-1{fill:#152230;}.cls-2{fill:#89cce5;}.cls-3{fill:#444e59;}.cls-4{fill:#1f2531;}.cls-5{fill:#ff9207;}.cls-6{font-size:30px;fill:#fff;font-family:Futura-CondensedExtraBold, Futura;font-weight:800;}.cls-7{letter-spacing:0.01em;}.cls-8{letter-spacing:-0.02em;}</style></defs><title>settings_menu</title><rect class="cls-1" x="1" y="0.5" width="398" height="759" rx="60.43"/><path d="M338.57,1A60,60,0,0,1,398.5,60.93V699.07A60,60,0,0,1,338.57,759H61.43A60,60,0,0,1,1.5,699.07V60.93A60,60,0,0,1,61.43,1H338.57m0-1H61.43A60.93,60.93,0,0,0,.5,60.93V699.07A60.93,60.93,0,0,0,61.43,760H338.57a60.93,60.93,0,0,0,60.93-60.93V60.93A60.93,60.93,0,0,0,338.57,0Z"/><rect class="cls-2" x="8" y="8.5" width="385" height="743" rx="60.43"/><path d="M332.57,9A60,60,0,0,1,392.5,68.93V691.07A60,60,0,0,1,332.57,751H68.43A60,60,0,0,1,8.5,691.07V68.93A60,60,0,0,1,68.43,9H332.57m0-1H68.43A60.93,60.93,0,0,0,7.5,68.93V691.07A60.93,60.93,0,0,0,68.43,752H332.57a60.93,60.93,0,0,0,60.93-60.93V68.93A60.93,60.93,0,0,0,332.57,8Z"/><rect class="cls-1" x="90.5" width="221" height="36" rx="8.85"/><rect class="cls-3" x="159.5" y="12" width="59" height="11" rx="4.73"/><circle class="cls-3" cx="252.5" cy="18" r="7"/><rect class="cls-4" x="33.5" y="87" width="302" height="64" rx="9.07"/><polyline class="cls-4" points="41.5 172 41.5 149 74.5 149"/><rect class="cls-5" x="77.5" y="151" width="283" height="461" rx="9.07"/><polyline class="cls-5" points="105.3 631.75 105.3 604 154.93 604"/><text class="cls-6" transform="translate(58.5 131.32)">SETTI<tspan class="cls-7" x="62.9" y="0">N</tspan><tspan x="82.25" y="0">GS</tspan></text><text/><text class="cls-6" transform="translate(98.5 291.78)">Musik:</text><text class="cls-6" transform="translate(110.76 468.53)"><tspan class="cls-8">L</tspan><tspan x="11.97" y="0">yd:</tspan></text></svg>
