<svg id="Levelcomplete" xmlns="http://www.w3.org/2000/svg" width="290" height="220" viewBox="0 0 290 220"><defs><style>.cls-1,.cls-3{fill:#e9eced;}.cls-1{stroke:#152230;}.cls-1,.cls-2,.cls-3{stroke-miterlimit:10;stroke-width:10px;}.cls-2{fill:#f4912d;}.cls-2,.cls-3{stroke:#f4912d;}</style></defs><title>settingsknap</title><circle class="cls-1" cx="134.003" cy="114" r="82.5"/><circle class="cls-2" cx="134.003" cy="114" r="47.0094"/><rect class="cls-2" x="123.7294" y="56.0028" width="19.3019" height="21.5727" rx="3.1477"/><rect class="cls-2" x="156.7294" y="70.3235" width="19.3019" height="21.5727" rx="3.1477" transform="translate(106.085 -93.8921) rotate(45)"/><rect class="cls-2" x="169.8049" y="103.3235" width="19.3019" height="21.5727" rx="3.1477" transform="translate(65.346 293.5657) rotate(-90)"/><rect class="cls-2" x="77.0313" y="103.3235" width="19.3019" height="21.5727" rx="3.1477" transform="translate(-27.4276 200.7921) rotate(-90)"/><rect class="cls-2" x="90.7294" y="136.3235" width="19.3019" height="21.5727" rx="3.1477" transform="translate(133.4231 -27.8921) rotate(45)"/><rect class="cls-2" x="124.3521" y="150.0216" width="19.3019" height="21.5727" rx="3.1477"/><rect class="cls-2" x="91.9747" y="69.7009" width="19.3019" height="21.5727" rx="3.1477" transform="translate(-27.1476 95.4343) rotate(-45)"/><rect class="cls-2" x="157.3521" y="135.0782" width="19.3019" height="21.5727" rx="3.1477" transform="translate(-54.2278 160.8117) rotate(-45)"/><circle class="cls-3" cx="134.937" cy="112.4434" r="23.0377"/></svg>
