<svg id="Levelcomplete" xmlns="http://www.w3.org/2000/svg" width="210" height="80" viewBox="0 0 210 80"><defs><style>.cls-1{fill:#152230;}.cls-2,.cls-4{fill:#fff;}.cls-2,.cls-3{stroke:#fff;stroke-miterlimit:10;}.cls-3{fill:none;}</style></defs><title>sletknap</title><rect class="cls-1" x="-0.3067" y="0.6546" width="210.6134" height="78.6907" rx="9.0692"/><rect class="cls-2" x="31.5904" y="13.9045" width="48.6452" height="5.2342" rx="1.1308"/><polygon class="cls-2" points="76.85 25.888 34.838 25.888 34.287 20.792 77.538 20.792 76.85 25.888"/><rect class="cls-2" x="52.5344" y="44.1437" width="42.0113" height="2.4724" rx="0.5341" transform="translate(126.4606 -22.9347) rotate(96.0857)"/><rect class="cls-2" x="42.3654" y="43.2982" width="40.7316" height="3.4436" rx="0.7439" transform="translate(111.2241 -15.067) rotate(93.2394)"/><rect class="cls-2" x="17.2106" y="44.068" width="42.0113" height="2.6094" rx="0.5637" transform="translate(-2.8492 88.1838) rotate(-96.0857)"/><rect class="cls-2" x="29.7596" y="43.1094" width="40.8742" height="3.4436" rx="0.7439" transform="translate(92.3105 -7.6661) rotate(86.9685)"/><rect class="cls-2" x="38.9707" y="62.6652" width="33.7468" height="5.2342" rx="1.1308"/><rect class="cls-3" x="45.1691" y="10.2699" width="21.35" height="4.4077" rx="0.9522"/><path class="cls-4" d="M106.004,56.87V46.7061q2.5765,3.52,5.5742,3.52a2.7792,2.7792,0,0,0,1.8447-.5967,1.8762,1.8762,0,0,0,.7119-1.499,3.3814,3.3814,0,0,0-1.5508-2.5362l-1.4248-1.11a19.4415,19.4415,0,0,1-2.4306-2.127,10.9716,10.9716,0,0,1-1.6348-2.18,9.181,9.181,0,0,1-.9228-2.3164,10.517,10.517,0,0,1-.293-2.5146,11.9713,11.9713,0,0,1,2.2637-6.8428,9.2148,9.2148,0,0,1,7.5654-3.7832,13.4727,13.4727,0,0,1,6.2871,1.6563v9.8916a9.2473,9.2473,0,0,0-2.4307-2.6094,4.675,4.675,0,0,0-2.6826-.9531,2.376,2.376,0,0,0-1.6562.5869,1.723,1.723,0,0,0-.67,1.3623q0,1.2993,1.7813,2.5771l1.3828,1.0274a13.5056,13.5056,0,0,1,3.9609,4.0869,9.6,9.6,0,0,1,1.2159,4.9043,11.0506,11.0506,0,0,1-2.9131,7.88,9.6835,9.6835,0,0,1-7.377,3.1015A18.348,18.348,0,0,1,106.004,56.87Z"/><path class="cls-4" d="M141.6114,57.667H126.3126V25.3076h8.7392v24.584h6.56Z"/><path class="cls-4" d="M144.211,57.667V25.3076h16.2422V32.915H152.95v4.7159h6.7275v7.3144H152.95v4.9463h7.5029V57.667Z"/><path class="cls-4" d="M175.48,57.667H166.74V33.0625h-4.82V25.3076h18.5693v7.7549h-5.01Z"/></svg>
