<svg id="Levelcomplete" xmlns="http://www.w3.org/2000/svg" xmlns:xlink="http://www.w3.org/1999/xlink" width="400" height="320" viewBox="0 0 400 320"><defs><style>.cls-1{fill:#e9eced;}.cls-2{clip-path:url(#clip-path);}.cls-3{fill:#e5e5e5;}.cls-4{fill:#f4912d;}.cls-5{fill:#152230;}.cls-6{fill:#fff;}.cls-7{fill:#fcfcfc;}</style><clipPath id="clip-path"><rect class="cls-1" x="-1255.4366" y="-1293.4221" width="1920" height="1080"/></clipPath></defs><title>Startknap</title><rect class="cls-1" x="-1255.4366" y="-1293.4221" width="1920" height="1080"/><g class="cls-2"><rect class="cls-3" x="-1232.4944" y="-625.5845" width="2099.9481" height="727.832" transform="translate(76.2531 -75.0664) rotate(-19.3078)"/></g><path class="cls-4" d="M340.385,97.9789,71.7164,95.4921a9.2,9.2,0,0,0-9.2849,9.1145l-1.5666,169.26a9.2,9.2,0,0,0,9.1145,9.2847l44.36.4106-.2606,28.1489,50.5994-27.683,173.97,1.61a9.2,9.2,0,0,0,9.2849-9.1144l1.5666-169.26A9.2,9.2,0,0,0,340.385,97.9789Z"/><path d="M236.2017,220.2933l-55.8669,30.0219a16.994,16.994,0,0,1-25.0376-15.1267l.5652-61.0728a16.9941,16.9941,0,0,1,25.3134-14.6608l55.3016,31.0509A16.9941,16.9941,0,0,1,236.2017,220.2933Z"/><rect class="cls-5" x="24.2875" y="34.4797" width="306.3543" height="64.9228" rx="9.0692" transform="matrix(1, 0.0093, -0.0093, 1, 0.6272, -1.6396)"/><polyline class="cls-5" points="28.342 120.794 28.342 97.463 61.817 97.463"/><path class="cls-6" d="M65.3984,55.6152l-.1211,13.1436a10.2437,10.2437,0,0,1-.8037,4.6182A5.0642,5.0642,0,0,1,59.67,76.252a6.42,6.42,0,0,1-3.581-1.0674l1.5459-2.6016a3.1115,3.1115,0,0,0,2.123.749,2.0178,2.0178,0,0,0,2.0508-1.35,9.04,9.04,0,0,0,.3652-3.2519l.1211-13.1446Z"/><path class="cls-6" d="M72.6338,63.167,72.5664,70.5a3.6818,3.6818,0,0,0,.5264,2.3164,2.589,2.589,0,0,0,3.8945.0371,3.6925,3.6925,0,0,0,.5693-2.3076l.0674-7.333,2.9805.0273-.0684,7.4248a5.3646,5.3646,0,0,1-1.4072,4.1866,5.8476,5.8476,0,0,1-4.1826,1.5429,5.6342,5.6342,0,0,1-4.0322-1.6191,5.3563,5.3563,0,0,1-1.33-4.2119l.0683-7.4248Z"/><path class="cls-6" d="M89.9473,66.7051a2.1411,2.1411,0,0,0-1.8145-1.1123,1.2646,1.2646,0,0,0-.916.3261.9691.9691,0,0,0-.28.667.8224.8224,0,0,0,.419.7344c.1816.1231.3642.1856.999.5264l1.5146.7744a6.1326,6.1326,0,0,1,1.7842,1.2031,3.16,3.16,0,0,1,.9209,2.3819,4.2536,4.2536,0,0,1-1.1523,2.9111,4.5775,4.5775,0,0,1-3.6035,1.3965,4.4046,4.4046,0,0,1-2.7608-.8477,4.9906,4.9906,0,0,1-1.6221-2.3574l2.4454-1.1338a3.3835,3.3835,0,0,0,.6884,1.2236,1.8315,1.8315,0,0,0,1.3037.4991,1.7957,1.7957,0,0,0,1.2208-.4151,1.5122,1.5122,0,0,0,.4365-1,1.3837,1.3837,0,0,0-.3867-.9765,3.9416,3.9416,0,0,0-1.2715-.8038l-1.0909-.5273a6.3294,6.3294,0,0,1-1.7539-1.1113,2.795,2.795,0,0,1-.8925-2.169,3.9993,3.9993,0,0,1,1.09-2.7285A4.1286,4.1286,0,0,1,88.37,62.9785a3.9949,3.9949,0,0,1,2.3662.6914,4.3849,4.3849,0,0,1,1.4463,1.5957Z"/><path class="cls-6" d="M98.3828,66.1445l-.0928,10.07-2.9814-.0273.0928-10.07-1.2471-.0117.0254-2.7393,1.2471.0117.0439-4.6845,2.9814.0273-.0439,4.6846,2.2822.0215-.0254,2.7392Z"/><path class="cls-6" d="M104.2578,56.248a1.9171,1.9171,0,1,1-1.9336,1.9A1.8729,1.8729,0,0,1,104.2578,56.248Zm1.4229,7.2247-.1182,12.8085-2.9805-.0273L102.7,63.4453Z"/><path class="cls-6" d="M109.4248,63.5078l2.9814.0274-.0107,1.1875a4.4138,4.4138,0,0,1,3.4834-1.4893,4.2837,4.2837,0,0,1,3.7559,1.7686,5.7232,5.7232,0,0,1,.7578,3.5664l-.0723,7.85-2.9814-.0274.0654-7.1191c.03-3.2559-1.1855-3.3574-2.3115-3.3682-1.3389-.0127-2.71.1572-2.7481,4.2959l-.0566,6.1446-2.9815-.0274Z"/><path class="cls-6" d="M134.9932,56.26c2.6172.0244,4.2568.374,5.5839,1.6338a5.2023,5.2023,0,0,1,1.5752,4.0312,4.41,4.41,0,0,1-.6308,2.3975,3.3483,3.3483,0,0,1-1.5342,1.3847,5.5842,5.5842,0,0,1,2.6035,1.4854,5.2844,5.2844,0,0,1,1.3037,3.8154,4.9528,4.9528,0,0,1-1.372,3.6387c-1.628,1.6885-4.1563,1.9394-5.708,1.9248l-5.0821-.0469.1875-20.293Zm-.13,17.373,1.8867.0176a5.3508,5.3508,0,0,0,3.08-.7627,2.9067,2.9067,0,0,0,1.0244-2.2422,3.04,3.04,0,0,0-.8008-2.1377,4.4554,4.4554,0,0,0-3.1875-.9424l-1.9473-.0185Zm.08-8.6406.9433.0078a3.5615,3.5615,0,0,0,2.5322-.7676,3.0775,3.0775,0,0,0,.8125-2.3047,2.5027,2.5027,0,0,0-.7119-1.9531,3.3255,3.3255,0,0,0-2.457-.7832l-1.0654-.01Z"/><path class="cls-6" d="M148.8682,56.6621a1.9171,1.9171,0,1,1-1.9346,1.8984A1.8723,1.8723,0,0,1,148.8682,56.6621Zm1.4238,7.2236-.1182,12.81-2.9814-.0273.1181-12.81Z"/><path class="cls-6" d="M165.4453,73.916a6.7183,6.7183,0,0,1-2.1836,2.3223,7.04,7.04,0,0,1-3.7812.9385,5.6759,5.6759,0,0,1-4.3047-1.6827,6.8753,6.8753,0,0,1-1.8418-4.916,7.5074,7.5074,0,0,1,2.0879-5.2441,5.8375,5.8375,0,0,1,4.3066-1.6953A5.5233,5.5233,0,0,1,163.82,65.35a7.6934,7.6934,0,0,1,1.7442,5.4336l-.003.3652-9.1885-.0859a4.2287,4.2287,0,0,0,1.07,2.5967,3.0514,3.0514,0,0,0,2.2754.8428,3.1445,3.1445,0,0,0,2.0449-.62,4.657,4.657,0,0,0,1.1992-1.3886Zm-2.9043-5.23a3.0888,3.0888,0,0,0-.8965-1.7421,3.1053,3.1053,0,0,0-4.1074.0527,3.351,3.351,0,0,0-.9287,1.6348Z"/><path class="cls-6" d="M171.7012,65.5762a4.6707,4.6707,0,0,1,3.8213-1.791c3.3759.0312,6.2119,2.6132,6.1738,6.7812-.0332,3.5293-2.3154,6.7949-6.27,6.7578a4.9162,4.9162,0,0,1-3.8174-1.77l-.0127,1.3389-2.9815-.0284.2051-22.18,2.9815.0284Zm-.2285,4.9873c-.0245,2.6777,1.6972,4.0635,3.5839,4.081,2.16.02,3.5752-1.8242,3.5957-4.0449.0215-2.2822-1.36-4.12-3.52-4.1406C173.2451,66.4414,171.498,67.7637,171.4727,70.5635Z"/><path class="cls-6" d="M196.2412,74.2012a6.7179,6.7179,0,0,1-2.1836,2.3222,7.04,7.04,0,0,1-3.7812.9385,5.6758,5.6758,0,0,1-4.3047-1.6826,6.8753,6.8753,0,0,1-1.8418-4.916,7.5076,7.5076,0,0,1,2.0879-5.2442,5.8383,5.8383,0,0,1,4.3066-1.6953,5.5237,5.5237,0,0,1,4.0918,1.711,7.6933,7.6933,0,0,1,1.7442,5.4336l-.003.3652-9.1885-.0859a4.2285,4.2285,0,0,0,1.07,2.5966,3.0505,3.0505,0,0,0,2.2753.8428,3.1446,3.1446,0,0,0,2.045-.62,4.6561,4.6561,0,0,0,1.1992-1.3887Zm-2.9043-5.2305a3.0891,3.0891,0,0,0-.8965-1.7422,3.1053,3.1053,0,0,0-4.1074.0527,3.3514,3.3514,0,0,0-.9287,1.6348Z"/><path class="cls-6" d="M199.53,64.3418l2.98.0273L202.5,65.5254a5.1483,5.1483,0,0,1,1.2578-1.0527,3.44,3.44,0,0,1,1.83-.4082,4.4139,4.4139,0,0,1,2.3369.6289l-1.2422,2.6972a2.7013,2.7013,0,0,0-1.5176-.4707,2.3218,2.3218,0,0,0-1.8623.6826,4.1262,4.1262,0,0,0-.8486,2.9444l-.0615,6.6318-2.98-.0283Z"/><path class="cls-6" d="M211.3086,74.0059a1.8252,1.8252,0,1,1-1.8438,1.8086A1.83,1.83,0,0,1,211.3086,74.0059Zm.0918-9.8887a1.8258,1.8258,0,1,1-1.8438,1.8086A1.83,1.83,0,0,1,211.4,64.1172Z"/><path class="cls-7" d="M97.291,118.9121a3.1542,3.1542,0,0,0-.8994-1.26,3.1878,3.1878,0,0,0-2.16-.7207c-1.8593,0-2.8193,1.1094-2.8193,2.4,0,.6.21,1.6494,2.1592,2.43l2.0107.81c3.69,1.5,4.709,3.6006,4.709,5.88a6.1654,6.1654,0,0,1-6.4492,6.42,5.8536,5.8536,0,0,1-4.71-2.01,6.4782,6.4782,0,0,1-1.68-3.9l3.0293-.66a4.3287,4.3287,0,0,0,.84,2.5508,3.1582,3.1582,0,0,0,2.61,1.1992,3.2141,3.2141,0,0,0,3.3-3.3594c0-2.04-1.5595-2.88-2.88-3.42l-1.92-.8106c-1.6494-.6894-4.08-2.0693-4.08-5.0693,0-2.7,2.1-5.28,5.85-5.28a5.9013,5.9013,0,0,1,4.02,1.3506,6.8067,6.8067,0,0,1,1.5293,2.01Z"/><path class="cls-7" d="M106.6211,124.5508v9.93h-2.9395v-9.93h-1.23v-2.6992h1.23v-4.62h2.9395v4.62h2.25v2.6992Z"/><path class="cls-7" d="M120.0908,121.8516H123.03v12.6289h-2.9395v-1.3194a4.85,4.85,0,0,1-3.78,1.71c-3.8994,0-6.1191-3.24-6.1191-6.72,0-4.11,2.8193-6.63,6.1494-6.63a4.606,4.606,0,0,1,3.75,1.8Zm-6.8994,6.3593c0,2.19,1.38,4.02,3.51,4.02,1.8593,0,3.5693-1.35,3.5693-3.9893,0-2.76-1.71-4.08-3.5693-4.08C114.5713,124.1611,113.1914,125.9609,113.1914,128.2109Z"/><path class="cls-7" d="M126.752,121.8516h2.9394v1.14a5.0988,5.0988,0,0,1,1.23-1.05,3.3976,3.3976,0,0,1,1.8008-.42,4.3632,4.3632,0,0,1,2.31.6l-1.2,2.67a2.66,2.66,0,0,0-1.5-.4492,2.2921,2.2921,0,0,0-1.83.6894,4.0717,4.0717,0,0,0-.81,2.91v6.5391H126.752Z"/><path class="cls-7" d="M140.3408,124.5508v9.93h-2.9394v-9.93h-1.2305v-2.6992h1.2305v-4.62h2.9394v4.62h2.25v2.6992Z"/><path class="cls-7" d="M157.08,125.1816a2.1142,2.1142,0,0,0-1.8-1.08,1.2485,1.2485,0,0,0-.9.33.9543.9543,0,0,0-.2695.66.8069.8069,0,0,0,.42.72c.18.12.3593.18.9892.51l1.5.75a6.0722,6.0722,0,0,1,1.77,1.17,3.1189,3.1189,0,0,1,.93,2.34,4.1926,4.1926,0,0,1-1.11,2.88,4.5081,4.5081,0,0,1-3.5391,1.41,4.3466,4.3466,0,0,1-2.7305-.8106,4.9263,4.9263,0,0,1-1.62-2.3095l2.4-1.14a3.3252,3.3252,0,0,0,.6895,1.1992,1.8,1.8,0,0,0,1.29.4805,1.7712,1.7712,0,0,0,1.2-.42,1.4888,1.4888,0,0,0,.42-.99,1.3645,1.3645,0,0,0-.39-.96,3.8933,3.8933,0,0,0-1.26-.78l-1.08-.51a6.216,6.216,0,0,1-1.74-1.08,2.7494,2.7494,0,0,1-.8994-2.1289,3.9434,3.9434,0,0,1,1.05-2.7,4.0654,4.0654,0,0,1,3.09-1.2,3.95,3.95,0,0,1,2.34.66,4.3286,4.3286,0,0,1,1.4394,1.56Z"/><path class="cls-7" d="M165.3,141.3506H162.36v-19.499H165.3v1.38a4.7512,4.7512,0,0,1,3.75-1.71c3.33,0,6.1494,2.55,6.1494,6.57,0,4.26-3.12,6.7793-6.1191,6.7793a5.0169,5.0169,0,0,1-3.78-1.8594Zm-.18-13.1094c0,2.64,1.71,3.9893,3.5694,3.9893,2.13,0,3.51-1.8291,3.51-4.02,0-2.25-1.38-4.05-3.51-4.05C166.83,124.1611,165.12,125.4814,165.12,128.2412Z"/><path class="cls-7" d="M179.7305,114.7422a1.89,1.89,0,1,1-1.8907,1.89A1.8449,1.8449,0,0,1,179.7305,114.7422Zm1.47,7.1094v12.6289h-2.9395V121.8516Z"/><path class="cls-7" d="M187.8594,112.6113v21.8692H184.92V112.6113Z"/><path class="cls-7" d="M194.5186,112.6113v21.8692h-2.9395V112.6113Z"/><path class="cls-7" d="M209.5479,131.6016a6.6416,6.6416,0,0,1-2.13,2.31,6.9576,6.9576,0,0,1-3.7207.96,5.6,5.6,0,0,1-4.26-1.62,6.7826,6.7826,0,0,1-1.8594-4.8291,7.402,7.402,0,0,1,2.01-5.19,5.7533,5.7533,0,0,1,4.23-1.71,5.4367,5.4367,0,0,1,4.05,1.65,7.5833,7.5833,0,0,1,1.77,5.34v.3594h-9.06a4.1654,4.1654,0,0,0,1.08,2.55,2.9991,2.9991,0,0,0,2.249.81,3.1015,3.1015,0,0,0,2.0108-.6289,4.5783,4.5783,0,0,0,1.17-1.3809Zm-2.91-5.1309a3.0529,3.0529,0,0,0-.9-1.709,3.0634,3.0634,0,0,0-4.05.09,3.3053,3.3053,0,0,0-.8994,1.6191Z"/><path class="cls-7" d="M215.7275,124.5508v9.93h-2.9394v-9.93h-1.23v-2.6992h1.23v-4.62h2.9394v4.62h2.25v2.6992Z"/><path class="cls-7" d="M221.6973,121.5215a1.8,1.8,0,1,1-1.8,1.8A1.8053,1.8053,0,0,1,221.6973,121.5215Zm0,9.75a1.8,1.8,0,1,1-1.8,1.7988A1.8045,1.8045,0,0,1,221.6973,131.2715Z"/></svg>
