<svg id="Lag_1" data-name="Lag 1" xmlns="http://www.w3.org/2000/svg" viewBox="0 0 398 343"><defs><style>.cls-1{fill:#ff9228;}.cls-2,.cls-4{fill:#fff;}.cls-3{fill:#1f2531;}.cls-4{font-size:30px;font-family:Futura-CondensedExtraBold, Futura;font-weight:800;}.cls-5{letter-spacing:-0.03em;}.cls-6{letter-spacing:0.01em;}</style></defs><title>taleboble_jenner</title><path class="cls-1" d="M339.93,80H75.07A9.07,9.07,0,0,0,66,89.07V255.93A9.07,9.07,0,0,0,75.07,265H118.8v27.75L168.43,265h171.5a9.07,9.07,0,0,0,9.07-9.07V89.07A9.07,9.07,0,0,0,339.93,80Z"/><path class="cls-2" d="M83.33,105.06h3v20h5v2.58h-8Z"/><path class="cls-2" d="M102.05,120.22q0,7.69-4.76,7.7t-4.76-7.81q0-7.85,4.74-7.84a4.66,4.66,0,0,1,2.14.47,3.74,3.74,0,0,1,1.48,1.45,7.57,7.57,0,0,1,.87,2.48A18.3,18.3,0,0,1,102.05,120.22Zm-2.9-.07a14.54,14.54,0,0,0-.4-4.16,1.45,1.45,0,0,0-1.4-1.19A1.49,1.49,0,0,0,95.93,116a14.12,14.12,0,0,0-.4,4.08,14.08,14.08,0,0,0,.4,4.08,1.48,1.48,0,0,0,1.42,1.17,1.44,1.44,0,0,0,1.39-1.16A13.12,13.12,0,0,0,99.15,120.15Z"/><path class="cls-2" d="M104.66,112.52h2.8v1.89a5.35,5.35,0,0,1,1.42-1.69,3.62,3.62,0,0,1,1.86-.55v2.93a3.5,3.5,0,0,0-.5,0,2.66,2.66,0,0,0-2.16.78,4.36,4.36,0,0,0-.62,2.67v9.18h-2.8Z"/><path class="cls-2" d="M118.62,122.57h2.6c-.2,3.56-1.67,5.35-4.39,5.35a4.51,4.51,0,0,1-2.09-.46,3.6,3.6,0,0,1-1.44-1.41,7.24,7.24,0,0,1-.84-2.41,19.56,19.56,0,0,1-.27-3.49,12.23,12.23,0,0,1,1.12-6,3.73,3.73,0,0,1,3.46-1.93q4.56,0,4.56,8v.35h-6.4q0,4.86,1.93,4.86C118,125.51,118.62,124.53,118.62,122.57Zm-.15-3.94a10.54,10.54,0,0,0-.54-3.14,1.29,1.29,0,0,0-1.23-.83,1.26,1.26,0,0,0-1.23.83,9.91,9.91,0,0,0-.54,3.14Z"/><path class="cls-2" d="M123.82,112.52h2.8v1.87a3.46,3.46,0,0,1,3.07-2.12,2.81,2.81,0,0,1,2.84,2.12,3.47,3.47,0,0,1,3.17-2.12,3.33,3.33,0,0,1,2.44.84,3.38,3.38,0,0,1,.84,2.49v12.08h-2.81v-10a5.29,5.29,0,0,0-.33-2.3,1.2,1.2,0,0,0-1.2-.61,1.46,1.46,0,0,0-1.37.62,4.93,4.93,0,0,0-.36,2.29v10H130v-10a8.93,8.93,0,0,0-.08-1.37,2.4,2.4,0,0,0-.27-.89,1.08,1.08,0,0,0-.5-.49,1.68,1.68,0,0,0-.76-.16,1.48,1.48,0,0,0-1.37.66,4.44,4.44,0,0,0-.41,2.25v10h-2.8Z"/><path class="cls-2" d="M149.67,106.07a1.81,1.81,0,0,1,1.32.56,1.9,1.9,0,0,1-1.35,3.24,1.87,1.87,0,0,1-1.35-.56,1.84,1.84,0,0,1-.54-1.36,1.81,1.81,0,0,1,.56-1.32A2,2,0,0,1,149.67,106.07Zm-1.32,6.45h2.82v15.16h-2.82Z"/><path class="cls-2" d="M154.32,133.89V112.52h2.79v2a4.86,4.86,0,0,1,1.2-1.73,2.56,2.56,0,0,1,1.62-.48,2.87,2.87,0,0,1,2.74,1.94,15.79,15.79,0,0,1,.87,6.07,13.75,13.75,0,0,1-.89,5.82,3,3,0,0,1-2.83,1.82,2.61,2.61,0,0,1-1.53-.43,2.53,2.53,0,0,1-.59-.59,6.69,6.69,0,0,1-.59-.92v7.91Zm6.32-13.71a13.79,13.79,0,0,0-.41-4.19,1.46,1.46,0,0,0-1.42-1.19c-.64,0-1.1.41-1.37,1.24a13.43,13.43,0,0,0-.41,4.07,13.47,13.47,0,0,0,.41,4.07c.28.81.74,1.22,1.37,1.22a1.49,1.49,0,0,0,1.42-1.18A13,13,0,0,0,160.64,120.18Z"/><path class="cls-2" d="M172,112.83v2.62a3.53,3.53,0,0,0-2.15-.76,1.83,1.83,0,0,0-.71.13,1.92,1.92,0,0,0-.56.36,1.6,1.6,0,0,0-.38.54,1.67,1.67,0,0,0-.14.67c0,.72.65,1.58,2,2.57a15.52,15.52,0,0,1,1.32,1.15,5.52,5.52,0,0,1,.81,1,4.4,4.4,0,0,1,.57,2.33,4.52,4.52,0,0,1-1.19,3.27,4.17,4.17,0,0,1-3.15,1.22,4.89,4.89,0,0,1-2.46-.72v-2.71a4,4,0,0,0,2.3.91,1.68,1.68,0,0,0,1.92-1.89,2.14,2.14,0,0,0-.35-1.22,3.45,3.45,0,0,0-.51-.58c-.24-.22-.53-.46-.87-.74a11.61,11.61,0,0,1-2.4-2.31,4.26,4.26,0,0,1-.62-2.33,4.15,4.15,0,0,1,1.13-3,4,4,0,0,1,3-1.16A5.17,5.17,0,0,1,172,112.83Z"/><path class="cls-2" d="M175,112.52h2.8v10.14a4.13,4.13,0,0,0,.41,2,1.44,1.44,0,0,0,1.3.6,1.52,1.52,0,0,0,1.33-.52,3.54,3.54,0,0,0,.39-1.94V112.52H184v9.07a12.17,12.17,0,0,1-.47,4.24q-1,2.08-4.07,2.09a4.26,4.26,0,0,1-3.45-1.24,6.51,6.51,0,0,1-1-4.14Z"/><path class="cls-2" d="M187.16,112.52H190v1.87a3.46,3.46,0,0,1,3.07-2.12,2.81,2.81,0,0,1,2.84,2.12,3.47,3.47,0,0,1,3.17-2.12,3.33,3.33,0,0,1,2.44.84,3.38,3.38,0,0,1,.84,2.49v12.08h-2.81v-10a5.29,5.29,0,0,0-.33-2.3,1.2,1.2,0,0,0-1.2-.61,1.46,1.46,0,0,0-1.37.62,4.93,4.93,0,0,0-.36,2.29v10h-2.9v-10a8.93,8.93,0,0,0-.08-1.37,2.4,2.4,0,0,0-.27-.89,1.08,1.08,0,0,0-.5-.49,1.71,1.71,0,0,0-.76-.16,1.48,1.48,0,0,0-1.37.66,4.44,4.44,0,0,0-.41,2.25v10h-2.8Z"/><path class="cls-2" d="M220.35,102.79v24.89h-2.8v-2a5,5,0,0,1-1.2,1.72,2.54,2.54,0,0,1-1.6.47A2.9,2.9,0,0,1,212,126a15.59,15.59,0,0,1-.88-6.06,24.23,24.23,0,0,1,.22-3.44,8.67,8.67,0,0,1,.67-2.39,3.26,3.26,0,0,1,1.15-1.38,3,3,0,0,1,1.67-.45,2.53,2.53,0,0,1,1.52.44,2.76,2.76,0,0,1,.6.59,5,5,0,0,1,.6.93V102.79ZM214,120a14.7,14.7,0,0,0,.4,4.18,1.48,1.48,0,0,0,1.43,1.19c.63,0,1.08-.41,1.37-1.23a19.88,19.88,0,0,0,0-8.13c-.29-.83-.74-1.24-1.37-1.24a1.51,1.51,0,0,0-1.42,1.18A13.33,13.33,0,0,0,214,120Z"/><path class="cls-2" d="M232.48,120.22q0,7.69-4.76,7.7T223,120.11q0-7.85,4.74-7.84a4.66,4.66,0,0,1,2.14.47,3.74,3.74,0,0,1,1.48,1.45,7.57,7.57,0,0,1,.87,2.48A19.12,19.12,0,0,1,232.48,120.22Zm-2.9-.07a14.54,14.54,0,0,0-.4-4.16,1.45,1.45,0,0,0-1.4-1.19,1.49,1.49,0,0,0-1.42,1.18,14.12,14.12,0,0,0-.4,4.08,14.08,14.08,0,0,0,.4,4.08,1.48,1.48,0,0,0,1.42,1.17,1.44,1.44,0,0,0,1.39-1.16A13.12,13.12,0,0,0,229.58,120.15Z"/><path class="cls-2" d="M235.09,102.79h2.79v24.89h-2.79Z"/><path class="cls-2" d="M250,120.22q0,7.69-4.76,7.7t-4.76-7.81q0-7.85,4.75-7.84a4.58,4.58,0,0,1,2.13.47,3.76,3.76,0,0,1,1.49,1.45,7.57,7.57,0,0,1,.87,2.48A19.2,19.2,0,0,1,250,120.22Zm-2.9-.07a15,15,0,0,0-.39-4.16c-.27-.79-.73-1.19-1.41-1.19a1.5,1.5,0,0,0-1.42,1.18,14.59,14.59,0,0,0-.39,4.08,14.55,14.55,0,0,0,.39,4.08,1.49,1.49,0,0,0,1.42,1.17,1.43,1.43,0,0,0,1.39-1.16A12.8,12.8,0,0,0,247.11,120.15Z"/><path class="cls-2" d="M252.62,112.52h2.8v1.89a5.48,5.48,0,0,1,1.42-1.69,3.69,3.69,0,0,1,1.86-.55v2.93a3.5,3.5,0,0,0-.5,0,2.65,2.65,0,0,0-2.15.78,4.28,4.28,0,0,0-.63,2.67v9.18h-2.8Z"/><path class="cls-2" d="M272.7,112.83v2.62a3.53,3.53,0,0,0-2.15-.76,1.78,1.78,0,0,0-.7.13,1.85,1.85,0,0,0-.57.36,1.75,1.75,0,0,0-.38.54,1.67,1.67,0,0,0-.14.67c0,.72.66,1.58,2,2.57a16.93,16.93,0,0,1,1.31,1.15,4.77,4.77,0,0,1,.81,1,4.4,4.4,0,0,1,.57,2.33,4.51,4.51,0,0,1-1.18,3.27,4.2,4.2,0,0,1-3.15,1.22,5,5,0,0,1-2.47-.72v-2.71a4,4,0,0,0,2.3.91,1.68,1.68,0,0,0,1.92-1.89,2.06,2.06,0,0,0-.35-1.22,3.45,3.45,0,0,0-.51-.58c-.23-.22-.52-.46-.86-.74a11.46,11.46,0,0,1-2.41-2.31,4.26,4.26,0,0,1-.61-2.33,4.11,4.11,0,0,1,1.13-3,4,4,0,0,1,3-1.16A5.17,5.17,0,0,1,272.7,112.83Z"/><path class="cls-2" d="M277,106.07a1.81,1.81,0,0,1,1.32.56,1.9,1.9,0,0,1-1.35,3.24,1.86,1.86,0,0,1-1.35-.56,1.84,1.84,0,0,1-.54-1.36,1.81,1.81,0,0,1,.56-1.32A2,2,0,0,1,277,106.07Zm-1.32,6.45h2.82v15.16h-2.82Z"/><path class="cls-2" d="M282,108.27h2.8v4.25h1.52v2.23h-1.52v12.93H282V114.75h-1.54v-2.23H282Z"/><path class="cls-2" d="M91.83,148.52v15.16H89v-2a5,5,0,0,1-1.2,1.72,2.53,2.53,0,0,1-1.59.47A2.89,2.89,0,0,1,83.48,162a15.47,15.47,0,0,1-.88-6.06,14.25,14.25,0,0,1,.88-5.8,2.89,2.89,0,0,1,2.76-1.85,3.14,3.14,0,0,1,2.79,2v-1.71ZM85.5,156a15.2,15.2,0,0,0,.39,4.18,1.49,1.49,0,0,0,1.44,1.19c.62,0,1.08-.41,1.36-1.23a19.43,19.43,0,0,0,0-8.13c-.28-.83-.74-1.24-1.36-1.24A1.49,1.49,0,0,0,85.91,152,13,13,0,0,0,85.5,156Z"/><path class="cls-2" d="M95,148.52h2.8v1.87a3.47,3.47,0,0,1,3.08-2.12,2.83,2.83,0,0,1,2.84,2.12,3.46,3.46,0,0,1,3.16-2.12,3.3,3.3,0,0,1,2.44.84,3.38,3.38,0,0,1,.85,2.49v12.08h-2.82v-10a5.34,5.34,0,0,0-.32-2.3,1.21,1.21,0,0,0-1.2-.61,1.49,1.49,0,0,0-1.38.62,5.11,5.11,0,0,0-.35,2.29v10h-2.9v-10a10.42,10.42,0,0,0-.08-1.37,2.4,2.4,0,0,0-.27-.89,1.12,1.12,0,0,0-.5-.49,1.71,1.71,0,0,0-.76-.16,1.5,1.5,0,0,0-1.38.66,4.55,4.55,0,0,0-.41,2.25v10H95Z"/><path class="cls-2" d="M119.19,158.57h2.61c-.21,3.56-1.67,5.35-4.4,5.35a4.51,4.51,0,0,1-2.09-.46,3.6,3.6,0,0,1-1.44-1.41,7.24,7.24,0,0,1-.84-2.41,19.56,19.56,0,0,1-.27-3.49,12.23,12.23,0,0,1,1.12-6,3.74,3.74,0,0,1,3.46-1.93q4.56,0,4.56,8v.35h-6.4q0,4.86,1.93,4.86C118.6,161.51,119.19,160.53,119.19,158.57Zm-.15-3.94a10.54,10.54,0,0,0-.54-3.14,1.27,1.27,0,0,0-1.23-.83,1.26,1.26,0,0,0-1.23.83,9.91,9.91,0,0,0-.54,3.14Z"/><path class="cls-2" d="M124.73,144.27h2.79v4.25h1.53v2.23h-1.53v12.93h-2.79V150.75h-1.54v-2.23h1.54Z"/><path class="cls-2" d="M131.9,160.52l2.43.71-2.9,8-1.53-.43Z"/><path class="cls-2" d="M149.67,148.81v2.86a1.76,1.76,0,0,0-1.4-.72q-2.33,0-2.32,5,0,5.32,2.3,5.32a2.48,2.48,0,0,0,1.42-.57v2.62a4.79,4.79,0,0,1-2.25.59q-4.51,0-4.52-7.68a12.57,12.57,0,0,1,1.12-6,3.71,3.71,0,0,1,3.45-1.94A4.8,4.8,0,0,1,149.67,148.81Z"/><path class="cls-2" d="M161,156.22q0,7.69-4.77,7.7t-4.76-7.81q0-7.85,4.75-7.84a4.58,4.58,0,0,1,2.13.47,3.76,3.76,0,0,1,1.49,1.45,7.57,7.57,0,0,1,.87,2.48A19.12,19.12,0,0,1,161,156.22Zm-2.91-.07a15,15,0,0,0-.39-4.16,1.46,1.46,0,0,0-1.41-1.19,1.51,1.51,0,0,0-1.42,1.18,21.54,21.54,0,0,0,0,8.16,1.5,1.5,0,0,0,1.42,1.17,1.43,1.43,0,0,0,1.39-1.16A12.8,12.8,0,0,0,158.09,156.15Z"/><path class="cls-2" d="M163.6,148.52h2.8v1.74a3.55,3.55,0,0,1,3.11-2,2.74,2.74,0,0,1,2.63,1.45,7.55,7.55,0,0,1,.44,3.18v10.78h-2.8V153.54a4.63,4.63,0,0,0-.37-2.18,1.32,1.32,0,0,0-1.26-.64,1.67,1.67,0,0,0-.81.17,1.2,1.2,0,0,0-.53.54,2.85,2.85,0,0,0-.3,1,8.81,8.81,0,0,0-.1,1.48v9.8h-2.8Z"/><path class="cls-2" d="M181.61,148.83v2.62a3.58,3.58,0,0,0-2.16-.76,1.79,1.79,0,0,0-1.26.49,1.63,1.63,0,0,0-.39.54,1.67,1.67,0,0,0-.13.67c0,.72.65,1.58,2,2.57a17.26,17.26,0,0,1,1.32,1.15,5,5,0,0,1,.8,1,4.4,4.4,0,0,1,.57,2.33,4.51,4.51,0,0,1-1.18,3.27,4.17,4.17,0,0,1-3.15,1.22,4.89,4.89,0,0,1-2.46-.72v-2.71a3.93,3.93,0,0,0,2.3.91,1.68,1.68,0,0,0,1.92-1.89,2.07,2.07,0,0,0-.36-1.22,2.73,2.73,0,0,0-.51-.58c-.23-.22-.52-.46-.86-.74a11.46,11.46,0,0,1-2.41-2.31,4.26,4.26,0,0,1-.61-2.33,4.15,4.15,0,0,1,1.13-3,4,4,0,0,1,3-1.16A5.23,5.23,0,0,1,181.61,148.83Z"/><path class="cls-2" d="M190.42,158.57H193c-.2,3.56-1.67,5.35-4.39,5.35a4.51,4.51,0,0,1-2.09-.46,3.6,3.6,0,0,1-1.44-1.41,7.23,7.23,0,0,1-.85-2.41,19.56,19.56,0,0,1-.27-3.49,12.35,12.35,0,0,1,1.12-6,3.76,3.76,0,0,1,3.47-1.93q4.56,0,4.55,8v.35h-6.4q0,4.86,1.94,4.86C189.84,161.51,190.42,160.53,190.42,158.57Zm-.14-3.94a10.54,10.54,0,0,0-.54-3.14,1.3,1.3,0,0,0-1.24-.83,1.27,1.27,0,0,0-1.23.83,10.54,10.54,0,0,0-.54,3.14Z"/><path class="cls-2" d="M201.82,148.81v2.86a1.76,1.76,0,0,0-1.41-.72q-2.31,0-2.31,5,0,5.32,2.3,5.32a2.48,2.48,0,0,0,1.42-.57v2.62a4.79,4.79,0,0,1-2.26.59q-4.5,0-4.51-7.68a12.45,12.45,0,0,1,1.12-6,3.71,3.71,0,0,1,3.45-1.94A4.8,4.8,0,0,1,201.82,148.81Z"/><path class="cls-2" d="M204.53,144.27h2.8v4.25h1.52v2.23h-1.52v12.93h-2.8V150.75H203v-2.23h1.54Z"/><path class="cls-2" d="M216.69,158.57h2.61c-.21,3.56-1.67,5.35-4.4,5.35a4.51,4.51,0,0,1-2.09-.46,3.6,3.6,0,0,1-1.44-1.41,7.24,7.24,0,0,1-.84-2.41,19.56,19.56,0,0,1-.27-3.49,12.23,12.23,0,0,1,1.12-6,3.74,3.74,0,0,1,3.46-1.93q4.56,0,4.56,8v.35H213q0,4.86,1.93,4.86C216.1,161.51,216.69,160.53,216.69,158.57Zm-.15-3.94a10.54,10.54,0,0,0-.54-3.14,1.27,1.27,0,0,0-1.23-.83,1.26,1.26,0,0,0-1.23.83,9.91,9.91,0,0,0-.54,3.14Z"/><path class="cls-2" d="M222.23,144.27H225v4.25h1.53v2.23H225v12.93h-2.79V150.75h-1.54v-2.23h1.54Z"/><path class="cls-2" d="M228.55,148.52h2.8v10.14a4,4,0,0,0,.42,2,1.43,1.43,0,0,0,1.3.6,1.54,1.54,0,0,0,1.33-.52,3.65,3.65,0,0,0,.38-1.94V148.52h2.8v9.07a12.43,12.43,0,0,1-.47,4.24c-.66,1.39-2,2.09-4.07,2.09a4.28,4.28,0,0,1-3.46-1.24,6.57,6.57,0,0,1-1-4.14Z"/><path class="cls-2" d="M246.6,158.57h2.61c-.21,3.56-1.67,5.35-4.4,5.35a4.47,4.47,0,0,1-2.08-.46,3.56,3.56,0,0,1-1.45-1.41,7.24,7.24,0,0,1-.84-2.41,19.56,19.56,0,0,1-.27-3.49,12.23,12.23,0,0,1,1.12-6,3.74,3.74,0,0,1,3.46-1.93q4.56,0,4.56,8v.35h-6.4q0,4.86,1.93,4.86C246,161.51,246.6,160.53,246.6,158.57Zm-.15-3.94a9.91,9.91,0,0,0-.54-3.14,1.33,1.33,0,0,0-2.46,0,10.54,10.54,0,0,0-.54,3.14Z"/><path class="cls-2" d="M251.8,148.52h2.8v1.89a5.48,5.48,0,0,1,1.42-1.69,3.69,3.69,0,0,1,1.86-.55v2.93a3.5,3.5,0,0,0-.5,0,2.65,2.65,0,0,0-2.15.78,4.28,4.28,0,0,0-.63,2.67v9.18h-2.8Z"/><path class="cls-2" d="M274.68,148.52v15.16h-2.8v-2a5,5,0,0,1-1.2,1.72,2.52,2.52,0,0,1-1.58.47,2.91,2.91,0,0,1-2.77-1.94,15.66,15.66,0,0,1-.88-6.06,14.43,14.43,0,0,1,.88-5.8,2.91,2.91,0,0,1,2.77-1.85,3.13,3.13,0,0,1,2.78,2v-1.71ZM268.35,156a15.09,15.09,0,0,0,.4,4.18,1.48,1.48,0,0,0,1.43,1.19c.63,0,1.08-.41,1.37-1.23a19.88,19.88,0,0,0,0-8.13c-.29-.83-.74-1.24-1.37-1.24a1.51,1.51,0,0,0-1.42,1.18A13.33,13.33,0,0,0,268.35,156Z"/><path class="cls-2" d="M286.52,138.79v24.89h-2.8v-2a5,5,0,0,1-1.2,1.72,2.54,2.54,0,0,1-1.6.47,2.89,2.89,0,0,1-2.75-1.93,15.4,15.4,0,0,1-.88-6.06,22.84,22.84,0,0,1,.22-3.44,9.06,9.06,0,0,1,.66-2.39,3.28,3.28,0,0,1,1.16-1.38,3,3,0,0,1,1.67-.45,2.53,2.53,0,0,1,1.52.44,3.29,3.29,0,0,1,.6.59,6.26,6.26,0,0,1,.6.93V138.79ZM280.19,156a15.2,15.2,0,0,0,.39,4.18A1.5,1.5,0,0,0,282,161.4c.63,0,1.08-.41,1.36-1.23a19.43,19.43,0,0,0,0-8.13c-.28-.83-.73-1.24-1.36-1.24A1.5,1.5,0,0,0,280.6,152,13.33,13.33,0,0,0,280.19,156Z"/><path class="cls-2" d="M291,142.07a1.81,1.81,0,0,1,1.32.56A1.9,1.9,0,1,1,289.1,144a1.8,1.8,0,0,1,.55-1.32A2,2,0,0,1,291,142.07Zm-1.31,6.45h2.81v15.16H289.7Z"/><path class="cls-2" d="M295.66,169.89V148.52h2.8v2a4.86,4.86,0,0,1,1.2-1.73,2.53,2.53,0,0,1,1.61-.48,2.9,2.9,0,0,1,2.75,1.94,15.79,15.79,0,0,1,.87,6.07,13.72,13.72,0,0,1-.9,5.82,2.94,2.94,0,0,1-2.82,1.82,2.62,2.62,0,0,1-1.54-.43,2.74,2.74,0,0,1-.59-.59,6.7,6.7,0,0,1-.58-.92v7.91ZM302,156.18a14.13,14.13,0,0,0-.41-4.19,1.47,1.47,0,0,0-1.42-1.19c-.65,0-1.11.41-1.38,1.24a20.41,20.41,0,0,0,0,8.14c.28.81.74,1.22,1.38,1.22a1.51,1.51,0,0,0,1.42-1.18A13.3,13.3,0,0,0,302,156.18Z"/><path class="cls-2" d="M308.81,142.07a1.81,1.81,0,0,1,1.32.56,1.9,1.9,0,1,1-2.69,2.68,1.89,1.89,0,0,1,0-2.68A2,2,0,0,1,308.81,142.07Zm-1.32,6.45h2.82v15.16h-2.82Z"/><path class="cls-2" d="M311.87,154.77h5.34v2.29h-5.34Z"/><path class="cls-2" d="M89,184.83v2.62a3.56,3.56,0,0,0-2.16-.76,1.82,1.82,0,0,0-.7.13,1.92,1.92,0,0,0-.56.36,1.6,1.6,0,0,0-.38.54,1.52,1.52,0,0,0-.14.67c0,.72.65,1.58,2,2.57a15.52,15.52,0,0,1,1.32,1.15,5,5,0,0,1,.8,1,4.4,4.4,0,0,1,.58,2.33,4.52,4.52,0,0,1-1.19,3.27,4.17,4.17,0,0,1-3.15,1.22A4.89,4.89,0,0,1,83,199.2v-2.71a4,4,0,0,0,2.3.91,1.68,1.68,0,0,0,1.92-1.89,2.14,2.14,0,0,0-.35-1.22,3.16,3.16,0,0,0-.52-.58c-.23-.22-.52-.46-.86-.74a11.61,11.61,0,0,1-2.4-2.31,4.26,4.26,0,0,1-.62-2.33,4.15,4.15,0,0,1,1.13-3,4,4,0,0,1,3-1.16A5.2,5.2,0,0,1,89,184.83Z"/><path class="cls-2" d="M98.18,184.81v2.86a1.76,1.76,0,0,0-1.4-.72q-2.32,0-2.32,5,0,5.32,2.3,5.32a2.45,2.45,0,0,0,1.42-.57v2.62a4.79,4.79,0,0,1-2.25.59q-4.52,0-4.51-7.68a12.59,12.59,0,0,1,1.11-6A3.71,3.71,0,0,1,96,184.27,4.79,4.79,0,0,1,98.18,184.81Z"/><path class="cls-2" d="M101.87,178.07a1.81,1.81,0,0,1,1.32.56A1.9,1.9,0,1,1,100,180a1.8,1.8,0,0,1,.55-1.32A2,2,0,0,1,101.87,178.07Zm-1.31,6.45h2.81v15.16h-2.81Z"/><path class="cls-2" d="M106.52,184.52h2.8v1.74a3.54,3.54,0,0,1,3.1-2,2.77,2.77,0,0,1,2.64,1.45,7.72,7.72,0,0,1,.44,3.18v10.78h-2.8l0-10.14a4.79,4.79,0,0,0-.36-2.18,1.34,1.34,0,0,0-1.26-.64,1.65,1.65,0,0,0-.81.17,1.28,1.28,0,0,0-.54.54,2.85,2.85,0,0,0-.3,1,10.18,10.18,0,0,0-.09,1.48v9.8h-2.8Z"/><path class="cls-2" d="M124.54,184.52h2.81v15.64a9.43,9.43,0,0,1-.56,3.9q-1,2-4.12,2a4,4,0,0,1-4.36-4.3v-.47H121c0,1.61.6,2.41,1.81,2.41a1.4,1.4,0,0,0,1.33-.61,5,5,0,0,0,.37-2.33v-2.92a2.93,2.93,0,0,1-2.74,2.09,3,3,0,0,1-2.81-1.85,13.86,13.86,0,0,1-.9-5.77,16.4,16.4,0,0,1,.86-6.14,2.91,2.91,0,0,1,2.83-1.89,2.41,2.41,0,0,1,1.52.45,5.24,5.24,0,0,1,1.24,1.62Zm0,7.72c0-3.62-.63-5.44-1.88-5.44-.59,0-1,.41-1.3,1.23A13.55,13.55,0,0,0,121,192a14.85,14.85,0,0,0,.43,4.2c.29.83.78,1.25,1.46,1.25a1.37,1.37,0,0,0,1.33-1.12A14.13,14.13,0,0,0,124.58,192.24Z"/><path class="cls-2" d="M142.58,194.57h2.61c-.21,3.56-1.67,5.35-4.4,5.35a4.47,4.47,0,0,1-2.08-.46,3.69,3.69,0,0,1-1.45-1.41,7.24,7.24,0,0,1-.84-2.41,19.56,19.56,0,0,1-.27-3.49,12.35,12.35,0,0,1,1.12-6,3.75,3.75,0,0,1,3.47-1.93q4.55,0,4.55,8v.35h-6.4c0,3.24.65,4.86,1.93,4.86S142.58,196.53,142.58,194.57Zm-.14-3.94a10.13,10.13,0,0,0-.55-3.14,1.33,1.33,0,0,0-2.46,0,10.54,10.54,0,0,0-.54,3.14Z"/><path class="cls-2" d="M147.78,174.79h2.8v24.89h-2.8Z"/><path class="cls-2" d="M155.08,178.07a1.84,1.84,0,0,1,1.32.56,1.91,1.91,0,0,1,0,2.68,1.91,1.91,0,0,1-2.7,0,1.84,1.84,0,0,1-.54-1.36,1.8,1.8,0,0,1,.55-1.32A2,2,0,0,1,155.08,178.07Zm-1.32,6.45h2.81v15.16h-2.81Z"/><path class="cls-2" d="M160.06,180.27h2.8v4.25h1.52v2.23h-1.52v12.93h-2.8V186.75h-1.54v-2.23h1.54Z"/><path class="cls-2" d="M167.24,196.52l2.43.71-2.9,8-1.54-.43Z"/><path class="cls-2" d="M184.67,184.83v2.62a3.56,3.56,0,0,0-2.16-.76,1.82,1.82,0,0,0-.7.13,1.92,1.92,0,0,0-.56.36,1.47,1.47,0,0,0-.38.54,1.52,1.52,0,0,0-.14.67c0,.72.65,1.58,2,2.57a15.52,15.52,0,0,1,1.32,1.15,5,5,0,0,1,.8,1,4.4,4.4,0,0,1,.57,2.33,4.51,4.51,0,0,1-1.18,3.27,4.17,4.17,0,0,1-3.15,1.22,4.89,4.89,0,0,1-2.46-.72v-2.71a4,4,0,0,0,2.3.91,1.68,1.68,0,0,0,1.92-1.89,2.14,2.14,0,0,0-.35-1.22,3.16,3.16,0,0,0-.52-.58c-.23-.22-.52-.46-.86-.74a11.61,11.61,0,0,1-2.4-2.31,4.26,4.26,0,0,1-.62-2.33,4.15,4.15,0,0,1,1.13-3,4,4,0,0,1,3-1.16A5.2,5.2,0,0,1,184.67,184.83Z"/><path class="cls-2" d="M193.49,194.57h2.6c-.2,3.56-1.67,5.35-4.39,5.35a4.51,4.51,0,0,1-2.09-.46,3.6,3.6,0,0,1-1.44-1.41,7.24,7.24,0,0,1-.84-2.41,18.59,18.59,0,0,1-.28-3.49,12.35,12.35,0,0,1,1.12-6,3.76,3.76,0,0,1,3.47-1.93q4.56,0,4.56,8v.35h-6.41q0,4.86,1.94,4.86C192.9,197.51,193.49,196.53,193.49,194.57Zm-.15-3.94a10.54,10.54,0,0,0-.54-3.14,1.29,1.29,0,0,0-1.23-.83,1.26,1.26,0,0,0-1.23.83,10.13,10.13,0,0,0-.55,3.14Z"/><path class="cls-2" d="M207.34,174.79v24.89h-2.8v-2a5,5,0,0,1-1.2,1.72,2.53,2.53,0,0,1-1.59.47A2.91,2.91,0,0,1,199,198a15.59,15.59,0,0,1-.88-6.06,24.23,24.23,0,0,1,.22-3.44,8.67,8.67,0,0,1,.67-2.39,3.26,3.26,0,0,1,1.15-1.38,3,3,0,0,1,1.67-.45,2.51,2.51,0,0,1,1.52.44,2.76,2.76,0,0,1,.6.59,5,5,0,0,1,.6.93V174.79ZM201,192a15.09,15.09,0,0,0,.4,4.18,1.49,1.49,0,0,0,1.44,1.19c.62,0,1.07-.41,1.36-1.23a19.88,19.88,0,0,0,0-8.13c-.29-.83-.74-1.24-1.36-1.24a1.51,1.51,0,0,0-1.43,1.18A13.33,13.33,0,0,0,201,192Z"/><path class="cls-2" d="M225.39,174.79v24.89h-2.8v-2a5,5,0,0,1-1.2,1.72,2.54,2.54,0,0,1-1.6.47A2.9,2.9,0,0,1,217,198a15.4,15.4,0,0,1-.88-6.06,22.84,22.84,0,0,1,.22-3.44,8.67,8.67,0,0,1,.67-2.39,3.19,3.19,0,0,1,1.15-1.38,3,3,0,0,1,1.67-.45,2.53,2.53,0,0,1,1.52.44,2.76,2.76,0,0,1,.6.59,5,5,0,0,1,.6.93V174.79ZM219.06,192a14.7,14.7,0,0,0,.4,4.18,1.48,1.48,0,0,0,1.43,1.19c.63,0,1.08-.41,1.36-1.23a19.43,19.43,0,0,0,0-8.13c-.28-.83-.73-1.24-1.36-1.24a1.5,1.5,0,0,0-1.42,1.18A13.33,13.33,0,0,0,219.06,192Z"/><path class="cls-2" d="M229.89,178.07a1.84,1.84,0,0,1,1.32.56,1.91,1.91,0,0,1,0,2.68,1.87,1.87,0,0,1-1.35.56A1.88,1.88,0,0,1,228,180a1.8,1.8,0,0,1,.55-1.32A2,2,0,0,1,229.89,178.07Zm-1.32,6.45h2.81v15.16h-2.81Z"/><path class="cls-2" d="M243.19,184.52v15.16h-2.8v-2a5,5,0,0,1-1.2,1.72,2.52,2.52,0,0,1-1.58.47,2.9,2.9,0,0,1-2.77-1.94,15.47,15.47,0,0,1-.88-6.06,14.25,14.25,0,0,1,.88-5.8,2.9,2.9,0,0,1,2.77-1.85,3.13,3.13,0,0,1,2.78,2v-1.71ZM236.86,192a15.2,15.2,0,0,0,.39,4.18,1.5,1.5,0,0,0,1.44,1.19c.63,0,1.08-.41,1.36-1.23a19.43,19.43,0,0,0,0-8.13c-.28-.83-.73-1.24-1.36-1.24a1.5,1.5,0,0,0-1.42,1.18A13.33,13.33,0,0,0,236.86,192Z"/><path class="cls-2" d="M246.37,184.52h2.79v1.87a3.48,3.48,0,0,1,3.08-2.12,2.82,2.82,0,0,1,2.84,2.12,3.46,3.46,0,0,1,3.17-2.12,3.29,3.29,0,0,1,2.43.84,3.34,3.34,0,0,1,.85,2.49v12.08h-2.82v-10a5.34,5.34,0,0,0-.32-2.3,1.2,1.2,0,0,0-1.2-.61,1.49,1.49,0,0,0-1.38.62,5.11,5.11,0,0,0-.35,2.29v10h-2.9v-10a8.93,8.93,0,0,0-.08-1.37,2.4,2.4,0,0,0-.27-.89,1.12,1.12,0,0,0-.5-.49,1.71,1.71,0,0,0-.76-.16,1.51,1.51,0,0,0-1.38.66,4.55,4.55,0,0,0-.41,2.25v10h-2.79Z"/><path class="cls-2" d="M270.9,184.52h2.8v1.74a3.55,3.55,0,0,1,3.11-2,2.74,2.74,0,0,1,2.63,1.45,7.55,7.55,0,0,1,.44,3.18v10.78h-2.8V189.54a4.63,4.63,0,0,0-.37-2.18,1.32,1.32,0,0,0-1.26-.64,1.67,1.67,0,0,0-.81.17,1.2,1.2,0,0,0-.53.54,3.07,3.07,0,0,0-.31,1,10.18,10.18,0,0,0-.09,1.48v9.8h-2.8Z"/><path class="cls-2" d="M292,192.22q0,7.69-4.76,7.7t-4.77-7.81q0-7.85,4.75-7.84a4.58,4.58,0,0,1,2.13.47,3.76,3.76,0,0,1,1.49,1.45,7.57,7.57,0,0,1,.87,2.48A19.12,19.12,0,0,1,292,192.22Zm-2.9-.07a14.92,14.92,0,0,0-.4-4.16,1.46,1.46,0,0,0-1.41-1.19,1.51,1.51,0,0,0-1.42,1.18,21.54,21.54,0,0,0,0,8.16,1.5,1.5,0,0,0,1.42,1.17,1.45,1.45,0,0,0,1.4-1.16A13.12,13.12,0,0,0,289.1,192.15Z"/><path class="cls-2" d="M293,190.77h5.33v2.29H293Z"/><path class="cls-2" d="M83.17,220.52H86v1.74a3.54,3.54,0,0,1,3.1-2,2.77,2.77,0,0,1,2.64,1.45,7.72,7.72,0,0,1,.44,3.18v10.78h-2.8l0-10.14a4.79,4.79,0,0,0-.36-2.18,1.34,1.34,0,0,0-1.26-.64,1.67,1.67,0,0,0-.81.17,1.28,1.28,0,0,0-.54.54,2.85,2.85,0,0,0-.3,1,10.18,10.18,0,0,0-.09,1.48v9.8h-2.8Z"/><path class="cls-2" d="M95.31,220.52h2.8v10.14a4,4,0,0,0,.42,2,1.42,1.42,0,0,0,1.29.6,1.55,1.55,0,0,0,1.34-.52,3.65,3.65,0,0,0,.38-1.94V220.52h2.79v9.07a12.51,12.51,0,0,1-.46,4.24q-1,2.08-4.08,2.09a4.26,4.26,0,0,1-3.45-1.24,6.51,6.51,0,0,1-1-4.14Z"/><path class="cls-2" d="M107.5,220.52h2.8v1.87a3.46,3.46,0,0,1,3.07-2.12,2.81,2.81,0,0,1,2.84,2.12,3.47,3.47,0,0,1,3.17-2.12,3.32,3.32,0,0,1,2.44.84,3.38,3.38,0,0,1,.84,2.49v12.08h-2.81v-10a5.5,5.5,0,0,0-.32-2.3,1.22,1.22,0,0,0-1.21-.61,1.46,1.46,0,0,0-1.37.62,5,5,0,0,0-.35,2.29v10h-2.9v-10a8.79,8.79,0,0,0-.09-1.37,2.4,2.4,0,0,0-.27-.89,1.1,1.1,0,0,0-.49-.49,1.76,1.76,0,0,0-.77-.16,1.48,1.48,0,0,0-1.37.66,4.44,4.44,0,0,0-.41,2.25v10h-2.8Z"/><path class="cls-2" d="M125.82,220.52h2.8v1.87a3.47,3.47,0,0,1,3.08-2.12,2.83,2.83,0,0,1,2.84,2.12,3.46,3.46,0,0,1,3.16-2.12,3.3,3.3,0,0,1,2.44.84,3.38,3.38,0,0,1,.85,2.49v12.08h-2.82v-10a5.34,5.34,0,0,0-.32-2.3,1.2,1.2,0,0,0-1.2-.61,1.49,1.49,0,0,0-1.38.62,5.11,5.11,0,0,0-.35,2.29v10H132v-10a10.42,10.42,0,0,0-.08-1.37,2.4,2.4,0,0,0-.27-.89,1.12,1.12,0,0,0-.5-.49,1.71,1.71,0,0,0-.76-.16,1.5,1.5,0,0,0-1.38.66,4.55,4.55,0,0,0-.41,2.25v10h-2.8Z"/><path class="cls-2" d="M142.6,220.52h3.16L148,231.1l2.6-10.58h2.85l-6.2,21.37H144.3l2.32-7.43Z"/><path class="cls-2" d="M161.33,220.52h2.8v1.74a3.55,3.55,0,0,1,3.11-2,2.75,2.75,0,0,1,2.63,1.45,7.55,7.55,0,0,1,.44,3.18v10.78h-2.8V225.54a4.63,4.63,0,0,0-.37-2.18,1.32,1.32,0,0,0-1.26-.64,1.67,1.67,0,0,0-.81.17,1.2,1.2,0,0,0-.53.54,3.07,3.07,0,0,0-.31,1,10.18,10.18,0,0,0-.09,1.48v9.8h-2.8Z"/><path class="cls-2" d="M174.79,214.07a1.81,1.81,0,0,1,1.32.56,1.9,1.9,0,1,1-3.23,1.32,1.8,1.8,0,0,1,.55-1.32A2,2,0,0,1,174.79,214.07Zm-1.31,6.45h2.81v15.16h-2.81Z"/><path class="cls-2" d="M179.44,210.79h2.8v11.44a5,5,0,0,1,.6-.93,2.76,2.76,0,0,1,.6-.59,2.47,2.47,0,0,1,1.52-.44,3,3,0,0,1,1.67.45,3.26,3.26,0,0,1,1.15,1.38,8.67,8.67,0,0,1,.67,2.39,24.23,24.23,0,0,1,.22,3.44,15.59,15.59,0,0,1-.88,6.06,2.91,2.91,0,0,1-2.76,1.93,2.53,2.53,0,0,1-1.59-.47,5,5,0,0,1-1.2-1.72v2h-2.8Zm6.33,17.39a14.13,14.13,0,0,0-.41-4.19,1.48,1.48,0,0,0-1.43-1.19c-.64,0-1.09.41-1.36,1.21a21.75,21.75,0,0,0,0,8.2c.27.79.72,1.19,1.36,1.19a1.51,1.51,0,0,0,1.43-1.18A13.3,13.3,0,0,0,185.77,228.18Z"/><path class="cls-2" d="M191.27,210.79h2.8v11.47a3.55,3.55,0,0,1,3.11-2,2.74,2.74,0,0,1,2.63,1.45,7.55,7.55,0,0,1,.44,3.18v10.78h-2.79l0-10.14a4.63,4.63,0,0,0-.37-2.18,1.32,1.32,0,0,0-1.26-.64,1.67,1.67,0,0,0-.81.17,1.2,1.2,0,0,0-.53.54,2.85,2.85,0,0,0-.3,1,8.81,8.81,0,0,0-.1,1.48v9.8h-2.8Z"/><rect class="cls-3" x="27" y="12" width="302" height="64" rx="9.07"/><polyline class="cls-3" points="35 97 35 74 68 74"/><text class="cls-4" transform="translate(51.59 53.27)"><tspan class="cls-5">K</tspan><tspan class="cls-6" x="17.43" y="0">y</tspan><tspan x="33.13" y="0">lie Jenner</tspan></text></svg>
