<svg id="Lag_1" data-name="Lag 1" xmlns="http://www.w3.org/2000/svg" viewBox="0 0 286 216.81"><defs><style>.cls-1{fill:#e9eced;stroke:#152230;stroke-miterlimit:10;stroke-width:3px;}</style></defs><title>taleboble_bieber</title><path class="cls-1" d="M10.57,1.5H275.43a9.07,9.07,0,0,1,9.07,9.07V177.43a9.07,9.07,0,0,1-9.07,9.07H231.7v27.75L182.07,186.5H10.57a9.07,9.07,0,0,1-9.07-9.07V10.57A9.07,9.07,0,0,1,10.57,1.5Z"/><path d="M34.09,48.84V42.52a3,3,0,0,0,2.44,1.34c1.25,0,1.88-.93,1.88-2.81V26.56h6.11V42.27a11.51,11.51,0,0,1-.36,3.2A5.52,5.52,0,0,1,43,47.66a6.17,6.17,0,0,1-4.91,1.92A13.18,13.18,0,0,1,34.09,48.84Z"/><path d="M47.46,33.35h5.87v8.92a5.22,5.22,0,0,0,.25,1.86,1,1,0,0,0,1,.48,1,1,0,0,0,1-.48,4.55,4.55,0,0,0,.26-1.86V33.35h5.87v9.71a9.36,9.36,0,0,1-.15,1.75,5.28,5.28,0,0,1-.48,1.42,5,5,0,0,1-.85,1.16,6.13,6.13,0,0,1-1.24,1,8.47,8.47,0,0,1-4.38,1.14,8.36,8.36,0,0,1-4.38-1.14,6,6,0,0,1-1.25-1,4.56,4.56,0,0,1-.85-1.16,5.74,5.74,0,0,1-.49-1.43,9.36,9.36,0,0,1-.15-1.75Z"/><path d="M63.84,47.88,66,43.48a4.32,4.32,0,0,0,2.94,1.66c.76,0,1.14-.28,1.14-.82s-.51-.89-1.54-1.26q-4.14-1.47-4.14-4.65a4.8,4.8,0,0,1,1.84-3.86A7,7,0,0,1,70.87,33a10,10,0,0,1,4.71,1.29l-2,4.29a4.09,4.09,0,0,0-2.42-1.39c-.61,0-.92.25-.92.75s.58,1,1.76,1.5a7.3,7.3,0,0,1,3,1.84A3.91,3.91,0,0,1,75.82,44a5.07,5.07,0,0,1-1.77,4,6.64,6.64,0,0,1-4.56,1.55,10.87,10.87,0,0,1-2.65-.33,8.14,8.14,0,0,1-1.35-.5C65,48.46,64.45,48.19,63.84,47.88Z"/><path d="M84.71,49.18H78.82V38.08H77.15V33.35h1.67V28.69h5.89v4.66h2v4.73h-2Z"/><path d="M94.61,28.44a3.24,3.24,0,0,1-1,2.4,3.4,3.4,0,0,1-2.41,1,3.35,3.35,0,0,1-2.44-1,3.44,3.44,0,0,1-1-2.44,3.29,3.29,0,0,1,1-2.41,3.38,3.38,0,0,1,2.42-1,3.41,3.41,0,0,1,3.44,3.46Zm-.49,20.74H88.23V33.35h5.89Z"/><path d="M110.77,49.18H104.9V40.8a3.59,3.59,0,0,0-.22-1.51.75.75,0,0,0-.74-.42c-.82,0-1.23.77-1.23,2.33v8H96.84V33.35h5.87q0,.59,0,1.08c0,.33,0,.64,0,.92l-.06,1Q104,33,106.74,33a3.46,3.46,0,0,1,3,1.42,6.48,6.48,0,0,1,1.07,4Z"/><path d="M122.72,49.18V26.56h7.11q4,0,5.9,1.76a6.06,6.06,0,0,1,2,4.66q0,4.25-4.22,4.6A5.68,5.68,0,0,1,137,39.16a5.07,5.07,0,0,1,1.12,3.55,6.11,6.11,0,0,1-1.89,4.68,6.85,6.85,0,0,1-4.93,1.79Zm6.11-13.83h.41a2.73,2.73,0,0,0,1.74-.51,1.75,1.75,0,0,0,.64-1.44c0-1.3-.72-2-2.16-2h-.25l-.38,0Zm0,8.92.31,0h.22a2.65,2.65,0,0,0,1.82-.6,2,2,0,0,0,.68-1.61,1.93,1.93,0,0,0-.68-1.58,2.79,2.79,0,0,0-1.86-.57h-.49Z"/><path d="M146.86,28.44a3.24,3.24,0,0,1-1,2.4,3.4,3.4,0,0,1-2.41,1,3.35,3.35,0,0,1-2.44-1,3.44,3.44,0,0,1-1-2.44A3.29,3.29,0,0,1,141,26a3.38,3.38,0,0,1,2.42-1,3.41,3.41,0,0,1,3.44,3.46Zm-.49,20.74h-5.89V33.35h5.89Z"/><path d="M157.19,43.82l5.74.12a7,7,0,0,1-2.39,4.16,7.28,7.28,0,0,1-4.65,1.4,6.84,6.84,0,0,1-5.33-2.11,8.41,8.41,0,0,1-1.92-5.84,9,9,0,0,1,2.06-6.14A6.74,6.74,0,0,1,156,33a6.45,6.45,0,0,1,5.19,2.3,9.27,9.27,0,0,1,1.93,6.14l0,1h-8.61q.11,2.43,1.38,2.43A1.29,1.29,0,0,0,157.19,43.82Zm.13-4.48a3,3,0,0,0-.1-.81,2.27,2.27,0,0,0-.28-.63,1.75,1.75,0,0,0-.44-.42,1,1,0,0,0-.54-.15,1.18,1.18,0,0,0-1,.56,2.58,2.58,0,0,0-.38,1.45Z"/><path d="M171.43,49.18h-6V24.44h5.88v8.67q0,1.1-.09,2.52a6.44,6.44,0,0,1,1.63-2A3.66,3.66,0,0,1,175,33a4.13,4.13,0,0,1,3.73,2.21,12.22,12.22,0,0,1,1.31,6.2,10.93,10.93,0,0,1-1.36,5.94,4.19,4.19,0,0,1-3.73,2.14,3.53,3.53,0,0,1-2-.52,5.45,5.45,0,0,1-.81-.75,7.39,7.39,0,0,1-.84-1.17c0,.18,0,.34,0,.47s0,.24,0,.33Zm2.5-7.89c0-2.27-.49-3.4-1.49-3.4s-1.32,1.07-1.32,3.2.46,3.36,1.36,3.36S173.93,43.39,173.93,41.29Z"/><path d="M190.37,43.82l5.74.12a7,7,0,0,1-2.39,4.16,7.28,7.28,0,0,1-4.65,1.4,6.87,6.87,0,0,1-5.34-2.11,8.45,8.45,0,0,1-1.91-5.84,9,9,0,0,1,2.06-6.14A6.74,6.74,0,0,1,189.21,33a6.45,6.45,0,0,1,5.19,2.3,9.27,9.27,0,0,1,1.93,6.14l0,1h-8.61q.1,2.43,1.38,2.43A1.29,1.29,0,0,0,190.37,43.82Zm.13-4.48a3,3,0,0,0-.1-.81,2,2,0,0,0-.29-.63,1.56,1.56,0,0,0-.43-.42,1,1,0,0,0-.54-.15,1.18,1.18,0,0,0-1,.56,2.58,2.58,0,0,0-.38,1.45Z"/><path d="M204.48,49.18H198.6V33.35h5.88l-.31,3.09Q205.51,33,208.58,33v6.6a3.64,3.64,0,0,0-1.64-.53,2.16,2.16,0,0,0-1.83.86,4.16,4.16,0,0,0-.63,2.49Z"/><path d="M217.34,36.5a3.17,3.17,0,0,1-1,2.35,3.27,3.27,0,0,1-2.41,1,3.41,3.41,0,1,1,0-6.82,3.45,3.45,0,0,1,3.47,3.49Zm0,9.66a3.18,3.18,0,0,1-1,2.36,3.27,3.27,0,0,1-2.41,1,3.42,3.42,0,0,1-2.44-1,3.32,3.32,0,0,1-1-2.45,3.4,3.4,0,0,1,3.4-3.4,3.32,3.32,0,0,1,2.46,1A3.37,3.37,0,0,1,217.34,46.16Z"/><path d="M35.83,62.56h3.05v20h5v2.58h-8Z"/><path d="M54.55,77.72q0,7.69-4.76,7.7T45,77.61q0-7.85,4.74-7.84a4.66,4.66,0,0,1,2.14.47,3.74,3.74,0,0,1,1.48,1.45,7.57,7.57,0,0,1,.87,2.48A18.3,18.3,0,0,1,54.55,77.72Zm-2.9-.07a14.54,14.54,0,0,0-.4-4.16,1.45,1.45,0,0,0-1.4-1.19,1.49,1.49,0,0,0-1.42,1.18,14.12,14.12,0,0,0-.4,4.08,14.08,14.08,0,0,0,.4,4.08,1.48,1.48,0,0,0,1.42,1.17,1.44,1.44,0,0,0,1.39-1.16A13.12,13.12,0,0,0,51.65,77.65Z"/><path d="M57.16,70H60v1.89a5.35,5.35,0,0,1,1.42-1.69,3.62,3.62,0,0,1,1.86-.55V72.6a3.5,3.5,0,0,0-.5,0,2.66,2.66,0,0,0-2.16.78A4.36,4.36,0,0,0,60,76v9.18h-2.8Z"/><path d="M71.12,80.07h2.6c-.2,3.56-1.67,5.35-4.39,5.35A4.51,4.51,0,0,1,67.24,85a3.6,3.6,0,0,1-1.44-1.41A7.24,7.24,0,0,1,65,81.14a19.56,19.56,0,0,1-.27-3.49,12.23,12.23,0,0,1,1.12-6,3.73,3.73,0,0,1,3.46-1.93q4.56,0,4.56,8v.35h-6.4q0,4.86,1.93,4.86C70.53,83,71.12,82,71.12,80.07ZM71,76.13A10.54,10.54,0,0,0,70.43,73a1.29,1.29,0,0,0-1.23-.83A1.26,1.26,0,0,0,68,73a9.91,9.91,0,0,0-.54,3.14Z"/><path d="M76.32,70h2.8v1.87a3.46,3.46,0,0,1,3.07-2.12A2.81,2.81,0,0,1,85,71.89a3.47,3.47,0,0,1,3.17-2.12,3.33,3.33,0,0,1,2.44.84,3.38,3.38,0,0,1,.84,2.49V85.18H88.67v-10a5.29,5.29,0,0,0-.33-2.3,1.2,1.2,0,0,0-1.2-.61,1.46,1.46,0,0,0-1.37.62,4.93,4.93,0,0,0-.36,2.29v10h-2.9v-10a8.93,8.93,0,0,0-.08-1.37,2.4,2.4,0,0,0-.27-.89,1.08,1.08,0,0,0-.5-.49,1.68,1.68,0,0,0-.76-.16,1.48,1.48,0,0,0-1.37.66,4.44,4.44,0,0,0-.41,2.25v10h-2.8Z"/><path d="M102.17,63.57a1.81,1.81,0,0,1,1.32.56,1.9,1.9,0,0,1-1.35,3.24,1.87,1.87,0,0,1-1.35-.56,1.84,1.84,0,0,1-.54-1.36,1.81,1.81,0,0,1,.56-1.32A2,2,0,0,1,102.17,63.57ZM100.85,70h2.82V85.18h-2.82Z"/><path d="M106.82,91.39V70h2.79v2a4.86,4.86,0,0,1,1.2-1.73,2.56,2.56,0,0,1,1.62-.48,2.87,2.87,0,0,1,2.74,1.94,15.79,15.79,0,0,1,.87,6.07,13.75,13.75,0,0,1-.89,5.82,3,3,0,0,1-2.83,1.82,2.61,2.61,0,0,1-1.53-.43,2.53,2.53,0,0,1-.59-.59,6.69,6.69,0,0,1-.59-.92v7.91Zm6.32-13.71a13.79,13.79,0,0,0-.41-4.19,1.46,1.46,0,0,0-1.42-1.19c-.64,0-1.1.41-1.37,1.24a13.43,13.43,0,0,0-.41,4.07,13.47,13.47,0,0,0,.41,4.07c.28.81.74,1.22,1.37,1.22a1.49,1.49,0,0,0,1.42-1.18A13,13,0,0,0,113.14,77.68Z"/><path d="M124.51,70.33V73a3.53,3.53,0,0,0-2.15-.76,1.83,1.83,0,0,0-.71.13,1.92,1.92,0,0,0-.56.36,1.6,1.6,0,0,0-.38.54,1.67,1.67,0,0,0-.14.67c0,.72.65,1.58,2,2.57a15.52,15.52,0,0,1,1.32,1.15,5.52,5.52,0,0,1,.81,1,4.4,4.4,0,0,1,.57,2.33A4.52,4.52,0,0,1,124,84.2a4.17,4.17,0,0,1-3.15,1.22,4.89,4.89,0,0,1-2.46-.72V82a4,4,0,0,0,2.3.91A1.68,1.68,0,0,0,122.65,81a2.14,2.14,0,0,0-.35-1.22,3.45,3.45,0,0,0-.51-.58c-.24-.22-.53-.46-.87-.74a11.61,11.61,0,0,1-2.4-2.31,4.26,4.26,0,0,1-.62-2.33,4.15,4.15,0,0,1,1.13-3,4,4,0,0,1,3-1.16A5.17,5.17,0,0,1,124.51,70.33Z"/><path d="M127.47,70h2.8V80.16a4.13,4.13,0,0,0,.41,2,1.44,1.44,0,0,0,1.3.6,1.52,1.52,0,0,0,1.33-.52,3.54,3.54,0,0,0,.39-1.94V70h2.79v9.07a12.17,12.17,0,0,1-.47,4.24q-1,2.08-4.07,2.09a4.26,4.26,0,0,1-3.45-1.24,6.51,6.51,0,0,1-1-4.14Z"/><path d="M139.66,70h2.8v1.87a3.46,3.46,0,0,1,3.07-2.12,2.81,2.81,0,0,1,2.84,2.12,3.47,3.47,0,0,1,3.17-2.12,3.33,3.33,0,0,1,2.44.84,3.38,3.38,0,0,1,.84,2.49V85.18H152v-10a5.29,5.29,0,0,0-.33-2.3,1.2,1.2,0,0,0-1.2-.61,1.46,1.46,0,0,0-1.37.62,4.93,4.93,0,0,0-.36,2.29v10h-2.9v-10a8.93,8.93,0,0,0-.08-1.37,2.4,2.4,0,0,0-.27-.89,1.08,1.08,0,0,0-.5-.49,1.71,1.71,0,0,0-.76-.16,1.48,1.48,0,0,0-1.37.66,4.44,4.44,0,0,0-.41,2.25v10h-2.8Z"/><path d="M172.85,60.29V85.18h-2.8v-2a5,5,0,0,1-1.2,1.72,2.54,2.54,0,0,1-1.6.47,2.9,2.9,0,0,1-2.75-1.93,15.59,15.59,0,0,1-.88-6.06,24.23,24.23,0,0,1,.22-3.44,8.67,8.67,0,0,1,.67-2.39,3.26,3.26,0,0,1,1.15-1.38,3,3,0,0,1,1.67-.45,2.53,2.53,0,0,1,1.52.44,2.76,2.76,0,0,1,.6.59,5,5,0,0,1,.6.93V60.29Zm-6.33,17.24a14.7,14.7,0,0,0,.4,4.18,1.48,1.48,0,0,0,1.43,1.19c.63,0,1.08-.41,1.37-1.23a14.46,14.46,0,0,0,.42-4.06,14.4,14.4,0,0,0-.42-4.07c-.29-.83-.74-1.24-1.37-1.24a1.51,1.51,0,0,0-1.42,1.18A13.33,13.33,0,0,0,166.52,77.53Z"/><path d="M185,77.72q0,7.69-4.76,7.7t-4.76-7.81q0-7.85,4.74-7.84a4.66,4.66,0,0,1,2.14.47,3.74,3.74,0,0,1,1.48,1.45,7.57,7.57,0,0,1,.87,2.48A19.12,19.12,0,0,1,185,77.72Zm-2.9-.07a14.54,14.54,0,0,0-.4-4.16,1.45,1.45,0,0,0-1.4-1.19,1.49,1.49,0,0,0-1.42,1.18,14.12,14.12,0,0,0-.4,4.08,14.08,14.08,0,0,0,.4,4.08,1.48,1.48,0,0,0,1.42,1.17,1.44,1.44,0,0,0,1.39-1.16A13.12,13.12,0,0,0,182.08,77.65Z"/><path d="M187.59,60.29h2.79V85.18h-2.79Z"/><path d="M202.51,77.72q0,7.69-4.76,7.7T193,77.61q0-7.85,4.75-7.84a4.58,4.58,0,0,1,2.13.47,3.76,3.76,0,0,1,1.49,1.45,7.57,7.57,0,0,1,.87,2.48A19.2,19.2,0,0,1,202.51,77.72Zm-2.9-.07a15,15,0,0,0-.39-4.16c-.27-.79-.73-1.19-1.41-1.19a1.5,1.5,0,0,0-1.42,1.18,14.59,14.59,0,0,0-.39,4.08,14.55,14.55,0,0,0,.39,4.08,1.49,1.49,0,0,0,1.42,1.17,1.43,1.43,0,0,0,1.39-1.16A12.8,12.8,0,0,0,199.61,77.65Z"/><path d="M205.12,70h2.8v1.89a5.48,5.48,0,0,1,1.42-1.69,3.69,3.69,0,0,1,1.86-.55V72.6a3.5,3.5,0,0,0-.5,0,2.65,2.65,0,0,0-2.15.78,4.28,4.28,0,0,0-.63,2.67v9.18h-2.8Z"/><path d="M225.2,70.33V73a3.53,3.53,0,0,0-2.15-.76,1.78,1.78,0,0,0-.7.13,1.85,1.85,0,0,0-.57.36,1.75,1.75,0,0,0-.38.54,1.67,1.67,0,0,0-.14.67c0,.72.66,1.58,2,2.57a16.93,16.93,0,0,1,1.31,1.15,4.77,4.77,0,0,1,.81,1,4.4,4.4,0,0,1,.57,2.33,4.51,4.51,0,0,1-1.18,3.27,4.2,4.2,0,0,1-3.15,1.22,4.89,4.89,0,0,1-2.46-.72V82a3.93,3.93,0,0,0,2.29.91A1.68,1.68,0,0,0,223.34,81a2.06,2.06,0,0,0-.35-1.22,3.45,3.45,0,0,0-.51-.58c-.23-.22-.52-.46-.86-.74a11.46,11.46,0,0,1-2.41-2.31,4.26,4.26,0,0,1-.61-2.33,4.11,4.11,0,0,1,1.13-3,4,4,0,0,1,3-1.16A5.17,5.17,0,0,1,225.2,70.33Z"/><path d="M229.48,63.57a1.81,1.81,0,0,1,1.32.56,1.9,1.9,0,0,1-1.35,3.24,1.86,1.86,0,0,1-1.35-.56,1.84,1.84,0,0,1-.54-1.36,1.81,1.81,0,0,1,.56-1.32A2,2,0,0,1,229.48,63.57ZM228.16,70H231V85.18h-2.82Z"/><path d="M234.46,65.77h2.8V70h1.52v2.23h-1.52V85.18h-2.8V72.25h-1.54V70h1.54Z"/><path d="M44.33,106v15.16h-2.8v-2a5,5,0,0,1-1.2,1.72,2.53,2.53,0,0,1-1.59.47A2.89,2.89,0,0,1,36,119.48a15.47,15.47,0,0,1-.88-6.06,14.25,14.25,0,0,1,.88-5.8,2.89,2.89,0,0,1,2.76-1.85,3.14,3.14,0,0,1,2.79,2V106ZM38,113.53a15.2,15.2,0,0,0,.39,4.18,1.49,1.49,0,0,0,1.44,1.19c.62,0,1.08-.41,1.36-1.23a19.43,19.43,0,0,0,0-8.13c-.28-.83-.74-1.24-1.36-1.24a1.49,1.49,0,0,0-1.42,1.18A13,13,0,0,0,38,113.53Z"/><path d="M47.5,106h2.8v1.87a3.47,3.47,0,0,1,3.08-2.12,2.83,2.83,0,0,1,2.84,2.12,3.46,3.46,0,0,1,3.16-2.12,3.3,3.3,0,0,1,2.44.84,3.38,3.38,0,0,1,.85,2.49v12.08H59.85v-10a5.34,5.34,0,0,0-.32-2.3,1.21,1.21,0,0,0-1.2-.61,1.49,1.49,0,0,0-1.38.62,5.11,5.11,0,0,0-.35,2.29v10H53.7v-10a10.42,10.42,0,0,0-.08-1.37,2.4,2.4,0,0,0-.27-.89,1.12,1.12,0,0,0-.5-.49,1.71,1.71,0,0,0-.76-.16,1.5,1.5,0,0,0-1.38.66,4.55,4.55,0,0,0-.41,2.25v10H47.5Z"/><path d="M71.69,116.07H74.3c-.21,3.56-1.67,5.35-4.4,5.35a4.51,4.51,0,0,1-2.09-.46,3.6,3.6,0,0,1-1.44-1.41,7.24,7.24,0,0,1-.84-2.41,19.56,19.56,0,0,1-.27-3.49,12.23,12.23,0,0,1,1.12-6,3.74,3.74,0,0,1,3.46-1.93q4.56,0,4.56,8v.35H68Q68,119,69.93,119C71.1,119,71.69,118,71.69,116.07Zm-.15-3.94A10.54,10.54,0,0,0,71,109a1.27,1.27,0,0,0-1.23-.83,1.26,1.26,0,0,0-1.23.83,9.91,9.91,0,0,0-.54,3.14Z"/><path d="M77.23,101.77H80V106h1.53v2.23H80v12.93H77.23V108.25H75.69V106h1.54Z"/><path d="M84.4,118l2.43.71-2.9,8-1.53-.43Z"/><path d="M102.17,106.31v2.86a1.76,1.76,0,0,0-1.4-.72q-2.33,0-2.32,5,0,5.33,2.3,5.32a2.48,2.48,0,0,0,1.42-.57v2.62a4.79,4.79,0,0,1-2.25.59q-4.52,0-4.52-7.68a12.57,12.57,0,0,1,1.12-6,3.71,3.71,0,0,1,3.45-1.94A4.8,4.8,0,0,1,102.17,106.31Z"/><path d="M113.5,113.72q0,7.69-4.77,7.7T104,113.61q0-7.85,4.75-7.84a4.58,4.58,0,0,1,2.13.47,3.76,3.76,0,0,1,1.49,1.45,7.57,7.57,0,0,1,.87,2.48A19.12,19.12,0,0,1,113.5,113.72Zm-2.91-.07a15,15,0,0,0-.39-4.16,1.46,1.46,0,0,0-1.41-1.19,1.51,1.51,0,0,0-1.42,1.18,14.59,14.59,0,0,0-.39,4.08,14.55,14.55,0,0,0,.39,4.08,1.5,1.5,0,0,0,1.42,1.17,1.43,1.43,0,0,0,1.39-1.16A12.8,12.8,0,0,0,110.59,113.65Z"/><path d="M116.1,106h2.8v1.74a3.55,3.55,0,0,1,3.11-2,2.74,2.74,0,0,1,2.63,1.45,7.55,7.55,0,0,1,.44,3.18v10.78h-2.8V111a4.63,4.63,0,0,0-.37-2.18,1.32,1.32,0,0,0-1.26-.64,1.67,1.67,0,0,0-.81.17,1.2,1.2,0,0,0-.53.54,2.85,2.85,0,0,0-.3,1,8.81,8.81,0,0,0-.1,1.48v9.8h-2.8Z"/><path d="M134.11,106.33V109a3.58,3.58,0,0,0-2.16-.76,1.79,1.79,0,0,0-1.26.49,1.63,1.63,0,0,0-.39.54,1.67,1.67,0,0,0-.13.67c0,.72.65,1.58,2,2.57a17.26,17.26,0,0,1,1.32,1.15,5,5,0,0,1,.8,1,4.4,4.4,0,0,1,.57,2.33,4.51,4.51,0,0,1-1.18,3.27,4.17,4.17,0,0,1-3.15,1.22,4.89,4.89,0,0,1-2.46-.72V118a3.93,3.93,0,0,0,2.3.91,1.68,1.68,0,0,0,1.92-1.89,2.07,2.07,0,0,0-.36-1.22,2.73,2.73,0,0,0-.51-.58c-.23-.22-.52-.46-.86-.74a11.46,11.46,0,0,1-2.41-2.31,4.26,4.26,0,0,1-.61-2.33,4.15,4.15,0,0,1,1.13-3,4,4,0,0,1,3-1.16A5.23,5.23,0,0,1,134.11,106.33Z"/><path d="M142.92,116.07h2.61c-.2,3.56-1.67,5.35-4.39,5.35a4.51,4.51,0,0,1-2.09-.46,3.6,3.6,0,0,1-1.44-1.41,7.23,7.23,0,0,1-.85-2.41,19.56,19.56,0,0,1-.27-3.49,12.35,12.35,0,0,1,1.12-6,3.76,3.76,0,0,1,3.47-1.93q4.56,0,4.55,8v.35h-6.4q0,4.86,1.94,4.86C142.34,119,142.92,118,142.92,116.07Zm-.14-3.94a10.54,10.54,0,0,0-.54-3.14,1.3,1.3,0,0,0-1.24-.83,1.27,1.27,0,0,0-1.23.83,10.54,10.54,0,0,0-.54,3.14Z"/><path d="M154.32,106.31v2.86a1.76,1.76,0,0,0-1.41-.72q-2.31,0-2.31,5,0,5.33,2.3,5.32a2.48,2.48,0,0,0,1.42-.57v2.62a4.79,4.79,0,0,1-2.26.59q-4.5,0-4.51-7.68a12.45,12.45,0,0,1,1.12-6,3.71,3.71,0,0,1,3.45-1.94A4.8,4.8,0,0,1,154.32,106.31Z"/><path d="M157,101.77h2.8V106h1.52v2.23h-1.52v12.93H157V108.25h-1.54V106H157Z"/><path d="M169.19,116.07h2.61c-.21,3.56-1.67,5.35-4.4,5.35a4.51,4.51,0,0,1-2.09-.46,3.6,3.6,0,0,1-1.44-1.41,7.24,7.24,0,0,1-.84-2.41,19.56,19.56,0,0,1-.27-3.49,12.23,12.23,0,0,1,1.12-6,3.74,3.74,0,0,1,3.46-1.93q4.56,0,4.56,8v.35h-6.4q0,4.86,1.93,4.86C168.6,119,169.19,118,169.19,116.07Zm-.15-3.94a10.54,10.54,0,0,0-.54-3.14,1.27,1.27,0,0,0-1.23-.83A1.26,1.26,0,0,0,166,109a9.91,9.91,0,0,0-.54,3.14Z"/><path d="M174.73,101.77h2.79V106h1.53v2.23h-1.53v12.93h-2.79V108.25h-1.54V106h1.54Z"/><path d="M181.05,106h2.8v10.14a4,4,0,0,0,.42,2,1.43,1.43,0,0,0,1.3.6,1.54,1.54,0,0,0,1.33-.52,3.65,3.65,0,0,0,.38-1.94V106h2.8v9.07a12.43,12.43,0,0,1-.47,4.24c-.66,1.39-2,2.09-4.07,2.09a4.28,4.28,0,0,1-3.46-1.24,6.57,6.57,0,0,1-1-4.14Z"/><path d="M199.1,116.07h2.61c-.21,3.56-1.67,5.35-4.4,5.35a4.47,4.47,0,0,1-2.08-.46,3.56,3.56,0,0,1-1.45-1.41,7.24,7.24,0,0,1-.84-2.41,19.56,19.56,0,0,1-.27-3.49,12.23,12.23,0,0,1,1.12-6,3.74,3.74,0,0,1,3.46-1.93q4.56,0,4.56,8v.35h-6.4q0,4.86,1.93,4.86C198.51,119,199.1,118,199.1,116.07Zm-.15-3.94a9.91,9.91,0,0,0-.54-3.14,1.33,1.33,0,0,0-2.46,0,10.54,10.54,0,0,0-.54,3.14Z"/><path d="M204.3,106h2.8v1.89a5.48,5.48,0,0,1,1.42-1.69,3.69,3.69,0,0,1,1.86-.55v2.93a3.5,3.5,0,0,0-.5,0,2.65,2.65,0,0,0-2.15.78,4.28,4.28,0,0,0-.63,2.67v9.18h-2.8Z"/><path d="M227.18,106v15.16h-2.8v-2a5,5,0,0,1-1.2,1.72,2.52,2.52,0,0,1-1.58.47,2.91,2.91,0,0,1-2.77-1.94,15.66,15.66,0,0,1-.88-6.06,14.43,14.43,0,0,1,.88-5.8,2.91,2.91,0,0,1,2.77-1.85,3.13,3.13,0,0,1,2.78,2V106Zm-6.33,7.51a15.09,15.09,0,0,0,.4,4.18,1.48,1.48,0,0,0,1.43,1.19c.63,0,1.08-.41,1.37-1.23a19.88,19.88,0,0,0,0-8.13c-.29-.83-.74-1.24-1.37-1.24a1.51,1.51,0,0,0-1.42,1.18A13.33,13.33,0,0,0,220.85,113.53Z"/><path d="M239,96.29v24.89h-2.8v-2A5,5,0,0,1,235,121a2.54,2.54,0,0,1-1.6.47,2.89,2.89,0,0,1-2.75-1.93,15.4,15.4,0,0,1-.88-6.06A22.84,22.84,0,0,1,230,110a9.06,9.06,0,0,1,.66-2.39,3.28,3.28,0,0,1,1.16-1.38,3,3,0,0,1,1.67-.45,2.53,2.53,0,0,1,1.52.44,3.29,3.29,0,0,1,.6.59,6.26,6.26,0,0,1,.6.93V96.29Zm-6.33,17.24a15.2,15.2,0,0,0,.39,4.18,1.5,1.5,0,0,0,1.44,1.19c.63,0,1.08-.41,1.36-1.23a14,14,0,0,0,.43-4.06,14,14,0,0,0-.43-4.07c-.28-.83-.73-1.24-1.36-1.24a1.5,1.5,0,0,0-1.42,1.18A13.33,13.33,0,0,0,232.69,113.53Z"/><path d="M243.51,99.57a1.81,1.81,0,0,1,1.32.56,1.9,1.9,0,1,1-3.23,1.32,1.8,1.8,0,0,1,.55-1.32A2,2,0,0,1,243.51,99.57ZM242.2,106H245v15.16H242.2Z"/><path d="M248.16,127.39V106H251v2a4.86,4.86,0,0,1,1.2-1.73,2.53,2.53,0,0,1,1.61-.48,2.9,2.9,0,0,1,2.75,1.94,15.79,15.79,0,0,1,.87,6.07,13.72,13.72,0,0,1-.9,5.82,2.94,2.94,0,0,1-2.82,1.82,2.62,2.62,0,0,1-1.54-.43,2.74,2.74,0,0,1-.59-.59,6.7,6.7,0,0,1-.58-.92v7.91Zm6.33-13.71a14.13,14.13,0,0,0-.41-4.19,1.47,1.47,0,0,0-1.42-1.19c-.65,0-1.11.41-1.38,1.24a13.43,13.43,0,0,0-.41,4.07,13.47,13.47,0,0,0,.41,4.07c.28.81.74,1.22,1.38,1.22a1.51,1.51,0,0,0,1.42-1.18A13.3,13.3,0,0,0,254.49,113.68Z"/><path d="M261.31,99.57a1.81,1.81,0,0,1,1.32.56,1.9,1.9,0,1,1-2.69,2.68,1.89,1.89,0,0,1,0-2.68A2,2,0,0,1,261.31,99.57ZM260,106h2.82v15.16H260Z"/><path d="M264.37,112.27h5.34v2.29h-5.34Z"/><path d="M41.53,142.33V145a3.56,3.56,0,0,0-2.16-.76,1.82,1.82,0,0,0-.7.13,1.92,1.92,0,0,0-.56.36,1.6,1.6,0,0,0-.38.54,1.52,1.52,0,0,0-.14.67c0,.72.65,1.58,2,2.57a15.52,15.52,0,0,1,1.32,1.15,5,5,0,0,1,.8,1,4.4,4.4,0,0,1,.58,2.33,4.52,4.52,0,0,1-1.19,3.27,4.17,4.17,0,0,1-3.15,1.22,4.89,4.89,0,0,1-2.46-.72V154a4,4,0,0,0,2.3.91A1.68,1.68,0,0,0,39.67,153a2.14,2.14,0,0,0-.35-1.22,3.16,3.16,0,0,0-.52-.58c-.23-.22-.52-.46-.86-.74a11.61,11.61,0,0,1-2.4-2.31,4.26,4.26,0,0,1-.62-2.33,4.15,4.15,0,0,1,1.13-3,4,4,0,0,1,3-1.16A5.2,5.2,0,0,1,41.53,142.33Z"/><path d="M50.68,142.31v2.86a1.76,1.76,0,0,0-1.4-.72q-2.33,0-2.32,5,0,5.32,2.3,5.32a2.45,2.45,0,0,0,1.42-.57v2.62a4.79,4.79,0,0,1-2.25.59q-4.51,0-4.51-7.68a12.59,12.59,0,0,1,1.11-6,3.71,3.71,0,0,1,3.46-1.94A4.79,4.79,0,0,1,50.68,142.31Z"/><path d="M54.37,135.57a1.81,1.81,0,0,1,1.32.56,1.9,1.9,0,1,1-3.23,1.32,1.8,1.8,0,0,1,.55-1.32A2,2,0,0,1,54.37,135.57ZM53.06,142h2.81v15.16H53.06Z"/><path d="M59,142h2.8v1.74a3.54,3.54,0,0,1,3.1-2,2.77,2.77,0,0,1,2.64,1.45A7.72,7.72,0,0,1,68,146.4v10.78H65.2l0-10.14a4.79,4.79,0,0,0-.36-2.18,1.34,1.34,0,0,0-1.26-.64,1.65,1.65,0,0,0-.81.17,1.28,1.28,0,0,0-.54.54,2.85,2.85,0,0,0-.3,1,10.18,10.18,0,0,0-.09,1.48v9.8H59Z"/><path d="M77,142h2.81v15.64a9.43,9.43,0,0,1-.56,3.9q-1,2-4.12,2a4,4,0,0,1-4.36-4.3v-.47h2.71c0,1.61.6,2.41,1.81,2.41a1.4,1.4,0,0,0,1.33-.61,5,5,0,0,0,.37-2.33v-2.92a2.93,2.93,0,0,1-2.74,2.09,3,3,0,0,1-2.81-1.85,13.86,13.86,0,0,1-.9-5.77,16.4,16.4,0,0,1,.86-6.14,2.91,2.91,0,0,1,2.83-1.89,2.41,2.41,0,0,1,1.52.45A5.24,5.24,0,0,1,77,143.84Zm0,7.72c0-3.62-.63-5.44-1.88-5.44-.59,0-1,.41-1.3,1.23a13.55,13.55,0,0,0-.41,3.92,14.85,14.85,0,0,0,.43,4.2c.29.83.78,1.25,1.46,1.25a1.37,1.37,0,0,0,1.33-1.12A14.13,14.13,0,0,0,77.08,149.74Z"/><path d="M95.08,152.07h2.61c-.21,3.56-1.67,5.35-4.4,5.35a4.47,4.47,0,0,1-2.08-.46,3.69,3.69,0,0,1-1.45-1.41,7.24,7.24,0,0,1-.84-2.41,19.56,19.56,0,0,1-.27-3.49,12.35,12.35,0,0,1,1.12-6,3.75,3.75,0,0,1,3.47-1.93q4.55,0,4.55,8v.35h-6.4c0,3.24.65,4.86,1.93,4.86S95.08,154,95.08,152.07Zm-.14-3.94a10.13,10.13,0,0,0-.55-3.14,1.33,1.33,0,0,0-2.46,0,10.54,10.54,0,0,0-.54,3.14Z"/><path d="M100.28,132.29h2.8v24.89h-2.8Z"/><path d="M107.58,135.57a1.84,1.84,0,0,1,1.32.56,1.91,1.91,0,0,1,0,2.68,1.91,1.91,0,0,1-2.7,0,1.84,1.84,0,0,1-.54-1.36,1.8,1.8,0,0,1,.55-1.32A2,2,0,0,1,107.58,135.57ZM106.26,142h2.81v15.16h-2.81Z"/><path d="M112.56,137.77h2.8V142h1.52v2.23h-1.52v12.93h-2.8V144.25H111V142h1.54Z"/><path d="M119.74,154l2.43.71-2.9,8-1.54-.43Z"/><path d="M137.17,142.33V145a3.56,3.56,0,0,0-2.16-.76,1.82,1.82,0,0,0-.7.13,1.92,1.92,0,0,0-.56.36,1.47,1.47,0,0,0-.38.54,1.52,1.52,0,0,0-.14.67c0,.72.65,1.58,2,2.57a15.52,15.52,0,0,1,1.32,1.15,5,5,0,0,1,.8,1,4.4,4.4,0,0,1,.57,2.33,4.51,4.51,0,0,1-1.18,3.27,4.17,4.17,0,0,1-3.15,1.22,4.89,4.89,0,0,1-2.46-.72V154a4,4,0,0,0,2.3.91,1.68,1.68,0,0,0,1.92-1.89,2.14,2.14,0,0,0-.35-1.22,3.16,3.16,0,0,0-.52-.58c-.23-.22-.52-.46-.86-.74a11.61,11.61,0,0,1-2.4-2.31,4.26,4.26,0,0,1-.62-2.33,4.15,4.15,0,0,1,1.13-3,4,4,0,0,1,3-1.16A5.2,5.2,0,0,1,137.17,142.33Z"/><path d="M146,152.07h2.6c-.2,3.56-1.67,5.35-4.39,5.35a4.51,4.51,0,0,1-2.09-.46,3.6,3.6,0,0,1-1.44-1.41,7.24,7.24,0,0,1-.84-2.41,18.59,18.59,0,0,1-.28-3.49,12.35,12.35,0,0,1,1.12-6,3.76,3.76,0,0,1,3.47-1.93q4.56,0,4.56,8v.35h-6.41q0,4.86,1.94,4.86C145.4,155,146,154,146,152.07Zm-.15-3.94a10.54,10.54,0,0,0-.54-3.14,1.29,1.29,0,0,0-1.23-.83,1.26,1.26,0,0,0-1.23.83,10.13,10.13,0,0,0-.55,3.14Z"/><path d="M159.84,132.29v24.89H157v-2a5,5,0,0,1-1.2,1.72,2.53,2.53,0,0,1-1.59.47,2.91,2.91,0,0,1-2.76-1.93,15.59,15.59,0,0,1-.88-6.06,24.23,24.23,0,0,1,.22-3.44,8.67,8.67,0,0,1,.67-2.39,3.26,3.26,0,0,1,1.15-1.38,3,3,0,0,1,1.67-.45,2.51,2.51,0,0,1,1.52.44,2.76,2.76,0,0,1,.6.59,5,5,0,0,1,.6.93V132.29Zm-6.33,17.24a15.09,15.09,0,0,0,.4,4.18,1.49,1.49,0,0,0,1.44,1.19c.62,0,1.07-.41,1.36-1.23a19.88,19.88,0,0,0,0-8.13c-.29-.83-.74-1.24-1.36-1.24a1.51,1.51,0,0,0-1.43,1.18A13.33,13.33,0,0,0,153.51,149.53Z"/><path d="M177.89,132.29v24.89h-2.8v-2a5,5,0,0,1-1.2,1.72,2.54,2.54,0,0,1-1.6.47,2.9,2.9,0,0,1-2.75-1.93,15.4,15.4,0,0,1-.88-6.06,22.84,22.84,0,0,1,.22-3.44,8.67,8.67,0,0,1,.67-2.39,3.19,3.19,0,0,1,1.15-1.38,3,3,0,0,1,1.67-.45,2.53,2.53,0,0,1,1.52.44,2.76,2.76,0,0,1,.6.59,5,5,0,0,1,.6.93V132.29Zm-6.33,17.24a14.7,14.7,0,0,0,.4,4.18,1.48,1.48,0,0,0,1.43,1.19c.63,0,1.08-.41,1.36-1.23a19.43,19.43,0,0,0,0-8.13c-.28-.83-.73-1.24-1.36-1.24a1.5,1.5,0,0,0-1.42,1.18A13.33,13.33,0,0,0,171.56,149.53Z"/><path d="M182.39,135.57a1.84,1.84,0,0,1,1.32.56,1.91,1.91,0,0,1,0,2.68,1.87,1.87,0,0,1-1.35.56,1.88,1.88,0,0,1-1.89-1.92,1.8,1.8,0,0,1,.55-1.32A2,2,0,0,1,182.39,135.57ZM181.07,142h2.81v15.16h-2.81Z"/><path d="M195.69,142v15.16h-2.8v-2a5,5,0,0,1-1.2,1.72,2.52,2.52,0,0,1-1.58.47,2.9,2.9,0,0,1-2.77-1.94,15.47,15.47,0,0,1-.88-6.06,14.25,14.25,0,0,1,.88-5.8,2.9,2.9,0,0,1,2.77-1.85,3.13,3.13,0,0,1,2.78,2V142Zm-6.33,7.51a15.2,15.2,0,0,0,.39,4.18,1.5,1.5,0,0,0,1.44,1.19c.63,0,1.08-.41,1.36-1.23a19.43,19.43,0,0,0,0-8.13c-.28-.83-.73-1.24-1.36-1.24a1.5,1.5,0,0,0-1.42,1.18A13.33,13.33,0,0,0,189.36,149.53Z"/><path d="M198.87,142h2.79v1.87a3.48,3.48,0,0,1,3.08-2.12,2.82,2.82,0,0,1,2.84,2.12,3.46,3.46,0,0,1,3.17-2.12,3.29,3.29,0,0,1,2.43.84,3.34,3.34,0,0,1,.85,2.49v12.08h-2.82v-10a5.34,5.34,0,0,0-.32-2.3,1.2,1.2,0,0,0-1.2-.61,1.49,1.49,0,0,0-1.38.62,5.11,5.11,0,0,0-.35,2.29v10h-2.9v-10a8.93,8.93,0,0,0-.08-1.37,2.4,2.4,0,0,0-.27-.89,1.12,1.12,0,0,0-.5-.49,1.71,1.71,0,0,0-.76-.16,1.51,1.51,0,0,0-1.38.66,4.55,4.55,0,0,0-.41,2.25v10h-2.79Z"/><path d="M223.4,142h2.8v1.74a3.55,3.55,0,0,1,3.11-2,2.74,2.74,0,0,1,2.63,1.45,7.55,7.55,0,0,1,.44,3.18v10.78h-2.8V147a4.63,4.63,0,0,0-.37-2.18,1.32,1.32,0,0,0-1.26-.64,1.67,1.67,0,0,0-.81.17,1.2,1.2,0,0,0-.53.54,3.07,3.07,0,0,0-.31,1,10.18,10.18,0,0,0-.09,1.48v9.8h-2.8Z"/><path d="M244.5,149.72q0,7.69-4.76,7.7T235,149.61q0-7.85,4.75-7.84a4.58,4.58,0,0,1,2.13.47,3.76,3.76,0,0,1,1.49,1.45,7.57,7.57,0,0,1,.87,2.48A19.12,19.12,0,0,1,244.5,149.72Zm-2.9-.07a14.92,14.92,0,0,0-.4-4.16,1.46,1.46,0,0,0-1.41-1.19,1.51,1.51,0,0,0-1.42,1.18,21.54,21.54,0,0,0,0,8.16,1.5,1.5,0,0,0,1.42,1.17,1.45,1.45,0,0,0,1.4-1.16A13.12,13.12,0,0,0,241.6,149.65Z"/><path d="M245.52,148.27h5.33v2.29h-5.33Z"/></svg>
