<svg id="Lag_1" data-name="Lag 1" xmlns="http://www.w3.org/2000/svg" viewBox="0 0 230 270"><defs><style>.cls-1{fill:#e9eced;stroke:#152230;stroke-width:3px;}.cls-1,.cls-3,.cls-4{stroke-miterlimit:10;}.cls-2{fill:#43567e;}.cls-3,.cls-5{fill:#fff;}.cls-3,.cls-4{stroke:#fff;}.cls-4{fill:none;}.cls-5{font-size:18.55px;font-family:Futura-CondensedExtraBold, Futura;font-weight:800;}</style></defs><title>taleboble_flipped</title><path class="cls-1" d="M9.71,1.22H220.29c4,0,7.21,5.07,7.21,11.33V221c0,6.25-3.23,11.32-7.21,11.32H185.52V267L146.07,232.3H9.71c-4,0-7.21-5.07-7.21-11.32V12.55C2.5,6.29,5.73,1.22,9.71,1.22Z"/><rect class="cls-2" x="30" y="183.22" width="172" height="33.64" rx="9.07"/><rect class="cls-3" x="77.28" y="188.94" width="21.02" height="2.26" rx="1.13"/><polygon class="cls-3" points="96.84 194.12 78.69 194.12 78.45 191.92 97.14 191.92 96.84 194.12"/><rect class="cls-3" x="86.33" y="202.01" width="18.15" height="1.07" rx="0.53" transform="translate(306.92 129.15) rotate(96.09)"/><rect class="cls-3" x="81.94" y="201.64" width="17.6" height="1.49" rx="0.74" transform="translate(297.93 123.23) rotate(93.24)"/><rect class="cls-3" x="71.07" y="201.98" width="18.15" height="1.13" rx="0.56" transform="translate(-112.76 303.7) rotate(-96.09)"/><rect class="cls-3" x="76.49" y="201.56" width="17.66" height="1.49" rx="0.74" transform="matrix(0.05, 1, -1, 0.05, 282.83, 106.4)"/><rect class="cls-3" x="80.47" y="210.01" width="14.58" height="2.26" rx="1.13"/><rect class="cls-4" x="83.15" y="187.37" width="9.22" height="1.9" rx="0.95"/><text class="cls-5" transform="translate(108.75 207.85)">SLET</text></svg>
