<svg id="Levelcomplete" xmlns="http://www.w3.org/2000/svg" width="1120" height="180" viewBox="0 0 1120 180"><defs><style>.cls-1{fill:#c69c6d;}.cls-2{fill:#d3339a;}</style></defs><title>venstrearmsprite</title><path class="cls-1" d="M25.3869,142.3472A12.9989,12.9989,0,0,1,12.4132,129.981C9.924,78.962,18.6339,49.6754,39.8214,37.8135,71.5138,20.0709,119.216,49.4141,173.7248,86.6089c22.2031,15.1495,42.6445,20.2872,60.7617,15.2608,30.07-8.3389,45.8867-42.0776,46.0439-42.4175a13,13,0,0,1,23.6709,10.7554c-.8281,1.8291-20.7558,44.9316-62.543,56.6543-25.8955,7.2646-53.6826.9482-82.5878-18.7764C128.9,87.4986,72.7374,49.18,52.5226,60.5c-14.7949,8.2827-15.21,46.2934-14.1406,68.2133a13,13,0,0,1-12.3506,13.6182C25.8156,142.3423,25.6,142.3472,25.3869,142.3472Z"/><path class="cls-2" d="M300.1787,44.5555a14.9035,14.9035,0,0,0-19.7127,7.3452c-.18.3892-18.2913,39.0233-52.7246,48.572-19.9164,5.5256-40.5916-12.852-64.8438-28.6255-6.7973,7.3533-14.7062,28.2656-20.3359,36.5315,32.6756,21.9575,64.0919,28.9323,93.3921,20.7125,48.9438-10.244,70.6694-62.78,71.6176-64.8746A14.8678,14.8678,0,0,0,300.1787,44.5555Z"/><path class="cls-1" d="M389.2854,134.6629c-1.573-3.5951-.1679-16.5647,5.4607-15.1818,41.2893,10.1443,31.39,13.7216,41.5336-10.3951,15.1721-36.0739,87.8426-37.4667,118.6658-28.24,12.5549,3.758,45.4882-.1806,54.8015-3.0979,15.4575-4.8422,55.6517,2.3438,56.4261,2.2745,14.8173-1.3259,18.8778,2.7716,17.481,10.6495s7.3371,10.8693-15.1616,15.1575c-6.3051,1.2017-45.9062-10.3651-66.4494-6.2787-12.7307,2.5324-44.5007,16.334-65.1893,3.8156-21.594-13.0662-62.8353-2.1812-82.9767,23.8971-14.74,19.0849-22.1107,21.959-51.8518,20.2578-9.7307-.5567-9.9849-4.6515-12.6969-12.1041C389.2467,135.1927,389.3341,134.774,389.2854,134.6629Z"/><path class="cls-2" d="M691.8877,88.2238c.2691-8.79-1.7449-13.6492-20.7729-12.2606-.9947.0725-47.2141-8.4193-66.4328.1818-11.1164,4.9751-46.5658,4.6939-61.5863-6.8875-9.6758,12.3184-10.8359,24.5862-20.3782,35.71,31.6663,18.915,46.0217,6.9484,79.0086-4.83,8.1149-4.7794,67.8273,6.3883,73.8873,5.2657C697.2378,101.3972,691.6187,97.0141,691.8877,88.2238Z"/><path class="cls-1" d="M825.3869,32.5a12.9989,12.9989,0,0,0-12.9737,12.3662c-2.4892,51.0191,6.2207,80.3057,27.4082,92.1675,31.6924,17.7427,79.3946-11.6006,133.9034-48.7954,22.2031-15.1494,42.6445-20.2871,60.7617-15.2608,30.07,8.3389,45.8867,42.0777,46.0439,42.4175a13,13,0,0,0,23.6709-10.7554c-.8281-1.8291-20.7558-44.9316-62.543-56.6542-25.8955-7.2647-53.6826-.9483-82.5878,18.7763C928.9,87.3486,872.7374,125.667,852.5226,114.3472c-14.7949-8.2827-15.21-46.2935-14.1406-68.2134a13,13,0,0,0-12.3506-13.6182C825.8156,32.5049,825.6,32.5,825.3869,32.5Z"/><path class="cls-2" d="M1100.1787,130.2918a14.9035,14.9035,0,0,1-19.7127-7.3453c-.18-.3892-18.2913-39.0232-52.7246-48.572C1007.825,68.849,987.15,87.2265,962.8976,103c-6.7973-7.3532-14.7062-28.2656-20.3359-36.5315,32.6756-21.9575,64.0919-28.9322,93.3921-20.7124,48.9438,10.2439,70.6694,62.78,71.6176,64.8745A14.8679,14.8679,0,0,1,1100.1787,130.2918Z"/></svg>
