<svg id="Levelcomplete" xmlns="http://www.w3.org/2000/svg" xmlns:xlink="http://www.w3.org/1999/xlink" viewBox="0 0 535 876"><defs><style>.cls-1{fill:#89cce5;}.cls-2{clip-path:url(#clip-path);}.cls-3{fill:#82c4d8;}.cls-4{fill:#152230;}.cls-5{fill:#444e59;}.cls-6{fill:#f4912d;}.cls-7{font-size:30px;}.cls-10,.cls-7{fill:#fff;font-family:Futura-CondensedExtraBold, Futura;font-weight:700;}.cls-8{letter-spacing:0.01em;}.cls-9{letter-spacing:-0.02em;}.cls-10{font-size:10px;}</style><clipPath id="clip-path"><rect id="_Rektangel_" data-name="&lt;Rektangel&gt;" class="cls-1" x="522.56" y="-1308.42" width="1920" height="1080"/></clipPath></defs><title>Settingsmenu</title><rect id="_Rektangel_2" data-name="&lt;Rektangel&gt;" class="cls-1" x="522.56" y="-1308.42" width="1920" height="1080"/><g class="cls-2"><rect class="cls-3" x="545.51" y="-640.58" width="2099.95" height="727.83" transform="translate(181.21 511.97) rotate(-19.31)"/></g><rect class="cls-4" x="68" y="58" width="398" height="759" rx="60.43" ry="60.43"/><path d="M405.57,58.5a60,60,0,0,1,59.93,59.93V756.57a60,60,0,0,1-59.93,59.93H128.43A60,60,0,0,1,68.5,756.57V118.43A60,60,0,0,1,128.43,58.5H405.57m0-1H128.43A60.93,60.93,0,0,0,67.5,118.43V756.57a60.93,60.93,0,0,0,60.93,60.93H405.57a60.93,60.93,0,0,0,60.93-60.93V118.43A60.93,60.93,0,0,0,405.57,57.5Z"/><rect class="cls-1" x="75" y="66" width="385" height="743" rx="60.43" ry="60.43"/><path d="M399.57,66.5a60,60,0,0,1,59.93,59.93V748.57a60,60,0,0,1-59.93,59.93H135.43A60,60,0,0,1,75.5,748.57V126.43A60,60,0,0,1,135.43,66.5H399.57m0-1H135.43A60.93,60.93,0,0,0,74.5,126.43V748.57a60.93,60.93,0,0,0,60.93,60.93H399.57a60.93,60.93,0,0,0,60.93-60.93V126.43A60.93,60.93,0,0,0,399.57,65.5Z"/><rect class="cls-4" x="157.5" y="57.5" width="221" height="36" rx="8.85" ry="8.85"/><rect class="cls-5" x="226.5" y="69.5" width="59" height="11" rx="4.73" ry="4.73"/><circle class="cls-5" cx="319.5" cy="75.5" r="7"/><rect class="cls-4" x="100.5" y="144.5" width="302" height="64" rx="9.07" ry="9.07"/><polyline class="cls-4" points="108.5 229.5 108.5 206.5 141.5 206.5"/><rect class="cls-6" x="144.5" y="208.5" width="283" height="461" rx="9.07" ry="9.07"/><polyline class="cls-6" points="172.3 689.25 172.3 661.5 221.93 661.5"/><text class="cls-7" transform="translate(125.5 188.82)">SETTI<tspan class="cls-8" x="62.9" y="0">N</tspan><tspan x="82.25" y="0">GS</tspan></text><text></text><text class="cls-7" transform="translate(165.5 349.28)">Musik:</text><text class="cls-7" transform="translate(177.76 526.03)"><tspan class="cls-9">L</tspan><tspan x="11.97" y="0">yd:</tspan></text><text></text><text class="cls-10" transform="translate(261.76 481.62)">ON</text><text class="cls-10" transform="translate(365.02 479.67)">OFF</text><text class="cls-10" transform="translate(271.76 317.62)">ON</text><text class="cls-10" transform="translate(375.02 315.67)">OFF</text></svg>
