<?xml version="1.0" standalone="no"?>
<!DOCTYPE svg PUBLIC "-//W3C//DTD SVG 20010904//EN"
 "http://www.w3.org/TR/2001/REC-SVG-20010904/DTD/svg10.dtd">
<svg version="1.0" xmlns="http://www.w3.org/2000/svg"
 width="512.000000pt" height="512.000000pt" viewBox="0 0 512.000000 512.000000"
 preserveAspectRatio="xMidYMid meet">
<metadata>
Created by potrace 1.11, written by Peter Selinger 2001-2013
</metadata>
<g transform="translate(0.000000,512.000000) scale(0.100000,-0.100000)"
fill="#000000" stroke="none">
<path d="M3800 4484 c-19 -2 -80 -9 -135 -15 -55 -6 -264 -35 -465 -64 -618
-92 -584 -89 -1055 -75 -501 15 -856 15 -995 0 -349 -38 -528 -132 -602 -318
-19 -49 -22 -75 -22 -187 0 -543 285 -889 848 -1030 285 -71 502 -90 1061 -89
363 0 480 3 603 17 1115 127 1665 585 1557 1298 -38 254 -143 382 -362 440
-60 16 -115 22 -238 24 -88 2 -176 1 -195 -1z m387 -120 c224 -50 314 -197
314 -514 0 -454 -326 -765 -976 -935 -351 -92 -795 -126 -1365 -106 -527 19
-792 68 -1045 191 -268 131 -418 332 -470 629 -19 111 -21 276 -4 328 48 146
186 224 474 265 98 14 414 16 1165 8 l445 -5 310 48 c764 118 962 134 1152 91z"/>
<path d="M3065 4060 c-66 -39 -201 -88 -295 -107 -179 -36 -435 -13 -641 58
-48 16 -90 29 -95 29 -10 0 -49 -88 -42 -95 10 -10 222 -76 298 -92 66 -14
129 -18 280 -18 182 0 202 2 295 28 107 30 302 119 311 142 5 13 -41 85 -55
85 -3 0 -28 -14 -56 -30z"/>
<path d="M3810 2554 c-223 -27 -332 -43 -615 -89 -621 -102 -540 -96 -1295
-93 -587 3 -679 1 -785 -14 -237 -34 -382 -87 -474 -173 -100 -94 -137 -200
-128 -370 22 -399 191 -690 499 -859 295 -162 721 -225 1443 -213 567 10 876
52 1229 168 269 88 477 203 627 346 99 94 157 174 208 285 61 131 75 201 75
368 1 367 -113 555 -379 626 -59 15 -327 27 -405 18z m368 -120 c227 -51 320
-218 310 -554 -4 -119 -8 -146 -35 -223 -42 -119 -83 -184 -182 -289 -245
-259 -664 -422 -1266 -493 -289 -34 -1027 -35 -1313 -1 -613 73 -928 286
-1039 705 -22 82 -26 118 -27 251 -1 141 1 159 21 195 48 89 163 162 315 199
191 46 629 60 1328 41 265 -7 343 1 880 90 620 103 829 119 1008 79z"/>
<path d="M3065 2080 c-66 -39 -201 -88 -295 -107 -179 -36 -435 -13 -641 58
-48 16 -90 29 -95 29 -10 0 -49 -88 -42 -95 10 -10 222 -76 298 -92 66 -14
129 -18 280 -18 182 0 202 2 295 28 107 30 302 119 311 142 5 13 -41 85 -55
85 -3 0 -28 -14 -56 -30z"/>
</g>
</svg>
