<svg id="Levelcomplete" xmlns="http://www.w3.org/2000/svg" width="250" height="90" viewBox="0 0 250 90"><defs><style>.cls-1{fill:#152230;}.cls-2{fill:#fff;}</style></defs><title>exit</title><rect class="cls-1" x="12.5" y="7" width="226" height="65" rx="9.0692"/><path class="cls-2" d="M96.1582,52.0039V29.3867h11.3525v5.3174h-5.2441V38h4.7022v5.1123h-4.7022v3.457h5.2441v5.4346Z"/><path class="cls-2" d="M126.07,52.0039h-6.7822L118.16,48.7812a27.4284,27.4284,0,0,1-.879-2.8417,27.5569,27.5569,0,0,1-.9667,3.0908l-1.128,2.9736h-6.65l5.4932-11.7334-5.1855-10.8838h6.7968l1.0108,3.0615a10.352,10.352,0,0,1,.3144.9961q.1552.5714.3154,1.2891.3663-1.4649.6153-2.2559l.9375-3.0908h6.8408l-5.1562,10.8838Z"/><path class="cls-2" d="M133.7607,52.0039h-6.1084V29.3867h6.1084Z"/><path class="cls-2" d="M144.82,52.0039h-6.1084V34.8066h-3.3691v-5.42h12.9785v5.42H144.82Z"/></svg>
