<svg id="Levelcomplete" xmlns="http://www.w3.org/2000/svg" width="240" height="300" viewBox="0 0 240 300"><defs><style>.cls-1{fill:#f4912d;}.cls-2{fill:#e9eced;}.cls-3{fill:#bab9b6;}.cls-4{fill:#525454;}.cls-5{fill:#963496;}.cls-6{fill:#f94eb8;}</style></defs><title>godtbillede2</title><path class="cls-1" d="M224.2894,17H13.7106C9.7283,17,6.5,22.072,6.5,28.3285v208.43c0,6.2566,3.2283,11.3286,7.2106,11.3286H48.48V282.75l39.4549-34.663H224.2894c3.9823,0,7.2106-5.072,7.2106-11.3286V28.3285C231.5,22.072,228.2717,17,224.2894,17Z"/><rect class="cls-2" x="14.5" y="38" width="209" height="148" rx="12"/><path class="cls-3" d="M148.7887,66.56a1.19,1.19,0,0,1-.2553-.2794L117.8591,81.8533l4.9468,40.2,32.1665-3.8517Z"/><rect class="cls-4" x="122.248" y="159.4571" width="2.2079" height="18.491" rx="0.8493" transform="translate(-60.5384 69.4021) rotate(-25.4575)"/><rect class="cls-4" x="107.6208" y="159.733" width="2.2079" height="18.491" rx="0.8493" transform="translate(56.0939 -24.9411) rotate(17.5736)"/><rect class="cls-5" x="122.7659" y="111.7113" width="32.6468" height="12.8654" rx="4.949" transform="translate(-18.2065 25.6136) rotate(-9.8785)"/><path class="cls-5" d="M44.4926,129.5664a19.8484,19.8484,0,1,1,39.6512,1.9042"/><path class="cls-6" d="M54.7634,137.0336a14.0765,14.0765,0,0,1,27.5924-5.5905"/><path class="cls-5" d="M65.3753,142.2577a10.3721,10.3721,0,0,1,18.8955-8.5607"/><path class="cls-5" d="M155.6368,118.0333A38.3619,38.3619,0,1,1,79.7839,129.56"/><path class="cls-6" d="M152.492,122.4169A28.0657,28.0657,0,0,1,96.9978,130.85"/><rect class="cls-4" x="123.352" y="176.0161" width="12.1433" height="2.4839" rx="0.9555"/><rect class="cls-4" x="102.3771" y="176.0161" width="12.1433" height="2.4839" rx="0.9555"/><rect class="cls-4" x="103.9885" y="170.7322" width="4.7505" height="2.4839" rx="0.9555" transform="translate(-53.916 48.6909) rotate(-20.6971)"/><rect class="cls-4" x="120.8236" y="170.7322" width="4.7505" height="2.4839" rx="0.9555" transform="translate(-52.8295 54.6409) rotate(-20.6971)"/><polygon class="cls-3" points="125.961 118.844 124.091 116.707 122.221 114.569 125.008 114.018 127.794 113.468 126.877 116.156 125.961 118.844"/><polygon class="cls-3" points="130.929 117.74 129.059 115.603 127.189 113.465 129.975 112.914 132.761 112.364 131.845 115.052 130.929 117.74"/><polygon class="cls-3" points="135.896 116.636 134.027 114.499 132.157 112.361 134.943 111.811 137.729 111.26 136.813 113.948 135.896 116.636"/><polygon class="cls-3" points="140.312 115.532 138.442 113.395 136.573 111.257 139.359 110.707 142.145 110.156 141.229 112.844 140.312 115.532"/><polygon class="cls-3" points="145.004 114.704 143.134 112.567 141.264 110.429 144.051 109.879 146.837 109.328 145.92 112.016 145.004 114.704"/><polygon class="cls-3" points="149.42 113.876 147.55 111.739 145.68 109.601 148.466 109.051 151.252 108.5 150.336 111.188 149.42 113.876"/><polyline class="cls-3" points="154.391 110.989 152.975 113.451 151.551 110.994 150.127 108.536 152.968 108.532"/><polygon class="cls-5" points="125.216 125.456 121.728 124.8 118.241 124.143 120.553 121.451 122.865 118.759 124.041 122.108 125.216 125.456"/><rect class="cls-5" x="149.2945" y="79.6975" width="4.9677" height="17.387" rx="1.911" transform="translate(-16.2589 37.2724) rotate(-13.2949)"/><path class="cls-5" d="M151.2833,85.8846c-3.2492.4264-6.2691-2.1684-6.7451-5.7956s1.7721-6.9133,5.0214-7.34"/><polygon class="cls-4" points="150.712 82.231 150.349 79.461 149.986 76.691 152.567 77.761 155.147 78.832 152.93 80.531 150.712 82.231"/><rect class="cls-5" x="115.6557" y="79.697" width="5.5197" height="12.3687" rx="2.1233" transform="translate(-27.5783 95.0269) rotate(-39.5362)"/><rect class="cls-5" x="118.0141" y="71.8637" width="5.5197" height="16.7767" rx="2.1233" transform="translate(-23.4554 95.2404) rotate(-39.5362)"/><rect class="cls-5" x="121.1527" y="65.4903" width="5.5197" height="19.9221" rx="2.1233" transform="translate(-19.6814 96.14) rotate(-39.5362)"/><rect class="cls-5" x="124.2473" y="58.9943" width="5.5197" height="23.206" rx="2.1233" transform="translate(-15.8834 96.9994) rotate(-39.5362)"/><rect class="cls-5" x="127.0192" y="52.5842" width="5.9593" height="25.6115" rx="2.2924" transform="translate(-11.8842 97.7125) rotate(-39.5362)"/><rect class="cls-5" x="131.3422" y="47.4786" width="5.5978" height="27.767" rx="2.1533" transform="translate(-8.3725 99.4279) rotate(-39.5362)"/><rect class="cls-5" x="134.3212" y="41.1528" width="5.662" height="30.5238" rx="2.178" transform="translate(-4.5344 100.2128) rotate(-39.5362)"/><path class="cls-5" d="M146.7787,64.0413l-29.06,25.2969,1.8,2.0673a1.399,1.399,0,0,0,1.9736.1367l26.8058-23.3347a1.59,1.59,0,0,0,.1553-2.2428Z"/><path class="cls-5" d="M116.1227,157.8837a1.9679,1.9679,0,0,1,.7271,3.431l-2.7975,2.8143-2.7975,2.8143a1.9679,1.9679,0,0,1-3.4353-.7066l-.7511-3.5442-.7511-3.5442a2.3748,2.3748,0,0,1,2.7081-2.7244l3.5486.73Z"/><path class="cls-5" d="M123.0973,155.8111a1.9679,1.9679,0,0,1,2.4867,2.4731l-.8,3.8866-.8005,3.8867a1.9679,1.9679,0,0,1-3.2616,1.2892l-2.5688-2.5548-2.5688-2.5548a2.3748,2.3748,0,0,1,.7749-3.7624l3.3693-1.3318Z"/></svg>
