<svg id="Levelcomplete" xmlns="http://www.w3.org/2000/svg" xmlns:xlink="http://www.w3.org/1999/xlink" width="250" height="290" viewBox="0 0 250 290"><defs><style>.cls-1{fill:#f94eb8;}.cls-2{fill:#f4912d;}.cls-3{fill:#e9eced;}.cls-4,.cls-5{fill:#963496;}.cls-4{stroke:#963496;stroke-miterlimit:10;stroke-width:10px;}.cls-6{clip-path:url(#clip-path);}.cls-7{fill:#525454;}.cls-8{fill:#1c2121;}</style><clipPath id="clip-path"><circle class="cls-1" cx="85.0569" cy="97.9788" r="37.5292"/></clipPath></defs><title>godtbillede3</title><path class="cls-2" d="M223.7894,13H13.2106C9.2283,13,6,18.072,6,24.3285v208.43c0,6.2566,3.2283,11.3286,7.2106,11.3286H47.98V278.75l39.4549-34.663H223.7894c3.9823,0,7.2106-5.072,7.2106-11.3286V24.3285C231,18.072,227.7717,13,223.7894,13Z"/><rect class="cls-3" x="14" y="34" width="209" height="148" rx="12"/><path class="cls-4" d="M178.89,122.0209a1.3683,1.3683,0,0,1,0-2.7365,18.3944,18.3944,0,0,0,18.3737-18.3737,1.3683,1.3683,0,0,1,2.7365,0A21.134,21.134,0,0,1,178.89,122.0209Z"/><rect class="cls-5" x="63.3702" y="142.1538" width="50.0389" height="17.2009" rx="6.7953"/><circle class="cls-5" cx="124.7461" cy="125.7347" r="41.0476"/><polyline class="cls-5" points="89.172 77.65 115.755 77.65 115.755 52"/><polyline class="cls-1" points="99.432 72.987 112.482 72.987 112.482 60.395"/><polyline class="cls-5" points="80.18 78.432 53.597 78.432 53.597 52.782"/><polyline class="cls-1" points="69.92 73.769 56.87 73.769 56.87 61.177"/><circle class="cls-1" cx="85.0569" cy="97.9788" r="37.5292"/><g class="cls-6"><rect class="cls-1" x="99.0508" y="46.1376" width="43.254" height="111.9515" rx="12"/></g><rect class="cls-5" x="78.8477" y="79.5322" width="12.7022" height="24.5017" rx="5.0181"/><circle class="cls-5" cx="76.9639" cy="104.3445" r="8.2349"/><circle class="cls-5" cx="93.7028" cy="104.7213" r="8.0734"/><path class="cls-7" d="M76.3718,113.8712a9.268,9.268,0,0,1-9.2575-9.2575.5382.5382,0,1,1,1.0764,0,8.1811,8.1811,0,0,0,16.3622,0,.5382.5382,0,1,1,1.0764,0A9.268,9.268,0,0,1,76.3718,113.8712Z"/><path class="cls-7" d="M76.3718,114.5171a9.9147,9.9147,0,0,1-9.9034-9.9034,1.1841,1.1841,0,0,1,2.3682,0,7.5352,7.5352,0,0,0,15.07,0,1.1841,1.1841,0,0,1,2.3682,0A9.9146,9.9146,0,0,1,76.3718,114.5171Z"/><path class="cls-7" d="M93.9181,113.8712a9.268,9.268,0,0,1-9.2576-9.2575.5383.5383,0,1,1,1.0765,0,8.1811,8.1811,0,0,0,16.3621,0,.5383.5383,0,1,1,1.0765,0A9.268,9.268,0,0,1,93.9181,113.8712Z"/><path class="cls-7" d="M93.9181,114.5171a9.9146,9.9146,0,0,1-9.9034-9.9034,1.1841,1.1841,0,0,1,2.3682,0,7.5352,7.5352,0,0,0,15.07,0,1.1841,1.1841,0,0,1,2.3682,0A9.9147,9.9147,0,0,1,93.9181,114.5171Z"/><path class="cls-7" d="M90.7963,99.8772a5.5976,5.5976,0,1,1-11.1951,0"/><circle class="cls-8" cx="67.2464" cy="88.1194" r="4.1346"/><circle class="cls-8" cx="101.9132" cy="88.1194" r="4.1346"/><rect class="cls-7" x="109.8528" y="102.8868" width="20.3663" height="2.5147" rx="0.9934"/><path class="cls-7" d="M127.2249,111.7888,110.34,109.0219a1.2972,1.2972,0,0,1-1.2215-1.4835h0a1.5971,1.5971,0,0,1,1.8483-.98l16.8847,2.7669a1.2972,1.2972,0,0,1,1.2216,1.4835h0A1.5973,1.5973,0,0,1,127.2249,111.7888Z"/><path class="cls-7" d="M128.7892,99.8437l-17.0454,2.0353a1.5562,1.5562,0,0,1-1.78-1.0586h0a1.3334,1.3334,0,0,1,1.319-1.4286l17.0454-2.0354a1.5564,1.5564,0,0,1,1.78,1.0586h0A1.3336,1.3336,0,0,1,128.7892,99.8437Z"/><rect class="cls-7" x="40.3895" y="103.8409" width="20.3663" height="2.5147" rx="0.9934" transform="translate(101.1453 210.1964) rotate(-180)"/><path class="cls-7" d="M43.3837,112.7429l16.8847-2.7669a1.2973,1.2973,0,0,0,1.2216-1.4835h0a1.5971,1.5971,0,0,0-1.8484-.98l-16.8847,2.7669a1.2973,1.2973,0,0,0-1.2216,1.4834h0A1.5972,1.5972,0,0,0,43.3837,112.7429Z"/><path class="cls-7" d="M41.8194,100.7978l17.0454,2.0354a1.5564,1.5564,0,0,0,1.78-1.0586h0a1.3336,1.3336,0,0,0-1.3191-1.4287L42.2805,98.3105a1.5562,1.5562,0,0,0-1.78,1.0586h0A1.3335,1.3335,0,0,0,41.8194,100.7978Z"/><rect class="cls-1" x="68.8432" y="149.5814" width="50.0389" height="17.2009" rx="6.7953"/><rect class="cls-1" x="131.3919" y="149.9724" width="50.0389" height="17.2009" rx="6.7953"/><ellipse class="cls-1" cx="165.7937" cy="135.3125" rx="23.0648" ry="21.6966"/></svg>
