<svg id="Levelcomplete" xmlns="http://www.w3.org/2000/svg" width="1130" height="220" viewBox="0 0 1130 220"><defs><style>.cls-1{fill:#c69c6d;}.cls-2{fill:#d3339a;}</style></defs><title>højrearmsprite</title><path class="cls-1" d="M230.2529,183.0479c-17.2236.0019-36.76-8.6514-58.3623-25.8921-34.1357-27.2437-62.01-38.7207-78.4756-32.316-14.2812,5.5547-17.5429,23.9825-17.5712,24.167a13,13,0,0,1-25.6876-4.0234c.2129-1.3569,5.5323-33.3677,33.834-44.375,26.2022-10.19,61.2315,1.998,104.1192,36.2261,27.792,22.18,43.374,22.0825,51.5508,18.0923,24.63-12.0176,29.5566-72.5332,29.3408-92.7847A13.0028,13.0028,0,0,1,281.8535,49c.05-.0005.1-.001.1494-.001A12.9966,12.9966,0,0,1,294.999,61.84a273.0229,273.0229,0,0,1-4.4121,47.9424c-6.7,35.918-19.9892,58.9644-39.499,68.4985A46.8638,46.8638,0,0,1,230.2529,183.0479Z"/><path class="cls-2" d="M85.9487,92.676c-33.2957,12.95-39.5536,50.6087-39.8041,52.2051a15.2943,15.2943,0,0,0,30.22,4.7333C76.3981,149.3973,83.3759,133.0621,99.5,125c18-7,42.613,11.9169,82,43,6.8941-7.5342,18.78-26.0985,25-34.2316C156.9305,94.68,116.3768,80.842,85.9487,92.676Z"/><path class="cls-1" d="M654.8954,149.8319c-17.4916-1.4994-39.5813-13.05-54.3892-21.6626-23.3991-13.61-71.7212,13.346-90.7333,14.9928-16.4893,1.4285-34.36,9.0051-34.6651,9.1307-11.7472,4.8276-17.8958,3.6453-21.4717-3.4333s-7.8409-10.3121,5.15-18.2042c2.4852-1.51,24.54-7.5177,42.0014-12.3177,16.1657-4.4438,94.89-26.5271,110.614-13.39,10.19,8.5132,43.2419,20.7427,54.294,18.97,33.29-5.3381,71.5516-7.3592,98.5765-17.9471,9.5766-3.752,10.9734,1.0145,16.0569,6.42.0353.0376.1056.08.1.1384-.7784,8.3828,6.2483,11.6133-7.9148,19.4617-1.8525,1.0266-27.9383,7.802-42.2186,6.5932-20.6617-1.749-38.4183,6.8329-58.6975,10.7493C664.8357,150.64,662.3853,150.4739,654.8954,149.8319Z"/><path class="cls-2" d="M501.6593,109.6376c-20.0017,10.2988-41.7742,15.5293-44.7624,17.5438-15.6189,10.53-8.9252,13.6206-5.5867,22.1519s12.0321,8.2674,23.2038,4.1568c.29-.1068,33.9681-6.529,38.8438-8.9023,34.8943-11.99,64.673-28.52,98.0607-6.9856,5.2727-11.8509,12.4013-25.8881,14.821-37.1458C606.155,76.1414,519.9384,100.2258,501.6593,109.6376Z"/><path class="cls-1" d="M1046.2529,48.999c-17.2236-.0019-36.76,8.6514-58.3623,25.8921-34.1357,27.2437-62.01,38.7207-78.4756,32.3159-14.2812-5.5547-17.5429-23.9824-17.5712-24.167a13,13,0,0,0-25.6876,4.0235c.2129,1.3569,5.5323,33.3677,33.834,44.375,26.2022,10.19,61.2315-1.9981,104.1192-36.2261,27.792-22.18,43.374-22.0825,51.5508-18.0923,24.63,12.0176,29.5566,72.5332,29.3408,92.7847a13.0028,13.0028,0,0,0,12.8525,13.1421c.05.0005.1.001.1494.001a12.9966,12.9966,0,0,0,12.9961-12.8414,273.0227,273.0227,0,0,0-4.4121-47.9423c-6.7-35.918-19.9892-58.9644-39.499-68.4986A46.8651,46.8651,0,0,0,1046.2529,48.999Z"/><path class="cls-2" d="M901.9487,139.3709c-33.2957-12.95-39.5536-50.6087-39.8041-52.2051a15.2943,15.2943,0,0,1,30.22-4.7334c.0334.2172,7.0112,16.5524,23.1353,24.6145,18,7,42.613-11.917,82-43,6.8941,7.5342,18.78,26.0985,25,34.2316C972.9305,137.3671,932.3768,151.2049,901.9487,139.3709Z"/></svg>
