<svg id="Levelcomplete" xmlns="http://www.w3.org/2000/svg" xmlns:xlink="http://www.w3.org/1999/xlink" width="1920" height="1080" viewBox="0 0 1920 1080"><defs><style>.cls-1{fill:#e9eced;}.cls-2{fill:#89cce5;}.cls-3{fill:#2d2d2d;}.cls-15,.cls-31,.cls-33,.cls-34,.cls-38,.cls-39,.cls-4,.cls-42,.cls-45,.cls-51,.cls-58,.cls-59,.cls-66,.cls-75,.cls-77,.cls-80,.cls-85,.cls-87{fill:none;}.cls-38,.cls-39,.cls-4,.cls-40,.cls-41,.cls-85{stroke:#000;}.cls-103,.cls-12,.cls-15,.cls-23,.cls-24,.cls-26,.cls-27,.cls-28,.cls-31,.cls-33,.cls-34,.cls-38,.cls-39,.cls-4,.cls-40,.cls-41,.cls-46,.cls-47,.cls-48,.cls-59,.cls-68,.cls-75,.cls-79,.cls-87,.cls-90{stroke-linecap:round;}.cls-103,.cls-12,.cls-23,.cls-24,.cls-26,.cls-27,.cls-28,.cls-33,.cls-34,.cls-38,.cls-39,.cls-4,.cls-40,.cls-41,.cls-42,.cls-46,.cls-47,.cls-48,.cls-59,.cls-68,.cls-75,.cls-87,.cls-90{stroke-linejoin:round;}.cls-5{fill:#cc9aa1;}.cls-6{fill:#afd7dd;}.cls-7{fill:#a3c8cc;}.cls-19,.cls-20,.cls-23,.cls-50,.cls-8{fill:#edc4b7;}.cls-23,.cls-51,.cls-8{stroke:#edc3b9;}.cls-11,.cls-15,.cls-18,.cls-19,.cls-20,.cls-21,.cls-22,.cls-25,.cls-29,.cls-31,.cls-35,.cls-45,.cls-49,.cls-51,.cls-52,.cls-53,.cls-54,.cls-57,.cls-58,.cls-63,.cls-64,.cls-65,.cls-66,.cls-73,.cls-77,.cls-79,.cls-8,.cls-80,.cls-83,.cls-85{stroke-miterlimit:10;}.cls-19,.cls-23,.cls-24,.cls-27,.cls-28,.cls-33,.cls-34,.cls-35,.cls-39,.cls-40,.cls-48,.cls-51,.cls-54,.cls-64,.cls-8,.cls-90{stroke-width:0.5px;}.cls-24,.cls-25,.cls-9{fill:#fff1eb;}.cls-10,.cls-49{fill:#e2b876;}.cls-11,.cls-55{fill:#141414;}.cls-11,.cls-53,.cls-64,.cls-65,.cls-66{stroke:#141414;}.cls-11,.cls-53,.cls-65,.cls-66,.cls-68{stroke-width:0.25px;}.cls-12,.cls-70{fill:#353535;}.cls-12,.cls-63,.cls-75{stroke:#353535;}.cls-12,.cls-47,.cls-75,.cls-79,.cls-80,.cls-83,.cls-85{stroke-width:2px;}.cls-13{clip-path:url(#clip-path);}.cls-14{fill:#e5e5e5;}.cls-15,.cls-26,.cls-29{stroke:#020202;}.cls-15{stroke-width:1.5px;}.cls-16{clip-path:url(#clip-path-2);}.cls-17{fill:#82c4d8;}.cls-18{fill:#e5bdb7;stroke:#e5bdb1;}.cls-19,.cls-20{stroke:#edc4b7;}.cls-21{fill:#e30019;stroke:#e30019;}.cls-22{fill:#212020;stroke:#212020;}.cls-24,.cls-25{stroke:#fff1eb;}.cls-27{fill:#fccdc0;stroke:#fccdc0;}.cls-28{fill:#16110f;stroke:#16110f;}.cls-30{fill:#e24cf2;}.cls-31{stroke:#ceaa99;}.cls-32{fill:#f4edea;}.cls-33{stroke:#c13dc1;}.cls-34{stroke:#c6aca1;}.cls-35{fill:#772800;stroke:#471c04;}.cls-36{fill:#b53700;}.cls-37{fill:#f9f9f9;}.cls-38{stroke-width:1.2px;}.cls-42,.cls-45{stroke:#eadeda;}.cls-42,.cls-63{stroke-width:0.75px;}.cls-43{clip-path:url(#clip-path-3);}.cls-44{fill:#f9f4f2;}.cls-46,.cls-47,.cls-48{fill:#262626;stroke:#262626;}.cls-49{stroke:#e2b876;}.cls-52{fill:#f2c4bb;stroke:#f2c4bb;}.cls-53{fill:#dbdbdb;}.cls-54,.cls-64,.cls-65{fill:#c90d28;}.cls-54{stroke:#3a3a3a;}.cls-56{fill:#282828;}.cls-57{fill:#1c1c1c;stroke:#1c1c1c;}.cls-58,.cls-59{stroke:#282828;}.cls-58{stroke-width:4px;}.cls-59{stroke-width:3px;}.cls-60{clip-path:url(#clip-path-4);}.cls-61{fill:#6d6c6c;}.cls-62{clip-path:url(#clip-path-5);}.cls-63{fill:#d8d5d4;}.cls-67{clip-path:url(#clip-path-6);}.cls-68{fill:#eaeaea;stroke:#b8bcbc;}.cls-69{clip-path:url(#clip-path-7);}.cls-71{clip-path:url(#clip-path-8);}.cls-72,.cls-73{fill:#333;}.cls-73{stroke:#333;}.cls-74{fill:#303030;}.cls-76{clip-path:url(#clip-path-9);}.cls-77{stroke:#727171;}.cls-78{clip-path:url(#clip-path-10);}.cls-79{fill:#302f2f;stroke:#424242;}.cls-80{stroke:#303030;}.cls-81{fill:#fff;}.cls-82{clip-path:url(#clip-path-11);}.cls-83{fill:#47362b;stroke:#2b201a;}.cls-84{fill:#684e40;}.cls-86{clip-path:url(#clip-path-12);}.cls-87{stroke:#c4959d;}.cls-88{fill:#c4959d;}.cls-89{clip-path:url(#clip-path-13);}.cls-90{fill:#332617;stroke:#332618;}.cls-91{fill:#cca36d;}.cls-92{clip-path:url(#clip-path-14);}.cls-93{clip-path:url(#clip-path-15);}.cls-94{clip-path:url(#clip-path-16);}.cls-95{clip-path:url(#clip-path-17);}.cls-96{clip-path:url(#clip-path-18);}.cls-97{fill:#99bbbf;}.cls-98{clip-path:url(#clip-path-19);}.cls-99{clip-path:url(#clip-path-20);}.cls-100{fill:#2c2d30;}.cls-101{fill:#4e4f51;}.cls-102{clip-path:url(#clip-path-21);}.cls-103{fill:#f2c38b;stroke:#f2c281;}</style><clipPath id="clip-path"><rect class="cls-1" x="230" y="-1295" width="1920" height="1078"/></clipPath><clipPath id="clip-path-2"><rect class="cls-2" x="-0.44" y="1.58" width="1920" height="1080"/></clipPath><clipPath id="clip-path-3"><path class="cls-9" d="M775.18,635.92l84.89,3.16s-2.13,10.19,4.24,61.83-5.31,68.5-5.31,68.5l-32.89,60.07s-29.86-2.19-49.26-11.35c-7.47-3.52-13.39-8.08-15.46-13.94-7.43-21.08-19.1-85.36-11.67-99.07,0,0,3.18-24.23,13.79-45.31s11.67-23.89,11.67-23.89h0"/></clipPath><clipPath id="clip-path-4"><path class="cls-10" d="M1120.28,297.77a1.8,1.8,0,1,1-.44-1.17A1.78,1.78,0,0,1,1120.28,297.77Z"/></clipPath><clipPath id="clip-path-5"><path class="cls-11" d="M1262.58,1010.67c3.89,1.16,17.5,8.08,13.61,23.09,0,0-17.5,15-29.17,5.77,0,0-1.45-2.88-4.37-.58s-13.61-2.3-13.61-2.3-4.86-1.16-4.86-8.08-10.7-10.39-10.7-10.39-3.89-1.16-5.83,4.61a13.74,13.74,0,0,1-12.64,0c-6.81-3.46-17.5-3.46-14.58-23.08l2.91-19.62S1258.69,1009.52,1262.58,1010.67Z"/></clipPath><clipPath id="clip-path-6"><path class="cls-6" d="M1095.61,658.12l-6.32,25.3s-62.18-87.48-52.69-93.8S1095.61,658.12,1095.61,658.12Z"/></clipPath><clipPath id="clip-path-7"><path class="cls-6" d="M1221.9,540.61c-1,6.33,16.73,52.7,13.78,53.75s-33.46,62.18-33.46,62.18L1214,679.73s9.84-13.7,15.74-22.13,35.43-54.81,34.44-67.45-23.61-90.64-23.61-90.64-1-6.32-13.78-5.27-48.22-8.43-48.22-8.43l-57.07,1.06S1222.88,534.29,1221.9,540.61Z"/></clipPath><clipPath id="clip-path-8"><path class="cls-12" d="M1095.44,649.69c.19.14,67.18,18.9,114,3.67,0,0,15.15,28.95,16.41,37.5s2.35,41.37,2.34,49.22,2.73,20,3.51,32.81-2,65.66-1.17,65.62-1.17,16.41-2.34,28.13,1.17,56.25,1.17,56.25-3.51,25.78,1.17,37.5-4.68,21.09-4.68,21.09l-6.45,10-35.16-15.23s-.1-84.13-2.34-99.61-18.75-70.31-18.75-70.31-5.78-30.41-7-29.3-5.86,19.92-5.86,30.47-3.51,49.22-5.86,58.59-2.34,39.84-4.69,45.7-4.68,64.46,0,72.66S1107,1005.5,1107,1005.5l-14.06-14.06s-1.17-52.73,0-66.8-1-62.13-2.34-64.45-6.78-85.32-4.69-90.23c1.15-5.87-2.6-43.31-2.34-44.53a194.5,194.5,0,0,1,7-50.39S1095.24,649.56,1095.44,649.69Z"/></clipPath><clipPath id="clip-path-9"><path class="cls-3" d="M1093.19,980.72c1.58.65,1.16,36.37,37,4.54q1.65-1.47,3.41-3.13c1.94-1.84,4-3.86,6.13-6.09,0,0,6,27,2.08,29.45s-29,14.86-31.71,11.39c0,0-13.2,5-17.7-14.91S1090.5,979.6,1093.19,980.72Z"/></clipPath><clipPath id="clip-path-10"><path class="cls-3" d="M1185.77,969.53s38.59,30.66,44.82-8.26c0,0,2.49-2.36,2.49,4.72s5,22.41,0,27.13-17.43,5.9-17.43,5.9-24.9-1.18-28.64-10.62-5-16.51-5-18.87S1184.52,967.17,1185.77,969.53Z"/></clipPath><clipPath id="clip-path-11"><path class="cls-4" d="M1159.56,359.79s29.33-23,47-1.77c0,0-2,11.2-20.73,8.25S1173.21,359.2,1159.56,359.79Z"/></clipPath><clipPath id="clip-path-12"><path class="cls-5" d="M1125.88,418a36.61,36.61,0,0,0,12.11-2.76c7-2.75,11.72,0,11.72,0s1.17,1.84,3.12,0,7.42-1.37,10.94,0,6.64,2.76,9,2.76-9,6.87-14.45,7.79-14.45,0-14.45,0S1131.35,424.39,1125.88,418Z"/></clipPath><clipPath id="clip-path-13"><path class="cls-4" d="M1136.72,359.79s-30.26-23-48.52-1.77c0,0,2.08,11.2,21.39,8.25S1122.63,359.2,1136.72,359.79Z"/></clipPath><clipPath id="clip-path-14"><path class="cls-6" d="M1076.5,540.61c1,6.33-16.18,52.7-13.33,53.75s32.37,62.18,32.37,62.18-60.93-53.75-60-66.39,22.84-90.64,22.84-90.64.95-6.32,13.33-5.27,46.65-8.43,46.65-8.43l55.21,1.06S1075.55,534.29,1076.5,540.61Z"/></clipPath><clipPath id="clip-path-15"><path class="cls-6" d="M1086.15,519.6s-3.26,113.45-7.68,124.14,11.93,14.93,14.54,12.55,20.52,11.32,35.44,4.65c1.94-.71,35-3.56,40.59,1.55s54.63-3.28,51.73-.66,10.75-3.4,9.2-14.69-25-133.36-15.42-134.7-60.63-21.84-60.63-21.84Z"/></clipPath><clipPath id="clip-path-16"><rect class="cls-7" x="1139.26" y="563.27" width="4.18" height="103.28"/></clipPath><clipPath id="clip-path-17"><rect class="cls-7" x="1139.26" y="563.27" width="5.57" height="106.44"/></clipPath><clipPath id="clip-path-18"><path class="cls-8" d="M1115.64,485.28s22.92,44.33,30.95,50.17S1181,485.28,1181,485.28Z"/></clipPath><clipPath id="clip-path-19"><path class="cls-7" d="M1120.2,479.66s-13.7,6-12.29,9.49c0,0,1,15.1,3.86,19.32s8.08,1,8.08,1,12.65-4.21-1,7.38c0,0-8.43,3.51,34.78,22.84l1.75-5.27S1115.29,494.07,1120.2,479.66Z"/></clipPath><clipPath id="clip-path-20"><path class="cls-7" d="M1176.62,481.3s10.24,7.59,10.19,10.76,1.79,15.9-1.34,16.9-10.26-6.52-9.31-1.22,5.46,4.33,4.69,8.55-38.92,49.41-42,49C1136.34,565,1155.66,530.57,1176.62,481.3Z"/></clipPath><clipPath id="clip-path-21"><path class="cls-6" d="M1210.43,545.91s17,23.1,23.52,40.72-5.65-49.6-5.65-49.6l-16.67-2.7Z"/></clipPath></defs><title>introscreenny</title><rect class="cls-1" x="230" y="-1295" width="1920" height="1078"/><g class="cls-13"><rect class="cls-14" x="111.78" y="-797.27" width="2408.61" height="1044.68" transform="translate(275.47 576.42) rotate(-27.49)"/></g><path class="cls-15" d="M548-356.86s-48,65-8,158,35,160,8,204"/><path class="cls-15" d="M1390-297.86s-48,65-8,158,35,160,8,204"/><rect class="cls-2" x="-0.44" y="1.58" width="1920" height="1080"/><g class="cls-16"><rect class="cls-17" x="22.51" y="669.42" width="2099.95" height="727.83" transform="translate(-281.34 412.73) rotate(-19.31)"/></g><path class="cls-18" d="M766.6,809.37s15.52,82.29,29.22,91.78S806,936.77,806,936.77s29.85,76.09,32,18.13c0,0-13.17-19.5-10-39.52s-10.51-60.3-10.51-60.3l-42.18-52.47-8.67,6.76"/><path class="cls-19" d="M784.23,817.89s-3.67,13.53-1.05,23.89-1.81,39.76-2.12,42.51c-.52,4.74-1,20-1,20s-6.32,16.86,0,50.59c0,0-2.11,17.91-4.21,20s19.49,23.71,17.38,21.61,5.27-43.21,10.54-51.64,9.49-28.46,9.49-28.46,3.16-26.35,2.11-43.21S825.86,830,825.86,830s-26.35-33.72-41.63-12.12"/><path class="cls-20" d="M776.74,972.39s-4.71,4-2.47,8.82c0,0-4.45,37.07-6.11,39.15s17.85,15.82,29.34,2.38c0,0-7.09-17.37-2.06-47.53Z"/><path class="cls-21" d="M775.25,974.5s1.85-13.74,3.24-13.83,4.67,6.47,19.88,3.14a51,51,0,0,0-.68,10.25S786.83,979.36,775.25,974.5Z"/><path class="cls-22" d="M768,1021.49s6.59,15.6,29.2,3.5c0,0,2.87,5.47.8,10.92,0,0-16.63,11.19-19.56,10.19-2.54-.87-8.19-2-13.81-14.19A37.14,37.14,0,0,1,768,1021.49Z"/><path class="cls-21" d="M768.3,1019.24s6.59,15.61,29.2,3.5c0,0,2.87,5.48.8,10.93,0,0-16.63,11.19-19.56,10.18-2.54-.87-8.19-2-13.81-14.19A37.14,37.14,0,0,1,768.3,1019.24Z"/><path class="cls-18" d="M837.61,955.12s4.58,2.67,2.43,8.55S848,997.53,851.16,999s-18.65,18-18.65,18l-7.42-8.6s-3.88-35.78-7.59-40.08,5.24-9.79,5.24-9.79Z"/><path class="cls-21" d="M813.17,955.16s5.15,2.48,21.41-7.21c0,0,2.73,8.13,6,8.74s-11.27,11.13-22.84,8.48C817.75,965.17,810.17,956.64,813.17,955.16Z"/><path class="cls-22" d="M850.22,1000s-14.06,26.15-25.68,12.27c0,0-1.21,7.87-.74,8.86s6.14,12.85,10.19,10.91,12.1-9.43,12.1-9.43,9.8-10.75,8.38-13.72Z"/><path class="cls-21" d="M850.32,997s-14.05,26.15-25.67,12.27c0,0-1.22,7.87-.74,8.86s6.14,12.85,10.19,10.91,12.1-9.43,12.1-9.43,9.79-10.75,8.38-13.72Z"/><path class="cls-8" d="M774.21,625.56s2.1,8.43,1,13.7S859,643.47,859,643.47s-1-10.54,1.05-14.75S774.21,625.56,774.21,625.56Z"/><path class="cls-23" d="M731.52,623.14s29.28,58.41,33,66.5S776.93,667,776.93,667s-8.3-25.19-20.22-51.26S731.52,623.14,731.52,623.14Z"/><path class="cls-8" d="M828.19,479.59s-1.35,49.15,32.92,47.34c0,0,13.53,1.81,20.74,1.81s10.82,103.71,10.82,103.71,3.61,15.33-34.27,71.24L848,696S867,636.5,868.78,637.41s-7.22-29.76-10.83-34.27c0,0-9.4,39-14.43,39.68s-58.61-2.71-58.61-2.71-1.81-12.62-6.77-35.62-23-87-23-87L798,480.94Z"/><path class="cls-24" d="M771,546.32s35,48.9,93,3.69c0,0-1.84,6.46,5.52,17.53s-3.68,36-10.12,35.07c0,0-4.6,18.45-7.36,24s-70-.93-70-.93l-15.64-65.51S771.94,556.47,771,546.32Z"/><path class="cls-25" d="M859.58,602.6s-2.09,23.87,1,26-78.72-2.17-78.72-2.17l-8.22-.54s3.67-16.46,1.75-27.49S859.58,602.6,859.58,602.6Z"/><path id="hår" class="cls-26" d="M840.37,341.16s-85.67-4.51-95.59,51.4L798,480.94s.91,50.5-34.27,46.9c0,0-6.31,8.11,8.12,33.36s0,60.42,0,60.42-.9,35.17-48.7,67.64c0,0,23-27.51,23.9-42.84,0,0-9,14.43-20.74,22.55s-11.72,18.94-11.72,18.94S706.45,675.28,729.9,650c0,0,10.82-13.53,7.21-26.15,0,0-5.41,36.07-38.78,37.87,0,0,31.57-16.23,28-53.2,0,0-6.31,36.07-33.37,39.68,0,0,29.76-15.33,15.33-46.9,0,0-15.33-19.84-14.43-35.17,0,0-36.07,23.45-22.54,42.39,0,0-16.23-5.41-3.61-31.57,0,0,37-30.66,18.94-51.4s-35.17-47.79-19.84-76.65,36.07-54.11,33.37-69.44,14.43-57.72,51.4-81.17,66.73-13.52,66.73-13.52,15.33,7.21,18.94,12.62c0,0,21.65-13.52,46,19.84s28,96.5,28,96.5-2.71,58.61-13.53,73S883.2,513,883.2,513s-.9,3.6-.9,16.23c0,0-20.74-3.61-28.86-2.71,0,0-16.23-2.7-20.74-18s-4.51-18-4.51-28.86,49.6-73,49.6-73-3.6-36.07-9.92-45.09C867.87,361.45,839,344.32,840.37,341.16Z"/><path id="ansigt" class="cls-27" d="M740.27,406.09s-.9,0,7.21,30.66c0,0,13.53,21.65,18,28s46.89,22.54,46.89,22.54,2.71,3.61,48.7-27.95c0,0,2.71-5.41,10.82-27.06,0,0,6.31-4.51,8.12-8.11s-.9-18-.9-18l3.6-59.52-64.93-23.45L739.37,343Z"/><path class="cls-28" d="M791.43,392.11s1.81-5.41-4.53-6.31-27.16-6.31-28.07-6.31-.9-1.81-19,9v.9s17.2-7.22,19-7.22c1.62,0,25.59,7.19,31.37,9.37A12.74,12.74,0,0,1,791.43,392.11Z"/><path class="cls-29" d="M738.76,396.17s68.69-60.57,98-55.31c0,0,41.94,56.66,49.15,55.76s-.9-64-.9-64L768.67,304.64l-42.38,43.28Z"/><g id="læbe_og_mund" data-name="læbe og mund"><path class="cls-30" d="M788.51,453.44s2.71.9,11.73-6.32c0,0,6.31-3.6,10.82,0,0,0,8.08-6.27,15.33,0a18.15,18.15,0,0,0,3.75,2.88c2.56,1.63,3.51.42,3.46.73,0,0-1.8,14.43-10.82,17.14s-27,2.7-30.66-9.92a15.43,15.43,0,0,0-1.86-3.33A2.56,2.56,0,0,0,788.51,453.44Z"/><path class="cls-31" d="M803.39,437.65s8.12-3.6,14.43,0"/></g><path class="cls-32" d="M768.5,413.71a23.24,23.24,0,0,1-3.36-.23c-10.77-1.64-13.46-2.48-20.06-5.46,1.24-1.64,6.07-7.12,16.48-9.14a21.79,21.79,0,0,1,4.25-.39c11.55,0,25.15,7.14,27.36,9.5C790.38,409.07,777.9,413.71,768.5,413.71Z"/><path class="cls-32" d="M765.81,398v1c10.54,0,23.2,6.23,26.44,8.82-3.79,1.43-15.1,5.4-23.75,5.4a22.11,22.11,0,0,1-3.28-.23c-10.39-1.57-13.22-2.41-19.35-5.15a19.23,19.23,0,0,1,3-2.88,29.42,29.42,0,0,1,12.78-5.58,21.65,21.65,0,0,1,4.16-.38v-1m0,0a22.7,22.7,0,0,0-4.35.4c-12.63,2.46-17.13,9.84-17.13,9.84,7.21,3.28,9.92,4.1,20.74,5.74a23.48,23.48,0,0,0,3.43.24c10.82,0,25.43-6,25.43-6C793.12,406,778,398,765.81,398Z"/><path class="cls-32" d="M851.4,409.72c-.51,0-1,0-1.52-.07-4.1-.37-8.56-1.06-12.86-1.73a140.34,140.34,0,0,0-15.54-1.85c3.64-2.79,15.94-11.4,28.73-11.4a25,25,0,0,1,18.73,8.21C867.08,404.28,859.35,409.72,851.4,409.72Z"/><path class="cls-32" d="M850.22,394.17v1a24.42,24.42,0,0,1,18,7.64c-2.4,1.75-9.5,6.41-16.78,6.41a14.19,14.19,0,0,1-1.47-.07c-4.09-.37-8.54-1.06-12.84-1.72-5.09-.79-10-1.54-14.19-1.8,4.58-3.33,15.75-10.46,27.31-10.46v-1m0,0c-15.55,0-30.13,12.37-30.13,12.37,8.11,0,19.84,2.71,29.76,3.61.52.05,1,.07,1.56.07,9.37,0,18.28-7.29,18.28-7.29a25.52,25.52,0,0,0-19.47-8.76Z"/><path class="cls-33" d="M789.45,453.54c4.46,2,9.31,3.83,14.13,3,1.3-.21,2.57-.62,3.88-.79a5.66,5.66,0,0,1,3.82.67,2.3,2.3,0,0,0,1.26.59,3,3,0,0,0,1.13-.52c1.08-.55,2.37,0,3.56.24,3.37.77,6.84-.5,10.06-1.75,2.32-.9,4.8-1.93,6.05-4.08"/><path class="cls-34" d="M828.19,395.72s29.76-18,41.49,7.21"/><path class="cls-35" d="M837.63,396.47s-.42,11.88,5.22,13,14.28.45,14.46-.11,7.93-5.3,5.87-11.5A28.49,28.49,0,0,0,837.63,396.47Z"/><path class="cls-36" d="M842.7,395.27s-.53,10.82,7.59,10.82,9-5.41,9-7.21a9.37,9.37,0,0,0-.49-3.08S849.54,392.56,842.7,395.27Z"/><ellipse class="cls-37" cx="848.03" cy="397.97" rx="2.71" ry="2.25"/><path class="cls-38" d="M820.08,406.54s29.76-25.25,49.6-3.61c0,0-9.92,8.12-19.84,7.22S828.19,406.54,820.08,406.54Z"/><path class="cls-39" d="M869.82,403.2a19.45,19.45,0,0,1,1.77,1.86"/><path class="cls-39" d="M826.29,407l-.77,1.68a3.92,3.92,0,0,1-1.08,1.59"/><path class="cls-39" d="M828,407.27l0,1a6.61,6.61,0,0,1,0,1.09,6.52,6.52,0,0,1-.56,1.77"/><path class="cls-39" d="M830.82,407.83c-.05,0,0-.09,0-.05s0,.1,0,.14a3.81,3.81,0,0,0-.55,2.9"/><path class="cls-39" d="M832.72,408.33a10.48,10.48,0,0,0,0,3.26"/><path class="cls-39" d="M835.07,408.27c.12,0,.15.16.15.28a9.08,9.08,0,0,1-.63,3.16"/><path class="cls-39" d="M838.22,408.75a11.42,11.42,0,0,0-.64,3.32"/><path class="cls-39" d="M840.43,409a.36.36,0,0,0-.29.3,1.3,1.3,0,0,0,0,.44,4.7,4.7,0,0,1-.57,2.77"/><path class="cls-39" d="M843.1,409.64c-.06-.07-.15.05-.16.14a13,13,0,0,0-.06,2.65"/><path class="cls-39" d="M846.71,410.13a14.92,14.92,0,0,0,0,3.34"/><path class="cls-39" d="M849.5,410.42c0-.11-.2,0-.22.14a5.26,5.26,0,0,0,0,2.2"/><path class="cls-39" d="M867.81,404.59c.08-.13.28,0,.39.07a8,8,0,0,1,1.64,2.23"/><path class="cls-39" d="M866,406l-.14.14a6.41,6.41,0,0,0,1.48,2.36"/><path class="cls-39" d="M863.85,407.2a4.81,4.81,0,0,0,1.16,2.51"/><path class="cls-39" d="M861.38,408.35l-.1-.24a6.3,6.3,0,0,1,1.2,2.43"/><path class="cls-39" d="M859.19,409c-.16,0-.16.25-.1.41a4.75,4.75,0,0,0,1.13,1.76"/><path class="cls-39" d="M857.8,409.86l.6,1.72"/><path class="cls-39" d="M855.37,410.05a2.09,2.09,0,0,0,.32,1.81"/><path class="cls-39" d="M854,410.34a3.38,3.38,0,0,1-.06,2.22"/><path class="cls-39" d="M851.4,410.61a13.41,13.41,0,0,0,.56,1.87"/><path class="cls-40" d="M836,390c.18.37-.1,5-.18,6.87a.72.72,0,0,1-.06.29.65.65,0,0,1-.34.24c-.53.23-1.7,1.12-1.76.29,0-.62.79-1.73,1-2.34a24.17,24.17,0,0,0,.77-2.64C835.59,392.11,836.22,390.5,836,390Z"/><path class="cls-40" d="M872.57,398.91a2.81,2.81,0,0,1,1-.76,1.29,1.29,0,0,1-.46.69,36.59,36.59,0,0,0-3.13,3.34.63.63,0,0,1-.3.24c-.2.05-.39-.11-.53-.26a2.79,2.79,0,0,1-.46-.58A18.67,18.67,0,0,0,872.57,398.91Z"/><path class="cls-40" d="M868.9,399.15c.62-.48,1.21-1,1.81-1.52l1.81-1.58a18.71,18.71,0,0,1-4.15,4.23,1.45,1.45,0,0,1-.84.43.69.69,0,0,1-.64-.43A11.1,11.1,0,0,0,868.9,399.15Z"/><path class="cls-40" d="M869.63,395.48a10.53,10.53,0,0,1,1.7-1.64,1.23,1.23,0,0,1-.48.88l-2.73,2.75a12.48,12.48,0,0,1-2.33,2.27c-.14-.63.52-1.3,1-1.67A33.67,33.67,0,0,0,869.63,395.48Z"/><path class="cls-40" d="M867.31,394.23l2.06-2a1.12,1.12,0,0,1-.37.83l-4.17,4.9a.58.58,0,0,1-.27.22.54.54,0,0,1-.28,0,2.38,2.38,0,0,1-1.17-.62C864.52,396.45,866,395.5,867.31,394.23Z"/><path class="cls-40" d="M865.58,391.61a2.3,2.3,0,0,1,.8-.69,39,39,0,0,1-4,6,.3.3,0,0,1-.17.13.36.36,0,0,1-.24-.06,6.87,6.87,0,0,1-1.22-.78C862.66,395.25,864.19,393.22,865.58,391.61Z"/><path class="cls-40" d="M863.1,389.23a2,2,0,0,1,.82-.85c-.36.16-.95,1.7-1.15,2.06-.38.69-.75,1.38-1.13,2.06s-1.62,3.88-2.51,3.23.91-2.24,1.28-2.71C861.36,391.8,862.26,390.53,863.1,389.23Z"/><path class="cls-40" d="M855.81,393.77A9.48,9.48,0,0,0,857,392.3c1-1.41,1.95-2.78,3-4.13a1.22,1.22,0,0,1,.5-.43,3.77,3.77,0,0,1-.45,1.15l-3.16,5.85C856.79,394.81,854.61,395,855.81,393.77Z"/><path class="cls-40" d="M856.59,386a2.53,2.53,0,0,1-.3,1.84q-1.29,2.94-2.34,6c-.05.15-.11.3-.26.35a.59.59,0,0,1-.26,0c-1.12-.3-1.08-.36-.54-1.4l1.18-2.26c.39-.75.79-1.5,1.19-2.25C855.48,387.84,856.56,386.12,856.59,386Z"/><path class="cls-40" d="M850.82,389.62c.32-.66,1.11-2.85,1.42-3.37a1.67,1.67,0,0,1,.15,1.19q-.42,3.42-.93,6.83c0-.32-3,.82-2.55-.81A26.4,26.4,0,0,1,850.82,389.62Z"/><path class="cls-40" d="M846.49,392a6.09,6.09,0,0,0,.42-1.07,42.76,42.76,0,0,1,2.06-5.12,14.53,14.53,0,0,1-.23,2.41,25.91,25.91,0,0,0-1,5.23.76.76,0,0,1-.16.46.7.7,0,0,1-.38.14c-.36.06-1.93.55-2.22.23S846.32,392.33,846.49,392Z"/><path class="cls-40" d="M838.5,394.28,840,389a3,3,0,0,1,.57-1.28c.21.06.22.35.19.57a41.12,41.12,0,0,0-.41,7,.6.6,0,0,1-.1.42.42.42,0,0,1-.24.12c-.45.15-1.43.72-1.78.22S838.5,394.77,838.5,394.28Z"/><path class="cls-41" d="M845,386.32c.29,2.67-.92,5.29-.85,8a.61.61,0,0,1-.06.33.53.53,0,0,1-.26.18c-.76.31-1.91.81-1.54-.31.31-.93.79-1.82,1.13-2.73s.63-1.81.9-2.73A9.07,9.07,0,0,0,845,386.32Z"/><path class="cls-35" d="M756.48,400.29s-.45,11.85,5.18,13,14.28.49,14.47-.07,7.94-5.27,5.9-11.46A28.53,28.53,0,0,0,756.48,400.29Z"/><path class="cls-36" d="M761.54,399.12s-.53,10.81,7.59,10.81,9-5.41,9-7.21a9.34,9.34,0,0,0-.49-3.07S768.37,396.42,761.54,399.12Z"/><ellipse class="cls-37" cx="766.42" cy="401.37" rx="2.71" ry="2.25"/><path class="cls-38" d="M744.33,408.23s4.5-7.38,17.13-9.85,31.56,7.39,32.47,9.85c0,0-18,7.38-28.86,5.74S751.54,411.51,744.33,408.23Z"/><path class="cls-34" d="M744.33,408.35s6.31-27.06,40.58-11.73"/><path class="cls-40" d="M780,393.58c-.2.37.12,5,.21,6.87a.52.52,0,0,0,.06.28.77.77,0,0,0,.38.25c.6.23,1.93,1.12,2,.29.05-.62-.9-1.73-1.15-2.34a22.64,22.64,0,0,1-.87-2.64C780.48,395.72,779.77,394.1,780,393.58Z"/><path class="cls-40" d="M740.55,404.32a3.13,3.13,0,0,0-1.18-.75,1.24,1.24,0,0,0,.51.68,38.67,38.67,0,0,1,3.54,3.34.65.65,0,0,0,.34.24.72.72,0,0,0,.6-.25,4.78,4.78,0,0,0,.52-.59A21,21,0,0,1,740.55,404.32Z"/><path class="cls-40" d="M744.45,404.55c-.66-.49-1.29-1-1.92-1.52l-1.92-1.56a18.92,18.92,0,0,0,4.4,4.2,1.61,1.61,0,0,0,.89.42.71.71,0,0,0,.68-.42A12.74,12.74,0,0,1,744.45,404.55Z"/><path class="cls-40" d="M743.87,400a11.24,11.24,0,0,0-1.93-1.64c0,.34.28.64.56.88l3.08,2.75a12.9,12.9,0,0,0,2.63,2.27c.15-.63-.59-1.3-1.09-1.68A35.38,35.38,0,0,1,743.87,400Z"/><path class="cls-40" d="M746.49,398.74l-2.33-2c0,.31.19.59.42.83l4.7,4.9a.68.68,0,0,0,.31.22.7.7,0,0,0,.32,0,2.75,2.75,0,0,0,1.31-.62C749.64,401,748,400,746.49,398.74Z"/><path class="cls-40" d="M748.44,396.12a2.53,2.53,0,0,0-.91-.7,38.65,38.65,0,0,0,4.58,6,.31.31,0,0,0,.19.13.4.4,0,0,0,.26-.06,7.72,7.72,0,0,0,1.39-.78C751.74,399.76,750,397.73,748.44,396.12Z"/><path class="cls-40" d="M751.23,393.74a2.1,2.1,0,0,0-.92-.85c.41.15,1.07,1.7,1.29,2.06l1.29,2.06c.38.62,1.82,3.88,2.82,3.23s-1-2.24-1.44-2.71C753.2,396.31,752.18,395,751.23,393.74Z"/><path class="cls-40" d="M758.56,398.28a10.53,10.53,0,0,1-1.29-1.47c-1.07-1.41-2.2-2.78-3.37-4.13a1.24,1.24,0,0,0-.57-.43,3.49,3.49,0,0,0,.52,1.15l3.57,5.85C757.46,399.32,759.92,399.46,758.56,398.28Z"/><path class="cls-40" d="M758.28,390.25a2.27,2.27,0,0,0,.08,1.87c.68,2.08,1.27,4.19,1.77,6.31a.52.52,0,0,0,.24.38.57.57,0,0,0,.29,0c1.31-.12,1.27-.19.81-1.3-.34-.8-.67-1.61-1-2.42l-1-2.42C759.26,392.24,758.3,390.35,758.28,390.25Z"/><path class="cls-40" d="M764.2,393.23c-.37-.66-1.26-2.86-1.6-3.37a1.43,1.43,0,0,0-.18,1.18q.48,3.43,1.05,6.84c-.05-.32,3.42.82,2.88-.81A25.53,25.53,0,0,0,764.2,393.23Z"/><path class="cls-40" d="M769.09,395.65a5.52,5.52,0,0,1-.49-1.08,41.7,41.7,0,0,0-2.31-5.11,11.7,11.7,0,0,0,.26,2.41,23.59,23.59,0,0,1,1.17,5.22.63.63,0,0,0,.17.46.83.83,0,0,0,.44.15c.4.06,2.17.54,2.5.23S769.27,395.93,769.09,395.65Z"/><path class="cls-40" d="M778.63,397.87l-1.14-5.36a3.12,3.12,0,0,0-.5-1.3c-.22,0-.25.33-.24.55a38.42,38.42,0,0,1,0,6.95.52.52,0,0,0,.07.42.63.63,0,0,0,.24.14c.45.17,1.43.8,1.82.33S778.6,398.36,778.63,397.87Z"/><path class="cls-41" d="M771.72,389.93c-.32,2.66,1,5.29,1,8a.55.55,0,0,0,.07.33.65.65,0,0,0,.29.18c.86.31,2.15.81,1.74-.31-.35-.93-.89-1.82-1.27-2.74s-.71-1.81-1-2.73A8.13,8.13,0,0,1,771.72,389.93Z"/><path class="cls-40" d="M831.29,397.17c.18-.78.31-1.56.44-2.35l.41-2.39a18.41,18.41,0,0,1-.54,5.94,1.53,1.53,0,0,1-.38.88.69.69,0,0,1-.77.1A11.71,11.71,0,0,0,831.29,397.17Z"/><path class="cls-28" d="M820.08,390.31s-1.81-5.41,4.51-6.31,27-6.32,27.95-6.32.9-1.8,18.94,9v.9s-17.13-7.21-18.94-7.21c-1.61,0-25.48,7.18-31.24,9.37A10.65,10.65,0,0,0,820.08,390.31Z"/><path class="cls-39" d="M746.62,409.37c-.07-.11-.27,0-.3.14a3.83,3.83,0,0,0,0,2.2"/><path class="cls-39" d="M748.85,410.13a10.55,10.55,0,0,0,0,3.27"/><path class="cls-39" d="M751.35,411a9.45,9.45,0,0,0,0,3.27"/><path class="cls-39" d="M753.91,412.37c-.06-.13-.2,0-.22.18a7.71,7.71,0,0,0,0,2.71"/><path class="cls-39" d="M756.5,412.69l0,.61a2,2,0,0,0,.11.67,2.87,2.87,0,0,0,.86,1"/><path class="cls-39" d="M759.41,413.5a23.15,23.15,0,0,0,.56,2.36"/><path class="cls-39" d="M788.1,410.8a4.84,4.84,0,0,0,1.16,2.52"/><path class="cls-39" d="M785.24,411.69c-.16,0-.16.26-.1.41a4.79,4.79,0,0,0,1.13,1.77"/><path class="cls-39" d="M782.53,412.59c-.16,0-.15.26-.1.41a4.79,4.79,0,0,0,1.13,1.77"/><path class="cls-39" d="M762,413.51a4.84,4.84,0,0,0,1.16,2.52"/><path class="cls-39" d="M771.79,414.45a4.86,4.86,0,0,0,1.31,2.44"/><path class="cls-39" d="M765.55,414.41a4.78,4.78,0,0,0,1.17,2.52"/><path class="cls-39" d="M769.61,414.48l.07,2.1"/><path class="cls-39" d="M775,413.74a11.13,11.13,0,0,0,0,3.26"/><path class="cls-39" d="M777.83,413.28s0-.09,0-.07,0,.08,0,.14a3.8,3.8,0,0,0,.8,2.83"/><path class="cls-42" d="M866.52,562.1S829,588.8,830.45,628.84"/><path class="cls-42" d="M774.79,566.51s22.11-.09,25.63,61"/><path class="cls-9" d="M775.18,635.92l84.89,3.16s-2.13,10.19,4.24,61.83-5.31,68.5-5.31,68.5l-32.89,60.07s-29.86-2.19-49.26-11.35c-7.47-3.52-13.39-8.08-15.46-13.94-7.43-21.08-19.1-85.36-11.67-99.07,0,0,3.18-24.23,13.79-45.31s11.67-23.89,11.67-23.89h0"/><g class="cls-43"><path class="cls-44" d="M724.85,815.44S896.63,729,893.27,708.16s-49.53,136.11-49.53,136.11S731.87,832.46,724.85,815.44Z"/></g><path class="cls-45" d="M791.08,636.62s-16.87,15.28-19.76,44.53h0"/><path class="cls-46" d="M769.12,339.11c3.12,1.61,6.75-.62,9.71-2.51,8.36-5.33,17.88-8.55,26.61-13.24a6.58,6.58,0,0,0,3.07-2.8c-5.06-2.67-15.2,3.46-19.77,5.72C786.59,327.33,769.62,339.37,769.12,339.11Z"/><path class="cls-46" d="M722.9,373.94c2.12-.06,3.11-2.6,3.63-4.66a93.15,93.15,0,0,1,17.36-35.12c2.26-2.85,4.8-5.8,5.22-9.41.17-1.47-4,2.27-4.07,2.4a51.77,51.77,0,0,0-4.49,6.1,116.28,116.28,0,0,0-17.65,40.69Z"/><path class="cls-46" d="M857.16,335.26a96.12,96.12,0,0,1,7.88,9c3.31,4.5,5.85,9.58,9.63,13.69a1.76,1.76,0,0,0,.91.62c.7.12,1.28-.65,1.24-1.36a3.56,3.56,0,0,0-.9-1.87l-13.41-17.67c-1.4-1.85-8.76-12.86-11.6-11.64C848.42,327.09,856.26,334.31,857.16,335.26Z"/><path class="cls-46" d="M885.43,468.71c-.63,1.5-1.29,3.14-.88,4.72,1.79-.09,2.83-2,3.49-3.68,2.24-5.7,4.12-11.55,6-17.38l2.86-8.93c1.33-4.15,2.84-8.3,4-12.51-6.21,1-6.23,9.5-7.49,14.34A172.8,172.8,0,0,1,885.43,468.71Z"/><path class="cls-47" d="M844.15,503.63c-.2,1.47-.28,3.16.77,4.2,2.12-2.2,2.36-5.53,2.8-8.55a44.26,44.26,0,0,1,3.18-11.22c1.18-2.73,3.86-6.83,3-9.75C847.71,480.54,844.94,497.92,844.15,503.63Z"/><path class="cls-48" d="M689.42,447a72.43,72.43,0,0,0-8.76,14.63c-2.17,5.27-3.23,11.13-2.1,16.71,1.85-2.21,2.31-5.22,3-8a47.51,47.51,0,0,1,6.54-15.3c2.15-3.28,4.7-6.28,6.74-9.63s3.58-7.16,3.39-11.07c0,.2-3.68,4.19-4.18,5.1A64.73,64.73,0,0,1,689.42,447Z"/><path class="cls-46" d="M711.17,431.78c-2.2,5.07-4.78,10-6.21,15.36s-1.6,11.27.92,16.19c1.91-3.35.69-7.52.86-11.37.4-9.18,12.69-20.22,8.3-29.35C712.33,423.63,712.24,429.31,711.17,431.78Z"/><path class="cls-46" d="M711.82,538.35c1.36,3.36,3.61,6.28,5.38,9.44,3.54,6.32,5.11,13.53,6.65,20.61l1.51,7c2-.72,2.5-3.37,2.33-5.51-.59-7.6-4.86-14.34-8.71-20.92a51.24,51.24,0,0,1-6.91-20.22C709.7,530.86,710.77,535.73,711.82,538.35Z"/><path class="cls-46" d="M749.84,629a5.32,5.32,0,0,0-1,3.48,19,19,0,0,0,2.53-4c3.39-6.49,6.86-13.36,6.59-20.67a8.3,8.3,0,0,0-.94-3.91c-1.79.72-1.44,9.84-2,12.26A53.83,53.83,0,0,1,749.84,629Z"/><path class="cls-49" d="M1075.67,315s-9.82,4.79-17.85,23.15-13.38,18.36-13.38,18.36,4.46,5.59,11.6,1.6c0,0-14.28,25.54-19.63,42.31,0,0,13.38-4.79,21.41-20.76A71.11,71.11,0,0,0,1056,422s-3.57,17.57-12.5,20.76c0,0,13.39,2.39,19.63-6.39s13.39-8.78,13.39-8.78-3.57,16,4.46,25.55-4.46,17.56-4.46,17.56,21.41,1.6,33-16c0,0,10.71,16-.89,22.36,0,0,3.57,6.38,11.6.8s56.21-.8,56.21-.8l8,4s-8.92-12.77-1.78-23.95c0,0,25,12,28.55,20.76,0,0-8.92-35.13,0-31.94s10.7,5.59,33.9,8.78c0,0-17.84-18.36-15.16-24.74s-5.36-16-5.36-16,16.95-6.39,31.23,3.19c0,0-19.63-38.32-11.6-35.92a35.09,35.09,0,0,1,12.49,6.38s-22.3-35.92-11.6-37.52c0,0,4.46-4,7.14-2.39s-15.17-8.78-17.84-22.36C1234.49,325.39,1205,287.87,1075.67,315Z"/><path class="cls-50" d="M1122.91,443.44s10.45,31.27-6,45.93l62.18-.82s-13.24-19.2-5.75-49.92Z"/><path class="cls-51" d="M1122.91,443.44s10.45,31.27-6,45.93l62.18-.82s-13.24-19.2-5.75-49.92Z"/><path class="cls-52" d="M1072,320.63s0,46.3,6.25,58.27,4.46,24,44.61,70.26c0,0,19.63,8.78,51.75,1.59,0,0,20.52-13.57,41.94-71.85a337.14,337.14,0,0,0,0-65.46S1149.67,284.7,1072,320.63Z"/><rect class="cls-52" x="1072.03" y="358.87" width="9.54" height="27.7" rx="4.28" transform="translate(-46.98 184.2) rotate(-9.57)"/><rect class="cls-52" x="1213.1" y="360.34" width="9.54" height="24.29" rx="4.28" transform="translate(89.26 -217.59) rotate(10.6)"/><path class="cls-10" d="M1066.1,329s7.33,14.93,7.33,39,19.12-57.42,15-58.56S1066.1,329,1066.1,329Z"/><path class="cls-10" d="M1187.91,299.91s26.5,29.21,26,61.85,12.34-27.49,12.34-27.49l-15.54-33.21Z"/><path class="cls-53" d="M1098.68,1011.38s-6.2,7.07-3.1,13.12,3.1,10.09,3.1,10.09,2.07,6.06,10.34,1,17.57,1,17.57,1,7.24,8.08,12.4-2a26.43,26.43,0,0,0,2.07-19.17Z"/><path class="cls-54" d="M1095.56,1017.44s-3,5,2,14.13c0,0,1,4,0,7.06s10.09,6.06,10.09,6.06,31.29,9.08,33.31-14.13c0,0-4.55,12.61-12.62,7.57,0,0-6.06-16.15-20.18-3C1108.18,1035.1,1100.1,1044.18,1095.56,1017.44Z"/><path class="cls-55" d="M1093.51,999.27a45.3,45.3,0,0,0,4.4,12.11s1.11,7.07-1.1,11.1,9.92,14.13,13.23,11.11,11-7.07,17.64,2c0,0,22,0,11-30.27S1093.51,999.27,1093.51,999.27Z"/><g id="kasket"><circle class="cls-56" cx="1108.62" cy="299.55" r="1.78"/><path class="cls-57" d="M1071.59,322.31s64.25-36.59,144.55-8c0,0-14.28-70.48-71.38-66s-66.92,48.18-66.92,48.18S1069.81,317.84,1071.59,322.31Z"/><path class="cls-49" d="M1116.21,287.51s32.12-7.75,50.86-3.88C1167.07,283.63,1135.84,238.68,1116.21,287.51Z"/><path class="cls-58" d="M1115.46,288.58s-9.77,1.33-10.94,2.41-.39,7.92-.39,7.92.78,8.65,1.56,9,12.37-1.92,12.37-1.92l.85-.18Z"/><path class="cls-59" d="M1116.33,288.39s30.37-8.2,51.07-3.91"/><path class="cls-10" d="M1120.28,297.77a1.8,1.8,0,1,1-.44-1.17A1.78,1.78,0,0,1,1120.28,297.77Z"/><g class="cls-60"><rect class="cls-61" x="1117.27" y="296.78" width="3.52" height="1.58" transform="translate(-33.08 181.78) rotate(-9.15)"/></g><rect class="cls-61" x="1112.95" y="287.81" width="5.39" height="20.3" transform="translate(-33.33 182.64) rotate(-9.22)"/><circle class="cls-10" cx="1125.03" cy="296.43" r="1.78"/><circle class="cls-10" cx="1131.67" cy="295.26" r="1.78"/></g><path class="cls-55" d="M1262.58,1010.67c3.89,1.16,17.5,8.08,13.61,23.09,0,0-17.5,15-29.17,5.77,0,0-1.45-2.88-4.37-.58s-13.61-2.3-13.61-2.3-4.86-1.16-4.86-8.08-10.7-10.39-10.7-10.39-3.89-1.16-5.83,4.61a13.74,13.74,0,0,1-12.64,0c-6.81-3.46-17.5-3.46-14.58-23.08l2.91-19.62S1258.69,1009.52,1262.58,1010.67Z"/><g class="cls-62"><path class="cls-63" d="M1176.29,993.94s17.75,18.47,37.19,18.47c0,0,6.64-3.3,23.74,15.66,0,0,23.9,8.58,28.76,1.65s8.75,38.09,8.75,38.09l-96.25,4.62Z"/><path class="cls-64" d="M1278.14,1019s-11.67,3.55-12.4,10.58-16.29,7-16.29,7-2.91,1.15-2.91,8.08,37.92-5.78,37.92-5.78Z"/><path class="cls-65" d="M1243.62,1043.57s-4.86-23.08-21.39-6.92S1243.62,1043.57,1243.62,1043.57Z"/><path class="cls-65" d="M1211.05,1020.77s-22.85-.28-37.43-15.29l-14.58-15h0l35,41.56,15.55-2.31,1.46-9"/></g><path class="cls-66" d="M1262.58,1010.67c3.89,1.16,17.5,8.08,13.61,23.09,0,0-17.5,15-29.17,5.77,0,0-1.45-2.88-4.37-.58s-13.61-2.3-13.61-2.3-4.86-1.16-4.86-8.08-10.7-10.39-10.7-10.39-3.89-1.16-5.83,4.61a13.74,13.74,0,0,1-12.64,0c-6.81-3.46-17.5-3.46-14.58-23.08l2.91-19.62S1258.69,1009.52,1262.58,1010.67Z"/><path class="cls-11" d="M1226.43,982.72s29.2,25.52,35.68,28.35-41.08-9.92-41.08-9.92Z"/><path class="cls-6" d="M1095.61,658.12l-6.32,25.3s-62.18-87.48-52.69-93.8S1095.61,658.12,1095.61,658.12Z"/><g class="cls-67"><path class="cls-68" d="M1083.05,667.3s-10.53,1.62-8.1,7.29c0,0,6.48-6.48,8.1-5.67,0,0-7.29,3.24-4.86,8.1,0,0,4-8.91,5.67-7.29,0,0,1.62,10.52,5.66,10.52a28.46,28.46,0,0,1-.81-4.85c0-1.62-1.61-5.67-1.61-5.67s8.09,1.62,8.9,5.67c0,0,2.43-9.72-8.09-8.91,0,0,4.85-4,10.52-3.24,0,0-7.29-4.85-12.14,1.62,0,0,7.28-7.28,8.9-6.47,0,0-4-4-10.52,5.66,0,0-3.24-5.66-7.29-4.85a1.59,1.59,0,0,1,1.62,1.62C1079,662.44,1083.05,667.3,1083.05,667.3Z"/><path class="cls-68" d="M1065.13,657.82s-10.52,1.62-8.09,7.28c0,0,6.47-6.47,8.09-5.66,0,0-7.28,3.23-4.86,8.09,0,0,4-8.9,5.67-7.28,0,0,1.62,10.52,5.67,10.52a28.64,28.64,0,0,1-.81-4.86c0-1.62-1.62-5.66-1.62-5.66s8.1,1.61,8.9,5.66c0,0,2.43-9.71-8.09-8.9,0,0,4.86-4,10.52-3.24,0,0-7.28-4.86-12.14,1.62,0,0,7.29-7.29,8.91-6.48,0,0-4-4-10.53,5.67,0,0-3.24-5.67-7.28-4.86a1.58,1.58,0,0,1,1.61,1.62C1061.08,653,1065.13,657.82,1065.13,657.82Z"/><path class="cls-68" d="M1059.08,645.71s-4.16,9.8,1.94,10.72c0,0-2.1-8.92-.56-9.87,0,0-1.08,7.9,4.33,8.39,0,0-5.44-8.12-3.22-8.65,0,0,9.8,4.16,11.93.72a28.06,28.06,0,0,1-4.55-1.87c-1.38-.85-5.67-1.6-5.67-1.6s5.64-6,9.5-4.59c0,0-7-7.18-11.83,2.2,0,0-.88-6.26,2.79-10.66,0,0-8,3.64-5,11.18,0,0-2.36-10-.82-11,0,0-5.57,1.31-.72,11.93,0,0-6.52-.23-8,3.64a1.58,1.58,0,0,1,2.23-.52C1052.82,646.6,1059.08,645.71,1059.08,645.71Z"/></g><path class="cls-6" d="M1221.9,540.61c-1,6.33,16.73,52.7,13.78,53.75s-33.46,62.18-33.46,62.18L1214,679.73s9.84-13.7,15.74-22.13,35.43-54.81,34.44-67.45-23.61-90.64-23.61-90.64-1-6.32-13.78-5.27-48.22-8.43-48.22-8.43l-57.07,1.06S1222.88,534.29,1221.9,540.61Z"/><g class="cls-69"><path class="cls-68" d="M1231,640.28s-10.52,1.62-8.09,7.29c0,0,6.47-6.48,8.09-5.67,0,0-7.29,3.24-4.86,8.1,0,0,4-8.91,5.67-7.29,0,0,1.62,10.53,5.67,10.53a28.64,28.64,0,0,1-.81-4.86c0-1.62-1.62-5.67-1.62-5.67s8.09,1.62,8.9,5.67c0,0,2.43-9.72-8.09-8.91,0,0,4.85-4,10.52-3.23,0,0-7.28-4.86-12.14,1.61,0,0,7.28-7.28,8.9-6.47,0,0-4-4-10.52,5.66,0,0-3.24-5.66-7.29-4.85a1.59,1.59,0,0,1,1.62,1.62C1227,635.43,1231,640.28,1231,640.28Z"/><path class="cls-68" d="M1226.38,617.77s-10.53,1.62-8.1,7.28c0,0,6.48-6.47,8.1-5.66,0,0-7.29,3.24-4.86,8.09,0,0,4-8.9,5.67-7.28,0,0,1.62,10.52,5.66,10.52a28.64,28.64,0,0,1-.81-4.86c0-1.61-1.61-5.66-1.61-5.66s8.09,1.62,8.9,5.66c0,0,2.43-9.71-8.1-8.9,0,0,4.86-4.05,10.53-3.24,0,0-7.29-4.86-12.14,1.62,0,0,7.28-7.29,8.9-6.48,0,0-4-4-10.52,5.67,0,0-3.24-5.67-7.29-4.86a1.59,1.59,0,0,1,1.62,1.62C1222.33,612.91,1226.38,617.77,1226.38,617.77Z"/><path class="cls-68" d="M1248.21,622.19s-1.93-10.47-7.52-7.88c0,0,6.66,6.29,5.9,7.93,0,0-3.45-7.19-8.23-4.62,0,0,9,3.79,7.44,5.45,0,0-10.47,1.92-10.35,6a28.88,28.88,0,0,1,4.83-.95c1.62-.05,5.62-1.78,5.62-1.78s-1.39,8.14-5.41,9.06c0,0,9.78,2.15,8.67-8.35,0,0,4.18,4.74,3.54,10.43,0,0,4.64-7.42-2-12.09,0,0,7.49,7.07,6.73,8.71,0,0,3.93-4.16-6-10.35,0,0,5.57-3.4,4.64-7.43a1.59,1.59,0,0,1-1.57,1.67C1252.94,618,1248.21,622.19,1248.21,622.19Z"/><path class="cls-68" d="M1236.92,598.8s-10.53,1.62-8.1,7.28c0,0,6.48-6.47,8.1-5.66,0,0-7.29,3.24-4.86,8.09,0,0,4-8.9,5.67-7.28,0,0,1.61,10.52,5.66,10.52a28.64,28.64,0,0,1-.81-4.86c0-1.61-1.62-5.66-1.62-5.66s8.1,1.62,8.91,5.66c0,0,2.43-9.71-8.1-8.9,0,0,4.86-4,10.53-3.24,0,0-7.29-4.86-12.15,1.62,0,0,7.29-7.29,8.91-6.48,0,0-4-4-10.52,5.67,0,0-3.24-5.67-7.29-4.86a1.59,1.59,0,0,1,1.62,1.62C1232.87,593.94,1236.92,598.8,1236.92,598.8Z"/><path class="cls-68" d="M1254.83,608.28s-10.52,1.62-8.09,7.29c0,0,6.47-6.48,8.09-5.67,0,0-7.28,3.24-4.85,8.1,0,0,4-8.91,5.66-7.29,0,0,1.62,10.53,5.67,10.53a28.64,28.64,0,0,1-.81-4.86c0-1.62-1.62-5.67-1.62-5.67s8.1,1.62,8.9,5.67c0,0,2.43-9.71-8.09-8.91,0,0,4.86-4,10.52-3.23,0,0-7.28-4.86-12.14,1.62,0,0,7.29-7.29,8.91-6.48,0,0-4-4-10.53,5.67,0,0-3.24-5.67-7.28-4.86a1.58,1.58,0,0,1,1.61,1.62C1250.78,603.43,1254.83,608.28,1254.83,608.28Z"/><path class="cls-68" d="M1259.36,591s-10.53,1.62-8.1,7.28c0,0,6.48-6.47,8.1-5.66,0,0-7.29,3.23-4.86,8.09,0,0,4-8.9,5.66-7.29,0,0,1.62,10.53,5.67,10.53a28.64,28.64,0,0,1-.81-4.86c0-1.62-1.62-5.67-1.62-5.67s8.1,1.62,8.91,5.67c0,0,2.43-9.71-8.1-8.9,0,0,4.86-4,10.53-3.24,0,0-7.29-4.86-12.15,1.62,0,0,7.29-7.29,8.91-6.48,0,0-4-4-10.53,5.67,0,0-3.23-5.67-7.28-4.86a1.59,1.59,0,0,1,1.62,1.62C1255.31,586.1,1259.36,591,1259.36,591Z"/><path class="cls-68" d="M1252.72,571.4s-10.52,1.62-8.09,7.28c0,0,6.48-6.47,8.09-5.66,0,0-7.28,3.24-4.85,8.09,0,0,4.05-8.9,5.66-7.28,0,0,1.62,10.52,5.67,10.52a28.64,28.64,0,0,1-.81-4.86c0-1.62-1.62-5.66-1.62-5.66s8.1,1.62,8.91,5.66c0,0,2.43-9.71-8.1-8.9,0,0,4.86-4.05,10.53-3.24,0,0-7.29-4.86-12.15,1.62,0,0,7.29-7.29,8.91-6.48,0,0-4-4-10.53,5.67,0,0-3.23-5.67-7.28-4.86a1.59,1.59,0,0,1,1.62,1.62C1248.68,566.54,1252.72,571.4,1252.72,571.4Z"/><path class="cls-68" d="M1233.86,593.88s-9.94,3.82-6.36,8.84c0,0,5-7.71,6.71-7.26,0,0-6.43,4.71-3,8.94,0,0,2.06-9.56,4-8.32,0,0,3.82,9.93,7.78,9.07a29,29,0,0,1-1.83-4.57c-.34-1.58-2.79-5.19-2.79-5.19s8.26-.14,9.91,3.64c0,0,.31-10-9.8-7,0,0,3.88-5,9.59-5.4,0,0-8.15-3.2-11.52,4.16,0,0,5.57-8.67,7.32-8.22,0,0-4.81-3.09-9.08,7.78,0,0-4.36-4.85-8.15-3.2a1.59,1.59,0,0,1,1.93,1.24C1228.87,590,1233.86,593.88,1233.86,593.88Z"/><path class="cls-68" d="M1249.56,546s2.37,10.38,7.85,7.55c0,0-6.92-6-6.23-7.67,0,0,3.75,7,8.42,4.27,0,0-9.17-3.4-7.67-5.13,0,0,10.38-2.37,10.09-6.41a28.11,28.11,0,0,1-4.79,1.15c-1.61.12-5.54,2-5.54,2s1-8.19,5-9.29c0,0-9.87-1.73-8.3,8.71,0,0-4.39-4.55-4-10.26,0,0-4.32,7.61,2.49,12,0,0-7.79-6.74-7.1-8.41,0,0-3.75,4.32,6.41,10.09,0,0-5.42,3.63-4.32,7.61a1.58,1.58,0,0,1,1.49-1.73C1245,550.39,1249.56,546,1249.56,546Z"/><path class="cls-68" d="M1193.71,491.3s-10.53,1.62-8.1,7.29c0,0,6.48-6.48,8.1-5.67,0,0-7.29,3.24-4.86,8.1,0,0,4.05-8.91,5.67-7.29,0,0,1.62,10.52,5.66,10.52a28.46,28.46,0,0,1-.81-4.85c0-1.62-1.62-5.67-1.62-5.67s8.1,1.62,8.91,5.67c0,0,2.43-9.72-8.1-8.91,0,0,4.86-4,10.53-3.24,0,0-7.29-4.85-12.15,1.62,0,0,7.29-7.28,8.91-6.47,0,0-4-4-10.52,5.66,0,0-3.24-5.66-7.29-4.85a1.59,1.59,0,0,1,1.62,1.62C1189.66,486.45,1193.71,491.3,1193.71,491.3Z"/><path class="cls-68" d="M1215.84,497.63s-10.53,1.61-8.1,7.28c0,0,6.48-6.47,8.1-5.67,0,0-7.29,3.24-4.86,8.1,0,0,4-8.9,5.67-7.29,0,0,1.62,10.53,5.66,10.53a29,29,0,0,1-.8-4.86c0-1.62-1.62-5.67-1.62-5.67s8.09,1.62,8.9,5.67c0,0,2.43-9.71-8.09-8.9,0,0,4.85-4.05,10.52-3.24,0,0-7.29-4.86-12.14,1.62,0,0,7.28-7.29,8.9-6.48,0,0-4-4.05-10.52,5.67,0,0-3.24-5.67-7.29-4.86a1.59,1.59,0,0,1,1.62,1.62C1211.79,492.77,1215.84,497.63,1215.84,497.63Z"/><path class="cls-68" d="M1233.75,506.06s-10.52,1.62-8.09,7.28c0,0,6.48-6.47,8.09-5.66,0,0-7.28,3.23-4.85,8.09,0,0,4-8.9,5.66-7.28,0,0,1.62,10.52,5.67,10.52a28.64,28.64,0,0,1-.81-4.86c0-1.62-1.62-5.66-1.62-5.66s8.1,1.61,8.91,5.66c0,0,2.43-9.71-8.1-8.9,0,0,4.86-4.05,10.53-3.24,0,0-7.29-4.86-12.15,1.62,0,0,7.29-7.29,8.91-6.48,0,0-4.05-4-10.53,5.67,0,0-3.23-5.67-7.28-4.86a1.59,1.59,0,0,1,1.62,1.62C1229.71,501.2,1233.75,506.06,1233.75,506.06Z"/><path class="cls-68" d="M1247.46,521.87s-10.53,1.61-8.1,7.28c0,0,6.48-6.48,8.1-5.67,0,0-7.29,3.24-4.86,8.1,0,0,4.05-8.91,5.66-7.29,0,0,1.62,10.53,5.67,10.53a28.64,28.64,0,0,1-.81-4.86c0-1.62-1.62-5.67-1.62-5.67s8.1,1.62,8.91,5.67c0,0,2.43-9.71-8.1-8.9,0,0,4.86-4,10.53-3.24,0,0-7.29-4.86-12.15,1.62,0,0,7.29-7.29,8.91-6.48,0,0-4-4.05-10.53,5.67,0,0-3.23-5.67-7.28-4.86a1.59,1.59,0,0,1,1.62,1.62C1243.41,517,1247.46,521.87,1247.46,521.87Z"/><path class="cls-68" d="M1208.46,637.79s-10.52,1.62-8.09,7.29c0,0,6.47-6.48,8.09-5.67,0,0-7.28,3.24-4.86,8.1,0,0,4.05-8.91,5.67-7.29,0,0,1.62,10.53,5.67,10.53a28.64,28.64,0,0,1-.81-4.86c0-1.62-1.62-5.67-1.62-5.67s8.09,1.62,8.9,5.67c0,0,2.43-9.72-8.09-8.91,0,0,4.86-4,10.52-3.23,0,0-7.28-4.86-12.14,1.61,0,0,7.29-7.28,8.9-6.47,0,0-4-4-10.52,5.66,0,0-3.24-5.66-7.29-4.85a1.59,1.59,0,0,1,1.62,1.62C1204.41,632.94,1208.46,637.79,1208.46,637.79Z"/><path class="cls-68" d="M1220.39,662.67s-3.87,9.92,2.25,10.65c0,0-2.36-8.85-.85-9.84,0,0-.84,7.93,4.58,8.26,0,0-5.68-8-3.47-8.56,0,0,9.92,3.87,11.95.37a28.59,28.59,0,0,1-4.61-1.73c-1.4-.81-5.72-1.44-5.72-1.44s5.46-6.2,9.37-4.87c0,0-7.2-7-11.77,2.55,0,0-1.07-6.23,2.47-10.73,0,0-7.85,3.87-4.68,11.32,0,0-2.66-10-1.14-10.95,0,0-5.54,1.47-.37,11.95,0,0-6.53,0-7.85,3.87a1.58,1.58,0,0,1,2.21-.59C1214.16,663.74,1220.39,662.67,1220.39,662.67Z"/><path class="cls-68" d="M1195.81,658.87s-10.52,1.62-8.09,7.29c0,0,6.48-6.48,8.09-5.67,0,0-7.28,3.24-4.85,8.1,0,0,4-8.91,5.66-7.29,0,0,1.62,10.52,5.67,10.52a28.46,28.46,0,0,1-.81-4.85c0-1.62-1.62-5.67-1.62-5.67s8.1,1.62,8.91,5.67c0,0,2.43-9.72-8.1-8.91,0,0,4.86-4,10.53-3.24,0,0-7.29-4.85-12.15,1.62,0,0,7.29-7.28,8.91-6.47,0,0-4-4.05-10.53,5.66,0,0-3.23-5.66-7.28-4.85a1.58,1.58,0,0,1,1.62,1.61C1191.77,654,1195.81,658.87,1195.81,658.87Z"/></g><path class="cls-70" d="M1095.44,649.69c.19.14,67.18,18.9,114,3.67,0,0,15.15,28.95,16.41,37.5s2.35,41.37,2.34,49.22,2.73,20,3.51,32.81-2,65.66-1.17,65.62-1.17,16.41-2.34,28.13,1.17,56.25,1.17,56.25-3.51,25.78,1.17,37.5-4.68,21.09-4.68,21.09l-6.45,10-35.16-15.23s-.1-84.13-2.34-99.61-18.75-70.31-18.75-70.31-5.78-30.41-7-29.3-5.86,19.92-5.86,30.47-3.51,49.22-5.86,58.59-2.34,39.84-4.69,45.7-4.68,64.46,0,72.66S1107,1005.5,1107,1005.5l-14.06-14.06s-1.17-52.73,0-66.8-1-62.13-2.34-64.45-6.78-85.32-4.69-90.23c1.15-5.87-2.6-43.31-2.34-44.53a194.5,194.5,0,0,1,7-50.39S1095.24,649.56,1095.44,649.69Z"/><g class="cls-71"><path class="cls-72" d="M1072.38,927.57s73.83-41,73.83-65.62-1.23,140.62-1.23,140.62l-65.21,2.35Z"/><path class="cls-73" d="M1167.3,862.9s73.83-69.71,73.83-111.54-1.23,239-1.23,239l-65.21,4Z"/><path class="cls-72" d="M1207.82,645.16s-64.86,4.66-107.46,8a14.2,14.2,0,0,1-.43,1.56,6.51,6.51,0,0,1-3.13,3.76,3.72,3.72,0,0,1-3.77-.64,5.11,5.11,0,0,1-1.52-1.64l-.08-.1a6.64,6.64,0,0,1-1-2.16c-18,1.42-29.49,2.44-25.7,2.44,12.55,0,17.57,89.53,18,82.53s132.64-74.14,132.64-74.14Z"/><path class="cls-74" d="M1148.31,653s8.43,43.52,4.21,49.4c0,0,28.46-54.1,36.89-50.57S1148.31,653,1148.31,653Z"/></g><path class="cls-75" d="M1095.44,649.69c.19.14,67.18,18.9,114,3.67,0,0,15.15,28.95,16.41,37.5s2.35,41.37,2.34,49.22,2.73,20,3.51,32.81-2,65.66-1.17,65.62-1.17,16.41-2.34,28.13,1.17,56.25,1.17,56.25-3.51,25.78,1.17,37.5-4.68,21.09-4.68,21.09l-6.45,10-35.16-15.23s-.1-84.13-2.34-99.61-18.75-70.31-18.75-70.31-5.78-30.41-7-29.3-5.86,19.92-5.86,30.47-3.51,49.22-5.86,58.59-2.34,39.84-4.69,45.7-4.68,64.46,0,72.66S1107,1005.5,1107,1005.5l-14.06-14.06s-1.17-52.73,0-66.8-1-62.13-2.34-64.45-6.78-85.32-4.69-90.23c1.15-5.87-2.6-43.31-2.34-44.53a194.5,194.5,0,0,1,7-50.39S1095.24,649.56,1095.44,649.69Z"/><path class="cls-3" d="M1093.19,980.72c1.58.65,1.16,36.37,37,4.54q1.65-1.47,3.41-3.13c1.94-1.84,4-3.86,6.13-6.09,0,0,6,27,2.08,29.45s-29,14.86-31.71,11.39c0,0-13.2,5-17.7-14.91S1090.5,979.6,1093.19,980.72Z"/><g class="cls-76"><path class="cls-77" d="M1129.7,982.37s3.57,25.09-.24,33.12"/><path class="cls-77" d="M1098.72,1015.91s-4.87-18.6-1.48-24.6"/></g><path class="cls-3" d="M1185.77,969.53s38.59,30.66,44.82-8.26c0,0,2.49-2.36,2.49,4.72s5,22.41,0,27.13-17.43,5.9-17.43,5.9-24.9-1.18-28.64-10.62-5-16.51-5-18.87S1184.52,967.17,1185.77,969.53Z"/><g class="cls-78"><path class="cls-77" d="M1226.41,971.3s6.1,20.7,3,27.72"/><path class="cls-77" d="M1198.77,998.1s-6.38-18.19-3.42-24.43"/></g><path class="cls-79" d="M1153.91,705.33s-5.9-10.61,0-21.23"/><path class="cls-80" d="M1198.9,756.13s15.21,73.47,15.21,90.61-2.34,61.21,0,85.7,8.2,35.51,6.44,46.52"/><path class="cls-80" d="M1110.86,997.48s-7.67-104.12-5.31-117.21,0-42.84,0-42.84"/><line class="cls-70" x1="1152.52" y1="659.18" x2="1172.55" y2="658.91"/><path class="cls-31" d="M1140.74,402s8.41-3.74,15,0"/><path class="cls-39" d="M1189.55,367.13a3.71,3.71,0,0,1,0,2.09"/><path class="cls-39" d="M1195,366.31c0-.08.2,0,.23.11a3.24,3.24,0,0,1,0,1.72"/><path class="cls-39" d="M1186.41,366.65a13.79,13.79,0,0,1-.55,1.87"/><path class="cls-39" d="M1178.36,365.38c.17,0,.17.16.11.26a3.31,3.31,0,0,1-1.17,1.15"/><path class="cls-39" d="M1182.64,366.22a3.26,3.26,0,0,1-1.3,1.84"/><path class="cls-34" d="M1159.62,361a35.86,35.86,0,0,0,32.43,11.14"/><path class="cls-81" d="M1159.56,359.79s29.33-23,47-1.77c0,0-2,11.2-20.73,8.25S1173.21,359.2,1159.56,359.79Z"/><g class="cls-82"><path class="cls-83" d="M1198.35,351.68s2,14.89-5.64,15.45-15.92-2.46-15.92-2.46-4.23-8.4-.54-13.89C1176.25,350.78,1187.73,345.07,1198.35,351.68Z"/><path class="cls-84" d="M1195.53,348.92s2.6,13.49-6.93,12.62c0,0-13.58.44-9.17-11.53S1195.53,348.92,1195.53,348.92Z"/></g><path class="cls-4" d="M1159.56,359.79s29.33-23,47-1.77c0,0-2,11.2-20.73,8.25S1173.21,359.2,1159.56,359.79Z"/><path class="cls-85" d="M1207.45,359.15s-15.17-23.5-47.67.44"/><ellipse class="cls-37" cx="1183.17" cy="353.35" rx="1.95" ry="2.35" transform="translate(690.8 1485.75) rotate(-83.13)"/><path class="cls-5" d="M1125.88,418a36.61,36.61,0,0,0,12.11-2.76c7-2.75,11.72,0,11.72,0s1.17,1.84,3.12,0,7.42-1.37,10.94,0,6.64,2.76,9,2.76-9,6.87-14.45,7.79-14.45,0-14.45,0S1131.35,424.39,1125.88,418Z"/><g class="cls-86"><path class="cls-87" d="M1126.08,418s20.91.78,24.4,3.13c0,0,12-3.13,22.08-3.12"/><path class="cls-88" d="M1070.81,330.68a21.76,21.76,0,0,1,5.09,17c-1.18,10.71,16.41-33,12.89-32.81s-16,9.54-16,9.54Z"/></g><path class="cls-39" d="M1105.77,367.13a3.63,3.63,0,0,0,0,2.09"/><path class="cls-39" d="M1100.2,366.31c0-.08-.21,0-.23.11a3,3,0,0,0,0,1.72"/><path class="cls-39" d="M1109,366.65a13.88,13.88,0,0,0,.57,1.87"/><path class="cls-39" d="M1117.32,365.38c-.18,0-.18.16-.12.26a3.45,3.45,0,0,0,1.21,1.15"/><path class="cls-39" d="M1112.9,366.22a3.29,3.29,0,0,0,1.34,1.84"/><path class="cls-34" d="M1136.66,361a37.57,37.57,0,0,1-33.47,11.14"/><path class="cls-81" d="M1136.72,359.79s-30.26-23-48.52-1.77c0,0,2.08,11.2,21.39,8.25S1122.63,359.2,1136.72,359.79Z"/><g class="cls-89"><path class="cls-83" d="M1096.69,351.68s-2,14.89,5.82,15.45,16.43-2.46,16.43-2.46,4.36-8.4.56-13.89C1119.5,350.78,1107.65,345.07,1096.69,351.68Z"/><path class="cls-84" d="M1099.6,348.92s-2.68,13.49,7.16,12.62c0,0,14,.44,9.46-11.53S1099.6,348.92,1099.6,348.92Z"/></g><path class="cls-4" d="M1136.72,359.79s-30.26-23-48.52-1.77c0,0,2.08,11.2,21.39,8.25S1122.63,359.2,1136.72,359.79Z"/><path class="cls-85" d="M1087.3,359.15s15.65-23.5,49.19.44"/><ellipse class="cls-37" cx="1112.35" cy="353.35" rx="2.42" ry="1.95" transform="translate(-30.3 115.57) rotate(-5.87)"/><path class="cls-90" d="M1164.28,339.32s10.28-12.24,40.13,1.47a7.67,7.67,0,0,1,2.45,3.42c1,2.45-11.75,1-11.75,1s-10.76-5.38-27.41,1C1167.7,346.17,1161.34,346.17,1164.28,339.32Z"/><path class="cls-90" d="M1128.58,339.32s-10.08-12.24-39.36,1.47a7.65,7.65,0,0,0-2.4,3.42c-1,2.45,11.52,1,11.52,1s10.56-5.38,26.88,1C1125.22,346.17,1131.46,346.17,1128.58,339.32Z"/><path class="cls-34" d="M1134.68,355.43s-7.68-7.69-15.43-9.56"/><path class="cls-34" d="M1161.19,356s7.74-7.93,15.75-10.13"/><path class="cls-91" d="M1151,411.7s-.36-4.2,1.94-4.4,10.56,1.22,11.8,2.17,4.88,2.76,5,3.81-7-.46-7-.46S1151.09,412.75,1151,411.7Z"/><path class="cls-91" d="M1146.7,411.44s.22-4.21-2.22-4.34-11.06,1.53-12.33,2.52-5,2.91-5.08,4,7.35-.67,7.35-.67S1146.64,412.49,1146.7,411.44Z"/><path class="cls-6" d="M1076.5,540.61c1,6.33-16.18,52.7-13.33,53.75s32.37,62.18,32.37,62.18-60.93-53.75-60-66.39,22.84-90.64,22.84-90.64.95-6.32,13.33-5.27,46.65-8.43,46.65-8.43l55.21,1.06S1075.55,534.29,1076.5,540.61Z"/><g class="cls-92"><path class="cls-68" d="M1060.92,497.63s-10.53,1.61-8.1,7.28c0,0,6.48-6.47,8.1-5.67,0,0-7.29,3.24-4.86,8.1,0,0,4-8.9,5.67-7.29,0,0,1.62,10.53,5.66,10.53a28.64,28.64,0,0,1-.81-4.86c0-1.62-1.62-5.67-1.62-5.67s8.1,1.62,8.91,5.67c0,0,2.43-9.71-8.1-8.9,0,0,4.86-4.05,10.53-3.24,0,0-7.29-4.86-12.15,1.62,0,0,7.29-7.29,8.91-6.48,0,0-4-4.05-10.52,5.67,0,0-3.24-5.67-7.29-4.86a1.59,1.59,0,0,1,1.62,1.62C1056.87,492.77,1060.92,497.63,1060.92,497.63Z"/><path class="cls-68" d="M1071.88,609s-3.49,10.06,2.65,10.56c0,0-2.69-8.75-1.22-9.81,0,0-.55,8,4.88,8.08,0,0-6-7.74-3.79-8.41,0,0,10.06,3.49,12-.09a28.77,28.77,0,0,1-4.68-1.56c-1.43-.75-5.76-1.22-5.76-1.22s5.22-6.39,9.17-5.22c0,0-7.45-6.69-11.66,3,0,0-1.3-6.18,2.06-10.81,0,0-7.7,4.17-4.24,11.49,0,0-3-9.85-1.56-10.9,0,0-5.47,1.68.08,12,0,0-6.52.21-7.7,4.17a1.59,1.59,0,0,1,2.19-.68C1065.69,610.34,1071.88,609,1071.88,609Z"/><path class="cls-68" d="M1110.45,498.68s-10.52,1.62-8.1,7.29c0,0,6.48-6.48,8.1-5.67,0,0-7.29,3.24-4.86,8.09,0,0,4.05-8.9,5.67-7.28,0,0,1.62,10.52,5.67,10.52a28.64,28.64,0,0,1-.81-4.86c0-1.61-1.62-5.66-1.62-5.66s8.09,1.62,8.9,5.66c0,0,2.43-9.71-8.09-8.9,0,0,4.85-4.05,10.52-3.24,0,0-7.29-4.86-12.14,1.62,0,0,7.28-7.28,8.9-6.48,0,0-4-4-10.52,5.67,0,0-3.24-5.67-7.29-4.86a1.59,1.59,0,0,1,1.62,1.62C1106.4,493.82,1110.45,498.68,1110.45,498.68Z"/><path class="cls-68" d="M1087.26,489.19s-10.52,1.62-8.09,7.29c0,0,6.47-6.48,8.09-5.67,0,0-7.28,3.24-4.85,8.1,0,0,4-8.91,5.66-7.29,0,0,1.62,10.53,5.67,10.53a28.64,28.64,0,0,1-.81-4.86c0-1.62-1.62-5.67-1.62-5.67s8.1,1.62,8.91,5.67c0,0,2.42-9.71-8.1-8.91,0,0,4.86-4,10.52-3.23,0,0-7.28-4.86-12.14,1.62,0,0,7.29-7.29,8.91-6.48,0,0-4.05-4.05-10.53,5.67,0,0-3.24-5.67-7.28-4.86a1.59,1.59,0,0,1,1.62,1.62C1083.22,484.34,1087.26,489.19,1087.26,489.19Z"/><path class="cls-68" d="M1057.61,523.84s-9.5-4.81-10.82,1.21c0,0,9-1.49,9.88.11,0,0-7.81-1.61-8.66,3.75,0,0,8.47-4.88,8.85-2.62,0,0-4.81,9.5-1.52,11.85a29.06,29.06,0,0,1,2.17-4.42c.94-1.32,2-5.55,2-5.55s5.64,6,3.94,9.79c0,0,7.63-6.49-1.4-12,0,0,6.31-.47,10.44,3.49,0,0-3.09-8.19-10.81-5.75,0,0,10.16-1.69,11-.08,0,0-.94-5.65-11.86-1.52,0,0,.67-6.49-3.1-8.19a1.59,1.59,0,0,1,.38,2.26C1057.15,517.53,1057.61,523.84,1057.61,523.84Z"/><path class="cls-68" d="M1042,557.7s-10.53,1.62-8.1,7.28c0,0,6.48-6.47,8.1-5.66,0,0-7.29,3.23-4.86,8.09,0,0,4.05-8.9,5.67-7.28,0,0,1.62,10.52,5.66,10.52a28.64,28.64,0,0,1-.81-4.86c0-1.62-1.62-5.66-1.62-5.66s8.1,1.61,8.91,5.66c0,0,2.43-9.71-8.1-8.9,0,0,4.86-4,10.53-3.24,0,0-7.29-4.86-12.15,1.62,0,0,7.29-7.29,8.91-6.48,0,0-4-4-10.52,5.67,0,0-3.24-5.67-7.29-4.86a1.59,1.59,0,0,1,1.62,1.62C1037.9,552.84,1042,557.7,1042,557.7Z"/></g><path class="cls-6" d="M1086.15,519.6s-3.26,113.45-7.68,124.14,11.93,14.93,14.54,12.55,20.52,11.32,35.44,4.65c1.94-.71,35-3.56,40.59,1.55s54.63-3.28,51.73-.66,10.75-3.4,9.2-14.69-25-133.36-15.42-134.7-60.63-21.84-60.63-21.84Z"/><g class="cls-93"><path class="cls-68" d="M1084.1,622s-10.52,1.62-8.09,7.29c0,0,6.47-6.48,8.09-5.67,0,0-7.28,3.24-4.85,8.1,0,0,4-8.91,5.66-7.29,0,0,1.62,10.53,5.67,10.53a28.64,28.64,0,0,1-.81-4.86c0-1.62-1.62-5.67-1.62-5.67s8.1,1.62,8.9,5.67c0,0,2.43-9.71-8.09-8.9,0,0,4.86-4,10.52-3.24,0,0-7.28-4.86-12.14,1.62,0,0,7.29-7.29,8.91-6.48,0,0-4-4.05-10.53,5.67,0,0-3.24-5.67-7.28-4.86a1.58,1.58,0,0,1,1.61,1.62C1080.05,617.13,1084.1,622,1084.1,622Z"/><path class="cls-68" d="M1101.63,650.75s6.26-.83,10.62,2.88c0,0-2.57-5.76-8-5.74,3-.53,7.24-1.07,7.83-.09,0,0-1.26-5.59-11.92-.83,0,0,.29-6.52-3.57-8a1.58,1.58,0,0,1,.51,2.23c-.87,1.37,0,7.64,0,7.64s-.36-.16-.95-.37h0a7.8,7.8,0,0,1,.09.83v0a5.9,5.9,0,0,1,0,.84h0s0,0,0,0h0a5.07,5.07,0,0,1-.11.68.62.62,0,0,1,.39.44s-4.25,9.77-.83,11.93a29.16,29.16,0,0,1,1.91-4.54c.87-1.37,1.66-5.66,1.66-5.66s6,5.7,4.5,9.55C1103.71,662.6,1111,655.69,1101.63,650.75Z"/><path class="cls-68" d="M1104.51,628s-2.35-10.32-6.13-7.45c0,0,5.36,5.91,5,7.59,0,0-3.14-7-6.34-4.17,0,0,6.83,3.3,5.85,5,0,0-7.35,2.46-6.89,6.48a15.29,15.29,0,0,1,3.38-1.2c1.16-.13,3.87-2.07,3.87-2.07s-.24,8.18-3,9.31c0,0,7.22,1.63,5.46-8.76a19,19,0,0,1,3.5,10.19s2.66-7.63-2.52-11.93c0,0,6,6.65,5.63,8.32,0,0,2.44-4.35-5.24-10,0,0,3.69-3.67,2.66-7.63,0,0,.18,1.61-1,1.74S1104.51,628,1104.51,628Z"/><path class="cls-68" d="M1083.41,650c-.87-1.37-4.4-3.93-4.4-3.93s5.68-2.16,9.09-.89a5.18,5.18,0,0,1,.83-.49h0c-1.29-2.38-4.64-6.5-11-1.79,0,0,1.94-6,7.17-8.35,0,0-6.37-.14-8.64,4.83.82-3,2.16-7.1,3.31-7.21,0,0-5.59-1.26-5.88,10.41,0,0-5.76-3.06-8.75-.21a1.58,1.58,0,0,1,2.23.5c.87,1.37,6.88,3.31,6.88,3.31s-8,7-3,10.49c0,0,2-8.94,3.82-9.12,0,0-4.43,6.63.22,9.44,0,0-1.34-9.69.9-9.19,0,0,7,8,10.41,5.87A28,28,0,0,1,1083.41,650Z"/><path class="cls-68" d="M1084.1,598.8s-10.52,1.62-8.09,7.28c0,0,6.47-6.47,8.09-5.66,0,0-7.28,3.24-4.85,8.09,0,0,4-8.9,5.66-7.28,0,0,1.62,10.52,5.67,10.52a28.64,28.64,0,0,1-.81-4.86c0-1.61-1.62-5.66-1.62-5.66s8.1,1.62,8.9,5.66c0,0,2.43-9.71-8.09-8.9,0,0,4.86-4,10.52-3.24,0,0-7.28-4.86-12.14,1.62,0,0,7.29-7.29,8.91-6.48,0,0-4-4-10.53,5.67,0,0-3.24-5.67-7.28-4.86a1.58,1.58,0,0,1,1.61,1.62C1080.05,593.94,1084.1,598.8,1084.1,598.8Z"/><path class="cls-68" d="M1107.24,606.7s-10.31-2.67-10.31,3.5c0,0,8.5-3.4,9.67-2,0,0-8,.1-7.66,5.52,0,0,7.24-6.59,8.09-4.46,0,0-2.67,10.31,1,11.91a28.22,28.22,0,0,1,1.17-4.78c.64-1.49.75-5.85.75-5.85s6.8,4.68,6,8.72c0,0,6.06-8-3.93-11.38,0,0,6.06-1.8,11,1.18,0,0-4.78-7.34-11.8-3.3,0,0,9.57-3.82,10.74-2.44,0,0-2.12-5.31-11.9,1.05,0,0-.74-6.48-4.78-7.33a1.58,1.58,0,0,1,.85,2.12C1105.44,600.64,1107.24,606.7,1107.24,606.7Z"/><path class="cls-68" d="M1118.54,658.06s-9.31,5.17-5.07,9.64c0,0,3.83-8.32,5.63-8.12,0,0-5.71,5.56-1.75,9.28,0,0,.71-9.76,2.79-8.8,0,0,5.17,9.31,9,7.91a28.64,28.64,0,0,1-2.44-4.28,13.74,13.74,0,0,0-2-3c-.8-1-1.53-1.8-1.53-1.8s8.15-1.29,10.31,2.22c0,0-1.09-9.95-10.68-5.54,0,0,3.16-5.48,8.75-6.69,0,0-8.52-2-10.83,5.73,0,0,4.31-9.36,6.11-9.16,0,0-5.2-2.39-7.91,9,0,0-5-4.19-8.51-2a1.59,1.59,0,0,1,2.08,1C1113.06,654.91,1118.54,658.06,1118.54,658.06Z"/><path class="cls-68" d="M1118.4,622s-7.57-7.48-10.67-2.15c0,0,9.06,1.34,9.38,3.12,0,0-6.95-3.92-9.4.93,0,0,9.56-2.06,9.23.2,0,0-7.48,7.58-5.07,10.82a28.42,28.42,0,0,1,3.42-3.54c1.3-1,3.58-4.68,3.58-4.68s3.53,7.46.76,10.53c0,0,9.25-3.85,2.32-11.81,0,0,6.15,1.48,8.88,6.52,0,0-.45-8.75-8.54-8.79,0,0,10.19,1.51,10.5,3.29,0,0,.84-5.66-10.82-5.07,0,0,2.62-6-.45-8.74a1.58,1.58,0,0,1-.33,2.26C1119.89,615.82,1118.4,622,1118.4,622Z"/><path class="cls-68" d="M1127.06,638.49s-9.68-4.41-10.76,1.66c0,0,9-1.87,9.88-.3,0,0-7.87-1.29-8.51,4.1,0,0,8.27-5.22,8.74-3,0,0-4.42,9.69-1,11.91a28.78,28.78,0,0,1,2-4.51c.89-1.35,1.76-5.62,1.76-5.62s5.88,5.79,4.33,9.62c0,0,7.36-6.79-1.88-11.89,0,0,6.28-.72,10.57,3.07,0,0-3.42-8.06-11-5.31,0,0,10.09-2.1,11-.53,0,0-1.16-5.61-11.91-1,0,0,.4-6.52-3.42-8.06a1.58,1.58,0,0,1,.46,2.24C1126.34,632.21,1127.06,638.49,1127.06,638.49Z"/><path class="cls-68" d="M1132.58,605.12s-10.52,1.62-8.09,7.29c0,0,6.47-6.48,8.09-5.67,0,0-7.28,3.24-4.86,8.1,0,0,4-8.91,5.67-7.29,0,0,1.62,10.52,5.67,10.52a28.46,28.46,0,0,1-.81-4.85c0-1.62-1.62-5.67-1.62-5.67s8.09,1.62,8.9,5.67c0,0,2.43-9.72-8.09-8.91,0,0,4.86-4,10.52-3.24,0,0-7.28-4.85-12.14,1.62,0,0,7.29-7.28,8.9-6.47,0,0-4-4.05-10.52,5.66,0,0-3.24-5.66-7.29-4.85a1.59,1.59,0,0,1,1.62,1.62C1128.53,600.27,1132.58,605.12,1132.58,605.12Z"/><path class="cls-68" d="M1123.89,593.87s-7.34,7.71-2,10.71c0,0,1.17-9.08,3-9.43,0,0-3.79,7,1.1,9.38,0,0-2.24-9.52,0-9.23,0,0,7.72,7.34,10.92,4.87a28.78,28.78,0,0,1-3.61-3.35c-1-1.28-4.74-3.5-4.74-3.5s7.4-3.66,10.51-1c0,0-4-9.18-11.85-2.11,0,0,1.37-6.17,6.35-9,0,0-8.73.61-8.62,8.7,0,0,1.32-10.22,3.09-10.57,0,0-5.67-.73-4.87,10.92,0,0-6-2.51-8.73.6a1.58,1.58,0,0,1,2.27.3C1117.72,592.5,1123.89,593.87,1123.89,593.87Z"/><path class="cls-68" d="M1087.28,575.52s-6.52-8.41-10.3-3.53c0,0,8.81,2.51,8.89,4.32,0,0-6.37-4.8-9.44-.31,0,0,9.75-.79,9.13,1.41,0,0-8.42,6.53-6.45,10.07a28.32,28.32,0,0,1,3.85-3.07c1.42-.79,4.17-4.17,4.17-4.17s2.52,7.86-.63,10.54c0,0,9.67-2.6,3.85-11.41,0,0,5.9,2.28,8,7.63,0,0,.7-8.73-7.32-9.83,0,0,9.91,2.83,10,4.64,0,0,1.57-5.51-10.07-6.45,0,0,3.38-5.58.71-8.72a1.59,1.59,0,0,1-.63,2.2C1089.56,569.62,1087.28,575.52,1087.28,575.52Z"/><path class="cls-68" d="M1107.29,584s-10.53,1.62-8.1,7.29c0,0,6.48-6.48,8.1-5.67,0,0-7.29,3.24-4.86,8.1,0,0,4-8.91,5.67-7.29,0,0,1.62,10.53,5.66,10.53a28.64,28.64,0,0,1-.81-4.86c0-1.62-1.61-5.67-1.61-5.67s8.09,1.62,8.9,5.67c0,0,2.43-9.71-8.1-8.9,0,0,4.86-4,10.53-3.24,0,0-7.29-4.86-12.14,1.62,0,0,7.28-7.29,8.9-6.48,0,0-4-4-10.52,5.67,0,0-3.24-5.67-7.29-4.86a1.59,1.59,0,0,1,1.62,1.62C1103.24,579.19,1107.29,584,1107.29,584Z"/><path class="cls-68" d="M1086,551.24s1.72-10.51-4.42-10c0,0,4.15,8.16,2.88,9.45,0,0-.82-7.93-6.19-7.13,0,0,7.21,6.61,5.17,7.65,0,0-10.51-1.73-11.76,2.12a28.92,28.92,0,0,1,4.86.74c1.54.5,5.89.22,5.89.22s-4.05,7.19-8.14,6.71c0,0,8.48,5.32,11-4.94,0,0,2.34,5.87-.18,11,0,0,6.87-5.42,2.22-12,0,0,4.67,9.19,3.4,10.48,0,0,5.1-2.6-2.13-11.77,0,0,6.4-1.32,6.88-5.42a1.59,1.59,0,0,1-2,1C1091.82,548.9,1086,551.24,1086,551.24Z"/><path class="cls-68" d="M1143.12,649.39s-10.52,1.61-8.1,7.28c0,0,6.48-6.47,8.1-5.67,0,0-7.29,3.24-4.86,8.1,0,0,4-8.9,5.67-7.29,0,0,1.62,10.53,5.67,10.53a28.64,28.64,0,0,1-.81-4.86c0-1.62-1.62-5.67-1.62-5.67s8.09,1.62,8.9,5.67c0,0,2.43-9.71-8.09-8.9,0,0,4.85-4.05,10.52-3.24,0,0-7.28-4.86-12.14,1.62,0,0,7.28-7.29,8.9-6.48,0,0-4-4.05-10.52,5.67,0,0-3.24-5.67-7.29-4.86a1.59,1.59,0,0,1,1.62,1.62C1139.07,644.53,1143.12,649.39,1143.12,649.39Z"/><path class="cls-68" d="M1102,565.07s-10.53,1.62-8.1,7.29c0,0,6.48-6.48,8.1-5.67,0,0-7.29,3.24-4.86,8.1,0,0,4-8.91,5.67-7.29,0,0,1.62,10.53,5.66,10.53a29,29,0,0,1-.8-4.86c0-1.62-1.62-5.67-1.62-5.67s8.09,1.62,8.9,5.67c0,0,2.43-9.71-8.09-8.9,0,0,4.85-4,10.52-3.24,0,0-7.29-4.86-12.14,1.62,0,0,7.28-7.29,8.9-6.48,0,0-4.05-4-10.52,5.67,0,0-3.24-5.67-7.29-4.86a1.59,1.59,0,0,1,1.62,1.62C1098,560.22,1102,565.07,1102,565.07Z"/><path class="cls-68" d="M1106,544.22s-9-5.71-10.89.16c0,0,9.14-.61,9.82,1.06,0,0-7.61-2.36-9,2.9,0,0,8.91-4,9.06-1.76,0,0-5.71,9-2.66,11.66a28.37,28.37,0,0,1,2.59-4.19c1.06-1.22,2.51-5.33,2.51-5.33s5,6.54,3,10.12c0,0,8.22-5.71-.23-12,0,0,6.32.15,10,4.49,0,0-2.29-8.45-10.21-6.77,0,0,10.29-.69,11,1,0,0-.38-5.71-11.65-2.66,0,0,1.29-6.4-2.29-8.45a1.58,1.58,0,0,1,.15,2.28C1106.19,537.9,1106,544.22,1106,544.22Z"/><path class="cls-68" d="M1127.31,555.59s-10.52,1.62-8.09,7.29c0,0,6.47-6.48,8.09-5.67,0,0-7.28,3.24-4.86,8.09,0,0,4-8.9,5.67-7.28,0,0,1.62,10.52,5.67,10.52a28.64,28.64,0,0,1-.81-4.86c0-1.61-1.62-5.66-1.62-5.66s8.09,1.62,8.9,5.66c0,0,2.43-9.71-8.09-8.9,0,0,4.86-4,10.52-3.24,0,0-7.28-4.86-12.14,1.62,0,0,7.29-7.28,8.9-6.48,0,0-4-4-10.52,5.67,0,0-3.24-5.67-7.28-4.86a1.58,1.58,0,0,1,1.61,1.62C1123.26,550.73,1127.31,555.59,1127.31,555.59Z"/><path class="cls-68" d="M1133.89,573.57s-8.2-6.79-10.82-1.21c0,0,9.14.53,9.61,2.28,0,0-7.26-3.29-9.28,1.75,0,0,9.35-2.89,9.21-.61,0,0-6.79,8.21-4.1,11.23a28.21,28.21,0,0,1,3.09-3.83c1.21-1.08,3.16-5,3.16-5s4.17,7.13,1.68,10.42c0,0,8.88-4.63,1.28-12,0,0,6.25.94,9.41,5.71,0,0-1.21-8.67-9.27-8,0,0,10.28.61,10.75,2.36,0,0,.34-5.72-11.23-4.11,0,0,2.09-6.18-1.21-8.67a1.59,1.59,0,0,1-.13,2.29C1134.83,567.31,1133.89,573.57,1133.89,573.57Z"/><path class="cls-68" d="M1128.37,535.57s-10.53,1.61-8.1,7.28c0,0,6.48-6.47,8.1-5.67,0,0-7.29,3.24-4.86,8.1,0,0,4-8.9,5.67-7.29,0,0,1.61,10.53,5.66,10.53a28.64,28.64,0,0,1-.81-4.86c0-1.62-1.62-5.67-1.62-5.67s8.1,1.62,8.91,5.67c0,0,2.43-9.71-8.1-8.9,0,0,4.86-4,10.53-3.24,0,0-7.29-4.86-12.15,1.62,0,0,7.29-7.29,8.91-6.48,0,0-4-4-10.53,5.67,0,0-3.23-5.67-7.28-4.86a1.59,1.59,0,0,1,1.62,1.62C1124.32,530.71,1128.37,535.57,1128.37,535.57Z"/><path class="cls-68" d="M1194.61,586.08s-6.9-8.11-10.45-3.07c0,0,8.91,2.11,9.07,3.92,0,0-6.57-4.51-9.44.11,0,0,9.71-1.23,9.18,1,0,0-8.11,6.9-6,10.34a28.68,28.68,0,0,1,3.71-3.23c1.38-.85,4-4.35,4-4.35s2.86,7.74-.16,10.55c0,0,9.55-3,3.34-11.56,0,0,6,2,8.28,7.26,0,0,.31-8.75-7.75-9.49,0,0,10,2.38,10.18,4.19,0,0,1.33-5.57-10.34-6,0,0,3.12-5.73.31-8.75a1.58,1.58,0,0,1-.53,2.22C1196.62,580.08,1194.61,586.08,1194.61,586.08Z"/><path class="cls-68" d="M1165.86,658.71s-6.77-8.22-10.4-3.24c0,0,8.88,2.26,9,4.06,0,0-6.51-4.6-9.44,0,0,0,9.72-1.08,9.16,1.14,0,0-8.22,6.78-6.15,10.25a28.26,28.26,0,0,1,3.76-3.17c1.4-.83,4-4.29,4-4.29s2.74,7.78-.32,10.55c0,0,9.59-2.88,3.51-11.51,0,0,6,2.1,8.17,7.39,0,0,.45-8.75-7.6-9.61,0,0,10,2.53,10.11,4.34,0,0,1.41-5.55-10.25-6.15,0,0,3.22-5.68.45-8.74a1.59,1.59,0,0,1-.56,2.22C1168,652.74,1165.86,658.71,1165.86,658.71Z"/><path class="cls-68" d="M1182.11,648.33s-10.52,1.62-8.09,7.29c0,0,6.48-6.48,8.09-5.67,0,0-7.28,3.24-4.85,8.1,0,0,4-8.91,5.66-7.29,0,0,1.62,10.52,5.67,10.52a28.46,28.46,0,0,1-.81-4.85c0-1.62-1.62-5.67-1.62-5.67s8.1,1.62,8.91,5.67c0,0,2.43-9.72-8.1-8.91,0,0,4.86-4,10.53-3.24,0,0-7.29-4.85-12.15,1.62,0,0,7.29-7.28,8.91-6.47,0,0-4-4-10.53,5.66,0,0-3.23-5.66-7.28-4.85a1.59,1.59,0,0,1,1.62,1.62C1178.07,643.47,1182.11,648.33,1182.11,648.33Z"/><path class="cls-68" d="M1210.38,656.5s7.39-7.66,2-10.7c0,0-1.23,9.07-3,9.41,0,0,3.84-7-1-9.39,0,0,2.17,9.54-.1,9.23,0,0-7.66-7.39-10.88-4.94a28.57,28.57,0,0,1,3.59,3.38c1,1.28,4.72,3.53,4.72,3.53s-7.43,3.61-10.52.88c0,0,3.95,9.2,11.83,2.18,0,0-1.41,6.16-6.41,8.95,0,0,8.74-.54,8.68-8.64,0,0-1.38,10.21-3.16,10.55,0,0,5.67.77,4.94-10.89,0,0,6,2.55,8.74-.54a1.59,1.59,0,0,1-2.27-.31C1216.54,657.91,1210.38,656.5,1210.38,656.5Z"/><path class="cls-68" d="M1224.27,648.33s-10.52,1.62-8.1,7.29c0,0,6.48-6.48,8.1-5.67,0,0-7.29,3.24-4.86,8.1,0,0,4-8.91,5.67-7.29,0,0,1.62,10.52,5.67,10.52a28.46,28.46,0,0,1-.81-4.85c0-1.62-1.62-5.67-1.62-5.67s8.09,1.62,8.9,5.67c0,0,2.43-9.72-8.09-8.91,0,0,4.85-4,10.52-3.24,0,0-7.29-4.85-12.14,1.62,0,0,7.28-7.28,8.9-6.47,0,0-4.05-4-10.52,5.66,0,0-3.24-5.66-7.29-4.85a1.59,1.59,0,0,1,1.62,1.62C1220.22,643.47,1224.27,648.33,1224.27,648.33Z"/><path class="cls-68" d="M1165.25,642s-10.52,1.62-8.09,7.28c0,0,6.47-6.47,8.09-5.66,0,0-7.28,3.24-4.86,8.09,0,0,4-8.9,5.67-7.28,0,0,1.62,10.52,5.67,10.52a28.64,28.64,0,0,1-.81-4.86c0-1.62-1.62-5.66-1.62-5.66s8.09,1.62,8.9,5.66c0,0,2.43-9.71-8.09-8.9,0,0,4.86-4.05,10.52-3.24,0,0-7.28-4.86-12.14,1.62,0,0,7.29-7.29,8.9-6.48,0,0-4-4-10.52,5.67,0,0-3.24-5.67-7.28-4.86a1.58,1.58,0,0,1,1.61,1.62C1161.2,637.15,1165.25,642,1165.25,642Z"/><path class="cls-68" d="M1148.55,628.66s-4.73,9.54,1.31,10.81c0,0-1.58-9,0-9.88,0,0-1.54,7.83,3.84,8.63,0,0-5-8.43-2.71-8.83,0,0,9.54,4.73,11.87,1.42a28.49,28.49,0,0,1-4.44-2.13c-1.33-.93-5.57-1.94-5.57-1.94s6-5.69,9.76-4c0,0-6.56-7.57-11.94,1.51,0,0-.52-6.3,3.4-10.47,0,0-8.17,3.17-5.66,10.87,0,0-1.77-10.15-.18-11,0,0-5.64,1-1.41,11.87,0,0-6.5-.61-8.16,3.17a1.58,1.58,0,0,1,2.25-.4C1142.25,629.18,1148.55,628.66,1148.55,628.66Z"/><path class="cls-68" d="M1152.65,605.27s-5.29,9.24.65,10.87c0,0-1-9.1.62-9.86,0,0-2,7.72,3.3,8.85,0,0-4.44-8.72-2.16-9,0,0,9.23,5.3,11.76,2.13a28.11,28.11,0,0,1-4.3-2.39c-1.27-1-5.44-2.27-5.44-2.27s6.31-5.32,10-3.43c0,0-6.08-8-12,.78,0,0-.14-6.32,4-10.25,0,0-8.34,2.67-6.31,10.51,0,0-1.15-10.24.49-11,0,0-5.69.64-2.13,11.76,0,0-6.45-1-8.34,2.66a1.59,1.59,0,0,1,2.28-.25C1146.33,605.41,1152.65,605.27,1152.65,605.27Z"/><path class="cls-68" d="M1152.61,580.88s-10.53,1.62-8.1,7.29c0,0,6.48-6.48,8.1-5.67,0,0-7.29,3.24-4.86,8.1,0,0,4-8.91,5.66-7.29,0,0,1.62,10.53,5.67,10.53a28.64,28.64,0,0,1-.81-4.86c0-1.62-1.62-5.67-1.62-5.67s8.1,1.62,8.91,5.67c0,0,2.43-9.72-8.1-8.91,0,0,4.86-4,10.53-3.23,0,0-7.29-4.86-12.15,1.61,0,0,7.29-7.28,8.91-6.47,0,0-4-4.05-10.53,5.66,0,0-3.23-5.66-7.28-4.85a1.59,1.59,0,0,1,1.62,1.62C1148.56,576,1152.61,580.88,1152.61,580.88Z"/><path class="cls-68" d="M1148.9,559.15s-9.52-4.76-10.82,1.27c0,0,9-1.54,9.89.05,0,0-7.82-1.57-8.65,3.8,0,0,8.45-4.92,8.84-2.67,0,0-4.77,9.53-1.46,11.87a29.32,29.32,0,0,1,2.14-4.44c.94-1.32,2-5.55,2-5.55s5.67,6,4,9.77c0,0,7.6-6.52-1.46-12,0,0,6.31-.49,10.46,3.44,0,0-3.14-8.17-10.84-5.7,0,0,10.15-1.73,11-.13,0,0-1-5.64-11.87-1.46,0,0,.64-6.5-3.13-8.18a1.59,1.59,0,0,1,.38,2.26C1148.41,552.85,1148.9,559.15,1148.9,559.15Z"/><path class="cls-68" d="M1169.07,621s-10.52-1.66-9.93,4.47c0,0,8.14-4.19,9.43-2.93,0,0-7.92.87-7.09,6.23,0,0,6.57-7.25,7.62-5.21,0,0-1.66,10.51,2.19,11.75a29.18,29.18,0,0,1,.71-4.88c.49-1.54.18-5.89.18-5.89s7.22,4,6.76,8.11c0,0,5.27-8.51-5-10.95,0,0,5.86-2.37,11,.12,0,0-5.46-6.84-12.06-2.15,0,0,9.16-4.72,10.45-3.46,0,0-2.62-5.09-11.75,2.2,0,0-1.36-6.39-5.46-6.85a1.59,1.59,0,0,1,1,2C1166.69,615.15,1169.07,621,1169.07,621Z"/><path class="cls-68" d="M1191.6,630.42s-10.52,1.61-8.1,7.28c0,0,6.48-6.47,8.1-5.67,0,0-7.29,3.24-4.86,8.1,0,0,4-8.9,5.67-7.29,0,0,1.62,10.53,5.67,10.53a28.64,28.64,0,0,1-.81-4.86c0-1.62-1.62-5.67-1.62-5.67s8.09,1.62,8.9,5.67c0,0,2.43-9.71-8.09-8.9,0,0,4.85-4.05,10.52-3.24,0,0-7.29-4.86-12.14,1.62,0,0,7.28-7.29,8.9-6.48,0,0-4-4-10.52,5.67,0,0-3.24-5.67-7.29-4.86a1.59,1.59,0,0,1,1.62,1.62C1187.55,625.56,1191.6,630.42,1191.6,630.42Z"/><path class="cls-68" d="M1175.06,599.33s-6.85-8.15-10.43-3.13c0,0,8.9,2.16,9,4,0,0-6.55-4.54-9.44.06,0,0,9.71-1.17,9.17,1,0,0-8.14,6.86-6,10.31a28.17,28.17,0,0,1,3.73-3.21c1.38-.84,4-4.33,4-4.33s2.82,7.75-.21,10.55c0,0,9.56-3,3.39-11.55,0,0,6,2.05,8.24,7.31,0,0,.36-8.75-7.7-9.53,0,0,10,2.43,10.17,4.24,0,0,1.35-5.57-10.32-6,0,0,3.16-5.72.36-8.75a1.58,1.58,0,0,1-.54,2.22C1177.11,593.34,1175.06,599.33,1175.06,599.33Z"/><path class="cls-68" d="M1213.73,633.58s-10.52,1.62-8.09,7.28c0,0,6.47-6.47,8.09-5.66,0,0-7.28,3.23-4.86,8.09,0,0,4.05-8.9,5.67-7.28,0,0,1.62,10.52,5.67,10.52a28.64,28.64,0,0,1-.81-4.86c0-1.62-1.62-5.66-1.62-5.66s8.09,1.62,8.9,5.66c0,0,2.43-9.71-8.09-8.9,0,0,4.86-4,10.52-3.24,0,0-7.28-4.86-12.14,1.62,0,0,7.28-7.29,8.9-6.48,0,0-4-4-10.52,5.67,0,0-3.24-5.67-7.29-4.86a1.59,1.59,0,0,1,1.62,1.62C1209.68,628.72,1213.73,633.58,1213.73,633.58Z"/><path class="cls-68" d="M1189.18,612.59s-7.83,7.21-2.66,10.56c0,0,1.77-9,3.57-9.21,0,0-4.25,6.75.47,9.43,0,0-1.6-9.65.65-9.21,0,0,7.21,7.83,10.57,5.58a28.7,28.7,0,0,1-3.38-3.58c-.9-1.35-4.5-3.81-4.5-3.81s7.62-3.16,10.55-.25c0,0-3.4-9.42-11.68-2.89,0,0,1.77-6.06,6.93-8.55,0,0-8.76,0-9.18,8.11,0,0,2-10.11,3.78-10.34,0,0-5.61-1.1-5.58,10.57,0,0-5.84-2.9-8.75,0a1.58,1.58,0,0,1,2.24.44C1183.12,610.81,1189.18,612.59,1189.18,612.59Z"/><path class="cls-68" d="M1212.68,612.5s-10.53,1.62-8.1,7.29c0,0,6.48-6.48,8.1-5.67,0,0-7.29,3.24-4.86,8.09,0,0,4-8.9,5.67-7.28,0,0,1.62,10.52,5.66,10.52a28.64,28.64,0,0,1-.81-4.86c0-1.61-1.62-5.66-1.62-5.66s8.1,1.62,8.91,5.66c0,0,2.43-9.71-8.1-8.9,0,0,4.86-4.05,10.53-3.24,0,0-7.29-4.86-12.14,1.62,0,0,7.28-7.28,8.9-6.48,0,0-4-4-10.52,5.67,0,0-3.24-5.67-7.29-4.86a1.59,1.59,0,0,1,1.62,1.62C1208.63,607.64,1212.68,612.5,1212.68,612.5Z"/><path class="cls-68" d="M1174.74,583s-10.53,1.62-8.1,7.29c0,0,6.48-6.48,8.1-5.67,0,0-7.29,3.24-4.86,8.1,0,0,4-8.91,5.67-7.29,0,0,1.62,10.52,5.66,10.52a28.46,28.46,0,0,1-.81-4.85c0-1.62-1.62-5.67-1.62-5.67s8.1,1.62,8.91,5.67c0,0,2.43-9.72-8.1-8.91,0,0,4.86-4,10.53-3.24,0,0-7.29-4.85-12.15,1.62,0,0,7.29-7.28,8.91-6.47,0,0-4.05-4.05-10.52,5.66,0,0-3.24-5.66-7.29-4.85a1.58,1.58,0,0,1,1.62,1.61C1170.69,578.13,1174.74,583,1174.74,583Z"/><path class="cls-68" d="M1170.52,564s-10.52,1.62-8.09,7.29c0,0,6.47-6.48,8.09-5.67,0,0-7.28,3.24-4.86,8.09,0,0,4-8.9,5.67-7.28,0,0,1.62,10.52,5.67,10.52a28.66,28.66,0,0,1-.81-4.85c0-1.62-1.62-5.67-1.62-5.67s8.09,1.62,8.9,5.67c0,0,2.43-9.72-8.09-8.91,0,0,4.86-4.05,10.52-3.24,0,0-7.28-4.85-12.14,1.62,0,0,7.29-7.28,8.9-6.47,0,0-4-4-10.52,5.66,0,0-3.24-5.66-7.29-4.85a1.58,1.58,0,0,1,1.62,1.61C1166.47,559.16,1170.52,564,1170.52,564Z"/><path class="cls-68" d="M1152.67,542.82s-10.58,1.23-8.36,7c0,0,6.71-6.23,8.3-5.37,0,0-7.4,3-5.15,7.92,0,0,4.37-8.75,5.93-7.08,0,0,1.23,10.58,5.27,10.73a28.66,28.66,0,0,1-.63-4.89c.06-1.61-1.41-5.72-1.41-5.72s8,1.92,8.69,6c0,0,2.79-9.62-7.76-9.19,0,0,5-3.87,10.64-2.85,0,0-7.11-5.12-12.2,1.17,0,0,7.55-7,9.14-6.15,0,0-3.9-4.19-10.73,5.28,0,0-3-5.78-7.1-5.12a1.59,1.59,0,0,1,1.56,1.68C1148.8,537.81,1152.67,542.82,1152.67,542.82Z"/><path class="cls-68" d="M1211.62,597.75s-10.52,1.61-8.09,7.28c0,0,6.47-6.48,8.09-5.67,0,0-7.28,3.24-4.85,8.1,0,0,4-8.91,5.66-7.29,0,0,1.62,10.53,5.67,10.53a28.64,28.64,0,0,1-.81-4.86c0-1.62-1.62-5.67-1.62-5.67s8.1,1.62,8.91,5.67c0,0,2.42-9.71-8.1-8.9,0,0,4.86-4.05,10.52-3.24,0,0-7.28-4.86-12.14,1.62,0,0,7.29-7.29,8.91-6.48,0,0-4-4.05-10.53,5.67,0,0-3.24-5.67-7.28-4.86a1.59,1.59,0,0,1,1.62,1.62C1207.58,592.89,1211.62,597.75,1211.62,597.75Z"/><path class="cls-68" d="M1211,575.62s-7.84-7.2-10.75-1.76c0,0,9.11,1,9.49,2.77,0,0-7.09-3.66-9.36,1.28,0,0,9.48-2.41,9.23-.14,0,0-7.2,7.85-4.67,11a28.12,28.12,0,0,1,3.29-3.67c1.26-1,3.41-4.81,3.41-4.81s3.8,7.33,1.14,10.49c0,0,9.1-4.18,1.89-11.88,0,0,6.2,1.25,9.11,6.18,0,0-.77-8.72-8.86-8.46,0,0,10.24,1.13,10.62,2.9,0,0,.63-5.69-11-4.67,0,0,2.4-6.07-.77-8.72a1.57,1.57,0,0,1-.25,2.27C1212.27,569.43,1211,575.62,1211,575.62Z"/><path class="cls-68" d="M1198.6,564.38s10.12-3.3,6.8-8.5c0,0-5.34,7.44-7.07,6.91,0,0,6.67-4.38,3.48-8.78,0,0-2.55,9.44-4.41,8.11,0,0-3.3-10.12-7.29-9.47a28.66,28.66,0,0,1,1.58,4.67c.26,1.59,2.52,5.32,2.52,5.32s-8.25-.28-9.71-4.14c0,0-.82,10,9.44,7.47,0,0-4.14,4.78-9.86,4.9,0,0,8,3.61,11.72-3.56,0,0-6,8.37-7.74,7.83,0,0,4.65,3.34,9.46-7.3,0,0,4.12,5.07,8,3.61a1.58,1.58,0,0,1-1.86-1.33C1203.38,568.52,1198.6,564.38,1198.6,564.38Z"/><path class="cls-68" d="M1214.78,559.81s-10.52,1.61-8.09,7.28c0,0,6.48-6.48,8.09-5.67,0,0-7.28,3.24-4.85,8.1,0,0,4-8.91,5.66-7.29,0,0,1.62,10.53,5.67,10.53a28.64,28.64,0,0,1-.81-4.86c0-1.62-1.62-5.67-1.62-5.67s8.1,1.62,8.91,5.67c0,0,2.43-9.71-8.1-8.9,0,0,4.86-4,10.53-3.24,0,0-7.29-4.86-12.15,1.62,0,0,7.29-7.29,8.91-6.48,0,0-4-4-10.53,5.67,0,0-3.23-5.67-7.28-4.86a1.59,1.59,0,0,1,1.62,1.62C1210.74,555,1214.78,559.81,1214.78,559.81Z"/><path class="cls-68" d="M1181.06,544s-10.52,1.62-8.1,7.28c0,0,6.48-6.47,8.1-5.66,0,0-7.29,3.23-4.86,8.09,0,0,4-8.9,5.67-7.28,0,0,1.62,10.52,5.67,10.52a28.64,28.64,0,0,1-.81-4.86c0-1.62-1.62-5.66-1.62-5.66s8.09,1.61,8.9,5.66c0,0,2.43-9.71-8.09-8.9,0,0,4.85-4.05,10.52-3.24,0,0-7.28-4.86-12.14,1.62,0,0,7.28-7.29,8.9-6.48,0,0-4-4.05-10.52,5.67,0,0-3.24-5.67-7.29-4.86a1.59,1.59,0,0,1,1.62,1.62C1177,539.14,1181.06,544,1181.06,544Z"/><path class="cls-68" d="M1171.51,525s-4.21-9.79-9.08-6c0,0,7.89,4.64,7.51,6.41,0,0-5-6.24-9-2.67,0,0,9.63,1.69,8.47,3.66,0,0-9.78,4.2-8.77,8.12a29,29,0,0,1,4.5-2c1.57-.4,5.08-3,5.08-3s.46,8.25-3.25,10c0,0,10-.08,6.59-10.06,0,0,5.13,3.69,5.77,9.37,0,0,2.88-8.27-4.61-11.35,0,0,8.88,5.23,8.5,7,0,0,2.91-4.93-8.12-8.77,0,0,4.67-4.55,2.88-8.27a1.6,1.6,0,0,1-1.17,2C1175.2,519.85,1171.51,525,1171.51,525Z"/><path class="cls-68" d="M1188.44,520.81s-10.53,1.62-8.1,7.29c0,0,6.48-6.48,8.1-5.67,0,0-7.29,3.24-4.86,8.1,0,0,4.05-8.91,5.67-7.29,0,0,1.62,10.52,5.66,10.52a28.46,28.46,0,0,1-.81-4.85c0-1.62-1.61-5.67-1.61-5.67s8.09,1.62,8.9,5.67c0,0,2.43-9.72-8.1-8.91,0,0,4.86-4,10.53-3.24,0,0-7.29-4.85-12.14,1.62,0,0,7.28-7.28,8.9-6.47,0,0-4-4.05-10.52,5.66,0,0-3.24-5.66-7.29-4.85a1.58,1.58,0,0,1,1.62,1.61C1184.39,516,1188.44,520.81,1188.44,520.81Z"/><rect class="cls-7" x="1139.26" y="563.27" width="4.18" height="103.28"/><g class="cls-94"><rect class="cls-7" x="1139.26" y="563.27" width="5.57" height="106.44"/><g class="cls-95"><path class="cls-68" d="M1145,628.31s-13.92,1.62-10.71,7.28c0,0,8.57-6.47,10.71-5.66,0,0-9.64,3.24-6.43,8.09,0,0,5.36-8.9,7.5-7.28,0,0,2.14,10.52,7.49,10.52a22.42,22.42,0,0,1-1.07-4.86c0-1.62-2.14-5.66-2.14-5.66s10.71,1.62,11.78,5.66c0,0,3.21-9.71-10.71-8.9,0,0,6.42-4,13.92-3.24,0,0-9.64-4.86-16.06,1.62,0,0,9.63-7.29,11.78-6.48,0,0-5.36-4-13.92,5.67,0,0-4.28-5.67-9.64-4.86,0,0,2.14,0,2.14,1.62S1145,628.31,1145,628.31Z"/><path class="cls-68" d="M1146.73,596.69s-13.92,1.62-10.71,7.29c0,0,8.57-6.48,10.71-5.67,0,0-9.64,3.24-6.42,8.1,0,0,5.35-8.91,7.49-7.29,0,0,2.14,10.52,7.49,10.52a22.29,22.29,0,0,1-1.07-4.85c0-1.62-2.14-5.67-2.14-5.67s10.71,1.62,11.78,5.67c0,0,3.21-9.72-10.71-8.91,0,0,6.43-4,13.92-3.24,0,0-9.64-4.85-16.06,1.62,0,0,9.64-7.28,11.78-6.47,0,0-5.36-4-13.92,5.66,0,0-4.28-5.66-9.64-4.85,0,0,2.15,0,2.15,1.62S1146.73,596.69,1146.73,596.69Z"/><path class="cls-68" d="M1128.54,650.44s-13.91,1.62-10.7,7.29c0,0,8.56-6.48,10.7-5.67,0,0-9.63,3.24-6.42,8.09,0,0,5.35-8.9,7.49-7.28,0,0,2.14,10.52,7.5,10.52a22.44,22.44,0,0,1-1.07-4.85c0-1.62-2.14-5.67-2.14-5.67s10.7,1.62,11.77,5.67c0,0,3.21-9.72-10.7-8.91,0,0,6.42-4,13.91-3.24,0,0-9.63-4.86-16.05,1.62,0,0,9.63-7.28,11.77-6.48,0,0-5.35-4-13.92,5.67,0,0-4.28-5.67-9.63-4.86,0,0,2.14,0,2.14,1.62S1128.54,650.44,1128.54,650.44Z"/><path class="cls-68" d="M1126.82,575.61s-13.91,1.62-10.7,7.29c0,0,8.56-6.48,10.7-5.67,0,0-9.63,3.24-6.42,8.1,0,0,5.35-8.91,7.49-7.29,0,0,2.15,10.53,7.5,10.53a22.42,22.42,0,0,1-1.07-4.86c0-1.62-2.14-5.67-2.14-5.67s10.7,1.62,11.77,5.67c0,0,3.21-9.72-10.7-8.91,0,0,6.42-4,13.91-3.23,0,0-9.63-4.86-16.05,1.61,0,0,9.63-7.28,11.77-6.47,0,0-5.35-4.05-13.91,5.67,0,0-4.29-5.67-9.64-4.86,0,0,2.14,0,2.14,1.62S1126.82,575.61,1126.82,575.61Z"/></g></g></g><path class="cls-6" d="M1071.37,558s32.32-40.4,41.46-36.53-41.46,14.4-41.46,14.4Z"/><path class="cls-6" d="M1196,529.08s36.68,19.91,41.41,32.21-5.7-31.41-5.7-31.41Z"/><path class="cls-50" d="M1115.64,485.28s22.92,44.33,30.95,50.17S1181,485.28,1181,485.28Z"/><g class="cls-96"><ellipse class="cls-8" cx="1130.92" cy="505.93" rx="1.56" ry="3.14" transform="translate(97.99 1190.03) rotate(-57.62)"/><ellipse class="cls-8" cx="1134.08" cy="508" rx="1.56" ry="3.15" transform="translate(165.29 1286.22) rotate(-62.9)"/><ellipse class="cls-8" cx="1138.3" cy="510.06" rx="1.55" ry="3.15" transform="translate(263.58 1399.3) rotate(-69.61)"/><ellipse class="cls-8" cx="1141.46" cy="511.09" rx="1.55" ry="3.16" transform="translate(372.15 1497.15) rotate(-76.16)"/><ellipse class="cls-8" cx="1145.67" cy="512.13" rx="3.16" ry="1.55"/><ellipse class="cls-8" cx="1149.89" cy="512.13" rx="1.55" ry="3.16" transform="translate(517.9 1600.76) rotate(-83.87)"/><ellipse class="cls-8" cx="1154.1" cy="512.13" rx="3.16" ry="1.55" transform="translate(-73.8 218.04) rotate(-10.46)"/><ellipse class="cls-8" cx="1158.32" cy="511.09" rx="3.16" ry="1.55" transform="translate(-84.5 269.59) rotate(-12.81)"/><ellipse class="cls-8" cx="1162.54" cy="510.06" rx="3.16" ry="1.55" transform="translate(-57.33 158.53) rotate(-7.61)"/><ellipse class="cls-8" cx="1166.75" cy="509.03" rx="3.15" ry="1.55" transform="translate(-101.86 403.94) rotate(-18.84)"/></g><path class="cls-51" d="M1115.64,485.28s22.92,44.33,30.95,50.17S1181,485.28,1181,485.28Z"/><path class="cls-97" d="M1124.07,477.91s-6.32-1.06-4.22,7.37C1119.85,485.28,1124.07,481.07,1124.07,477.91Z"/><path class="cls-7" d="M1120.2,479.66s-13.7,6-12.29,9.49c0,0,1,15.1,3.86,19.32s8.08,1,8.08,1,12.65-4.21-1,7.38c0,0-8.43,3.51,34.78,22.84l1.75-5.27S1115.29,494.07,1120.2,479.66Z"/><g class="cls-98"><path class="cls-68" d="M1129.37,506.78s-6.36-8.55-10.23-3.75c0,0,8.75,2.69,8.79,4.5,0,0-6.27-4.92-9.42-.5,0,0,9.76-.59,9.09,1.6,0,0-8.55,6.35-6.65,9.93a28.73,28.73,0,0,1,3.91-3c1.43-.76,4.25-4.08,4.25-4.08s2.36,7.91-.84,10.52c0,0,9.72-2.39,4.08-11.32,0,0,5.85,2.4,7.79,7.79,0,0,.88-8.71-7.11-10,0,0,9.84,3,9.89,4.85,0,0,1.68-5.47-9.94-6.66,0,0,3.5-5.51.89-8.71a1.59,1.59,0,0,1-.67,2.19C1131.77,500.93,1129.37,506.78,1129.37,506.78Z"/><path class="cls-68" d="M1127.43,527.46s-10.65.07-9.07,6c0,0,7.35-5.46,8.83-4.42,0,0-7.68,2.14-6,7.3,0,0,5.3-8.22,6.67-6.38,0,0,.06,10.64,4.07,11.23a29,29,0,0,1-.1-4.92c.24-1.6-.77-5.84-.77-5.84s7.77,2.78,8,6.9c0,0,3.82-9.26-6.71-10,0,0,5.4-3.3,10.89-1.67,0,0-6.51-5.87-12.25-.17,0,0,8.27-6.14,9.75-5.11,0,0-3.42-4.59-11.24,4.08,0,0-2.38-6.08-6.5-5.87a1.6,1.6,0,0,1,1.37,1.84C1124.13,522.07,1127.43,527.46,1127.43,527.46Z"/><path class="cls-68" d="M1150.44,531s-6.35-8.55-10.22-3.75c0,0,8.75,2.69,8.79,4.5,0,0-6.27-4.92-9.43-.5,0,0,9.77-.59,9.09,1.6,0,0-8.54,6.35-6.65,9.93a29,29,0,0,1,3.92-3c1.43-.76,4.25-4.08,4.25-4.08s2.35,7.91-.84,10.52c0,0,9.72-2.4,4.08-11.32,0,0,5.85,2.4,7.78,7.79,0,0,.89-8.71-7.11-10,0,0,9.85,3,9.89,4.85,0,0,1.69-5.48-9.93-6.66,0,0,3.5-5.51.89-8.71a1.58,1.58,0,0,1-.68,2.19C1152.84,525.17,1150.44,531,1150.44,531Z"/><path class="cls-68" d="M1108.29,484.65s-6.36-8.55-10.23-3.75c0,0,8.75,2.69,8.8,4.5,0,0-6.27-4.92-9.43-.5,0,0,9.76-.59,9.09,1.6,0,0-8.55,6.35-6.65,9.93a28.73,28.73,0,0,1,3.91-3c1.43-.76,4.25-4.08,4.25-4.08s2.36,7.91-.84,10.52c0,0,9.72-2.4,4.08-11.32,0,0,5.85,2.4,7.79,7.79,0,0,.88-8.71-7.11-10,0,0,9.85,3,9.89,4.84,0,0,1.68-5.47-9.93-6.65,0,0,3.49-5.51.88-8.71a1.59,1.59,0,0,1-.67,2.19C1110.69,478.8,1108.29,484.65,1108.29,484.65Z"/><path class="cls-68" d="M1124.19,492.8s-10.63.45-8.84,6.35c0,0,7.15-5.72,8.67-4.74,0,0-7.6,2.42-5.72,7.51,0,0,5-8.4,6.43-6.62,0,0,.45,10.64,4.47,11.09a29.57,29.57,0,0,1-.27-4.92c.18-1.61-1-5.81-1-5.81s7.87,2.5,8.23,6.61c0,0,3.48-9.38-7.07-9.74,0,0,5.27-3.49,10.82-2.06,0,0-6.71-5.63-12.25.27,0,0,8-6.43,9.56-5.45,0,0-3.57-4.47-11.08,4.47,0,0-2.59-6-6.71-5.63a1.59,1.59,0,0,1,1.43,1.79C1120.71,487.53,1124.19,492.8,1124.19,492.8Z"/><path class="cls-68" d="M1109.34,506.78s-6.35-8.55-10.22-3.75c0,0,8.75,2.69,8.79,4.5,0,0-6.27-4.92-9.43-.5,0,0,9.77-.59,9.09,1.6,0,0-8.54,6.35-6.65,9.93a28.37,28.37,0,0,1,3.92-3c1.43-.76,4.25-4.08,4.25-4.08s2.35,7.91-.85,10.52c0,0,9.73-2.39,4.09-11.32,0,0,5.85,2.4,7.78,7.79,0,0,.89-8.71-7.11-10,0,0,9.85,3,9.89,4.85,0,0,1.69-5.47-9.93-6.66,0,0,3.49-5.51.89-8.71a1.59,1.59,0,0,1-.68,2.19C1111.74,500.93,1109.34,506.78,1109.34,506.78Z"/></g><path class="cls-7" d="M1176.62,481.3s10.24,7.59,10.19,10.76,1.79,15.9-1.34,16.9-10.26-6.52-9.31-1.22,5.46,4.33,4.69,8.55-38.92,49.41-42,49C1136.34,565,1155.66,530.57,1176.62,481.3Z"/><g class="cls-99"><path class="cls-68" d="M1151.48,527.81s-6.32-8.57-10.21-3.79c0,0,8.74,2.73,8.77,4.54,0,0-6.25-4.95-9.42-.55,0,0,9.77-.54,9.08,1.64,0,0-8.57,6.32-6.69,9.9a28.25,28.25,0,0,1,3.93-3c1.43-.75,4.27-4.06,4.27-4.06s2.32,7.92-.89,10.52c0,0,9.73-2.36,4.13-11.31,0,0,5.84,2.43,7.75,7.82,0,0,.92-8.7-7.07-10,0,0,9.84,3.07,9.87,4.88,0,0,1.71-5.46-9.9-6.69,0,0,3.52-5.5.92-8.71a1.59,1.59,0,0,1-.68,2.19C1153.9,522,1151.48,527.81,1151.48,527.81Z"/><path class="cls-68" d="M1151.39,548.89s-6.32-8.58-10.21-3.79c0,0,8.74,2.73,8.78,4.54,0,0-6.25-4.95-9.43-.55,0,0,9.77-.55,9.09,1.64,0,0-8.58,6.32-6.7,9.9a28.91,28.91,0,0,1,3.93-3c1.43-.75,4.27-4.06,4.27-4.06s2.32,7.92-.89,10.52c0,0,9.73-2.36,4.13-11.31,0,0,5.84,2.43,7.75,7.82,0,0,.93-8.71-7.06-10,0,0,9.83,3.07,9.86,4.88,0,0,1.71-5.46-9.9-6.69,0,0,3.52-5.5.92-8.71a1.58,1.58,0,0,1-.68,2.18C1153.82,543.05,1151.39,548.89,1151.39,548.89Z"/><path class="cls-68" d="M1185.32,498.44s-6.31-8.57-10.21-3.79c0,0,8.75,2.73,8.78,4.54,0,0-6.25-4.95-9.42-.55,0,0,9.76-.54,9.08,1.64,0,0-8.57,6.32-6.69,9.9a29.47,29.47,0,0,1,3.92-3c1.44-.75,4.27-4.06,4.27-4.06s2.32,7.92-.89,10.52c0,0,9.74-2.36,4.14-11.31,0,0,5.83,2.43,7.75,7.82,0,0,.92-8.7-7.07-10,0,0,9.83,3.07,9.87,4.88,0,0,1.7-5.46-9.91-6.69,0,0,3.52-5.5.93-8.71a1.59,1.59,0,0,1-.69,2.19C1187.75,492.6,1185.32,498.44,1185.32,498.44Z"/><path class="cls-68" d="M1174,523.34s.43-10.64-5.6-9.34c0,0,5.11,7.6,4,9,0,0-1.78-7.77-7-6.32,0,0,8,5.68,6.06,7,0,0-10.64-.43-11.42,3.54a28.87,28.87,0,0,1,4.93.14c1.58.31,5.87-.5,5.87-.5s-3.14,7.63-7.27,7.65c0,0,9.07,4.25,10.29-6.23,0,0,3,5.54,1.16,10.94,0,0,6.16-6.21.74-12.22,0,0,5.75,8.55,4.65,10,0,0,4.75-3.2-3.55-11.42,0,0,6.19-2.09,6.17-6.22a1.59,1.59,0,0,1-1.9,1.28C1179.49,520.3,1174,523.34,1174,523.34Z"/><path class="cls-68" d="M1163.18,502.56s-6.32-8.57-10.22-3.79c0,0,8.75,2.73,8.78,4.54,0,0-6.25-4.95-9.42-.54,0,0,9.76-.55,9.08,1.64,0,0-8.57,6.31-6.69,9.9a28.6,28.6,0,0,1,3.92-3c1.44-.75,4.27-4.07,4.27-4.07s2.32,7.93-.89,10.52c0,0,9.74-2.35,4.14-11.3,0,0,5.84,2.42,7.75,7.82,0,0,.92-8.71-7.07-10,0,0,9.83,3.08,9.87,4.89,0,0,1.71-5.47-9.91-6.7,0,0,3.52-5.49.93-8.7A1.58,1.58,0,0,1,1167,496C1165.6,496.72,1163.18,502.56,1163.18,502.56Z"/><path class="cls-68" d="M1171.7,480.47s-6.32-8.58-10.21-3.79c0,0,8.74,2.73,8.77,4.54,0,0-6.25-5-9.42-.55,0,0,9.76-.55,9.08,1.64,0,0-8.57,6.32-6.69,9.9a28.25,28.25,0,0,1,3.93-3c1.43-.75,4.26-4.06,4.26-4.06s2.33,7.92-.88,10.52c0,0,9.73-2.36,4.13-11.31,0,0,5.84,2.43,7.75,7.82,0,0,.92-8.71-7.07-10,0,0,9.84,3.07,9.87,4.88,0,0,1.71-5.46-9.9-6.69,0,0,3.51-5.5.92-8.71a1.58,1.58,0,0,1-.68,2.18C1174.12,474.63,1171.7,480.47,1171.7,480.47Z"/></g><circle class="cls-100" cx="1152.52" cy="593.84" r="3.16"/><circle class="cls-100" cx="1152.52" cy="623.34" r="3.16"/><circle class="cls-101" cx="1152.25" cy="624.52" r="0.53"/><circle class="cls-101" cx="1153.05" cy="594.89" r="0.53"/><path class="cls-6" d="M1062.94,593.84s12.65-40.05,23.19-46.38-7.64-10.8-7.64-10.8l-19.76,56.12Z"/><path class="cls-6" d="M1210.43,545.91s17,23.1,23.52,40.72-5.65-49.6-5.65-49.6l-16.67-2.7Z"/><g class="cls-102"><path class="cls-68" d="M1220.3,575.09s-9.32,4.15-5.87,9.35c0,0,4.56-8.14,6.22-7.7,0,0-6,5-2.72,9.4,0,0,1.8-10,3.64-8.77,0,0,3.75,10.33,7.47,9.37a32,32,0,0,1-1.79-4.76c-.35-1.65-2.71-5.38-2.71-5.38s7.79-.28,9.41,3.65c0,0,.13-10.48-9.36-7.15,0,0,3.59-5.28,9-5.8,0,0-7.74-3.22-10.81,4.54,0,0,5.12-9.16,6.79-8.72,0,0-4.59-3.16-8.45,8.28,0,0-4.2-5-7.74-3.21a1.46,1.46,0,0,1,1.83,1.26C1215.53,571.1,1220.3,575.09,1220.3,575.09Z"/></g><path class="cls-68" d="M1205.3,539.78s-10.52,1.62-8.1,7.29c0,0,6.48-6.48,8.1-5.67,0,0-7.29,3.24-4.86,8.1,0,0,4-8.91,5.67-7.29,0,0,1.62,10.52,5.67,10.52a28.46,28.46,0,0,1-.81-4.85c0-1.62-1.62-5.67-1.62-5.67s8.09,1.62,8.9,5.67c0,0,2.43-9.72-8.09-8.91,0,0,4.85-4.05,10.52-3.24,0,0-7.29-4.85-12.14,1.62,0,0,7.28-7.28,8.9-6.47,0,0-4-4-10.52,5.66,0,0-3.24-5.66-7.29-4.85a1.58,1.58,0,0,1,1.62,1.61C1201.25,534.92,1205.3,539.78,1205.3,539.78Z"/><path class="cls-68" d="M1085.16,533.46s-10.53,1.62-8.1,7.28c0,0,6.48-6.47,8.1-5.66,0,0-7.29,3.23-4.86,8.09,0,0,4-8.9,5.67-7.28,0,0,1.61,10.52,5.66,10.52a28.64,28.64,0,0,1-.81-4.86c0-1.62-1.62-5.66-1.62-5.66s8.1,1.62,8.91,5.66c0,0,2.43-9.71-8.1-8.9,0,0,4.86-4,10.53-3.24,0,0-7.29-4.86-12.15,1.62,0,0,7.29-7.29,8.91-6.48,0,0-4-4-10.52,5.67,0,0-3.24-5.67-7.29-4.86a1.59,1.59,0,0,1,1.62,1.62C1081.11,528.6,1085.16,533.46,1085.16,533.46Z"/><path class="cls-68" d="M1106.1,523.12s-8.88-5.88-10.89,0c0,0,9.15-.44,9.81,1.25,0,0-7.58-2.5-9,2.72,0,0,9-3.87,9.09-1.58,0,0-5.87,8.88-2.88,11.6a28.7,28.7,0,0,1,2.67-4.14c1.09-1.2,2.61-5.28,2.61-5.28s4.9,6.64,2.78,10.18c0,0,8.33-5.56,0-12,0,0,6.32.27,10,4.68,0,0-2.13-8.49-10.08-7,0,0,10.3-.5,10.95,1.19,0,0-.28-5.72-11.6-2.88,0,0,1.41-6.37-2.13-8.5a1.59,1.59,0,0,1,.11,2.29C1106.37,516.8,1106.1,523.12,1106.1,523.12Z"/><path class="cls-68" d="M1216.25,518.26s.38-10.64-5.64-9.31c0,0,5.15,7.57,4.05,9,0,0-1.81-7.76-7-6.28,0,0,8,5.64,6.1,6.92,0,0-10.64-.37-11.4,3.6a28.07,28.07,0,0,1,4.92.12c1.59.3,5.87-.53,5.87-.53s-3.1,7.65-7.23,7.68c0,0,9.09,4.21,10.26-6.28,0,0,3.07,5.52,1.21,10.94,0,0,6.14-6.25.68-12.23,0,0,5.8,8.52,4.7,10,0,0,4.73-3.22-3.6-11.4,0,0,6.17-2.12,6.14-6.25a1.6,1.6,0,0,1-1.9,1.29C1221.78,515.2,1216.25,518.26,1216.25,518.26Z"/><path class="cls-68" d="M1230.94,546s-2.67-10.31-8.06-7.33c0,0,7.09,5.8,6.44,7.49,0,0-4-6.93-8.54-4,0,0,9.27,3.13,7.82,4.91,0,0-10.31,2.66-9.9,6.69a28.46,28.46,0,0,1,4.75-1.29c1.61-.17,5.47-2.18,5.47-2.18s-.8,8.21-4.74,9.42c0,0,9.91,1.45,8-8.94,0,0,4.51,4.43,4.27,10.15,0,0,4.11-7.74-2.82-11.92,0,0,8,6.52,7.33,8.21,0,0,3.62-4.43-6.69-9.91,0,0,5.31-3.78,4.1-7.73a1.58,1.58,0,0,1-1.45,1.77C1235.36,541.46,1230.94,546,1230.94,546Z"/><path class="cls-68" d="M1240.08,561.91s-10.53,1.62-8.1,7.29c0,0,6.48-6.48,8.1-5.67,0,0-7.29,3.24-4.86,8.1,0,0,4-8.91,5.67-7.29,0,0,1.62,10.53,5.66,10.53a28.64,28.64,0,0,1-.81-4.86c0-1.62-1.61-5.67-1.61-5.67s8.09,1.62,8.9,5.67c0,0,2.43-9.72-8.09-8.91,0,0,4.85-4,10.52-3.23,0,0-7.29-4.86-12.14,1.61,0,0,7.28-7.28,8.9-6.47,0,0-4-4-10.52,5.66,0,0-3.24-5.66-7.29-4.85a1.59,1.59,0,0,1,1.62,1.62C1236,557.06,1240.08,561.91,1240.08,561.91Z"/><path class="cls-68" d="M1228.49,528.19s-10.53,1.62-8.1,7.28c0,0,6.48-6.47,8.1-5.66,0,0-7.29,3.24-4.86,8.09,0,0,4-8.9,5.66-7.28,0,0,1.62,10.52,5.67,10.52a28.64,28.64,0,0,1-.81-4.86c0-1.62-1.62-5.66-1.62-5.66s8.1,1.62,8.91,5.66c0,0,2.43-9.71-8.1-8.9,0,0,4.86-4,10.53-3.24,0,0-7.29-4.86-12.15,1.62,0,0,7.29-7.29,8.91-6.48,0,0-4.05-4-10.53,5.67,0,0-3.23-5.67-7.28-4.86a1.59,1.59,0,0,1,1.62,1.62C1224.44,523.33,1228.49,528.19,1228.49,528.19Z"/><path class="cls-68" d="M1072.51,512.38s-10.52,1.62-8.1,7.29c0,0,6.48-6.48,8.1-5.67,0,0-7.29,3.24-4.86,8.09,0,0,4-8.9,5.67-7.28,0,0,1.62,10.52,5.67,10.52a28.66,28.66,0,0,1-.81-4.85c0-1.62-1.62-5.67-1.62-5.67s8.09,1.62,8.9,5.67c0,0,2.43-9.72-8.09-8.91,0,0,4.85-4.05,10.52-3.24,0,0-7.29-4.85-12.14,1.62,0,0,7.28-7.28,8.9-6.47,0,0-4.05-4.05-10.52,5.66,0,0-3.24-5.66-7.29-4.86a1.59,1.59,0,0,1,1.62,1.62C1068.46,507.52,1072.51,512.38,1072.51,512.38Z"/><path class="cls-68" d="M1094.13,515s-6.3,8.58-.58,10.87c0,0,0-9.16,1.72-9.73,0,0-2.86,7.44,2.29,9.16,0,0-3.43-9.16-1.14-9.16,0,0,8.58,6.3,11.44,3.44a28.76,28.76,0,0,1-4-2.86c-1.15-1.15-5.15-2.87-5.15-2.87s6.87-4.57,10.3-2.28c0,0-5.15-8.59-12-.58,0,0,.58-6.3,5.16-9.73,0,0-8.59,1.72-7.45,9.73,0,0,0-10.3,1.72-10.87,0,0-5.72,0-3.44,11.44,0,0-6.29-1.72-8.58,1.72a1.58,1.58,0,0,1,2.29,0C1087.83,514.42,1094.13,515,1094.13,515Z"/><path class="cls-68" d="M1061.08,545.14s-8.38-6.57-10.86-.93c0,0,9.16.3,9.67,2,0,0-7.34-3.11-9.22,2,0,0,9.26-3.14,9.19-.85,0,0-6.58,8.38-3.81,11.33a28.93,28.93,0,0,1,3-3.91c1.18-1.11,3-5.06,3-5.06s4.35,7,2,10.38c0,0,8.75-4.87,1-12,0,0,6.27.78,9.55,5.47,0,0-1.43-8.64-9.48-7.76,0,0,10.3.34,10.82,2.07,0,0,.18-5.72-11.33-3.8,0,0,1.92-6.24-1.44-8.64a1.58,1.58,0,0,1-.08,2.29C1061.85,538.87,1061.08,545.14,1061.08,545.14Z"/><path class="cls-68" d="M1058.33,565.24s-10.56-1.36-9.79,4.76c0,0,8-4.43,9.35-3.21,0,0-7.9,1.1-6.91,6.44,0,0,6.35-7.44,7.46-5.44,0,0-1.35,10.56,2.54,11.68a29.31,29.31,0,0,1,.56-4.89c.45-1.56,0-5.89,0-5.89s7.34,3.79,7,7.9c0,0,5-8.66-5.33-10.79,0,0,5.79-2.55,11-.21,0,0-5.66-6.68-12.11-1.79,0,0,9-5,10.34-3.77,0,0-2.77-5-11.68,2.54,0,0-1.54-6.34-5.66-6.68a1.58,1.58,0,0,1,1.11,2C1055.78,559.45,1058.33,565.24,1058.33,565.24Z"/><path class="cls-68" d="M1046.88,584.19s-9.44,4.91-5.32,9.5c0,0,4-8.22,5.84-8,0,0-5.86,5.41-2,9.23,0,0,1-9.74,3-8.72,0,0,4.91,9.44,8.75,8.14a28.2,28.2,0,0,1-2.33-4.34c-.52-1.53-3.35-4.84-3.35-4.84s8.18-1.07,10.25,2.51c0,0-.82-10-10.53-5.84,0,0,3.3-5.39,8.93-6.44,0,0-8.46-2.27-11,5.43,0,0,4.56-9.24,6.35-9,0,0-5.13-2.53-8.14,8.75,0,0-4.89-4.33-8.46-2.26a1.58,1.58,0,0,1,2,1C1041.49,580.89,1046.88,584.19,1046.88,584.19Z"/><path class="cls-68" d="M1052,603.38s-9.43-4.94-10.84,1.06c0,0,9-1.37,9.88.24,0,0-7.79-1.71-8.72,3.64,0,0,8.54-4.77,8.89-2.5,0,0-5,9.43-1.69,11.83a28.53,28.53,0,0,1,2.23-4.39c1-1.3,2.06-5.52,2.06-5.52s5.56,6.11,3.81,9.84c0,0,7.72-6.37-1.23-12,0,0,6.31-.37,10.39,3.64,0,0-3-8.23-10.74-5.9,0,0,10.19-1.54,11,.07,0,0-.85-5.66-11.83-1.68,0,0,.76-6.49-3-8.24a1.59,1.59,0,0,1,.34,2.27C1051.63,597.07,1052,603.38,1052,603.38Z"/><path class="cls-103" d="M1059.11,351c-1,1.16-2.22,2.3-2.61,3.8a17.13,17.13,0,0,0,4.44-3c3-2.76,4.87-6.48,6.7-10.11a14.88,14.88,0,0,0,1.25-3.07c-3-1.44-3.74,2.17-4.59,4.16A29.42,29.42,0,0,1,1059.11,351Z"/><path class="cls-103" d="M1059.39,398.87l-.68,26.33a70.4,70.4,0,0,0,2.27-19.65,46.58,46.58,0,0,1,0-5.15,18,18,0,0,1,1.55-6c1.09-2.41.09-4.67-1.86-1.71C1059.5,394.4,1059.45,396.88,1059.39,398.87Z"/><path class="cls-103" d="M1075.5,348.87c1.07,2.05-1.12,4.71-.06,6.76a10.42,10.42,0,0,0,.53-7.47"/><path class="cls-103" d="M1085.7,426.4a23.49,23.49,0,0,1,1,6.09l.56,8.08a12,12,0,0,0,.9-5.55v-12a9.33,9.33,0,0,0-.49-3.83C1085.13,421,1084.73,423.61,1085.7,426.4Z"/><path class="cls-103" d="M1093.78,457.09c.44-.11.72-.54,1-.94l3.31-5.53c1-1.66,2.46-3.67,2.67-5.57-2,0-2.86,3.26-3.6,4.76C1096.6,450.84,1094.56,456.89,1093.78,457.09Z"/><path class="cls-103" d="M1116.49,467.16c.07,3.14-2,5.88-4,8.33,2.58-1.41,5-3.62,5.4-6.54.15-1.13-.3-2.57-1.44-2.72l0,.69"/><path class="cls-103" d="M1195,457.28l4.13,4.52c.36.38.94.79,1.34.44a25.44,25.44,0,0,0-10.22-9.13C1191,454.39,1195,455.72,1195,457.28Z"/><path class="cls-103" d="M1223.54,432.31c-.13,2.52-.38,5.2.81,7.43a42.63,42.63,0,0,1-.13-6.49,26.44,26.44,0,0,0,.3-5.95c-.26-1.84-1.46-4-3.43-4.28,0,1.67,1.16,2.43,1.77,3.81A12.14,12.14,0,0,1,1223.54,432.31Z"/><path class="cls-103" d="M1128.09,275a15.2,15.2,0,0,0-5.84,6.61l7.09-5.95c.46-.39,1-.9.85-1.5a7,7,0,0,0-4,2.07"/><path class="cls-103" d="M1235.44,356.26c2.87,4.88,5.85,10.41,4.5,15.91l-6.62-16.56c-.44-1.11-.72-2.69.35-3.21a13.11,13.11,0,0,1,2.39,6"/><path class="cls-103" d="M1237.87,380.65c1.1,3.67,1.65,7.65.54,11.32a3.46,3.46,0,0,1-2.15-2.9c-.21-1.25,0-2.53-.13-3.8-.21-2.7-1.64-5.13-2.46-7.71-.58-1.82-1-3.85-.43-5.5C1236.26,372.81,1237.07,378,1237.87,380.65Z"/><path class="cls-103" d="M1209.31,325.21a4.06,4.06,0,0,1,1.47-2.81,39.64,39.64,0,0,1,3.33,20.12c-4.23-4.76-.37-13.72-5.22-17.84"/><path class="cls-68" d="M1066.65,629.84s4.23,9.77,9.09,6c0,0-7.9-4.63-7.53-6.4,0,0,5,6.23,9.06,2.65,0,0-9.63-1.67-8.48-3.64,0,0,9.77-4.23,8.75-8.15a28.63,28.63,0,0,1-4.49,2c-1.57.41-5.08,3-5.08,3s-.48-8.25,3.23-10c0,0-10,.1-6.56,10.08,0,0-5.15-3.67-5.8-9.36,0,0-2.86,8.28,4.64,11.34,0,0-8.89-5.21-8.52-7,0,0-2.89,4.94,8.15,8.75,0,0-4.67,4.56-2.86,8.28a1.59,1.59,0,0,1,1.16-2C1063,635,1066.65,629.84,1066.65,629.84Z"/><path class="cls-3" d="M1103.87,1017.19s4.74,1.8,12.21-.79-5.18-3.64-5.18-3.64Z"/></svg>
