<svg id="Levelcomplete" xmlns="http://www.w3.org/2000/svg" width="250" height="290" viewBox="0 0 250 290"><defs><style>.cls-1{fill:#f4912d;}.cls-2{fill:#e9eced;}.cls-3{fill:#f94eb8;}.cls-4{fill:#963496;}</style></defs><title>nøgenbillede1</title><path class="cls-1" d="M226.7894,14.5H16.2106C12.2283,14.5,9,19.572,9,25.8285v208.43c0,6.2566,3.2283,11.3286,7.2106,11.3286H50.98V280.25l39.4549-34.663H226.7894c3.9823,0,7.2106-5.072,7.2106-11.3286V25.8285C234,19.572,230.7717,14.5,226.7894,14.5Z"/><rect class="cls-2" x="17" y="35.5" width="209" height="148" rx="12"/><path class="cls-3" d="M171.1318,68.8144c-12.5218-10.69-31.8736,47.3423-31.8736,47.3423-14.1155-9.1631-33.4674.2181-33.4674.2181S87.805,83.2134,75.2832,76.0139C63.1159,69.0182,45.3583,93.7459,17,126.3762v32.1256c1.09-.2178,2.5779.1438,3.6427-.6752,51.9085-39.9246,45.9891-54.5418,45.9891-54.5418,3.6427,12.8719,12.5218,40.5791,12.5218,40.5791,10.0174,29.4526,43.7124-1.5272,43.7124-1.5272,1.8214,12.8719,26.41,15.49,26.41,15.49,23.7629-2.1781,22.02-45.33,21.4951-53.2858a6.3374,6.3374,0,0,1-.0942-1.256s.0409.4462.0942,1.256C173.3087,119.5309,226,151.0634,226,151.0634V124.0107S183.6536,79.5046,171.1318,68.8144Z"/><path class="cls-3" d="M168.0757,104.5408c-.0512-.81-.09-1.256-.09-1.256A6.6089,6.6089,0,0,0,168.0757,104.5408Z"/><path class="cls-4" d="M122.6065,120.52s-1.9635,11.9992,0,15.0536S125.0064,120.9563,122.6065,120.52Z"/><circle class="cls-4" cx="122.4975" cy="139.1733" r="0.7636"/></svg>
