<svg id="Levelcomplete" xmlns="http://www.w3.org/2000/svg" width="220" height="210" viewBox="0 0 220 210"><defs><style>.cls-1{fill:#f4912d;}.cls-2{fill:#fff;}</style></defs><title>replayknap</title><circle class="cls-1" cx="108" cy="109" r="69.5"/><path class="cls-2" d="M102.785,65.3006a3.7418,3.7418,0,0,1,5.621,3.2263l.0275,10.82.0274,10.82a3.7419,3.7419,0,0,1-5.6046,3.2548l-9.3845-5.3865L84.0873,82.65a3.7419,3.7419,0,0,1-.0164-6.4811l9.3571-5.434Z"/><path class="cls-2" d="M107.9714,147.9284a6.7871,6.7871,0,1,1,0-13.5741,24.1757,24.1757,0,1,0,0-48.3513,6.7871,6.7871,0,0,1,0-13.5742,37.75,37.75,0,1,1,0,75.5Z"/><path class="cls-2" d="M108.1084,148.1568a37.7926,37.7926,0,0,1-37.75-37.75,6.7871,6.7871,0,0,1,13.5742,0,24.1756,24.1756,0,1,0,48.3512,0,6.7871,6.7871,0,0,1,13.5742,0A37.7927,37.7927,0,0,1,108.1084,148.1568Z"/></svg>
