<svg id="Levelcomplete" xmlns="http://www.w3.org/2000/svg" xmlns:xlink="http://www.w3.org/1999/xlink" width="530" height="870" viewBox="0 0 530 870"><defs><style>.cls-1{fill:#e9eced;}.cls-2{clip-path:url(#clip-path);}.cls-3{fill:#e5e5e5;}.cls-4{fill:#152230;}.cls-5{fill:#89cce5;}.cls-6{fill:#444e59;}.cls-7{fill:#f4912d;}.cls-8{fill:#fff;}</style><clipPath id="clip-path"><rect class="cls-1" x="520.0634" y="-1311.4221" width="1920" height="1080"/></clipPath></defs><title>Settingsmenu</title><rect class="cls-1" x="520.0634" y="-1311.4221" width="1920" height="1080"/><g class="cls-2"><rect class="cls-3" x="543.0056" y="-643.5845" width="2099.9481" height="727.832" transform="translate(182.0661 510.9778) rotate(-19.3078)"/></g><path class="cls-4" d="M125.93,55H403.07a60.43,60.43,0,0,1,60.43,60.43V753.57A60.43,60.43,0,0,1,403.07,814H125.93A60.43,60.43,0,0,1,65.5,753.57V115.43A60.43,60.43,0,0,1,125.93,55Z"/><path d="M403.07,55.5A59.9979,59.9979,0,0,1,463,115.43V753.57a59.9979,59.9979,0,0,1-59.93,59.93H125.93A59.9979,59.9979,0,0,1,66,753.57V115.43A59.9979,59.9979,0,0,1,125.93,55.5H403.07m0-1H125.93A60.9309,60.9309,0,0,0,65,115.43V753.57a60.9309,60.9309,0,0,0,60.93,60.93H403.07A60.9309,60.9309,0,0,0,464,753.57V115.43A60.9309,60.9309,0,0,0,403.07,54.5Z"/><path class="cls-5" d="M132.9258,63H397.0742A60.4258,60.4258,0,0,1,457.5,123.4258V745.5737A60.4263,60.4263,0,0,1,397.0737,806H132.9258A60.4258,60.4258,0,0,1,72.5,745.5742V123.4258A60.4258,60.4258,0,0,1,132.9258,63Z"/><path d="M397.0738,63.5A59.9941,59.9941,0,0,1,457,123.4263V745.5737A59.9941,59.9941,0,0,1,397.0738,805.5H132.9262A59.9941,59.9941,0,0,1,73,745.5737V123.4263A59.9941,59.9941,0,0,1,132.9262,63.5H397.0738m0-1H132.9262A60.9262,60.9262,0,0,0,72,123.4263V745.5737A60.9262,60.9262,0,0,0,132.9262,806.5H397.0738A60.9262,60.9262,0,0,0,458,745.5737V123.4263A60.9262,60.9262,0,0,0,397.0738,62.5Z"/><rect class="cls-4" x="155" y="54.5" width="221" height="36" rx="8.8472"/><rect class="cls-6" x="224" y="66.5" width="59" height="11" rx="4.7294"/><circle class="cls-6" cx="317" cy="72.5" r="7"/><rect class="cls-4" x="98" y="141.5" width="302" height="64" rx="9.0692"/><polyline class="cls-4" points="106 226.5 106 203.5 139 203.5"/><rect class="cls-7" x="142" y="205.5" width="283" height="461" rx="9.0692"/><polyline class="cls-7" points="169.801 686.25 169.801 658.5 219.427 658.5"/><path class="cls-8" d="M124.0938,185.2637v-7.1045q1.8016,2.4609,3.8964,2.4609a1.9434,1.9434,0,0,0,1.2891-.417,1.3129,1.3129,0,0,0,.498-1.0478,2.3629,2.3629,0,0,0-1.0839-1.7725l-.9961-.7764a13.5066,13.5066,0,0,1-1.6993-1.4873,7.604,7.604,0,0,1-1.1425-1.5234,6.4244,6.4244,0,0,1-.6446-1.6182,7.3463,7.3463,0,0,1-.205-1.7578,8.365,8.365,0,0,1,1.582-4.7822,6.44,6.44,0,0,1,5.2881-2.6445,9.4159,9.4159,0,0,1,4.3945,1.1572v6.9141a6.4572,6.4572,0,0,0-1.6992-1.8233,3.2691,3.2691,0,0,0-1.875-.667,1.66,1.66,0,0,0-1.1572.41,1.2058,1.2058,0,0,0-.4688.9521,2.4,2.4,0,0,0,1.2451,1.8018l.9668.7178a9.4514,9.4514,0,0,1,2.7686,2.8564,6.71,6.71,0,0,1,.85,3.4277,7.7259,7.7259,0,0,1-2.0361,5.5079,6.7692,6.7692,0,0,1-5.1563,2.1679A12.828,12.828,0,0,1,124.0938,185.2637Z"/><path class="cls-8" d="M138.2881,185.82V163.2031h11.3525v5.3174h-5.2441v3.2959h4.7021v5.1123h-4.7021v3.457h5.2441V185.82Z"/><path class="cls-8" d="M160.1436,185.82h-6.1084V168.623H150.666v-5.42h12.9785v5.42h-3.5009Z"/><path class="cls-8" d="M173.1221,185.82h-6.1084V168.623h-3.3692v-5.42H176.623v5.42h-3.5009Z"/><path class="cls-8" d="M184.3135,185.82h-6.1084V163.2031h6.1084Z"/><path class="cls-8" d="M187.4775,185.82V163.2031h5.83l3.0615,7.9395q.2491.7031.5635,1.6113t.6963,2.0947l.63,1.9922q-.3369-2.9443-.5127-5.039t-.1758-3.5157v-5.083h5.83V185.82h-5.83l-3.0762-8.32q-.4833-1.3331-.872-2.498-.3882-1.1631-.6807-2.2188.1905,2.3877.2783,4.16t.0879,3.1054V185.82Z"/><path class="cls-8" d="M214.6943,172.7393H223.22v.9375q0,6.5331-1.9482,9.4043a7.0985,7.0985,0,0,1-6.2842,3.1347,7.603,7.603,0,0,1-6.416-3.0762q-2.3145-3.1054-2.3145-8.5253,0-5.4933,2.3291-8.6573a7.4866,7.4866,0,0,1,6.3721-3.164q5.3613,0,7.7783,5.5957l-5.9179,2.1679a3.4461,3.4461,0,0,0-.6075-1.6914,1.45,1.45,0,0,0-1.1943-.623q-2.52,0-2.52,6.9287a11.9592,11.9592,0,0,0,.5566,4.2773,1.86,1.86,0,0,0,1.7725,1.333,1.6922,1.6922,0,0,0,.8789-.2343,1.9967,1.9967,0,0,0,.666-.6592,3.5363,3.5363,0,0,0,.4258-1.0322A5.5844,5.5844,0,0,0,216.95,177.5h-2.2559Z"/><path class="cls-8" d="M225.3438,185.2637v-7.1045q1.8017,2.4609,3.8964,2.4609a1.9434,1.9434,0,0,0,1.2891-.417,1.3129,1.3129,0,0,0,.498-1.0478,2.3629,2.3629,0,0,0-1.0839-1.7725l-.9961-.7764a13.5066,13.5066,0,0,1-1.6993-1.4873,7.604,7.604,0,0,1-1.1425-1.5234,6.4244,6.4244,0,0,1-.6446-1.6182,7.3463,7.3463,0,0,1-.205-1.7578,8.365,8.365,0,0,1,1.582-4.7822,6.44,6.44,0,0,1,5.2881-2.6445,9.4159,9.4159,0,0,1,4.3945,1.1572v6.9141a6.4572,6.4572,0,0,0-1.6992-1.8233,3.2691,3.2691,0,0,0-1.875-.667,1.66,1.66,0,0,0-1.1572.41,1.2058,1.2058,0,0,0-.4688.9521,2.4,2.4,0,0,0,1.2451,1.8018l.9668.7178a9.4514,9.4514,0,0,1,2.7686,2.8564,6.71,6.71,0,0,1,.85,3.4277,7.7259,7.7259,0,0,1-2.0361,5.5079,6.7692,6.7692,0,0,1-5.1563,2.1679A12.828,12.828,0,0,1,225.3438,185.2637Z"/><path class="cls-8" d="M187.8584,346.2773h-6.3867l-.4541-10.3125-.19-4.1162q-.1025,1.1865-.2343,2.2627-.1319,1.0782-.3223,2.0879l-1.9189,10.0781h-4.98l-1.6406-10.0927q-.1465-.879-.3955-3.0176-.0294-.3223-.1319-1.3184l-.1465,4.1748-.542,10.2539h-6.5039l2.6368-22.6171H174.25l1.2744,7.6171q.1611.9375.2861,2.0362.1232,1.0986.2266,2.3877a36.4731,36.4731,0,0,1,.5274-3.8526l1.5527-8.1884h7.5439Z"/><path class="cls-8" d="M190.3486,330.4424h5.8741v8.9209a5.0979,5.0979,0,0,0,.249,1.86,1.031,1.031,0,0,0,.9961.4834.9834.9834,0,0,0,.9668-.4834,4.3884,4.3884,0,0,0,.2636-1.86v-8.9209h5.8741v9.7119a9.0322,9.0322,0,0,1-.1543,1.75,5.3024,5.3024,0,0,1-.4825,1.4219,4.8475,4.8475,0,0,1-.85,1.164,6.5033,6.5033,0,0,1-1.2382.9668,8.4448,8.4448,0,0,1-4.38,1.1426,8.3457,8.3457,0,0,1-4.38-1.1426,6.4208,6.4208,0,0,1-1.252-.959,4.5572,4.5572,0,0,1-.85-1.165,5.4,5.4,0,0,1-.4843-1.4287,9.188,9.188,0,0,1-.1534-1.75Z"/><path class="cls-8" d="M206.7256,344.9736l2.1387-4.3945a4.3523,4.3523,0,0,0,2.9443,1.6553q1.1425,0,1.1426-.82,0-.7032-1.5381-1.26-4.1455-1.4649-4.1455-4.6436a4.8258,4.8258,0,0,1,1.8457-3.8671,7.044,7.044,0,0,1,4.6435-1.5381,10.05,10.05,0,0,1,4.7168,1.289l-2.0068,4.292a4.1034,4.1034,0,0,0-2.417-1.3916q-.9228,0-.9228.7471,0,.8057,1.7578,1.5088a7.3789,7.3789,0,0,1,2.9882,1.831,3.9457,3.9457,0,0,1,.835,2.6661,5.0729,5.0729,0,0,1-1.7725,3.999A6.6608,6.6608,0,0,1,212.38,346.6a10.67,10.67,0,0,1-2.6514-.3369,8.59,8.59,0,0,1-1.3476-.4912Q207.6484,345.4433,206.7256,344.9736Z"/><path class="cls-8" d="M227.0576,325.5352a3.2815,3.2815,0,0,1-1.0107,2.4023,3.3869,3.3869,0,0,1-2.417.9961,3.3154,3.3154,0,0,1-2.4317-1.0107,3.4046,3.4046,0,0,1-.9961-2.4317,3.2913,3.2913,0,0,1,.9961-2.417,3.3875,3.3875,0,0,1,2.417-.9961,3.4263,3.4263,0,0,1,3.4424,3.4571Zm-.498,20.7421h-5.8887V330.4424H226.56Z"/><path class="cls-8" d="M237.9561,346.2773l-2.2706-6.1523q-.1611-.41-.5273-1.8018v7.9541h-5.874V321.5361h5.874v16.04q.1905-.6153.418-1.2227.2256-.608.4756-1.2383l1.9043-4.6728h6.3574l-3.8965,7.2656,4.292,8.5693Z"/><path class="cls-8" d="M252.6484,333.5918a3.17,3.17,0,0,1-1.0107,2.3584,3.2672,3.2672,0,0,1-2.4023.9814,3.4509,3.4509,0,0,1-3.4571-3.4423,3.401,3.401,0,0,1,3.3985-3.3838,3.4512,3.4512,0,0,1,3.4716,3.4863Zm0,9.668a3.17,3.17,0,0,1-1.0107,2.3584,3.2672,3.2672,0,0,1-2.4023.9814,3.421,3.421,0,0,1-2.4463-.9961,3.3318,3.3318,0,0,1-1.0108-2.4463,3.4009,3.4009,0,0,1,3.3985-3.3984,3.325,3.325,0,0,1,2.4609,1.0254A3.3666,3.3666,0,0,1,252.6484,343.26Z"/><path class="cls-8" d="M187.5312,523.0283H176.8379V500.4111h6.1084v17.1827h4.5849Z"/><path class="cls-8" d="M195.4121,529.6641h-6.05l2.5635-7.295-4.7022-15.1757h5.9034l1.1279,4.541q.2343.9375.418,2.0439.1815,1.106.3144,2.3946l.2051-1.45q.41-2.7686.7471-4.1016l.8789-3.4277h5.874Z"/><path class="cls-8" d="M212.1846,523.0283q.0146-.249.0293-.5713t.0439-.747q.0292-.2637.044-.8057a6.2293,6.2293,0,0,1-1.6553,1.9189,3.4348,3.4348,0,0,1-1.9483.5274,4.2332,4.2332,0,0,1-3.75-2.1387,11.1294,11.1294,0,0,1-1.3476-5.9473,12.1028,12.1028,0,0,1,1.3183-6.1962,4.121,4.121,0,0,1,3.7207-2.212,3.53,3.53,0,0,1,2.1241.586,5.8041,5.8041,0,0,1,1.6406,2.0361q-.044-.7617-.0439-.9228l-.0586-1.5967v-8.6719H218.19v24.7412Zm-2.5049-7.9834q0,3.252,1.45,3.252,1.3623,0,1.3623-3.3545,0-3.208-1.3184-3.208Q209.68,511.7344,209.68,515.0449Z"/><path class="cls-8" d="M227.4775,510.3428a3.17,3.17,0,0,1-1.0107,2.3584,3.2672,3.2672,0,0,1-2.4023.9814,3.4509,3.4509,0,0,1-3.4571-3.4424,3.401,3.401,0,0,1,3.3985-3.3838,3.4513,3.4513,0,0,1,3.4716,3.4864Zm0,9.6679a3.17,3.17,0,0,1-1.0107,2.3584,3.2673,3.2673,0,0,1-2.4023.9815,3.421,3.421,0,0,1-2.4463-.9961,3.3319,3.3319,0,0,1-1.0108-2.4463,3.4009,3.4009,0,0,1,3.3985-3.3984,3.325,3.325,0,0,1,2.4609,1.0254A3.3665,3.3665,0,0,1,227.4775,520.0107Z"/></svg>
