<svg id="Levelcomplete" xmlns="http://www.w3.org/2000/svg" width="247" height="4466" viewBox="0 0 247 4466"><defs><style>.cls-1{fill:#fff;}</style></defs><title>Ursheet</title><rect x="208.4541" y="122.2817" width="21.4116" height="1"/><rect x="19.1343" y="122.2817" width="21.4116" height="1"/><rect x="124.2817" y="206.4541" width="1" height="21.4116"/><circle class="cls-1" cx="124.7817" cy="122.7817" r="102.5482"/><path d="M124.5,233.5a111,111,0,1,1,111-111A111.1259,111.1259,0,0,1,124.5,233.5Zm0-210.731A99.731,99.731,0,1,0,224.231,122.5,99.8442,99.8442,0,0,0,124.5,22.769Z"/><path d="M125.0635,127.698a5.6346,5.6346,0,0,1-5.6346-5.6345V52.1954a5.6346,5.6346,0,0,1,11.2691,0v69.8681A5.6346,5.6346,0,0,1,125.0635,127.698Z"/><rect x="207.4541" y="4338.2817" width="21.4116" height="1"/><rect x="18.1343" y="4338.2817" width="21.4116" height="1"/><rect x="123.2817" y="4422.4541" width="1" height="21.4116"/><circle class="cls-1" cx="123.7817" cy="4338.7817" r="102.5482"/><path d="M123.5,4449.5a111,111,0,1,1,111-111A111.1259,111.1259,0,0,1,123.5,4449.5Zm0-210.731a99.731,99.731,0,1,0,99.731,99.731A99.8442,99.8442,0,0,0,123.5,4238.769Z"/><path d="M124.0635,4343.698a5.6346,5.6346,0,0,1-5.6346-5.6345v-69.8681a5.6346,5.6346,0,0,1,11.2691,0v69.8681A5.6346,5.6346,0,0,1,124.0635,4343.698Z"/><rect x="207.4541" y="352.2817" width="21.4116" height="1"/><rect x="8.1343" y="352.2817" width="21.4116" height="1"/><rect x="123.2817" y="436.4541" width="1" height="21.4116"/><circle class="cls-1" cx="123.7817" cy="352.7817" r="102.5482"/><path d="M123.5,463.5a111,111,0,1,1,111-111A111.1259,111.1259,0,0,1,123.5,463.5Zm0-210.731A99.731,99.731,0,1,0,223.231,352.5,99.8442,99.8442,0,0,0,123.5,252.769Z"/><path d="M122.5045,357.4986a5.6346,5.6346,0,0,1-3.881-6.9594l19.0859-67.2106a5.6345,5.6345,0,1,1,10.84,3.0783l-19.0859,67.2107A5.6347,5.6347,0,0,1,122.5045,357.4986Z"/><rect x="207.4541" y="582.2817" width="21.4116" height="1"/><rect x="8.1343" y="582.2817" width="21.4116" height="1"/><rect x="118.2817" y="666.4541" width="1" height="21.4116"/><circle class="cls-1" cx="123.7817" cy="582.7817" r="102.5482"/><path d="M123.5,693.5a111,111,0,1,1,111-111A111.1259,111.1259,0,0,1,123.5,693.5Zm0-210.731A99.731,99.731,0,1,0,223.231,582.5,99.8442,99.8442,0,0,0,123.5,482.769Z"/><path d="M119.64,586.1981a5.6346,5.6346,0,0,1,.1168-7.9676L169.88,529.556A5.6345,5.6345,0,1,1,177.73,537.64l-50.1232,48.6745A5.6347,5.6347,0,0,1,119.64,586.1981Z"/><rect x="207.4541" y="818.2817" width="21.4116" height="1"/><rect x="8.1343" y="818.2817" width="21.4116" height="1"/><circle class="cls-1" cx="123.7817" cy="818.7817" r="102.5482"/><path d="M123.5,929.5a111,111,0,1,1,111-111A111.1259,111.1259,0,0,1,123.5,929.5Zm0-210.731A99.731,99.731,0,1,0,223.231,818.5,99.8442,99.8442,0,0,0,123.5,718.769Z"/><path d="M117.58,821.8959a5.6347,5.6347,0,0,1,2.1766-7.6654l61.02-34.03a5.6345,5.6345,0,0,1,5.4888,9.842l-61.02,34.03A5.6346,5.6346,0,0,1,117.58,821.8959Z"/><rect x="207.4541" y="1054.2817" width="21.4116" height="1"/><circle class="cls-1" cx="123.7817" cy="1054.7817" r="102.5482"/><path d="M123.5,1165.5a111,111,0,1,1,111-111A111.1259,111.1259,0,0,1,123.5,1165.5Zm0-210.731a99.731,99.731,0,1,0,99.731,99.731A99.8442,99.8442,0,0,0,123.5,954.769Z"/><path d="M116.9855,1056.2606a5.6344,5.6344,0,0,1,4.2378-6.748l68.1127-15.563a5.6346,5.6346,0,0,1,2.51,10.986l-68.1127,15.5629A5.6346,5.6346,0,0,1,116.9855,1056.2606Z"/><rect x="207.4541" y="1284.2817" width="21.4116" height="1"/><circle class="cls-1" cx="123.7817" cy="1284.7817" r="102.5482"/><path d="M123.5,1395.5a111,111,0,1,1,111-111A111.1259,111.1259,0,0,1,123.5,1395.5Zm0-210.731a99.731,99.731,0,1,0,99.731,99.731A99.8442,99.8442,0,0,0,123.5,1184.769Z"/><path d="M116.93,1285.2335a5.6346,5.6346,0,0,1,5.6375-5.6316l69.868.037a5.6345,5.6345,0,0,1-.0059,11.269l-69.8681-.0369A5.6347,5.6347,0,0,1,116.93,1285.2335Z"/><rect x="207.4541" y="1514.2817" width="21.4116" height="1"/><circle class="cls-1" cx="123.7817" cy="1514.7817" r="102.5482"/><path d="M123.5,1625.5a111,111,0,1,1,111-111A111.1259,111.1259,0,0,1,123.5,1625.5Zm0-210.731a99.731,99.731,0,1,0,99.731,99.731A99.8442,99.8442,0,0,0,123.5,1414.769Z"/><path d="M117.0468,1513.8915a5.6346,5.6346,0,0,1,6.92-3.95l67.3977,18.4143a5.6345,5.6345,0,1,1-2.97,10.8706l-67.3977-18.4143A5.6346,5.6346,0,0,1,117.0468,1513.8915Z"/><rect x="196.4066" y="2029.0226" width="1" height="21.4116" transform="translate(-1512.0193 908.8719) rotate(-50.992)"/><circle class="cls-1" cx="123.5693" cy="1980.324" r="102.5482"/><path d="M53.6611,2066.1812a111,111,0,1,1,156.12-16.3868A111.1258,111.1258,0,0,1,53.6611,2066.1812Zm132.64-163.75a99.7309,99.7309,0,1,0,14.7232,140.27A99.8441,99.8441,0,0,0,186.3013,1902.4311Z"/><path d="M118.8962,1975.3931a5.6345,5.6345,0,0,1,7.8639,1.2862l40.7814,56.7311a5.6345,5.6345,0,0,1-9.15,6.5777L117.61,1983.257A5.6346,5.6346,0,0,1,118.8962,1975.3931Z"/><rect x="149.3512" y="2292.8987" width="1" height="21.4116" transform="translate(-635.4538 132.8108) rotate(-16.1662)"/><circle class="cls-1" cx="123.574" cy="2212.9582" r="102.5482"/><path d="M17.1553,2243.5143a111,111,0,1,1,137.516,75.7058A111.1258,111.1258,0,0,1,17.1553,2243.5143Zm202.3983-58.6726a99.7309,99.7309,0,1,0-68.02,123.5549A99.844,99.844,0,0,0,219.5536,2184.8417Z"/><path d="M122.5539,2206.2417a5.6347,5.6347,0,0,1,5.7209,5.5469l1.0789,69.86a5.6345,5.6345,0,0,1-11.2677.1741l-1.0789-69.86A5.6346,5.6346,0,0,1,122.5539,2206.2417Z"/><rect x="214.1409" y="1763.0642" width="1" height="21.4116" transform="matrix(0.2683, -0.9633, 0.9633, 0.2683, -1551.6773, 1504.603)"/><circle class="cls-1" cx="123.7236" cy="1748.4465" r="102.5482"/><path d="M93.7443,1855.0291a111,111,0,1,1,136.7131-77.1461A111.1258,111.1258,0,0,1,93.7443,1855.0291Zm56.5432-203.0034a99.7309,99.7309,0,1,0,69.3141,122.8336A99.8441,99.8441,0,0,0,150.2875,1652.0257Z"/><path d="M117.4744,1745.7818a5.6347,5.6347,0,0,1,7.7265-1.9486l59.9854,35.8232a5.6346,5.6346,0,0,1-5.778,9.6751l-59.9853-35.8232A5.6347,5.6347,0,0,1,117.4744,1745.7818Z"/><rect x="8.1743" y="2444.0997" width="21.4116" height="1"/><rect x="207.4942" y="2444.0997" width="21.4116" height="1"/><circle class="cls-1" cx="123.2583" cy="2444.5997" r="102.5482"/><path d="M123.54,2333.8814a111,111,0,1,1-111,111A111.1259,111.1259,0,0,1,123.54,2333.8814Zm0,210.731a99.731,99.731,0,1,0-99.731-99.731A99.8441,99.8441,0,0,0,123.54,2544.6124Z"/><path d="M124.5355,2439.8828a5.6347,5.6347,0,0,1,3.8811,6.9594l-19.0859,67.2107a5.6345,5.6345,0,1,1-10.84-3.0784l19.0859-67.2106A5.6345,5.6345,0,0,1,124.5355,2439.8828Z"/><rect x="8.1743" y="2676.0997" width="21.4116" height="1"/><rect x="207.4942" y="2676.0997" width="21.4116" height="1"/><circle class="cls-1" cx="123.2583" cy="2676.5997" r="102.5482"/><path d="M123.54,2565.8814a111,111,0,1,1-111,111A111.1259,111.1259,0,0,1,123.54,2565.8814Zm0,210.731a99.731,99.731,0,1,0-99.731-99.731A99.8441,99.8441,0,0,0,123.54,2776.6124Z"/><path d="M127.4,2673.1834a5.6345,5.6345,0,0,1-.1168,7.9675L77.16,2729.8254a5.6345,5.6345,0,0,1-7.8508-8.0844l50.1233-48.6745A5.6346,5.6346,0,0,1,127.4,2673.1834Z"/><rect x="8.1743" y="2908.0997" width="21.4116" height="1"/><rect x="207.4942" y="2908.0997" width="21.4116" height="1"/><circle class="cls-1" cx="123.2583" cy="2908.5997" r="102.5482"/><path d="M123.54,2797.8814a111,111,0,1,1-111,111A111.1259,111.1259,0,0,1,123.54,2797.8814Zm0,210.731a99.731,99.731,0,1,0-99.731-99.731A99.8441,99.8441,0,0,0,123.54,3008.6124Z"/><path d="M129.46,2905.4855a5.6347,5.6347,0,0,1-2.1766,7.6654l-61.02,34.03a5.6345,5.6345,0,1,1-5.4888-9.842l61.02-34.03A5.6346,5.6346,0,0,1,129.46,2905.4855Z"/><circle class="cls-1" cx="123.1758" cy="3151.6083" r="102.5482"/><path d="M123.4575,3040.89a111,111,0,1,1-111,111A111.1259,111.1259,0,0,1,123.4575,3040.89Zm0,210.731a99.731,99.731,0,1,0-99.731-99.731A99.8441,99.8441,0,0,0,123.4575,3251.621Z"/><path d="M129.972,3150.1294a5.6347,5.6347,0,0,1-4.2379,6.7481L57.6215,3172.44a5.6345,5.6345,0,1,1-2.51-10.9859l68.1127-15.5629A5.6346,5.6346,0,0,1,129.972,3150.1294Z"/><rect x="8.1743" y="3394.0997" width="21.4116" height="1"/><circle class="cls-1" cx="123.2583" cy="3394.5997" r="102.5482"/><path d="M123.54,3283.8814a111,111,0,1,1-111,111A111.1259,111.1259,0,0,1,123.54,3283.8814Zm0,210.731a99.731,99.731,0,1,0-99.731-99.731A99.8441,99.8441,0,0,0,123.54,3494.6124Z"/><path d="M130.1105,3394.148a5.6347,5.6347,0,0,1-5.6375,5.6315l-69.868-.0369a5.6346,5.6346,0,0,1,.0059-11.2691l69.868.037A5.6346,5.6346,0,0,1,130.1105,3394.148Z"/><rect x="8.1743" y="3635.0997" width="21.4116" height="1"/><circle class="cls-1" cx="123.2583" cy="3635.5997" r="102.5482"/><path d="M123.54,3524.8814a111,111,0,1,1-111,111A111.1259,111.1259,0,0,1,123.54,3524.8814Zm0,210.731a99.731,99.731,0,1,0-99.731-99.731A99.8441,99.8441,0,0,0,123.54,3735.6124Z"/><path d="M129.9933,3636.49a5.6345,5.6345,0,0,1-6.92,3.95l-67.3977-18.4143a5.6345,5.6345,0,0,1,2.97-10.8706L126.043,3629.57A5.6346,5.6346,0,0,1,129.9933,3636.49Z"/><circle class="cls-1" cx="123.1882" cy="4109.2555" r="102.5482"/><path d="M193.0964,4023.3983a111,111,0,1,1-156.12,16.3868A111.1257,111.1257,0,0,1,193.0964,4023.3983Zm-132.64,163.75a99.731,99.731,0,1,0-14.7231-140.27A99.8441,99.8441,0,0,0,60.4562,4187.1484Z"/><path d="M127.8613,4114.1864a5.6346,5.6346,0,0,1-7.8639-1.2863l-40.7814-56.731a5.6345,5.6345,0,1,1,9.15-6.5777l40.7814,56.7311A5.6346,5.6346,0,0,1,127.8613,4114.1864Z"/><rect x="21.8533" y="3842.9448" width="1" height="21.4116" transform="translate(-3695.9817 2841.1748) rotate(-74.4357)"/><circle class="cls-1" cx="123.2707" cy="3878.9741" r="102.5482"/><path d="M153.25,3772.3914a111,111,0,1,1-136.7131,77.1462A111.1259,111.1259,0,0,1,153.25,3772.3914ZM96.7067,3975.3949a99.731,99.731,0,1,0-69.3141-122.8336A99.8441,99.8441,0,0,0,96.7067,3975.3949Z"/><path d="M129.52,3881.6388a5.6347,5.6347,0,0,1-7.7265,1.9486L61.808,3847.7642a5.6345,5.6345,0,0,1,5.7779-9.6751l59.9853,35.8232A5.6346,5.6346,0,0,1,129.52,3881.6388Z"/></svg>
